M48
;Layer_Color=9474304
;FILE_FORMAT=2:5
INCH,TZ
;TYPE=PLATED
T1F00S00C0.01000
T2F00S00C0.01500
T3F00S00C0.01968
T4F00S00C0.02000
T5F00S00C0.02500
T6F00S00C0.03000
T7F00S00C0.03150
T8F00S00C0.03543
T9F00S00C0.03937
T10F00S00C0.04331
T11F00S00C0.04724
T12F00S00C0.05906
T13F00S00C0.07000
T14F00S00C0.07874
T15F00S00C0.10000
T16F00S00C0.13780
%
T01
X332910Y126901
X305810Y134001
X282510Y147701
X280110Y145301
X280910Y158101
X289710Y156501
X248110Y154101
X250510Y151701
X246000Y149200
X245800Y144300
X235310Y144501
Y149301
X220886Y150876
X218939Y154101
X220910Y156101
X218510Y158101
X204910Y156501
X196110Y151701
X192067Y148544
Y159658
X181710Y130901
X172910Y125301
X181008Y115475
X182510Y113301
X182646Y110236
X186510Y105301
X193257Y103248
X194759Y110400
X193710Y113301
X205138Y107473
X220910Y113301
X221710Y96501
X217710Y97301
X225710Y98101
X225959Y88750
X236910Y79701
X239310Y75701
X241710Y73301
X239109Y63500
X248110Y61301
X252910
X257710Y59701
X287310Y56501
X301710Y27701
X312359Y28000
X312110Y100501
X236910Y122101
X238510Y128501
X226510Y134101
X220910
X224110Y141301
X217110Y68701
X219110Y63701
X217959Y58400
X214759Y57600
X212359Y55200
X209710Y53301
X207310Y50901
X200910Y50101
X198510Y55701
X205710Y30101
X175310Y78901
X151310Y86101
Y92501
X143439Y89429
X132910Y74901
X128110Y68501
X133710Y57301
X136110Y54101
X156110Y38101
X161710
X143310Y24501
X80110Y50901
X85710Y56501
X71310Y48501
X51516Y48706
X136910Y120501
X137057Y124648
X136910Y129301
Y133301
Y142901
X145039Y129429
X140054Y118400
X156110Y114901
Y135701
X164910
X169710Y131701
X165096Y126748
X168910Y141301
Y152501
X156109Y152500
X167810Y103201
X150854Y174901
X120110Y270901
X186510Y178901
X184110Y168501
X208110Y162901
X224910Y165301
X232910Y173301
X241900Y167800
X247310Y166901
X257710Y170101
X268910Y174101
X291310Y166101
X307310Y162901
X314510Y230101
X284910Y217301
X255310Y231701
X284110Y274901
X325710Y282901
X295354Y314252
T02
X294510Y162101
T03
X296673Y154547
X304547
T04
X191110Y59701
X191151Y71742
X224359Y61600
X321110Y59701
X164110Y173301
X150510Y202901
X146809Y249600
X145710Y261301
X160359Y246400
X174510Y262101
X194510Y305301
X309016Y261406
X318510Y202101
X319310Y192501
X292211Y330000
X176406Y327153
Y319279
Y335027
Y342901
X168532
X160658
X152784
X144910
Y335027
X152784
X160658
X168532
Y327153
X160658
Y319279
X168532
X152784
Y327153
X144910
Y319279
T05
X91120Y123091
X91021Y165591
X91310Y218101
X72068Y230101
X134510Y242901
X208988Y184501
T06
X179310Y66340
Y96262
X117986Y83976
X119686Y126476
X127310Y162901
T07
X327559Y100000
Y110000
Y120000
Y130000
Y140000
Y150000
Y160000
X301614Y45000
X291772
X281929
X272087
X327559Y170000
Y180000
Y190000
Y200000
T08
X278110Y63701
X288110
X298110
X308110
Y93701
X298110
X288110
X278110
X160610Y118701
Y128701
Y138701
Y148701
X50059Y85000
Y69410
X90610Y183701
Y193701
X120610
Y183701
X178110Y173701
Y168701
Y163701
X193110Y171201
X203110
X213110
X223110
T09
X197559Y45000
X207402
X217244
X242559
X252402
X262244
Y15000
X252402
X242559
X292559
X302402
X259310Y117701
Y137701
X43110Y238858
Y248701
X176110Y232501
X185953
T10
X105610Y288701
Y308701
T11
X339311Y227559
Y253150
T12
X238365Y214756
X233003Y227701
X238365Y240646
X264255
X269617Y227701
X264255Y214756
X242510Y280186
Y310501
T13
X48878Y30000
X64469
X80059
X106969
X122559
X151969
X167559
X62559Y107500
Y123091
Y150000
Y165591
T14
X80610Y286201
Y323602
T15
X127310Y323602
T16
X362205Y15748
X15748Y15748
X123150Y261240
X201496
X362205Y334646
X201496Y339587
X123100Y339600
X15748Y334646
M30
