%FSLAX25Y25*%
%MOIN*%
G70*
G01*
G75*
G04 Layer_Color=255*
%ADD10R,0.04134X0.09449*%
%ADD11R,0.41929X0.35039*%
%ADD12R,0.01181X0.05906*%
%ADD13R,0.05906X0.01181*%
%ADD14R,0.04724X0.05512*%
%ADD15R,0.07874X0.03937*%
%ADD16O,0.02756X0.09843*%
%ADD17R,0.02362X0.04528*%
%ADD18R,0.11221X0.08465*%
%ADD19R,0.08465X0.11221*%
%ADD20R,0.12992X0.09449*%
%ADD21R,0.03937X0.09449*%
%ADD22O,0.02362X0.08858*%
%ADD23O,0.08858X0.02362*%
%ADD24R,0.06693X0.06693*%
%ADD25R,0.05512X0.04724*%
%ADD26R,0.06693X0.06693*%
%ADD27O,0.00984X0.06102*%
%ADD28O,0.06102X0.00984*%
%ADD29R,0.23228X0.21654*%
%ADD30R,0.07087X0.03543*%
%ADD31R,0.20276X0.09252*%
%ADD32C,0.01000*%
%ADD33C,0.02500*%
%ADD34C,0.02000*%
%ADD35C,0.05000*%
%ADD36C,0.15000*%
%ADD37C,0.10000*%
%ADD38C,0.01500*%
%ADD39C,0.07874*%
%ADD40C,0.06299*%
%ADD41R,0.05906X0.05906*%
%ADD42C,0.05906*%
%ADD43C,0.11000*%
%ADD44C,0.15748*%
%ADD45R,0.05906X0.05906*%
%ADD46C,0.03937*%
%ADD47C,0.07284*%
%ADD48R,0.07284X0.07284*%
%ADD49O,0.07874X0.03937*%
%ADD50O,0.07874X0.03937*%
%ADD51C,0.11811*%
%ADD52C,0.04724*%
%ADD53R,0.07874X0.07874*%
%ADD54C,0.07874*%
%ADD55C,0.06693*%
%ADD56C,0.09000*%
%ADD57C,0.02000*%
%ADD58C,0.04000*%
%ADD59C,0.01800*%
%ADD60C,0.05000*%
%ADD61C,0.06000*%
%ADD62C,0.03800*%
%ADD63C,0.02500*%
%ADD64C,0.03600*%
%ADD65C,0.15000*%
%ADD66R,0.11811X0.11811*%
D14*
X207067Y156201D02*
D03*
X214154D02*
D03*
X216454Y94101D02*
D03*
X209367D02*
D03*
X319154Y188701D02*
D03*
X312067D02*
D03*
X319154Y148701D02*
D03*
X312067D02*
D03*
X319154Y158701D02*
D03*
X312067D02*
D03*
X319154Y168701D02*
D03*
X312067D02*
D03*
X199154Y156201D02*
D03*
X192067D02*
D03*
X270054Y63701D02*
D03*
X262967D02*
D03*
X171516Y109000D02*
D03*
X178602D02*
D03*
X241602Y152000D02*
D03*
X234516D02*
D03*
X331102Y275000D02*
D03*
X324016D02*
D03*
X294016Y320000D02*
D03*
X301102D02*
D03*
X309016Y275000D02*
D03*
X316102D02*
D03*
X214016Y35000D02*
D03*
X221102D02*
D03*
X201102Y35000D02*
D03*
X194016D02*
D03*
X201102Y25000D02*
D03*
X194016D02*
D03*
X214016Y25000D02*
D03*
X221102D02*
D03*
X231102Y73500D02*
D03*
X224016D02*
D03*
X209016Y73500D02*
D03*
X216102D02*
D03*
X216102Y83500D02*
D03*
X209016D02*
D03*
X216102Y63500D02*
D03*
X209016D02*
D03*
X224016Y83500D02*
D03*
X231102D02*
D03*
X224567Y93701D02*
D03*
X231654D02*
D03*
X51516Y42500D02*
D03*
X58602D02*
D03*
X71516D02*
D03*
X78602D02*
D03*
X71516Y52500D02*
D03*
X78602D02*
D03*
X51516D02*
D03*
X58602D02*
D03*
X150854Y177301D02*
D03*
X143767D02*
D03*
X151102Y97500D02*
D03*
X144016D02*
D03*
X151102Y137500D02*
D03*
X144016D02*
D03*
D17*
X183671Y87479D02*
D03*
X191151D02*
D03*
X187411Y78620D02*
D03*
D25*
X158510Y52844D02*
D03*
Y45757D02*
D03*
X278110Y84744D02*
D03*
Y77658D02*
D03*
X288110Y84744D02*
D03*
Y77658D02*
D03*
X298110Y82244D02*
D03*
Y75157D02*
D03*
X298110Y162657D02*
D03*
Y169744D02*
D03*
X305610Y162657D02*
D03*
Y169744D02*
D03*
X172411Y79006D02*
D03*
Y86093D02*
D03*
X251310Y221557D02*
D03*
Y228644D02*
D03*
X329311Y237106D02*
D03*
Y244193D02*
D03*
X339311Y244193D02*
D03*
Y237106D02*
D03*
D40*
X185953Y232501D02*
D03*
X176110D02*
D03*
X43110Y248701D02*
D03*
Y238858D02*
D03*
X242559Y45000D02*
D03*
X252402D02*
D03*
X262244D02*
D03*
X242559Y15000D02*
D03*
X252402D02*
D03*
X262244D02*
D03*
X197559Y45000D02*
D03*
X207402D02*
D03*
X217244D02*
D03*
X292559Y15000D02*
D03*
X302402D02*
D03*
D41*
X193110Y171201D02*
D03*
X90610Y193701D02*
D03*
D42*
X203110Y171201D02*
D03*
X213110D02*
D03*
X223110D02*
D03*
X308110Y93701D02*
D03*
X298110D02*
D03*
X288110D02*
D03*
X278110D02*
D03*
X308110Y63701D02*
D03*
X298110D02*
D03*
X288110D02*
D03*
X90610Y183701D02*
D03*
X120610Y193701D02*
D03*
Y183701D02*
D03*
X160610Y128701D02*
D03*
Y138701D02*
D03*
Y148701D02*
D03*
X301614Y45000D02*
D03*
X291772D02*
D03*
X281929D02*
D03*
X272087D02*
D03*
X327559Y200000D02*
D03*
Y190000D02*
D03*
Y180000D02*
D03*
Y170000D02*
D03*
Y140000D02*
D03*
Y160000D02*
D03*
Y150000D02*
D03*
Y130000D02*
D03*
Y120000D02*
D03*
Y110000D02*
D03*
Y100000D02*
D03*
D43*
X48878Y30000D02*
D03*
X64469D02*
D03*
X80059D02*
D03*
X151969D02*
D03*
X167559D02*
D03*
X62559Y165591D02*
D03*
Y150000D02*
D03*
X122559Y30000D02*
D03*
X106969D02*
D03*
X62559Y107500D02*
D03*
Y123091D02*
D03*
D44*
X80610Y286201D02*
D03*
Y323602D02*
D03*
D45*
X278110Y63701D02*
D03*
X160610Y118701D02*
D03*
D46*
X201496Y261240D02*
D03*
Y339587D02*
D03*
X123150Y261240D02*
D03*
X242510Y310501D02*
D03*
Y280186D02*
D03*
X15748Y15748D02*
D03*
X362205Y15748D02*
D03*
X15748Y334646D02*
D03*
X362205D02*
D03*
X123100Y339600D02*
D03*
D47*
X105610Y288701D02*
D03*
D48*
Y308701D02*
D03*
D49*
X178110Y163701D02*
D03*
Y173701D02*
D03*
D50*
Y168701D02*
D03*
D51*
X238365Y214756D02*
D03*
X264255Y240646D02*
D03*
X238365D02*
D03*
X233003Y227701D02*
D03*
X264255Y214756D02*
D03*
X269617Y227701D02*
D03*
D52*
X304547Y154547D02*
D03*
X296673D02*
D03*
D53*
X179310Y96262D02*
D03*
D54*
Y66340D02*
D03*
X339311Y253150D02*
D03*
Y227559D02*
D03*
D55*
X259310Y137701D02*
D03*
Y117701D02*
D03*
D56*
X50059Y69410D02*
D03*
Y85000D02*
D03*
D66*
X242510Y260501D02*
D03*
Y330501D02*
D03*
M02*
