%FSLAX25Y25*%
%MOIN*%
G70*
G01*
G75*
G04 Layer_Color=32768*
%ADD10R,0.04134X0.09449*%
%ADD11R,0.41929X0.35039*%
%ADD12R,0.01181X0.05906*%
%ADD13R,0.05906X0.01181*%
%ADD14R,0.04724X0.05512*%
%ADD15R,0.07874X0.03937*%
%ADD16O,0.02756X0.09843*%
%ADD17R,0.02362X0.04528*%
%ADD18R,0.11221X0.08465*%
%ADD19R,0.08465X0.11221*%
%ADD20R,0.12992X0.09449*%
%ADD21R,0.03937X0.09449*%
%ADD22O,0.02362X0.08858*%
%ADD23O,0.08858X0.02362*%
%ADD24R,0.06693X0.06693*%
%ADD25R,0.05512X0.04724*%
%ADD26R,0.06693X0.06693*%
%ADD27O,0.00984X0.06102*%
%ADD28O,0.06102X0.00984*%
%ADD29R,0.23228X0.21654*%
%ADD30R,0.07087X0.03543*%
%ADD31R,0.20276X0.09252*%
%ADD32C,0.01000*%
%ADD33C,0.02500*%
%ADD34C,0.02000*%
%ADD35C,0.05000*%
%ADD36C,0.15000*%
%ADD37C,0.10000*%
%ADD38C,0.01500*%
%ADD39C,0.07874*%
%ADD40C,0.06299*%
%ADD41R,0.05906X0.05906*%
%ADD42C,0.05906*%
%ADD43C,0.11000*%
%ADD44C,0.15748*%
%ADD45R,0.05906X0.05906*%
%ADD46C,0.03937*%
%ADD47C,0.07284*%
%ADD48R,0.07284X0.07284*%
%ADD49O,0.07874X0.03937*%
%ADD50O,0.07874X0.03937*%
%ADD51C,0.11811*%
%ADD52C,0.04724*%
%ADD53R,0.07874X0.07874*%
%ADD54C,0.07874*%
%ADD55C,0.06693*%
%ADD56C,0.09000*%
%ADD57C,0.02000*%
%ADD58C,0.04000*%
%ADD59C,0.01800*%
%ADD60C,0.05000*%
%ADD61C,0.06000*%
%ADD62C,0.03800*%
%ADD63C,0.02500*%
%ADD64C,0.03600*%
%ADD65C,0.15000*%
%ADD66R,0.11811X0.11811*%
%ADD67C,0.02362*%
%ADD68C,0.00984*%
%ADD69C,0.00787*%
%ADD70C,0.00800*%
%ADD71R,0.04934X0.10249*%
%ADD72R,0.42729X0.35839*%
%ADD73R,0.01981X0.06706*%
%ADD74R,0.06706X0.01981*%
%ADD75R,0.05524X0.06312*%
%ADD76R,0.08674X0.04737*%
%ADD77O,0.03556X0.10642*%
%ADD78R,0.03162X0.05328*%
%ADD79R,0.12020X0.09265*%
%ADD80R,0.09265X0.12020*%
%ADD81R,0.13792X0.10249*%
%ADD82R,0.04737X0.10249*%
%ADD83O,0.03162X0.09658*%
%ADD84O,0.09658X0.03162*%
%ADD85R,0.07493X0.07493*%
%ADD86R,0.06312X0.05524*%
%ADD87R,0.07493X0.07493*%
%ADD88O,0.01784X0.06902*%
%ADD89O,0.06902X0.01784*%
%ADD90R,0.24028X0.22453*%
%ADD91R,0.07887X0.04343*%
%ADD92R,0.21076X0.10052*%
%ADD93C,0.07099*%
%ADD94R,0.06706X0.06706*%
%ADD95C,0.06706*%
%ADD96C,0.11800*%
%ADD97C,0.16548*%
%ADD98R,0.06706X0.06706*%
%ADD99C,0.04737*%
%ADD100C,0.08083*%
%ADD101R,0.08083X0.08083*%
%ADD102O,0.08674X0.04737*%
%ADD103O,0.08674X0.04737*%
%ADD104C,0.12611*%
%ADD105C,0.05524*%
%ADD106R,0.08674X0.08674*%
%ADD107C,0.08674*%
%ADD108C,0.07493*%
%ADD109C,0.09800*%
%ADD110C,0.02800*%
%ADD111C,0.04800*%
%ADD112C,0.02600*%
%ADD113C,0.05800*%
%ADD114C,0.06800*%
%ADD115C,0.04600*%
%ADD116C,0.03300*%
%ADD117C,0.04400*%
%ADD118C,0.15800*%
%ADD119R,0.12611X0.12611*%
%ADD120C,0.00394*%
%ADD121C,0.00197*%
D120*
X210610Y154232D02*
Y158169D01*
X208642Y156201D02*
X212579D01*
X203720Y152461D02*
X217500D01*
X203720Y159941D02*
X217500D01*
X203720Y152461D02*
Y159941D01*
X217500Y152461D02*
Y159941D01*
X212910Y92132D02*
Y96069D01*
X210942Y94101D02*
X214879D01*
X206020Y97841D02*
X219800D01*
X206020Y90361D02*
X219800D01*
Y97841D01*
X206020Y90361D02*
Y97841D01*
X154770Y56191D02*
X162250D01*
X154770Y42411D02*
X162250D01*
X154770D02*
Y56191D01*
X162250Y42411D02*
Y56191D01*
X158510Y47332D02*
Y51269D01*
X156542Y49301D02*
X160479D01*
X315610Y186732D02*
Y190669D01*
X313642Y188701D02*
X317579D01*
X308720Y192441D02*
X322500D01*
X308720Y184961D02*
X322500D01*
Y192441D01*
X308720Y184961D02*
Y192441D01*
X322500Y144961D02*
Y152441D01*
X308720Y144961D02*
Y152441D01*
X322500D01*
X308720Y144961D02*
X322500D01*
X313642Y148701D02*
X317579D01*
X315610Y146732D02*
Y150669D01*
X322500Y154961D02*
Y162441D01*
X308720Y154961D02*
Y162441D01*
X322500D01*
X308720Y154961D02*
X322500D01*
X313642Y158701D02*
X317579D01*
X315610Y156732D02*
Y160669D01*
X322500Y164961D02*
Y172441D01*
X308720Y164961D02*
Y172441D01*
X322500D01*
X308720Y164961D02*
X322500D01*
X313642Y168701D02*
X317579D01*
X315610Y166732D02*
Y170669D01*
X274370Y88091D02*
X281850D01*
X274370Y74311D02*
X281850D01*
X274370D02*
Y88091D01*
X281850Y74311D02*
Y88091D01*
X278110Y79232D02*
Y83169D01*
X276142Y81201D02*
X280079D01*
X284370Y88091D02*
X291850D01*
X284370Y74311D02*
X291850D01*
X284370D02*
Y88091D01*
X291850Y74311D02*
Y88091D01*
X288110Y79232D02*
Y83169D01*
X286142Y81201D02*
X290079D01*
X294370Y85591D02*
X301851D01*
X294370Y71811D02*
X301851D01*
X294370D02*
Y85591D01*
X301851Y71811D02*
Y85591D01*
X298110Y76732D02*
Y80669D01*
X296142Y78701D02*
X300079D01*
X195610Y154232D02*
Y158169D01*
X193642Y156201D02*
X197579D01*
X188721Y159941D02*
X202500D01*
X188721Y152461D02*
X202500D01*
Y159941D01*
X188721Y152461D02*
Y159941D01*
X296142Y166201D02*
X300079D01*
X298110Y164232D02*
Y168169D01*
X301850Y159311D02*
Y173091D01*
X294370Y159311D02*
Y173091D01*
Y159311D02*
X301850D01*
X294370Y173091D02*
X301850D01*
X303642Y166201D02*
X307579D01*
X305610Y164232D02*
Y168169D01*
X309350Y159311D02*
Y173091D01*
X301870Y159311D02*
Y173091D01*
Y159311D02*
X309350D01*
X301870Y173091D02*
X309350D01*
X291142Y78701D02*
X295079D01*
X293110Y76732D02*
Y80669D01*
X138760Y283720D02*
X182461D01*
X138760Y348681D02*
X182461D01*
X138760Y283720D02*
Y348681D01*
X182461Y283720D02*
Y348681D01*
X160610Y314232D02*
Y318169D01*
X158642Y316201D02*
X162579D01*
X170443Y82550D02*
X174380D01*
X172411Y80581D02*
Y84518D01*
X176151Y75660D02*
Y89439D01*
X168671Y75660D02*
Y89439D01*
Y75660D02*
X176151D01*
X168671Y89439D02*
X176151D01*
X180521Y90727D02*
X194301D01*
X180521Y75372D02*
X194301D01*
X180521D02*
Y90727D01*
X194301Y75372D02*
Y90727D01*
X187411Y81081D02*
Y85018D01*
X185443Y83050D02*
X189380D01*
X103642Y188701D02*
X107579D01*
X105610Y186732D02*
Y190669D01*
X178110Y166732D02*
Y170669D01*
X176142Y168701D02*
X180079D01*
X194510Y179332D02*
Y183269D01*
X192542Y181301D02*
X196479D01*
X187620Y177561D02*
X201400D01*
X187620Y185041D02*
X201400D01*
Y177561D02*
Y185041D01*
X187620Y177561D02*
Y185041D01*
X253642Y76201D02*
X257579D01*
X255610Y74232D02*
Y78169D01*
X266510Y61732D02*
Y65669D01*
X264542Y63701D02*
X268479D01*
X259620Y67441D02*
X273400D01*
X259620Y59961D02*
X273400D01*
Y67441D01*
X259620Y59961D02*
Y67441D01*
X140669Y157323D02*
X154449D01*
X140669Y172677D02*
X154449D01*
X140669Y157323D02*
Y172677D01*
X154449Y157323D02*
Y172677D01*
X147559Y163031D02*
Y166969D01*
X145591Y165000D02*
X149528D01*
X138169Y224823D02*
X151949D01*
X138169Y240177D02*
X151949D01*
X138169Y224823D02*
Y240177D01*
X151949Y224823D02*
Y240177D01*
X145059Y230532D02*
Y234469D01*
X143091Y232500D02*
X147028D01*
X156142Y268701D02*
X160079D01*
X158110Y266732D02*
Y270669D01*
X310610Y236732D02*
Y240669D01*
X308642Y238701D02*
X312579D01*
X201142Y308701D02*
X205079D01*
X203110Y306732D02*
Y310669D01*
X217284Y291575D02*
Y325827D01*
X188937Y291575D02*
Y325827D01*
X217284D01*
X188937Y291575D02*
X217284D01*
X182510Y200932D02*
Y204869D01*
X180542Y202901D02*
X184479D01*
X298142Y136501D02*
X302079D01*
X300110Y134532D02*
Y138469D01*
X90591Y140000D02*
X94528D01*
X92559Y138031D02*
Y141969D01*
X96299Y133110D02*
Y146890D01*
X88819Y133110D02*
Y146890D01*
X96299D01*
X88819Y133110D02*
X96299D01*
X147559Y150531D02*
Y154469D01*
X145591Y152500D02*
X149528D01*
X140669Y156240D02*
X154449D01*
X140669Y148760D02*
X154449D01*
X140669D02*
Y156240D01*
X154449Y148760D02*
Y156240D01*
X144910Y241732D02*
Y245669D01*
X142942Y243701D02*
X146879D01*
X138021Y239961D02*
X151800D01*
X138021Y247441D02*
X151800D01*
Y239961D02*
Y247441D01*
X138021Y239961D02*
Y247441D01*
X145059Y218032D02*
Y221969D01*
X143091Y220000D02*
X147028D01*
X138169Y223740D02*
X151949D01*
X138169Y216260D02*
X151949D01*
X138169D02*
Y223740D01*
X151949Y216260D02*
Y223740D01*
X69342Y241301D02*
X73279D01*
X71310Y239332D02*
Y243269D01*
X67570Y234411D02*
Y248191D01*
X75050Y234411D02*
Y248191D01*
X67570Y234411D02*
X75050D01*
X67570Y248191D02*
X75050D01*
X175059Y107032D02*
Y110969D01*
X173091Y109000D02*
X177028D01*
X168169Y105260D02*
X181949D01*
X168169Y112740D02*
X181949D01*
X168169Y105260D02*
Y112740D01*
X181949Y105260D02*
Y112740D01*
X238059Y150031D02*
Y153969D01*
X236091Y152000D02*
X240028D01*
X231169Y155740D02*
X244949D01*
X231169Y148260D02*
X244949D01*
Y155740D01*
X231169Y148260D02*
Y155740D01*
X140669Y117323D02*
X154449D01*
X140669Y132677D02*
X154449D01*
X140669Y117323D02*
Y132677D01*
X154449Y117323D02*
Y132677D01*
X147559Y123031D02*
Y126969D01*
X145591Y125000D02*
X149528D01*
X147559Y110531D02*
Y114469D01*
X145591Y112500D02*
X149528D01*
X140669Y116240D02*
X154449D01*
X140669Y108760D02*
X154449D01*
X140669D02*
Y116240D01*
X154449Y108760D02*
Y116240D01*
X91742Y97301D02*
X95679D01*
X93710Y95332D02*
Y99269D01*
X97450Y90411D02*
Y104191D01*
X89970Y90411D02*
Y104191D01*
X97450D01*
X89970Y90411D02*
X97450D01*
X140669Y77323D02*
X154449D01*
X140669Y92677D02*
X154449D01*
X140669Y77323D02*
Y92677D01*
X154449Y77323D02*
Y92677D01*
X147559Y83032D02*
Y86969D01*
X145591Y85000D02*
X149528D01*
X147559Y70531D02*
Y74468D01*
X145591Y72500D02*
X149528D01*
X140669Y76240D02*
X154449D01*
X140669Y68760D02*
X154449D01*
X140669D02*
Y76240D01*
X154449Y68760D02*
Y76240D01*
X249342Y225101D02*
X253279D01*
X251310Y223132D02*
Y227069D01*
X255050Y218211D02*
Y231991D01*
X247570Y218211D02*
Y231991D01*
Y218211D02*
X255050D01*
X247570Y231991D02*
X255050D01*
X156910Y250532D02*
Y254469D01*
X154942Y252501D02*
X158879D01*
X150021Y248761D02*
X163800D01*
X150021Y256241D02*
X163800D01*
Y248761D02*
Y256241D01*
X150021Y248761D02*
Y256241D01*
X178110Y254232D02*
Y258169D01*
X176142Y256201D02*
X180079D01*
X171221Y259941D02*
X185000D01*
X171221Y252461D02*
X185000D01*
X171221D02*
Y259941D01*
X185000Y252461D02*
Y259941D01*
X327559Y273031D02*
Y276969D01*
X325591Y275000D02*
X329528D01*
X320669Y278740D02*
X334449D01*
X320669Y271260D02*
X334449D01*
Y278740D01*
X320669Y271260D02*
Y278740D01*
X297559Y318032D02*
Y321969D01*
X295591Y320000D02*
X299528D01*
X290669Y316260D02*
X304449D01*
X290669Y323740D02*
X304449D01*
X290669Y316260D02*
Y323740D01*
X304449Y316260D02*
Y323740D01*
X312559Y273032D02*
Y276969D01*
X310591Y275000D02*
X314528D01*
X305669Y271260D02*
X319449D01*
X305669Y278740D02*
X319449D01*
X305669Y271260D02*
Y278740D01*
X319449Y271260D02*
Y278740D01*
X100591Y252500D02*
X104528D01*
X102559Y250532D02*
Y254469D01*
X98819Y245610D02*
Y259390D01*
X106299Y245610D02*
Y259390D01*
X98819Y245610D02*
X106299D01*
X98819Y259390D02*
X106299D01*
X198642Y278701D02*
X202579D01*
X200610Y276732D02*
Y280669D01*
X210059Y123031D02*
Y126969D01*
X208091Y125000D02*
X212028D01*
X247742Y163701D02*
X251679D01*
X249710Y161732D02*
Y165669D01*
X253450Y156811D02*
Y170591D01*
X245970Y156811D02*
Y170591D01*
X253450D01*
X245970Y156811D02*
X253450D01*
X256142Y163701D02*
X260079D01*
X258110Y161732D02*
Y165669D01*
X261850Y156811D02*
Y170591D01*
X254370Y156811D02*
Y170591D01*
X261850D01*
X254370Y156811D02*
X261850D01*
X217559Y33032D02*
Y36969D01*
X215591Y35000D02*
X219528D01*
X210669Y31260D02*
X224449D01*
X210669Y38740D02*
X224449D01*
X210669Y31260D02*
Y38740D01*
X224449Y31260D02*
Y38740D01*
X197559Y33031D02*
Y36968D01*
X195591Y35000D02*
X199528D01*
X190669Y38740D02*
X204449D01*
X190669Y31260D02*
X204449D01*
Y38740D01*
X190669Y31260D02*
Y38740D01*
X197559Y23031D02*
Y26969D01*
X195591Y25000D02*
X199528D01*
X190669Y28740D02*
X204449D01*
X190669Y21260D02*
X204449D01*
Y28740D01*
X190669Y21260D02*
Y28740D01*
X217559Y23032D02*
Y26969D01*
X215591Y25000D02*
X219528D01*
X210669Y21260D02*
X224449D01*
X210669Y28740D02*
X224449D01*
X210669Y21260D02*
Y28740D01*
X224449Y21260D02*
Y28740D01*
X110059Y73032D02*
Y76969D01*
X108091Y75000D02*
X112028D01*
X110059Y115532D02*
Y119469D01*
X108091Y117500D02*
X112028D01*
X110059Y158031D02*
Y161969D01*
X108091Y160000D02*
X112028D01*
X98819Y260610D02*
X106299D01*
X98819Y274390D02*
X106299D01*
X98819Y260610D02*
Y274390D01*
X106299Y260610D02*
Y274390D01*
X102559Y265532D02*
Y269469D01*
X100591Y267500D02*
X104528D01*
X147559Y143032D02*
Y146968D01*
X145591Y145000D02*
X149528D01*
X140669Y148740D02*
X154449D01*
X140669Y141260D02*
X154449D01*
X140669D02*
Y148740D01*
X154449Y141260D02*
Y148740D01*
X145059Y210531D02*
Y214469D01*
X143091Y212500D02*
X147028D01*
X138169Y216240D02*
X151949D01*
X138169Y208760D02*
X151949D01*
X138169D02*
Y216240D01*
X151949Y208760D02*
Y216240D01*
X147559Y63032D02*
Y66969D01*
X145591Y65000D02*
X149528D01*
X140669Y68740D02*
X154449D01*
X140669Y61260D02*
X154449D01*
X140669D02*
Y68740D01*
X154449Y61260D02*
Y68740D01*
X147559Y103032D02*
Y106968D01*
X145591Y105000D02*
X149528D01*
X140669Y108740D02*
X154449D01*
X140669Y101260D02*
X154449D01*
X140669D02*
Y108740D01*
X154449Y101260D02*
Y108740D01*
X327343Y240650D02*
X331280D01*
X329311Y238681D02*
Y242618D01*
X333051Y233760D02*
Y247539D01*
X325571Y233760D02*
Y247539D01*
Y233760D02*
X333051D01*
X325571Y247539D02*
X333051D01*
X337343Y240650D02*
X341280D01*
X339311Y238681D02*
Y242618D01*
X335571Y233760D02*
Y247539D01*
X343051Y233760D02*
Y247539D01*
X335571D02*
X343051D01*
X335571Y233760D02*
X343051D01*
X227559Y71531D02*
Y75468D01*
X225591Y73500D02*
X229528D01*
X220669Y77240D02*
X234449D01*
X220669Y69760D02*
X234449D01*
Y77240D01*
X220669Y69760D02*
Y77240D01*
X212559Y71532D02*
Y75469D01*
X210591Y73500D02*
X214528D01*
X205669Y69760D02*
X219449D01*
X205669Y77240D02*
X219449D01*
X205669Y69760D02*
Y77240D01*
X219449Y69760D02*
Y77240D01*
X212559Y81532D02*
Y85469D01*
X210591Y83500D02*
X214528D01*
X205669Y87240D02*
X219449D01*
X205669Y79760D02*
X219449D01*
Y87240D01*
X205669Y79760D02*
Y87240D01*
X212559Y61532D02*
Y65469D01*
X210591Y63500D02*
X214528D01*
X205669Y67240D02*
X219449D01*
X205669Y59760D02*
X219449D01*
Y67240D01*
X205669Y59760D02*
Y67240D01*
X227559Y81532D02*
Y85469D01*
X225591Y83500D02*
X229528D01*
X220669Y79760D02*
X234449D01*
X220669Y87240D02*
X234449D01*
X220669Y79760D02*
Y87240D01*
X234449Y79760D02*
Y87240D01*
X228110Y91732D02*
Y95669D01*
X226142Y93701D02*
X230079D01*
X221220Y89961D02*
X235000D01*
X221220Y97441D02*
X235000D01*
X221220Y89961D02*
Y97441D01*
X235000Y89961D02*
Y97441D01*
X55059Y40532D02*
Y44469D01*
X53091Y42500D02*
X57028D01*
X48169Y38760D02*
X61949D01*
X48169Y46240D02*
X61949D01*
X48169Y38760D02*
Y46240D01*
X61949Y38760D02*
Y46240D01*
X75059Y40532D02*
Y44469D01*
X73091Y42500D02*
X77028D01*
X68169Y38760D02*
X81949D01*
X68169Y46240D02*
X81949D01*
X68169Y38760D02*
Y46240D01*
X81949Y38760D02*
Y46240D01*
X75059Y50532D02*
Y54469D01*
X73091Y52500D02*
X77028D01*
X68169Y48760D02*
X81949D01*
X68169Y56240D02*
X81949D01*
X68169Y48760D02*
Y56240D01*
X81949Y48760D02*
Y56240D01*
X55059Y50532D02*
Y54469D01*
X53091Y52500D02*
X57028D01*
X48169Y48760D02*
X61949D01*
X48169Y56240D02*
X61949D01*
X48169Y48760D02*
Y56240D01*
X61949Y48760D02*
Y56240D01*
X110610Y216732D02*
Y220669D01*
X108642Y218701D02*
X112579D01*
X53642Y203701D02*
X57579D01*
X55610Y201732D02*
Y205669D01*
X272542Y120501D02*
X276479D01*
X274510Y118532D02*
Y122469D01*
X278250Y113611D02*
Y127391D01*
X270770Y113611D02*
Y127391D01*
X278250D01*
X270770Y113611D02*
X278250D01*
X272542Y134101D02*
X276479D01*
X274510Y132132D02*
Y136069D01*
X270770Y127211D02*
Y140991D01*
X278251Y127211D02*
Y140991D01*
X270770Y127211D02*
X278251D01*
X270770Y140991D02*
X278251D01*
X147310Y175332D02*
Y179269D01*
X145342Y177301D02*
X149279D01*
X140420Y181041D02*
X154200D01*
X140420Y173561D02*
X154200D01*
Y181041D01*
X140420Y173561D02*
Y181041D01*
X147559Y95531D02*
Y99468D01*
X145591Y97500D02*
X149528D01*
X140669Y101240D02*
X154449D01*
X140669Y93760D02*
X154449D01*
Y101240D01*
X140669Y93760D02*
Y101240D01*
X147559Y135531D02*
Y139469D01*
X145591Y137500D02*
X149528D01*
X140669Y141240D02*
X154449D01*
X140669Y133760D02*
X154449D01*
Y141240D01*
X140669Y133760D02*
Y141240D01*
D121*
X267421Y59665D02*
Y92736D01*
X243799Y59665D02*
Y92736D01*
X267421D01*
X243799Y59665D02*
X267421D01*
X176024Y256890D02*
Y280512D01*
X140197Y256890D02*
Y280512D01*
Y256890D02*
X176024D01*
X140197Y280512D02*
X176024D01*
X298799Y220787D02*
X322421D01*
X298799Y256614D02*
X322421D01*
X298799Y220787D02*
Y256614D01*
X322421Y220787D02*
Y256614D01*
X171487Y217566D02*
X193534D01*
X171487Y188235D02*
X193534D01*
Y217566D01*
X171487Y188235D02*
Y217566D01*
X314776Y125477D02*
Y147524D01*
X285445Y125477D02*
Y147524D01*
Y125477D02*
X314776D01*
X285445Y147524D02*
X314776D01*
X218524Y266890D02*
Y290512D01*
X182697Y266890D02*
Y290512D01*
Y266890D02*
X218524D01*
X182697Y290512D02*
X218524D01*
X184862Y150197D02*
X235256D01*
X184862Y99803D02*
X235256D01*
X184862D02*
Y150197D01*
X235256Y99803D02*
Y150197D01*
X87717Y88976D02*
X132402D01*
X87717Y61024D02*
X132402D01*
X87717D02*
Y88976D01*
X132402Y61024D02*
Y88976D01*
X87717Y131476D02*
X132402D01*
X87717Y103524D02*
X132402D01*
X87717D02*
Y131476D01*
X132402Y103524D02*
Y131476D01*
X87717Y173976D02*
X132402D01*
X87717Y146024D02*
X132402D01*
X87717D02*
Y173976D01*
X132402Y146024D02*
Y173976D01*
X88268Y232677D02*
X132953D01*
X88268Y204725D02*
X132953D01*
X88268D02*
Y232677D01*
X132953Y204725D02*
Y232677D01*
X85532Y180079D02*
Y227323D01*
X25689Y180079D02*
Y227323D01*
Y180079D02*
X85532D01*
X25689Y227323D02*
X85532D01*
M02*
