%FSLAX25Y25*%
%MOIN*%
G70*
G01*
G75*
G04 Layer_Color=128*
%ADD10R,0.04134X0.09449*%
%ADD11R,0.41929X0.35039*%
%ADD12R,0.01181X0.05906*%
%ADD13R,0.05906X0.01181*%
%ADD14R,0.04724X0.05512*%
%ADD15R,0.07874X0.03937*%
%ADD16O,0.02756X0.09843*%
%ADD17R,0.02362X0.04528*%
%ADD18R,0.11221X0.08465*%
%ADD19R,0.08465X0.11221*%
%ADD20R,0.12992X0.09449*%
%ADD21R,0.03937X0.09449*%
%ADD22O,0.02362X0.08858*%
%ADD23O,0.08858X0.02362*%
%ADD24R,0.06693X0.06693*%
%ADD25R,0.05512X0.04724*%
%ADD26R,0.06693X0.06693*%
%ADD27O,0.00984X0.06102*%
%ADD28O,0.06102X0.00984*%
%ADD29R,0.23228X0.21654*%
%ADD30R,0.07087X0.03543*%
%ADD31R,0.20276X0.09252*%
%ADD32C,0.01000*%
%ADD33C,0.02500*%
%ADD34C,0.02000*%
%ADD35C,0.05000*%
%ADD36C,0.15000*%
%ADD37C,0.10000*%
%ADD38C,0.01500*%
%ADD39C,0.07874*%
%ADD40C,0.06299*%
%ADD41R,0.05906X0.05906*%
%ADD42C,0.05906*%
%ADD43C,0.11000*%
%ADD44C,0.15748*%
%ADD45R,0.05906X0.05906*%
%ADD46C,0.03937*%
%ADD47C,0.07284*%
%ADD48R,0.07284X0.07284*%
%ADD49O,0.07874X0.03937*%
%ADD50O,0.07874X0.03937*%
%ADD51C,0.11811*%
%ADD52C,0.04724*%
%ADD53R,0.07874X0.07874*%
%ADD54C,0.07874*%
%ADD55C,0.06693*%
%ADD56C,0.09000*%
%ADD57C,0.02000*%
%ADD58C,0.04000*%
%ADD59C,0.01800*%
%ADD60C,0.05000*%
%ADD61C,0.06000*%
%ADD62C,0.03800*%
%ADD63C,0.02500*%
%ADD64C,0.03600*%
%ADD65C,0.15000*%
%ADD66R,0.11811X0.11811*%
%ADD67C,0.02362*%
%ADD68C,0.00984*%
%ADD69C,0.00787*%
%ADD70C,0.00800*%
%ADD71R,0.04934X0.10249*%
%ADD72R,0.42729X0.35839*%
%ADD73R,0.01981X0.06706*%
%ADD74R,0.06706X0.01981*%
%ADD75R,0.05524X0.06312*%
%ADD76R,0.08674X0.04737*%
%ADD77O,0.03556X0.10642*%
%ADD78R,0.03162X0.05328*%
%ADD79R,0.12020X0.09265*%
%ADD80R,0.09265X0.12020*%
%ADD81R,0.13792X0.10249*%
%ADD82R,0.04737X0.10249*%
%ADD83O,0.03162X0.09658*%
%ADD84O,0.09658X0.03162*%
%ADD85R,0.07493X0.07493*%
%ADD86R,0.06312X0.05524*%
%ADD87R,0.07493X0.07493*%
%ADD88O,0.01784X0.06902*%
%ADD89O,0.06902X0.01784*%
%ADD90R,0.24028X0.22453*%
%ADD91R,0.07887X0.04343*%
%ADD92R,0.21076X0.10052*%
%ADD93C,0.07099*%
%ADD94R,0.06706X0.06706*%
%ADD95C,0.06706*%
%ADD96C,0.11800*%
%ADD97C,0.16548*%
%ADD98R,0.06706X0.06706*%
%ADD99C,0.04737*%
%ADD100C,0.08083*%
%ADD101R,0.08083X0.08083*%
%ADD102O,0.08674X0.04737*%
%ADD103O,0.08674X0.04737*%
%ADD104C,0.12611*%
%ADD105C,0.05524*%
%ADD106R,0.08674X0.08674*%
%ADD107C,0.08674*%
%ADD108C,0.07493*%
%ADD109C,0.09800*%
%ADD110C,0.02800*%
%ADD111C,0.04800*%
%ADD112C,0.02600*%
%ADD113C,0.05800*%
%ADD114C,0.06800*%
%ADD115C,0.04600*%
%ADD116C,0.03300*%
%ADD117C,0.04400*%
%ADD118C,0.15800*%
%ADD119R,0.12611X0.12611*%
D14*
X207067Y156201D02*
D03*
X214154D02*
D03*
X216454Y94101D02*
D03*
X209367D02*
D03*
X319154Y188701D02*
D03*
X312067D02*
D03*
X319154Y148701D02*
D03*
X312067D02*
D03*
X319154Y158701D02*
D03*
X312067D02*
D03*
X319154Y168701D02*
D03*
X312067D02*
D03*
X199154Y156201D02*
D03*
X192067D02*
D03*
X270054Y63701D02*
D03*
X262967D02*
D03*
X171516Y109000D02*
D03*
X178602D02*
D03*
X241602Y152000D02*
D03*
X234516D02*
D03*
X331102Y275000D02*
D03*
X324016D02*
D03*
X294016Y320000D02*
D03*
X301102D02*
D03*
X309016Y275000D02*
D03*
X316102D02*
D03*
X214016Y35000D02*
D03*
X221102D02*
D03*
X201102Y35000D02*
D03*
X194016D02*
D03*
X201102Y25000D02*
D03*
X194016D02*
D03*
X214016Y25000D02*
D03*
X221102D02*
D03*
X231102Y73500D02*
D03*
X224016D02*
D03*
X209016Y73500D02*
D03*
X216102D02*
D03*
X216102Y83500D02*
D03*
X209016D02*
D03*
X216102Y63500D02*
D03*
X209016D02*
D03*
X224016Y83500D02*
D03*
X231102D02*
D03*
X224567Y93701D02*
D03*
X231654D02*
D03*
X51516Y42500D02*
D03*
X58602D02*
D03*
X71516D02*
D03*
X78602D02*
D03*
X71516Y52500D02*
D03*
X78602D02*
D03*
X51516D02*
D03*
X58602D02*
D03*
X150854Y177301D02*
D03*
X143767D02*
D03*
X151102Y97500D02*
D03*
X144016D02*
D03*
X151102Y137500D02*
D03*
X144016D02*
D03*
D17*
X183671Y87479D02*
D03*
X191151D02*
D03*
X187411Y78620D02*
D03*
D25*
X158510Y52844D02*
D03*
Y45757D02*
D03*
X278110Y84744D02*
D03*
Y77658D02*
D03*
X288110Y84744D02*
D03*
Y77658D02*
D03*
X298110Y82244D02*
D03*
Y75157D02*
D03*
X298110Y162657D02*
D03*
Y169744D02*
D03*
X305610Y162657D02*
D03*
Y169744D02*
D03*
X172411Y79006D02*
D03*
Y86093D02*
D03*
X251310Y221557D02*
D03*
Y228644D02*
D03*
X329311Y237106D02*
D03*
Y244193D02*
D03*
X339311Y244193D02*
D03*
Y237106D02*
D03*
D66*
X242510Y260501D02*
D03*
Y330501D02*
D03*
M02*
