%FSLAX25Y25*%
%MOIN*%
G70*
G01*
G75*
G04 Layer_Color=16711935*
%ADD10R,0.04134X0.09449*%
%ADD11R,0.41929X0.35039*%
%ADD12R,0.01181X0.05906*%
%ADD13R,0.05906X0.01181*%
%ADD14R,0.04724X0.05512*%
%ADD15R,0.07874X0.03937*%
%ADD16O,0.02756X0.09843*%
%ADD17R,0.02362X0.04528*%
%ADD18R,0.11221X0.08465*%
%ADD19R,0.08465X0.11221*%
%ADD20R,0.12992X0.09449*%
%ADD21R,0.03937X0.09449*%
%ADD22O,0.02362X0.08858*%
%ADD23O,0.08858X0.02362*%
%ADD24R,0.06693X0.06693*%
%ADD25R,0.05512X0.04724*%
%ADD26R,0.06693X0.06693*%
%ADD27O,0.00984X0.06102*%
%ADD28O,0.06102X0.00984*%
%ADD29R,0.23228X0.21654*%
%ADD30R,0.07087X0.03543*%
%ADD31R,0.20276X0.09252*%
%ADD32C,0.01000*%
%ADD33C,0.02500*%
%ADD34C,0.02000*%
%ADD35C,0.05000*%
%ADD36C,0.15000*%
%ADD37C,0.10000*%
%ADD38C,0.01500*%
%ADD39C,0.07874*%
%ADD40C,0.06299*%
%ADD41R,0.05906X0.05906*%
%ADD42C,0.05906*%
%ADD43C,0.11000*%
%ADD44C,0.15748*%
%ADD45R,0.05906X0.05906*%
%ADD46C,0.03937*%
%ADD47C,0.07284*%
%ADD48R,0.07284X0.07284*%
%ADD49O,0.07874X0.03937*%
%ADD50O,0.07874X0.03937*%
%ADD51C,0.11811*%
%ADD52C,0.04724*%
%ADD53R,0.07874X0.07874*%
%ADD54C,0.07874*%
%ADD55C,0.06693*%
%ADD56C,0.09000*%
%ADD57C,0.02000*%
%ADD58C,0.04000*%
%ADD59C,0.01800*%
%ADD60C,0.05000*%
%ADD61C,0.06000*%
%ADD62C,0.03800*%
%ADD63C,0.02500*%
%ADD64C,0.03600*%
%ADD65C,0.15000*%
%ADD66R,0.11811X0.11811*%
%ADD67C,0.02362*%
%ADD68C,0.00984*%
%ADD69C,0.00787*%
%ADD70C,0.00800*%
%ADD71R,0.04934X0.10249*%
%ADD72R,0.42729X0.35839*%
%ADD73R,0.01981X0.06706*%
%ADD74R,0.06706X0.01981*%
%ADD75R,0.05524X0.06312*%
%ADD76R,0.08674X0.04737*%
%ADD77O,0.03556X0.10642*%
%ADD78R,0.03162X0.05328*%
%ADD79R,0.12020X0.09265*%
%ADD80R,0.09265X0.12020*%
%ADD81R,0.13792X0.10249*%
%ADD82R,0.04737X0.10249*%
%ADD83O,0.03162X0.09658*%
%ADD84O,0.09658X0.03162*%
%ADD85R,0.07493X0.07493*%
%ADD86R,0.06312X0.05524*%
%ADD87R,0.07493X0.07493*%
%ADD88O,0.01784X0.06902*%
%ADD89O,0.06902X0.01784*%
%ADD90R,0.24028X0.22453*%
%ADD91R,0.07887X0.04343*%
%ADD92R,0.21076X0.10052*%
%ADD93C,0.07099*%
%ADD94R,0.06706X0.06706*%
%ADD95C,0.06706*%
%ADD96C,0.11800*%
%ADD97C,0.16548*%
%ADD98R,0.06706X0.06706*%
%ADD99C,0.04737*%
%ADD100C,0.08083*%
%ADD101R,0.08083X0.08083*%
%ADD102O,0.08674X0.04737*%
%ADD103O,0.08674X0.04737*%
%ADD104C,0.12611*%
%ADD105C,0.05524*%
%ADD106R,0.08674X0.08674*%
%ADD107C,0.08674*%
%ADD108C,0.07493*%
%ADD109C,0.09800*%
%ADD110C,0.02800*%
%ADD111C,0.04800*%
%ADD112C,0.02600*%
%ADD113C,0.05800*%
%ADD114C,0.06800*%
%ADD115C,0.04600*%
%ADD116C,0.03300*%
%ADD117C,0.04400*%
%ADD118C,0.15800*%
%ADD119R,0.12611X0.12611*%
%ADD120C,0.00394*%
D70*
X211536Y349626D02*
X211536D01*
X113110D02*
X113110D01*
X0Y0D02*
X377953D01*
Y350402D01*
X-0D02*
X377953D01*
X0Y0D02*
Y350394D01*
D120*
X278346Y68071D02*
G03*
X278346Y68071I-1969J0D01*
G01*
X98721Y195000D02*
G03*
X98721Y195000I-1969J0D01*
G01*
X184016Y176496D02*
G03*
X184016Y160906I-5906J-7795D01*
G01*
X251280Y71870D02*
G03*
X251280Y71870I-1969J0D01*
G01*
X190975Y207232D02*
G03*
X190975Y207232I-1969J0D01*
G01*
X306410Y130005D02*
G03*
X306410Y130005I-1969J0D01*
G01*
X228169Y108858D02*
G03*
X228169Y108858I-1969J0D01*
G01*
X206378Y153445D02*
X214843D01*
X206378Y158957D02*
X214843D01*
X206378Y153445D02*
Y158957D01*
X214843Y153445D02*
Y158957D01*
X208678Y96857D02*
X217143D01*
X208678Y91345D02*
X217143D01*
Y96857D01*
X208678Y91345D02*
Y96857D01*
X155754Y53533D02*
X161266D01*
X155754Y45068D02*
X161266D01*
X155754D02*
Y53533D01*
X161266Y45068D02*
Y53533D01*
X311378Y191457D02*
X319843D01*
X311378Y185945D02*
X319843D01*
Y191457D01*
X311378Y185945D02*
Y191457D01*
X319843Y145945D02*
Y151457D01*
X311378Y145945D02*
Y151457D01*
X319843D01*
X311378Y145945D02*
X319843D01*
X319843Y155945D02*
Y161457D01*
X311378Y155945D02*
Y161457D01*
X319843D01*
X311378Y155945D02*
X319843D01*
X319843Y165945D02*
Y171457D01*
X311378Y165945D02*
Y171457D01*
X319843D01*
X311378Y165945D02*
X319843D01*
X275354Y85433D02*
X280866D01*
X275354Y76969D02*
X280866D01*
X275354D02*
Y85433D01*
X280866Y76969D02*
Y85433D01*
X285354D02*
X290866D01*
X285354Y76969D02*
X290866D01*
X285354D02*
Y85433D01*
X290866Y76969D02*
Y85433D01*
X295354Y82933D02*
X300866D01*
X295354Y74469D02*
X300866D01*
X295354D02*
Y82933D01*
X300866Y74469D02*
Y82933D01*
X191378Y158957D02*
X199843D01*
X191378Y153445D02*
X199843D01*
Y158957D01*
X191378Y153445D02*
Y158957D01*
X300866Y161969D02*
Y170433D01*
X295354Y161969D02*
Y170433D01*
Y161969D02*
X300866D01*
X295354Y170433D02*
X300866D01*
X308366Y161969D02*
Y170433D01*
X302854Y161969D02*
Y170433D01*
Y161969D02*
X308366D01*
X302854Y170433D02*
X308366D01*
X313386Y64528D02*
Y92874D01*
X272835Y64528D02*
Y92874D01*
X313386D01*
X272835Y64528D02*
X313386D01*
X139843Y305571D02*
X181378D01*
X139843Y341004D02*
X181378D01*
X139843Y305571D02*
Y341004D01*
X181378Y305571D02*
Y341004D01*
X175167Y78317D02*
Y86782D01*
X169655Y78317D02*
Y86782D01*
Y78317D02*
X175167D01*
X169655Y86782D02*
X175167D01*
X181506Y85806D02*
X193317D01*
X181506Y80294D02*
X193317D01*
X181506D02*
Y85806D01*
X193317Y80294D02*
Y85806D01*
X93209Y178858D02*
Y198543D01*
X118012Y178858D02*
Y198543D01*
X93209D02*
X118012D01*
X93209Y178858D02*
X118012D01*
X184016Y160906D02*
Y176496D01*
X190278Y178545D02*
X198743D01*
X190278Y184057D02*
X198743D01*
Y178545D02*
Y184057D01*
X190278Y178545D02*
Y184057D01*
X265453Y68327D02*
Y84075D01*
X245768Y68327D02*
Y84075D01*
X265453D01*
X245768Y68327D02*
X265453D01*
X262278Y66457D02*
X270743D01*
X262278Y60945D02*
X270743D01*
Y66457D01*
X262278Y60945D02*
Y66457D01*
X141654Y162244D02*
X153465D01*
X141654Y167756D02*
X153465D01*
X141654Y162244D02*
Y167756D01*
X153465Y162244D02*
Y167756D01*
X139154Y229744D02*
X150965D01*
X139154Y235256D02*
X150965D01*
X139154Y229744D02*
Y235256D01*
X150965Y229744D02*
Y235256D01*
X166132Y260827D02*
X167953Y262648D01*
X148268Y260827D02*
X166132D01*
X148268D02*
Y276575D01*
X166132D01*
X167953Y274754D01*
Y262648D02*
Y274754D01*
X302736Y230679D02*
X304557Y228858D01*
X302736Y230679D02*
Y248543D01*
X318484D01*
Y230679D02*
Y248543D01*
X316663Y228858D02*
X318484Y230679D01*
X304557Y228858D02*
X316663D01*
X216299Y301417D02*
Y315984D01*
X189921Y301417D02*
Y315984D01*
X216299D01*
X189921Y301417D02*
X216299D01*
X172471Y210775D02*
X192550D01*
X172471Y195027D02*
X192550D01*
Y210775D01*
X172471Y195027D02*
Y210775D01*
X307984Y126462D02*
Y146540D01*
X292236Y126462D02*
Y146540D01*
Y126462D02*
X307984D01*
X292236Y146540D02*
X307984D01*
X95315Y135768D02*
Y144232D01*
X89803Y135768D02*
Y144232D01*
X95315D01*
X89803Y135768D02*
X95315D01*
X143327Y155256D02*
X151791D01*
X143327Y149744D02*
X151791D01*
X143327D02*
Y155256D01*
X151791Y149744D02*
Y155256D01*
X140678Y240945D02*
X149143D01*
X140678Y246457D02*
X149143D01*
Y240945D02*
Y246457D01*
X140678Y240945D02*
Y246457D01*
X140827Y222756D02*
X149291D01*
X140827Y217244D02*
X149291D01*
X140827D02*
Y222756D01*
X149291Y217244D02*
Y222756D01*
X68554Y237069D02*
Y245533D01*
X74066Y237069D02*
Y245533D01*
X68554Y237069D02*
X74066D01*
X68554Y245533D02*
X74066D01*
X170827Y106244D02*
X179291D01*
X170827Y111756D02*
X179291D01*
X170827Y106244D02*
Y111756D01*
X179291Y106244D02*
Y111756D01*
X233827Y154756D02*
X242291D01*
X233827Y149244D02*
X242291D01*
Y154756D01*
X233827Y149244D02*
Y154756D01*
X141654Y122244D02*
X153465D01*
X141654Y127756D02*
X153465D01*
X141654Y122244D02*
Y127756D01*
X153465Y122244D02*
Y127756D01*
X143327Y115256D02*
X151791D01*
X143327Y109744D02*
X151791D01*
X143327D02*
Y115256D01*
X151791Y109744D02*
Y115256D01*
X96466Y93069D02*
Y101533D01*
X90954Y93069D02*
Y101533D01*
X96466D01*
X90954Y93069D02*
X96466D01*
X141654Y82244D02*
X153465D01*
X141654Y87756D02*
X153465D01*
X141654Y82244D02*
Y87756D01*
X153465Y82244D02*
Y87756D01*
X143327Y75256D02*
X151791D01*
X143327Y69744D02*
X151791D01*
X143327D02*
Y75256D01*
X151791Y69744D02*
Y75256D01*
X254066Y220869D02*
Y229333D01*
X248554Y220869D02*
Y229333D01*
Y220869D02*
X254066D01*
X248554Y229333D02*
X254066D01*
X152678Y249745D02*
X161143D01*
X152678Y255257D02*
X161143D01*
Y249745D02*
Y255257D01*
X152678Y249745D02*
Y255257D01*
X173878Y258957D02*
X182343D01*
X173878Y253445D02*
X182343D01*
X173878D02*
Y258957D01*
X182343Y253445D02*
Y258957D01*
X323327Y277756D02*
X331791D01*
X323327Y272244D02*
X331791D01*
Y277756D01*
X323327Y272244D02*
Y277756D01*
X293327Y317244D02*
X301791D01*
X293327Y322756D02*
X301791D01*
X293327Y317244D02*
Y322756D01*
X301791Y317244D02*
Y322756D01*
X308327Y272244D02*
X316791D01*
X308327Y277756D02*
X316791D01*
X308327Y272244D02*
Y277756D01*
X316791Y272244D02*
Y277756D01*
X99803Y248268D02*
Y256732D01*
X105315Y248268D02*
Y256732D01*
X99803Y248268D02*
X105315D01*
X99803Y256732D02*
X105315D01*
X208632Y270827D02*
X210453Y272648D01*
X190768Y270827D02*
X208632D01*
X190768D02*
Y286575D01*
X208632D01*
X210453Y284754D01*
Y272648D02*
Y284754D01*
X190374Y144685D02*
X229744D01*
X190374Y105315D02*
X229744D01*
X190374D02*
Y144685D01*
X229744Y105315D02*
Y144685D01*
X252466Y159469D02*
Y167933D01*
X246954Y159469D02*
Y167933D01*
X252466D01*
X246954Y159469D02*
X252466D01*
X260866D02*
Y167933D01*
X255354Y159469D02*
Y167933D01*
X260866D01*
X255354Y159469D02*
X260866D01*
X213327Y32244D02*
X221791D01*
X213327Y37756D02*
X221791D01*
X213327Y32244D02*
Y37756D01*
X221791Y32244D02*
Y37756D01*
X193327Y37756D02*
X201791D01*
X193327Y32244D02*
X201791D01*
Y37756D01*
X193327Y32244D02*
Y37756D01*
Y27756D02*
X201791D01*
X193327Y22244D02*
X201791D01*
Y27756D01*
X193327Y22244D02*
Y27756D01*
X213327Y22244D02*
X221791D01*
X213327Y27756D02*
X221791D01*
X213327Y22244D02*
Y27756D01*
X221791Y22244D02*
Y27756D01*
X94508Y87992D02*
X116949D01*
X94508Y62008D02*
X116949D01*
X94508D02*
Y87992D01*
X116949Y62008D02*
Y87992D01*
X94508Y130492D02*
X116949D01*
X94508Y104508D02*
X116949D01*
X94508D02*
Y130492D01*
X116949Y104508D02*
Y130492D01*
X94508Y172992D02*
X116949D01*
X94508Y147008D02*
X116949D01*
X94508D02*
Y172992D01*
X116949Y147008D02*
Y172992D01*
X99803Y263268D02*
X105315D01*
X99803Y271732D02*
X105315D01*
X99803Y263268D02*
Y271732D01*
X105315Y263268D02*
Y271732D01*
X143327Y147756D02*
X151791D01*
X143327Y142244D02*
X151791D01*
X143327D02*
Y147756D01*
X151791Y142244D02*
Y147756D01*
X140827Y215256D02*
X149291D01*
X140827Y209744D02*
X149291D01*
X140827D02*
Y215256D01*
X149291Y209744D02*
Y215256D01*
X143327Y67756D02*
X151791D01*
X143327Y62244D02*
X151791D01*
X143327D02*
Y67756D01*
X151791Y62244D02*
Y67756D01*
X143327Y107756D02*
X151791D01*
X143327Y102244D02*
X151791D01*
X143327D02*
Y107756D01*
X151791Y102244D02*
Y107756D01*
X332067Y236417D02*
Y244882D01*
X326555Y236417D02*
Y244882D01*
Y236417D02*
X332067D01*
X326555Y244882D02*
X332067D01*
X336555Y236417D02*
Y244882D01*
X342067Y236417D02*
Y244882D01*
X336555D02*
X342067D01*
X336555Y236417D02*
X342067D01*
X223327Y76256D02*
X231791D01*
X223327Y70744D02*
X231791D01*
Y76256D01*
X223327Y70744D02*
Y76256D01*
X208327Y70744D02*
X216791D01*
X208327Y76256D02*
X216791D01*
X208327Y70744D02*
Y76256D01*
X216791Y70744D02*
Y76256D01*
X208327Y86256D02*
X216791D01*
X208327Y80744D02*
X216791D01*
Y86256D01*
X208327Y80744D02*
Y86256D01*
Y66256D02*
X216791D01*
X208327Y60744D02*
X216791D01*
Y66256D01*
X208327Y60744D02*
Y66256D01*
X223327Y80744D02*
X231791D01*
X223327Y86256D02*
X231791D01*
X223327Y80744D02*
Y86256D01*
X231791Y80744D02*
Y86256D01*
X223878Y90945D02*
X232343D01*
X223878Y96457D02*
X232343D01*
X223878Y90945D02*
Y96457D01*
X232343Y90945D02*
Y96457D01*
X50827Y39744D02*
X59291D01*
X50827Y45256D02*
X59291D01*
X50827Y39744D02*
Y45256D01*
X59291Y39744D02*
Y45256D01*
X70827Y39744D02*
X79291D01*
X70827Y45256D02*
X79291D01*
X70827Y39744D02*
Y45256D01*
X79291Y39744D02*
Y45256D01*
X70827Y49744D02*
X79291D01*
X70827Y55256D02*
X79291D01*
X70827Y49744D02*
Y55256D01*
X79291Y49744D02*
Y55256D01*
X50827Y49744D02*
X59291D01*
X50827Y55256D02*
X59291D01*
X50827Y49744D02*
Y55256D01*
X59291Y49744D02*
Y55256D01*
X95059Y231693D02*
X117500D01*
X95059Y205709D02*
X117500D01*
X95059D02*
Y231693D01*
X117500Y205709D02*
Y231693D01*
X67766Y184016D02*
X75295Y191545D01*
X35925Y184016D02*
X67766D01*
X35925D02*
Y223386D01*
X67766D01*
X75295Y215856D01*
Y191545D02*
Y215856D01*
X277266Y116269D02*
Y124733D01*
X271754Y116269D02*
Y124733D01*
X277266D01*
X271754Y116269D02*
X277266D01*
X271754Y129869D02*
Y138333D01*
X277266Y129869D02*
Y138333D01*
X271754Y129869D02*
X277266D01*
X271754Y138333D02*
X277266D01*
X143078Y180057D02*
X151543D01*
X143078Y174545D02*
X151543D01*
Y180057D01*
X143078Y174545D02*
Y180057D01*
X143327Y100256D02*
X151791D01*
X143327Y94744D02*
X151791D01*
Y100256D01*
X143327Y94744D02*
Y100256D01*
Y140256D02*
X151791D01*
X143327Y134744D02*
X151791D01*
Y140256D01*
X143327Y134744D02*
Y140256D01*
M02*
