%FSLAX25Y25*%
%MOIN*%
G70*
G01*
G75*
G04 Layer_Color=16711935*
%ADD10R,0.04134X0.09449*%
%ADD11R,0.41929X0.35039*%
%ADD12R,0.01181X0.05906*%
%ADD13R,0.05906X0.01181*%
%ADD14R,0.04724X0.05512*%
%ADD15R,0.07874X0.03937*%
%ADD16O,0.02756X0.09843*%
%ADD17R,0.02362X0.04528*%
%ADD18R,0.11221X0.08465*%
%ADD19R,0.08465X0.11221*%
%ADD20R,0.12992X0.09449*%
%ADD21R,0.03937X0.09449*%
%ADD22O,0.02362X0.08858*%
%ADD23O,0.08858X0.02362*%
%ADD24R,0.06693X0.06693*%
%ADD25R,0.05512X0.04724*%
%ADD26R,0.06693X0.06693*%
%ADD27O,0.00984X0.06102*%
%ADD28O,0.06102X0.00984*%
%ADD29R,0.23228X0.21654*%
%ADD30R,0.07087X0.03543*%
%ADD31R,0.20276X0.09252*%
%ADD32C,0.01000*%
%ADD33C,0.02500*%
%ADD34C,0.02000*%
%ADD35C,0.05000*%
%ADD36C,0.15000*%
%ADD37C,0.10000*%
%ADD38C,0.01500*%
%ADD39C,0.07874*%
%ADD40C,0.06299*%
%ADD41R,0.05906X0.05906*%
%ADD42C,0.05906*%
%ADD43C,0.11000*%
%ADD44C,0.15748*%
%ADD45R,0.05906X0.05906*%
%ADD46C,0.03937*%
%ADD47C,0.07284*%
%ADD48R,0.07284X0.07284*%
%ADD49O,0.07874X0.03937*%
%ADD50O,0.07874X0.03937*%
%ADD51C,0.11811*%
%ADD52C,0.04724*%
%ADD53R,0.07874X0.07874*%
%ADD54C,0.07874*%
%ADD55C,0.06693*%
%ADD56C,0.09000*%
%ADD57C,0.02000*%
%ADD58C,0.04000*%
%ADD59C,0.01800*%
%ADD60C,0.05000*%
%ADD61C,0.06000*%
%ADD62C,0.03800*%
%ADD63C,0.02500*%
%ADD64C,0.03600*%
%ADD65C,0.15000*%
%ADD66R,0.11811X0.11811*%
%ADD67C,0.02362*%
%ADD68C,0.00984*%
%ADD69C,0.00787*%
%ADD70C,0.00800*%
%ADD71R,0.04934X0.10249*%
%ADD72R,0.42729X0.35839*%
%ADD73R,0.01981X0.06706*%
%ADD74R,0.06706X0.01981*%
%ADD75R,0.05524X0.06312*%
%ADD76R,0.08674X0.04737*%
%ADD77O,0.03556X0.10642*%
%ADD78R,0.03162X0.05328*%
%ADD79R,0.12020X0.09265*%
%ADD80R,0.09265X0.12020*%
%ADD81R,0.13792X0.10249*%
%ADD82R,0.04737X0.10249*%
%ADD83O,0.03162X0.09658*%
%ADD84O,0.09658X0.03162*%
%ADD85R,0.07493X0.07493*%
%ADD86R,0.06312X0.05524*%
%ADD87R,0.07493X0.07493*%
%ADD88O,0.01784X0.06902*%
%ADD89O,0.06902X0.01784*%
%ADD90R,0.24028X0.22453*%
%ADD91R,0.07887X0.04343*%
%ADD92R,0.21076X0.10052*%
%ADD93C,0.07099*%
%ADD94R,0.06706X0.06706*%
%ADD95C,0.06706*%
%ADD96C,0.11800*%
%ADD97C,0.16548*%
%ADD98R,0.06706X0.06706*%
%ADD99C,0.04737*%
%ADD100C,0.08083*%
%ADD101R,0.08083X0.08083*%
%ADD102O,0.08674X0.04737*%
%ADD103O,0.08674X0.04737*%
%ADD104C,0.12611*%
%ADD105C,0.05524*%
%ADD106R,0.08674X0.08674*%
%ADD107C,0.08674*%
%ADD108C,0.07493*%
%ADD109C,0.09800*%
%ADD110C,0.02800*%
%ADD111C,0.04800*%
%ADD112C,0.02600*%
%ADD113C,0.05800*%
%ADD114C,0.06800*%
%ADD115C,0.04600*%
%ADD116C,0.03300*%
%ADD117C,0.04400*%
%ADD118C,0.15800*%
%ADD119R,0.12611X0.12611*%
D75*
X207067Y156201D02*
D03*
X214154D02*
D03*
X216454Y94101D02*
D03*
X209367D02*
D03*
X319154Y188701D02*
D03*
X312067D02*
D03*
X319154Y148701D02*
D03*
X312067D02*
D03*
X319154Y158701D02*
D03*
X312067D02*
D03*
X319154Y168701D02*
D03*
X312067D02*
D03*
X199154Y156201D02*
D03*
X192067D02*
D03*
X270054Y63701D02*
D03*
X262967D02*
D03*
X171516Y109000D02*
D03*
X178602D02*
D03*
X241602Y152000D02*
D03*
X234516D02*
D03*
X331102Y275000D02*
D03*
X324016D02*
D03*
X294016Y320000D02*
D03*
X301102D02*
D03*
X309016Y275000D02*
D03*
X316102D02*
D03*
X214016Y35000D02*
D03*
X221102D02*
D03*
X201102Y35000D02*
D03*
X194016D02*
D03*
X201102Y25000D02*
D03*
X194016D02*
D03*
X214016Y25000D02*
D03*
X221102D02*
D03*
X231102Y73500D02*
D03*
X224016D02*
D03*
X209016Y73500D02*
D03*
X216102D02*
D03*
X216102Y83500D02*
D03*
X209016D02*
D03*
X216102Y63500D02*
D03*
X209016D02*
D03*
X224016Y83500D02*
D03*
X231102D02*
D03*
X224567Y93701D02*
D03*
X231654D02*
D03*
X51516Y42500D02*
D03*
X58602D02*
D03*
X71516D02*
D03*
X78602D02*
D03*
X71516Y52500D02*
D03*
X78602D02*
D03*
X51516D02*
D03*
X58602D02*
D03*
X150854Y177301D02*
D03*
X143767D02*
D03*
X151102Y97500D02*
D03*
X144016D02*
D03*
X151102Y137500D02*
D03*
X144016D02*
D03*
D78*
X183671Y87479D02*
D03*
X191151D02*
D03*
X187411Y78620D02*
D03*
D86*
X158510Y52844D02*
D03*
Y45757D02*
D03*
X278110Y84744D02*
D03*
Y77658D02*
D03*
X288110Y84744D02*
D03*
Y77658D02*
D03*
X298110Y82244D02*
D03*
Y75157D02*
D03*
X298110Y162657D02*
D03*
Y169744D02*
D03*
X305610Y162657D02*
D03*
Y169744D02*
D03*
X172411Y79006D02*
D03*
Y86093D02*
D03*
X251310Y221557D02*
D03*
Y228644D02*
D03*
X329311Y237106D02*
D03*
Y244193D02*
D03*
X339311Y244193D02*
D03*
Y237106D02*
D03*
D93*
X185953Y232501D02*
D03*
X176110D02*
D03*
X43110Y248701D02*
D03*
Y238858D02*
D03*
X242559Y45000D02*
D03*
X252402D02*
D03*
X262244D02*
D03*
X242559Y15000D02*
D03*
X252402D02*
D03*
X262244D02*
D03*
X197559Y45000D02*
D03*
X207402D02*
D03*
X217244D02*
D03*
X292559Y15000D02*
D03*
X302402D02*
D03*
D94*
X193110Y171201D02*
D03*
X90610Y193701D02*
D03*
D95*
X203110Y171201D02*
D03*
X213110D02*
D03*
X223110D02*
D03*
X308110Y93701D02*
D03*
X298110D02*
D03*
X288110D02*
D03*
X278110D02*
D03*
X308110Y63701D02*
D03*
X298110D02*
D03*
X288110D02*
D03*
X90610Y183701D02*
D03*
X120610Y193701D02*
D03*
Y183701D02*
D03*
X160610Y128701D02*
D03*
Y138701D02*
D03*
Y148701D02*
D03*
X301614Y45000D02*
D03*
X291772D02*
D03*
X281929D02*
D03*
X272087D02*
D03*
X327559Y200000D02*
D03*
Y190000D02*
D03*
Y180000D02*
D03*
Y170000D02*
D03*
Y140000D02*
D03*
Y160000D02*
D03*
Y150000D02*
D03*
Y130000D02*
D03*
Y120000D02*
D03*
Y110000D02*
D03*
Y100000D02*
D03*
D96*
X48878Y30000D02*
D03*
X64469D02*
D03*
X80059D02*
D03*
X151969D02*
D03*
X167559D02*
D03*
X62559Y165591D02*
D03*
Y150000D02*
D03*
X122559Y30000D02*
D03*
X106969D02*
D03*
X62559Y107500D02*
D03*
Y123091D02*
D03*
D97*
X80610Y286201D02*
D03*
Y323602D02*
D03*
D98*
X278110Y63701D02*
D03*
X160610Y118701D02*
D03*
D99*
X201496Y261240D02*
D03*
Y339587D02*
D03*
X123150Y261240D02*
D03*
X242510Y310501D02*
D03*
Y280186D02*
D03*
X15748Y15748D02*
D03*
X362205Y15748D02*
D03*
X15748Y334646D02*
D03*
X362205D02*
D03*
X123100Y339600D02*
D03*
D100*
X105610Y288701D02*
D03*
D101*
Y308701D02*
D03*
D102*
X178110Y163701D02*
D03*
Y173701D02*
D03*
D103*
Y168701D02*
D03*
D104*
X238365Y214756D02*
D03*
X264255Y240646D02*
D03*
X238365D02*
D03*
X233003Y227701D02*
D03*
X264255Y214756D02*
D03*
X269617Y227701D02*
D03*
D105*
X304547Y154547D02*
D03*
X296673D02*
D03*
D106*
X179310Y96262D02*
D03*
D107*
Y66340D02*
D03*
X339311Y253150D02*
D03*
Y227559D02*
D03*
D108*
X259310Y137701D02*
D03*
Y117701D02*
D03*
D109*
X50059Y69410D02*
D03*
Y85000D02*
D03*
D110*
X246000Y149200D02*
D03*
X245800Y144300D02*
D03*
X241900Y167800D02*
D03*
X214759Y57600D02*
D03*
X212359Y55200D02*
D03*
X217959Y58400D02*
D03*
X164910Y135701D02*
D03*
X120110Y270901D02*
D03*
X151310Y86101D02*
D03*
X287310Y56501D02*
D03*
X80110Y50901D02*
D03*
X85710Y56501D02*
D03*
X172910Y125301D02*
D03*
X169710Y131701D02*
D03*
X168910Y141301D02*
D03*
X241710Y73301D02*
D03*
X239310Y75701D02*
D03*
X257710Y170101D02*
D03*
X208110Y162901D02*
D03*
X247310Y166901D02*
D03*
X204910Y156501D02*
D03*
X168910Y152501D02*
D03*
X181710Y130901D02*
D03*
X156109Y152500D02*
D03*
X165096Y126748D02*
D03*
X167810Y103201D02*
D03*
X186510Y105301D02*
D03*
X175310Y78901D02*
D03*
X205138Y107473D02*
D03*
X181008Y115475D02*
D03*
X182510Y113301D02*
D03*
X136110Y54101D02*
D03*
X156110Y114901D02*
D03*
X193257Y103248D02*
D03*
X198510Y55701D02*
D03*
X200910Y50101D02*
D03*
X205710Y30101D02*
D03*
X207310Y50901D02*
D03*
X209710Y53301D02*
D03*
X217710Y97301D02*
D03*
X236910Y79701D02*
D03*
X133710Y57301D02*
D03*
X136910Y120501D02*
D03*
Y142901D02*
D03*
X137057Y124648D02*
D03*
X136910Y133301D02*
D03*
X196110Y151701D02*
D03*
X224110Y141301D02*
D03*
X268910Y174101D02*
D03*
X221710Y96501D02*
D03*
X312359Y28000D02*
D03*
X301710Y27701D02*
D03*
D111*
X146809Y249600D02*
D03*
X224359Y61600D02*
D03*
X160359Y246400D02*
D03*
X174510Y262101D02*
D03*
X194510Y305301D02*
D03*
X150510Y202901D02*
D03*
X144910Y342901D02*
D03*
X152784D02*
D03*
X160658D02*
D03*
X168532D02*
D03*
X176406D02*
D03*
X144910Y335027D02*
D03*
X152784D02*
D03*
X160658D02*
D03*
X168532D02*
D03*
X176406D02*
D03*
X144910Y327153D02*
D03*
X152784D02*
D03*
X160658D02*
D03*
X168532D02*
D03*
X176406D02*
D03*
X144910Y319279D02*
D03*
X152784D02*
D03*
X160658D02*
D03*
X168532D02*
D03*
X176406D02*
D03*
X321110Y59701D02*
D03*
X191151Y71742D02*
D03*
X191110Y59701D02*
D03*
X318510Y202101D02*
D03*
X319310Y192501D02*
D03*
X145710Y261301D02*
D03*
X309016Y261406D02*
D03*
D112*
X194759Y110400D02*
D03*
X225959Y88750D02*
D03*
X140054Y118400D02*
D03*
X284110Y274901D02*
D03*
X151310Y92501D02*
D03*
X156110Y135701D02*
D03*
X132910Y74901D02*
D03*
X236910Y122101D02*
D03*
X332910Y126901D02*
D03*
X255310Y231701D02*
D03*
X238510Y128501D02*
D03*
X248110Y154101D02*
D03*
X250510Y151701D02*
D03*
X289710Y156501D02*
D03*
X291310Y166101D02*
D03*
X218510Y158101D02*
D03*
X280910D02*
D03*
X282510Y147701D02*
D03*
X218939Y154101D02*
D03*
X280110Y145301D02*
D03*
X220910Y156101D02*
D03*
X224910Y165301D02*
D03*
X232910Y173301D02*
D03*
X305810Y134001D02*
D03*
X307310Y162901D02*
D03*
X284910Y217301D02*
D03*
X325710Y282901D02*
D03*
X295354Y314252D02*
D03*
X257710Y59701D02*
D03*
X248110Y61301D02*
D03*
X252910D02*
D03*
X239109Y63500D02*
D03*
X143439Y89429D02*
D03*
X128110Y68501D02*
D03*
X161710Y38101D02*
D03*
X156110D02*
D03*
X145039Y129429D02*
D03*
X220910Y134101D02*
D03*
X226510D02*
D03*
X182646Y110236D02*
D03*
X220910Y113301D02*
D03*
X192067Y148544D02*
D03*
X184110Y168501D02*
D03*
X186510Y178901D02*
D03*
X192067Y159658D02*
D03*
X314510Y230101D02*
D03*
X225710Y98101D02*
D03*
X312110Y100501D02*
D03*
X220886Y150876D02*
D03*
X235310Y144501D02*
D03*
Y149301D02*
D03*
X51516Y48706D02*
D03*
X71310Y48501D02*
D03*
X143310Y24501D02*
D03*
X150854Y174901D02*
D03*
X136910Y129301D02*
D03*
X217110Y68701D02*
D03*
X219110Y63701D02*
D03*
X193710Y113301D02*
D03*
D113*
X134510Y242901D02*
D03*
X72068Y230101D02*
D03*
X91310Y218101D02*
D03*
X91120Y123091D02*
D03*
X91021Y165591D02*
D03*
X208988Y184501D02*
D03*
D114*
X127310Y162901D02*
D03*
X119686Y126476D02*
D03*
X117986Y83976D02*
D03*
D115*
X292211Y330000D02*
D03*
D116*
X294510Y162101D02*
D03*
D117*
X164110Y173301D02*
D03*
D118*
X127310Y323602D02*
D03*
D119*
X242510Y260501D02*
D03*
Y330501D02*
D03*
M02*
