%FSLAX25Y25*%
%MOIN*%
G70*
G01*
G75*
G04 Layer_Color=32896*
%ADD10R,0.04134X0.09449*%
%ADD11R,0.41929X0.35039*%
%ADD12R,0.01181X0.05906*%
%ADD13R,0.05906X0.01181*%
%ADD14R,0.04724X0.05512*%
%ADD15R,0.07874X0.03937*%
%ADD16O,0.02756X0.09843*%
%ADD17R,0.02362X0.04528*%
%ADD18R,0.11221X0.08465*%
%ADD19R,0.08465X0.11221*%
%ADD20R,0.12992X0.09449*%
%ADD21R,0.03937X0.09449*%
%ADD22O,0.02362X0.08858*%
%ADD23O,0.08858X0.02362*%
%ADD24R,0.06693X0.06693*%
%ADD25R,0.05512X0.04724*%
%ADD26R,0.06693X0.06693*%
%ADD27O,0.00984X0.06102*%
%ADD28O,0.06102X0.00984*%
%ADD29R,0.23228X0.21654*%
%ADD30R,0.07087X0.03543*%
%ADD31R,0.20276X0.09252*%
%ADD32C,0.01000*%
%ADD33C,0.02500*%
%ADD34C,0.02000*%
%ADD35C,0.05000*%
%ADD36C,0.15000*%
%ADD37C,0.10000*%
%ADD38C,0.01500*%
%ADD39C,0.07874*%
%ADD40C,0.06299*%
%ADD41R,0.05906X0.05906*%
%ADD42C,0.05906*%
%ADD43C,0.11000*%
%ADD44C,0.15748*%
%ADD45R,0.05906X0.05906*%
%ADD46C,0.03937*%
%ADD47C,0.07284*%
%ADD48R,0.07284X0.07284*%
%ADD49O,0.07874X0.03937*%
%ADD50O,0.07874X0.03937*%
%ADD51C,0.11811*%
%ADD52C,0.04724*%
%ADD53R,0.07874X0.07874*%
%ADD54C,0.07874*%
%ADD55C,0.06693*%
%ADD56C,0.09000*%
%ADD57C,0.02000*%
%ADD58C,0.04000*%
%ADD59C,0.01800*%
%ADD60C,0.05000*%
%ADD61C,0.06000*%
%ADD62C,0.03800*%
%ADD63C,0.02500*%
%ADD64C,0.03600*%
%ADD65C,0.15000*%
%ADD66R,0.11811X0.11811*%
%ADD67C,0.02362*%
%ADD68C,0.00984*%
%ADD69C,0.00787*%
%ADD70C,0.00800*%
%ADD71R,0.04934X0.10249*%
%ADD72R,0.42729X0.35839*%
%ADD73R,0.01981X0.06706*%
%ADD74R,0.06706X0.01981*%
%ADD75R,0.05524X0.06312*%
%ADD76R,0.08674X0.04737*%
%ADD77O,0.03556X0.10642*%
%ADD78R,0.03162X0.05328*%
%ADD79R,0.12020X0.09265*%
%ADD80R,0.09265X0.12020*%
%ADD81R,0.13792X0.10249*%
%ADD82R,0.04737X0.10249*%
%ADD83O,0.03162X0.09658*%
%ADD84O,0.09658X0.03162*%
%ADD85R,0.07493X0.07493*%
%ADD86R,0.06312X0.05524*%
%ADD87R,0.07493X0.07493*%
%ADD88O,0.01784X0.06902*%
%ADD89O,0.06902X0.01784*%
%ADD90R,0.24028X0.22453*%
%ADD91R,0.07887X0.04343*%
%ADD92R,0.21076X0.10052*%
%ADD93C,0.07099*%
%ADD94R,0.06706X0.06706*%
%ADD95C,0.06706*%
%ADD96C,0.11800*%
%ADD97C,0.16548*%
%ADD98R,0.06706X0.06706*%
%ADD99C,0.04737*%
%ADD100C,0.08083*%
%ADD101R,0.08083X0.08083*%
%ADD102O,0.08674X0.04737*%
%ADD103O,0.08674X0.04737*%
%ADD104C,0.12611*%
%ADD105C,0.05524*%
%ADD106R,0.08674X0.08674*%
%ADD107C,0.08674*%
%ADD108C,0.07493*%
%ADD109C,0.09800*%
%ADD110C,0.02800*%
%ADD111C,0.04800*%
%ADD112C,0.02600*%
%ADD113C,0.05800*%
%ADD114C,0.06800*%
%ADD115C,0.04600*%
%ADD116C,0.03300*%
%ADD117C,0.04400*%
%ADD118C,0.15800*%
%ADD119R,0.12611X0.12611*%
D32*
X161459Y59400D02*
Y63336D01*
X159491D01*
X158835Y62680D01*
Y61368D01*
X159491Y60712D01*
X161459D01*
X160147D02*
X158835Y59400D01*
X155555D02*
Y63336D01*
X157523Y61368D01*
X154900D01*
X153588Y59400D02*
X152276D01*
X152932D01*
Y63336D01*
X153588Y62680D01*
X301059Y88800D02*
Y92736D01*
X299091D01*
X298435Y92080D01*
Y90768D01*
X299091Y90112D01*
X301059D01*
X299747D02*
X298435Y88800D01*
X295156D02*
Y92736D01*
X297123Y90768D01*
X294499D01*
X293188Y92080D02*
X292532Y92736D01*
X291220D01*
X290564Y92080D01*
Y89456D01*
X291220Y88800D01*
X292532D01*
X293188Y89456D01*
Y92080D01*
X291059Y91300D02*
Y95236D01*
X289091D01*
X288435Y94580D01*
Y93268D01*
X289091Y92612D01*
X291059D01*
X289747D02*
X288435Y91300D01*
X287123Y94580D02*
X286467Y95236D01*
X285156D01*
X284500Y94580D01*
Y93924D01*
X285156Y93268D01*
X285811D01*
X285156D01*
X284500Y92612D01*
Y91956D01*
X285156Y91300D01*
X286467D01*
X287123Y91956D01*
X283188D02*
X282532Y91300D01*
X281220D01*
X280564Y91956D01*
Y94580D01*
X281220Y95236D01*
X282532D01*
X283188Y94580D01*
Y93924D01*
X282532Y93268D01*
X280564D01*
X281059Y91300D02*
Y95236D01*
X279091D01*
X278435Y94580D01*
Y93268D01*
X279091Y92612D01*
X281059D01*
X279747D02*
X278435Y91300D01*
X277123Y94580D02*
X276467Y95236D01*
X275155D01*
X274500Y94580D01*
Y93924D01*
X275155Y93268D01*
X275811D01*
X275155D01*
X274500Y92612D01*
Y91956D01*
X275155Y91300D01*
X276467D01*
X277123Y91956D01*
X273188Y94580D02*
X272532Y95236D01*
X271220D01*
X270564Y94580D01*
Y93924D01*
X271220Y93268D01*
X270564Y92612D01*
Y91956D01*
X271220Y91300D01*
X272532D01*
X273188Y91956D01*
Y92612D01*
X272532Y93268D01*
X273188Y93924D01*
Y94580D01*
X272532Y93268D02*
X271220D01*
X321659Y175600D02*
Y179536D01*
X319691D01*
X319035Y178880D01*
Y177568D01*
X319691Y176912D01*
X321659D01*
X320347D02*
X319035Y175600D01*
X317723Y178880D02*
X317067Y179536D01*
X315756D01*
X315100Y178880D01*
Y178224D01*
X315756Y177568D01*
X316411D01*
X315756D01*
X315100Y176912D01*
Y176256D01*
X315756Y175600D01*
X317067D01*
X317723Y176256D01*
X313788Y179536D02*
X311164D01*
Y178880D01*
X313788Y176256D01*
Y175600D01*
X321659Y165600D02*
Y169536D01*
X319691D01*
X319035Y168880D01*
Y167568D01*
X319691Y166912D01*
X321659D01*
X320347D02*
X319035Y165600D01*
X317723Y168880D02*
X317067Y169536D01*
X315756D01*
X315100Y168880D01*
Y168224D01*
X315756Y167568D01*
X316411D01*
X315756D01*
X315100Y166912D01*
Y166256D01*
X315756Y165600D01*
X317067D01*
X317723Y166256D01*
X311164Y169536D02*
X312476Y168880D01*
X313788Y167568D01*
Y166256D01*
X313132Y165600D01*
X311820D01*
X311164Y166256D01*
Y166912D01*
X311820Y167568D01*
X313788D01*
X321659Y155600D02*
Y159536D01*
X319691D01*
X319035Y158880D01*
Y157568D01*
X319691Y156912D01*
X321659D01*
X320347D02*
X319035Y155600D01*
X315100Y159536D02*
X317723D01*
Y157568D01*
X316411Y158224D01*
X315756D01*
X315100Y157568D01*
Y156256D01*
X315756Y155600D01*
X317067D01*
X317723Y156256D01*
X257510Y314437D02*
Y310501D01*
X255542D01*
X254887Y311157D01*
Y311813D01*
X255542Y312469D01*
X257510D01*
X255542D01*
X254887Y313125D01*
Y313781D01*
X255542Y314437D01*
X257510D01*
X253574D02*
X250951D01*
X252263D01*
Y310501D01*
X249639D02*
X248327D01*
X248983D01*
Y314437D01*
X249639Y313781D01*
X316035Y285180D02*
X316691Y285836D01*
X318003D01*
X318659Y285180D01*
Y282556D01*
X318003Y281900D01*
X316691D01*
X316035Y282556D01*
X314723Y285180D02*
X314067Y285836D01*
X312755D01*
X312100Y285180D01*
Y284524D01*
X312755Y283868D01*
X313411D01*
X312755D01*
X312100Y283212D01*
Y282556D01*
X312755Y281900D01*
X314067D01*
X314723Y282556D01*
X302987Y186981D02*
X303642Y187637D01*
X304954D01*
X305610Y186981D01*
Y184357D01*
X304954Y183701D01*
X303642D01*
X302987Y184357D01*
X299051Y187637D02*
X300363Y186981D01*
X301675Y185669D01*
Y184357D01*
X301019Y183701D01*
X299707D01*
X299051Y184357D01*
Y185013D01*
X299707Y185669D01*
X301675D01*
X269935Y73880D02*
X270591Y74536D01*
X271903D01*
X272559Y73880D01*
Y71256D01*
X271903Y70600D01*
X270591D01*
X269935Y71256D01*
X268623Y70600D02*
X267312D01*
X267967D01*
Y74536D01*
X268623Y73880D01*
X265344Y70600D02*
X264032D01*
X264688D01*
Y74536D01*
X265344Y73880D01*
X44935Y53280D02*
X45591Y53936D01*
X46903D01*
X47559Y53280D01*
Y50656D01*
X46903Y50000D01*
X45591D01*
X44935Y50656D01*
X43623Y50000D02*
X42311D01*
X42967D01*
Y53936D01*
X43623Y53280D01*
X37720Y50000D02*
X40343D01*
X37720Y52624D01*
Y53280D01*
X38376Y53936D01*
X39688D01*
X40343Y53280D01*
X92435D02*
X93091Y53936D01*
X94403D01*
X95059Y53280D01*
Y50656D01*
X94403Y50000D01*
X93091D01*
X92435Y50656D01*
X91123Y50000D02*
X89811D01*
X90467D01*
Y53936D01*
X91123Y53280D01*
X87844D02*
X87188Y53936D01*
X85876D01*
X85220Y53280D01*
Y52624D01*
X85876Y51968D01*
X86532D01*
X85876D01*
X85220Y51312D01*
Y50656D01*
X85876Y50000D01*
X87188D01*
X87844Y50656D01*
X231935Y36280D02*
X232591Y36936D01*
X233903D01*
X234559Y36280D01*
Y33656D01*
X233903Y33000D01*
X232591D01*
X231935Y33656D01*
X230623Y33000D02*
X229311D01*
X229967D01*
Y36936D01*
X230623Y36280D01*
X224720Y36936D02*
X226032Y36280D01*
X227344Y34968D01*
Y33656D01*
X226688Y33000D01*
X225376D01*
X224720Y33656D01*
Y34312D01*
X225376Y34968D01*
X227344D01*
X185935Y37280D02*
X186591Y37936D01*
X187903D01*
X188559Y37280D01*
Y34656D01*
X187903Y34000D01*
X186591D01*
X185935Y34656D01*
X184623Y34000D02*
X183311D01*
X183967D01*
Y37936D01*
X184623Y37280D01*
X181344Y37936D02*
X178720D01*
Y37280D01*
X181344Y34656D01*
Y34000D01*
X310487Y179481D02*
X311142Y180137D01*
X312454D01*
X313110Y179481D01*
Y176857D01*
X312454Y176201D01*
X311142D01*
X310487Y176857D01*
X309174Y176201D02*
X307863D01*
X308519D01*
Y180137D01*
X309174Y179481D01*
X305895D02*
X305239Y180137D01*
X303927D01*
X303271Y179481D01*
Y178825D01*
X303927Y178169D01*
X303271Y177513D01*
Y176857D01*
X303927Y176201D01*
X305239D01*
X305895Y176857D01*
Y177513D01*
X305239Y178169D01*
X305895Y178825D01*
Y179481D01*
X305239Y178169D02*
X303927D01*
X297987Y179481D02*
X298642Y180137D01*
X299954D01*
X300610Y179481D01*
Y176857D01*
X299954Y176201D01*
X298642D01*
X297987Y176857D01*
X296674Y176201D02*
X295363D01*
X296019D01*
Y180137D01*
X296674Y179481D01*
X293395Y176857D02*
X292739Y176201D01*
X291427D01*
X290771Y176857D01*
Y179481D01*
X291427Y180137D01*
X292739D01*
X293395Y179481D01*
Y178825D01*
X292739Y178169D01*
X290771D01*
X198538Y163181D02*
X199194Y163837D01*
X200505D01*
X201162Y163181D01*
Y160558D01*
X200505Y159902D01*
X199194D01*
X198538Y160558D01*
X194602Y159902D02*
X197226D01*
X194602Y162525D01*
Y163181D01*
X195258Y163837D01*
X196570D01*
X197226Y163181D01*
X193290D02*
X192634Y163837D01*
X191322D01*
X190666Y163181D01*
Y160558D01*
X191322Y159902D01*
X192634D01*
X193290Y160558D01*
Y163181D01*
X241535Y162180D02*
X242191Y162836D01*
X243503D01*
X244159Y162180D01*
Y159556D01*
X243503Y158900D01*
X242191D01*
X241535Y159556D01*
X237599Y158900D02*
X240223D01*
X237599Y161524D01*
Y162180D01*
X238256Y162836D01*
X239567D01*
X240223Y162180D01*
X233664Y158900D02*
X236288D01*
X233664Y161524D01*
Y162180D01*
X234320Y162836D01*
X235632D01*
X236288Y162180D01*
X245486Y94481D02*
X246142Y95137D01*
X247454D01*
X248110Y94481D01*
Y91857D01*
X247454Y91201D01*
X246142D01*
X245486Y91857D01*
X241551Y91201D02*
X244175D01*
X241551Y93825D01*
Y94481D01*
X242207Y95137D01*
X243519D01*
X244175Y94481D01*
X238271Y91201D02*
Y95137D01*
X240239Y93169D01*
X237615D01*
X178535Y119180D02*
X179191Y119836D01*
X180503D01*
X181159Y119180D01*
Y116556D01*
X180503Y115900D01*
X179191D01*
X178535Y116556D01*
X174600Y115900D02*
X177223D01*
X174600Y118524D01*
Y119180D01*
X175256Y119836D01*
X176567D01*
X177223Y119180D01*
X170664Y119836D02*
X171976Y119180D01*
X173288Y117868D01*
Y116556D01*
X172632Y115900D01*
X171320D01*
X170664Y116556D01*
Y117212D01*
X171320Y117868D01*
X173288D01*
X190835Y94556D02*
Y97180D01*
X191491Y97836D01*
X192803D01*
X193459Y97180D01*
Y94556D01*
X192803Y93900D01*
X191491D01*
X192147Y95212D02*
X190835Y93900D01*
X191491D02*
X190835Y94556D01*
X186899Y97836D02*
X189523D01*
Y95868D01*
X188212Y96524D01*
X187556D01*
X186899Y95868D01*
Y94556D01*
X187556Y93900D01*
X188867D01*
X189523Y94556D01*
X254210Y235201D02*
Y239137D01*
X252242D01*
X251587Y238481D01*
Y237169D01*
X252242Y236513D01*
X254210D01*
X252898D02*
X251587Y235201D01*
X250274Y238481D02*
X249619Y239137D01*
X248307D01*
X247651Y238481D01*
Y237825D01*
X248307Y237169D01*
X248963D01*
X248307D01*
X247651Y236513D01*
Y235857D01*
X248307Y235201D01*
X249619D01*
X250274Y235857D01*
X137710Y135701D02*
Y139637D01*
X135742D01*
X135087Y138981D01*
Y137669D01*
X135742Y137013D01*
X137710D01*
X136398D02*
X135087Y135701D01*
X131807D02*
Y139637D01*
X133774Y137669D01*
X131151D01*
X136910Y94901D02*
Y98837D01*
X134942D01*
X134286Y98181D01*
Y96869D01*
X134942Y96213D01*
X136910D01*
X135598D02*
X134286Y94901D01*
X132975Y98837D02*
X130351D01*
Y98181D01*
X132975Y95557D01*
Y94901D01*
X298059Y326900D02*
Y330836D01*
X296091D01*
X295435Y330180D01*
Y328868D01*
X296091Y328212D01*
X298059D01*
X296747D02*
X295435Y326900D01*
X294123Y327556D02*
X293467Y326900D01*
X292156D01*
X291499Y327556D01*
Y330180D01*
X292156Y330836D01*
X293467D01*
X294123Y330180D01*
Y329524D01*
X293467Y328868D01*
X291499D01*
X175359Y92600D02*
Y96536D01*
X173391D01*
X172735Y95880D01*
Y94568D01*
X173391Y93912D01*
X175359D01*
X174047D02*
X172735Y92600D01*
X171423D02*
X170112D01*
X170767D01*
Y96536D01*
X171423Y95880D01*
X168144D02*
X167488Y96536D01*
X166176D01*
X165520Y95880D01*
Y93256D01*
X166176Y92600D01*
X167488D01*
X168144Y93256D01*
Y95880D01*
X333659Y281900D02*
Y285836D01*
X331691D01*
X331035Y285180D01*
Y283868D01*
X331691Y283212D01*
X333659D01*
X332347D02*
X331035Y281900D01*
X329723D02*
X328412D01*
X329067D01*
Y285836D01*
X329723Y285180D01*
X326444Y281900D02*
X325132D01*
X325788D01*
Y285836D01*
X326444Y285180D01*
X139310Y175701D02*
Y179637D01*
X137342D01*
X136687Y178981D01*
Y177669D01*
X137342Y177013D01*
X139310D01*
X137998D02*
X136687Y175701D01*
X135374D02*
X134063D01*
X134719D01*
Y179637D01*
X135374Y178981D01*
X129471Y179637D02*
X130783Y178981D01*
X132095Y177669D01*
Y176357D01*
X131439Y175701D01*
X130127D01*
X129471Y176357D01*
Y177013D01*
X130127Y177669D01*
X132095D01*
X215610Y161201D02*
Y165137D01*
X213642D01*
X212986Y164481D01*
Y163169D01*
X213642Y162513D01*
X215610D01*
X214298D02*
X212986Y161201D01*
X211674D02*
X210363D01*
X211019D01*
Y165137D01*
X211674Y164481D01*
X208395D02*
X207739Y165137D01*
X206427D01*
X205771Y164481D01*
Y163825D01*
X206427Y163169D01*
X205771Y162513D01*
Y161857D01*
X206427Y161201D01*
X207739D01*
X208395Y161857D01*
Y162513D01*
X207739Y163169D01*
X208395Y163825D01*
Y164481D01*
X207739Y163169D02*
X206427D01*
X47559Y40000D02*
Y43936D01*
X45591D01*
X44935Y43280D01*
Y41968D01*
X45591Y41312D01*
X47559D01*
X46247D02*
X44935Y40000D01*
X40999D02*
X43623D01*
X40999Y42624D01*
Y43280D01*
X41655Y43936D01*
X42967D01*
X43623Y43280D01*
X39688D02*
X39032Y43936D01*
X37720D01*
X37064Y43280D01*
Y40656D01*
X37720Y40000D01*
X39032D01*
X39688Y40656D01*
Y43280D01*
X95059Y40000D02*
Y43936D01*
X93091D01*
X92435Y43280D01*
Y41968D01*
X93091Y41312D01*
X95059D01*
X93747D02*
X92435Y40000D01*
X88499D02*
X91123D01*
X88499Y42624D01*
Y43280D01*
X89155Y43936D01*
X90467D01*
X91123Y43280D01*
X87188Y40000D02*
X85876D01*
X86532D01*
Y43936D01*
X87188Y43280D01*
X235559Y24000D02*
Y27936D01*
X233591D01*
X232935Y27280D01*
Y25968D01*
X233591Y25312D01*
X235559D01*
X234247D02*
X232935Y24000D01*
X228999D02*
X231623D01*
X228999Y26624D01*
Y27280D01*
X229656Y27936D01*
X230967D01*
X231623Y27280D01*
X227688D02*
X227032Y27936D01*
X225720D01*
X225064Y27280D01*
Y26624D01*
X225720Y25968D01*
X226376D01*
X225720D01*
X225064Y25312D01*
Y24656D01*
X225720Y24000D01*
X227032D01*
X227688Y24656D01*
X188559Y23783D02*
Y27719D01*
X186591D01*
X185935Y27063D01*
Y25751D01*
X186591Y25095D01*
X188559D01*
X187247D02*
X185935Y23783D01*
X182000D02*
X184623D01*
X182000Y26407D01*
Y27063D01*
X182656Y27719D01*
X183967D01*
X184623Y27063D01*
X178720Y23783D02*
Y27719D01*
X180688Y25751D01*
X178064D01*
X204110Y91701D02*
Y95637D01*
X202142D01*
X201486Y94981D01*
Y93669D01*
X202142Y93013D01*
X204110D01*
X202798D02*
X201486Y91701D01*
X197551D02*
X200174D01*
X197551Y94325D01*
Y94981D01*
X198207Y95637D01*
X199519D01*
X200174Y94981D01*
X193615Y95637D02*
X196239D01*
Y93669D01*
X194927Y94325D01*
X194271D01*
X193615Y93669D01*
Y92357D01*
X194271Y91701D01*
X195583D01*
X196239Y92357D01*
X205059Y61000D02*
Y64936D01*
X203091D01*
X202435Y64280D01*
Y62968D01*
X203091Y62312D01*
X205059D01*
X203747D02*
X202435Y61000D01*
X198500D02*
X201123D01*
X198500Y63624D01*
Y64280D01*
X199155Y64936D01*
X200467D01*
X201123Y64280D01*
X194564Y64936D02*
X195876Y64280D01*
X197188Y62968D01*
Y61656D01*
X196532Y61000D01*
X195220D01*
X194564Y61656D01*
Y62312D01*
X195220Y62968D01*
X197188D01*
X247559Y81500D02*
Y85436D01*
X245591D01*
X244935Y84780D01*
Y83468D01*
X245591Y82812D01*
X247559D01*
X246247D02*
X244935Y81500D01*
X241000D02*
X243623D01*
X241000Y84124D01*
Y84780D01*
X241655Y85436D01*
X242967D01*
X243623Y84780D01*
X239688Y85436D02*
X237064D01*
Y84780D01*
X239688Y82156D01*
Y81500D01*
X204910Y81301D02*
Y85237D01*
X202942D01*
X202287Y84581D01*
Y83269D01*
X202942Y82613D01*
X204910D01*
X203598D02*
X202287Y81301D01*
X198351D02*
X200974D01*
X198351Y83925D01*
Y84581D01*
X199007Y85237D01*
X200319D01*
X200974Y84581D01*
X197039D02*
X196383Y85237D01*
X195071D01*
X194415Y84581D01*
Y83925D01*
X195071Y83269D01*
X194415Y82613D01*
Y81957D01*
X195071Y81301D01*
X196383D01*
X197039Y81957D01*
Y82613D01*
X196383Y83269D01*
X197039Y83925D01*
Y84581D01*
X196383Y83269D02*
X195071D01*
X205059Y71000D02*
Y74936D01*
X203091D01*
X202435Y74280D01*
Y72968D01*
X203091Y72312D01*
X205059D01*
X203747D02*
X202435Y71000D01*
X198500D02*
X201123D01*
X198500Y73624D01*
Y74280D01*
X199155Y74936D01*
X200467D01*
X201123Y74280D01*
X197188Y71656D02*
X196532Y71000D01*
X195220D01*
X194564Y71656D01*
Y74280D01*
X195220Y74936D01*
X196532D01*
X197188Y74280D01*
Y73624D01*
X196532Y72968D01*
X194564D01*
X247559Y71000D02*
Y74936D01*
X245591D01*
X244935Y74280D01*
Y72968D01*
X245591Y72312D01*
X247559D01*
X246247D02*
X244935Y71000D01*
X243623Y74280D02*
X242967Y74936D01*
X241655D01*
X241000Y74280D01*
Y73624D01*
X241655Y72968D01*
X242312D01*
X241655D01*
X241000Y72312D01*
Y71656D01*
X241655Y71000D01*
X242967D01*
X243623Y71656D01*
X239688Y74280D02*
X239032Y74936D01*
X237720D01*
X237064Y74280D01*
Y71656D01*
X237720Y71000D01*
X239032D01*
X239688Y71656D01*
Y74280D01*
X346031Y243026D02*
X345375Y243682D01*
Y244994D01*
X346031Y245650D01*
X348655D01*
X349311Y244994D01*
Y243682D01*
X348655Y243026D01*
X349311Y239090D02*
Y241714D01*
X346687Y239090D01*
X346031D01*
X345375Y239746D01*
Y241058D01*
X346031Y241714D01*
Y237778D02*
X345375Y237122D01*
Y235810D01*
X346031Y235154D01*
X346687D01*
X347343Y235810D01*
Y236466D01*
Y235810D01*
X347999Y235154D01*
X348655D01*
X349311Y235810D01*
Y237122D01*
X348655Y237778D01*
X324311Y245650D02*
X320375D01*
Y243682D01*
X321031Y243026D01*
X322343D01*
X322999Y243682D01*
Y245650D01*
Y244338D02*
X324311Y243026D01*
X321031Y241714D02*
X320375Y241058D01*
Y239746D01*
X321031Y239090D01*
X321687D01*
X322343Y239746D01*
Y240402D01*
Y239746D01*
X322999Y239090D01*
X323655D01*
X324311Y239746D01*
Y241058D01*
X323655Y241714D01*
X324311Y237778D02*
Y236466D01*
Y237122D01*
X320375D01*
X321031Y237778D01*
D68*
X180817Y87479D02*
G03*
X180817Y87479I-492J0D01*
G01*
D69*
X210610Y153839D02*
Y158563D01*
X212910Y91739D02*
Y96463D01*
X156148Y49301D02*
X160872D01*
X315610Y186339D02*
Y191063D01*
X315610Y146339D02*
Y151063D01*
X315610Y156339D02*
Y161063D01*
X315610Y166339D02*
Y171063D01*
X275748Y81201D02*
X280472D01*
X285748D02*
X290473D01*
X295748Y78701D02*
X300472D01*
X195610Y153839D02*
Y158563D01*
X295748Y166201D02*
X300472D01*
X303248D02*
X307973D01*
X170049Y82550D02*
X174773D01*
X181506Y80294D02*
Y83837D01*
Y80294D02*
X184655D01*
X193317D02*
Y83837D01*
X190167Y80294D02*
X193317D01*
X266510Y61339D02*
Y66063D01*
X212510Y270501D02*
X272510D01*
X262510Y280501D02*
X272510Y270501D01*
X262510Y280501D02*
Y320501D01*
X222510D02*
X262510D01*
X222510Y280501D02*
Y320501D01*
X212510Y270501D02*
X222510Y280501D01*
X175059Y106638D02*
Y111362D01*
X238059Y149638D02*
Y154362D01*
X248948Y225101D02*
X253673D01*
X327559Y272638D02*
Y277362D01*
X297559Y317638D02*
Y322362D01*
X312559Y272638D02*
Y277362D01*
X217559Y32638D02*
Y37362D01*
X197559Y32638D02*
Y37362D01*
Y22638D02*
Y27362D01*
X217559Y22638D02*
Y27362D01*
X326949Y240650D02*
X331673D01*
X336949D02*
X341673D01*
X227559Y71138D02*
Y75862D01*
X212559Y71138D02*
Y75862D01*
Y81138D02*
Y85862D01*
Y61138D02*
Y65862D01*
X227559Y81138D02*
Y85862D01*
X228110Y91339D02*
Y96063D01*
X55059Y40138D02*
Y44862D01*
X75059Y40138D02*
Y44862D01*
Y50138D02*
Y54862D01*
X55059Y50138D02*
Y54862D01*
X147310Y174939D02*
Y179663D01*
X147559Y95138D02*
Y99862D01*
Y135138D02*
Y139862D01*
M02*
