%FSLAX25Y25*%
%MOIN*%
G70*
G01*
G75*
G04 Layer_Color=16711935*
%ADD10R,0.07874X0.03937*%
%ADD11C,0.03937*%
%ADD12O,0.02756X0.09843*%
%ADD13R,0.03248X0.01181*%
%ADD14R,0.01181X0.03248*%
%ADD15R,0.04724X0.05512*%
%ADD16R,0.04528X0.02362*%
%ADD17R,0.20276X0.09252*%
%ADD18R,0.05512X0.04724*%
%ADD19R,0.02362X0.04528*%
%ADD20R,0.11221X0.08465*%
%ADD21R,0.08465X0.11221*%
%ADD22R,0.04134X0.09449*%
%ADD23R,0.41929X0.35039*%
%ADD24R,0.12992X0.09449*%
%ADD25R,0.03937X0.09449*%
%ADD26O,0.08858X0.02362*%
%ADD27R,0.09449X0.04134*%
%ADD28R,0.35039X0.41929*%
%ADD29R,0.06693X0.06693*%
%ADD30O,0.00984X0.06102*%
%ADD31O,0.06102X0.00984*%
%ADD32C,0.01500*%
%ADD33C,0.03000*%
%ADD34C,0.03937*%
%ADD35C,0.01000*%
%ADD36C,0.02000*%
%ADD37C,0.07874*%
%ADD38C,0.11811*%
%ADD39C,0.11811*%
%ADD40C,0.04724*%
%ADD41C,0.05906*%
%ADD42R,0.05906X0.05906*%
%ADD43C,0.11000*%
%ADD44C,0.06299*%
%ADD45C,0.15748*%
%ADD46R,0.04724X0.04724*%
%ADD47R,0.07874X0.07874*%
%ADD48C,0.07874*%
%ADD49O,0.07874X0.03937*%
%ADD50O,0.07874X0.03937*%
%ADD51C,0.06693*%
%ADD52C,0.09000*%
%ADD53C,0.02000*%
%ADD54C,0.03800*%
%ADD55C,0.02500*%
%ADD56C,0.05000*%
%ADD57C,0.02800*%
%ADD58C,0.04000*%
%ADD59R,0.11811X0.11811*%
%ADD60C,0.19685*%
%ADD61C,0.00984*%
%ADD62C,0.02362*%
%ADD63C,0.00787*%
%ADD64C,0.00800*%
%ADD65R,0.08674X0.04737*%
%ADD66C,0.04737*%
%ADD67O,0.03556X0.10642*%
%ADD68R,0.04048X0.01981*%
%ADD69R,0.01981X0.04048*%
%ADD70R,0.05524X0.06312*%
%ADD71R,0.05328X0.03162*%
%ADD72R,0.21076X0.10052*%
%ADD73R,0.06312X0.05524*%
%ADD74R,0.03162X0.05328*%
%ADD75R,0.12020X0.09265*%
%ADD76R,0.09265X0.12020*%
%ADD77R,0.04934X0.10249*%
%ADD78R,0.42729X0.35839*%
%ADD79R,0.13792X0.10249*%
%ADD80R,0.04737X0.10249*%
%ADD81O,0.09658X0.03162*%
%ADD82R,0.10249X0.04934*%
%ADD83R,0.35839X0.42729*%
%ADD84R,0.07493X0.07493*%
%ADD85O,0.01784X0.06902*%
%ADD86O,0.06902X0.01784*%
%ADD87C,0.12611*%
%ADD88C,0.05524*%
%ADD89C,0.06706*%
%ADD90R,0.06706X0.06706*%
%ADD91C,0.11800*%
%ADD92C,0.07099*%
%ADD93C,0.16548*%
%ADD94R,0.05524X0.05524*%
%ADD95R,0.08674X0.08674*%
%ADD96C,0.08674*%
%ADD97O,0.08674X0.04737*%
%ADD98O,0.08674X0.04737*%
%ADD99C,0.07493*%
%ADD100C,0.09800*%
%ADD101C,0.04600*%
%ADD102C,0.03300*%
%ADD103C,0.05800*%
%ADD104C,0.03600*%
%ADD105C,0.04800*%
%ADD106R,0.12611X0.12611*%
D57*
X357927Y363071D02*
D03*
X350500Y352500D02*
D03*
X369000Y315500D02*
D03*
X278543Y195957D02*
D03*
X316000Y171000D02*
D03*
X284000Y346500D02*
D03*
X332000Y317500D02*
D03*
X323500Y251500D02*
D03*
X266500Y366000D02*
D03*
X334000Y180000D02*
D03*
X347500Y175000D02*
D03*
X352500Y175000D02*
D03*
X431500Y386000D02*
D03*
X363500Y302500D02*
D03*
X336500Y332000D02*
D03*
X356485Y360485D02*
D03*
X353858Y360142D02*
D03*
X359500Y329000D02*
D03*
X362358Y353858D02*
D03*
X365000Y372000D02*
D03*
X327748Y366752D02*
D03*
X318000Y329000D02*
D03*
X375000Y274500D02*
D03*
X368500Y305000D02*
D03*
X384500Y369500D02*
D03*
X372000Y342500D02*
D03*
X383500Y294500D02*
D03*
X380500Y301500D02*
D03*
X378000Y309500D02*
D03*
X302500Y251500D02*
D03*
X328000Y341500D02*
D03*
X330500Y354500D02*
D03*
X453500Y346000D02*
D03*
X457500Y346500D02*
D03*
X461000Y347000D02*
D03*
X462126Y467126D02*
D03*
X445000Y372500D02*
D03*
X440000D02*
D03*
X461504Y475000D02*
D03*
X407500Y392500D02*
D03*
X339500Y373000D02*
D03*
X395000Y388500D02*
D03*
X338110Y360890D02*
D03*
X342047Y379047D02*
D03*
X242500Y317500D02*
D03*
X262827Y355827D02*
D03*
X240000Y225000D02*
D03*
X257500Y352500D02*
D03*
X227000Y173000D02*
D03*
X253079Y349921D02*
D03*
X258000Y309000D02*
D03*
X265500Y331500D02*
D03*
X274500Y225000D02*
D03*
X291110Y338110D02*
D03*
X282500Y241500D02*
D03*
X295142Y336142D02*
D03*
X285500Y238500D02*
D03*
X302673Y334173D02*
D03*
X288000Y236000D02*
D03*
X302500Y322500D02*
D03*
X335500Y205000D02*
D03*
X333000Y303500D02*
D03*
X335500Y307500D02*
D03*
Y227000D02*
D03*
X377500Y222500D02*
D03*
X384500Y227500D02*
D03*
X338000Y305000D02*
D03*
Y229000D02*
D03*
X341500Y305000D02*
D03*
X342000Y212500D02*
D03*
X395000Y205000D02*
D03*
X351000Y305000D02*
D03*
Y221500D02*
D03*
X434000Y210000D02*
D03*
X348500Y309500D02*
D03*
Y219500D02*
D03*
X424500Y209760D02*
D03*
X343900Y309900D02*
D03*
X346000Y315000D02*
D03*
X344000Y215000D02*
D03*
X404685Y209815D02*
D03*
X346000Y217000D02*
D03*
X414500Y210000D02*
D03*
X362752Y323248D02*
D03*
D66*
X434000Y334500D02*
D03*
Y304185D02*
D03*
D70*
X379543Y242500D02*
D03*
X372457D02*
D03*
X306457Y329000D02*
D03*
X313543D02*
D03*
X356457Y310000D02*
D03*
X363543D02*
D03*
X376543Y372000D02*
D03*
X369457D02*
D03*
X333543Y375000D02*
D03*
X326457D02*
D03*
X473543Y425000D02*
D03*
X466457D02*
D03*
X436457Y470000D02*
D03*
X443543D02*
D03*
X451457Y425000D02*
D03*
X458543D02*
D03*
X312543Y224500D02*
D03*
X305457D02*
D03*
X292957Y233000D02*
D03*
X300043D02*
D03*
X291957Y252000D02*
D03*
X299043D02*
D03*
X308957D02*
D03*
X316043D02*
D03*
X303543Y215000D02*
D03*
X296457D02*
D03*
X356457Y185000D02*
D03*
X363543D02*
D03*
X343543Y185000D02*
D03*
X336457D02*
D03*
X343543Y175000D02*
D03*
X336457D02*
D03*
X356457Y175000D02*
D03*
X363543D02*
D03*
D73*
X320000Y456457D02*
D03*
Y463543D02*
D03*
D87*
X307055Y447055D02*
D03*
X332945Y472945D02*
D03*
X307055D02*
D03*
X301693Y460000D02*
D03*
X332945Y447055D02*
D03*
X338307Y460000D02*
D03*
D88*
X415000Y399626D02*
D03*
Y407500D02*
D03*
X375000Y455000D02*
D03*
Y465000D02*
D03*
D89*
X360000Y273000D02*
D03*
Y263000D02*
D03*
Y253000D02*
D03*
Y243000D02*
D03*
X390000Y273000D02*
D03*
Y263000D02*
D03*
Y253000D02*
D03*
X470000Y350000D02*
D03*
Y340000D02*
D03*
Y330000D02*
D03*
Y320000D02*
D03*
Y290000D02*
D03*
Y310000D02*
D03*
Y300000D02*
D03*
Y280000D02*
D03*
Y270000D02*
D03*
Y260000D02*
D03*
Y250000D02*
D03*
X355000Y395000D02*
D03*
X345000D02*
D03*
X335000D02*
D03*
X260000Y230000D02*
D03*
X270000D02*
D03*
X280000D02*
D03*
X444055Y195000D02*
D03*
X434213D02*
D03*
X424370D02*
D03*
X414528D02*
D03*
D90*
X390000Y243000D02*
D03*
X365000Y395000D02*
D03*
X250000Y230000D02*
D03*
D91*
X120000Y330591D02*
D03*
Y315000D02*
D03*
X238819Y180000D02*
D03*
X254410D02*
D03*
X270000D02*
D03*
X315000D02*
D03*
X299410D02*
D03*
X120000Y250000D02*
D03*
Y265591D02*
D03*
D92*
X405000Y225000D02*
D03*
X414843D02*
D03*
X424685D02*
D03*
X120000Y390000D02*
D03*
Y380157D02*
D03*
X340000Y165000D02*
D03*
X349843D02*
D03*
X359685D02*
D03*
X385000Y195000D02*
D03*
X394843D02*
D03*
X404685D02*
D03*
X385000Y165000D02*
D03*
X394843D02*
D03*
X404685D02*
D03*
X340000Y195000D02*
D03*
X349843D02*
D03*
X359685D02*
D03*
X435000Y165000D02*
D03*
X444842D02*
D03*
D93*
X150000Y430000D02*
D03*
Y467402D02*
D03*
X143000Y250000D02*
D03*
X189000Y200000D02*
D03*
X202974Y229978D02*
D03*
D94*
X375000Y475000D02*
D03*
D95*
X305461Y290000D02*
D03*
D96*
X275539D02*
D03*
X485000Y375000D02*
D03*
Y400591D02*
D03*
X486000Y301000D02*
D03*
X142500Y315000D02*
D03*
X236276Y441000D02*
D03*
X174035Y259035D02*
D03*
X193000Y330000D02*
D03*
X195000Y400000D02*
D03*
X193000Y415000D02*
D03*
X236276Y464512D02*
D03*
D97*
X270000Y380000D02*
D03*
Y390000D02*
D03*
D98*
Y385000D02*
D03*
D99*
X385000Y345000D02*
D03*
Y325000D02*
D03*
D100*
X120000Y189409D02*
D03*
Y205000D02*
D03*
D101*
X408500Y431000D02*
D03*
X236000Y301000D02*
D03*
X233740Y235740D02*
D03*
D102*
X317500Y227500D02*
D03*
X312543Y229957D02*
D03*
X308957Y247457D02*
D03*
X313000Y248000D02*
D03*
X270500Y204000D02*
D03*
X254500Y203000D02*
D03*
X363543Y200457D02*
D03*
X386000Y375500D02*
D03*
X384000Y400500D02*
D03*
X366500Y401500D02*
D03*
X390058Y371442D02*
D03*
X424000Y369500D02*
D03*
X468000Y432000D02*
D03*
X442500Y465000D02*
D03*
X393000Y413500D02*
D03*
X414500Y381000D02*
D03*
X405000D02*
D03*
X420000Y416000D02*
D03*
X455000Y394500D02*
D03*
X451500Y419882D02*
D03*
X436500Y475000D02*
D03*
X397000Y454000D02*
D03*
Y431500D02*
D03*
X326500Y380500D02*
D03*
X309000Y395000D02*
D03*
Y421500D02*
D03*
D103*
X367500Y237000D02*
D03*
X223000Y259500D02*
D03*
X418500Y337500D02*
D03*
X226457Y345957D02*
D03*
X293500Y419500D02*
D03*
X228000Y415000D02*
D03*
X267500D02*
D03*
D104*
X352500Y404500D02*
D03*
X378000Y397000D02*
D03*
D105*
X250571Y280571D02*
D03*
X231000Y425000D02*
D03*
X196850Y488189D02*
D03*
X204724D02*
D03*
X212598D02*
D03*
X220472D02*
D03*
X228346D02*
D03*
X196850Y480315D02*
D03*
X204724D02*
D03*
X212598D02*
D03*
X220472D02*
D03*
X228346D02*
D03*
X196850Y472441D02*
D03*
X204724D02*
D03*
X212598D02*
D03*
X220472D02*
D03*
X228346D02*
D03*
X196850Y464567D02*
D03*
X204724D02*
D03*
X212598D02*
D03*
X220472D02*
D03*
X228346D02*
D03*
X314961Y307087D02*
D03*
X401575D02*
D03*
X464567Y417323D02*
D03*
X330709D02*
D03*
D106*
X434000Y284500D02*
D03*
Y354500D02*
D03*
M02*
