%FSLAX25Y25*%
%MOIN*%
G70*
G01*
G75*
%ADD10R,0.07874X0.03937*%
%ADD11C,0.03937*%
%ADD12O,0.02756X0.09843*%
%ADD13R,0.03248X0.01181*%
%ADD14R,0.01181X0.03248*%
%ADD15R,0.04724X0.05512*%
%ADD16R,0.04528X0.02362*%
%ADD17R,0.20276X0.09252*%
%ADD18R,0.05512X0.04724*%
%ADD19R,0.02362X0.04528*%
%ADD20R,0.11221X0.08465*%
%ADD21R,0.08465X0.11221*%
%ADD22R,0.04134X0.09449*%
%ADD23R,0.41929X0.35039*%
%ADD24R,0.12992X0.09449*%
%ADD25R,0.03937X0.09449*%
%ADD26O,0.08858X0.02362*%
%ADD27R,0.09449X0.04134*%
%ADD28R,0.35039X0.41929*%
%ADD29R,0.06693X0.06693*%
%ADD30O,0.00984X0.06102*%
%ADD31O,0.06102X0.00984*%
%ADD32C,0.01500*%
%ADD33C,0.03000*%
%ADD34C,0.03937*%
%ADD35C,0.01000*%
%ADD36C,0.02000*%
%ADD37C,0.07874*%
%ADD38C,0.11811*%
%ADD39C,0.11811*%
%ADD40C,0.04724*%
%ADD41C,0.05906*%
%ADD42R,0.05906X0.05906*%
%ADD43C,0.11000*%
%ADD44C,0.06299*%
%ADD45C,0.15748*%
%ADD46R,0.04724X0.04724*%
%ADD47R,0.07874X0.07874*%
%ADD48C,0.07874*%
%ADD49O,0.07874X0.03937*%
%ADD50O,0.07874X0.03937*%
%ADD51C,0.06693*%
%ADD52C,0.09000*%
%ADD53C,0.02000*%
%ADD54C,0.03800*%
%ADD55C,0.02500*%
%ADD56C,0.05000*%
%ADD57C,0.02800*%
%ADD58C,0.04000*%
%ADD59R,0.11811X0.11811*%
%ADD60C,0.19685*%
%ADD61C,0.00984*%
%ADD62C,0.02362*%
%ADD63C,0.00787*%
%ADD64C,0.00800*%
G36*
X248046Y401195D02*
X248130D01*
X248223Y401188D01*
X248315Y401180D01*
X248408Y401169D01*
X248450Y401161D01*
X248488Y401153D01*
X248492D01*
X248500Y401149D01*
X248515Y401145D01*
X248535Y401142D01*
X248558Y401134D01*
X248585Y401122D01*
X248650Y401099D01*
X248723Y401068D01*
X248800Y401030D01*
X248881Y400980D01*
X248958Y400922D01*
X248962Y400918D01*
X248970Y400911D01*
X248981Y400899D01*
X249001Y400884D01*
X249020Y400864D01*
X249043Y400837D01*
X249070Y400807D01*
X249101Y400776D01*
X249128Y400737D01*
X249162Y400695D01*
X249224Y400603D01*
X249282Y400495D01*
X249335Y400376D01*
Y400372D01*
X249339Y400360D01*
X249347Y400341D01*
X249355Y400318D01*
X249366Y400287D01*
X249374Y400248D01*
X249385Y400206D01*
X249401Y400156D01*
X249412Y400102D01*
X249424Y400044D01*
X249432Y399983D01*
X249443Y399917D01*
X249459Y399771D01*
X249462Y399617D01*
Y399613D01*
Y399602D01*
Y399582D01*
Y399555D01*
X249459Y399525D01*
Y399486D01*
X249455Y399444D01*
X249451Y399398D01*
X249439Y399297D01*
X249424Y399190D01*
X249405Y399078D01*
X249374Y398970D01*
Y398966D01*
X249370Y398959D01*
X249366Y398943D01*
X249359Y398924D01*
X249351Y398901D01*
X249339Y398870D01*
X249316Y398809D01*
X249282Y398731D01*
X249247Y398655D01*
X249204Y398577D01*
X249154Y398504D01*
Y398500D01*
X249147Y398497D01*
X249131Y398474D01*
X249104Y398439D01*
X249070Y398400D01*
X249027Y398350D01*
X248977Y398304D01*
X248923Y398254D01*
X248866Y398212D01*
X248858Y398208D01*
X248839Y398196D01*
X248804Y398177D01*
X248758Y398154D01*
X248704Y398127D01*
X248639Y398100D01*
X248565Y398077D01*
X248484Y398054D01*
X248481D01*
X248473Y398050D01*
X248462D01*
X248446Y398046D01*
X248423Y398042D01*
X248400Y398039D01*
X248338Y398027D01*
X248261Y398015D01*
X248173Y398008D01*
X248077Y398004D01*
X247972Y398000D01*
X246821D01*
Y401199D01*
X248011D01*
X248046Y401195D01*
D02*
G37*
G36*
X447558Y272249D02*
X447593Y272246D01*
X447635D01*
X447678Y272238D01*
X447774Y272226D01*
X447878Y272203D01*
X447986Y272176D01*
X448094Y272138D01*
X448097D01*
X448105Y272134D01*
X448120Y272126D01*
X448140Y272118D01*
X448163Y272107D01*
X448190Y272092D01*
X448255Y272057D01*
X448324Y272015D01*
X448398Y271961D01*
X448467Y271895D01*
X448532Y271826D01*
X448536Y271822D01*
X448540Y271818D01*
X448548Y271807D01*
X448559Y271791D01*
X448571Y271768D01*
X448586Y271745D01*
X448606Y271718D01*
X448625Y271687D01*
X448663Y271610D01*
X448702Y271522D01*
X448740Y271418D01*
X448775Y271302D01*
X448394Y271195D01*
Y271198D01*
X448390Y271206D01*
X448386Y271218D01*
X448382Y271237D01*
X448367Y271279D01*
X448344Y271337D01*
X448317Y271398D01*
X448286Y271460D01*
X448251Y271522D01*
X448213Y271580D01*
X448209Y271587D01*
X448194Y271603D01*
X448171Y271630D01*
X448136Y271660D01*
X448094Y271699D01*
X448040Y271737D01*
X447978Y271772D01*
X447909Y271807D01*
X447905D01*
X447901Y271811D01*
X447890Y271814D01*
X447874Y271818D01*
X447836Y271834D01*
X447782Y271849D01*
X447716Y271864D01*
X447639Y271880D01*
X447558Y271887D01*
X447470Y271891D01*
X447420D01*
X447397Y271887D01*
X447366D01*
X447300Y271880D01*
X447220Y271868D01*
X447139Y271853D01*
X447050Y271834D01*
X446969Y271803D01*
X446966D01*
X446962Y271799D01*
X446950Y271795D01*
X446935Y271787D01*
X446896Y271768D01*
X446846Y271741D01*
X446792Y271707D01*
X446735Y271668D01*
X446681Y271622D01*
X446627Y271568D01*
X446623Y271560D01*
X446607Y271545D01*
X446584Y271514D01*
X446554Y271476D01*
X446523Y271429D01*
X446488Y271375D01*
X446457Y271314D01*
X446426Y271252D01*
Y271248D01*
X446423Y271241D01*
X446415Y271221D01*
X446407Y271202D01*
X446399Y271171D01*
X446388Y271141D01*
X446377Y271102D01*
X446369Y271060D01*
X446357Y271013D01*
X446346Y270964D01*
X446326Y270856D01*
X446311Y270732D01*
X446307Y270605D01*
Y270602D01*
Y270586D01*
Y270563D01*
X446311Y270536D01*
Y270498D01*
X446315Y270455D01*
X446319Y270409D01*
X446326Y270355D01*
X446342Y270244D01*
X446369Y270124D01*
X446403Y270005D01*
X446453Y269889D01*
Y269885D01*
X446461Y269878D01*
X446469Y269862D01*
X446480Y269843D01*
X446496Y269820D01*
X446515Y269789D01*
X446561Y269728D01*
X446623Y269658D01*
X446696Y269589D01*
X446781Y269520D01*
X446881Y269462D01*
X446885D01*
X446892Y269454D01*
X446908Y269450D01*
X446931Y269439D01*
X446954Y269431D01*
X446985Y269420D01*
X447023Y269404D01*
X447062Y269393D01*
X447150Y269366D01*
X447250Y269346D01*
X447362Y269331D01*
X447477Y269323D01*
X447524D01*
X447551Y269327D01*
X447578D01*
X447612Y269331D01*
X447647Y269335D01*
X447728Y269350D01*
X447816Y269366D01*
X447913Y269393D01*
X448009Y269427D01*
X448013D01*
X448020Y269431D01*
X448036Y269439D01*
X448051Y269447D01*
X448074Y269454D01*
X448097Y269470D01*
X448159Y269497D01*
X448221Y269531D01*
X448290Y269570D01*
X448351Y269612D01*
X448409Y269654D01*
Y270251D01*
X447474D01*
Y270628D01*
X448825D01*
Y269443D01*
X448821Y269439D01*
X448810Y269431D01*
X448794Y269420D01*
X448771Y269404D01*
X448744Y269381D01*
X448710Y269358D01*
X448671Y269331D01*
X448629Y269304D01*
X448583Y269273D01*
X448532Y269243D01*
X448421Y269181D01*
X448305Y269123D01*
X448182Y269069D01*
X448178D01*
X448167Y269065D01*
X448147Y269058D01*
X448124Y269050D01*
X448094Y269042D01*
X448059Y269031D01*
X448017Y269019D01*
X447974Y269008D01*
X447924Y268996D01*
X447870Y268985D01*
X447755Y268965D01*
X447632Y268950D01*
X447501Y268946D01*
X447454D01*
X447420Y268950D01*
X447381Y268954D01*
X447331Y268958D01*
X447277Y268962D01*
X447220Y268973D01*
X447154Y268981D01*
X447085Y268996D01*
X446942Y269031D01*
X446869Y269054D01*
X446792Y269081D01*
X446719Y269112D01*
X446646Y269146D01*
X446642Y269150D01*
X446631Y269154D01*
X446607Y269165D01*
X446584Y269185D01*
X446550Y269204D01*
X446515Y269231D01*
X446473Y269258D01*
X446430Y269293D01*
X446384Y269335D01*
X446334Y269377D01*
X446288Y269424D01*
X446238Y269477D01*
X446192Y269531D01*
X446145Y269593D01*
X446103Y269658D01*
X446065Y269728D01*
X446061Y269731D01*
X446057Y269747D01*
X446045Y269766D01*
X446034Y269797D01*
X446018Y269832D01*
X446003Y269874D01*
X445988Y269924D01*
X445968Y269978D01*
X445949Y270040D01*
X445934Y270105D01*
X445918Y270174D01*
X445903Y270251D01*
X445880Y270409D01*
X445876Y270494D01*
X445872Y270582D01*
Y270586D01*
Y270602D01*
Y270628D01*
X445876Y270663D01*
X445880Y270702D01*
X445884Y270752D01*
X445888Y270806D01*
X445895Y270867D01*
X445907Y270933D01*
X445918Y270998D01*
X445953Y271145D01*
X445976Y271221D01*
X446003Y271299D01*
X446030Y271375D01*
X446065Y271452D01*
X446068Y271456D01*
X446072Y271472D01*
X446084Y271491D01*
X446099Y271518D01*
X446122Y271553D01*
X446145Y271591D01*
X446176Y271633D01*
X446207Y271680D01*
X446246Y271730D01*
X446288Y271780D01*
X446334Y271830D01*
X446384Y271880D01*
X446438Y271930D01*
X446496Y271976D01*
X446561Y272018D01*
X446627Y272057D01*
X446631Y272061D01*
X446642Y272065D01*
X446665Y272076D01*
X446692Y272088D01*
X446727Y272103D01*
X446769Y272118D01*
X446815Y272138D01*
X446869Y272157D01*
X446927Y272172D01*
X446992Y272192D01*
X447062Y272207D01*
X447139Y272222D01*
X447216Y272234D01*
X447297Y272246D01*
X447381Y272249D01*
X447470Y272253D01*
X447528D01*
X447558Y272249D01*
D02*
G37*
G36*
X246109Y398000D02*
X245674D01*
X243992Y400510D01*
Y398000D01*
X243587D01*
Y401199D01*
X244019D01*
X245705Y398685D01*
Y401199D01*
X246109D01*
Y398000D01*
D02*
G37*
G36*
X467518Y173037D02*
X467221D01*
Y173867D01*
X465000D01*
Y174201D01*
X467221D01*
Y175031D01*
X467518D01*
Y173037D01*
D02*
G37*
G36*
Y177046D02*
X465539Y175719D01*
X467518D01*
Y175400D01*
X465000D01*
Y175743D01*
X466976Y177067D01*
X465000D01*
Y177385D01*
X467518D01*
Y177046D01*
D02*
G37*
G36*
X453903Y272196D02*
X453988D01*
X454080Y272188D01*
X454173Y272180D01*
X454265Y272169D01*
X454307Y272161D01*
X454346Y272153D01*
X454350D01*
X454357Y272149D01*
X454373Y272145D01*
X454392Y272142D01*
X454415Y272134D01*
X454442Y272122D01*
X454508Y272099D01*
X454581Y272068D01*
X454658Y272030D01*
X454739Y271980D01*
X454816Y271922D01*
X454819Y271918D01*
X454827Y271911D01*
X454839Y271899D01*
X454858Y271884D01*
X454877Y271864D01*
X454900Y271837D01*
X454927Y271807D01*
X454958Y271776D01*
X454985Y271737D01*
X455020Y271695D01*
X455081Y271603D01*
X455139Y271495D01*
X455193Y271375D01*
Y271372D01*
X455197Y271360D01*
X455204Y271341D01*
X455212Y271318D01*
X455224Y271287D01*
X455232Y271248D01*
X455243Y271206D01*
X455258Y271156D01*
X455270Y271102D01*
X455281Y271044D01*
X455289Y270983D01*
X455301Y270917D01*
X455316Y270771D01*
X455320Y270617D01*
Y270613D01*
Y270602D01*
Y270582D01*
Y270555D01*
X455316Y270525D01*
Y270486D01*
X455312Y270444D01*
X455308Y270398D01*
X455297Y270297D01*
X455281Y270190D01*
X455262Y270078D01*
X455232Y269970D01*
Y269966D01*
X455228Y269959D01*
X455224Y269943D01*
X455216Y269924D01*
X455208Y269901D01*
X455197Y269870D01*
X455174Y269809D01*
X455139Y269731D01*
X455104Y269654D01*
X455062Y269578D01*
X455012Y269504D01*
Y269500D01*
X455004Y269497D01*
X454989Y269474D01*
X454962Y269439D01*
X454927Y269400D01*
X454885Y269350D01*
X454835Y269304D01*
X454781Y269254D01*
X454723Y269212D01*
X454715Y269208D01*
X454696Y269196D01*
X454662Y269177D01*
X454615Y269154D01*
X454562Y269127D01*
X454496Y269100D01*
X454423Y269077D01*
X454342Y269054D01*
X454338D01*
X454331Y269050D01*
X454319D01*
X454304Y269046D01*
X454281Y269042D01*
X454257Y269039D01*
X454196Y269027D01*
X454119Y269015D01*
X454030Y269008D01*
X453934Y269004D01*
X453830Y269000D01*
X452679D01*
Y272199D01*
X453868D01*
X453903Y272196D01*
D02*
G37*
G36*
X444386D02*
X444463Y272192D01*
X444544Y272188D01*
X444621Y272180D01*
X444690Y272169D01*
X444702D01*
X444713Y272165D01*
X444729Y272161D01*
X444771Y272149D01*
X444829Y272134D01*
X444890Y272111D01*
X444956Y272088D01*
X445021Y272053D01*
X445083Y272015D01*
X445090Y272011D01*
X445110Y271995D01*
X445141Y271968D01*
X445175Y271938D01*
X445218Y271891D01*
X445260Y271837D01*
X445302Y271776D01*
X445341Y271707D01*
Y271703D01*
X445345Y271699D01*
X445349Y271687D01*
X445356Y271672D01*
X445372Y271633D01*
X445391Y271580D01*
X445410Y271514D01*
X445426Y271441D01*
X445437Y271360D01*
X445441Y271271D01*
Y271268D01*
Y271252D01*
Y271233D01*
X445437Y271202D01*
X445433Y271167D01*
X445426Y271129D01*
X445418Y271083D01*
X445410Y271033D01*
X445375Y270925D01*
X445356Y270867D01*
X445329Y270810D01*
X445302Y270752D01*
X445264Y270694D01*
X445225Y270636D01*
X445179Y270582D01*
X445175Y270579D01*
X445168Y270571D01*
X445152Y270555D01*
X445129Y270540D01*
X445098Y270517D01*
X445064Y270494D01*
X445017Y270467D01*
X444967Y270444D01*
X444906Y270417D01*
X444836Y270390D01*
X444760Y270367D01*
X444675Y270344D01*
X444582Y270328D01*
X444478Y270313D01*
X444367Y270305D01*
X444243Y270301D01*
X443424D01*
Y269000D01*
X443000D01*
Y272199D01*
X444317D01*
X444386Y272196D01*
D02*
G37*
G36*
X451967Y269000D02*
X451532D01*
X449849Y271510D01*
Y269000D01*
X449445D01*
Y272199D01*
X449876D01*
X451562Y269685D01*
Y272199D01*
X451967D01*
Y269000D01*
D02*
G37*
G36*
X467518Y179040D02*
Y178676D01*
X465000Y177649D01*
Y178027D01*
X465761Y178318D01*
Y179376D01*
X465000Y179648D01*
Y180000D01*
X467518Y179040D01*
D02*
G37*
G36*
X241701Y401249D02*
X241736Y401246D01*
X241778D01*
X241820Y401238D01*
X241916Y401226D01*
X242020Y401203D01*
X242128Y401176D01*
X242236Y401138D01*
X242240D01*
X242248Y401134D01*
X242263Y401126D01*
X242282Y401119D01*
X242305Y401107D01*
X242332Y401092D01*
X242398Y401057D01*
X242467Y401015D01*
X242540Y400961D01*
X242610Y400895D01*
X242675Y400826D01*
X242679Y400822D01*
X242683Y400818D01*
X242690Y400807D01*
X242702Y400791D01*
X242713Y400768D01*
X242729Y400745D01*
X242748Y400718D01*
X242767Y400687D01*
X242806Y400610D01*
X242844Y400522D01*
X242883Y400418D01*
X242917Y400302D01*
X242536Y400195D01*
Y400198D01*
X242532Y400206D01*
X242529Y400218D01*
X242525Y400237D01*
X242509Y400279D01*
X242486Y400337D01*
X242459Y400398D01*
X242428Y400460D01*
X242394Y400522D01*
X242355Y400580D01*
X242352Y400587D01*
X242336Y400603D01*
X242313Y400630D01*
X242278Y400660D01*
X242236Y400699D01*
X242182Y400737D01*
X242121Y400772D01*
X242051Y400807D01*
X242047D01*
X242043Y400810D01*
X242032Y400814D01*
X242017Y400818D01*
X241978Y400834D01*
X241924Y400849D01*
X241859Y400864D01*
X241782Y400880D01*
X241701Y400887D01*
X241612Y400891D01*
X241562D01*
X241539Y400887D01*
X241508D01*
X241443Y400880D01*
X241362Y400868D01*
X241281Y400853D01*
X241193Y400834D01*
X241112Y400803D01*
X241108D01*
X241104Y400799D01*
X241092Y400795D01*
X241077Y400787D01*
X241039Y400768D01*
X240989Y400741D01*
X240935Y400707D01*
X240877Y400668D01*
X240823Y400622D01*
X240769Y400568D01*
X240765Y400560D01*
X240750Y400545D01*
X240727Y400514D01*
X240696Y400476D01*
X240665Y400429D01*
X240631Y400376D01*
X240600Y400314D01*
X240569Y400252D01*
Y400248D01*
X240565Y400241D01*
X240557Y400221D01*
X240550Y400202D01*
X240542Y400171D01*
X240530Y400141D01*
X240519Y400102D01*
X240511Y400060D01*
X240500Y400013D01*
X240488Y399963D01*
X240469Y399856D01*
X240454Y399732D01*
X240450Y399605D01*
Y399602D01*
Y399586D01*
Y399563D01*
X240454Y399536D01*
Y399498D01*
X240457Y399455D01*
X240461Y399409D01*
X240469Y399355D01*
X240484Y399244D01*
X240511Y399124D01*
X240546Y399005D01*
X240596Y398889D01*
Y398885D01*
X240604Y398878D01*
X240611Y398862D01*
X240623Y398843D01*
X240638Y398820D01*
X240657Y398789D01*
X240704Y398728D01*
X240765Y398658D01*
X240839Y398589D01*
X240923Y398520D01*
X241023Y398462D01*
X241027D01*
X241035Y398454D01*
X241050Y398450D01*
X241073Y398439D01*
X241096Y398431D01*
X241127Y398420D01*
X241166Y398404D01*
X241204Y398393D01*
X241293Y398366D01*
X241393Y398346D01*
X241505Y398331D01*
X241620Y398323D01*
X241666D01*
X241693Y398327D01*
X241720D01*
X241755Y398331D01*
X241789Y398335D01*
X241870Y398350D01*
X241959Y398366D01*
X242055Y398393D01*
X242151Y398427D01*
X242155D01*
X242163Y398431D01*
X242178Y398439D01*
X242194Y398447D01*
X242217Y398454D01*
X242240Y398470D01*
X242302Y398497D01*
X242363Y398531D01*
X242432Y398570D01*
X242494Y398612D01*
X242552Y398655D01*
Y399251D01*
X241616D01*
Y399628D01*
X242968D01*
Y398443D01*
X242964Y398439D01*
X242952Y398431D01*
X242937Y398420D01*
X242914Y398404D01*
X242887Y398381D01*
X242852Y398358D01*
X242813Y398331D01*
X242771Y398304D01*
X242725Y398273D01*
X242675Y398242D01*
X242563Y398181D01*
X242448Y398123D01*
X242324Y398069D01*
X242321D01*
X242309Y398065D01*
X242290Y398058D01*
X242267Y398050D01*
X242236Y398042D01*
X242201Y398031D01*
X242159Y398019D01*
X242117Y398008D01*
X242067Y397996D01*
X242013Y397985D01*
X241897Y397965D01*
X241774Y397950D01*
X241643Y397946D01*
X241597D01*
X241562Y397950D01*
X241524Y397954D01*
X241474Y397958D01*
X241420Y397961D01*
X241362Y397973D01*
X241297Y397981D01*
X241227Y397996D01*
X241085Y398031D01*
X241012Y398054D01*
X240935Y398081D01*
X240862Y398112D01*
X240788Y398146D01*
X240785Y398150D01*
X240773Y398154D01*
X240750Y398165D01*
X240727Y398185D01*
X240692Y398204D01*
X240657Y398231D01*
X240615Y398258D01*
X240573Y398293D01*
X240527Y398335D01*
X240476Y398377D01*
X240430Y398424D01*
X240380Y398477D01*
X240334Y398531D01*
X240288Y398593D01*
X240246Y398658D01*
X240207Y398728D01*
X240203Y398731D01*
X240199Y398747D01*
X240188Y398766D01*
X240176Y398797D01*
X240161Y398832D01*
X240145Y398874D01*
X240130Y398924D01*
X240111Y398978D01*
X240092Y399040D01*
X240076Y399105D01*
X240061Y399174D01*
X240045Y399251D01*
X240022Y399409D01*
X240018Y399494D01*
X240015Y399582D01*
Y399586D01*
Y399602D01*
Y399628D01*
X240018Y399663D01*
X240022Y399702D01*
X240026Y399752D01*
X240030Y399806D01*
X240038Y399867D01*
X240049Y399933D01*
X240061Y399998D01*
X240095Y400144D01*
X240119Y400221D01*
X240145Y400299D01*
X240172Y400376D01*
X240207Y400452D01*
X240211Y400456D01*
X240215Y400472D01*
X240226Y400491D01*
X240242Y400518D01*
X240265Y400553D01*
X240288Y400591D01*
X240319Y400633D01*
X240350Y400680D01*
X240388Y400730D01*
X240430Y400780D01*
X240476Y400830D01*
X240527Y400880D01*
X240581Y400930D01*
X240638Y400976D01*
X240704Y401018D01*
X240769Y401057D01*
X240773Y401061D01*
X240785Y401065D01*
X240808Y401076D01*
X240835Y401088D01*
X240869Y401103D01*
X240912Y401119D01*
X240958Y401138D01*
X241012Y401157D01*
X241070Y401172D01*
X241135Y401192D01*
X241204Y401207D01*
X241281Y401222D01*
X241358Y401234D01*
X241439Y401246D01*
X241524Y401249D01*
X241612Y401253D01*
X241670D01*
X241701Y401249D01*
D02*
G37*
G36*
X265240Y444760D02*
X266110D01*
Y444394D01*
X265240D01*
Y443516D01*
X264870D01*
Y444394D01*
X264000D01*
Y444760D01*
X264870D01*
Y445630D01*
X265240D01*
Y444760D01*
D02*
G37*
G36*
X274260Y443000D02*
X273825D01*
X272586Y446199D01*
X273047D01*
X273875Y443874D01*
Y443870D01*
X273879Y443862D01*
X273887Y443847D01*
X273891Y443828D01*
X273902Y443801D01*
X273910Y443774D01*
X273933Y443705D01*
X273960Y443624D01*
X273991Y443535D01*
X274018Y443443D01*
X274045Y443350D01*
Y443354D01*
X274048Y443362D01*
X274052Y443377D01*
X274056Y443397D01*
X274064Y443420D01*
X274072Y443447D01*
X274095Y443516D01*
X274118Y443593D01*
X274149Y443681D01*
X274183Y443778D01*
X274218Y443874D01*
X275084Y446199D01*
X275515D01*
X274260Y443000D01*
D02*
G37*
G36*
X271342Y446207D02*
X271369Y446203D01*
X271430Y446196D01*
X271504Y446184D01*
X271585Y446161D01*
X271669Y446134D01*
X271754Y446095D01*
X271758D01*
X271765Y446092D01*
X271773Y446084D01*
X271789Y446076D01*
X271831Y446049D01*
X271877Y446014D01*
X271931Y445972D01*
X271989Y445918D01*
X272043Y445857D01*
X272089Y445787D01*
Y445784D01*
X272093Y445780D01*
X272100Y445768D01*
X272108Y445753D01*
X272127Y445714D01*
X272150Y445664D01*
X272170Y445603D01*
X272189Y445533D01*
X272204Y445456D01*
X272208Y445375D01*
Y445372D01*
Y445368D01*
Y445356D01*
Y445341D01*
X272204Y445302D01*
X272193Y445252D01*
X272181Y445191D01*
X272162Y445129D01*
X272135Y445064D01*
X272096Y444998D01*
X272093Y444990D01*
X272077Y444971D01*
X272050Y444940D01*
X272012Y444902D01*
X271966Y444860D01*
X271912Y444813D01*
X271843Y444771D01*
X271765Y444729D01*
X271769D01*
X271777Y444725D01*
X271792Y444721D01*
X271812Y444717D01*
X271835Y444706D01*
X271866Y444698D01*
X271927Y444671D01*
X272000Y444632D01*
X272074Y444586D01*
X272143Y444528D01*
X272208Y444455D01*
Y444452D01*
X272216Y444448D01*
X272224Y444436D01*
X272231Y444421D01*
X272247Y444397D01*
X272258Y444374D01*
X272274Y444347D01*
X272289Y444317D01*
X272316Y444240D01*
X272343Y444155D01*
X272358Y444055D01*
X272366Y443943D01*
Y443939D01*
Y443924D01*
Y443901D01*
X272362Y443874D01*
X272358Y443835D01*
X272351Y443797D01*
X272339Y443747D01*
X272328Y443697D01*
X272312Y443643D01*
X272293Y443585D01*
X272266Y443528D01*
X272235Y443466D01*
X272200Y443408D01*
X272158Y443347D01*
X272112Y443289D01*
X272058Y443235D01*
X272054Y443231D01*
X272043Y443223D01*
X272027Y443208D01*
X272004Y443189D01*
X271973Y443169D01*
X271939Y443143D01*
X271896Y443119D01*
X271846Y443092D01*
X271796Y443065D01*
X271735Y443039D01*
X271673Y443012D01*
X271604Y442992D01*
X271531Y442973D01*
X271454Y442958D01*
X271373Y442950D01*
X271288Y442946D01*
X271246D01*
X271219Y442950D01*
X271184Y442954D01*
X271142Y442958D01*
X271096Y442965D01*
X271045Y442977D01*
X270934Y443008D01*
X270876Y443027D01*
X270818Y443050D01*
X270757Y443081D01*
X270699Y443116D01*
X270645Y443154D01*
X270591Y443196D01*
X270587Y443200D01*
X270580Y443208D01*
X270564Y443223D01*
X270549Y443243D01*
X270526Y443266D01*
X270503Y443296D01*
X270476Y443331D01*
X270449Y443373D01*
X270422Y443416D01*
X270391Y443466D01*
X270364Y443520D01*
X270341Y443577D01*
X270318Y443639D01*
X270299Y443705D01*
X270287Y443774D01*
X270275Y443847D01*
X270668Y443901D01*
Y443897D01*
X270672Y443886D01*
X270676Y443870D01*
X270680Y443847D01*
X270687Y443816D01*
X270699Y443785D01*
X270722Y443712D01*
X270753Y443635D01*
X270791Y443554D01*
X270838Y443477D01*
X270865Y443447D01*
X270895Y443416D01*
X270903Y443408D01*
X270926Y443393D01*
X270961Y443370D01*
X271007Y443343D01*
X271065Y443316D01*
X271130Y443293D01*
X271207Y443277D01*
X271292Y443269D01*
X271319D01*
X271338Y443273D01*
X271361Y443277D01*
X271388Y443281D01*
X271454Y443293D01*
X271527Y443316D01*
X271604Y443350D01*
X271646Y443370D01*
X271685Y443397D01*
X271723Y443424D01*
X271758Y443458D01*
X271762Y443462D01*
X271765Y443466D01*
X271777Y443477D01*
X271789Y443493D01*
X271804Y443512D01*
X271819Y443535D01*
X271854Y443589D01*
X271889Y443658D01*
X271919Y443739D01*
X271942Y443832D01*
X271946Y443882D01*
X271950Y443935D01*
Y443939D01*
Y443947D01*
Y443962D01*
X271946Y443982D01*
Y444005D01*
X271942Y444032D01*
X271927Y444093D01*
X271908Y444163D01*
X271877Y444236D01*
X271831Y444309D01*
X271804Y444344D01*
X271773Y444378D01*
X271769Y444382D01*
X271765Y444386D01*
X271754Y444394D01*
X271742Y444405D01*
X271704Y444436D01*
X271650Y444467D01*
X271585Y444498D01*
X271508Y444528D01*
X271419Y444548D01*
X271373Y444555D01*
X271304D01*
X271280Y444552D01*
X271246D01*
X271207Y444544D01*
X271157Y444536D01*
X271103Y444528D01*
X271045Y444513D01*
X271092Y444856D01*
X271099D01*
X271115Y444852D01*
X271134Y444848D01*
X271176D01*
X271196Y444852D01*
X271219D01*
X271242Y444856D01*
X271304Y444863D01*
X271373Y444879D01*
X271450Y444902D01*
X271527Y444937D01*
X271604Y444979D01*
X271608D01*
X271611Y444987D01*
X271635Y445006D01*
X271665Y445037D01*
X271704Y445079D01*
X271742Y445137D01*
X271773Y445206D01*
X271796Y445287D01*
X271800Y445333D01*
X271804Y445383D01*
Y445387D01*
Y445395D01*
Y445406D01*
X271800Y445422D01*
X271796Y445460D01*
X271785Y445510D01*
X271769Y445568D01*
X271742Y445630D01*
X271708Y445687D01*
X271658Y445745D01*
X271650Y445753D01*
X271631Y445768D01*
X271600Y445791D01*
X271557Y445818D01*
X271500Y445841D01*
X271438Y445864D01*
X271361Y445880D01*
X271280Y445888D01*
X271257D01*
X271242Y445884D01*
X271199Y445880D01*
X271149Y445868D01*
X271088Y445853D01*
X271022Y445826D01*
X270961Y445791D01*
X270899Y445741D01*
X270891Y445733D01*
X270876Y445714D01*
X270849Y445680D01*
X270818Y445633D01*
X270788Y445576D01*
X270753Y445503D01*
X270726Y445414D01*
X270707Y445314D01*
X270314Y445383D01*
Y445387D01*
X270318Y445402D01*
X270322Y445422D01*
X270329Y445449D01*
X270337Y445479D01*
X270349Y445518D01*
X270364Y445560D01*
X270379Y445607D01*
X270422Y445703D01*
X270480Y445807D01*
X270514Y445857D01*
X270549Y445903D01*
X270591Y445949D01*
X270637Y445991D01*
X270641Y445995D01*
X270649Y445999D01*
X270664Y446011D01*
X270684Y446026D01*
X270711Y446041D01*
X270738Y446061D01*
X270772Y446080D01*
X270814Y446103D01*
X270857Y446122D01*
X270907Y446142D01*
X270957Y446161D01*
X271015Y446176D01*
X271072Y446192D01*
X271138Y446203D01*
X271203Y446207D01*
X271273Y446211D01*
X271319D01*
X271342Y446207D01*
D02*
G37*
G36*
X267619D02*
X267646Y446203D01*
X267707Y446196D01*
X267781Y446184D01*
X267862Y446161D01*
X267946Y446134D01*
X268031Y446095D01*
X268035D01*
X268042Y446092D01*
X268050Y446084D01*
X268066Y446076D01*
X268108Y446049D01*
X268154Y446014D01*
X268208Y445972D01*
X268266Y445918D01*
X268320Y445857D01*
X268366Y445787D01*
Y445784D01*
X268370Y445780D01*
X268377Y445768D01*
X268385Y445753D01*
X268404Y445714D01*
X268427Y445664D01*
X268447Y445603D01*
X268466Y445533D01*
X268481Y445456D01*
X268485Y445375D01*
Y445372D01*
Y445368D01*
Y445356D01*
Y445341D01*
X268481Y445302D01*
X268470Y445252D01*
X268458Y445191D01*
X268439Y445129D01*
X268412Y445064D01*
X268374Y444998D01*
X268370Y444990D01*
X268354Y444971D01*
X268327Y444940D01*
X268289Y444902D01*
X268243Y444860D01*
X268189Y444813D01*
X268120Y444771D01*
X268042Y444729D01*
X268046D01*
X268054Y444725D01*
X268070Y444721D01*
X268089Y444717D01*
X268112Y444706D01*
X268143Y444698D01*
X268204Y444671D01*
X268277Y444632D01*
X268351Y444586D01*
X268420Y444528D01*
X268485Y444455D01*
Y444452D01*
X268493Y444448D01*
X268501Y444436D01*
X268508Y444421D01*
X268524Y444397D01*
X268535Y444374D01*
X268551Y444347D01*
X268566Y444317D01*
X268593Y444240D01*
X268620Y444155D01*
X268635Y444055D01*
X268643Y443943D01*
Y443939D01*
Y443924D01*
Y443901D01*
X268639Y443874D01*
X268635Y443835D01*
X268628Y443797D01*
X268616Y443747D01*
X268605Y443697D01*
X268589Y443643D01*
X268570Y443585D01*
X268543Y443528D01*
X268512Y443466D01*
X268478Y443408D01*
X268435Y443347D01*
X268389Y443289D01*
X268335Y443235D01*
X268331Y443231D01*
X268320Y443223D01*
X268304Y443208D01*
X268281Y443189D01*
X268250Y443169D01*
X268216Y443143D01*
X268173Y443119D01*
X268123Y443092D01*
X268073Y443065D01*
X268012Y443039D01*
X267950Y443012D01*
X267881Y442992D01*
X267808Y442973D01*
X267731Y442958D01*
X267650Y442950D01*
X267565Y442946D01*
X267523D01*
X267496Y442950D01*
X267461Y442954D01*
X267419Y442958D01*
X267373Y442965D01*
X267323Y442977D01*
X267211Y443008D01*
X267153Y443027D01*
X267095Y443050D01*
X267034Y443081D01*
X266976Y443116D01*
X266922Y443154D01*
X266868Y443196D01*
X266864Y443200D01*
X266857Y443208D01*
X266841Y443223D01*
X266826Y443243D01*
X266803Y443266D01*
X266780Y443296D01*
X266753Y443331D01*
X266726Y443373D01*
X266699Y443416D01*
X266668Y443466D01*
X266641Y443520D01*
X266618Y443577D01*
X266595Y443639D01*
X266576Y443705D01*
X266564Y443774D01*
X266553Y443847D01*
X266945Y443901D01*
Y443897D01*
X266949Y443886D01*
X266953Y443870D01*
X266957Y443847D01*
X266965Y443816D01*
X266976Y443785D01*
X266999Y443712D01*
X267030Y443635D01*
X267068Y443554D01*
X267115Y443477D01*
X267142Y443447D01*
X267172Y443416D01*
X267180Y443408D01*
X267203Y443393D01*
X267238Y443370D01*
X267284Y443343D01*
X267342Y443316D01*
X267407Y443293D01*
X267484Y443277D01*
X267569Y443269D01*
X267596D01*
X267615Y443273D01*
X267638Y443277D01*
X267665Y443281D01*
X267731Y443293D01*
X267804Y443316D01*
X267881Y443350D01*
X267923Y443370D01*
X267962Y443397D01*
X268000Y443424D01*
X268035Y443458D01*
X268039Y443462D01*
X268042Y443466D01*
X268054Y443477D01*
X268066Y443493D01*
X268081Y443512D01*
X268096Y443535D01*
X268131Y443589D01*
X268166Y443658D01*
X268197Y443739D01*
X268220Y443832D01*
X268224Y443882D01*
X268227Y443935D01*
Y443939D01*
Y443947D01*
Y443962D01*
X268224Y443982D01*
Y444005D01*
X268220Y444032D01*
X268204Y444093D01*
X268185Y444163D01*
X268154Y444236D01*
X268108Y444309D01*
X268081Y444344D01*
X268050Y444378D01*
X268046Y444382D01*
X268042Y444386D01*
X268031Y444394D01*
X268019Y444405D01*
X267981Y444436D01*
X267927Y444467D01*
X267862Y444498D01*
X267785Y444528D01*
X267696Y444548D01*
X267650Y444555D01*
X267581D01*
X267557Y444552D01*
X267523D01*
X267484Y444544D01*
X267434Y444536D01*
X267380Y444528D01*
X267323Y444513D01*
X267369Y444856D01*
X267376D01*
X267392Y444852D01*
X267411Y444848D01*
X267454D01*
X267473Y444852D01*
X267496D01*
X267519Y444856D01*
X267581Y444863D01*
X267650Y444879D01*
X267727Y444902D01*
X267804Y444937D01*
X267881Y444979D01*
X267885D01*
X267888Y444987D01*
X267912Y445006D01*
X267942Y445037D01*
X267981Y445079D01*
X268019Y445137D01*
X268050Y445206D01*
X268073Y445287D01*
X268077Y445333D01*
X268081Y445383D01*
Y445387D01*
Y445395D01*
Y445406D01*
X268077Y445422D01*
X268073Y445460D01*
X268062Y445510D01*
X268046Y445568D01*
X268019Y445630D01*
X267985Y445687D01*
X267935Y445745D01*
X267927Y445753D01*
X267908Y445768D01*
X267877Y445791D01*
X267835Y445818D01*
X267777Y445841D01*
X267715Y445864D01*
X267638Y445880D01*
X267557Y445888D01*
X267534D01*
X267519Y445884D01*
X267477Y445880D01*
X267426Y445868D01*
X267365Y445853D01*
X267299Y445826D01*
X267238Y445791D01*
X267176Y445741D01*
X267169Y445733D01*
X267153Y445714D01*
X267126Y445680D01*
X267095Y445633D01*
X267065Y445576D01*
X267030Y445503D01*
X267003Y445414D01*
X266984Y445314D01*
X266591Y445383D01*
Y445387D01*
X266595Y445402D01*
X266599Y445422D01*
X266606Y445449D01*
X266614Y445479D01*
X266626Y445518D01*
X266641Y445560D01*
X266656Y445607D01*
X266699Y445703D01*
X266757Y445807D01*
X266791Y445857D01*
X266826Y445903D01*
X266868Y445949D01*
X266914Y445991D01*
X266918Y445995D01*
X266926Y445999D01*
X266941Y446011D01*
X266961Y446026D01*
X266988Y446041D01*
X267015Y446061D01*
X267049Y446080D01*
X267092Y446103D01*
X267134Y446122D01*
X267184Y446142D01*
X267234Y446161D01*
X267292Y446176D01*
X267350Y446192D01*
X267415Y446203D01*
X267480Y446207D01*
X267550Y446211D01*
X267596D01*
X267619Y446207D01*
D02*
G37*
G36*
X269698Y443000D02*
X269251D01*
Y443447D01*
X269698D01*
Y443000D01*
D02*
G37*
G36*
X277520Y435784D02*
X276238D01*
X276065Y434917D01*
X276068Y434921D01*
X276076Y434925D01*
X276092Y434937D01*
X276115Y434948D01*
X276142Y434964D01*
X276172Y434983D01*
X276207Y435002D01*
X276249Y435021D01*
X276342Y435056D01*
X276442Y435090D01*
X276554Y435114D01*
X276615Y435117D01*
X276673Y435121D01*
X276715D01*
X276742Y435117D01*
X276781Y435114D01*
X276819Y435106D01*
X276869Y435098D01*
X276919Y435087D01*
X276973Y435071D01*
X277031Y435048D01*
X277089Y435025D01*
X277150Y434998D01*
X277208Y434964D01*
X277270Y434925D01*
X277327Y434879D01*
X277381Y434829D01*
X277385Y434825D01*
X277393Y434817D01*
X277408Y434798D01*
X277428Y434775D01*
X277447Y434748D01*
X277474Y434713D01*
X277501Y434675D01*
X277528Y434628D01*
X277555Y434575D01*
X277578Y434521D01*
X277605Y434459D01*
X277624Y434394D01*
X277643Y434321D01*
X277659Y434247D01*
X277666Y434167D01*
X277670Y434082D01*
Y434078D01*
Y434063D01*
Y434039D01*
X277666Y434009D01*
X277662Y433974D01*
X277659Y433928D01*
X277651Y433882D01*
X277639Y433828D01*
X277608Y433708D01*
X277589Y433647D01*
X277562Y433585D01*
X277535Y433520D01*
X277501Y433454D01*
X277462Y433393D01*
X277416Y433331D01*
X277412Y433327D01*
X277401Y433316D01*
X277385Y433296D01*
X277358Y433270D01*
X277327Y433243D01*
X277289Y433208D01*
X277246Y433173D01*
X277197Y433139D01*
X277139Y433104D01*
X277077Y433069D01*
X277008Y433035D01*
X276931Y433008D01*
X276850Y432981D01*
X276765Y432962D01*
X276673Y432950D01*
X276577Y432946D01*
X276534D01*
X276503Y432950D01*
X276465Y432954D01*
X276423Y432958D01*
X276377Y432965D01*
X276323Y432977D01*
X276211Y433004D01*
X276149Y433027D01*
X276088Y433050D01*
X276030Y433077D01*
X275972Y433108D01*
X275914Y433146D01*
X275861Y433189D01*
X275857Y433192D01*
X275849Y433200D01*
X275834Y433216D01*
X275818Y433235D01*
X275795Y433258D01*
X275772Y433289D01*
X275745Y433323D01*
X275718Y433362D01*
X275691Y433408D01*
X275664Y433454D01*
X275637Y433508D01*
X275614Y433566D01*
X275591Y433628D01*
X275572Y433697D01*
X275560Y433766D01*
X275549Y433839D01*
X275961Y433870D01*
Y433866D01*
X275964Y433859D01*
Y433843D01*
X275968Y433820D01*
X275976Y433797D01*
X275984Y433766D01*
X276003Y433701D01*
X276030Y433628D01*
X276065Y433554D01*
X276111Y433481D01*
X276169Y433420D01*
X276172D01*
X276176Y433412D01*
X276199Y433397D01*
X276234Y433373D01*
X276284Y433347D01*
X276342Y433316D01*
X276411Y433293D01*
X276492Y433277D01*
X276577Y433270D01*
X276604D01*
X276623Y433273D01*
X276650Y433277D01*
X276677Y433281D01*
X276742Y433296D01*
X276819Y433320D01*
X276900Y433358D01*
X276942Y433385D01*
X276981Y433412D01*
X277019Y433443D01*
X277058Y433481D01*
X277062Y433485D01*
X277066Y433493D01*
X277077Y433504D01*
X277089Y433520D01*
X277104Y433543D01*
X277119Y433570D01*
X277139Y433597D01*
X277158Y433631D01*
X277173Y433670D01*
X277193Y433716D01*
X277208Y433762D01*
X277223Y433812D01*
X277246Y433924D01*
X277250Y433982D01*
X277254Y434047D01*
Y434051D01*
Y434063D01*
Y434078D01*
X277250Y434105D01*
Y434132D01*
X277243Y434167D01*
X277231Y434240D01*
X277208Y434324D01*
X277173Y434413D01*
X277154Y434459D01*
X277127Y434502D01*
X277100Y434540D01*
X277066Y434579D01*
X277062Y434582D01*
X277058Y434586D01*
X277046Y434598D01*
X277031Y434609D01*
X277012Y434625D01*
X276989Y434640D01*
X276935Y434679D01*
X276862Y434713D01*
X276777Y434744D01*
X276681Y434767D01*
X276627Y434771D01*
X276569Y434775D01*
X276538D01*
X276500Y434771D01*
X276453Y434763D01*
X276399Y434752D01*
X276342Y434736D01*
X276280Y434717D01*
X276222Y434686D01*
X276215Y434682D01*
X276199Y434671D01*
X276172Y434652D01*
X276138Y434625D01*
X276099Y434594D01*
X276061Y434552D01*
X276022Y434509D01*
X275988Y434459D01*
X275618Y434513D01*
X275926Y436157D01*
X277520D01*
Y435784D01*
D02*
G37*
G36*
X238336Y401249D02*
X238371Y401246D01*
X238409D01*
X238455Y401238D01*
X238551Y401226D01*
X238655Y401203D01*
X238763Y401176D01*
X238867Y401138D01*
X238871D01*
X238879Y401134D01*
X238894Y401126D01*
X238913Y401115D01*
X238936Y401103D01*
X238964Y401088D01*
X239021Y401053D01*
X239090Y401003D01*
X239160Y400945D01*
X239225Y400876D01*
X239287Y400799D01*
Y400795D01*
X239295Y400787D01*
X239302Y400776D01*
X239310Y400760D01*
X239321Y400741D01*
X239333Y400714D01*
X239360Y400653D01*
X239391Y400580D01*
X239414Y400495D01*
X239433Y400402D01*
X239445Y400299D01*
X239040Y400268D01*
Y400272D01*
Y400279D01*
X239037Y400295D01*
X239033Y400318D01*
X239025Y400341D01*
X239021Y400372D01*
X238998Y400437D01*
X238971Y400510D01*
X238933Y400587D01*
X238883Y400657D01*
X238817Y400722D01*
X238813D01*
X238809Y400730D01*
X238798Y400737D01*
X238783Y400745D01*
X238763Y400757D01*
X238736Y400772D01*
X238709Y400784D01*
X238679Y400799D01*
X238640Y400814D01*
X238598Y400826D01*
X238551Y400841D01*
X238502Y400853D01*
X238448Y400861D01*
X238390Y400868D01*
X238324Y400876D01*
X238224D01*
X238197Y400872D01*
X238167D01*
X238128Y400868D01*
X238047Y400857D01*
X237955Y400841D01*
X237862Y400814D01*
X237774Y400780D01*
X237735Y400760D01*
X237701Y400734D01*
X237693Y400726D01*
X237674Y400707D01*
X237647Y400680D01*
X237616Y400637D01*
X237581Y400587D01*
X237554Y400529D01*
X237535Y400464D01*
X237531Y400429D01*
X237527Y400395D01*
Y400387D01*
X237531Y400368D01*
X237535Y400333D01*
X237543Y400295D01*
X237558Y400248D01*
X237581Y400202D01*
X237608Y400156D01*
X237651Y400110D01*
X237658Y400106D01*
X237666Y400098D01*
X237678Y400091D01*
X237693Y400079D01*
X237716Y400068D01*
X237743Y400056D01*
X237774Y400040D01*
X237812Y400021D01*
X237859Y400006D01*
X237909Y399987D01*
X237970Y399967D01*
X238036Y399948D01*
X238109Y399925D01*
X238193Y399906D01*
X238286Y399883D01*
X238294D01*
X238309Y399879D01*
X238336Y399871D01*
X238371Y399863D01*
X238413Y399852D01*
X238459Y399840D01*
X238513Y399829D01*
X238567Y399813D01*
X238686Y399782D01*
X238802Y399748D01*
X238856Y399729D01*
X238910Y399713D01*
X238956Y399694D01*
X238994Y399679D01*
X238998D01*
X239006Y399675D01*
X239021Y399667D01*
X239040Y399656D01*
X239064Y399644D01*
X239090Y399628D01*
X239152Y399590D01*
X239218Y399544D01*
X239287Y399490D01*
X239352Y399425D01*
X239406Y399355D01*
Y399351D01*
X239414Y399347D01*
X239418Y399336D01*
X239429Y399321D01*
X239449Y399278D01*
X239476Y399224D01*
X239499Y399159D01*
X239522Y399082D01*
X239537Y398993D01*
X239541Y398901D01*
Y398897D01*
Y398889D01*
Y398878D01*
X239537Y398859D01*
Y398835D01*
X239533Y398809D01*
X239522Y398747D01*
X239506Y398674D01*
X239479Y398589D01*
X239445Y398504D01*
X239395Y398420D01*
Y398416D01*
X239387Y398408D01*
X239379Y398396D01*
X239368Y398381D01*
X239333Y398343D01*
X239287Y398293D01*
X239229Y398235D01*
X239156Y398177D01*
X239071Y398119D01*
X238975Y398069D01*
X238971D01*
X238964Y398065D01*
X238948Y398058D01*
X238929Y398050D01*
X238902Y398042D01*
X238871Y398031D01*
X238837Y398019D01*
X238794Y398008D01*
X238752Y397996D01*
X238705Y397985D01*
X238602Y397965D01*
X238482Y397950D01*
X238359Y397946D01*
X238317D01*
X238286Y397950D01*
X238251D01*
X238205Y397954D01*
X238159Y397958D01*
X238105Y397961D01*
X237989Y397977D01*
X237870Y398000D01*
X237747Y398027D01*
X237631Y398069D01*
X237628D01*
X237620Y398077D01*
X237604Y398085D01*
X237581Y398092D01*
X237558Y398108D01*
X237531Y398123D01*
X237466Y398165D01*
X237393Y398219D01*
X237316Y398285D01*
X237239Y398362D01*
X237173Y398450D01*
Y398454D01*
X237165Y398462D01*
X237158Y398477D01*
X237146Y398497D01*
X237135Y398520D01*
X237119Y398547D01*
X237104Y398581D01*
X237088Y398620D01*
X237058Y398705D01*
X237031Y398801D01*
X237012Y398909D01*
X237000Y399028D01*
X237400Y399063D01*
Y399059D01*
Y399051D01*
X237404Y399040D01*
X237408Y399024D01*
X237416Y398978D01*
X237427Y398924D01*
X237443Y398859D01*
X237466Y398793D01*
X237493Y398728D01*
X237527Y398666D01*
X237531Y398658D01*
X237547Y398639D01*
X237574Y398612D01*
X237608Y398577D01*
X237651Y398539D01*
X237705Y398497D01*
X237770Y398454D01*
X237847Y398416D01*
X237851D01*
X237859Y398412D01*
X237870Y398408D01*
X237885Y398400D01*
X237905Y398393D01*
X237932Y398385D01*
X237989Y398370D01*
X238063Y398354D01*
X238147Y398339D01*
X238240Y398327D01*
X238340Y398323D01*
X238382D01*
X238401Y398327D01*
X238424D01*
X238486Y398331D01*
X238551Y398339D01*
X238621Y398354D01*
X238694Y398370D01*
X238767Y398393D01*
X238771D01*
X238775Y398396D01*
X238798Y398408D01*
X238829Y398424D01*
X238871Y398447D01*
X238913Y398474D01*
X238960Y398508D01*
X239002Y398547D01*
X239040Y398589D01*
X239044Y398597D01*
X239056Y398612D01*
X239071Y398639D01*
X239087Y398670D01*
X239102Y398712D01*
X239118Y398758D01*
X239129Y398812D01*
X239133Y398866D01*
Y398874D01*
Y398893D01*
X239129Y398920D01*
X239121Y398955D01*
X239110Y398997D01*
X239094Y399040D01*
X239075Y399086D01*
X239044Y399128D01*
X239040Y399132D01*
X239029Y399147D01*
X239006Y399167D01*
X238975Y399194D01*
X238936Y399224D01*
X238886Y399255D01*
X238825Y399286D01*
X238756Y399317D01*
X238748Y399321D01*
X238740D01*
X238729Y399324D01*
X238713Y399332D01*
X238694Y399340D01*
X238667Y399347D01*
X238636Y399355D01*
X238602Y399367D01*
X238559Y399378D01*
X238513Y399390D01*
X238463Y399401D01*
X238401Y399417D01*
X238336Y399436D01*
X238267Y399451D01*
X238186Y399471D01*
X238182D01*
X238167Y399475D01*
X238143Y399482D01*
X238117Y399490D01*
X238078Y399498D01*
X238039Y399509D01*
X237993Y399521D01*
X237943Y399536D01*
X237843Y399567D01*
X237739Y399602D01*
X237693Y399617D01*
X237647Y399636D01*
X237604Y399652D01*
X237570Y399671D01*
X237566D01*
X237558Y399675D01*
X237547Y399682D01*
X237531Y399694D01*
X237493Y399717D01*
X237443Y399752D01*
X237389Y399794D01*
X237331Y399848D01*
X237277Y399906D01*
X237231Y399967D01*
Y399971D01*
X237227Y399975D01*
X237216Y399998D01*
X237196Y400037D01*
X237177Y400087D01*
X237154Y400144D01*
X237139Y400214D01*
X237123Y400287D01*
X237119Y400368D01*
Y400372D01*
Y400379D01*
Y400391D01*
X237123Y400410D01*
Y400429D01*
X237127Y400456D01*
X237135Y400514D01*
X237154Y400587D01*
X237177Y400660D01*
X237208Y400741D01*
X237254Y400822D01*
Y400826D01*
X237262Y400830D01*
X237269Y400841D01*
X237281Y400857D01*
X237312Y400895D01*
X237358Y400941D01*
X237412Y400991D01*
X237481Y401045D01*
X237562Y401095D01*
X237654Y401142D01*
X237658D01*
X237666Y401145D01*
X237681Y401153D01*
X237701Y401161D01*
X237728Y401169D01*
X237755Y401176D01*
X237789Y401188D01*
X237828Y401199D01*
X237916Y401219D01*
X238016Y401238D01*
X238124Y401249D01*
X238244Y401253D01*
X238305D01*
X238336Y401249D01*
D02*
G37*
G36*
X274240Y434760D02*
X275110D01*
Y434394D01*
X274240D01*
Y433516D01*
X273870D01*
Y434394D01*
X273000D01*
Y434760D01*
X273870D01*
Y435630D01*
X274240D01*
Y434760D01*
D02*
G37*
G36*
X279537Y433000D02*
X279102D01*
X277863Y436199D01*
X278325D01*
X279152Y433874D01*
Y433870D01*
X279156Y433862D01*
X279164Y433847D01*
X279168Y433828D01*
X279179Y433801D01*
X279187Y433774D01*
X279210Y433705D01*
X279237Y433624D01*
X279268Y433535D01*
X279295Y433443D01*
X279322Y433350D01*
Y433354D01*
X279326Y433362D01*
X279329Y433377D01*
X279333Y433397D01*
X279341Y433420D01*
X279349Y433447D01*
X279372Y433516D01*
X279395Y433593D01*
X279426Y433681D01*
X279460Y433778D01*
X279495Y433874D01*
X280361Y436199D01*
X280792D01*
X279537Y433000D01*
D02*
G37*
%LPC*%
G36*
X466033Y179282D02*
Y178421D01*
X466727Y178688D01*
X466730D01*
X466742Y178694D01*
X466757Y178700D01*
X466782Y178706D01*
X466809Y178718D01*
X466839Y178727D01*
X466876Y178743D01*
X466912Y178755D01*
X466997Y178785D01*
X467085Y178812D01*
X467172Y178842D01*
X467257Y178867D01*
X467254D01*
X467245Y178870D01*
X467233Y178873D01*
X467215Y178876D01*
X467194Y178882D01*
X467166Y178888D01*
X467136Y178894D01*
X467103Y178903D01*
X467030Y178921D01*
X466948Y178946D01*
X466860Y178973D01*
X466770Y179003D01*
X466033Y179282D01*
D02*
G37*
G36*
X247984Y400822D02*
X247245D01*
Y398377D01*
X248003D01*
X248034Y398381D01*
X248107Y398385D01*
X248184Y398393D01*
X248269Y398400D01*
X248346Y398416D01*
X248419Y398435D01*
X248423D01*
X248427Y398439D01*
X248450Y398447D01*
X248481Y398458D01*
X248523Y398477D01*
X248569Y398500D01*
X248619Y398531D01*
X248665Y398562D01*
X248708Y398601D01*
X248715Y398608D01*
X248731Y398628D01*
X248762Y398662D01*
X248793Y398708D01*
X248831Y398766D01*
X248869Y398835D01*
X248908Y398916D01*
X248943Y399005D01*
Y399009D01*
X248946Y399016D01*
X248950Y399032D01*
X248954Y399051D01*
X248962Y399074D01*
X248970Y399105D01*
X248977Y399140D01*
X248985Y399178D01*
X248993Y399220D01*
X249001Y399267D01*
X249016Y399371D01*
X249024Y399490D01*
X249027Y399621D01*
Y399628D01*
Y399644D01*
Y399671D01*
X249024Y399706D01*
Y399748D01*
X249020Y399794D01*
X249012Y399848D01*
X249008Y399906D01*
X248989Y400033D01*
X248958Y400160D01*
X248916Y400283D01*
X248893Y400341D01*
X248862Y400395D01*
Y400398D01*
X248854Y400406D01*
X248847Y400422D01*
X248831Y400437D01*
X248796Y400483D01*
X248750Y400541D01*
X248692Y400599D01*
X248623Y400660D01*
X248546Y400710D01*
X248504Y400734D01*
X248462Y400753D01*
X248454Y400757D01*
X248442Y400760D01*
X248431Y400764D01*
X248411Y400768D01*
X248388Y400776D01*
X248361Y400780D01*
X248330Y400787D01*
X248292Y400795D01*
X248253Y400799D01*
X248207Y400807D01*
X248161Y400810D01*
X248107Y400814D01*
X248046Y400818D01*
X247984Y400822D01*
D02*
G37*
G36*
X444340Y271822D02*
X443424D01*
Y270679D01*
X444286D01*
X444313Y270683D01*
X444347D01*
X444386Y270686D01*
X444428Y270690D01*
X444475Y270698D01*
X444571Y270717D01*
X444667Y270740D01*
X444760Y270779D01*
X444798Y270802D01*
X444833Y270829D01*
X444836D01*
X444840Y270836D01*
X444860Y270856D01*
X444886Y270890D01*
X444921Y270940D01*
X444952Y271002D01*
X444979Y271075D01*
X444998Y271164D01*
X445006Y271210D01*
Y271260D01*
Y271264D01*
Y271268D01*
Y271279D01*
Y271295D01*
X445002Y271329D01*
X444994Y271379D01*
X444979Y271433D01*
X444964Y271491D01*
X444937Y271549D01*
X444902Y271603D01*
X444898Y271610D01*
X444883Y271626D01*
X444863Y271649D01*
X444833Y271680D01*
X444794Y271710D01*
X444748Y271741D01*
X444694Y271768D01*
X444636Y271791D01*
X444632D01*
X444613Y271795D01*
X444586Y271803D01*
X444548Y271807D01*
X444494Y271814D01*
X444424Y271818D01*
X444382D01*
X444340Y271822D01*
D02*
G37*
G36*
X453842D02*
X453102D01*
Y269377D01*
X453861D01*
X453892Y269381D01*
X453965Y269385D01*
X454042Y269393D01*
X454127Y269400D01*
X454204Y269416D01*
X454277Y269435D01*
X454281D01*
X454284Y269439D01*
X454307Y269447D01*
X454338Y269458D01*
X454381Y269477D01*
X454427Y269500D01*
X454477Y269531D01*
X454523Y269562D01*
X454565Y269601D01*
X454573Y269608D01*
X454589Y269628D01*
X454619Y269662D01*
X454650Y269708D01*
X454689Y269766D01*
X454727Y269835D01*
X454766Y269916D01*
X454800Y270005D01*
Y270009D01*
X454804Y270016D01*
X454808Y270032D01*
X454812Y270051D01*
X454819Y270074D01*
X454827Y270105D01*
X454835Y270140D01*
X454843Y270178D01*
X454850Y270220D01*
X454858Y270267D01*
X454873Y270371D01*
X454881Y270490D01*
X454885Y270621D01*
Y270628D01*
Y270644D01*
Y270671D01*
X454881Y270706D01*
Y270748D01*
X454877Y270794D01*
X454870Y270848D01*
X454866Y270906D01*
X454846Y271033D01*
X454816Y271160D01*
X454773Y271283D01*
X454750Y271341D01*
X454719Y271395D01*
Y271398D01*
X454712Y271406D01*
X454704Y271422D01*
X454689Y271437D01*
X454654Y271483D01*
X454608Y271541D01*
X454550Y271599D01*
X454481Y271660D01*
X454404Y271710D01*
X454361Y271733D01*
X454319Y271753D01*
X454311Y271757D01*
X454300Y271760D01*
X454288Y271764D01*
X454269Y271768D01*
X454246Y271776D01*
X454219Y271780D01*
X454188Y271787D01*
X454150Y271795D01*
X454111Y271799D01*
X454065Y271807D01*
X454019Y271811D01*
X453965Y271814D01*
X453903Y271818D01*
X453842Y271822D01*
D02*
G37*
%LPD*%
D35*
X359370Y460000D02*
G03*
X359370Y460000I-39370J0D01*
G01*
X312415Y290000D02*
G03*
X312415Y290000I-21915J0D01*
G01*
X144000Y303000D02*
Y342590D01*
X132000Y303000D02*
X144000D01*
X80000D02*
X120000D01*
X80000D02*
Y342590D01*
X132000Y303000D02*
Y342590D01*
X120000Y303000D02*
X132000D01*
X80000Y342590D02*
X132000D01*
X144000D01*
X395158Y213189D02*
Y232874D01*
Y213189D02*
X434528D01*
Y232874D01*
X395158D02*
X434528D01*
X405000D02*
Y236811D01*
X424685D01*
Y232874D02*
Y236811D01*
X169685Y406378D02*
Y491024D01*
X110630Y406378D02*
X169685D01*
X110630Y491024D02*
X169685D01*
X110630Y406378D02*
Y491024D01*
X169685Y406378D02*
X177559D01*
Y491024D01*
X169685D02*
X177559D01*
X226819Y192000D02*
Y204000D01*
Y140000D02*
Y192000D01*
Y204000D02*
X282000D01*
Y192000D02*
Y204000D01*
Y140000D02*
Y180000D01*
X226819Y140000D02*
X282000D01*
X226819Y192000D02*
X282000D01*
Y180000D02*
Y192000D01*
X287409D02*
Y204000D01*
Y140000D02*
Y192000D01*
X327000Y180000D02*
Y192000D01*
X287409D02*
X327000D01*
X287409Y140000D02*
X327000D01*
Y180000D01*
Y192000D02*
Y204000D01*
X287409D02*
X327000D01*
X107008Y212795D02*
X120000D01*
X107008Y181614D02*
Y212795D01*
Y181614D02*
X133780D01*
Y212795D01*
X120000D02*
X133780D01*
X108189Y399843D02*
X127874D01*
X108189Y370315D02*
Y399843D01*
Y370315D02*
X127874D01*
Y399843D01*
Y390000D02*
X131811D01*
Y380157D02*
Y390000D01*
X127874Y380157D02*
X131811D01*
X330157Y153189D02*
Y172874D01*
Y153189D02*
X369528D01*
Y172874D01*
X330157D02*
X369528D01*
X340000D02*
Y176811D01*
X359685D01*
Y172874D02*
Y176811D01*
X375157Y183189D02*
Y202874D01*
Y183189D02*
X453898D01*
Y202874D01*
X375157D02*
X453898D01*
X385000D02*
Y206811D01*
X444055D01*
Y202874D02*
Y206811D01*
X375157Y153189D02*
Y172874D01*
Y153189D02*
X414528D01*
Y172874D01*
X375157D02*
X414528D01*
X385000D02*
Y176811D01*
X404685D01*
Y172874D02*
Y176811D01*
X330157Y183189D02*
Y202874D01*
Y183189D02*
X369528D01*
Y202874D01*
X330157D02*
X369528D01*
X340000D02*
Y206811D01*
X359685D01*
Y202874D02*
Y206811D01*
X425157Y153189D02*
Y172874D01*
Y153189D02*
X454685D01*
Y172874D01*
X425157D02*
X454685D01*
X435000D02*
Y176811D01*
X444842D01*
Y172874D02*
Y176811D01*
X132000Y277590D02*
X144000D01*
X80000D02*
X132000D01*
X120000Y238000D02*
X132000D01*
Y277590D01*
X80000Y238000D02*
Y277590D01*
Y238000D02*
X120000D01*
X132000D02*
X144000D01*
Y277590D01*
X413356Y387745D02*
Y384465D01*
X414012Y383809D01*
X415324D01*
X415980Y384465D01*
Y387745D01*
X419915D02*
X417292D01*
Y385777D01*
X418604Y386433D01*
X419260D01*
X419915Y385777D01*
Y384465D01*
X419260Y383809D01*
X417948D01*
X417292Y384465D01*
X149999Y306698D02*
X148999Y307698D01*
X147000D01*
X146000Y306698D01*
Y302700D01*
X147000Y301700D01*
X148999D01*
X149999Y302700D01*
X155997Y301700D02*
X151998D01*
X155997Y305699D01*
Y306698D01*
X154997Y307698D01*
X152998D01*
X151998Y306698D01*
X157996Y301700D02*
X159995D01*
X158996D01*
Y307698D01*
X157996Y306698D01*
X182100Y459036D02*
Y455100D01*
X184068D01*
X184724Y455756D01*
Y458380D01*
X184068Y459036D01*
X182100D01*
X186036Y455100D02*
X187348D01*
X186692D01*
Y459036D01*
X186036Y458380D01*
X411524Y255212D02*
X410868Y255868D01*
X409556D01*
X408900Y255212D01*
Y252588D01*
X409556Y251932D01*
X410868D01*
X411524Y252588D01*
X412836Y251932D02*
X414148D01*
X413492D01*
Y255868D01*
X412836Y255212D01*
X112624Y233280D02*
X111968Y233936D01*
X110656D01*
X110000Y233280D01*
Y230656D01*
X110656Y230000D01*
X111968D01*
X112624Y230656D01*
X116560Y230000D02*
X113936D01*
X116560Y232624D01*
Y233280D01*
X115904Y233936D01*
X114592D01*
X113936Y233280D01*
X391724Y494312D02*
X391068Y494968D01*
X389756D01*
X389100Y494312D01*
Y491688D01*
X389756Y491032D01*
X391068D01*
X391724Y491688D01*
X395004Y491032D02*
Y494968D01*
X393036Y493000D01*
X395660D01*
X192624Y423280D02*
X191968Y423936D01*
X190656D01*
X190000Y423280D01*
Y420656D01*
X190656Y420000D01*
X191968D01*
X192624Y420656D01*
X196560Y423936D02*
X193936D01*
Y421968D01*
X195248Y422624D01*
X195904D01*
X196560Y421968D01*
Y420656D01*
X195904Y420000D01*
X194592D01*
X193936Y420656D01*
X192624Y403280D02*
X191968Y403936D01*
X190656D01*
X190000Y403280D01*
Y400656D01*
X190656Y400000D01*
X191968D01*
X192624Y400656D01*
X196560Y403936D02*
X195248Y403280D01*
X193936Y401968D01*
Y400656D01*
X194592Y400000D01*
X195904D01*
X196560Y400656D01*
Y401312D01*
X195904Y401968D01*
X193936D01*
X242624Y453280D02*
X241968Y453936D01*
X240656D01*
X240000Y453280D01*
Y450656D01*
X240656Y450000D01*
X241968D01*
X242624Y450656D01*
X243936Y453936D02*
X246560D01*
Y453280D01*
X243936Y450656D01*
Y450000D01*
X237624Y433280D02*
X236968Y433936D01*
X235656D01*
X235000Y433280D01*
Y430656D01*
X235656Y430000D01*
X236968D01*
X237624Y430656D01*
X238936Y433280D02*
X239592Y433936D01*
X240904D01*
X241560Y433280D01*
Y432624D01*
X240904Y431968D01*
X241560Y431312D01*
Y430656D01*
X240904Y430000D01*
X239592D01*
X238936Y430656D01*
Y431312D01*
X239592Y431968D01*
X238936Y432624D01*
Y433280D01*
X239592Y431968D02*
X240904D01*
X103624Y368280D02*
X102968Y368936D01*
X101656D01*
X101000Y368280D01*
Y365656D01*
X101656Y365000D01*
X102968D01*
X103624Y365656D01*
X104936D02*
X105592Y365000D01*
X106904D01*
X107560Y365656D01*
Y368280D01*
X106904Y368936D01*
X105592D01*
X104936Y368280D01*
Y367624D01*
X105592Y366968D01*
X107560D01*
X102624Y298280D02*
X101968Y298936D01*
X100656D01*
X100000Y298280D01*
Y295656D01*
X100656Y295000D01*
X101968D01*
X102624Y295656D01*
X103936Y295000D02*
X105248D01*
X104592D01*
Y298936D01*
X103936Y298280D01*
X107215D02*
X107871Y298936D01*
X109183D01*
X109839Y298280D01*
Y295656D01*
X109183Y295000D01*
X107871D01*
X107215Y295656D01*
Y298280D01*
X251524Y230212D02*
X250868Y230868D01*
X249556D01*
X248900Y230212D01*
Y227588D01*
X249556Y226932D01*
X250868D01*
X251524Y227588D01*
X252836Y226932D02*
X254148D01*
X253492D01*
Y230868D01*
X252836Y230212D01*
X258739Y226932D02*
X256116D01*
X258739Y229556D01*
Y230212D01*
X258083Y230868D01*
X256771D01*
X256116Y230212D01*
X271524D02*
X270868Y230868D01*
X269556D01*
X268900Y230212D01*
Y227588D01*
X269556Y226932D01*
X270868D01*
X271524Y227588D01*
X272836Y226932D02*
X274148D01*
X273492D01*
Y230868D01*
X272836Y230212D01*
X276115D02*
X276771Y230868D01*
X278083D01*
X278739Y230212D01*
Y229556D01*
X278083Y228900D01*
X277427D01*
X278083D01*
X278739Y228244D01*
Y227588D01*
X278083Y226932D01*
X276771D01*
X276115Y227588D01*
X401524Y335212D02*
X400868Y335868D01*
X399556D01*
X398900Y335212D01*
Y332588D01*
X399556Y331932D01*
X400868D01*
X401524Y332588D01*
X402836Y331932D02*
X404148D01*
X403492D01*
Y335868D01*
X402836Y335212D01*
X408083Y331932D02*
Y335868D01*
X406115Y333900D01*
X408739D01*
X401524Y355212D02*
X400868Y355868D01*
X399556D01*
X398900Y355212D01*
Y352588D01*
X399556Y351932D01*
X400868D01*
X401524Y352588D01*
X402836Y351932D02*
X404148D01*
X403492D01*
Y355868D01*
X402836Y355212D01*
X408739Y355868D02*
X406115D01*
Y353900D01*
X407427Y354556D01*
X408083D01*
X408739Y353900D01*
Y352588D01*
X408083Y351932D01*
X406772D01*
X406115Y352588D01*
X390624Y423280D02*
X389968Y423936D01*
X388656D01*
X388000Y423280D01*
Y420656D01*
X388656Y420000D01*
X389968D01*
X390624Y420656D01*
X391936Y420000D02*
X393248D01*
X392592D01*
Y423936D01*
X391936Y423280D01*
X395216D02*
X395871Y423936D01*
X397183D01*
X397839Y423280D01*
Y422624D01*
X397183Y421968D01*
X397839Y421312D01*
Y420656D01*
X397183Y420000D01*
X395871D01*
X395216Y420656D01*
Y421312D01*
X395871Y421968D01*
X395216Y422624D01*
Y423280D01*
X395871Y421968D02*
X397183D01*
X404724Y423880D02*
X404068Y424536D01*
X402756D01*
X402100Y423880D01*
Y421256D01*
X402756Y420600D01*
X404068D01*
X404724Y421256D01*
X406036Y420600D02*
X407348D01*
X406692D01*
Y424536D01*
X406036Y423880D01*
X409315Y421256D02*
X409972Y420600D01*
X411283D01*
X411939Y421256D01*
Y423880D01*
X411283Y424536D01*
X409972D01*
X409315Y423880D01*
Y423224D01*
X409972Y422568D01*
X411939D01*
X110000Y223936D02*
Y220000D01*
X111968D01*
X112624Y220656D01*
Y223280D01*
X111968Y223936D01*
X110000D01*
X116560Y220000D02*
X113936D01*
X116560Y222624D01*
Y223280D01*
X115904Y223936D01*
X114592D01*
X113936Y223280D01*
X102000Y358936D02*
Y355000D01*
X103968D01*
X104624Y355656D01*
Y358280D01*
X103968Y358936D01*
X102000D01*
X105936Y358280D02*
X106592Y358936D01*
X107904D01*
X108560Y358280D01*
Y357624D01*
X107904Y356968D01*
X107248D01*
X107904D01*
X108560Y356312D01*
Y355656D01*
X107904Y355000D01*
X106592D01*
X105936Y355656D01*
X101000Y291936D02*
Y288000D01*
X102968D01*
X103624Y288656D01*
Y291280D01*
X102968Y291936D01*
X101000D01*
X106904Y288000D02*
Y291936D01*
X104936Y289968D01*
X107560D01*
X269100Y319368D02*
Y315432D01*
X271724D01*
X275660Y318712D02*
X275004Y319368D01*
X273692D01*
X273036Y318712D01*
Y318056D01*
X273692Y317400D01*
X275004D01*
X275660Y316744D01*
Y316088D01*
X275004Y315432D01*
X273692D01*
X273036Y316088D01*
X276972Y315432D02*
X278283D01*
X277627D01*
Y319368D01*
X276972Y318712D01*
X395700Y240300D02*
Y244236D01*
X397668D01*
X398324Y243580D01*
Y242268D01*
X397668Y241612D01*
X395700D01*
X399636Y240300D02*
X400948D01*
X400292D01*
Y244236D01*
X399636Y243580D01*
X375232Y175000D02*
Y178936D01*
X377200D01*
X377856Y178280D01*
Y176968D01*
X377200Y176312D01*
X375232D01*
X381792Y175000D02*
X379168D01*
X381792Y177624D01*
Y178280D01*
X381136Y178936D01*
X379824D01*
X379168Y178280D01*
X111100Y494500D02*
Y498436D01*
X113068D01*
X113724Y497780D01*
Y496468D01*
X113068Y495812D01*
X111100D01*
X115036Y497780D02*
X115692Y498436D01*
X117004D01*
X117660Y497780D01*
Y497124D01*
X117004Y496468D01*
X116348D01*
X117004D01*
X117660Y495812D01*
Y495156D01*
X117004Y494500D01*
X115692D01*
X115036Y495156D01*
X330000Y175000D02*
Y178936D01*
X331968D01*
X332624Y178280D01*
Y176968D01*
X331968Y176312D01*
X330000D01*
X335904Y175000D02*
Y178936D01*
X333936Y176968D01*
X336560D01*
X101000Y280000D02*
Y283936D01*
X102968D01*
X103624Y283280D01*
Y281968D01*
X102968Y281312D01*
X101000D01*
X107560Y283936D02*
X104936D01*
Y281968D01*
X106248Y282624D01*
X106904D01*
X107560Y281968D01*
Y280656D01*
X106904Y280000D01*
X105592D01*
X104936Y280656D01*
X460600Y363400D02*
Y367336D01*
X462568D01*
X463224Y366680D01*
Y365368D01*
X462568Y364712D01*
X460600D01*
X464536Y364056D02*
X465192Y363400D01*
X466504D01*
X467160Y364056D01*
Y366680D01*
X466504Y367336D01*
X465192D01*
X464536Y366680D01*
Y366024D01*
X465192Y365368D01*
X467160D01*
X245600Y238400D02*
Y242336D01*
X247568D01*
X248224Y241680D01*
Y240368D01*
X247568Y239712D01*
X245600D01*
X249536Y238400D02*
X250848D01*
X250192D01*
Y242336D01*
X249536Y241680D01*
X252816Y238400D02*
X254127D01*
X253471D01*
Y242336D01*
X252816Y241680D01*
X330600Y403400D02*
Y407336D01*
X332568D01*
X333224Y406680D01*
Y405368D01*
X332568Y404712D01*
X330600D01*
X334536Y403400D02*
X335848D01*
X335192D01*
Y407336D01*
X334536Y406680D01*
X340439Y403400D02*
X337815D01*
X340439Y406024D01*
Y406680D01*
X339783Y407336D01*
X338472D01*
X337815Y406680D01*
X227300Y207500D02*
Y211436D01*
X229268D01*
X229924Y210780D01*
Y209468D01*
X229268Y208812D01*
X227300D01*
X231236Y207500D02*
X232548D01*
X231892D01*
Y211436D01*
X231236Y210780D01*
X236483Y207500D02*
Y211436D01*
X234516Y209468D01*
X237139D01*
X330000Y205000D02*
Y208936D01*
X331968D01*
X332624Y208280D01*
Y206968D01*
X331968Y206312D01*
X330000D01*
X333936Y205000D02*
X335248D01*
X334592D01*
Y208936D01*
X333936Y208280D01*
X339839Y208936D02*
X337215D01*
Y206968D01*
X338527Y207624D01*
X339183D01*
X339839Y206968D01*
Y205656D01*
X339183Y205000D01*
X337872D01*
X337215Y205656D01*
X287900Y207500D02*
Y211436D01*
X289868D01*
X290524Y210780D01*
Y209468D01*
X289868Y208812D01*
X287900D01*
X291836Y207500D02*
X293148D01*
X292492D01*
Y211436D01*
X291836Y210780D01*
X297739Y211436D02*
X296427Y210780D01*
X295115Y209468D01*
Y208156D01*
X295772Y207500D01*
X297083D01*
X297739Y208156D01*
Y208812D01*
X297083Y209468D01*
X295115D01*
X152624Y255656D02*
Y258280D01*
X151968Y258936D01*
X150656D01*
X150000Y258280D01*
Y255656D01*
X150656Y255000D01*
X151968D01*
X151312Y256312D02*
X152624Y255000D01*
X151968D02*
X152624Y255656D01*
X153936Y255000D02*
X155248D01*
X154592D01*
Y258936D01*
X153936Y258280D01*
X221624Y240656D02*
Y243280D01*
X220968Y243936D01*
X219656D01*
X219000Y243280D01*
Y240656D01*
X219656Y240000D01*
X220968D01*
X220312Y241312D02*
X221624Y240000D01*
X220968D02*
X221624Y240656D01*
X225560Y240000D02*
X222936D01*
X225560Y242624D01*
Y243280D01*
X224904Y243936D01*
X223592D01*
X222936Y243280D01*
X142624Y205656D02*
Y208280D01*
X141968Y208936D01*
X140656D01*
X140000Y208280D01*
Y205656D01*
X140656Y205000D01*
X141968D01*
X141312Y206312D02*
X142624Y205000D01*
X141968D02*
X142624Y205656D01*
X143936Y208280D02*
X144592Y208936D01*
X145904D01*
X146560Y208280D01*
Y207624D01*
X145904Y206968D01*
X145248D01*
X145904D01*
X146560Y206312D01*
Y205656D01*
X145904Y205000D01*
X144592D01*
X143936Y205656D01*
X197624Y180656D02*
Y183280D01*
X196968Y183936D01*
X195656D01*
X195000Y183280D01*
Y180656D01*
X195656Y180000D01*
X196968D01*
X196312Y181312D02*
X197624Y180000D01*
X196968D02*
X197624Y180656D01*
X200904Y180000D02*
Y183936D01*
X198936Y181968D01*
X201560D01*
X250724Y301756D02*
Y304380D01*
X250068Y305036D01*
X248756D01*
X248100Y304380D01*
Y301756D01*
X248756Y301100D01*
X250068D01*
X249412Y302412D02*
X250724Y301100D01*
X250068D02*
X250724Y301756D01*
X254660Y305036D02*
X252036D01*
Y303068D01*
X253348Y303724D01*
X254004D01*
X254660Y303068D01*
Y301756D01*
X254004Y301100D01*
X252692D01*
X252036Y301756D01*
X140924Y395656D02*
Y398280D01*
X140268Y398936D01*
X138956D01*
X138300Y398280D01*
Y395656D01*
X138956Y395000D01*
X140268D01*
X139612Y396312D02*
X140924Y395000D01*
X140268D02*
X140924Y395656D01*
X144860Y398936D02*
X143548Y398280D01*
X142236Y396968D01*
Y395656D01*
X142892Y395000D01*
X144204D01*
X144860Y395656D01*
Y396312D01*
X144204Y396968D01*
X142236D01*
X202624Y370656D02*
Y373280D01*
X201968Y373936D01*
X200656D01*
X200000Y373280D01*
Y370656D01*
X200656Y370000D01*
X201968D01*
X201312Y371312D02*
X202624Y370000D01*
X201968D02*
X202624Y370656D01*
X203936Y373936D02*
X206560D01*
Y373280D01*
X203936Y370656D01*
Y370000D01*
X152624Y345656D02*
Y348280D01*
X151968Y348936D01*
X150656D01*
X150000Y348280D01*
Y345656D01*
X150656Y345000D01*
X151968D01*
X151312Y346312D02*
X152624Y345000D01*
X151968D02*
X152624Y345656D01*
X153936Y348280D02*
X154592Y348936D01*
X155904D01*
X156560Y348280D01*
Y347624D01*
X155904Y346968D01*
X156560Y346312D01*
Y345656D01*
X155904Y345000D01*
X154592D01*
X153936Y345656D01*
Y346312D01*
X154592Y346968D01*
X153936Y347624D01*
Y348280D01*
X154592Y346968D02*
X155904D01*
X212624Y320656D02*
Y323280D01*
X211968Y323936D01*
X210656D01*
X210000Y323280D01*
Y320656D01*
X210656Y320000D01*
X211968D01*
X211312Y321312D02*
X212624Y320000D01*
X211968D02*
X212624Y320656D01*
X213936D02*
X214592Y320000D01*
X215904D01*
X216560Y320656D01*
Y323280D01*
X215904Y323936D01*
X214592D01*
X213936Y323280D01*
Y322624D01*
X214592Y321968D01*
X216560D01*
X258000Y438500D02*
Y442436D01*
X259968D01*
X260624Y441780D01*
Y440468D01*
X259968Y439812D01*
X258000D01*
X259312D02*
X260624Y438500D01*
X261936D02*
X263248D01*
X262592D01*
Y442436D01*
X261936Y441780D01*
X180000Y415000D02*
Y418936D01*
X181968D01*
X182624Y418280D01*
Y416968D01*
X181968Y416312D01*
X180000D01*
X181312D02*
X182624Y415000D01*
X186560D02*
X183936D01*
X186560Y417624D01*
Y418280D01*
X185904Y418936D01*
X184592D01*
X183936Y418280D01*
X210000Y250000D02*
Y253936D01*
X211968D01*
X212624Y253280D01*
Y251968D01*
X211968Y251312D01*
X210000D01*
X211312D02*
X212624Y250000D01*
X215904D02*
Y253936D01*
X213936Y251968D01*
X216560D01*
X365600Y488400D02*
Y492336D01*
X367568D01*
X368224Y491680D01*
Y490368D01*
X367568Y489712D01*
X365600D01*
X366912D02*
X368224Y488400D01*
X372160Y492336D02*
X369536D01*
Y490368D01*
X370848Y491024D01*
X371504D01*
X372160Y490368D01*
Y489056D01*
X371504Y488400D01*
X370192D01*
X369536Y489056D01*
X210000Y210000D02*
Y213936D01*
X211968D01*
X212624Y213280D01*
Y211968D01*
X211968Y211312D01*
X210000D01*
X211312D02*
X212624Y210000D01*
X216560Y213936D02*
X215248Y213280D01*
X213936Y211968D01*
Y210656D01*
X214592Y210000D01*
X215904D01*
X216560Y210656D01*
Y211312D01*
X215904Y211968D01*
X213936D01*
X200000Y192000D02*
Y195936D01*
X201968D01*
X202624Y195280D01*
Y193968D01*
X201968Y193312D01*
X200000D01*
X201312D02*
X202624Y192000D01*
X203936Y195936D02*
X206560D01*
Y195280D01*
X203936Y192656D01*
Y192000D01*
X195000Y160000D02*
Y163936D01*
X196968D01*
X197624Y163280D01*
Y161968D01*
X196968Y161312D01*
X195000D01*
X196312D02*
X197624Y160000D01*
X198936Y163280D02*
X199592Y163936D01*
X200904D01*
X201560Y163280D01*
Y162624D01*
X200904Y161968D01*
X201560Y161312D01*
Y160656D01*
X200904Y160000D01*
X199592D01*
X198936Y160656D01*
Y161312D01*
X199592Y161968D01*
X198936Y162624D01*
Y163280D01*
X199592Y161968D02*
X200904D01*
X248400Y311900D02*
Y315836D01*
X250368D01*
X251024Y315180D01*
Y313868D01*
X250368Y313212D01*
X248400D01*
X249712D02*
X251024Y311900D01*
X252336D02*
X253648D01*
X252992D01*
Y315836D01*
X252336Y315180D01*
X255615D02*
X256272Y315836D01*
X257583D01*
X258239Y315180D01*
Y312556D01*
X257583Y311900D01*
X256272D01*
X255615Y312556D01*
Y315180D01*
X200000Y390000D02*
Y393936D01*
X201968D01*
X202624Y393280D01*
Y391968D01*
X201968Y391312D01*
X200000D01*
X201312D02*
X202624Y390000D01*
X203936D02*
X205248D01*
X204592D01*
Y393936D01*
X203936Y393280D01*
X209839Y390000D02*
X207215D01*
X209839Y392624D01*
Y393280D01*
X209183Y393936D01*
X207872D01*
X207215Y393280D01*
X200000Y350000D02*
Y353936D01*
X201968D01*
X202624Y353280D01*
Y351968D01*
X201968Y351312D01*
X200000D01*
X201312D02*
X202624Y350000D01*
X203936D02*
X205248D01*
X204592D01*
Y353936D01*
X203936Y353280D01*
X207215D02*
X207872Y353936D01*
X209183D01*
X209839Y353280D01*
Y352624D01*
X209183Y351968D01*
X208527D01*
X209183D01*
X209839Y351312D01*
Y350656D01*
X209183Y350000D01*
X207872D01*
X207215Y350656D01*
X405000Y371000D02*
Y374936D01*
X406968D01*
X407624Y374280D01*
Y372968D01*
X406968Y372312D01*
X405000D01*
X406312D02*
X407624Y371000D01*
X408936D02*
X410248D01*
X409592D01*
Y374936D01*
X408936Y374280D01*
X414183Y371000D02*
Y374936D01*
X412216Y372968D01*
X414839D01*
X390000Y395000D02*
Y398936D01*
X391968D01*
X392624Y398280D01*
Y396968D01*
X391968Y396312D01*
X390000D01*
X391312D02*
X392624Y395000D01*
X393936D02*
X395248D01*
X394592D01*
Y398936D01*
X393936Y398280D01*
X399839Y398936D02*
X397216D01*
Y396968D01*
X398527Y397624D01*
X399183D01*
X399839Y396968D01*
Y395656D01*
X399183Y395000D01*
X397871D01*
X397216Y395656D01*
X210000Y340000D02*
Y343936D01*
X211968D01*
X212624Y343280D01*
Y341968D01*
X211968Y341312D01*
X210000D01*
X211312D02*
X212624Y340000D01*
X213936D02*
X215248D01*
X214592D01*
Y343936D01*
X213936Y343280D01*
X219839Y343936D02*
X218527Y343280D01*
X217215Y341968D01*
Y340656D01*
X217871Y340000D01*
X219183D01*
X219839Y340656D01*
Y341312D01*
X219183Y341968D01*
X217215D01*
X210000Y300000D02*
Y303936D01*
X211968D01*
X212624Y303280D01*
Y301968D01*
X211968Y301312D01*
X210000D01*
X211312D02*
X212624Y300000D01*
X213936D02*
X215248D01*
X214592D01*
Y303936D01*
X213936Y303280D01*
X217215Y303936D02*
X219839D01*
Y303280D01*
X217215Y300656D01*
Y300000D01*
X446000Y370000D02*
Y373936D01*
X447968D01*
X448624Y373280D01*
Y371968D01*
X447968Y371312D01*
X446000D01*
X447312D02*
X448624Y370000D01*
X449936D02*
X451248D01*
X450592D01*
Y373936D01*
X449936Y373280D01*
X453216D02*
X453871Y373936D01*
X455183D01*
X455839Y373280D01*
Y372624D01*
X455183Y371968D01*
X455839Y371312D01*
Y370656D01*
X455183Y370000D01*
X453871D01*
X453216Y370656D01*
Y371312D01*
X453871Y371968D01*
X453216Y372624D01*
Y373280D01*
X453871Y371968D02*
X455183D01*
X268400Y412400D02*
Y416336D01*
X270368D01*
X271024Y415680D01*
Y414368D01*
X270368Y413712D01*
X268400D01*
X269712D02*
X271024Y412400D01*
X272336D02*
X273648D01*
X272992D01*
Y416336D01*
X272336Y415680D01*
X275616Y413056D02*
X276272Y412400D01*
X277583D01*
X278239Y413056D01*
Y415680D01*
X277583Y416336D01*
X276272D01*
X275616Y415680D01*
Y415024D01*
X276272Y414368D01*
X278239D01*
X248900Y216900D02*
Y220836D01*
X250868D01*
X251524Y220180D01*
Y218868D01*
X250868Y218212D01*
X248900D01*
X250212D02*
X251524Y216900D01*
X255460D02*
X252836D01*
X255460Y219524D01*
Y220180D01*
X254804Y220836D01*
X253492D01*
X252836Y220180D01*
X256771D02*
X257427Y220836D01*
X258739D01*
X259395Y220180D01*
Y217556D01*
X258739Y216900D01*
X257427D01*
X256771Y217556D01*
Y220180D01*
X268900Y216932D02*
Y220868D01*
X270868D01*
X271524Y220212D01*
Y218900D01*
X270868Y218244D01*
X268900D01*
X270212D02*
X271524Y216932D01*
X275460D02*
X272836D01*
X275460Y219556D01*
Y220212D01*
X274804Y220868D01*
X273492D01*
X272836Y220212D01*
X276771Y216932D02*
X278083D01*
X277427D01*
Y220868D01*
X276771Y220212D01*
X282000Y398832D02*
Y402768D01*
X283968D01*
X284624Y402112D01*
Y400800D01*
X283968Y400144D01*
X282000D01*
X283312D02*
X284624Y398832D01*
X288560D02*
X285936D01*
X288560Y401456D01*
Y402112D01*
X287904Y402768D01*
X286592D01*
X285936Y402112D01*
X292495Y398832D02*
X289872D01*
X292495Y401456D01*
Y402112D01*
X291839Y402768D01*
X290527D01*
X289872Y402112D01*
X355000Y290000D02*
Y293936D01*
X356968D01*
X357624Y293280D01*
Y291968D01*
X356968Y291312D01*
X355000D01*
X356312D02*
X357624Y290000D01*
X361560D02*
X358936D01*
X361560Y292624D01*
Y293280D01*
X360904Y293936D01*
X359592D01*
X358936Y293280D01*
X365495Y293936D02*
X362872D01*
Y291968D01*
X364183Y292624D01*
X364839D01*
X365495Y291968D01*
Y290656D01*
X364839Y290000D01*
X363527D01*
X362872Y290656D01*
X281000Y499936D02*
Y496656D01*
X281656Y496000D01*
X282968D01*
X283624Y496656D01*
Y499936D01*
X284936Y496000D02*
X286248D01*
X285592D01*
Y499936D01*
X284936Y499280D01*
X403000Y494936D02*
Y491656D01*
X403656Y491000D01*
X404968D01*
X405624Y491656D01*
Y494936D01*
X409560Y491000D02*
X406936D01*
X409560Y493624D01*
Y494280D01*
X408904Y494936D01*
X407592D01*
X406936Y494280D01*
X189000Y499636D02*
Y496356D01*
X189656Y495700D01*
X190968D01*
X191624Y496356D01*
Y499636D01*
X192936Y498980D02*
X193592Y499636D01*
X194904D01*
X195560Y498980D01*
Y498324D01*
X194904Y497668D01*
X194248D01*
X194904D01*
X195560Y497012D01*
Y496356D01*
X194904Y495700D01*
X193592D01*
X192936Y496356D01*
X246600Y499236D02*
Y495956D01*
X247256Y495300D01*
X248568D01*
X249224Y495956D01*
Y499236D01*
X252504Y495300D02*
Y499236D01*
X250536Y497268D01*
X253160D01*
X315000Y368936D02*
Y365656D01*
X315656Y365000D01*
X316968D01*
X317624Y365656D01*
Y368936D01*
X321560D02*
X320248Y368280D01*
X318936Y366968D01*
Y365656D01*
X319592Y365000D01*
X320904D01*
X321560Y365656D01*
Y366312D01*
X320904Y366968D01*
X318936D01*
X357600Y285636D02*
Y282356D01*
X358256Y281700D01*
X359568D01*
X360224Y282356D01*
Y285636D01*
X361536D02*
X364160D01*
Y284980D01*
X361536Y282356D01*
Y281700D01*
X260800Y402068D02*
Y398788D01*
X261456Y398132D01*
X262768D01*
X263424Y398788D01*
Y402068D01*
X264736Y401412D02*
X265392Y402068D01*
X266704D01*
X267360Y401412D01*
Y400756D01*
X266704Y400100D01*
X267360Y399444D01*
Y398788D01*
X266704Y398132D01*
X265392D01*
X264736Y398788D01*
Y399444D01*
X265392Y400100D01*
X264736Y400756D01*
Y401412D01*
X265392Y400100D02*
X266704D01*
X361000Y434536D02*
Y431256D01*
X361656Y430600D01*
X362968D01*
X363624Y431256D01*
Y434536D01*
X364936Y431256D02*
X365592Y430600D01*
X366904D01*
X367560Y431256D01*
Y433880D01*
X366904Y434536D01*
X365592D01*
X364936Y433880D01*
Y433224D01*
X365592Y432568D01*
X367560D01*
X308000Y271936D02*
Y268656D01*
X308656Y268000D01*
X309968D01*
X310624Y268656D01*
Y271936D01*
X311936Y268000D02*
X313248D01*
X312592D01*
Y271936D01*
X311936Y271280D01*
X315215D02*
X315872Y271936D01*
X317183D01*
X317839Y271280D01*
Y268656D01*
X317183Y268000D01*
X315872D01*
X315215Y268656D01*
Y271280D01*
X375600Y362336D02*
Y361680D01*
X376912Y360368D01*
X378224Y361680D01*
Y362336D01*
X376912Y360368D02*
Y358400D01*
X379536D02*
X380848D01*
X380192D01*
Y362336D01*
X379536Y361680D01*
X443000Y393436D02*
Y392780D01*
X444312Y391468D01*
X445624Y392780D01*
Y393436D01*
X444312Y391468D02*
Y389500D01*
X449560D02*
X446936D01*
X449560Y392124D01*
Y392780D01*
X448904Y393436D01*
X447592D01*
X446936Y392780D01*
X375000Y205000D02*
Y208936D01*
X376968D01*
X377624Y208280D01*
Y206968D01*
X376968Y206312D01*
X375000D01*
X381560Y208936D02*
X380248Y208280D01*
X378936Y206968D01*
Y205656D01*
X379592Y205000D01*
X380904D01*
X381560Y205656D01*
Y206312D01*
X380904Y206968D01*
X378936D01*
X425000Y177000D02*
Y180936D01*
X426968D01*
X427624Y180280D01*
Y178968D01*
X426968Y178312D01*
X425000D01*
X428936Y177000D02*
X430248D01*
X429592D01*
Y180936D01*
X428936Y180280D01*
X432215D02*
X432871Y180936D01*
X434183D01*
X434839Y180280D01*
Y179624D01*
X434183Y178968D01*
X433527D01*
X434183D01*
X434839Y178312D01*
Y177656D01*
X434183Y177000D01*
X432871D01*
X432215Y177656D01*
X100000Y215000D02*
Y218936D01*
X101968D01*
X102624Y218280D01*
Y216968D01*
X101968Y216312D01*
X100000D01*
X103936Y218936D02*
X106560D01*
Y218280D01*
X103936Y215656D01*
Y215000D01*
X101000Y400000D02*
Y403936D01*
X102968D01*
X103624Y403280D01*
Y401968D01*
X102968Y401312D01*
X101000D01*
X104936Y403280D02*
X105592Y403936D01*
X106904D01*
X107560Y403280D01*
Y402624D01*
X106904Y401968D01*
X107560Y401312D01*
Y400656D01*
X106904Y400000D01*
X105592D01*
X104936Y400656D01*
Y401312D01*
X105592Y401968D01*
X104936Y402624D01*
Y403280D01*
X105592Y401968D02*
X106904D01*
X102000Y344000D02*
Y347936D01*
X103968D01*
X104624Y347280D01*
Y345968D01*
X103968Y345312D01*
X102000D01*
X105936Y344000D02*
X107248D01*
X106592D01*
Y347936D01*
X105936Y347280D01*
X109215D02*
X109871Y347936D01*
X111183D01*
X111839Y347280D01*
Y344656D01*
X111183Y344000D01*
X109871D01*
X109215Y344656D01*
Y347280D01*
X461524Y390180D02*
X460868Y390836D01*
X459556D01*
X458900Y390180D01*
Y387556D01*
X459556Y386900D01*
X460868D01*
X461524Y387556D01*
X465460Y386900D02*
X462836D01*
X465460Y389524D01*
Y390180D01*
X464804Y390836D01*
X463492D01*
X462836Y390180D01*
X466772D02*
X467427Y390836D01*
X468739D01*
X469395Y390180D01*
Y389524D01*
X468739Y388868D01*
X468083D01*
X468739D01*
X469395Y388212D01*
Y387556D01*
X468739Y386900D01*
X467427D01*
X466772Y387556D01*
X458900Y401900D02*
Y405836D01*
X460868D01*
X461524Y405180D01*
Y403868D01*
X460868Y403212D01*
X458900D01*
X460212D02*
X461524Y401900D01*
X462836Y405180D02*
X463492Y405836D01*
X464804D01*
X465460Y405180D01*
Y404524D01*
X464804Y403868D01*
X464148D01*
X464804D01*
X465460Y403212D01*
Y402556D01*
X464804Y401900D01*
X463492D01*
X462836Y402556D01*
X466772Y401900D02*
X468083D01*
X467427D01*
Y405836D01*
X466772Y405180D01*
X481324Y411180D02*
X480668Y411836D01*
X479356D01*
X478700Y411180D01*
Y410524D01*
X479356Y409868D01*
X480668D01*
X481324Y409212D01*
Y408556D01*
X480668Y407900D01*
X479356D01*
X478700Y408556D01*
X482636Y407900D02*
X483948D01*
X483292D01*
Y411836D01*
X482636Y411180D01*
D61*
X304449Y240354D02*
G03*
X304449Y240354I-492J0D01*
G01*
X251063Y297087D02*
G03*
X251063Y297087I-492J0D01*
G01*
X390492Y237882D02*
G03*
X390492Y237882I-492J0D01*
G01*
X223406Y320571D02*
G03*
X223406Y320571I-492J0D01*
G01*
X213405Y365571D02*
G03*
X213405Y365571I-492J0D01*
G01*
X196260Y433228D02*
G03*
X196260Y433228I-492J0D01*
G01*
X247303Y463583D02*
G03*
X247303Y463583I-492J0D01*
G01*
X275807Y373858D02*
G03*
X275807Y373858I-492J0D01*
G01*
X286272Y394847D02*
G03*
X286272Y394847I-492J0D01*
G01*
X387713Y405653D02*
G03*
X387713Y405653I-492J0D01*
G01*
X197264Y355768D02*
G03*
X197264Y355768I-492J0D01*
G01*
X207264Y305768D02*
G03*
X207264Y305768I-492J0D01*
G01*
X223406Y230571D02*
G03*
X223406Y230571I-492J0D01*
G01*
X197264Y165768D02*
G03*
X197264Y165768I-492J0D01*
G01*
X212264Y215768D02*
G03*
X212264Y215768I-492J0D01*
G01*
X208405Y175571D02*
G03*
X208405Y175571I-492J0D01*
G01*
X367244Y327579D02*
G03*
X367244Y327579I-492J0D01*
G01*
D62*
X382677Y241661D02*
G03*
X382677Y241661I-1181J0D01*
G01*
X294933Y390102D02*
G03*
X294933Y390102I-1181J0D01*
G01*
X380429Y410398D02*
G03*
X380429Y410398I-1181J0D01*
G01*
X359370Y331811D02*
G03*
X359370Y331811I-1181J0D01*
G01*
D63*
X377500Y237724D02*
G03*
X372500Y237724I-2500J0D01*
G01*
X275905Y392795D02*
G03*
X275905Y377205I-5906J-7795D01*
G01*
X324843Y246850D02*
Y253150D01*
X305157Y246850D02*
Y253150D01*
X324843D01*
X305157Y246850D02*
X324843D01*
X254500Y302638D02*
Y307362D01*
X254213Y295905D02*
X257756D01*
Y292756D02*
Y295905D01*
X254213Y284095D02*
X257756D01*
Y287244D01*
X364567Y278276D02*
X385433D01*
X364567Y237724D02*
X372500D01*
X377500D02*
X385433D01*
X364567D02*
Y278276D01*
X385433Y237724D02*
Y278276D01*
X194685Y262844D02*
Y269193D01*
X187155Y255315D02*
X194685Y262844D01*
X187155Y294685D02*
X194685Y287156D01*
Y280807D02*
Y287156D01*
X155315Y255315D02*
X187155D01*
X155315D02*
Y269193D01*
Y280807D02*
Y294685D01*
X187155D01*
X182638Y445000D02*
X187362D01*
X224095Y324213D02*
Y327756D01*
X227244D01*
X235906Y324213D02*
Y327756D01*
X232756D02*
X235906D01*
X214094Y369213D02*
Y372756D01*
X217244D01*
X225905Y369213D02*
Y372756D01*
X222756D02*
X225905D01*
X219843Y408947D02*
Y409587D01*
X218022Y407126D02*
X219843Y408947D01*
X218022Y422874D02*
X219843Y421053D01*
Y420413D02*
Y421053D01*
X200157Y407126D02*
X218022D01*
X200157D02*
Y409587D01*
Y420413D02*
Y422874D01*
X218022D01*
X415000Y242638D02*
Y247362D01*
X385000Y445000D02*
Y485000D01*
X375000Y445000D02*
X385000D01*
X375000Y440000D02*
Y445000D01*
X365000Y440000D02*
X375000D01*
X365000D02*
Y485000D01*
X385000D01*
X393947Y460157D02*
X394587D01*
X392126Y461978D02*
X393947Y460157D01*
X406053D02*
X407874Y461978D01*
X405413Y460157D02*
X406053D01*
X392126Y461978D02*
Y479843D01*
X394587D01*
X405413D02*
X407874D01*
Y461978D02*
Y479843D01*
X189331Y449370D02*
Y454882D01*
Y449370D02*
X230669D01*
Y454882D01*
X273189Y469488D02*
Y480512D01*
X246811Y469488D02*
Y480512D01*
X273189D01*
X246811Y469488D02*
X273189D01*
X330000Y390000D02*
Y400000D01*
X370000D01*
X330000Y390000D02*
X370000D01*
Y400000D01*
X285000Y225000D02*
Y235000D01*
X245000Y225000D02*
X285000D01*
X245000Y235000D02*
X285000D01*
X245000Y225000D02*
Y235000D01*
X274500Y403138D02*
Y407862D01*
X275905Y377205D02*
Y392795D01*
X275000Y207638D02*
Y212362D01*
Y217638D02*
Y222362D01*
X255000Y207638D02*
Y212362D01*
Y217638D02*
Y222362D01*
X289815Y373961D02*
Y394039D01*
X304185Y373961D02*
Y394039D01*
X289815D02*
X304185D01*
X289815Y373961D02*
X304185D01*
X405000Y322638D02*
Y327362D01*
X395000Y315000D02*
Y355000D01*
X375000Y315000D02*
X395000D01*
X375000D02*
Y355000D01*
X395000D01*
X405000Y342638D02*
Y347362D01*
X383185Y406461D02*
Y426539D01*
X368815Y406461D02*
Y426539D01*
Y406461D02*
X383185D01*
X368815Y426539D02*
X383185D01*
X175118Y349331D02*
X180630D01*
Y390669D01*
X175118D02*
X180630D01*
X118032Y285000D02*
X121968Y288937D01*
Y281063D02*
Y288937D01*
X118032Y285000D02*
X121968Y281063D01*
X118032Y285000D02*
Y285000D01*
X118032D02*
X122756D01*
X118032Y285000D02*
X118032Y285000D01*
X123150Y281063D02*
Y288937D01*
X116850D02*
X123150D01*
X116850Y281063D02*
Y288937D01*
Y281063D02*
X123150D01*
X117244Y285000D02*
X118032D01*
X120000Y292638D02*
Y297362D01*
X230000Y307638D02*
Y312362D01*
Y337638D02*
Y342362D01*
X220000Y382638D02*
Y387362D01*
Y352638D02*
Y357362D01*
X120000Y362638D02*
Y367362D01*
X118032Y355000D02*
X121968Y358937D01*
Y351063D02*
Y358937D01*
X118032Y355000D02*
X121968Y351063D01*
X118032Y355000D02*
Y355000D01*
X118032D02*
X122756D01*
X118032Y355000D02*
X118032Y355000D01*
X123150Y351063D02*
Y358937D01*
X116850D02*
X123150D01*
X116850Y351063D02*
Y358937D01*
Y351063D02*
X123150D01*
X117244Y355000D02*
X118032D01*
X210000Y397638D02*
Y402362D01*
X185118Y299331D02*
X190630D01*
Y340669D01*
X185118D02*
X190630D01*
X230000Y247638D02*
Y252362D01*
X224095Y234213D02*
Y237756D01*
X227244D01*
X235906Y234213D02*
Y237756D01*
X232756D02*
X235906D01*
X230000Y217638D02*
Y222362D01*
X128032Y220000D02*
X131968Y223937D01*
Y216063D02*
Y223937D01*
X128032Y220000D02*
X131968Y216063D01*
X128032Y220000D02*
Y220000D01*
X128032D02*
X132756D01*
X128032Y220000D02*
X128032Y220000D01*
X133150Y216063D02*
Y223937D01*
X126850D02*
X133150D01*
X126850Y216063D02*
Y223937D01*
Y216063D02*
X133150D01*
X127244Y220000D02*
X128032D01*
X130000Y227638D02*
Y232362D01*
X175118Y159331D02*
X180630D01*
Y200669D01*
X175118D02*
X180630D01*
X190118Y209331D02*
X195630D01*
Y250669D01*
X190118D02*
X195630D01*
X215000Y192638D02*
Y197362D01*
X209095Y179213D02*
Y182756D01*
X212244D01*
X220905Y179213D02*
Y182756D01*
X217756D02*
X220905D01*
X215000Y162638D02*
Y167362D01*
X248000Y438638D02*
Y443362D01*
X255000Y447638D02*
Y452362D01*
X182638Y430000D02*
X187362D01*
X264843Y418947D02*
Y419587D01*
X263022Y417126D02*
X264843Y418947D01*
X263022Y432874D02*
X264843Y431053D01*
Y430413D02*
Y431053D01*
X245158Y417126D02*
X263022D01*
X245158D02*
Y419587D01*
Y430413D02*
Y432874D01*
X263022D01*
X402638Y410500D02*
X407362D01*
X327874Y362126D02*
X362126D01*
X327874Y327874D02*
X362126D01*
X327874D02*
Y362126D01*
X362126Y327874D02*
Y362126D01*
X397638Y385000D02*
X402362D01*
X360000Y297638D02*
Y302362D01*
X465000Y392638D02*
Y397362D01*
X478110Y375984D02*
X491890D01*
X478110Y399606D02*
X491890D01*
X478110Y375984D02*
Y399606D01*
X491890Y375984D02*
Y399606D01*
X465000Y377638D02*
Y382362D01*
X407638Y385000D02*
X412362D01*
X449138Y384000D02*
X453862D01*
X394638Y410500D02*
X399362D01*
D64*
X490866Y413976D02*
Y497441D01*
X412126Y413976D02*
Y497441D01*
Y413976D02*
X490866D01*
X412126Y497441D02*
X490866D01*
X423032Y379095D02*
Y390905D01*
X434842Y379095D02*
Y390905D01*
X423032Y379095D02*
X423937D01*
X423032Y390905D02*
X423937D01*
X433937Y379095D02*
X434842D01*
X433937Y390905D02*
X434842D01*
X428780Y395689D02*
X444528Y411437D01*
X432717Y395689D02*
X448465Y411437D01*
X440590Y395689D02*
X450433Y405532D01*
X436654Y395689D02*
X450433Y409469D01*
X420905Y395689D02*
X436654Y411437D01*
X424843Y395689D02*
X440590Y411437D01*
X416968Y395689D02*
X432717Y411437D01*
X413031Y395689D02*
X428780Y411437D01*
X411063Y397657D02*
X415000Y401594D01*
X415000D01*
X424843Y411437D01*
Y411437D01*
X411063D02*
X450433D01*
Y395689D02*
Y411437D01*
X411063Y395689D02*
X450433D01*
X411063D02*
Y397657D01*
Y411437D01*
X490000Y350000D02*
Y360000D01*
X460000D02*
X490000D01*
X460000Y130000D02*
Y360000D01*
Y130000D02*
X480000D01*
Y230000D01*
X490000Y240000D01*
Y350000D01*
M02*
