%FSLAX25Y25*%
%MOIN*%
G70*
G01*
G75*
G04 Layer_Color=32896*
%ADD10R,0.07874X0.03937*%
%ADD11C,0.03937*%
%ADD12O,0.02756X0.09843*%
%ADD13R,0.03248X0.01181*%
%ADD14R,0.01181X0.03248*%
%ADD15R,0.04724X0.05512*%
%ADD16R,0.04528X0.02362*%
%ADD17R,0.20276X0.09252*%
%ADD18R,0.05512X0.04724*%
%ADD19R,0.02362X0.04528*%
%ADD20R,0.11221X0.08465*%
%ADD21R,0.08465X0.11221*%
%ADD22R,0.04134X0.09449*%
%ADD23R,0.41929X0.35039*%
%ADD24R,0.12992X0.09449*%
%ADD25R,0.03937X0.09449*%
%ADD26O,0.08858X0.02362*%
%ADD27R,0.09449X0.04134*%
%ADD28R,0.35039X0.41929*%
%ADD29R,0.06693X0.06693*%
%ADD30O,0.00984X0.06102*%
%ADD31O,0.06102X0.00984*%
%ADD32C,0.01500*%
%ADD33C,0.03000*%
%ADD34C,0.03937*%
%ADD35C,0.01000*%
%ADD36C,0.02000*%
%ADD37C,0.07874*%
%ADD38C,0.11811*%
%ADD39C,0.11811*%
%ADD40C,0.04724*%
%ADD41C,0.05906*%
%ADD42R,0.05906X0.05906*%
%ADD43C,0.11000*%
%ADD44C,0.06299*%
%ADD45C,0.15748*%
%ADD46R,0.04724X0.04724*%
%ADD47R,0.07874X0.07874*%
%ADD48C,0.07874*%
%ADD49O,0.07874X0.03937*%
%ADD50O,0.07874X0.03937*%
%ADD51C,0.06693*%
%ADD52C,0.09000*%
%ADD53C,0.02000*%
%ADD54C,0.03800*%
%ADD55C,0.02500*%
%ADD56C,0.05000*%
%ADD57C,0.02800*%
%ADD58C,0.04000*%
%ADD59R,0.11811X0.11811*%
%ADD60C,0.19685*%
%ADD61C,0.00984*%
%ADD62C,0.02362*%
%ADD63C,0.00787*%
%ADD64C,0.00800*%
%ADD65R,0.08674X0.04737*%
%ADD66C,0.04737*%
%ADD67O,0.03556X0.10642*%
%ADD68R,0.04048X0.01981*%
%ADD69R,0.01981X0.04048*%
%ADD70R,0.05524X0.06312*%
%ADD71R,0.05328X0.03162*%
%ADD72R,0.21076X0.10052*%
%ADD73R,0.06312X0.05524*%
%ADD74R,0.03162X0.05328*%
%ADD75R,0.12020X0.09265*%
%ADD76R,0.09265X0.12020*%
%ADD77R,0.04934X0.10249*%
%ADD78R,0.42729X0.35839*%
%ADD79R,0.13792X0.10249*%
%ADD80R,0.04737X0.10249*%
%ADD81O,0.09658X0.03162*%
%ADD82R,0.10249X0.04934*%
%ADD83R,0.35839X0.42729*%
%ADD84R,0.07493X0.07493*%
%ADD85O,0.01784X0.06902*%
%ADD86O,0.06902X0.01784*%
%ADD87C,0.12611*%
%ADD88C,0.05524*%
%ADD89C,0.06706*%
%ADD90R,0.06706X0.06706*%
%ADD91C,0.11800*%
%ADD92C,0.07099*%
%ADD93C,0.16548*%
%ADD94R,0.05524X0.05524*%
%ADD95R,0.08674X0.08674*%
%ADD96C,0.08674*%
%ADD97O,0.08674X0.04737*%
%ADD98O,0.08674X0.04737*%
%ADD99C,0.07493*%
%ADD100C,0.09800*%
%ADD101C,0.04600*%
%ADD102C,0.03300*%
%ADD103C,0.05800*%
%ADD104C,0.03600*%
%ADD105C,0.04800*%
%ADD106R,0.12611X0.12611*%
D35*
X449000Y338436D02*
Y334500D01*
X447032D01*
X446376Y335156D01*
Y335812D01*
X447032Y336468D01*
X449000D01*
X447032D01*
X446376Y337124D01*
Y337780D01*
X447032Y338436D01*
X449000D01*
X445064D02*
X442440D01*
X443752D01*
Y334500D01*
X441128D02*
X439817D01*
X440473D01*
Y338436D01*
X441128Y337780D01*
X458476Y435180D02*
X459132Y435836D01*
X460444D01*
X461100Y435180D01*
Y432556D01*
X460444Y431900D01*
X459132D01*
X458476Y432556D01*
X457164Y435180D02*
X456508Y435836D01*
X455196D01*
X454540Y435180D01*
Y434524D01*
X455196Y433868D01*
X455852D01*
X455196D01*
X454540Y433212D01*
Y432556D01*
X455196Y431900D01*
X456508D01*
X457164Y432556D01*
X379476Y252680D02*
X380132Y253336D01*
X381444D01*
X382100Y252680D01*
Y250056D01*
X381444Y249400D01*
X380132D01*
X379476Y250056D01*
X378164Y249400D02*
X376852D01*
X377508D01*
Y253336D01*
X378164Y252680D01*
X374885Y249400D02*
X373573D01*
X374229D01*
Y253336D01*
X374885Y252680D01*
X374376Y186280D02*
X375032Y186936D01*
X376344D01*
X377000Y186280D01*
Y183656D01*
X376344Y183000D01*
X375032D01*
X374376Y183656D01*
X373064Y183000D02*
X371752D01*
X372408D01*
Y186936D01*
X373064Y186280D01*
X367161Y186936D02*
X368473Y186280D01*
X369784Y184968D01*
Y183656D01*
X369128Y183000D01*
X367817D01*
X367161Y183656D01*
Y184312D01*
X367817Y184968D01*
X369784D01*
X328376Y187280D02*
X329032Y187936D01*
X330344D01*
X331000Y187280D01*
Y184656D01*
X330344Y184000D01*
X329032D01*
X328376Y184656D01*
X327064Y184000D02*
X325752D01*
X326408D01*
Y187936D01*
X327064Y187280D01*
X323784Y187936D02*
X321161D01*
Y187280D01*
X323784Y184656D01*
Y184000D01*
X333476Y385180D02*
X334132Y385836D01*
X335444D01*
X336100Y385180D01*
Y382556D01*
X335444Y381900D01*
X334132D01*
X333476Y382556D01*
X329540Y381900D02*
X332164D01*
X329540Y384524D01*
Y385180D01*
X330196Y385836D01*
X331508D01*
X332164Y385180D01*
X328228D02*
X327573Y385836D01*
X326261D01*
X325605Y385180D01*
Y382556D01*
X326261Y381900D01*
X327573D01*
X328228Y382556D01*
Y385180D01*
X376476Y382180D02*
X377132Y382836D01*
X378444D01*
X379100Y382180D01*
Y379556D01*
X378444Y378900D01*
X377132D01*
X376476Y379556D01*
X372540Y378900D02*
X375164D01*
X372540Y381524D01*
Y382180D01*
X373196Y382836D01*
X374508D01*
X375164Y382180D01*
X368605Y378900D02*
X371229D01*
X368605Y381524D01*
Y382180D01*
X369261Y382836D01*
X370573D01*
X371229Y382180D01*
X363476Y320180D02*
X364132Y320836D01*
X365444D01*
X366100Y320180D01*
Y317556D01*
X365444Y316900D01*
X364132D01*
X363476Y317556D01*
X359540Y316900D02*
X362164D01*
X359540Y319524D01*
Y320180D01*
X360196Y320836D01*
X361508D01*
X362164Y320180D01*
X356261Y316900D02*
Y320836D01*
X358228Y318868D01*
X355605D01*
X313476Y339180D02*
X314132Y339836D01*
X315444D01*
X316100Y339180D01*
Y336556D01*
X315444Y335900D01*
X314132D01*
X313476Y336556D01*
X309540Y335900D02*
X312164D01*
X309540Y338524D01*
Y339180D01*
X310196Y339836D01*
X311508D01*
X312164Y339180D01*
X305605Y339836D02*
X306917Y339180D01*
X308228Y337868D01*
Y336556D01*
X307573Y335900D01*
X306261D01*
X305605Y336556D01*
Y337212D01*
X306261Y337868D01*
X308228D01*
X322900Y470100D02*
Y474036D01*
X320932D01*
X320276Y473380D01*
Y472068D01*
X320932Y471412D01*
X322900D01*
X321588D02*
X320276Y470100D01*
X318964Y473380D02*
X318308Y474036D01*
X316996D01*
X316340Y473380D01*
Y472724D01*
X316996Y472068D01*
X317652D01*
X316996D01*
X316340Y471412D01*
Y470756D01*
X316996Y470100D01*
X318308D01*
X318964Y470756D01*
X440500Y476900D02*
Y480836D01*
X438532D01*
X437876Y480180D01*
Y478868D01*
X438532Y478212D01*
X440500D01*
X439188D02*
X437876Y476900D01*
X436564Y477556D02*
X435908Y476900D01*
X434596D01*
X433940Y477556D01*
Y480180D01*
X434596Y480836D01*
X435908D01*
X436564Y480180D01*
Y479524D01*
X435908Y478868D01*
X433940D01*
X476100Y431900D02*
Y435836D01*
X474132D01*
X473476Y435180D01*
Y433868D01*
X474132Y433212D01*
X476100D01*
X474788D02*
X473476Y431900D01*
X472164D02*
X470852D01*
X471508D01*
Y435836D01*
X472164Y435180D01*
X468885Y431900D02*
X467573D01*
X468228D01*
Y435836D01*
X468885Y435180D01*
X378000Y174000D02*
Y177936D01*
X376032D01*
X375376Y177280D01*
Y175968D01*
X376032Y175312D01*
X378000D01*
X376688D02*
X375376Y174000D01*
X371440D02*
X374064D01*
X371440Y176624D01*
Y177280D01*
X372096Y177936D01*
X373408D01*
X374064Y177280D01*
X370128D02*
X369473Y177936D01*
X368161D01*
X367505Y177280D01*
Y176624D01*
X368161Y175968D01*
X368817D01*
X368161D01*
X367505Y175312D01*
Y174656D01*
X368161Y174000D01*
X369473D01*
X370128Y174656D01*
X331000Y173783D02*
Y177719D01*
X329032D01*
X328376Y177063D01*
Y175751D01*
X329032Y175095D01*
X331000D01*
X329688D02*
X328376Y173783D01*
X324440D02*
X327064D01*
X324440Y176407D01*
Y177063D01*
X325096Y177719D01*
X326408D01*
X327064Y177063D01*
X321161Y173783D02*
Y177719D01*
X323129Y175751D01*
X320505D01*
X306100Y221900D02*
Y225836D01*
X304132D01*
X303476Y225180D01*
Y223868D01*
X304132Y223212D01*
X306100D01*
X304788D02*
X303476Y221900D01*
X299540D02*
X302164D01*
X299540Y224524D01*
Y225180D01*
X300196Y225836D01*
X301508D01*
X302164Y225180D01*
X295605Y225836D02*
X296917Y225180D01*
X298229Y223868D01*
Y222556D01*
X297573Y221900D01*
X296261D01*
X295605Y222556D01*
Y223212D01*
X296261Y223868D01*
X298229D01*
X318600Y258900D02*
Y262836D01*
X316632D01*
X315976Y262180D01*
Y260868D01*
X316632Y260212D01*
X318600D01*
X317288D02*
X315976Y258900D01*
X312040D02*
X314664D01*
X312040Y261524D01*
Y262180D01*
X312696Y262836D01*
X314008D01*
X314664Y262180D01*
X310729Y262836D02*
X308105D01*
Y262180D01*
X310729Y259556D01*
Y258900D01*
X301600D02*
Y262836D01*
X299632D01*
X298976Y262180D01*
Y260868D01*
X299632Y260212D01*
X301600D01*
X300288D02*
X298976Y258900D01*
X295040D02*
X297664D01*
X295040Y261524D01*
Y262180D01*
X295696Y262836D01*
X297008D01*
X297664Y262180D01*
X293728D02*
X293073Y262836D01*
X291761D01*
X291105Y262180D01*
Y261524D01*
X291761Y260868D01*
X291105Y260212D01*
Y259556D01*
X291761Y258900D01*
X293073D01*
X293728Y259556D01*
Y260212D01*
X293073Y260868D01*
X293728Y261524D01*
Y262180D01*
X293073Y260868D02*
X291761D01*
X302600Y239900D02*
Y243836D01*
X300632D01*
X299976Y243180D01*
Y241868D01*
X300632Y241212D01*
X302600D01*
X301288D02*
X299976Y239900D01*
X296040D02*
X298664D01*
X296040Y242524D01*
Y243180D01*
X296696Y243836D01*
X298008D01*
X298664Y243180D01*
X294728Y240556D02*
X294073Y239900D01*
X292761D01*
X292105Y240556D01*
Y243180D01*
X292761Y243836D01*
X294073D01*
X294728Y243180D01*
Y242524D01*
X294073Y241868D01*
X292105D01*
X315100Y231400D02*
Y235336D01*
X313132D01*
X312476Y234680D01*
Y233368D01*
X313132Y232712D01*
X315100D01*
X313788D02*
X312476Y231400D01*
X311164Y234680D02*
X310508Y235336D01*
X309196D01*
X308540Y234680D01*
Y234024D01*
X309196Y233368D01*
X309852D01*
X309196D01*
X308540Y232712D01*
Y232056D01*
X309196Y231400D01*
X310508D01*
X311164Y232056D01*
X307228Y234680D02*
X306573Y235336D01*
X305261D01*
X304605Y234680D01*
Y232056D01*
X305261Y231400D01*
X306573D01*
X307228Y232056D01*
Y234680D01*
D63*
X376000Y240138D02*
Y244862D01*
X404000Y294500D02*
X464000D01*
X454000Y304500D02*
X464000Y294500D01*
X454000Y304500D02*
Y344500D01*
X414000D02*
X454000D01*
X414000Y304500D02*
Y344500D01*
X404000Y294500D02*
X414000Y304500D01*
X310000Y326638D02*
Y331362D01*
X360000Y307638D02*
Y312362D01*
X373000Y369638D02*
Y374362D01*
X330000Y372638D02*
Y377362D01*
X317638Y460000D02*
X322362D01*
X470000Y422638D02*
Y427362D01*
X440000Y467638D02*
Y472362D01*
X455000Y422638D02*
Y427362D01*
X309000Y222138D02*
Y226862D01*
X296500Y230638D02*
Y235362D01*
X295500Y249638D02*
Y254362D01*
X312500Y249638D02*
Y254362D01*
X300000Y212638D02*
Y217362D01*
X360000Y182638D02*
Y187362D01*
X340000Y182638D02*
Y187362D01*
Y172638D02*
Y177362D01*
X360000Y172638D02*
Y177362D01*
M02*
