M48
;Layer_Color=9474304
;FILE_FORMAT=2:5
INCH,TZ
;TYPE=PLATED
T1F00S00C0.01000
T2F00S00C0.01500
T3F00S00C0.01968
T4F00S00C0.02000
T5F00S00C0.02756
T6F00S00C0.03000
T7F00S00C0.03150
T8F00S00C0.03543
T9F00S00C0.03937
T10F00S00C0.04724
T11F00S00C0.05906
T12F00S00C0.07000
T13F00S00C0.07874
%
T01
X316000Y171000
X334000Y180000
X347500Y175000
X352500Y175000
X335500Y205000
X342000Y212500
X344000Y215000
X346000Y217000
X348500Y219500
X351000Y221500
X338000Y229000
X335500Y227000
X323500Y251500
X333000Y303500
X335500Y307500
X338000Y305000
X341500
X343900Y309900
X348500Y309500
X351000Y305000
X363500Y302500
X368500Y305000
X378000Y309500
X380500Y301500
X383500Y294500
X375000Y274500
X377500Y222500
X384500Y227500
X395000Y205000
X404685Y209815
X414500Y210000
X424500Y209760
X434000Y210000
X278543Y195957
X274500Y225000
X282500Y241500
X285500Y238500
X288000Y236000
X302500Y251500
X240000Y225000
X227000Y173000
X258000Y309000
X242500Y317500
X265500Y331500
X262827Y355827
X257500Y352500
X253079Y349921
X266500Y366000
X284000Y346500
X291110Y338110
X295142Y336142
X302673Y334173
X302500Y322500
X318000Y329000
X336500Y332000
X328000Y341500
X330500Y354500
X338110Y360890
X339500Y373000
X342047Y379047
X327748Y366752
X353858Y360142
X356485Y360485
X357927Y363071
X362358Y353858
X350500Y352500
X372000Y342500
X359500Y329000
X362752Y323248
X369000Y315500
X346000Y315000
X332000Y317500
X365000Y372000
X384500Y369500
X395000Y388500
X407500Y392500
X431500Y386000
X440000Y372500
X445000
X453500Y346000
X457500Y346500
X461000Y347000
X462126Y467126
X461504Y475000
T02
X312543Y229957
X317500Y227500
X313000Y248000
X363543Y200457
X270500Y204000
X254500Y203000
X308957Y247457
X309000Y395000
Y421500
X326500Y380500
X352500Y404500
X366500Y401500
X378000Y397000
X384000Y400500
X393000Y413500
X397000Y431500
Y454000
X442500Y465000
X451500Y419882
X468000Y432000
X455000Y394500
X414500Y381000
X405000
X386000Y375500
X390058Y371442
X424000Y369500
X420000Y416000
X436500Y475000
T03
X415000Y399626
Y407500
T04
X314961Y307087
X401575
X236000Y301000
X250571Y280571
X233740Y235740
X231000Y425000
X228346Y464567
X220472
X212598
X204724
X196850
X330709Y417323
X408500Y431000
X464567Y417323
X228346Y472441
Y480315
Y488189
X220472
X212598
X204724
X196850
Y480315
X204724
X212598
X220472
Y472441
X212598
X204724
X196850
T05
X375000Y455000
Y465000
Y475000
T06
X367500Y237000
X305461Y290000
X275539
X223000Y259500
X226457Y345957
X228000Y415000
X267500
X293500Y419500
X418500Y337500
T07
X470000Y250000
Y260000
Y270000
Y280000
Y290000
Y300000
Y310000
X444055Y195000
X434213
X424370
X414528
X470000Y320000
Y330000
Y340000
Y350000
T08
X360000Y243000
Y253000
Y263000
Y273000
X390000
Y263000
Y253000
Y243000
X280000Y230000
X270000
X260000
X250000
X120000Y205000
Y189409
X270000Y380000
Y385000
Y390000
X335000Y395000
X345000
X355000
X365000
T09
X486000Y301000
X424685Y225000
X414843
X405000
X404685Y195000
X394843
X385000
X359685
X349843
X340000
Y165000
X349843
X359685
X385000
X394843
X404685
X435000
X444842
X174035Y259035
X142500Y315000
X120000Y380157
Y390000
X195000Y400000
X193000Y415000
X236276Y441000
Y464512
X193000Y330000
X385000Y325000
Y345000
T10
X485000Y375000
Y400591
T11
X434000Y304185
X307055Y447055
X301693Y460000
X338307
X332945Y447055
X434000Y334500
X332945Y472945
X307055
T12
X315000Y180000
X299410
X270000
X254410
X238819
X120000Y250000
Y265591
Y315000
Y330591
T13
X189000Y200000
X202974Y229978
X143000Y250000
X150000Y430000
Y467402
M30
