%FSLAX25Y25*%
%MOIN*%
G70*
G01*
G75*
G04 Layer_Color=128*
%ADD10R,0.07874X0.03937*%
%ADD11C,0.03937*%
%ADD12O,0.02756X0.09843*%
%ADD13R,0.03248X0.01181*%
%ADD14R,0.01181X0.03248*%
%ADD15R,0.04724X0.05512*%
%ADD16R,0.04528X0.02362*%
%ADD17R,0.20276X0.09252*%
%ADD18R,0.05512X0.04724*%
%ADD19R,0.02362X0.04528*%
%ADD20R,0.11221X0.08465*%
%ADD21R,0.08465X0.11221*%
%ADD22R,0.04134X0.09449*%
%ADD23R,0.41929X0.35039*%
%ADD24R,0.12992X0.09449*%
%ADD25R,0.03937X0.09449*%
%ADD26O,0.08858X0.02362*%
%ADD27R,0.09449X0.04134*%
%ADD28R,0.35039X0.41929*%
%ADD29R,0.06693X0.06693*%
%ADD30O,0.00984X0.06102*%
%ADD31O,0.06102X0.00984*%
%ADD32C,0.01500*%
%ADD33C,0.03000*%
%ADD34C,0.03937*%
%ADD35C,0.01000*%
%ADD36C,0.02000*%
%ADD37C,0.07874*%
%ADD38C,0.11811*%
%ADD39C,0.11811*%
%ADD40C,0.04724*%
%ADD41C,0.05906*%
%ADD42R,0.05906X0.05906*%
%ADD43C,0.11000*%
%ADD44C,0.06299*%
%ADD45C,0.15748*%
%ADD46R,0.04724X0.04724*%
%ADD47R,0.07874X0.07874*%
%ADD48C,0.07874*%
%ADD49O,0.07874X0.03937*%
%ADD50O,0.07874X0.03937*%
%ADD51C,0.06693*%
%ADD52C,0.09000*%
%ADD53C,0.02000*%
%ADD54C,0.03800*%
%ADD55C,0.02500*%
%ADD56C,0.05000*%
%ADD57C,0.02800*%
%ADD58C,0.04000*%
%ADD59R,0.11811X0.11811*%
%ADD60C,0.19685*%
%ADD61C,0.00984*%
%ADD62C,0.02362*%
%ADD63C,0.00787*%
%ADD64C,0.00800*%
%ADD65R,0.08674X0.04737*%
%ADD66C,0.04737*%
%ADD67O,0.03556X0.10642*%
%ADD68R,0.04048X0.01981*%
%ADD69R,0.01981X0.04048*%
%ADD70R,0.05524X0.06312*%
%ADD71R,0.05328X0.03162*%
%ADD72R,0.21076X0.10052*%
%ADD73R,0.06312X0.05524*%
%ADD74R,0.03162X0.05328*%
%ADD75R,0.12020X0.09265*%
%ADD76R,0.09265X0.12020*%
%ADD77R,0.04934X0.10249*%
%ADD78R,0.42729X0.35839*%
%ADD79R,0.13792X0.10249*%
%ADD80R,0.04737X0.10249*%
%ADD81O,0.09658X0.03162*%
%ADD82R,0.10249X0.04934*%
%ADD83R,0.35839X0.42729*%
%ADD84R,0.07493X0.07493*%
%ADD85O,0.01784X0.06902*%
%ADD86O,0.06902X0.01784*%
%ADD87C,0.12611*%
%ADD88C,0.05524*%
%ADD89C,0.06706*%
%ADD90R,0.06706X0.06706*%
%ADD91C,0.11800*%
%ADD92C,0.07099*%
%ADD93C,0.16548*%
%ADD94R,0.05524X0.05524*%
%ADD95R,0.08674X0.08674*%
%ADD96C,0.08674*%
%ADD97O,0.08674X0.04737*%
%ADD98O,0.08674X0.04737*%
%ADD99C,0.07493*%
%ADD100C,0.09800*%
%ADD101C,0.04600*%
%ADD102C,0.03300*%
%ADD103C,0.05800*%
%ADD104C,0.03600*%
%ADD105C,0.04800*%
%ADD106R,0.12611X0.12611*%
D15*
X379543Y242500D02*
D03*
X372457D02*
D03*
X306457Y329000D02*
D03*
X313543D02*
D03*
X356457Y310000D02*
D03*
X363543D02*
D03*
X376543Y372000D02*
D03*
X369457D02*
D03*
X333543Y375000D02*
D03*
X326457D02*
D03*
X473543Y425000D02*
D03*
X466457D02*
D03*
X436457Y470000D02*
D03*
X443543D02*
D03*
X451457Y425000D02*
D03*
X458543D02*
D03*
X312543Y224500D02*
D03*
X305457D02*
D03*
X292957Y233000D02*
D03*
X300043D02*
D03*
X291957Y252000D02*
D03*
X299043D02*
D03*
X308957D02*
D03*
X316043D02*
D03*
X303543Y215000D02*
D03*
X296457D02*
D03*
X356457Y185000D02*
D03*
X363543D02*
D03*
X343543Y185000D02*
D03*
X336457D02*
D03*
X343543Y175000D02*
D03*
X336457D02*
D03*
X356457Y175000D02*
D03*
X363543D02*
D03*
D18*
X320000Y456457D02*
D03*
Y463543D02*
D03*
D59*
X434000Y284500D02*
D03*
Y354500D02*
D03*
M02*
