%FSLAX25Y25*%
%MOIN*%
G70*
G01*
G75*
G04 Layer_Color=16711935*
%ADD10R,0.07874X0.03937*%
%ADD11C,0.03937*%
%ADD12O,0.02756X0.09843*%
%ADD13R,0.03248X0.01181*%
%ADD14R,0.01181X0.03248*%
%ADD15R,0.04724X0.05512*%
%ADD16R,0.04528X0.02362*%
%ADD17R,0.20276X0.09252*%
%ADD18R,0.05512X0.04724*%
%ADD19R,0.02362X0.04528*%
%ADD20R,0.11221X0.08465*%
%ADD21R,0.08465X0.11221*%
%ADD22R,0.04134X0.09449*%
%ADD23R,0.41929X0.35039*%
%ADD24R,0.12992X0.09449*%
%ADD25R,0.03937X0.09449*%
%ADD26O,0.08858X0.02362*%
%ADD27R,0.09449X0.04134*%
%ADD28R,0.35039X0.41929*%
%ADD29R,0.06693X0.06693*%
%ADD30O,0.00984X0.06102*%
%ADD31O,0.06102X0.00984*%
%ADD32C,0.01500*%
%ADD33C,0.03000*%
%ADD34C,0.03937*%
%ADD35C,0.01000*%
%ADD36C,0.02000*%
%ADD37C,0.07874*%
%ADD38C,0.11811*%
%ADD39C,0.11811*%
%ADD40C,0.04724*%
%ADD41C,0.05906*%
%ADD42R,0.05906X0.05906*%
%ADD43C,0.11000*%
%ADD44C,0.06299*%
%ADD45C,0.15748*%
%ADD46R,0.04724X0.04724*%
%ADD47R,0.07874X0.07874*%
%ADD48C,0.07874*%
%ADD49O,0.07874X0.03937*%
%ADD50O,0.07874X0.03937*%
%ADD51C,0.06693*%
%ADD52C,0.09000*%
%ADD53C,0.02000*%
%ADD54C,0.03800*%
%ADD55C,0.02500*%
%ADD56C,0.05000*%
%ADD57C,0.02800*%
%ADD58C,0.04000*%
%ADD59R,0.11811X0.11811*%
%ADD60C,0.19685*%
%ADD61C,0.00984*%
%ADD62C,0.02362*%
%ADD63C,0.00787*%
%ADD64C,0.00800*%
%ADD65R,0.08674X0.04737*%
%ADD66C,0.04737*%
%ADD67O,0.03556X0.10642*%
%ADD68R,0.04048X0.01981*%
%ADD69R,0.01981X0.04048*%
%ADD70R,0.05524X0.06312*%
%ADD71R,0.05328X0.03162*%
%ADD72R,0.21076X0.10052*%
%ADD73R,0.06312X0.05524*%
%ADD74R,0.03162X0.05328*%
%ADD75R,0.12020X0.09265*%
%ADD76R,0.09265X0.12020*%
%ADD77R,0.04934X0.10249*%
%ADD78R,0.42729X0.35839*%
%ADD79R,0.13792X0.10249*%
%ADD80R,0.04737X0.10249*%
%ADD81O,0.09658X0.03162*%
%ADD82R,0.10249X0.04934*%
%ADD83R,0.35839X0.42729*%
%ADD84R,0.07493X0.07493*%
%ADD85O,0.01784X0.06902*%
%ADD86O,0.06902X0.01784*%
%ADD87C,0.12611*%
%ADD88C,0.05524*%
%ADD89C,0.06706*%
%ADD90R,0.06706X0.06706*%
%ADD91C,0.11800*%
%ADD92C,0.07099*%
%ADD93C,0.16548*%
%ADD94R,0.05524X0.05524*%
%ADD95R,0.08674X0.08674*%
%ADD96C,0.08674*%
%ADD97O,0.08674X0.04737*%
%ADD98O,0.08674X0.04737*%
%ADD99C,0.07493*%
%ADD100C,0.09800*%
%ADD101C,0.04600*%
%ADD102C,0.03300*%
%ADD103C,0.05800*%
%ADD104C,0.03600*%
%ADD105C,0.04800*%
%ADD106R,0.12611X0.12611*%
%ADD107C,0.00394*%
D107*
X310669Y245669D02*
G03*
X310669Y245669I-1969J0D01*
G01*
X387598Y241268D02*
G03*
X387598Y241268I-1969J0D01*
G01*
X275905Y392795D02*
G03*
X275905Y377205I-5906J-7795D01*
G01*
X294638Y390496D02*
G03*
X294638Y390496I-1969J0D01*
G01*
X382299Y410004D02*
G03*
X382299Y410004I-1969J0D01*
G01*
X363110Y328858D02*
G03*
X363110Y328858I-1969J0D01*
G01*
X324843Y242126D02*
Y257874D01*
X305157Y242126D02*
Y257874D01*
X324843D01*
X305157Y242126D02*
X324843D01*
X250268Y302244D02*
X258732D01*
X250268Y307756D02*
X258732D01*
Y302244D02*
Y307756D01*
X250268Y302244D02*
Y307756D01*
X252244Y284095D02*
Y295905D01*
X257756Y284095D02*
Y295905D01*
X252244D02*
X257756D01*
X252244Y284095D02*
X257756D01*
X360827Y278276D02*
X389173D01*
X360827Y237724D02*
X389173D01*
X360827D02*
Y278276D01*
X389173Y237724D02*
Y278276D01*
X371768Y245256D02*
X380232D01*
X371768Y239744D02*
X380232D01*
Y245256D01*
X371768Y239744D02*
Y245256D01*
X187155Y255315D02*
X194685Y262844D01*
X155315Y255315D02*
X187155D01*
X155315D02*
Y294685D01*
X187155D01*
X194685Y287156D01*
Y262844D02*
Y287156D01*
X182244Y440768D02*
X187756D01*
X182244Y449232D02*
X187756D01*
X182244Y440768D02*
Y449232D01*
X187756Y440768D02*
Y449232D01*
X224095Y322244D02*
X235906D01*
X224095Y327756D02*
X235906D01*
X224095Y322244D02*
Y327756D01*
X235906Y322244D02*
Y327756D01*
X214094Y367244D02*
X225905D01*
X214094Y372756D02*
X225905D01*
X214094Y367244D02*
Y372756D01*
X225905Y367244D02*
Y372756D01*
X218022Y407126D02*
X219843Y408947D01*
X200157Y407126D02*
X218022D01*
X200157D02*
Y422874D01*
X218022D01*
X219843Y421053D01*
Y408947D02*
Y421053D01*
X410768Y242244D02*
X419232D01*
X410768Y247756D02*
X419232D01*
Y242244D02*
Y247756D01*
X410768Y242244D02*
Y247756D01*
X392126Y461978D02*
X393947Y460157D01*
X392126Y461978D02*
Y479843D01*
X407874D01*
Y461978D02*
Y479843D01*
X406053Y460157D02*
X407874Y461978D01*
X393947Y460157D02*
X406053D01*
X189232Y449370D02*
X230768D01*
X189232Y484803D02*
X230768D01*
X189232Y449370D02*
Y484803D01*
X230768Y449370D02*
Y484803D01*
X273189Y467717D02*
Y482283D01*
X246811Y467717D02*
Y482283D01*
X273189D01*
X246811Y467717D02*
X273189D01*
X270268Y408256D02*
X278732D01*
X270268Y402744D02*
X278732D01*
X270268D02*
Y408256D01*
X278732Y402744D02*
Y408256D01*
X275905Y377205D02*
Y392795D01*
X270768Y207244D02*
X279232D01*
X270768Y212756D02*
X279232D01*
Y207244D02*
Y212756D01*
X270768Y207244D02*
Y212756D01*
Y217244D02*
X279232D01*
X270768Y222756D02*
X279232D01*
Y217244D02*
Y222756D01*
X270768Y217244D02*
Y222756D01*
X250768Y207244D02*
X259232D01*
X250768Y212756D02*
X259232D01*
Y207244D02*
Y212756D01*
X250768Y207244D02*
Y212756D01*
Y217244D02*
X259232D01*
X250768Y222756D02*
X259232D01*
Y217244D02*
Y222756D01*
X250768Y217244D02*
Y222756D01*
X289126Y373961D02*
Y394039D01*
X304874Y373961D02*
Y394039D01*
X289126D02*
X304874D01*
X289126Y373961D02*
X304874D01*
X400768Y322244D02*
X409232D01*
X400768Y327756D02*
X409232D01*
Y322244D02*
Y327756D01*
X400768Y322244D02*
Y327756D01*
Y342244D02*
X409232D01*
X400768Y347756D02*
X409232D01*
Y342244D02*
Y347756D01*
X400768Y342244D02*
Y347756D01*
X383874Y406461D02*
Y426539D01*
X368126Y406461D02*
Y426539D01*
Y406461D02*
X383874D01*
X368126Y426539D02*
X383874D01*
X180630Y349232D02*
Y390768D01*
X145197Y349232D02*
Y390768D01*
Y349232D02*
X180630D01*
X145197Y390768D02*
X180630D01*
X115768Y292244D02*
X124232D01*
X115768Y297756D02*
X124232D01*
Y292244D02*
Y297756D01*
X115768Y292244D02*
Y297756D01*
X225768Y312756D02*
X234232D01*
X225768Y307244D02*
X234232D01*
X225768D02*
Y312756D01*
X234232Y307244D02*
Y312756D01*
X225768Y337244D02*
X234232D01*
X225768Y342756D02*
X234232D01*
Y337244D02*
Y342756D01*
X225768Y337244D02*
Y342756D01*
X215768Y382244D02*
X224232D01*
X215768Y387756D02*
X224232D01*
Y382244D02*
Y387756D01*
X215768Y382244D02*
Y387756D01*
X215768Y357756D02*
X224232D01*
X215768Y352244D02*
X224232D01*
X215768D02*
Y357756D01*
X224232Y352244D02*
Y357756D01*
X115768Y362244D02*
X124232D01*
X115768Y367756D02*
X124232D01*
Y362244D02*
Y367756D01*
X115768Y362244D02*
Y367756D01*
X305768Y326244D02*
X314232D01*
X305768Y331756D02*
X314232D01*
X305768Y326244D02*
Y331756D01*
X314232Y326244D02*
Y331756D01*
X355768Y307244D02*
X364232D01*
X355768Y312756D02*
X364232D01*
X355768Y307244D02*
Y312756D01*
X364232Y307244D02*
Y312756D01*
X368768Y374756D02*
X377232D01*
X368768Y369244D02*
X377232D01*
Y374756D01*
X368768Y369244D02*
Y374756D01*
X325768Y377756D02*
X334232D01*
X325768Y372244D02*
X334232D01*
Y377756D01*
X325768Y372244D02*
Y377756D01*
X205768Y402756D02*
X214232D01*
X205768Y397244D02*
X214232D01*
X205768D02*
Y402756D01*
X214232Y397244D02*
Y402756D01*
X190630Y299232D02*
Y340768D01*
X155197Y299232D02*
Y340768D01*
Y299232D02*
X190630D01*
X155197Y340768D02*
X190630D01*
X225768Y247244D02*
X234232D01*
X225768Y252756D02*
X234232D01*
Y247244D02*
Y252756D01*
X225768Y247244D02*
Y252756D01*
X224095Y232244D02*
X235906D01*
X224095Y237756D02*
X235906D01*
X224095Y232244D02*
Y237756D01*
X235906Y232244D02*
Y237756D01*
X225768Y222756D02*
X234232D01*
X225768Y217244D02*
X234232D01*
X225768D02*
Y222756D01*
X234232Y217244D02*
Y222756D01*
X125768Y227244D02*
X134232D01*
X125768Y232756D02*
X134232D01*
Y227244D02*
Y232756D01*
X125768Y227244D02*
Y232756D01*
X180630Y159232D02*
Y200768D01*
X145197Y159232D02*
Y200768D01*
Y159232D02*
X180630D01*
X145197Y200768D02*
X180630D01*
X195630Y209232D02*
Y250768D01*
X160197Y209232D02*
Y250768D01*
Y209232D02*
X195630D01*
X160197Y250768D02*
X195630D01*
X210768Y192244D02*
X219232D01*
X210768Y197756D02*
X219232D01*
Y192244D02*
Y197756D01*
X210768Y192244D02*
Y197756D01*
X209095Y177244D02*
X220905D01*
X209095Y182756D02*
X220905D01*
X209095Y177244D02*
Y182756D01*
X220905Y177244D02*
Y182756D01*
X210768Y167756D02*
X219232D01*
X210768Y162244D02*
X219232D01*
X210768D02*
Y167756D01*
X219232Y162244D02*
Y167756D01*
X322756Y455768D02*
Y464232D01*
X317244Y455768D02*
Y464232D01*
Y455768D02*
X322756D01*
X317244Y464232D02*
X322756D01*
X243768Y438244D02*
X252232D01*
X243768Y443756D02*
X252232D01*
Y438244D02*
Y443756D01*
X243768Y438244D02*
Y443756D01*
X250768Y452756D02*
X259232D01*
X250768Y447244D02*
X259232D01*
X250768D02*
Y452756D01*
X259232Y447244D02*
Y452756D01*
X465768Y427756D02*
X474232D01*
X465768Y422244D02*
X474232D01*
Y427756D01*
X465768Y422244D02*
Y427756D01*
X435768Y467244D02*
X444232D01*
X435768Y472756D02*
X444232D01*
X435768Y467244D02*
Y472756D01*
X444232Y467244D02*
Y472756D01*
X450768Y422244D02*
X459232D01*
X450768Y427756D02*
X459232D01*
X450768Y422244D02*
Y427756D01*
X459232Y422244D02*
Y427756D01*
X304768Y227256D02*
X313232D01*
X304768Y221744D02*
X313232D01*
Y227256D01*
X304768Y221744D02*
Y227256D01*
X292268Y230244D02*
X300732D01*
X292268Y235756D02*
X300732D01*
X292268Y230244D02*
Y235756D01*
X300732Y230244D02*
Y235756D01*
X291268Y249244D02*
X299732D01*
X291268Y254756D02*
X299732D01*
X291268Y249244D02*
Y254756D01*
X299732Y249244D02*
Y254756D01*
X308268Y249244D02*
X316732D01*
X308268Y254756D02*
X316732D01*
X308268Y249244D02*
Y254756D01*
X316732Y249244D02*
Y254756D01*
X295768Y217756D02*
X304232D01*
X295768Y212244D02*
X304232D01*
Y217756D01*
X295768Y212244D02*
Y217756D01*
X182244Y425768D02*
Y434232D01*
X187756Y425768D02*
Y434232D01*
X182244Y425768D02*
X187756D01*
X182244Y434232D02*
X187756D01*
X263022Y417126D02*
X264843Y418947D01*
X245158Y417126D02*
X263022D01*
X245158D02*
Y432874D01*
X263022D01*
X264843Y431053D01*
Y418947D02*
Y431053D01*
X407756Y406268D02*
Y414732D01*
X402244Y406268D02*
Y414732D01*
X407756D01*
X402244Y406268D02*
X407756D01*
X325315Y364685D02*
X364685D01*
X325315Y325315D02*
X364685D01*
X325315D02*
Y364685D01*
X364685Y325315D02*
Y364685D01*
X402756Y380768D02*
Y389232D01*
X397244Y380768D02*
Y389232D01*
X402756D01*
X397244Y380768D02*
X402756D01*
X355768Y302756D02*
X364232D01*
X355768Y297244D02*
X364232D01*
X355768D02*
Y302756D01*
X364232Y297244D02*
Y302756D01*
X460768Y392244D02*
X469232D01*
X460768Y397756D02*
X469232D01*
Y392244D02*
Y397756D01*
X460768Y392244D02*
Y397756D01*
X460768Y382756D02*
X469232D01*
X460768Y377244D02*
X469232D01*
X460768D02*
Y382756D01*
X469232Y377244D02*
Y382756D01*
X412756Y380768D02*
Y389232D01*
X407244Y380768D02*
Y389232D01*
X412756D01*
X407244Y380768D02*
X412756D01*
X454256Y379768D02*
Y388232D01*
X448744Y379768D02*
Y388232D01*
X454256D01*
X448744Y379768D02*
X454256D01*
X399756Y406268D02*
Y414732D01*
X394244Y406268D02*
Y414732D01*
X399756D01*
X394244Y406268D02*
X399756D01*
X355768Y182244D02*
X364232D01*
X355768Y187756D02*
X364232D01*
X355768Y182244D02*
Y187756D01*
X364232Y182244D02*
Y187756D01*
X335768Y187756D02*
X344232D01*
X335768Y182244D02*
X344232D01*
Y187756D01*
X335768Y182244D02*
Y187756D01*
Y177756D02*
X344232D01*
X335768Y172244D02*
X344232D01*
Y177756D01*
X335768Y172244D02*
Y177756D01*
X355768Y172244D02*
X364232D01*
X355768Y177756D02*
X364232D01*
X355768Y172244D02*
Y177756D01*
X364232Y172244D02*
Y177756D01*
M02*
