%FSLAX25Y25*%
%MOIN*%
G70*
G01*
G75*
G04 Layer_Physical_Order=1*
G04 Layer_Color=255*
%ADD10C,0.02000*%
%ADD11C,0.06299*%
%ADD12C,0.06000*%
%ADD13C,0.05906*%
%ADD14C,0.10000*%
D10*
X120079Y74803D02*
X147638Y102362D01*
X78740Y74803D02*
X120079D01*
X44370Y40433D02*
X78740Y74803D01*
X44370Y35433D02*
Y40433D01*
X122047Y66929D02*
X157480Y102362D01*
X115236Y66929D02*
X122047D01*
X83740Y35433D02*
X115236Y66929D01*
X123110Y58150D02*
X167323Y102362D01*
X123110Y35433D02*
Y58150D01*
X177165Y95118D02*
Y102362D01*
Y95118D02*
X198661Y73622D01*
X187008Y92520D02*
Y102362D01*
Y92520D02*
X196850Y82677D01*
X263779D01*
X275590Y70866D02*
Y70866D01*
X263779Y82677D02*
X275590Y70866D01*
D11*
X44370Y35433D02*
D03*
X34370D02*
D03*
X83740Y35433D02*
D03*
X73740D02*
D03*
X123110D02*
D03*
X113110D02*
D03*
X137795Y102362D02*
D03*
X147638D02*
D03*
X157480D02*
D03*
D12*
X253465Y23622D02*
D03*
X273465Y73622D02*
D03*
X253465D02*
D03*
X273465Y23622D02*
D03*
X178661D02*
D03*
X198661Y73622D02*
D03*
X178661D02*
D03*
X198661Y23622D02*
D03*
D13*
X196850Y102362D02*
D03*
X187008D02*
D03*
X177165D02*
D03*
X167323D02*
D03*
D14*
X295276Y98425D02*
D03*
X19685D02*
D03*
X149606Y51181D02*
D03*
X19685Y19685D02*
D03*
X295276D02*
D03*
M02*
