%FSLAX25Y25*%
%MOIN*%
G70*
G01*
G75*
%ADD10C,0.02000*%
%ADD11C,0.06299*%
%ADD12C,0.06000*%
%ADD13C,0.05906*%
%ADD14C,0.10000*%
%ADD15C,0.00500*%
%ADD16C,0.00787*%
%ADD17C,0.01000*%
D15*
X45079Y57087D02*
G03*
X33661Y57087I-5709J0D01*
G01*
X84449Y57087D02*
G03*
X73032Y57087I-5709J0D01*
G01*
X123819D02*
G03*
X112402Y57087I-5709J0D01*
G01*
X45079Y52756D02*
Y57087D01*
X33661Y52756D02*
Y57087D01*
X48031Y27559D02*
Y52756D01*
X30709D02*
X48031D01*
X30709Y27559D02*
Y52756D01*
Y27559D02*
X48031D01*
X84449Y52756D02*
Y57087D01*
X73032Y52756D02*
Y57087D01*
X87402Y27559D02*
Y52756D01*
X70079D02*
X87402D01*
X70079Y27559D02*
Y52756D01*
Y27559D02*
X87402D01*
X123819Y52756D02*
Y57087D01*
X112402Y52756D02*
Y57087D01*
X126772Y27559D02*
Y52756D01*
X109449D02*
X126772D01*
X109449Y27559D02*
Y52756D01*
Y27559D02*
X126772D01*
D16*
X283465Y33622D02*
Y63622D01*
X243465D02*
X283465D01*
X243465Y33622D02*
X283465D01*
X243465D02*
Y63622D01*
X208661Y33622D02*
Y63622D01*
X168661D02*
X208661D01*
X168661Y33622D02*
X208661D01*
X168661D02*
Y63622D01*
D17*
X127953Y90551D02*
Y110236D01*
Y90551D02*
X206693D01*
Y110236D01*
X127953D02*
X206693D01*
X137795D02*
Y114173D01*
X196850D01*
Y110236D02*
Y114173D01*
X36470Y70032D02*
Y66033D01*
X38469D01*
X39136Y66699D01*
Y69365D01*
X38469Y70032D01*
X36470D01*
X43135D02*
X41802Y69365D01*
X40469Y68032D01*
Y66699D01*
X41135Y66033D01*
X42468D01*
X43135Y66699D01*
Y67366D01*
X42468Y68032D01*
X40469D01*
X75840Y70032D02*
Y66033D01*
X77839D01*
X78506Y66699D01*
Y69365D01*
X77839Y70032D01*
X75840D01*
X79839D02*
X82505D01*
Y69365D01*
X79839Y66699D01*
Y66033D01*
X115210Y70032D02*
Y66033D01*
X117210D01*
X117876Y66699D01*
Y69365D01*
X117210Y70032D01*
X115210D01*
X119209Y69365D02*
X119875Y70032D01*
X121208D01*
X121875Y69365D01*
Y68699D01*
X121208Y68032D01*
X121875Y67366D01*
Y66699D01*
X121208Y66033D01*
X119875D01*
X119209Y66699D01*
Y67366D01*
X119875Y68032D01*
X119209Y68699D01*
Y69365D01*
X119875Y68032D02*
X121208D01*
X212598Y106299D02*
Y110298D01*
X214598D01*
X215264Y109632D01*
Y108299D01*
X214598Y107632D01*
X212598D01*
X216597Y106299D02*
X217930D01*
X217264D01*
Y110298D01*
X216597Y109632D01*
X222595Y110298D02*
X219929D01*
Y108299D01*
X221262Y108965D01*
X221929D01*
X222595Y108299D01*
Y106966D01*
X221929Y106299D01*
X220596D01*
X219929Y106966D01*
X168327Y73954D02*
X167661Y74621D01*
X166328D01*
X165661Y73954D01*
Y73288D01*
X166328Y72621D01*
X167661D01*
X168327Y71955D01*
Y71289D01*
X167661Y70622D01*
X166328D01*
X165661Y71289D01*
X169660Y73954D02*
X170327Y74621D01*
X171660D01*
X172326Y73954D01*
Y73288D01*
X171660Y72621D01*
X170993D01*
X171660D01*
X172326Y71955D01*
Y71289D01*
X171660Y70622D01*
X170327D01*
X169660Y71289D01*
X242130Y74954D02*
X241464Y75621D01*
X240131D01*
X239465Y74954D01*
Y74288D01*
X240131Y73621D01*
X241464D01*
X242130Y72955D01*
Y72289D01*
X241464Y71622D01*
X240131D01*
X239465Y72289D01*
X245463Y71622D02*
Y75621D01*
X243463Y73621D01*
X246129D01*
M02*
