%FSLAX25Y25*%
%MOIN*%
G70*
G01*
G75*
G04 Layer_Physical_Order=2*
G04 Layer_Color=16711680*
%ADD10C,0.02000*%
%ADD11C,0.06299*%
%ADD12C,0.06000*%
%ADD13C,0.05906*%
%ADD14C,0.10000*%
D10*
X113110Y77677D02*
X137795Y102362D01*
X113110Y35433D02*
Y77677D01*
X188976Y94488D02*
X196850Y102362D01*
X178661Y23622D02*
X188976Y33937D01*
Y35433D02*
X241653D01*
X253465Y23622D01*
X188976Y33937D02*
Y35433D01*
Y94488D01*
X34370Y35433D02*
X42244Y27559D01*
X65866D01*
X73740Y35433D01*
X81614Y27559D01*
X106299D01*
X113110Y34370D01*
Y35433D01*
D11*
X44370Y35433D02*
D03*
X34370D02*
D03*
X83740Y35433D02*
D03*
X73740D02*
D03*
X123110D02*
D03*
X113110D02*
D03*
X137795Y102362D02*
D03*
X147638D02*
D03*
X157480D02*
D03*
D12*
X253465Y23622D02*
D03*
X273465Y73622D02*
D03*
X253465D02*
D03*
X273465Y23622D02*
D03*
X178661D02*
D03*
X198661Y73622D02*
D03*
X178661D02*
D03*
X198661Y23622D02*
D03*
D13*
X196850Y102362D02*
D03*
X187008D02*
D03*
X177165D02*
D03*
X167323D02*
D03*
D14*
X295276Y98425D02*
D03*
X19685D02*
D03*
X149606Y51181D02*
D03*
X19685Y19685D02*
D03*
X295276D02*
D03*
M02*
