%FSLAX25Y25*%
%MOIN*%
G70*
G01*
G75*
G04 Layer_Color=32896*
%ADD10R,0.07874X0.03150*%
%ADD11R,0.08465X0.11221*%
%ADD12R,0.06693X0.06693*%
%ADD13R,0.04134X0.02362*%
%ADD14R,0.05512X0.04724*%
%ADD15R,0.09921X0.13425*%
%ADD16O,0.05709X0.02362*%
%ADD17R,0.07284X0.16339*%
%ADD18O,0.00984X0.06102*%
%ADD19O,0.06102X0.00984*%
%ADD20R,0.09449X0.07087*%
%ADD21R,0.04724X0.05512*%
%ADD22R,0.05512X0.02362*%
%ADD23R,0.07087X0.02362*%
G04:AMPARAMS|DCode=24|XSize=74.8mil|YSize=125.98mil|CornerRadius=0mil|HoleSize=0mil|Usage=FLASHONLY|Rotation=90.000|XOffset=0mil|YOffset=0mil|HoleType=Round|Shape=Octagon|*
%AMOCTAGOND24*
4,1,8,-0.06299,-0.01870,-0.06299,0.01870,-0.04429,0.03740,0.04429,0.03740,0.06299,0.01870,0.06299,-0.01870,0.04429,-0.03740,-0.04429,-0.03740,-0.06299,-0.01870,0.0*
%
%ADD24OCTAGOND24*%

%ADD25R,0.21654X0.09843*%
%ADD26C,0.01000*%
%ADD27C,0.02000*%
%ADD28C,0.05906*%
%ADD29R,0.05906X0.05906*%
%ADD30O,0.06299X0.03937*%
%ADD31C,0.07874*%
%ADD32C,0.06299*%
%ADD33C,0.09000*%
%ADD34C,0.01969*%
%ADD35C,0.01600*%
%ADD36C,0.03000*%
%ADD37R,0.12598X0.20472*%
%ADD38C,0.00984*%
%ADD39C,0.02362*%
%ADD40C,0.00800*%
%ADD41C,0.00787*%
%ADD42C,0.00600*%
%ADD43R,0.08674X0.03950*%
%ADD44R,0.09265X0.12020*%
%ADD45R,0.07493X0.07493*%
%ADD46R,0.04934X0.03162*%
%ADD47R,0.06312X0.05524*%
%ADD48R,0.10721X0.14225*%
%ADD49O,0.06509X0.03162*%
%ADD50R,0.08083X0.17139*%
%ADD51O,0.01784X0.06902*%
%ADD52O,0.06902X0.01784*%
%ADD53R,0.10249X0.07887*%
%ADD54R,0.05524X0.06312*%
%ADD55R,0.06312X0.03162*%
%ADD56R,0.07887X0.03162*%
G04:AMPARAMS|DCode=57|XSize=82.8mil|YSize=133.98mil|CornerRadius=0mil|HoleSize=0mil|Usage=FLASHONLY|Rotation=90.000|XOffset=0mil|YOffset=0mil|HoleType=Round|Shape=Octagon|*
%AMOCTAGOND57*
4,1,8,-0.06699,-0.02070,-0.06699,0.02070,-0.04629,0.04140,0.04629,0.04140,0.06699,0.02070,0.06699,-0.02070,0.04629,-0.04140,-0.04629,-0.04140,-0.06699,-0.02070,0.0*
%
%ADD57OCTAGOND57*%

%ADD58R,0.22453X0.10642*%
%ADD59C,0.06706*%
%ADD60R,0.06706X0.06706*%
%ADD61O,0.07099X0.04737*%
%ADD62C,0.08674*%
%ADD63C,0.07099*%
%ADD64C,0.09800*%
G36*
X121999Y25332D02*
X123679D01*
Y24183D01*
X121999D01*
Y22525D01*
X120881D01*
Y24183D01*
X119200D01*
Y25332D01*
X120881D01*
Y26989D01*
X121999D01*
Y25332D01*
D02*
G37*
G36*
X122406Y8904D02*
X120000D01*
Y10130D01*
X122406D01*
Y8904D01*
D02*
G37*
D26*
X137900Y120100D02*
Y123099D01*
X136400D01*
X135901Y122599D01*
Y121599D01*
X136400Y121100D01*
X137900D01*
X136900D02*
X135901Y120100D01*
X134901D02*
X133901D01*
X134401D01*
Y123099D01*
X134901Y122599D01*
X130402Y123099D02*
X132402D01*
Y121599D01*
X131402Y122099D01*
X130902D01*
X130402Y121599D01*
Y120600D01*
X130902Y120100D01*
X131902D01*
X132402Y120600D01*
X52000Y128800D02*
Y131799D01*
X50501D01*
X50001Y131299D01*
Y130299D01*
X50501Y129800D01*
X52000D01*
X51000D02*
X50001Y128800D01*
X49001D02*
X48001D01*
X48501D01*
Y131799D01*
X49001Y131299D01*
X45002Y128800D02*
Y131799D01*
X46502Y130299D01*
X44502D01*
X159200Y48800D02*
Y51799D01*
X157701D01*
X157201Y51299D01*
Y50300D01*
X157701Y49800D01*
X159200D01*
X158200D02*
X157201Y48800D01*
X156201D02*
X155201D01*
X155701D01*
Y51799D01*
X156201Y51299D01*
X153702D02*
X153202Y51799D01*
X152202D01*
X151702Y51299D01*
Y50799D01*
X152202Y50300D01*
X152702D01*
X152202D01*
X151702Y49800D01*
Y49300D01*
X152202Y48800D01*
X153202D01*
X153702Y49300D01*
X97600Y162400D02*
Y165399D01*
X96100D01*
X95601Y164899D01*
Y163900D01*
X96100Y163400D01*
X97600D01*
X96600D02*
X95601Y162400D01*
X94601D02*
X93601D01*
X94101D01*
Y165399D01*
X94601Y164899D01*
X90102Y162400D02*
X92102D01*
X90102Y164399D01*
Y164899D01*
X90602Y165399D01*
X91602D01*
X92102Y164899D01*
X52000Y71200D02*
Y74199D01*
X50501D01*
X50001Y73699D01*
Y72699D01*
X50501Y72200D01*
X52000D01*
X51000D02*
X50001Y71200D01*
X49001D02*
X48001D01*
X48501D01*
Y74199D01*
X49001Y73699D01*
X46502Y71200D02*
X45502D01*
X46002D01*
Y74199D01*
X46502Y73699D01*
X96000Y83200D02*
Y86199D01*
X94500D01*
X94001Y85699D01*
Y84699D01*
X94500Y84200D01*
X96000D01*
X95000D02*
X94001Y83200D01*
X93001D02*
X92001D01*
X92501D01*
Y86199D01*
X93001Y85699D01*
X90502D02*
X90002Y86199D01*
X89002D01*
X88502Y85699D01*
Y83700D01*
X89002Y83200D01*
X90002D01*
X90502Y83700D01*
Y85699D01*
X38400Y57600D02*
Y60599D01*
X36900D01*
X36401Y60099D01*
Y59100D01*
X36900Y58600D01*
X38400D01*
X37400D02*
X36401Y57600D01*
X35401Y58100D02*
X34901Y57600D01*
X33901D01*
X33402Y58100D01*
Y60099D01*
X33901Y60599D01*
X34901D01*
X35401Y60099D01*
Y59599D01*
X34901Y59100D01*
X33402D01*
X89600Y65600D02*
Y68599D01*
X88100D01*
X87601Y68099D01*
Y67099D01*
X88100Y66600D01*
X89600D01*
X88600D02*
X87601Y65600D01*
X86601Y68099D02*
X86101Y68599D01*
X85101D01*
X84602Y68099D01*
Y67599D01*
X85101Y67099D01*
X84602Y66600D01*
Y66100D01*
X85101Y65600D01*
X86101D01*
X86601Y66100D01*
Y66600D01*
X86101Y67099D01*
X86601Y67599D01*
Y68099D01*
X86101Y67099D02*
X85101D01*
X96000Y44000D02*
Y46999D01*
X94500D01*
X94001Y46499D01*
Y45500D01*
X94500Y45000D01*
X96000D01*
X95000D02*
X94001Y44000D01*
X93001Y46999D02*
X91002D01*
Y46499D01*
X93001Y44500D01*
Y44000D01*
X110400Y76000D02*
Y78999D01*
X108900D01*
X108401Y78499D01*
Y77500D01*
X108900Y77000D01*
X110400D01*
X109400D02*
X108401Y76000D01*
X105402Y78999D02*
X106401Y78499D01*
X107401Y77500D01*
Y76500D01*
X106901Y76000D01*
X105901D01*
X105402Y76500D01*
Y77000D01*
X105901Y77500D01*
X107401D01*
X118400Y40000D02*
Y42999D01*
X116901D01*
X116401Y42499D01*
Y41500D01*
X116901Y41000D01*
X118400D01*
X117400D02*
X116401Y40000D01*
X113402Y42999D02*
X115401D01*
Y41500D01*
X114401Y41999D01*
X113901D01*
X113402Y41500D01*
Y40500D01*
X113901Y40000D01*
X114901D01*
X115401Y40500D01*
X36000Y28800D02*
Y31799D01*
X34501D01*
X34001Y31299D01*
Y30299D01*
X34501Y29800D01*
X36000D01*
X35000D02*
X34001Y28800D01*
X31501D02*
Y31799D01*
X33001Y30299D01*
X31002D01*
X86043Y29400D02*
Y32399D01*
X84544D01*
X84044Y31899D01*
Y30900D01*
X84544Y30400D01*
X86043D01*
X85044D02*
X84044Y29400D01*
X83044Y31899D02*
X82544Y32399D01*
X81545D01*
X81045Y31899D01*
Y31399D01*
X81545Y30900D01*
X82045D01*
X81545D01*
X81045Y30400D01*
Y29900D01*
X81545Y29400D01*
X82544D01*
X83044Y29900D01*
X86043Y21900D02*
Y24899D01*
X84544D01*
X84044Y24399D01*
Y23400D01*
X84544Y22900D01*
X86043D01*
X85044D02*
X84044Y21900D01*
X81045D02*
X83044D01*
X81045Y23899D01*
Y24399D01*
X81545Y24899D01*
X82544D01*
X83044Y24399D01*
X86100Y14400D02*
Y17399D01*
X84601D01*
X84101Y16899D01*
Y15900D01*
X84601Y15400D01*
X86100D01*
X85100D02*
X84101Y14400D01*
X83101D02*
X82101D01*
X82601D01*
Y17399D01*
X83101Y16899D01*
X154801Y69699D02*
X155300Y70199D01*
X156300D01*
X156800Y69699D01*
Y67700D01*
X156300Y67200D01*
X155300D01*
X154801Y67700D01*
X153801Y67200D02*
X152801D01*
X153301D01*
Y70199D01*
X153801Y69699D01*
X149302Y70199D02*
X150302Y69699D01*
X151302Y68700D01*
Y67700D01*
X150802Y67200D01*
X149802D01*
X149302Y67700D01*
Y68200D01*
X149802Y68700D01*
X151302D01*
X98001Y108899D02*
X98501Y109399D01*
X99500D01*
X100000Y108899D01*
Y106900D01*
X99500Y106400D01*
X98501D01*
X98001Y106900D01*
X97001Y106400D02*
X96001D01*
X96501D01*
Y109399D01*
X97001Y108899D01*
X93002Y106400D02*
Y109399D01*
X94502Y107899D01*
X92502D01*
X33201Y131299D02*
X33700Y131799D01*
X34700D01*
X35200Y131299D01*
Y129300D01*
X34700Y128800D01*
X33700D01*
X33201Y129300D01*
X32201Y128800D02*
X31201D01*
X31701D01*
Y131799D01*
X32201Y131299D01*
X29702D02*
X29202Y131799D01*
X28202D01*
X27702Y131299D01*
Y130799D01*
X28202Y130299D01*
X28702D01*
X28202D01*
X27702Y129800D01*
Y129300D01*
X28202Y128800D01*
X29202D01*
X29702Y129300D01*
X29057Y101899D02*
X29557Y102399D01*
X30557D01*
X31057Y101899D01*
Y99900D01*
X30557Y99400D01*
X29557D01*
X29057Y99900D01*
X28058Y99400D02*
X27058D01*
X27558D01*
Y102399D01*
X28058Y101899D01*
X23559Y99400D02*
X25559D01*
X23559Y101399D01*
Y101899D01*
X24059Y102399D01*
X25059D01*
X25559Y101899D01*
X93201Y80099D02*
X93700Y80599D01*
X94700D01*
X95200Y80099D01*
Y78100D01*
X94700Y77600D01*
X93700D01*
X93201Y78100D01*
X92201Y77600D02*
X91201D01*
X91701D01*
Y80599D01*
X92201Y80099D01*
X89702Y77600D02*
X88702D01*
X89202D01*
Y80599D01*
X89702Y80099D01*
X135901Y142599D02*
X136400Y143099D01*
X137400D01*
X137900Y142599D01*
Y140600D01*
X137400Y140100D01*
X136400D01*
X135901Y140600D01*
X134901D02*
X134401Y140100D01*
X133401D01*
X132902Y140600D01*
Y142599D01*
X133401Y143099D01*
X134401D01*
X134901Y142599D01*
Y142099D01*
X134401Y141600D01*
X132902D01*
X60901Y62599D02*
X61401Y63099D01*
X62400D01*
X62900Y62599D01*
Y60600D01*
X62400Y60100D01*
X61401D01*
X60901Y60600D01*
X57902Y63099D02*
X59901D01*
Y61599D01*
X58901Y62099D01*
X58401D01*
X57902Y61599D01*
Y60600D01*
X58401Y60100D01*
X59401D01*
X59901Y60600D01*
X123401Y72599D02*
X123900Y73099D01*
X124900D01*
X125400Y72599D01*
Y70600D01*
X124900Y70100D01*
X123900D01*
X123401Y70600D01*
X122401Y72599D02*
X121901Y73099D01*
X120902D01*
X120402Y72599D01*
Y72099D01*
X120902Y71600D01*
X121401D01*
X120902D01*
X120402Y71100D01*
Y70600D01*
X120902Y70100D01*
X121901D01*
X122401Y70600D01*
D41*
X90138Y152500D02*
X94862D01*
X82500Y105138D02*
Y109862D01*
X157638Y60000D02*
X162362D01*
X150138D02*
X154862D01*
X105600Y39238D02*
Y43962D01*
X105138Y67500D02*
X109862D01*
X82500Y77638D02*
Y82362D01*
Y70138D02*
Y74862D01*
X85138Y57500D02*
X89862D01*
X85138Y42500D02*
X89862D01*
X31200Y63238D02*
Y67962D01*
X48800Y64038D02*
Y68762D01*
X50000Y122638D02*
Y127362D01*
X35000Y122638D02*
Y127362D01*
X132638Y130000D02*
X137362D01*
X25000Y90138D02*
Y94862D01*
X57638Y50000D02*
X62362D01*
X120138Y60000D02*
X124862D01*
X80000Y5138D02*
Y9862D01*
Y12638D02*
Y17362D01*
Y20138D02*
Y24862D01*
X132638Y110000D02*
X137362D01*
X31238Y20800D02*
X35962D01*
M02*
