%FSLAX25Y25*%
%MOIN*%
G70*
G01*
G75*
%ADD10R,0.07874X0.03150*%
%ADD11R,0.08465X0.11221*%
%ADD12R,0.06693X0.06693*%
%ADD13R,0.04134X0.02362*%
%ADD14R,0.05512X0.04724*%
%ADD15R,0.09921X0.13425*%
%ADD16O,0.05709X0.02362*%
%ADD17R,0.07284X0.16339*%
%ADD18O,0.00984X0.06102*%
%ADD19O,0.06102X0.00984*%
%ADD20R,0.09449X0.07087*%
%ADD21R,0.04724X0.05512*%
%ADD22R,0.05512X0.02362*%
%ADD23R,0.07087X0.02362*%
G04:AMPARAMS|DCode=24|XSize=74.8mil|YSize=125.98mil|CornerRadius=0mil|HoleSize=0mil|Usage=FLASHONLY|Rotation=90.000|XOffset=0mil|YOffset=0mil|HoleType=Round|Shape=Octagon|*
%AMOCTAGOND24*
4,1,8,-0.06299,-0.01870,-0.06299,0.01870,-0.04429,0.03740,0.04429,0.03740,0.06299,0.01870,0.06299,-0.01870,0.04429,-0.03740,-0.04429,-0.03740,-0.06299,-0.01870,0.0*
%
%ADD24OCTAGOND24*%

%ADD25R,0.21654X0.09843*%
%ADD26C,0.01000*%
%ADD27C,0.02000*%
%ADD28C,0.05906*%
%ADD29R,0.05906X0.05906*%
%ADD30O,0.06299X0.03937*%
%ADD31C,0.07874*%
%ADD32C,0.06299*%
%ADD33C,0.09000*%
%ADD34C,0.01969*%
%ADD35C,0.01600*%
%ADD36C,0.03000*%
%ADD37R,0.12598X0.20472*%
%ADD38C,0.00984*%
%ADD39C,0.02362*%
%ADD40C,0.00800*%
%ADD41C,0.00787*%
%ADD42C,0.00600*%
G36*
X64806Y176000D02*
X63580D01*
Y177226D01*
X64806D01*
Y176000D01*
D02*
G37*
G36*
X60512Y182422D02*
X60574D01*
X60651Y182407D01*
X60743Y182392D01*
X60843Y182376D01*
X60951Y182345D01*
X61067Y182315D01*
X61183Y182268D01*
X61306Y182214D01*
X61429Y182145D01*
X61545Y182068D01*
X61661Y181983D01*
X61776Y181875D01*
X61876Y181759D01*
X61884Y181752D01*
X61907Y181721D01*
X61938Y181675D01*
X61977Y181605D01*
X62023Y181520D01*
X62077Y181412D01*
X62131Y181289D01*
X62193Y181143D01*
X62247Y180973D01*
X62301Y180780D01*
X62354Y180564D01*
X62401Y180325D01*
X62447Y180071D01*
X62478Y179786D01*
X62493Y179485D01*
X62501Y179153D01*
Y179146D01*
Y179130D01*
Y179107D01*
Y179076D01*
Y179030D01*
X62493Y178984D01*
Y178860D01*
X62486Y178706D01*
X62470Y178537D01*
X62447Y178351D01*
X62424Y178151D01*
X62385Y177935D01*
X62347Y177719D01*
X62293Y177503D01*
X62231Y177288D01*
X62162Y177079D01*
X62077Y176879D01*
X61977Y176702D01*
X61869Y176540D01*
X61861Y176532D01*
X61846Y176509D01*
X61815Y176478D01*
X61776Y176439D01*
X61722Y176393D01*
X61653Y176331D01*
X61584Y176278D01*
X61491Y176216D01*
X61399Y176154D01*
X61291Y176100D01*
X61167Y176046D01*
X61036Y175992D01*
X60897Y175954D01*
X60751Y175923D01*
X60589Y175900D01*
X60419Y175892D01*
X60381D01*
X60327Y175900D01*
X60265D01*
X60188Y175915D01*
X60096Y175931D01*
X59995Y175954D01*
X59880Y175985D01*
X59764Y176023D01*
X59641Y176069D01*
X59517Y176123D01*
X59394Y176193D01*
X59271Y176278D01*
X59147Y176370D01*
X59024Y176486D01*
X58916Y176609D01*
X58908Y176617D01*
X58893Y176640D01*
X58862Y176686D01*
X58823Y176748D01*
X58785Y176833D01*
X58738Y176933D01*
X58685Y177056D01*
X58631Y177195D01*
X58577Y177365D01*
X58523Y177550D01*
X58476Y177758D01*
X58438Y177989D01*
X58399Y178251D01*
X58368Y178529D01*
X58353Y178837D01*
X58345Y179169D01*
Y179176D01*
Y179192D01*
Y179215D01*
Y179246D01*
Y179292D01*
X58353Y179338D01*
Y179462D01*
X58368Y179608D01*
X58376Y179786D01*
X58399Y179971D01*
X58422Y180171D01*
X58453Y180379D01*
X58499Y180595D01*
X58546Y180819D01*
X58608Y181027D01*
X58677Y181235D01*
X58762Y181436D01*
X58862Y181613D01*
X58970Y181775D01*
X58978Y181782D01*
X58993Y181806D01*
X59024Y181836D01*
X59062Y181875D01*
X59116Y181929D01*
X59186Y181983D01*
X59255Y182045D01*
X59348Y182106D01*
X59440Y182160D01*
X59548Y182222D01*
X59671Y182276D01*
X59803Y182330D01*
X59941Y182369D01*
X60088Y182399D01*
X60250Y182422D01*
X60419Y182430D01*
X60458D01*
X60512Y182422D01*
D02*
G37*
G36*
X68939Y176000D02*
X67713D01*
Y180626D01*
X67705Y180618D01*
X67682Y180595D01*
X67644Y180564D01*
X67590Y180526D01*
X67528Y180472D01*
X67451Y180410D01*
X67358Y180341D01*
X67258Y180271D01*
X67150Y180202D01*
X67027Y180125D01*
X66896Y180048D01*
X66757Y179971D01*
X66610Y179894D01*
X66456Y179824D01*
X66294Y179762D01*
X66125Y179701D01*
Y180811D01*
X66132D01*
X66148Y180819D01*
X66171Y180826D01*
X66210Y180842D01*
X66256Y180857D01*
X66302Y180880D01*
X66364Y180911D01*
X66433Y180942D01*
X66587Y181027D01*
X66765Y181127D01*
X66957Y181251D01*
X67166Y181405D01*
X67173Y181412D01*
X67189Y181428D01*
X67220Y181451D01*
X67258Y181482D01*
X67304Y181528D01*
X67358Y181574D01*
X67412Y181636D01*
X67474Y181698D01*
X67605Y181852D01*
X67728Y182021D01*
X67844Y182214D01*
X67890Y182322D01*
X67937Y182430D01*
X68939D01*
Y176000D01*
D02*
G37*
G36*
X55685D02*
X54290D01*
X52000Y182407D01*
X53395D01*
X55022Y177665D01*
X56587Y182407D01*
X57968D01*
X55685Y176000D01*
D02*
G37*
%LPC*%
G36*
X60419Y181412D02*
X60381D01*
X60342Y181405D01*
X60288Y181397D01*
X60227Y181374D01*
X60157Y181351D01*
X60088Y181312D01*
X60018Y181266D01*
X60011Y181258D01*
X59988Y181235D01*
X59957Y181204D01*
X59926Y181150D01*
X59880Y181081D01*
X59833Y180996D01*
X59795Y180888D01*
X59756Y180757D01*
Y180749D01*
X59749Y180734D01*
Y180703D01*
X59741Y180665D01*
X59725Y180611D01*
X59718Y180549D01*
X59710Y180472D01*
X59695Y180379D01*
X59687Y180271D01*
X59671Y180156D01*
X59664Y180025D01*
X59656Y179878D01*
X59648Y179716D01*
X59641Y179547D01*
X59633Y179354D01*
Y179153D01*
Y179138D01*
Y179107D01*
Y179045D01*
Y178968D01*
Y178876D01*
X59641Y178776D01*
Y178660D01*
X59648Y178537D01*
X59656Y178282D01*
X59679Y178028D01*
X59695Y177904D01*
X59702Y177789D01*
X59725Y177689D01*
X59741Y177604D01*
Y177596D01*
X59749Y177588D01*
X59756Y177565D01*
X59764Y177534D01*
X59787Y177465D01*
X59818Y177380D01*
X59864Y177288D01*
X59911Y177195D01*
X59964Y177110D01*
X60026Y177049D01*
X60034Y177041D01*
X60057Y177025D01*
X60096Y177002D01*
X60142Y176979D01*
X60196Y176956D01*
X60265Y176933D01*
X60342Y176918D01*
X60419Y176910D01*
X60458D01*
X60496Y176918D01*
X60550Y176925D01*
X60612Y176941D01*
X60681Y176971D01*
X60751Y177002D01*
X60812Y177049D01*
X60820Y177056D01*
X60843Y177079D01*
X60874Y177110D01*
X60913Y177164D01*
X60959Y177234D01*
X61005Y177318D01*
X61044Y177426D01*
X61082Y177557D01*
Y177565D01*
X61090Y177580D01*
X61098Y177611D01*
X61106Y177650D01*
X61113Y177704D01*
X61121Y177766D01*
X61136Y177843D01*
X61152Y177935D01*
X61159Y178035D01*
X61175Y178151D01*
X61183Y178282D01*
X61190Y178429D01*
X61198Y178591D01*
X61206Y178760D01*
X61213Y178953D01*
Y179153D01*
Y179169D01*
Y179200D01*
Y179261D01*
Y179338D01*
Y179431D01*
X61206Y179531D01*
Y179647D01*
X61198Y179770D01*
X61183Y180025D01*
X61167Y180279D01*
X61152Y180402D01*
X61136Y180518D01*
X61121Y180618D01*
X61098Y180703D01*
Y180711D01*
X61090Y180719D01*
Y180742D01*
X61075Y180772D01*
X61051Y180842D01*
X61021Y180934D01*
X60974Y181027D01*
X60928Y181119D01*
X60874Y181204D01*
X60812Y181266D01*
X60805Y181274D01*
X60782Y181289D01*
X60751Y181312D01*
X60697Y181343D01*
X60643Y181366D01*
X60574Y181389D01*
X60504Y181405D01*
X60419Y181412D01*
D02*
G37*
%LPD*%
D26*
X134626Y2657D02*
X154311D01*
Y51870D01*
X134626D02*
X154311D01*
X134626Y2657D02*
Y51870D01*
X130689Y12500D02*
X134626D01*
X130689D02*
Y42028D01*
X134626D01*
X112500Y32795D02*
X126279D01*
Y1614D02*
Y32795D01*
X99508Y1614D02*
X126279D01*
X99508D02*
Y32795D01*
X112500D01*
X23200Y115799D02*
Y115299D01*
X24200Y114299D01*
X25199Y115299D01*
Y115799D01*
X24200Y114299D02*
Y112800D01*
X26199D02*
X27199D01*
X26699D01*
Y115799D01*
X26199Y115299D01*
X75200Y178999D02*
Y176500D01*
X75700Y176000D01*
X76700D01*
X77199Y176500D01*
Y178999D01*
X80198D02*
X78199D01*
Y177499D01*
X79199Y177999D01*
X79699D01*
X80198Y177499D01*
Y176500D01*
X79699Y176000D01*
X78699D01*
X78199Y176500D01*
X36800Y117399D02*
Y114900D01*
X37300Y114400D01*
X38300D01*
X38799Y114900D01*
Y117399D01*
X41299Y114400D02*
Y117399D01*
X39799Y115900D01*
X41798D01*
X44800Y150999D02*
Y148500D01*
X45300Y148000D01*
X46299D01*
X46799Y148500D01*
Y150999D01*
X47799Y150499D02*
X48299Y150999D01*
X49299D01*
X49798Y150499D01*
Y149999D01*
X49299Y149499D01*
X48799D01*
X49299D01*
X49798Y149000D01*
Y148500D01*
X49299Y148000D01*
X48299D01*
X47799Y148500D01*
X101600Y62999D02*
Y60500D01*
X102100Y60000D01*
X103100D01*
X103599Y60500D01*
Y62999D01*
X106598Y60000D02*
X104599D01*
X106598Y61999D01*
Y62499D01*
X106099Y62999D01*
X105099D01*
X104599Y62499D01*
X55200Y32599D02*
Y30100D01*
X55700Y29600D01*
X56700D01*
X57199Y30100D01*
Y32599D01*
X58199Y29600D02*
X59199D01*
X58699D01*
Y32599D01*
X58199Y32099D01*
X157999Y76099D02*
X157500Y76599D01*
X156500D01*
X156000Y76099D01*
Y75599D01*
X156500Y75099D01*
X157500D01*
X157999Y74600D01*
Y74100D01*
X157500Y73600D01*
X156500D01*
X156000Y74100D01*
X158999Y73600D02*
X159999D01*
X159499D01*
Y76599D01*
X158999Y76099D01*
X116800Y92800D02*
Y95799D01*
X118299D01*
X118799Y95299D01*
Y94300D01*
X118299Y93800D01*
X116800D01*
X121299Y92800D02*
Y95799D01*
X119799Y94300D01*
X121798D01*
X2400Y80800D02*
Y83799D01*
X3900D01*
X4399Y83299D01*
Y82300D01*
X3900Y81800D01*
X2400D01*
X5399Y83299D02*
X5899Y83799D01*
X6899D01*
X7398Y83299D01*
Y82799D01*
X6899Y82300D01*
X6399D01*
X6899D01*
X7398Y81800D01*
Y81300D01*
X6899Y80800D01*
X5899D01*
X5399Y81300D01*
X127200Y44800D02*
Y47799D01*
X128700D01*
X129199Y47299D01*
Y46299D01*
X128700Y45800D01*
X127200D01*
X132198Y44800D02*
X130199D01*
X132198Y46799D01*
Y47299D01*
X131699Y47799D01*
X130699D01*
X130199Y47299D01*
X134400Y92800D02*
Y95799D01*
X135899D01*
X136399Y95299D01*
Y94300D01*
X135899Y93800D01*
X134400D01*
X137399Y92800D02*
X138399D01*
X137899D01*
Y95799D01*
X137399Y95299D01*
X71800Y71399D02*
Y68400D01*
X73799D01*
X74799D02*
X75799D01*
X75299D01*
Y71399D01*
X74799Y70899D01*
X7599Y59799D02*
X6600D01*
X7100D01*
Y57300D01*
X6600Y56800D01*
X6100D01*
X5600Y57300D01*
X8599Y56800D02*
X9599D01*
X9099D01*
Y59799D01*
X8599Y59299D01*
X96800Y84599D02*
Y81600D01*
X98299D01*
X98799Y82100D01*
Y84099D01*
X98299Y84599D01*
X96800D01*
X101798Y81600D02*
X99799D01*
X101798Y83599D01*
Y84099D01*
X101299Y84599D01*
X100299D01*
X99799Y84099D01*
X92800Y23799D02*
Y20800D01*
X94300D01*
X94799Y21300D01*
Y23299D01*
X94300Y23799D01*
X92800D01*
X95799Y20800D02*
X96799D01*
X96299D01*
Y23799D01*
X95799Y23299D01*
X8399Y99299D02*
X7899Y99799D01*
X6900D01*
X6400Y99299D01*
Y97300D01*
X6900Y96800D01*
X7899D01*
X8399Y97300D01*
X9399Y96800D02*
X10399D01*
X9899D01*
Y99799D01*
X9399Y99299D01*
X11898Y99799D02*
X13898D01*
Y99299D01*
X11898Y97300D01*
Y96800D01*
X7599Y114499D02*
X7100Y114999D01*
X6100D01*
X5600Y114499D01*
Y112500D01*
X6100Y112000D01*
X7100D01*
X7599Y112500D01*
X8599Y112000D02*
X9599D01*
X9099D01*
Y114999D01*
X8599Y114499D01*
X13098Y114999D02*
X11098D01*
Y113499D01*
X12098Y113999D01*
X12598D01*
X13098Y113499D01*
Y112500D01*
X12598Y112000D01*
X11598D01*
X11098Y112500D01*
X161999Y152899D02*
X161500Y153399D01*
X160500D01*
X160000Y152899D01*
Y150900D01*
X160500Y150400D01*
X161500D01*
X161999Y150900D01*
X162999Y150400D02*
X163999D01*
X163499D01*
Y153399D01*
X162999Y152899D01*
X165498D02*
X165998Y153399D01*
X166998D01*
X167498Y152899D01*
Y150900D01*
X166998Y150400D01*
X165998D01*
X165498Y150900D01*
Y152899D01*
X17999Y161699D02*
X17500Y162199D01*
X16500D01*
X16000Y161699D01*
Y159700D01*
X16500Y159200D01*
X17500D01*
X17999Y159700D01*
X18999Y161699D02*
X19499Y162199D01*
X20499D01*
X20998Y161699D01*
Y161199D01*
X20499Y160699D01*
X20998Y160200D01*
Y159700D01*
X20499Y159200D01*
X19499D01*
X18999Y159700D01*
Y160200D01*
X19499Y160699D01*
X18999Y161199D01*
Y161699D01*
X19499Y160699D02*
X20499D01*
X51599Y156099D02*
X51099Y156599D01*
X50100D01*
X49600Y156099D01*
Y154100D01*
X50100Y153600D01*
X51099D01*
X51599Y154100D01*
X52599Y156599D02*
X54598D01*
Y156099D01*
X52599Y154100D01*
Y153600D01*
X58799Y67299D02*
X58299Y67799D01*
X57300D01*
X56800Y67299D01*
Y65300D01*
X57300Y64800D01*
X58299D01*
X58799Y65300D01*
X61798Y67799D02*
X60799Y67299D01*
X59799Y66299D01*
Y65300D01*
X60299Y64800D01*
X61299D01*
X61798Y65300D01*
Y65800D01*
X61299Y66299D01*
X59799D01*
X119599Y77699D02*
X119099Y78199D01*
X118100D01*
X117600Y77699D01*
Y75700D01*
X118100Y75200D01*
X119099D01*
X119599Y75700D01*
X122099Y75200D02*
Y78199D01*
X120599Y76700D01*
X122598D01*
X81199Y34499D02*
X80699Y34999D01*
X79700D01*
X79200Y34499D01*
Y32500D01*
X79700Y32000D01*
X80699D01*
X81199Y32500D01*
X84198Y32000D02*
X82199D01*
X84198Y33999D01*
Y34499D01*
X83699Y34999D01*
X82699D01*
X82199Y34499D01*
X19599Y37699D02*
X19099Y38199D01*
X18100D01*
X17600Y37699D01*
Y35700D01*
X18100Y35200D01*
X19099D01*
X19599Y35700D01*
X20599Y35200D02*
X21599D01*
X21099D01*
Y38199D01*
X20599Y37699D01*
X108800Y37399D02*
Y34400D01*
X110300D01*
X110799Y34900D01*
Y35400D01*
X110300Y35899D01*
X108800D01*
X110300D01*
X110799Y36399D01*
Y36899D01*
X110300Y37399D01*
X108800D01*
X111799D02*
X113798D01*
X112799D01*
Y34400D01*
X114798D02*
X115798D01*
X115298D01*
Y37399D01*
X114798Y36899D01*
X36800Y178199D02*
Y175700D01*
X37300Y175200D01*
X38300D01*
X38799Y175700D01*
Y178199D01*
X41798D02*
X40799Y177699D01*
X39799Y176699D01*
Y175700D01*
X40299Y175200D01*
X41299D01*
X41798Y175700D01*
Y176200D01*
X41299Y176699D01*
X39799D01*
D38*
X99276Y59087D02*
G03*
X99276Y59087I-492J0D01*
G01*
X47264Y28346D02*
G03*
X47264Y28346I-492J0D01*
G01*
X39646Y110984D02*
G03*
X39646Y110984I-492J0D01*
G01*
X31358Y151752D02*
G03*
X31358Y151752I-492J0D01*
G01*
X31215Y173252D02*
G03*
X31215Y173252I-492J0D01*
G01*
D39*
X48898Y104783D02*
G03*
X48898Y104783I-1181J0D01*
G01*
D40*
X74626Y182441D02*
X153366D01*
X74626Y98976D02*
X153366D01*
X74626D02*
Y182441D01*
X153366Y98976D02*
Y182441D01*
X30512Y109823D02*
X31693D01*
Y90138D02*
Y109823D01*
X30512Y90138D02*
X31693D01*
X18307Y109823D02*
X19488D01*
X18307Y90138D02*
Y109823D01*
Y90138D02*
X19488D01*
D41*
X157126Y120158D02*
Y138022D01*
Y120158D02*
X159587D01*
X170413D02*
X172874D01*
Y138022D01*
X158947Y139842D02*
X159587D01*
X157126Y138022D02*
X158947Y139842D01*
X171053D02*
X172874Y138022D01*
X170413Y139842D02*
X171053D01*
X114600Y86200D02*
Y96200D01*
X74600Y86200D02*
X114600D01*
X74600Y96200D02*
X114600D01*
X74600Y86200D02*
Y96200D01*
X127874Y51978D02*
Y69842D01*
X125413D02*
X127874D01*
X112126D02*
X114587D01*
X112126Y51978D02*
Y69842D01*
X125413Y50157D02*
X126053D01*
X127874Y51978D01*
X112126D02*
X113947Y50157D01*
X114587D01*
X158110Y48484D02*
X171890D01*
X158110Y72106D02*
X171890D01*
X158110Y48484D02*
Y72106D01*
X171890Y48484D02*
Y72106D01*
X100000Y71969D02*
Y72756D01*
X96063Y66850D02*
Y73150D01*
X103937D01*
Y66850D02*
Y73150D01*
X96063Y66850D02*
X103937D01*
X100000Y71969D02*
X100000Y71969D01*
X100000Y67244D02*
Y71969D01*
X100000Y71969D02*
X100000D01*
X96063Y68032D02*
X100000Y71969D01*
X96063Y68032D02*
X103937D01*
X100000Y71969D02*
X103937Y68032D01*
X105575Y46291D02*
Y57709D01*
X102425Y46291D02*
Y57709D01*
Y46291D02*
X105575D01*
X102425Y57709D02*
X105575D01*
X92638Y12500D02*
X97362D01*
X88674Y8778D02*
Y26643D01*
X86213D02*
X88674D01*
X72926D02*
X75387D01*
X72926Y8778D02*
Y26643D01*
X86213Y6957D02*
X86853D01*
X88674Y8778D01*
X72926D02*
X74747Y6957D01*
X75387D01*
X52126Y40157D02*
Y58022D01*
Y40157D02*
X54587D01*
X65413D02*
X67874D01*
Y58022D01*
X53947Y59842D02*
X54587D01*
X52126Y58022D02*
X53947Y59842D01*
X66053D02*
X67874Y58022D01*
X65413Y59842D02*
X66053D01*
X51201Y7461D02*
X63799D01*
X51201Y27539D02*
X63799D01*
X14114Y6811D02*
Y28317D01*
Y6811D02*
X22677D01*
X32323D02*
X40886D01*
Y28317D01*
X18986Y33189D02*
X22677D01*
X14114Y28317D02*
X18986Y33189D01*
X36014D02*
X40886Y28317D01*
X32323Y33189D02*
X36014D01*
X45787Y47657D02*
Y67343D01*
X2087D02*
X45787D01*
X2087Y47657D02*
Y67343D01*
Y47657D02*
X45787D01*
X2200Y69400D02*
Y79400D01*
X42200D01*
X2200Y69400D02*
X42200D01*
Y79400D01*
X43780Y86279D02*
X66220D01*
X43780Y108721D02*
X66220D01*
Y86279D02*
Y108721D01*
X43780Y86279D02*
Y108721D01*
X10000Y90138D02*
Y94862D01*
Y105138D02*
Y109862D01*
X25374Y134478D02*
Y152342D01*
X22913D02*
X25374D01*
X9626D02*
X12087D01*
X9626Y134478D02*
Y152342D01*
X22913Y132658D02*
X23553D01*
X25374Y134478D01*
X9626D02*
X11447Y132658D01*
X12087D01*
X33425Y151555D02*
X43661D01*
Y147815D02*
Y151555D01*
X33425Y133445D02*
X43661D01*
Y137185D01*
X67874Y134478D02*
Y152342D01*
X65413D02*
X67874D01*
X52126D02*
X54587D01*
X52126Y134478D02*
Y152342D01*
X65413Y132658D02*
X66053D01*
X67874Y134478D01*
X52126D02*
X53947Y132658D01*
X54587D01*
X43518Y154945D02*
Y158685D01*
X33282Y154945D02*
X43518D01*
Y169315D02*
Y173055D01*
X33282D02*
X43518D01*
D42*
X140079Y55079D02*
X154842D01*
Y94449D01*
X140079D02*
X154842D01*
X140079Y55079D02*
Y94449D01*
X137618Y69842D02*
X140079D01*
X137618D02*
Y79685D01*
X140079D01*
X71083Y39488D02*
X93917D01*
Y65079D01*
X71083D02*
X93917D01*
X71083Y39488D02*
Y65079D01*
M02*
