%FSLAX25Y25*%
%MOIN*%
G70*
G01*
G75*
G04 Layer_Color=8388736*
%ADD10R,0.07874X0.03150*%
%ADD11R,0.08465X0.11221*%
%ADD12R,0.06693X0.06693*%
%ADD13R,0.04134X0.02362*%
%ADD14R,0.05512X0.04724*%
%ADD15R,0.09921X0.13425*%
%ADD16O,0.05709X0.02362*%
%ADD17R,0.07284X0.16339*%
%ADD18O,0.00984X0.06102*%
%ADD19O,0.06102X0.00984*%
%ADD20R,0.09449X0.07087*%
%ADD21R,0.04724X0.05512*%
%ADD22R,0.05512X0.02362*%
%ADD23R,0.07087X0.02362*%
G04:AMPARAMS|DCode=24|XSize=74.8mil|YSize=125.98mil|CornerRadius=0mil|HoleSize=0mil|Usage=FLASHONLY|Rotation=90.000|XOffset=0mil|YOffset=0mil|HoleType=Round|Shape=Octagon|*
%AMOCTAGOND24*
4,1,8,-0.06299,-0.01870,-0.06299,0.01870,-0.04429,0.03740,0.04429,0.03740,0.06299,0.01870,0.06299,-0.01870,0.04429,-0.03740,-0.04429,-0.03740,-0.06299,-0.01870,0.0*
%
%ADD24OCTAGOND24*%

%ADD25R,0.21654X0.09843*%
%ADD26C,0.01000*%
%ADD27C,0.02000*%
%ADD28C,0.05906*%
%ADD29R,0.05906X0.05906*%
%ADD30O,0.06299X0.03937*%
%ADD31C,0.07874*%
%ADD32C,0.06299*%
%ADD33C,0.09000*%
%ADD34C,0.01969*%
%ADD35C,0.01600*%
%ADD36C,0.03000*%
%ADD37R,0.12598X0.20472*%
%ADD38C,0.00984*%
%ADD39C,0.02362*%
%ADD40C,0.00800*%
%ADD41C,0.00787*%
%ADD42C,0.00600*%
%ADD43R,0.08674X0.03950*%
%ADD44R,0.09265X0.12020*%
%ADD45R,0.07493X0.07493*%
%ADD46R,0.04934X0.03162*%
%ADD47R,0.06312X0.05524*%
%ADD48R,0.10721X0.14225*%
%ADD49O,0.06509X0.03162*%
%ADD50R,0.08083X0.17139*%
%ADD51O,0.01784X0.06902*%
%ADD52O,0.06902X0.01784*%
%ADD53R,0.10249X0.07887*%
%ADD54R,0.05524X0.06312*%
%ADD55R,0.06312X0.03162*%
%ADD56R,0.07887X0.03162*%
G04:AMPARAMS|DCode=57|XSize=82.8mil|YSize=133.98mil|CornerRadius=0mil|HoleSize=0mil|Usage=FLASHONLY|Rotation=90.000|XOffset=0mil|YOffset=0mil|HoleType=Round|Shape=Octagon|*
%AMOCTAGOND57*
4,1,8,-0.06699,-0.02070,-0.06699,0.02070,-0.04629,0.04140,0.04629,0.04140,0.06699,0.02070,0.06699,-0.02070,0.04629,-0.04140,-0.04629,-0.04140,-0.06699,-0.02070,0.0*
%
%ADD57OCTAGOND57*%

%ADD58R,0.22453X0.10642*%
%ADD59C,0.06706*%
%ADD60R,0.06706X0.06706*%
%ADD61O,0.07099X0.04737*%
%ADD62C,0.08674*%
%ADD63C,0.07099*%
%ADD64C,0.09800*%
D43*
X145492Y160000D02*
D03*
Y152126D02*
D03*
Y144252D02*
D03*
Y136378D02*
D03*
Y128504D02*
D03*
Y120630D02*
D03*
Y112756D02*
D03*
Y104882D02*
D03*
X82500D02*
D03*
Y112756D02*
D03*
Y120630D02*
D03*
Y128504D02*
D03*
Y136378D02*
D03*
Y144252D02*
D03*
Y152126D02*
D03*
Y160000D02*
D03*
D44*
X165000Y121732D02*
D03*
Y138268D02*
D03*
X120000Y68268D02*
D03*
Y51732D02*
D03*
X80800Y25068D02*
D03*
Y8532D02*
D03*
X60000Y41732D02*
D03*
Y58268D02*
D03*
X17500Y150768D02*
D03*
Y134232D02*
D03*
X60000Y150768D02*
D03*
Y134232D02*
D03*
D45*
X100000Y76850D02*
D03*
Y63150D02*
D03*
D46*
X109216Y55740D02*
D03*
Y52000D02*
D03*
Y48260D02*
D03*
X98783D02*
D03*
Y52000D02*
D03*
Y55740D02*
D03*
D47*
X95000Y16043D02*
D03*
Y8957D02*
D03*
D48*
X57500Y17500D02*
D03*
D49*
X68228Y10000D02*
D03*
Y15000D02*
D03*
Y20000D02*
D03*
Y25000D02*
D03*
X46772Y10000D02*
D03*
Y15000D02*
D03*
Y20000D02*
D03*
Y25000D02*
D03*
D50*
X27500Y11240D02*
D03*
Y28760D02*
D03*
D51*
X44173Y113347D02*
D03*
X46142D02*
D03*
X48110D02*
D03*
X50079D02*
D03*
X52047D02*
D03*
X54016D02*
D03*
X55984D02*
D03*
X57953D02*
D03*
X59921D02*
D03*
X61890D02*
D03*
X63858D02*
D03*
X65827D02*
D03*
Y81653D02*
D03*
X63858D02*
D03*
X61890D02*
D03*
X59921D02*
D03*
X57953D02*
D03*
X55984D02*
D03*
X54016D02*
D03*
X52047D02*
D03*
X50079D02*
D03*
X48110D02*
D03*
X46142D02*
D03*
X44173D02*
D03*
D52*
X70846Y108327D02*
D03*
Y106358D02*
D03*
Y104390D02*
D03*
Y102421D02*
D03*
Y100453D02*
D03*
Y98484D02*
D03*
Y96516D02*
D03*
Y94547D02*
D03*
Y92579D02*
D03*
Y90610D02*
D03*
Y88642D02*
D03*
Y86673D02*
D03*
X39154D02*
D03*
Y88642D02*
D03*
Y90610D02*
D03*
Y92579D02*
D03*
Y94547D02*
D03*
Y96516D02*
D03*
Y98484D02*
D03*
Y100453D02*
D03*
Y102421D02*
D03*
Y104390D02*
D03*
Y106358D02*
D03*
Y108327D02*
D03*
D53*
X25000Y107461D02*
D03*
Y92500D02*
D03*
D54*
X13543Y92500D02*
D03*
X6457D02*
D03*
X13543Y107500D02*
D03*
X6457D02*
D03*
D55*
X31063Y148406D02*
D03*
Y136594D02*
D03*
X30920Y158095D02*
D03*
Y169905D02*
D03*
D56*
X31850Y142500D02*
D03*
X31707Y164000D02*
D03*
D57*
X41693Y142500D02*
D03*
X41550Y164000D02*
D03*
D58*
X82500Y59567D02*
D03*
Y45000D02*
D03*
D59*
X79600Y91200D02*
D03*
X89600D02*
D03*
X99600D02*
D03*
X142500Y42028D02*
D03*
X37200Y74400D02*
D03*
X27200D02*
D03*
X17200D02*
D03*
D60*
X109600Y91200D02*
D03*
X7200Y74400D02*
D03*
D61*
X145000Y89528D02*
D03*
Y84606D02*
D03*
Y79685D02*
D03*
Y74764D02*
D03*
Y69842D02*
D03*
Y64921D02*
D03*
Y60000D02*
D03*
D62*
X165000Y47500D02*
D03*
Y73090D02*
D03*
X45000Y57500D02*
D03*
X35000Y47500D02*
D03*
X25000Y57500D02*
D03*
X167500Y12500D02*
D03*
Y175000D02*
D03*
X5000D02*
D03*
Y12500D02*
D03*
D63*
X142500D02*
D03*
Y22343D02*
D03*
Y32185D02*
D03*
D64*
X112500Y25000D02*
D03*
Y9409D02*
D03*
M02*
