%FSLAX25Y25*%
%MOIN*%
G70*
G01*
G75*
%ADD10R,0.09449X0.07087*%
%ADD11O,0.02756X0.09843*%
%ADD12R,0.03937X0.11417*%
%ADD13R,0.40945X0.31496*%
%ADD14R,0.05512X0.04724*%
%ADD15R,0.04724X0.05512*%
%ADD16R,0.21654X0.23228*%
%ADD17R,0.03543X0.07087*%
%ADD18R,0.04528X0.02362*%
%ADD19R,0.06693X0.06693*%
%ADD20R,0.09252X0.20276*%
%ADD21R,0.07992X0.08976*%
%ADD22R,0.09843X0.05512*%
%ADD23R,0.06693X0.06693*%
%ADD24R,0.19685X0.31496*%
%ADD25R,0.09449X0.03937*%
%ADD26R,0.09449X0.12992*%
%ADD27R,0.08465X0.11221*%
G04:AMPARAMS|DCode=28|XSize=11.81mil|YSize=59.06mil|CornerRadius=2.95mil|HoleSize=0mil|Usage=FLASHONLY|Rotation=90.000|XOffset=0mil|YOffset=0mil|HoleType=Round|Shape=RoundedRectangle|*
%AMROUNDEDRECTD28*
21,1,0.01181,0.05315,0,0,90.0*
21,1,0.00591,0.05906,0,0,90.0*
1,1,0.00591,0.02658,0.00295*
1,1,0.00591,0.02658,-0.00295*
1,1,0.00591,-0.02658,-0.00295*
1,1,0.00591,-0.02658,0.00295*
%
%ADD28ROUNDEDRECTD28*%
G04:AMPARAMS|DCode=29|XSize=11.81mil|YSize=59.06mil|CornerRadius=2.95mil|HoleSize=0mil|Usage=FLASHONLY|Rotation=180.000|XOffset=0mil|YOffset=0mil|HoleType=Round|Shape=RoundedRectangle|*
%AMROUNDEDRECTD29*
21,1,0.01181,0.05315,0,0,180.0*
21,1,0.00591,0.05906,0,0,180.0*
1,1,0.00591,-0.00295,0.02658*
1,1,0.00591,0.00295,0.02658*
1,1,0.00591,0.00295,-0.02658*
1,1,0.00591,-0.00295,-0.02658*
%
%ADD29ROUNDEDRECTD29*%
%ADD30R,0.07874X0.03150*%
%ADD31R,0.07874X0.02992*%
%ADD32O,0.06102X0.00984*%
%ADD33O,0.00984X0.06102*%
%ADD34O,0.08858X0.02362*%
%ADD35O,0.09843X0.02756*%
%ADD36R,0.07284X0.16339*%
%ADD37R,0.02362X0.04528*%
%ADD38R,0.20276X0.09252*%
G04:AMPARAMS|DCode=39|XSize=25.59mil|YSize=64.96mil|CornerRadius=1.92mil|HoleSize=0mil|Usage=FLASHONLY|Rotation=0.000|XOffset=0mil|YOffset=0mil|HoleType=Round|Shape=RoundedRectangle|*
%AMROUNDEDRECTD39*
21,1,0.02559,0.06112,0,0,0.0*
21,1,0.02175,0.06496,0,0,0.0*
1,1,0.00384,0.01088,-0.03056*
1,1,0.00384,-0.01088,-0.03056*
1,1,0.00384,-0.01088,0.03056*
1,1,0.00384,0.01088,0.03056*
%
%ADD39ROUNDEDRECTD39*%
%ADD40C,0.01000*%
%ADD41C,0.04000*%
%ADD42C,0.02000*%
%ADD43C,0.10000*%
%ADD44C,0.12000*%
%ADD45C,0.07874*%
%ADD46O,0.07874X0.03937*%
%ADD47O,0.07874X0.03937*%
%ADD48C,0.10000*%
%ADD49C,0.05906*%
%ADD50R,0.05906X0.05906*%
%ADD51C,0.06299*%
%ADD52C,0.11000*%
%ADD53C,0.15748*%
%ADD54R,0.07284X0.07284*%
%ADD55C,0.07284*%
%ADD56R,0.07874X0.07874*%
%ADD57C,0.11811*%
%ADD58C,0.01500*%
%ADD59C,0.01600*%
%ADD60C,0.03500*%
%ADD61C,0.06000*%
%ADD62C,0.03000*%
%ADD63C,0.07000*%
%ADD64R,0.02165X0.03543*%
%ADD65C,0.00984*%
%ADD66C,0.00787*%
%ADD67C,0.01969*%
%ADD68C,0.02362*%
%ADD69C,0.00800*%
%ADD70C,0.00600*%
G36*
X342779Y-117165D02*
X342834D01*
X342899Y-117170D01*
X342968Y-117175D01*
X343116Y-117189D01*
X343264Y-117207D01*
X343333Y-117216D01*
X343402Y-117230D01*
X343462Y-117249D01*
X343518Y-117267D01*
X343523D01*
X343532Y-117272D01*
X343546Y-117276D01*
X343564Y-117286D01*
X343615Y-117313D01*
X343680Y-117350D01*
X343754Y-117401D01*
X343827Y-117466D01*
X343901Y-117544D01*
X343966Y-117637D01*
Y-117641D01*
X343975Y-117650D01*
X343980Y-117664D01*
X343994Y-117683D01*
X344008Y-117706D01*
X344022Y-117738D01*
X344054Y-117812D01*
X344081Y-117900D01*
X344109Y-118002D01*
X344128Y-118113D01*
X344137Y-118237D01*
Y-118242D01*
Y-118256D01*
Y-118279D01*
X344132Y-118311D01*
X344128Y-118348D01*
X344123Y-118390D01*
X344114Y-118436D01*
X344105Y-118491D01*
X344077Y-118602D01*
X344031Y-118722D01*
X344003Y-118782D01*
X343966Y-118842D01*
X343929Y-118898D01*
X343883Y-118953D01*
X343878Y-118958D01*
X343869Y-118967D01*
X343855Y-118981D01*
X343837Y-119000D01*
X343809Y-119023D01*
X343777Y-119046D01*
X343740Y-119073D01*
X343693Y-119101D01*
X343643Y-119133D01*
X343587Y-119166D01*
X343523Y-119194D01*
X343458Y-119221D01*
X343384Y-119249D01*
X343301Y-119272D01*
X343218Y-119291D01*
X343125Y-119309D01*
X343130D01*
X343134Y-119314D01*
X343148Y-119323D01*
X343167Y-119332D01*
X343213Y-119365D01*
X343268Y-119402D01*
X343333Y-119448D01*
X343402Y-119503D01*
X343472Y-119563D01*
X343536Y-119628D01*
X343546Y-119637D01*
X343555Y-119646D01*
X343564Y-119660D01*
X343583Y-119683D01*
X343601Y-119706D01*
X343624Y-119739D01*
X343652Y-119771D01*
X343680Y-119813D01*
X343717Y-119859D01*
X343749Y-119910D01*
X343791Y-119965D01*
X343832Y-120025D01*
X343878Y-120095D01*
X343924Y-120168D01*
X343975Y-120252D01*
X344446Y-121000D01*
X343518D01*
X342964Y-120164D01*
X342959Y-120159D01*
X342950Y-120145D01*
X342936Y-120122D01*
X342917Y-120095D01*
X342890Y-120057D01*
X342862Y-120016D01*
X342802Y-119928D01*
X342733Y-119831D01*
X342663Y-119739D01*
X342631Y-119697D01*
X342603Y-119660D01*
X342575Y-119628D01*
X342552Y-119605D01*
X342548Y-119600D01*
X342534Y-119586D01*
X342511Y-119563D01*
X342483Y-119540D01*
X342451Y-119512D01*
X342409Y-119485D01*
X342368Y-119462D01*
X342321Y-119443D01*
X342317D01*
X342298Y-119434D01*
X342266Y-119429D01*
X342224Y-119420D01*
X342174Y-119411D01*
X342104Y-119406D01*
X342026Y-119397D01*
X341776D01*
Y-121000D01*
X341000D01*
Y-117161D01*
X342728D01*
X342779Y-117165D01*
D02*
G37*
G36*
X346401Y-128999D02*
X347722Y-131000D01*
X346789D01*
X345939Y-129702D01*
X345089Y-131000D01*
X344156D01*
X345481Y-129004D01*
X344280Y-127161D01*
X345186D01*
X345943Y-128311D01*
X346701Y-127161D01*
X347607D01*
X346401Y-128999D01*
D02*
G37*
G36*
X411699Y-93243D02*
X410005Y-94283D01*
X411699D01*
Y-94752D01*
X409181D01*
Y-94243D01*
X410836Y-93222D01*
X409181D01*
Y-92752D01*
X411699D01*
Y-93243D01*
D02*
G37*
G36*
X346724Y-119000D02*
X348045Y-121000D01*
X347112D01*
X346262Y-119702D01*
X345412Y-121000D01*
X344479D01*
X345805Y-119004D01*
X344604Y-117161D01*
X345509D01*
X346267Y-118311D01*
X347024Y-117161D01*
X347930D01*
X346724Y-119000D01*
D02*
G37*
G36*
X344045Y-127808D02*
X342913D01*
Y-131000D01*
X342137D01*
Y-127808D01*
X341000D01*
Y-127161D01*
X344045D01*
Y-127808D01*
D02*
G37*
G36*
X375321Y-140152D02*
X375367Y-140156D01*
X375423Y-140165D01*
X375483Y-140175D01*
X375543Y-140189D01*
X375612Y-140207D01*
X375682Y-140230D01*
X375756Y-140258D01*
X375830Y-140295D01*
X375899Y-140332D01*
X375973Y-140378D01*
X376037Y-140433D01*
X376102Y-140493D01*
X376107Y-140498D01*
X376116Y-140507D01*
X376125Y-140521D01*
X376144Y-140544D01*
X376167Y-140572D01*
X376190Y-140604D01*
X376213Y-140641D01*
X376241Y-140683D01*
X376287Y-140775D01*
X376333Y-140886D01*
X376352Y-140946D01*
X376361Y-141006D01*
X376370Y-141071D01*
X376375Y-141136D01*
Y-141140D01*
Y-141159D01*
X376370Y-141186D01*
X376365Y-141219D01*
X376356Y-141260D01*
X376347Y-141311D01*
X376328Y-141367D01*
X376305Y-141427D01*
X376278Y-141491D01*
X376241Y-141556D01*
X376195Y-141625D01*
X376139Y-141690D01*
X376079Y-141759D01*
X376005Y-141824D01*
X375917Y-141884D01*
X375820Y-141944D01*
X375825D01*
X375834Y-141949D01*
X375853Y-141953D01*
X375876Y-141958D01*
X375903Y-141967D01*
X375936Y-141981D01*
X376010Y-142009D01*
X376093Y-142050D01*
X376181Y-142106D01*
X376268Y-142175D01*
X376347Y-142258D01*
X376352Y-142263D01*
X376356Y-142268D01*
X376365Y-142281D01*
X376379Y-142300D01*
X376393Y-142328D01*
X376412Y-142355D01*
X376449Y-142425D01*
X376481Y-142512D01*
X376513Y-142614D01*
X376536Y-142729D01*
X376546Y-142790D01*
Y-142854D01*
Y-142859D01*
Y-142877D01*
Y-142905D01*
X376541Y-142937D01*
X376536Y-142984D01*
X376527Y-143034D01*
X376513Y-143090D01*
X376499Y-143150D01*
X376481Y-143215D01*
X376458Y-143284D01*
X376426Y-143358D01*
X376389Y-143427D01*
X376347Y-143501D01*
X376296Y-143575D01*
X376241Y-143644D01*
X376176Y-143714D01*
X376171Y-143718D01*
X376157Y-143727D01*
X376139Y-143746D01*
X376111Y-143769D01*
X376074Y-143797D01*
X376028Y-143824D01*
X375982Y-143857D01*
X375922Y-143889D01*
X375857Y-143921D01*
X375788Y-143954D01*
X375714Y-143982D01*
X375631Y-144009D01*
X375548Y-144032D01*
X375455Y-144051D01*
X375358Y-144060D01*
X375257Y-144065D01*
X375206D01*
X375169Y-144060D01*
X375127Y-144055D01*
X375077Y-144051D01*
X375016Y-144042D01*
X374956Y-144028D01*
X374818Y-143991D01*
X374748Y-143968D01*
X374675Y-143940D01*
X374601Y-143908D01*
X374531Y-143866D01*
X374457Y-143820D01*
X374393Y-143769D01*
X374388Y-143764D01*
X374379Y-143755D01*
X374360Y-143737D01*
X374337Y-143714D01*
X374314Y-143686D01*
X374282Y-143649D01*
X374250Y-143607D01*
X374217Y-143556D01*
X374180Y-143506D01*
X374148Y-143446D01*
X374115Y-143381D01*
X374083Y-143312D01*
X374055Y-143238D01*
X374032Y-143155D01*
X374014Y-143071D01*
X374000Y-142984D01*
X374711Y-142896D01*
Y-142900D01*
Y-142910D01*
X374716Y-142923D01*
X374721Y-142942D01*
X374730Y-142988D01*
X374748Y-143048D01*
X374771Y-143118D01*
X374799Y-143187D01*
X374841Y-143252D01*
X374892Y-143312D01*
X374896Y-143316D01*
X374919Y-143335D01*
X374952Y-143358D01*
X374993Y-143381D01*
X375044Y-143409D01*
X375104Y-143432D01*
X375173Y-143450D01*
X375252Y-143455D01*
X375261D01*
X375289Y-143450D01*
X375331Y-143446D01*
X375386Y-143432D01*
X375446Y-143413D01*
X375511Y-143381D01*
X375575Y-143339D01*
X375636Y-143284D01*
X375640Y-143275D01*
X375659Y-143252D01*
X375686Y-143215D01*
X375714Y-143164D01*
X375742Y-143095D01*
X375769Y-143016D01*
X375788Y-142923D01*
X375793Y-142822D01*
Y-142817D01*
Y-142808D01*
Y-142794D01*
Y-142776D01*
X375783Y-142725D01*
X375774Y-142665D01*
X375756Y-142591D01*
X375728Y-142522D01*
X375691Y-142448D01*
X375640Y-142383D01*
X375636Y-142374D01*
X375612Y-142355D01*
X375580Y-142332D01*
X375538Y-142300D01*
X375488Y-142268D01*
X375428Y-142244D01*
X375358Y-142226D01*
X375280Y-142217D01*
X375257D01*
X375224Y-142221D01*
X375187D01*
X375136Y-142230D01*
X375081Y-142240D01*
X375016Y-142254D01*
X374947Y-142272D01*
X375026Y-141676D01*
X375077D01*
X375127Y-141672D01*
X375192Y-141662D01*
X375266Y-141648D01*
X375340Y-141625D01*
X375414Y-141593D01*
X375478Y-141551D01*
X375483Y-141547D01*
X375501Y-141524D01*
X375529Y-141496D01*
X375557Y-141454D01*
X375585Y-141399D01*
X375612Y-141339D01*
X375631Y-141265D01*
X375636Y-141182D01*
Y-141173D01*
Y-141149D01*
X375631Y-141112D01*
X375622Y-141071D01*
X375608Y-141020D01*
X375585Y-140969D01*
X375557Y-140919D01*
X375520Y-140872D01*
X375515Y-140868D01*
X375497Y-140854D01*
X375474Y-140835D01*
X375437Y-140812D01*
X375395Y-140794D01*
X375344Y-140775D01*
X375284Y-140761D01*
X375215Y-140757D01*
X375183D01*
X375150Y-140761D01*
X375104Y-140775D01*
X375053Y-140789D01*
X374998Y-140812D01*
X374942Y-140845D01*
X374892Y-140891D01*
X374887Y-140895D01*
X374873Y-140914D01*
X374850Y-140946D01*
X374822Y-140988D01*
X374795Y-141039D01*
X374771Y-141103D01*
X374748Y-141182D01*
X374735Y-141270D01*
X374055Y-141159D01*
Y-141154D01*
X374060Y-141145D01*
X374065Y-141126D01*
X374069Y-141099D01*
X374074Y-141071D01*
X374083Y-141039D01*
X374106Y-140955D01*
X374139Y-140868D01*
X374171Y-140775D01*
X374213Y-140683D01*
X374263Y-140600D01*
Y-140595D01*
X374268Y-140590D01*
X374291Y-140563D01*
X374323Y-140526D01*
X374365Y-140480D01*
X374425Y-140424D01*
X374490Y-140369D01*
X374573Y-140318D01*
X374661Y-140267D01*
X374665D01*
X374675Y-140262D01*
X374688Y-140258D01*
X374707Y-140249D01*
X374730Y-140239D01*
X374758Y-140230D01*
X374832Y-140207D01*
X374915Y-140184D01*
X375012Y-140165D01*
X375118Y-140152D01*
X375234Y-140147D01*
X375284D01*
X375321Y-140152D01*
D02*
G37*
G36*
X377895Y-144000D02*
X377160D01*
Y-143265D01*
X377895D01*
Y-144000D01*
D02*
G37*
G36*
X383453D02*
X382616D01*
X381244Y-140161D01*
X382080D01*
X383055Y-143002D01*
X383993Y-140161D01*
X384820D01*
X383453Y-144000D01*
D02*
G37*
G36*
X379789Y-140152D02*
X379835Y-140156D01*
X379890Y-140165D01*
X379951Y-140175D01*
X380011Y-140189D01*
X380080Y-140207D01*
X380149Y-140230D01*
X380223Y-140258D01*
X380297Y-140295D01*
X380366Y-140332D01*
X380440Y-140378D01*
X380505Y-140433D01*
X380570Y-140493D01*
X380574Y-140498D01*
X380584Y-140507D01*
X380593Y-140521D01*
X380611Y-140544D01*
X380634Y-140572D01*
X380657Y-140604D01*
X380680Y-140641D01*
X380708Y-140683D01*
X380754Y-140775D01*
X380801Y-140886D01*
X380819Y-140946D01*
X380828Y-141006D01*
X380838Y-141071D01*
X380842Y-141136D01*
Y-141140D01*
Y-141159D01*
X380838Y-141186D01*
X380833Y-141219D01*
X380824Y-141260D01*
X380815Y-141311D01*
X380796Y-141367D01*
X380773Y-141427D01*
X380745Y-141491D01*
X380708Y-141556D01*
X380662Y-141625D01*
X380607Y-141690D01*
X380546Y-141759D01*
X380473Y-141824D01*
X380385Y-141884D01*
X380288Y-141944D01*
X380292D01*
X380302Y-141949D01*
X380320Y-141953D01*
X380343Y-141958D01*
X380371Y-141967D01*
X380403Y-141981D01*
X380477Y-142009D01*
X380560Y-142050D01*
X380648Y-142106D01*
X380736Y-142175D01*
X380815Y-142258D01*
X380819Y-142263D01*
X380824Y-142268D01*
X380833Y-142281D01*
X380847Y-142300D01*
X380861Y-142328D01*
X380879Y-142355D01*
X380916Y-142425D01*
X380948Y-142512D01*
X380981Y-142614D01*
X381004Y-142729D01*
X381013Y-142790D01*
Y-142854D01*
Y-142859D01*
Y-142877D01*
Y-142905D01*
X381009Y-142937D01*
X381004Y-142984D01*
X380995Y-143034D01*
X380981Y-143090D01*
X380967Y-143150D01*
X380948Y-143215D01*
X380925Y-143284D01*
X380893Y-143358D01*
X380856Y-143427D01*
X380815Y-143501D01*
X380764Y-143575D01*
X380708Y-143644D01*
X380644Y-143714D01*
X380639Y-143718D01*
X380625Y-143727D01*
X380607Y-143746D01*
X380579Y-143769D01*
X380542Y-143797D01*
X380496Y-143824D01*
X380450Y-143857D01*
X380389Y-143889D01*
X380325Y-143921D01*
X380256Y-143954D01*
X380182Y-143982D01*
X380098Y-144009D01*
X380015Y-144032D01*
X379923Y-144051D01*
X379826Y-144060D01*
X379724Y-144065D01*
X379673D01*
X379636Y-144060D01*
X379595Y-144055D01*
X379544Y-144051D01*
X379484Y-144042D01*
X379424Y-144028D01*
X379285Y-143991D01*
X379216Y-143968D01*
X379142Y-143940D01*
X379068Y-143908D01*
X378999Y-143866D01*
X378925Y-143820D01*
X378860Y-143769D01*
X378856Y-143764D01*
X378846Y-143755D01*
X378828Y-143737D01*
X378805Y-143714D01*
X378782Y-143686D01*
X378749Y-143649D01*
X378717Y-143607D01*
X378685Y-143556D01*
X378648Y-143506D01*
X378615Y-143446D01*
X378583Y-143381D01*
X378551Y-143312D01*
X378523Y-143238D01*
X378500Y-143155D01*
X378481Y-143071D01*
X378467Y-142984D01*
X379179Y-142896D01*
Y-142900D01*
Y-142910D01*
X379184Y-142923D01*
X379188Y-142942D01*
X379198Y-142988D01*
X379216Y-143048D01*
X379239Y-143118D01*
X379267Y-143187D01*
X379308Y-143252D01*
X379359Y-143312D01*
X379364Y-143316D01*
X379387Y-143335D01*
X379419Y-143358D01*
X379461Y-143381D01*
X379512Y-143409D01*
X379572Y-143432D01*
X379641Y-143450D01*
X379720Y-143455D01*
X379729D01*
X379756Y-143450D01*
X379798Y-143446D01*
X379854Y-143432D01*
X379914Y-143413D01*
X379978Y-143381D01*
X380043Y-143339D01*
X380103Y-143284D01*
X380108Y-143275D01*
X380126Y-143252D01*
X380154Y-143215D01*
X380182Y-143164D01*
X380209Y-143095D01*
X380237Y-143016D01*
X380256Y-142923D01*
X380260Y-142822D01*
Y-142817D01*
Y-142808D01*
Y-142794D01*
Y-142776D01*
X380251Y-142725D01*
X380242Y-142665D01*
X380223Y-142591D01*
X380195Y-142522D01*
X380158Y-142448D01*
X380108Y-142383D01*
X380103Y-142374D01*
X380080Y-142355D01*
X380048Y-142332D01*
X380006Y-142300D01*
X379955Y-142268D01*
X379895Y-142244D01*
X379826Y-142226D01*
X379747Y-142217D01*
X379724D01*
X379692Y-142221D01*
X379655D01*
X379604Y-142230D01*
X379549Y-142240D01*
X379484Y-142254D01*
X379415Y-142272D01*
X379493Y-141676D01*
X379544D01*
X379595Y-141672D01*
X379660Y-141662D01*
X379733Y-141648D01*
X379807Y-141625D01*
X379881Y-141593D01*
X379946Y-141551D01*
X379951Y-141547D01*
X379969Y-141524D01*
X379997Y-141496D01*
X380025Y-141454D01*
X380052Y-141399D01*
X380080Y-141339D01*
X380098Y-141265D01*
X380103Y-141182D01*
Y-141173D01*
Y-141149D01*
X380098Y-141112D01*
X380089Y-141071D01*
X380075Y-141020D01*
X380052Y-140969D01*
X380025Y-140919D01*
X379988Y-140872D01*
X379983Y-140868D01*
X379964Y-140854D01*
X379941Y-140835D01*
X379904Y-140812D01*
X379863Y-140794D01*
X379812Y-140775D01*
X379752Y-140761D01*
X379683Y-140757D01*
X379650D01*
X379618Y-140761D01*
X379572Y-140775D01*
X379521Y-140789D01*
X379466Y-140812D01*
X379410Y-140845D01*
X379359Y-140891D01*
X379355Y-140895D01*
X379341Y-140914D01*
X379318Y-140946D01*
X379290Y-140988D01*
X379262Y-141039D01*
X379239Y-141103D01*
X379216Y-141182D01*
X379202Y-141270D01*
X378523Y-141159D01*
Y-141154D01*
X378528Y-141145D01*
X378532Y-141126D01*
X378537Y-141099D01*
X378541Y-141071D01*
X378551Y-141039D01*
X378574Y-140955D01*
X378606Y-140868D01*
X378639Y-140775D01*
X378680Y-140683D01*
X378731Y-140600D01*
Y-140595D01*
X378735Y-140590D01*
X378759Y-140563D01*
X378791Y-140526D01*
X378833Y-140480D01*
X378893Y-140424D01*
X378957Y-140369D01*
X379040Y-140318D01*
X379128Y-140267D01*
X379133D01*
X379142Y-140262D01*
X379156Y-140258D01*
X379174Y-140249D01*
X379198Y-140239D01*
X379225Y-140230D01*
X379299Y-140207D01*
X379382Y-140184D01*
X379479Y-140165D01*
X379586Y-140152D01*
X379701Y-140147D01*
X379752D01*
X379789Y-140152D01*
D02*
G37*
G36*
X410487Y-89916D02*
X410520D01*
X410560Y-89919D01*
X410602Y-89922D01*
X410648Y-89929D01*
X410699Y-89935D01*
X410751Y-89941D01*
X410857Y-89962D01*
X410966Y-89989D01*
X411069Y-90026D01*
X411072D01*
X411078Y-90029D01*
X411087Y-90035D01*
X411102Y-90041D01*
X411117Y-90050D01*
X411138Y-90062D01*
X411184Y-90089D01*
X411235Y-90122D01*
X411293Y-90162D01*
X411354Y-90210D01*
X411411Y-90262D01*
X411414Y-90265D01*
X411417Y-90268D01*
X411426Y-90277D01*
X411435Y-90289D01*
X411463Y-90319D01*
X411499Y-90359D01*
X411535Y-90407D01*
X411575Y-90462D01*
X411611Y-90522D01*
X411642Y-90586D01*
Y-90589D01*
X411645Y-90598D01*
X411651Y-90610D01*
X411657Y-90628D01*
X411666Y-90650D01*
X411672Y-90677D01*
X411681Y-90707D01*
X411693Y-90744D01*
X411702Y-90780D01*
X411711Y-90822D01*
X411717Y-90868D01*
X411726Y-90913D01*
X411738Y-91016D01*
X411741Y-91128D01*
Y-91131D01*
Y-91135D01*
Y-91153D01*
X411738Y-91183D01*
X411735Y-91222D01*
X411732Y-91268D01*
X411723Y-91322D01*
X411711Y-91383D01*
X411699Y-91450D01*
X411681Y-91519D01*
X411657Y-91592D01*
X411629Y-91665D01*
X411596Y-91741D01*
X411557Y-91813D01*
X411511Y-91886D01*
X411457Y-91956D01*
X411396Y-92019D01*
X411393Y-92022D01*
X411381Y-92034D01*
X411360Y-92049D01*
X411332Y-92071D01*
X411296Y-92098D01*
X411254Y-92125D01*
X411205Y-92156D01*
X411148Y-92189D01*
X411081Y-92219D01*
X411011Y-92250D01*
X410932Y-92277D01*
X410845Y-92304D01*
X410754Y-92325D01*
X410654Y-92340D01*
X410548Y-92352D01*
X410435Y-92356D01*
X410408D01*
X410378Y-92352D01*
X410335Y-92349D01*
X410284Y-92347D01*
X410223Y-92337D01*
X410160Y-92328D01*
X410087Y-92313D01*
X410011Y-92295D01*
X409936Y-92274D01*
X409857Y-92247D01*
X409775Y-92216D01*
X409696Y-92177D01*
X409620Y-92131D01*
X409548Y-92080D01*
X409481Y-92022D01*
X409478Y-92019D01*
X409466Y-92007D01*
X409451Y-91989D01*
X409426Y-91962D01*
X409402Y-91928D01*
X409372Y-91889D01*
X409342Y-91840D01*
X409311Y-91789D01*
X409278Y-91728D01*
X409248Y-91662D01*
X409218Y-91589D01*
X409193Y-91510D01*
X409169Y-91425D01*
X409154Y-91334D01*
X409142Y-91237D01*
X409139Y-91137D01*
Y-91135D01*
Y-91131D01*
Y-91113D01*
X409142Y-91083D01*
X409145Y-91044D01*
X409148Y-90998D01*
X409157Y-90941D01*
X409166Y-90880D01*
X409181Y-90813D01*
X409199Y-90744D01*
X409224Y-90671D01*
X409251Y-90598D01*
X409284Y-90522D01*
X409324Y-90450D01*
X409369Y-90377D01*
X409420Y-90307D01*
X409481Y-90244D01*
X409484Y-90241D01*
X409496Y-90228D01*
X409517Y-90213D01*
X409545Y-90192D01*
X409578Y-90168D01*
X409620Y-90141D01*
X409672Y-90110D01*
X409726Y-90080D01*
X409790Y-90047D01*
X409863Y-90019D01*
X409939Y-89989D01*
X410023Y-89965D01*
X410114Y-89944D01*
X410211Y-89929D01*
X410314Y-89916D01*
X410423Y-89913D01*
X410460D01*
X410487Y-89916D01*
D02*
G37*
G36*
X380799Y-135586D02*
X380817D01*
X380838Y-135589D01*
X380887Y-135595D01*
X380944Y-135607D01*
X381008Y-135625D01*
X381074Y-135649D01*
X381138Y-135683D01*
X381141D01*
X381147Y-135689D01*
X381153Y-135695D01*
X381165Y-135701D01*
X381199Y-135725D01*
X381235Y-135761D01*
X381280Y-135804D01*
X381323Y-135858D01*
X381365Y-135925D01*
X381405Y-136001D01*
Y-135998D01*
X381408Y-135992D01*
X381414Y-135983D01*
X381420Y-135970D01*
X381438Y-135937D01*
X381462Y-135898D01*
X381492Y-135852D01*
X381529Y-135810D01*
X381571Y-135767D01*
X381620Y-135731D01*
X381623D01*
X381626Y-135728D01*
X381644Y-135719D01*
X381671Y-135704D01*
X381711Y-135689D01*
X381756Y-135674D01*
X381808Y-135658D01*
X381862Y-135649D01*
X381923Y-135646D01*
X381950D01*
X381971Y-135649D01*
X381993Y-135652D01*
X382023Y-135655D01*
X382053Y-135661D01*
X382086Y-135671D01*
X382159Y-135695D01*
X382199Y-135710D01*
X382238Y-135728D01*
X382277Y-135749D01*
X382317Y-135777D01*
X382353Y-135807D01*
X382389Y-135840D01*
X382393Y-135843D01*
X382399Y-135849D01*
X382408Y-135861D01*
X382420Y-135877D01*
X382432Y-135898D01*
X382447Y-135922D01*
X382465Y-135952D01*
X382483Y-135986D01*
X382499Y-136022D01*
X382517Y-136065D01*
X382532Y-136110D01*
X382547Y-136161D01*
X382556Y-136213D01*
X382565Y-136274D01*
X382571Y-136334D01*
X382574Y-136401D01*
Y-136404D01*
Y-136416D01*
Y-136434D01*
X382571Y-136458D01*
X382568Y-136489D01*
X382565Y-136525D01*
X382559Y-136561D01*
X382550Y-136604D01*
X382529Y-136695D01*
X382514Y-136740D01*
X382495Y-136786D01*
X382474Y-136831D01*
X382450Y-136876D01*
X382423Y-136916D01*
X382389Y-136955D01*
X382386Y-136958D01*
X382380Y-136964D01*
X382371Y-136974D01*
X382356Y-136986D01*
X382338Y-137001D01*
X382317Y-137019D01*
X382289Y-137037D01*
X382262Y-137055D01*
X382229Y-137073D01*
X382195Y-137092D01*
X382156Y-137110D01*
X382114Y-137125D01*
X382071Y-137137D01*
X382023Y-137146D01*
X381974Y-137152D01*
X381923Y-137155D01*
X381892D01*
X381862Y-137149D01*
X381820Y-137143D01*
X381771Y-137134D01*
X381720Y-137116D01*
X381665Y-137095D01*
X381614Y-137064D01*
X381608Y-137061D01*
X381592Y-137049D01*
X381568Y-137028D01*
X381538Y-136998D01*
X381502Y-136961D01*
X381468Y-136919D01*
X381435Y-136867D01*
X381405Y-136810D01*
Y-136813D01*
X381402Y-136819D01*
X381396Y-136831D01*
X381389Y-136843D01*
X381380Y-136861D01*
X381368Y-136882D01*
X381341Y-136928D01*
X381308Y-136979D01*
X381265Y-137031D01*
X381214Y-137083D01*
X381156Y-137128D01*
X381153D01*
X381150Y-137134D01*
X381141Y-137137D01*
X381129Y-137146D01*
X381114Y-137152D01*
X381096Y-137161D01*
X381050Y-137182D01*
X380996Y-137204D01*
X380932Y-137219D01*
X380859Y-137231D01*
X380784Y-137237D01*
X380750D01*
X380726Y-137234D01*
X380696Y-137231D01*
X380662Y-137225D01*
X380623Y-137219D01*
X380584Y-137210D01*
X380538Y-137198D01*
X380493Y-137182D01*
X380444Y-137164D01*
X380399Y-137143D01*
X380350Y-137116D01*
X380305Y-137086D01*
X380259Y-137052D01*
X380217Y-137013D01*
X380214Y-137010D01*
X380208Y-137004D01*
X380196Y-136989D01*
X380184Y-136974D01*
X380165Y-136949D01*
X380147Y-136925D01*
X380129Y-136892D01*
X380108Y-136855D01*
X380087Y-136816D01*
X380068Y-136770D01*
X380050Y-136722D01*
X380032Y-136670D01*
X380020Y-136613D01*
X380008Y-136552D01*
X380002Y-136489D01*
X379999Y-136422D01*
Y-136419D01*
Y-136407D01*
Y-136389D01*
X380002Y-136364D01*
X380005Y-136337D01*
X380008Y-136301D01*
X380014Y-136264D01*
X380020Y-136222D01*
X380041Y-136131D01*
X380056Y-136086D01*
X380075Y-136037D01*
X380096Y-135989D01*
X380120Y-135940D01*
X380147Y-135895D01*
X380177Y-135849D01*
X380181Y-135846D01*
X380187Y-135837D01*
X380199Y-135825D01*
X380217Y-135807D01*
X380238Y-135789D01*
X380265Y-135765D01*
X380296Y-135740D01*
X380332Y-135716D01*
X380371Y-135692D01*
X380414Y-135668D01*
X380462Y-135643D01*
X380514Y-135625D01*
X380571Y-135607D01*
X380632Y-135595D01*
X380696Y-135586D01*
X380762Y-135583D01*
X380784D01*
X380799Y-135586D01*
D02*
G37*
G36*
X396615Y-373800D02*
X386702Y-380449D01*
X396615D01*
Y-382043D01*
X384000D01*
Y-380328D01*
X393897Y-373694D01*
X384000D01*
Y-372100D01*
X396615D01*
Y-373800D01*
D02*
G37*
G36*
Y-393884D02*
X395127D01*
Y-389724D01*
X384000D01*
Y-388054D01*
X395127D01*
Y-383895D01*
X396615D01*
Y-393884D01*
D02*
G37*
G36*
X381938Y-92003D02*
X381941Y-92009D01*
X381944Y-92018D01*
X381950Y-92033D01*
X381956Y-92052D01*
X381965Y-92070D01*
X381977Y-92094D01*
X381990Y-92121D01*
X382023Y-92182D01*
X382062Y-92251D01*
X382111Y-92327D01*
X382171Y-92409D01*
X382174Y-92412D01*
X382180Y-92418D01*
X382189Y-92430D01*
X382202Y-92445D01*
X382220Y-92464D01*
X382238Y-92485D01*
X382262Y-92506D01*
X382286Y-92530D01*
X382347Y-92582D01*
X382414Y-92630D01*
X382489Y-92676D01*
X382532Y-92694D01*
X382574Y-92712D01*
Y-93106D01*
X380047D01*
Y-92624D01*
X381865D01*
X381862Y-92621D01*
X381853Y-92612D01*
X381841Y-92597D01*
X381826Y-92576D01*
X381805Y-92551D01*
X381780Y-92521D01*
X381753Y-92485D01*
X381726Y-92445D01*
X381699Y-92403D01*
X381668Y-92355D01*
X381638Y-92303D01*
X381608Y-92248D01*
X381577Y-92191D01*
X381550Y-92130D01*
X381526Y-92067D01*
X381502Y-92000D01*
X381938D01*
Y-92003D01*
D02*
G37*
G36*
X396615Y-363812D02*
Y-365634D01*
X384000Y-370780D01*
Y-368882D01*
X387810Y-367425D01*
Y-362127D01*
X384000Y-360761D01*
Y-359000D01*
X396615Y-363812D01*
D02*
G37*
%LPC*%
G36*
X389176Y-362598D02*
Y-366909D01*
X392653Y-365573D01*
X392668D01*
X392728Y-365543D01*
X392804Y-365512D01*
X392926Y-365482D01*
X393062Y-365421D01*
X393214Y-365376D01*
X393396Y-365300D01*
X393579Y-365239D01*
X394004Y-365087D01*
X394444Y-364951D01*
X394884Y-364799D01*
X395309Y-364677D01*
X395294D01*
X395248Y-364662D01*
X395188Y-364647D01*
X395097Y-364632D01*
X394990Y-364601D01*
X394854Y-364571D01*
X394702Y-364541D01*
X394535Y-364495D01*
X394171Y-364404D01*
X393761Y-364283D01*
X393320Y-364146D01*
X392865Y-363994D01*
X389176Y-362598D01*
D02*
G37*
G36*
X342663Y-117808D02*
X341776D01*
Y-118782D01*
X342478D01*
X342529Y-118778D01*
X342640D01*
X342760Y-118773D01*
X342876Y-118764D01*
X342927Y-118759D01*
X342973Y-118750D01*
X343010Y-118745D01*
X343042Y-118736D01*
X343047Y-118732D01*
X343065Y-118727D01*
X343088Y-118713D01*
X343121Y-118699D01*
X343158Y-118676D01*
X343195Y-118648D01*
X343227Y-118616D01*
X343259Y-118575D01*
X343264Y-118570D01*
X343273Y-118551D01*
X343282Y-118528D01*
X343301Y-118496D01*
X343315Y-118454D01*
X343324Y-118404D01*
X343333Y-118348D01*
X343338Y-118288D01*
Y-118279D01*
Y-118256D01*
X343333Y-118219D01*
X343324Y-118177D01*
X343310Y-118126D01*
X343291Y-118076D01*
X343268Y-118020D01*
X343232Y-117974D01*
X343227Y-117969D01*
X343213Y-117955D01*
X343190Y-117932D01*
X343158Y-117909D01*
X343116Y-117882D01*
X343065Y-117858D01*
X343010Y-117835D01*
X342940Y-117821D01*
X342936D01*
X342917Y-117817D01*
X342862D01*
X342834Y-117812D01*
X342719D01*
X342663Y-117808D01*
D02*
G37*
G36*
X410442Y-90438D02*
X410399D01*
X410372Y-90441D01*
X410335Y-90444D01*
X410293Y-90447D01*
X410248Y-90453D01*
X410199Y-90462D01*
X410093Y-90486D01*
X410039Y-90501D01*
X409984Y-90519D01*
X409933Y-90544D01*
X409881Y-90571D01*
X409832Y-90601D01*
X409790Y-90635D01*
X409787Y-90638D01*
X409781Y-90644D01*
X409769Y-90656D01*
X409757Y-90671D01*
X409739Y-90689D01*
X409720Y-90713D01*
X409702Y-90741D01*
X409681Y-90771D01*
X409660Y-90804D01*
X409642Y-90844D01*
X409623Y-90883D01*
X409605Y-90928D01*
X409593Y-90977D01*
X409581Y-91025D01*
X409575Y-91080D01*
X409572Y-91135D01*
Y-91137D01*
Y-91147D01*
X409575Y-91165D01*
Y-91186D01*
X409578Y-91210D01*
X409584Y-91241D01*
X409590Y-91274D01*
X409599Y-91313D01*
X409611Y-91350D01*
X409626Y-91392D01*
X409642Y-91431D01*
X409663Y-91474D01*
X409690Y-91516D01*
X409717Y-91559D01*
X409751Y-91598D01*
X409790Y-91634D01*
X409793Y-91637D01*
X409799Y-91644D01*
X409814Y-91653D01*
X409832Y-91665D01*
X409854Y-91680D01*
X409881Y-91698D01*
X409914Y-91713D01*
X409954Y-91734D01*
X409999Y-91753D01*
X410048Y-91768D01*
X410099Y-91786D01*
X410160Y-91801D01*
X410223Y-91813D01*
X410293Y-91822D01*
X410369Y-91828D01*
X410448Y-91831D01*
X410490D01*
X410517Y-91828D01*
X410554Y-91825D01*
X410596Y-91822D01*
X410642Y-91816D01*
X410690Y-91807D01*
X410796Y-91786D01*
X410851Y-91771D01*
X410902Y-91750D01*
X410954Y-91728D01*
X411005Y-91704D01*
X411051Y-91674D01*
X411093Y-91641D01*
X411096Y-91637D01*
X411102Y-91631D01*
X411114Y-91622D01*
X411126Y-91607D01*
X411141Y-91586D01*
X411160Y-91565D01*
X411181Y-91537D01*
X411202Y-91507D01*
X411220Y-91471D01*
X411241Y-91435D01*
X411260Y-91392D01*
X411275Y-91347D01*
X411287Y-91298D01*
X411299Y-91247D01*
X411305Y-91192D01*
X411308Y-91135D01*
Y-91131D01*
Y-91119D01*
Y-91104D01*
X411305Y-91083D01*
X411302Y-91056D01*
X411296Y-91025D01*
X411290Y-90992D01*
X411281Y-90956D01*
X411269Y-90916D01*
X411254Y-90874D01*
X411238Y-90832D01*
X411217Y-90789D01*
X411190Y-90747D01*
X411163Y-90707D01*
X411129Y-90665D01*
X411090Y-90628D01*
X411087Y-90625D01*
X411081Y-90619D01*
X411069Y-90610D01*
X411051Y-90598D01*
X411026Y-90583D01*
X410999Y-90568D01*
X410966Y-90550D01*
X410929Y-90535D01*
X410884Y-90516D01*
X410839Y-90498D01*
X410784Y-90483D01*
X410726Y-90468D01*
X410663Y-90456D01*
X410593Y-90447D01*
X410520Y-90441D01*
X410442Y-90438D01*
D02*
G37*
G36*
X381890Y-136104D02*
X381865D01*
X381838Y-136107D01*
X381808Y-136113D01*
X381771Y-136122D01*
X381732Y-136137D01*
X381696Y-136155D01*
X381662Y-136183D01*
X381659Y-136186D01*
X381650Y-136198D01*
X381638Y-136216D01*
X381623Y-136240D01*
X381608Y-136270D01*
X381596Y-136307D01*
X381587Y-136349D01*
X381583Y-136398D01*
Y-136401D01*
Y-136404D01*
Y-136419D01*
X381587Y-136446D01*
X381592Y-136477D01*
X381605Y-136510D01*
X381617Y-136546D01*
X381638Y-136583D01*
X381665Y-136616D01*
X381668Y-136619D01*
X381680Y-136628D01*
X381699Y-136643D01*
X381723Y-136658D01*
X381756Y-136673D01*
X381796Y-136689D01*
X381838Y-136698D01*
X381890Y-136701D01*
X381911D01*
X381938Y-136698D01*
X381968Y-136692D01*
X382002Y-136679D01*
X382038Y-136667D01*
X382074Y-136646D01*
X382108Y-136619D01*
X382111Y-136616D01*
X382120Y-136604D01*
X382135Y-136586D01*
X382150Y-136561D01*
X382165Y-136531D01*
X382180Y-136495D01*
X382189Y-136452D01*
X382192Y-136404D01*
Y-136398D01*
Y-136383D01*
X382189Y-136355D01*
X382183Y-136325D01*
X382171Y-136292D01*
X382156Y-136255D01*
X382135Y-136219D01*
X382108Y-136186D01*
X382105Y-136183D01*
X382092Y-136173D01*
X382074Y-136158D01*
X382050Y-136146D01*
X382020Y-136131D01*
X381980Y-136116D01*
X381938Y-136107D01*
X381890Y-136104D01*
D02*
G37*
G36*
X380811Y-136058D02*
X380793D01*
X380778Y-136061D01*
X380741Y-136065D01*
X380696Y-136071D01*
X380647Y-136083D01*
X380596Y-136101D01*
X380544Y-136125D01*
X380499Y-136158D01*
X380493Y-136164D01*
X380481Y-136177D01*
X380462Y-136198D01*
X380444Y-136228D01*
X380423Y-136264D01*
X380405Y-136310D01*
X380393Y-136358D01*
X380387Y-136413D01*
Y-136416D01*
Y-136419D01*
X380390Y-136437D01*
X380393Y-136467D01*
X380399Y-136501D01*
X380414Y-136540D01*
X380432Y-136583D01*
X380456Y-136622D01*
X380493Y-136661D01*
X380499Y-136664D01*
X380514Y-136677D01*
X380538Y-136692D01*
X380571Y-136713D01*
X380617Y-136731D01*
X380671Y-136746D01*
X380732Y-136758D01*
X380805Y-136761D01*
X380835D01*
X380868Y-136755D01*
X380908Y-136749D01*
X380953Y-136737D01*
X381002Y-136719D01*
X381050Y-136695D01*
X381093Y-136661D01*
X381099Y-136658D01*
X381111Y-136643D01*
X381126Y-136622D01*
X381147Y-136592D01*
X381168Y-136555D01*
X381184Y-136513D01*
X381196Y-136461D01*
X381202Y-136407D01*
Y-136404D01*
Y-136398D01*
Y-136389D01*
X381199Y-136380D01*
X381196Y-136346D01*
X381187Y-136307D01*
X381171Y-136264D01*
X381150Y-136222D01*
X381120Y-136180D01*
X381077Y-136143D01*
X381071Y-136140D01*
X381056Y-136131D01*
X381032Y-136116D01*
X380999Y-136101D01*
X380959Y-136086D01*
X380914Y-136071D01*
X380862Y-136061D01*
X380811Y-136058D01*
D02*
G37*
%LPD*%
D40*
X271831Y-21000D02*
G03*
X271831Y-21000I-394J0D01*
G01*
X376915Y-198000D02*
G03*
X376915Y-198000I-21915J0D01*
G01*
X373370Y-295000D02*
G03*
X373370Y-295000I-39370J0D01*
G01*
X5630Y-220732D02*
Y-157268D01*
X52874Y-220732D02*
Y-157268D01*
X5630Y-220732D02*
X52874D01*
X5630Y-157268D02*
X52874D01*
X5630Y-154732D02*
Y-91268D01*
X52874Y-154732D02*
Y-91268D01*
X5630Y-154732D02*
X52874D01*
X5630Y-91268D02*
X52874D01*
X258685Y-305126D02*
Y-301189D01*
X239000D02*
X258685D01*
X239000Y-305126D02*
Y-301189D01*
X229157Y-305126D02*
X268528D01*
Y-324811D02*
Y-305126D01*
X229157Y-324811D02*
X268528D01*
X229157D02*
Y-305126D01*
X224055Y-279126D02*
Y-275189D01*
X165000D02*
X224055D01*
X165000Y-279126D02*
Y-275189D01*
X155157Y-279126D02*
X233898D01*
Y-298811D02*
Y-279126D01*
X155157Y-298811D02*
X233898D01*
X155157D02*
Y-279126D01*
X255842D02*
Y-275189D01*
X246000D02*
X255842D01*
X246000Y-279126D02*
Y-275189D01*
X236157Y-279126D02*
X265685D01*
Y-298811D02*
Y-279126D01*
X236157Y-298811D02*
X265685D01*
X236157D02*
Y-279126D01*
X184685Y-305126D02*
Y-301189D01*
X165000D02*
X184685D01*
X165000Y-305126D02*
Y-301189D01*
X155157Y-305126D02*
X194528D01*
Y-324811D02*
Y-305126D01*
X155157Y-324811D02*
X194528D01*
X155157D02*
Y-305126D01*
X216843D02*
Y-301189D01*
X207000D02*
X216843D01*
X207000Y-305126D02*
Y-301189D01*
X197158Y-305126D02*
X226685D01*
Y-324811D02*
Y-305126D01*
X197158Y-324811D02*
X226685D01*
X197158D02*
Y-305126D01*
X113409Y-293000D02*
Y-281000D01*
Y-345000D02*
Y-293000D01*
X153000Y-305000D02*
Y-293000D01*
X113409D02*
X153000D01*
X113409Y-345000D02*
X153000D01*
Y-305000D01*
Y-293000D02*
Y-281000D01*
X113409D02*
X153000D01*
X62874Y-88622D02*
Y-3976D01*
X3819Y-88622D02*
X70748D01*
X3819Y-3976D02*
X70748D01*
X3819Y-88622D02*
Y-3976D01*
X62874Y-88622D02*
X70748D01*
Y-3976D01*
X62874D02*
X70748D01*
X90472Y-86299D02*
X125906D01*
X90472D02*
Y-73701D01*
X125906Y-86299D02*
Y-73701D01*
X90472D02*
X125906D01*
X93228Y-86299D02*
Y-73701D01*
X133189Y-87559D02*
Y-32441D01*
X188307D01*
Y-87559D02*
Y-32441D01*
X188307Y-87559D02*
X188307Y-87559D01*
X133189Y-87559D02*
X188307D01*
X273013Y-21787D02*
Y-20213D01*
X274587D01*
X284824D02*
X286398D01*
Y-21787D02*
Y-20213D01*
Y-33598D02*
Y-32024D01*
X284824Y-33598D02*
X286398D01*
X273013D02*
Y-32024D01*
Y-33598D02*
X274587D01*
X5268Y-327370D02*
Y-280126D01*
X68732Y-327370D02*
Y-280126D01*
X5268D02*
X68732D01*
X5268Y-327370D02*
X68732D01*
X71409Y-293000D02*
Y-281000D01*
Y-345000D02*
Y-293000D01*
X111000Y-305000D02*
Y-293000D01*
X71409D02*
X111000D01*
X71409Y-345000D02*
X111000D01*
Y-305000D01*
Y-293000D02*
Y-281000D01*
X71409D02*
X111000D01*
X29000Y-278000D02*
X41000D01*
Y-222819D01*
X-11000Y-278000D02*
Y-222819D01*
Y-278000D02*
X29000D01*
X41000D02*
X53000D01*
Y-222819D01*
X-11000D02*
X41000D01*
X53000D01*
D65*
X78535Y-126354D02*
G03*
X78535Y-126354I-492J0D01*
G01*
X307377Y-125058D02*
G03*
X307377Y-125058I-492J0D01*
G01*
X92972Y-63425D02*
G03*
X92972Y-63425I-492J0D01*
G01*
X264405Y-234087D02*
G03*
X264405Y-234087I-492J0D01*
G01*
X117063Y-187913D02*
G03*
X117063Y-187913I-492J0D01*
G01*
X157405Y-193087D02*
G03*
X157405Y-193087I-492J0D01*
G01*
X80488Y-51256D02*
G03*
X80488Y-51256I-492J0D01*
G01*
X199075Y-6811D02*
G03*
X199075Y-6811I-492J0D01*
G01*
X275740Y-65579D02*
G03*
X275740Y-65579I-492J0D01*
G01*
X322063Y-172913D02*
G03*
X322063Y-172913I-492J0D01*
G01*
X309713Y-178847D02*
G03*
X309713Y-178847I-492J0D01*
G01*
X296847Y-188957D02*
G03*
X296847Y-188957I-492J0D01*
G01*
X278921Y-244087D02*
G03*
X278921Y-244087I-492J0D01*
G01*
X80006Y-241487D02*
G03*
X80006Y-241487I-492J0D01*
G01*
X76579Y-221571D02*
G03*
X76579Y-221571I-492J0D01*
G01*
X114579D02*
G03*
X114579Y-221571I-492J0D01*
G01*
X111406Y-238087D02*
G03*
X111406Y-238087I-492J0D01*
G01*
X136437Y-125878D02*
G03*
X136437Y-125878I-492J0D01*
G01*
X196437D02*
G03*
X196437Y-125878I-492J0D01*
G01*
X253437Y-140878D02*
G03*
X253437Y-140878I-492J0D01*
G01*
D66*
X306294Y-143995D02*
G03*
X306294Y-128405I5906J7795D01*
G01*
X57157Y-132850D02*
X76842D01*
X57157Y-139150D02*
X76842D01*
Y-132850D01*
X57157Y-139150D02*
Y-132850D01*
X306294Y-143995D02*
Y-128405D01*
X89528Y-50630D02*
Y-43937D01*
X130472Y-50630D02*
Y-43937D01*
X89528Y-50630D02*
X130472D01*
X409890Y-172016D02*
Y-148394D01*
X396110Y-172016D02*
Y-148394D01*
X409890D01*
X396110Y-172016D02*
X409890D01*
X223638Y-161000D02*
X228362D01*
X378638Y-160000D02*
X383362D01*
X317000Y-115362D02*
Y-110638D01*
X262638Y-28200D02*
X267362D01*
X324238Y-140200D02*
X328962D01*
X55638Y-227000D02*
X60362D01*
X77638Y-40000D02*
X82362D01*
X246600Y-114562D02*
Y-109838D01*
X122000Y-209362D02*
Y-204638D01*
X238008Y-248850D02*
Y-245110D01*
X263992D01*
Y-248850D02*
Y-245110D01*
X120213Y-189094D02*
X123756D01*
Y-192244D02*
Y-189094D01*
X120213Y-200905D02*
X123756D01*
Y-197756D01*
X131008Y-207850D02*
Y-204110D01*
X156992D01*
Y-207850D02*
Y-204110D01*
X351000Y-144000D02*
X361000D01*
X351000D02*
Y-104000D01*
X361000Y-144000D02*
Y-104000D01*
X351000D02*
X361000D01*
X363000Y-144000D02*
X373000D01*
X363000D02*
Y-104000D01*
X373000Y-144000D02*
Y-104000D01*
X363000D02*
X373000D01*
X259000Y-169032D02*
Y-168244D01*
X255063Y-174150D02*
Y-167850D01*
X262937D01*
Y-174150D02*
Y-167850D01*
X255063Y-174150D02*
X262937D01*
X259000Y-169032D02*
X259000Y-169032D01*
X259000Y-173756D02*
Y-169032D01*
X259000Y-169032D02*
X259000D01*
X255063Y-172968D02*
X259000Y-169032D01*
X255063Y-172968D02*
X262937D01*
X259000Y-169032D02*
X262937Y-172968D01*
X269000Y-173756D02*
Y-172968D01*
X272937Y-174150D02*
Y-167850D01*
X265063Y-174150D02*
X272937D01*
X265063D02*
Y-167850D01*
X272937D01*
X269000Y-172968D02*
X269000Y-172968D01*
Y-168244D01*
Y-172968D02*
X269000D01*
X272937Y-169032D01*
X265063D02*
X272937D01*
X265063D02*
X269000Y-172968D01*
X142000Y-154032D02*
Y-153244D01*
X138063Y-159150D02*
Y-152850D01*
X145937D01*
Y-159150D02*
Y-152850D01*
X138063Y-159150D02*
X145937D01*
X142000Y-154032D02*
X142000Y-154032D01*
X142000Y-158756D02*
Y-154032D01*
X142000Y-154032D02*
X142000D01*
X138063Y-157968D02*
X142000Y-154032D01*
X138063Y-157968D02*
X145937D01*
X142000Y-154032D02*
X145937Y-157968D01*
X152000Y-158756D02*
Y-157968D01*
X155937Y-159150D02*
Y-152850D01*
X148063Y-159150D02*
X155937D01*
X148063D02*
Y-152850D01*
X155937D01*
X152000Y-157968D02*
X152000Y-157968D01*
Y-153244D01*
Y-157968D02*
X152000D01*
X155937Y-154032D01*
X148063D02*
X155937D01*
X148063D02*
X152000Y-157968D01*
X202000Y-154032D02*
Y-153244D01*
X198063Y-159150D02*
Y-152850D01*
X205937D01*
Y-159150D02*
Y-152850D01*
X198063Y-159150D02*
X205937D01*
X202000Y-154032D02*
X202000Y-154032D01*
X202000Y-158756D02*
Y-154032D01*
X202000Y-154032D02*
X202000D01*
X198063Y-157968D02*
X202000Y-154032D01*
X198063Y-157968D02*
X205937D01*
X202000Y-154032D02*
X205937Y-157968D01*
X212000Y-158756D02*
Y-157968D01*
X215937Y-159150D02*
Y-152850D01*
X208063Y-159150D02*
X215937D01*
X208063D02*
Y-152850D01*
X215937D01*
X212000Y-157968D02*
X212000Y-157968D01*
Y-153244D01*
Y-157968D02*
X212000D01*
X215937Y-154032D01*
X208063D02*
X215937D01*
X208063D02*
X212000Y-157968D01*
X272000Y-279756D02*
Y-278969D01*
X275937Y-280150D02*
Y-273850D01*
X268063Y-280150D02*
X275937D01*
X268063D02*
Y-273850D01*
X275937D01*
X272000Y-278969D02*
X272000Y-278969D01*
Y-274244D01*
Y-278969D02*
X272000D01*
X275937Y-275031D01*
X268063D02*
X275937D01*
X268063D02*
X272000Y-278969D01*
X77638Y-20000D02*
X82362D01*
X85000Y-86850D02*
Y-53150D01*
X75000Y-86850D02*
X85000D01*
X75000D02*
Y-53150D01*
X85000D01*
X387638Y-160000D02*
X392362D01*
X256038Y-60000D02*
X260762D01*
X278638Y-273000D02*
X283362D01*
X220807Y-45315D02*
X227155D01*
X234685Y-52845D01*
X195315D02*
X202845Y-45315D01*
X209193D01*
X234685Y-84685D02*
Y-52845D01*
X220807Y-84685D02*
X234685D01*
X195315D02*
X209193D01*
X195315D02*
Y-52845D01*
X146968Y-20000D02*
X147756D01*
X141850Y-16063D02*
X148150D01*
Y-23937D02*
Y-16063D01*
X141850Y-23937D02*
X148150D01*
X141850D02*
Y-16063D01*
X146968Y-20000D02*
X146968Y-20000D01*
X142244Y-20000D02*
X146968D01*
X146968D02*
Y-20000D01*
X143032Y-16063D02*
X146968Y-20000D01*
X143032Y-23937D02*
Y-16063D01*
Y-23937D02*
X146968Y-20000D01*
X204488Y-33189D02*
Y-6811D01*
X215512Y-33189D02*
Y-6811D01*
X204488D02*
X215512D01*
X204488Y-33189D02*
X215512D01*
X229838Y-19400D02*
X234562D01*
X256074Y-30622D02*
Y-12757D01*
X253613D02*
X256074D01*
X240326D02*
X242787D01*
X240326Y-30622D02*
Y-12757D01*
X253613Y-32443D02*
X254253D01*
X256074Y-30622D01*
X240326D02*
X242147Y-32443D01*
X242787D01*
X280200Y-13762D02*
Y-9038D01*
X291438Y-28200D02*
X296162D01*
X317874Y-40022D02*
Y-22158D01*
X315413D02*
X317874D01*
X302126D02*
X304587D01*
X302126Y-40022D02*
Y-22158D01*
X315413Y-41842D02*
X316053D01*
X317874Y-40022D01*
X302126D02*
X303947Y-41842D01*
X304587D01*
X322638Y-33000D02*
X327362D01*
X279400Y-44162D02*
Y-39438D01*
X244200Y-88162D02*
Y-83438D01*
X279874Y-100126D02*
Y-65874D01*
X314126Y-100126D02*
Y-65874D01*
X279874D02*
X314126D01*
X279874Y-100126D02*
X314126D01*
X371400Y-226562D02*
Y-221838D01*
Y-234562D02*
Y-229838D01*
Y-242562D02*
Y-237838D01*
X357000Y-250562D02*
Y-245838D01*
X371400Y-250562D02*
Y-245838D01*
X325213Y-174094D02*
X328756D01*
Y-177244D02*
Y-174094D01*
X325213Y-185906D02*
X328756D01*
Y-182756D01*
X325000Y-170362D02*
Y-165638D01*
X290815Y-157961D02*
X305185D01*
X290815Y-178039D02*
X305185D01*
X290815D02*
Y-157961D01*
X305185Y-178039D02*
Y-157961D01*
X302850Y-209842D02*
Y-190157D01*
X309150Y-209842D02*
Y-190157D01*
X302850D02*
X309150D01*
X302850Y-209842D02*
X309150D01*
X307614Y-247189D02*
Y-225683D01*
Y-247189D02*
X316177D01*
X325823D02*
X334386D01*
Y-225683D01*
X312486Y-220811D02*
X316177D01*
X307614Y-225683D02*
X312486Y-220811D01*
X329514D02*
X334386Y-225683D01*
X325823Y-220811D02*
X329514D01*
X296000Y-230362D02*
Y-225638D01*
Y-221362D02*
Y-216638D01*
X280000Y-221362D02*
Y-216638D01*
X271244Y-242905D02*
X274787D01*
X271244D02*
Y-239756D01*
Y-231095D02*
X274787D01*
X271244Y-234244D02*
Y-231095D01*
X280000Y-212362D02*
Y-207638D01*
Y-203362D02*
Y-198638D01*
Y-194362D02*
Y-189638D01*
X62000Y-109362D02*
Y-104638D01*
Y-117362D02*
Y-112638D01*
X72638Y-112000D02*
X77362D01*
X81638D02*
X86362D01*
X81638Y-127000D02*
X86362D01*
X81638Y-145000D02*
X86362D01*
X81638Y-160000D02*
X86362D01*
X72638D02*
X77362D01*
X62000Y-159362D02*
Y-154638D01*
Y-167362D02*
Y-162638D01*
X97638Y-195000D02*
X102362D01*
X105638D02*
X110362D01*
X53608Y-256250D02*
Y-252510D01*
X79592D01*
Y-256250D02*
Y-252510D01*
X74906Y-228756D02*
Y-225213D01*
X71756Y-228756D02*
X74906D01*
X63095D02*
Y-225213D01*
Y-228756D02*
X66244D01*
X77638Y-227000D02*
X82362D01*
X85638D02*
X90362D01*
X93638D02*
X98362D01*
X112906Y-228756D02*
Y-225213D01*
X109756Y-228756D02*
X112906D01*
X101094D02*
Y-225213D01*
Y-228756D02*
X104244D01*
X85008Y-252850D02*
Y-249110D01*
X110992D01*
Y-252850D02*
Y-249110D01*
X118000Y-247756D02*
Y-246969D01*
X121937Y-248150D02*
Y-241850D01*
X114063Y-248150D02*
X121937D01*
X114063D02*
Y-241850D01*
X121937D01*
X118000Y-246969D02*
X118000Y-246969D01*
Y-242244D01*
Y-246969D02*
X118000D01*
X121937Y-243032D01*
X114063D02*
X121937D01*
X114063D02*
X118000Y-246969D01*
X124638Y-246000D02*
X129362D01*
X115638Y-266000D02*
X120362D01*
X127000Y-266032D02*
Y-265244D01*
X123063Y-271150D02*
Y-264850D01*
X130937D01*
Y-271150D02*
Y-264850D01*
X123063Y-271150D02*
X130937D01*
X127000Y-266032D02*
X127000Y-266032D01*
X127000Y-270756D02*
Y-266032D01*
X127000Y-266032D02*
X127000D01*
X123063Y-269969D02*
X127000Y-266032D01*
X123063Y-269969D02*
X130937D01*
X127000Y-266032D02*
X130937Y-269969D01*
X177685Y-266156D02*
Y-259807D01*
X170156Y-273685D02*
X177685Y-266156D01*
X170156Y-234315D02*
X177685Y-241845D01*
Y-248193D02*
Y-241845D01*
X138315Y-273685D02*
X170156D01*
X138315D02*
Y-259807D01*
Y-248193D02*
Y-234315D01*
X170156D01*
X115438Y-225800D02*
X120162D01*
X124238D02*
X128962D01*
X106638Y-114000D02*
X111362D01*
X114638D02*
X119362D01*
X122638D02*
X127362D01*
X130638D02*
X135362D01*
X142000Y-120756D02*
Y-119968D01*
X145937Y-121150D02*
Y-114850D01*
X138063Y-121150D02*
X145937D01*
X138063D02*
Y-114850D01*
X145937D01*
X142000Y-119968D02*
X142000Y-119968D01*
Y-115244D01*
Y-119968D02*
X142000D01*
X145937Y-116032D01*
X138063D02*
X145937D01*
X138063D02*
X142000Y-119968D01*
X152000Y-116032D02*
Y-115244D01*
X148063Y-121150D02*
Y-114850D01*
X155937D01*
Y-121150D02*
Y-114850D01*
X148063Y-121150D02*
X155937D01*
X152000Y-116032D02*
X152000Y-116032D01*
X152000Y-120756D02*
Y-116032D01*
X152000Y-116032D02*
X152000D01*
X148063Y-119968D02*
X152000Y-116032D01*
X148063Y-119968D02*
X155937D01*
X152000Y-116032D02*
X155937Y-119968D01*
X106638Y-128000D02*
X111362D01*
X106638Y-146000D02*
X111362D01*
X106638Y-160000D02*
X111362D01*
X114638D02*
X119362D01*
X122638D02*
X127362D01*
X130638D02*
X135362D01*
X115157Y-143299D02*
Y-130701D01*
X134843Y-143299D02*
Y-130701D01*
X115157Y-143299D02*
X134843D01*
X115157Y-130701D02*
X134843D01*
X166638Y-114000D02*
X171362D01*
X174638D02*
X179362D01*
X182638D02*
X187362D01*
X190638D02*
X195362D01*
X202000Y-120756D02*
Y-119968D01*
X205937Y-121150D02*
Y-114850D01*
X198063Y-121150D02*
X205937D01*
X198063D02*
Y-114850D01*
X205937D01*
X202000Y-119968D02*
X202000Y-119968D01*
Y-115244D01*
Y-119968D02*
X202000D01*
X205937Y-116032D01*
X198063D02*
X205937D01*
X198063D02*
X202000Y-119968D01*
X212000Y-116032D02*
Y-115244D01*
X208063Y-121150D02*
Y-114850D01*
X215937D01*
Y-121150D02*
Y-114850D01*
X208063Y-121150D02*
X215937D01*
X212000Y-116032D02*
X212000Y-116032D01*
X212000Y-120756D02*
Y-116032D01*
X212000Y-116032D02*
X212000D01*
X208063Y-119968D02*
X212000Y-116032D01*
X208063Y-119968D02*
X215937D01*
X212000Y-116032D02*
X215937Y-119968D01*
X166638Y-129000D02*
X171362D01*
X175157Y-143299D02*
Y-130701D01*
X194843Y-143299D02*
Y-130701D01*
X175157Y-143299D02*
X194843D01*
X175157Y-130701D02*
X194843D01*
X166638Y-145000D02*
X171362D01*
X166638Y-160000D02*
X171362D01*
X174638D02*
X179362D01*
X182638D02*
X187362D01*
X190638D02*
X195362D01*
X223638Y-129000D02*
X228362D01*
X231638D02*
X236362D01*
X239638D02*
X244362D01*
X247638D02*
X252362D01*
X259000Y-135756D02*
Y-134968D01*
X262937Y-136150D02*
Y-129850D01*
X255063Y-136150D02*
X262937D01*
X255063D02*
Y-129850D01*
X262937D01*
X259000Y-134968D02*
X259000Y-134968D01*
Y-130244D01*
Y-134968D02*
X259000D01*
X262937Y-131032D01*
X255063D02*
X262937D01*
X255063D02*
X259000Y-134968D01*
X269000Y-131032D02*
Y-130244D01*
X265063Y-136150D02*
Y-129850D01*
X272937D01*
Y-136150D02*
Y-129850D01*
X265063Y-136150D02*
X272937D01*
X269000Y-131032D02*
X269000Y-131032D01*
X269000Y-135756D02*
Y-131032D01*
X269000Y-131032D02*
X269000D01*
X265063Y-134968D02*
X269000Y-131032D01*
X265063Y-134968D02*
X272937D01*
X269000Y-131032D02*
X272937Y-134968D01*
X223638Y-143000D02*
X228362D01*
X232157Y-158299D02*
Y-145701D01*
X251842Y-158299D02*
Y-145701D01*
X232157Y-158299D02*
X251842D01*
X232157Y-145701D02*
X251842D01*
X223638Y-175000D02*
X228362D01*
X231638D02*
X236362D01*
X239638D02*
X244362D01*
X247638D02*
X252362D01*
X276638Y-254000D02*
X281362D01*
X267638D02*
X272362D01*
X285638D02*
X290362D01*
D67*
X210150Y-210724D02*
G03*
X210150Y-210724I-394J0D01*
G01*
X233150Y-246724D02*
G03*
X233150Y-246724I-394J0D01*
G01*
Y-271724D02*
G03*
X233150Y-271724I-394J0D01*
G01*
X266150Y-210724D02*
G03*
X266150Y-210724I-394J0D01*
G01*
D68*
X284992Y-69811D02*
G03*
X284992Y-69811I-1181J0D01*
G01*
X302429Y-174102D02*
G03*
X302429Y-174102I-1181J0D01*
G01*
X132087Y-134638D02*
G03*
X132087Y-134638I-1181J0D01*
G01*
X192087D02*
G03*
X192087Y-134638I-1181J0D01*
G01*
X249087Y-149638D02*
G03*
X249087Y-149638I-1181J0D01*
G01*
D69*
X263912Y-68677D02*
X265093D01*
Y-88362D02*
Y-68677D01*
X263912Y-88362D02*
X265093D01*
X251707Y-68677D02*
X252888D01*
X251707Y-88362D02*
Y-68677D01*
Y-88362D02*
X252888D01*
X409000Y-299000D02*
Y-189000D01*
X399000Y-309000D02*
X409000Y-299000D01*
X399000Y-409000D02*
Y-309000D01*
X379000Y-409000D02*
X399000D01*
X379000D02*
Y-179000D01*
X409000D01*
Y-189000D02*
Y-179000D01*
X167630Y-191807D02*
Y-189779D01*
X207000D01*
Y-191807D02*
Y-189779D01*
X167630Y-212083D02*
Y-210055D01*
Y-212083D02*
X207000D01*
Y-210055D01*
X190630Y-227807D02*
Y-225780D01*
X230000D01*
Y-227807D02*
Y-225780D01*
X190630Y-248083D02*
Y-246055D01*
Y-248083D02*
X230000D01*
Y-246055D01*
X409466Y-86824D02*
Y-3359D01*
X330726Y-86824D02*
Y-3359D01*
Y-86824D02*
X409466D01*
X330726Y-3359D02*
X409466D01*
X408000Y-94500D02*
Y-92000D01*
X383787D02*
X408000D01*
X383787Y-94500D02*
Y-92000D01*
X408000Y-137000D02*
Y-134500D01*
X383787Y-137000D02*
X408000D01*
X383787D02*
Y-134500D01*
X230000Y-273083D02*
Y-271055D01*
X190630Y-273083D02*
X230000D01*
X190630D02*
Y-271055D01*
X230000Y-252807D02*
Y-250780D01*
X190630D02*
X230000D01*
X190630Y-252807D02*
Y-250780D01*
X263000Y-212083D02*
Y-210055D01*
X223630Y-212083D02*
X263000D01*
X223630D02*
Y-210055D01*
X263000Y-191807D02*
Y-189779D01*
X223630D02*
X263000D01*
X223630Y-191807D02*
Y-189779D01*
D70*
X56400Y-103200D02*
X67200D01*
X69000Y-105000D01*
Y-117000D02*
Y-105000D01*
X55400Y-177000D02*
Y-154600D01*
X265200Y-192000D02*
Y-183001D01*
Y-192000D02*
X265400Y-192200D01*
X272200D01*
Y-203400D02*
Y-192200D01*
X282800Y-240000D02*
X301098D01*
X282800D02*
X290200Y-247400D01*
X274600D02*
X290200D01*
X251900Y-61501D02*
Y-62001D01*
X252900Y-63001D01*
X253899Y-62001D01*
Y-61501D01*
X252900Y-63001D02*
Y-64500D01*
X254899D02*
X255899D01*
X255399D01*
Y-61501D01*
X254899Y-62001D01*
X255100Y-144302D02*
Y-146801D01*
X255600Y-147301D01*
X256599D01*
X257099Y-146801D01*
Y-144302D01*
X258099Y-147301D02*
X259099D01*
X258599D01*
Y-144302D01*
X258099Y-144802D01*
X262598Y-147301D02*
X260598D01*
X262598Y-145302D01*
Y-144802D01*
X262098Y-144302D01*
X261098D01*
X260598Y-144802D01*
X81000Y-135601D02*
Y-138100D01*
X81500Y-138600D01*
X82499D01*
X82999Y-138100D01*
Y-135601D01*
X83999Y-138600D02*
X84999D01*
X84499D01*
Y-135601D01*
X83999Y-136101D01*
X86498Y-138600D02*
X87498D01*
X86998D01*
Y-135601D01*
X86498Y-136101D01*
X269800Y-56401D02*
Y-58900D01*
X270300Y-59400D01*
X271300D01*
X271799Y-58900D01*
Y-56401D01*
X272799Y-59400D02*
X273799D01*
X273299D01*
Y-56401D01*
X272799Y-56901D01*
X275298D02*
X275798Y-56401D01*
X276798D01*
X277298Y-56901D01*
Y-58900D01*
X276798Y-59400D01*
X275798D01*
X275298Y-58900D01*
Y-56901D01*
X136200Y-131601D02*
Y-134100D01*
X136700Y-134600D01*
X137699D01*
X138199Y-134100D01*
Y-131601D01*
X139199Y-134100D02*
X139699Y-134600D01*
X140699D01*
X141198Y-134100D01*
Y-132101D01*
X140699Y-131601D01*
X139699D01*
X139199Y-132101D01*
Y-132601D01*
X139699Y-133100D01*
X141198D01*
X285800Y-15601D02*
Y-18100D01*
X286300Y-18600D01*
X287299D01*
X287799Y-18100D01*
Y-15601D01*
X288799Y-16101D02*
X289299Y-15601D01*
X290299D01*
X290798Y-16101D01*
Y-16601D01*
X290299Y-17100D01*
X290798Y-17600D01*
Y-18100D01*
X290299Y-18600D01*
X289299D01*
X288799Y-18100D01*
Y-17600D01*
X289299Y-17100D01*
X288799Y-16601D01*
Y-16101D01*
X289299Y-17100D02*
X290299D01*
X306500Y-118501D02*
Y-121000D01*
X307000Y-121500D01*
X307999D01*
X308499Y-121000D01*
Y-118501D01*
X309499D02*
X311498D01*
Y-119001D01*
X309499Y-121000D01*
Y-121500D01*
X197000Y-130001D02*
Y-132500D01*
X197500Y-133000D01*
X198500D01*
X198999Y-132500D01*
Y-130001D01*
X201998D02*
X200999Y-130501D01*
X199999Y-131500D01*
Y-132500D01*
X200499Y-133000D01*
X201499D01*
X201998Y-132500D01*
Y-132000D01*
X201499Y-131500D01*
X199999D01*
X219400Y-7601D02*
Y-10100D01*
X219900Y-10600D01*
X220900D01*
X221399Y-10100D01*
Y-7601D01*
X223899Y-10600D02*
Y-7601D01*
X222399Y-9100D01*
X224398D01*
X89800Y-53201D02*
Y-55700D01*
X90300Y-56200D01*
X91299D01*
X91799Y-55700D01*
Y-53201D01*
X92799Y-53701D02*
X93299Y-53201D01*
X94299D01*
X94798Y-53701D01*
Y-54201D01*
X94299Y-54700D01*
X93799D01*
X94299D01*
X94798Y-55200D01*
Y-55700D01*
X94299Y-56200D01*
X93299D01*
X92799Y-55700D01*
X294600Y-184401D02*
Y-186900D01*
X295100Y-187400D01*
X296099D01*
X296599Y-186900D01*
Y-184401D01*
X299598Y-187400D02*
X297599D01*
X299598Y-185401D01*
Y-184901D01*
X299098Y-184401D01*
X298099D01*
X297599Y-184901D01*
X297000Y-265201D02*
Y-267700D01*
X297500Y-268200D01*
X298499D01*
X298999Y-267700D01*
Y-265201D01*
X299999Y-268200D02*
X300999D01*
X300499D01*
Y-265201D01*
X299999Y-265701D01*
X393999Y-139501D02*
X393499Y-139001D01*
X392500D01*
X392000Y-139501D01*
Y-140001D01*
X392500Y-140500D01*
X393499D01*
X393999Y-141000D01*
Y-141500D01*
X393499Y-142000D01*
X392500D01*
X392000Y-141500D01*
X396998Y-142000D02*
X394999D01*
X396998Y-140001D01*
Y-139501D01*
X396498Y-139001D01*
X395499D01*
X394999Y-139501D01*
X394999Y-94501D02*
X394499Y-94001D01*
X393500D01*
X393000Y-94501D01*
Y-95001D01*
X393500Y-95500D01*
X394499D01*
X394999Y-96000D01*
Y-96500D01*
X394499Y-97000D01*
X393500D01*
X393000Y-96500D01*
X395999Y-97000D02*
X396999D01*
X396499D01*
Y-94001D01*
X395999Y-94501D01*
X222700Y-151300D02*
Y-148301D01*
X224200D01*
X224699Y-148801D01*
Y-149801D01*
X224200Y-150300D01*
X222700D01*
X223700D02*
X224699Y-151300D01*
X227698Y-148301D02*
X225699D01*
Y-149801D01*
X226699Y-149301D01*
X227199D01*
X227698Y-149801D01*
Y-150800D01*
X227199Y-151300D01*
X226199D01*
X225699Y-150800D01*
X228698D02*
X229198Y-151300D01*
X230198D01*
X230697Y-150800D01*
Y-148801D01*
X230198Y-148301D01*
X229198D01*
X228698Y-148801D01*
Y-149301D01*
X229198Y-149801D01*
X230697D01*
X238600Y-185000D02*
Y-182001D01*
X240100D01*
X240599Y-182501D01*
Y-183501D01*
X240100Y-184000D01*
X238600D01*
X239600D02*
X240599Y-185000D01*
X243598Y-182001D02*
X241599D01*
Y-183501D01*
X242599Y-183001D01*
X243098D01*
X243598Y-183501D01*
Y-184500D01*
X243098Y-185000D01*
X242099D01*
X241599Y-184500D01*
X244598Y-182501D02*
X245098Y-182001D01*
X246098D01*
X246597Y-182501D01*
Y-183001D01*
X246098Y-183501D01*
X246597Y-184000D01*
Y-184500D01*
X246098Y-185000D01*
X245098D01*
X244598Y-184500D01*
Y-184000D01*
X245098Y-183501D01*
X244598Y-183001D01*
Y-182501D01*
X245098Y-183501D02*
X246098D01*
X377700Y-150300D02*
Y-147301D01*
X379200D01*
X379699Y-147801D01*
Y-148801D01*
X379200Y-149300D01*
X377700D01*
X378700D02*
X379699Y-150300D01*
X382698Y-147301D02*
X380699D01*
Y-148801D01*
X381699Y-148301D01*
X382199D01*
X382698Y-148801D01*
Y-149800D01*
X382199Y-150300D01*
X381199D01*
X380699Y-149800D01*
X383698Y-147301D02*
X385697D01*
Y-147801D01*
X383698Y-149800D01*
Y-150300D01*
X89000Y-154600D02*
Y-151601D01*
X90500D01*
X90999Y-152101D01*
Y-153101D01*
X90500Y-153600D01*
X89000D01*
X90000D02*
X90999Y-154600D01*
X93998Y-151601D02*
X91999D01*
Y-153101D01*
X92999Y-152601D01*
X93499D01*
X93998Y-153101D01*
Y-154100D01*
X93499Y-154600D01*
X92499D01*
X91999Y-154100D01*
X96997Y-151601D02*
X95998Y-152101D01*
X94998Y-153101D01*
Y-154100D01*
X95498Y-154600D01*
X96498D01*
X96997Y-154100D01*
Y-153600D01*
X96498Y-153101D01*
X94998D01*
X89800Y-141800D02*
Y-138801D01*
X91299D01*
X91799Y-139301D01*
Y-140301D01*
X91299Y-140800D01*
X89800D01*
X90800D02*
X91799Y-141800D01*
X94798Y-138801D02*
X92799D01*
Y-140301D01*
X93799Y-139801D01*
X94299D01*
X94798Y-140301D01*
Y-141300D01*
X94299Y-141800D01*
X93299D01*
X92799Y-141300D01*
X97797Y-138801D02*
X95798D01*
Y-140301D01*
X96798Y-139801D01*
X97298D01*
X97797Y-140301D01*
Y-141300D01*
X97298Y-141800D01*
X96298D01*
X95798Y-141300D01*
X57000Y-172200D02*
Y-169201D01*
X58499D01*
X58999Y-169701D01*
Y-170701D01*
X58499Y-171200D01*
X57000D01*
X58000D02*
X58999Y-172200D01*
X61998Y-169201D02*
X59999D01*
Y-170701D01*
X60999Y-170201D01*
X61499D01*
X61998Y-170701D01*
Y-171700D01*
X61499Y-172200D01*
X60499D01*
X59999Y-171700D01*
X62998Y-169701D02*
X63498Y-169201D01*
X64498D01*
X64997Y-169701D01*
Y-170201D01*
X64498Y-170701D01*
X63998D01*
X64498D01*
X64997Y-171200D01*
Y-171700D01*
X64498Y-172200D01*
X63498D01*
X62998Y-171700D01*
X57000Y-177000D02*
Y-174001D01*
X58499D01*
X58999Y-174501D01*
Y-175501D01*
X58499Y-176000D01*
X57000D01*
X58000D02*
X58999Y-177000D01*
X61998Y-174001D02*
X59999D01*
Y-175501D01*
X60999Y-175001D01*
X61499D01*
X61998Y-175501D01*
Y-176500D01*
X61499Y-177000D01*
X60499D01*
X59999Y-176500D01*
X64997Y-177000D02*
X62998D01*
X64997Y-175001D01*
Y-174501D01*
X64498Y-174001D01*
X63498D01*
X62998Y-174501D01*
X71400Y-171400D02*
Y-168401D01*
X72900D01*
X73399Y-168901D01*
Y-169901D01*
X72900Y-170400D01*
X71400D01*
X72400D02*
X73399Y-171400D01*
X76398Y-168401D02*
X74399D01*
Y-169901D01*
X75399Y-169401D01*
X75899D01*
X76398Y-169901D01*
Y-170900D01*
X75899Y-171400D01*
X74899D01*
X74399Y-170900D01*
X77398Y-171400D02*
X78398D01*
X77898D01*
Y-168401D01*
X77398Y-168901D01*
X214600Y-139400D02*
Y-136401D01*
X216100D01*
X216599Y-136901D01*
Y-137900D01*
X216100Y-138400D01*
X214600D01*
X215600D02*
X216599Y-139400D01*
X219598Y-136401D02*
X217599D01*
Y-137900D01*
X218599Y-137401D01*
X219098D01*
X219598Y-137900D01*
Y-138900D01*
X219098Y-139400D01*
X218099D01*
X217599Y-138900D01*
X220598Y-136901D02*
X221098Y-136401D01*
X222098D01*
X222597Y-136901D01*
Y-138900D01*
X222098Y-139400D01*
X221098D01*
X220598Y-138900D01*
Y-136901D01*
X238600Y-118600D02*
Y-115601D01*
X240100D01*
X240599Y-116101D01*
Y-117101D01*
X240100Y-117600D01*
X238600D01*
X239600D02*
X240599Y-118600D01*
X243098D02*
Y-115601D01*
X241599Y-117101D01*
X243598D01*
X244598Y-118100D02*
X245098Y-118600D01*
X246098D01*
X246597Y-118100D01*
Y-116101D01*
X246098Y-115601D01*
X245098D01*
X244598Y-116101D01*
Y-116601D01*
X245098Y-117101D01*
X246597D01*
X290600Y-155400D02*
Y-152401D01*
X292099D01*
X292599Y-152901D01*
Y-153901D01*
X292099Y-154400D01*
X290600D01*
X291600D02*
X292599Y-155400D01*
X295098D02*
Y-152401D01*
X293599Y-153901D01*
X295598D01*
X296598Y-152901D02*
X297098Y-152401D01*
X298098D01*
X298597Y-152901D01*
Y-153401D01*
X298098Y-153901D01*
X298597Y-154400D01*
Y-154900D01*
X298098Y-155400D01*
X297098D01*
X296598Y-154900D01*
Y-154400D01*
X297098Y-153901D01*
X296598Y-153401D01*
Y-152901D01*
X297098Y-153901D02*
X298098D01*
X82600Y-104200D02*
Y-101201D01*
X84100D01*
X84599Y-101701D01*
Y-102700D01*
X84100Y-103200D01*
X82600D01*
X83600D02*
X84599Y-104200D01*
X87099D02*
Y-101201D01*
X85599Y-102700D01*
X87598D01*
X88598Y-101201D02*
X90597D01*
Y-101701D01*
X88598Y-103700D01*
Y-104200D01*
X89000Y-124200D02*
Y-121201D01*
X90500D01*
X90999Y-121701D01*
Y-122701D01*
X90500Y-123200D01*
X89000D01*
X90000D02*
X90999Y-124200D01*
X93499D02*
Y-121201D01*
X91999Y-122701D01*
X93998D01*
X96997Y-121201D02*
X95998Y-121701D01*
X94998Y-122701D01*
Y-123700D01*
X95498Y-124200D01*
X96498D01*
X96997Y-123700D01*
Y-123200D01*
X96498Y-122701D01*
X94998D01*
X57000Y-102600D02*
Y-99601D01*
X58499D01*
X58999Y-100101D01*
Y-101101D01*
X58499Y-101600D01*
X57000D01*
X58000D02*
X58999Y-102600D01*
X61499D02*
Y-99601D01*
X59999Y-101101D01*
X61998D01*
X64997Y-99601D02*
X62998D01*
Y-101101D01*
X63998Y-100601D01*
X64498D01*
X64997Y-101101D01*
Y-102100D01*
X64498Y-102600D01*
X63498D01*
X62998Y-102100D01*
X57000Y-97800D02*
Y-94801D01*
X58499D01*
X58999Y-95301D01*
Y-96301D01*
X58499Y-96800D01*
X57000D01*
X58000D02*
X58999Y-97800D01*
X61499D02*
Y-94801D01*
X59999Y-96301D01*
X61998D01*
X64498Y-97800D02*
Y-94801D01*
X62998Y-96301D01*
X64997D01*
X310500Y-106500D02*
Y-103501D01*
X312000D01*
X312499Y-104001D01*
Y-105000D01*
X312000Y-105500D01*
X310500D01*
X311500D02*
X312499Y-106500D01*
X314999D02*
Y-103501D01*
X313499Y-105000D01*
X315498D01*
X316498Y-104001D02*
X316998Y-103501D01*
X317998D01*
X318497Y-104001D01*
Y-104501D01*
X317998Y-105000D01*
X317498D01*
X317998D01*
X318497Y-105500D01*
Y-106000D01*
X317998Y-106500D01*
X316998D01*
X316498Y-106000D01*
X71400Y-104200D02*
Y-101201D01*
X72900D01*
X73399Y-101701D01*
Y-102700D01*
X72900Y-103200D01*
X71400D01*
X72400D02*
X73399Y-104200D01*
X75899D02*
Y-101201D01*
X74399Y-102700D01*
X76398D01*
X79397Y-104200D02*
X77398D01*
X79397Y-102201D01*
Y-101701D01*
X78898Y-101201D01*
X77898D01*
X77398Y-101701D01*
X97800Y-147400D02*
Y-144401D01*
X99300D01*
X99799Y-144901D01*
Y-145900D01*
X99300Y-146400D01*
X97800D01*
X98800D02*
X99799Y-147400D01*
X102299D02*
Y-144401D01*
X100799Y-145900D01*
X102798D01*
X103798Y-147400D02*
X104798D01*
X104298D01*
Y-144401D01*
X103798Y-144901D01*
X121800Y-170600D02*
Y-167601D01*
X123300D01*
X123799Y-168101D01*
Y-169100D01*
X123300Y-169600D01*
X121800D01*
X122800D02*
X123799Y-170600D01*
X126299D02*
Y-167601D01*
X124799Y-169100D01*
X126798D01*
X127798Y-168101D02*
X128298Y-167601D01*
X129298D01*
X129797Y-168101D01*
Y-170100D01*
X129298Y-170600D01*
X128298D01*
X127798Y-170100D01*
Y-168101D01*
X293800Y-20200D02*
Y-17201D01*
X295300D01*
X295799Y-17701D01*
Y-18700D01*
X295300Y-19200D01*
X293800D01*
X294800D02*
X295799Y-20200D01*
X296799Y-17701D02*
X297299Y-17201D01*
X298299D01*
X298798Y-17701D01*
Y-18201D01*
X298299Y-18700D01*
X297799D01*
X298299D01*
X298798Y-19200D01*
Y-19700D01*
X298299Y-20200D01*
X297299D01*
X296799Y-19700D01*
X299798Y-17201D02*
X301797D01*
Y-17701D01*
X299798Y-19700D01*
Y-20200D01*
X157800Y-142600D02*
Y-139601D01*
X159300D01*
X159799Y-140101D01*
Y-141101D01*
X159300Y-141600D01*
X157800D01*
X158800D02*
X159799Y-142600D01*
X160799Y-140101D02*
X161299Y-139601D01*
X162299D01*
X162798Y-140101D01*
Y-140601D01*
X162299Y-141101D01*
X161799D01*
X162299D01*
X162798Y-141600D01*
Y-142100D01*
X162299Y-142600D01*
X161299D01*
X160799Y-142100D01*
X165797Y-139601D02*
X164798Y-140101D01*
X163798Y-141101D01*
Y-142100D01*
X164298Y-142600D01*
X165298D01*
X165797Y-142100D01*
Y-141600D01*
X165298Y-141101D01*
X163798D01*
X96200Y-131400D02*
Y-128401D01*
X97699D01*
X98199Y-128901D01*
Y-129901D01*
X97699Y-130400D01*
X96200D01*
X97200D02*
X98199Y-131400D01*
X99199Y-128901D02*
X99699Y-128401D01*
X100699D01*
X101198Y-128901D01*
Y-129401D01*
X100699Y-129901D01*
X100199D01*
X100699D01*
X101198Y-130400D01*
Y-130900D01*
X100699Y-131400D01*
X99699D01*
X99199Y-130900D01*
X102198Y-128901D02*
X102698Y-128401D01*
X103698D01*
X104197Y-128901D01*
Y-129401D01*
X103698Y-129901D01*
X103198D01*
X103698D01*
X104197Y-130400D01*
Y-130900D01*
X103698Y-131400D01*
X102698D01*
X102198Y-130900D01*
X181000Y-169800D02*
Y-166801D01*
X182500D01*
X182999Y-167301D01*
Y-168300D01*
X182500Y-168800D01*
X181000D01*
X182000D02*
X182999Y-169800D01*
X183999Y-167301D02*
X184499Y-166801D01*
X185499D01*
X185998Y-167301D01*
Y-167801D01*
X185499Y-168300D01*
X184999D01*
X185499D01*
X185998Y-168800D01*
Y-169300D01*
X185499Y-169800D01*
X184499D01*
X183999Y-169300D01*
X188997Y-169800D02*
X186998D01*
X188997Y-167801D01*
Y-167301D01*
X188498Y-166801D01*
X187498D01*
X186998Y-167301D01*
X121800Y-104200D02*
Y-101201D01*
X123300D01*
X123799Y-101701D01*
Y-102700D01*
X123300Y-103200D01*
X121800D01*
X122800D02*
X123799Y-104200D01*
X124799Y-101701D02*
X125299Y-101201D01*
X126299D01*
X126798Y-101701D01*
Y-102201D01*
X126299Y-102700D01*
X125799D01*
X126299D01*
X126798Y-103200D01*
Y-103700D01*
X126299Y-104200D01*
X125299D01*
X124799Y-103700D01*
X127798Y-104200D02*
X128798D01*
X128298D01*
Y-101201D01*
X127798Y-101701D01*
X287400Y-44200D02*
Y-41201D01*
X288899D01*
X289399Y-41701D01*
Y-42700D01*
X288899Y-43200D01*
X287400D01*
X288400D02*
X289399Y-44200D01*
X290399Y-41701D02*
X290899Y-41201D01*
X291898D01*
X292398Y-41701D01*
Y-42201D01*
X291898Y-42700D01*
X291399D01*
X291898D01*
X292398Y-43200D01*
Y-43700D01*
X291898Y-44200D01*
X290899D01*
X290399Y-43700D01*
X293398Y-41701D02*
X293898Y-41201D01*
X294898D01*
X295397Y-41701D01*
Y-43700D01*
X294898Y-44200D01*
X293898D01*
X293398Y-43700D01*
Y-41701D01*
X261700Y-18500D02*
Y-15501D01*
X263199D01*
X263699Y-16001D01*
Y-17000D01*
X263199Y-17500D01*
X261700D01*
X262700D02*
X263699Y-18500D01*
X266698D02*
X264699D01*
X266698Y-16501D01*
Y-16001D01*
X266198Y-15501D01*
X265199D01*
X264699Y-16001D01*
X267698Y-18000D02*
X268198Y-18500D01*
X269198D01*
X269697Y-18000D01*
Y-16001D01*
X269198Y-15501D01*
X268198D01*
X267698Y-16001D01*
Y-16501D01*
X268198Y-17000D01*
X269697D01*
X157000Y-126600D02*
Y-123601D01*
X158500D01*
X158999Y-124101D01*
Y-125101D01*
X158500Y-125600D01*
X157000D01*
X158000D02*
X158999Y-126600D01*
X161998D02*
X159999D01*
X161998Y-124601D01*
Y-124101D01*
X161499Y-123601D01*
X160499D01*
X159999Y-124101D01*
X162998Y-123601D02*
X164997D01*
Y-124101D01*
X162998Y-126100D01*
Y-126600D01*
X182600Y-104000D02*
Y-101001D01*
X184099D01*
X184599Y-101501D01*
Y-102500D01*
X184099Y-103000D01*
X182600D01*
X183600D02*
X184599Y-104000D01*
X187598D02*
X185599D01*
X187598Y-102001D01*
Y-101501D01*
X187099Y-101001D01*
X186099D01*
X185599Y-101501D01*
X190597Y-101001D02*
X189598Y-101501D01*
X188598Y-102500D01*
Y-103500D01*
X189098Y-104000D01*
X190098D01*
X190597Y-103500D01*
Y-103000D01*
X190098Y-102500D01*
X188598D01*
X323300Y-130500D02*
Y-127501D01*
X324799D01*
X325299Y-128001D01*
Y-129000D01*
X324799Y-129500D01*
X323300D01*
X324300D02*
X325299Y-130500D01*
X328298D02*
X326299D01*
X328298Y-128501D01*
Y-128001D01*
X327799Y-127501D01*
X326799D01*
X326299Y-128001D01*
X331297Y-127501D02*
X329298D01*
Y-129000D01*
X330298Y-128501D01*
X330798D01*
X331297Y-129000D01*
Y-130000D01*
X330798Y-130500D01*
X329798D01*
X329298Y-130000D01*
X368200Y-218600D02*
Y-215601D01*
X369700D01*
X370199Y-216101D01*
Y-217101D01*
X369700Y-217600D01*
X368200D01*
X369200D02*
X370199Y-218600D01*
X373198D02*
X371199D01*
X373198Y-216601D01*
Y-216101D01*
X372698Y-215601D01*
X371699D01*
X371199Y-216101D01*
X374198D02*
X374698Y-215601D01*
X375698D01*
X376197Y-216101D01*
Y-216601D01*
X375698Y-217101D01*
X375198D01*
X375698D01*
X376197Y-217600D01*
Y-218100D01*
X375698Y-218600D01*
X374698D01*
X374198Y-218100D01*
X113800Y-217000D02*
Y-214001D01*
X115299D01*
X115799Y-214501D01*
Y-215500D01*
X115299Y-216000D01*
X113800D01*
X114800D02*
X115799Y-217000D01*
X118798D02*
X116799D01*
X118798Y-215001D01*
Y-214501D01*
X118299Y-214001D01*
X117299D01*
X116799Y-214501D01*
X121797Y-217000D02*
X119798D01*
X121797Y-215001D01*
Y-214501D01*
X121298Y-214001D01*
X120298D01*
X119798Y-214501D01*
X356200Y-225800D02*
Y-222801D01*
X357699D01*
X358199Y-223301D01*
Y-224301D01*
X357699Y-224800D01*
X356200D01*
X357200D02*
X358199Y-225800D01*
X361198D02*
X359199D01*
X361198Y-223801D01*
Y-223301D01*
X360699Y-222801D01*
X359699D01*
X359199Y-223301D01*
X362198Y-225800D02*
X363198D01*
X362698D01*
Y-222801D01*
X362198Y-223301D01*
X356200Y-234600D02*
Y-231601D01*
X357699D01*
X358199Y-232101D01*
Y-233101D01*
X357699Y-233600D01*
X356200D01*
X357200D02*
X358199Y-234600D01*
X361198D02*
X359199D01*
X361198Y-232601D01*
Y-232101D01*
X360699Y-231601D01*
X359699D01*
X359199Y-232101D01*
X362198D02*
X362698Y-231601D01*
X363698D01*
X364197Y-232101D01*
Y-234100D01*
X363698Y-234600D01*
X362698D01*
X362198Y-234100D01*
Y-232101D01*
X124200Y-217056D02*
Y-214057D01*
X125699D01*
X126199Y-214557D01*
Y-215556D01*
X125699Y-216056D01*
X124200D01*
X125200D02*
X126199Y-217056D01*
X127199D02*
X128199D01*
X127699D01*
Y-214057D01*
X127199Y-214557D01*
X129698Y-216556D02*
X130198Y-217056D01*
X131198D01*
X131698Y-216556D01*
Y-214557D01*
X131198Y-214057D01*
X130198D01*
X129698Y-214557D01*
Y-215057D01*
X130198Y-215556D01*
X131698D01*
X356200Y-241800D02*
Y-238801D01*
X357699D01*
X358199Y-239301D01*
Y-240300D01*
X357699Y-240800D01*
X356200D01*
X357200D02*
X358199Y-241800D01*
X359199D02*
X360199D01*
X359699D01*
Y-238801D01*
X359199Y-239301D01*
X361698D02*
X362198Y-238801D01*
X363198D01*
X363698Y-239301D01*
Y-239801D01*
X363198Y-240300D01*
X363698Y-240800D01*
Y-241300D01*
X363198Y-241800D01*
X362198D01*
X361698Y-241300D01*
Y-240800D01*
X362198Y-240300D01*
X361698Y-239801D01*
Y-239301D01*
X362198Y-240300D02*
X363198D01*
X93000Y-217000D02*
Y-214001D01*
X94499D01*
X94999Y-214501D01*
Y-215500D01*
X94499Y-216000D01*
X93000D01*
X94000D02*
X94999Y-217000D01*
X95999D02*
X96999D01*
X96499D01*
Y-214001D01*
X95999Y-214501D01*
X98498Y-214001D02*
X100498D01*
Y-214501D01*
X98498Y-216500D01*
Y-217000D01*
X283400Y-239400D02*
Y-236401D01*
X284899D01*
X285399Y-236901D01*
Y-237900D01*
X284899Y-238400D01*
X283400D01*
X284400D02*
X285399Y-239400D01*
X286399D02*
X287399D01*
X286899D01*
Y-236401D01*
X286399Y-236901D01*
X290898Y-236401D02*
X289898Y-236901D01*
X288898Y-237900D01*
Y-238900D01*
X289398Y-239400D01*
X290398D01*
X290898Y-238900D01*
Y-238400D01*
X290398Y-237900D01*
X288898D01*
X293000Y-239400D02*
Y-236401D01*
X294499D01*
X294999Y-236901D01*
Y-237900D01*
X294499Y-238400D01*
X293000D01*
X294000D02*
X294999Y-239400D01*
X295999D02*
X296999D01*
X296499D01*
Y-236401D01*
X295999Y-236901D01*
X300498Y-236401D02*
X298498D01*
Y-237900D01*
X299498Y-237401D01*
X299998D01*
X300498Y-237900D01*
Y-238900D01*
X299998Y-239400D01*
X298998D01*
X298498Y-238900D01*
X323400Y-163400D02*
Y-160401D01*
X324900D01*
X325399Y-160901D01*
Y-161900D01*
X324900Y-162400D01*
X323400D01*
X324400D02*
X325399Y-163400D01*
X326399D02*
X327399D01*
X326899D01*
Y-160401D01*
X326399Y-160901D01*
X330398Y-163400D02*
Y-160401D01*
X328898Y-161900D01*
X330898D01*
X259400Y-243400D02*
Y-240401D01*
X260899D01*
X261399Y-240901D01*
Y-241900D01*
X260899Y-242400D01*
X259400D01*
X260400D02*
X261399Y-243400D01*
X262399D02*
X263399D01*
X262899D01*
Y-240401D01*
X262399Y-240901D01*
X264898D02*
X265398Y-240401D01*
X266398D01*
X266898Y-240901D01*
Y-241401D01*
X266398Y-241900D01*
X265898D01*
X266398D01*
X266898Y-242400D01*
Y-242900D01*
X266398Y-243400D01*
X265398D01*
X264898Y-242900D01*
X76200Y-217000D02*
Y-214001D01*
X77700D01*
X78199Y-214501D01*
Y-215500D01*
X77700Y-216000D01*
X76200D01*
X77200D02*
X78199Y-217000D01*
X79199D02*
X80199D01*
X79699D01*
Y-214001D01*
X79199Y-214501D01*
X83698Y-217000D02*
X81698D01*
X83698Y-215001D01*
Y-214501D01*
X83198Y-214001D01*
X82198D01*
X81698Y-214501D01*
X85000Y-217000D02*
Y-214001D01*
X86500D01*
X86999Y-214501D01*
Y-215500D01*
X86500Y-216000D01*
X85000D01*
X86000D02*
X86999Y-217000D01*
X87999D02*
X88999D01*
X88499D01*
Y-214001D01*
X87999Y-214501D01*
X90498Y-217000D02*
X91498D01*
X90998D01*
Y-214001D01*
X90498Y-214501D01*
X54700Y-217300D02*
Y-214301D01*
X56200D01*
X56699Y-214801D01*
Y-215800D01*
X56200Y-216300D01*
X54700D01*
X55700D02*
X56699Y-217300D01*
X57699D02*
X58699D01*
X58199D01*
Y-214301D01*
X57699Y-214801D01*
X60198D02*
X60698Y-214301D01*
X61698D01*
X62198Y-214801D01*
Y-216800D01*
X61698Y-217300D01*
X60698D01*
X60198Y-216800D01*
Y-214801D01*
X267400Y-222600D02*
Y-219601D01*
X268899D01*
X269399Y-220101D01*
Y-221100D01*
X268899Y-221600D01*
X267400D01*
X268400D02*
X269399Y-222600D01*
X270399Y-222100D02*
X270899Y-222600D01*
X271899D01*
X272398Y-222100D01*
Y-220101D01*
X271899Y-219601D01*
X270899D01*
X270399Y-220101D01*
Y-220601D01*
X270899Y-221100D01*
X272398D01*
X267400Y-217000D02*
Y-214001D01*
X268899D01*
X269399Y-214501D01*
Y-215500D01*
X268899Y-216000D01*
X267400D01*
X268400D02*
X269399Y-217000D01*
X270399Y-214501D02*
X270899Y-214001D01*
X271899D01*
X272398Y-214501D01*
Y-215001D01*
X271899Y-215500D01*
X272398Y-216000D01*
Y-216500D01*
X271899Y-217000D01*
X270899D01*
X270399Y-216500D01*
Y-216000D01*
X270899Y-215500D01*
X270399Y-215001D01*
Y-214501D01*
X270899Y-215500D02*
X271899D01*
X105800Y-187400D02*
Y-184401D01*
X107299D01*
X107799Y-184901D01*
Y-185900D01*
X107299Y-186400D01*
X105800D01*
X106800D02*
X107799Y-187400D01*
X108799Y-184401D02*
X110798D01*
Y-184901D01*
X108799Y-186900D01*
Y-187400D01*
X97800D02*
Y-184401D01*
X99300D01*
X99799Y-184901D01*
Y-185900D01*
X99300Y-186400D01*
X97800D01*
X98800D02*
X99799Y-187400D01*
X102798Y-184401D02*
X101799Y-184901D01*
X100799Y-185900D01*
Y-186900D01*
X101299Y-187400D01*
X102299D01*
X102798Y-186900D01*
Y-186400D01*
X102299Y-185900D01*
X100799D01*
X77800Y-32200D02*
Y-29201D01*
X79299D01*
X79799Y-29701D01*
Y-30700D01*
X79299Y-31200D01*
X77800D01*
X78800D02*
X79799Y-32200D01*
X82299D02*
Y-29201D01*
X80799Y-30700D01*
X82798D01*
X240100Y-105700D02*
Y-102701D01*
X241599D01*
X242099Y-103201D01*
Y-104200D01*
X241599Y-104700D01*
X240100D01*
X241100D02*
X242099Y-105700D01*
X243099Y-103201D02*
X243599Y-102701D01*
X244599D01*
X245098Y-103201D01*
Y-103701D01*
X244599Y-104200D01*
X244099D01*
X244599D01*
X245098Y-104700D01*
Y-105200D01*
X244599Y-105700D01*
X243599D01*
X243099Y-105200D01*
X265800Y-191400D02*
Y-188401D01*
X267300D01*
X267799Y-188901D01*
Y-189901D01*
X267300Y-190400D01*
X265800D01*
X266800D02*
X267799Y-191400D01*
X270798D02*
X268799D01*
X270798Y-189401D01*
Y-188901D01*
X270299Y-188401D01*
X269299D01*
X268799Y-188901D01*
X115500Y-200500D02*
Y-197501D01*
X116999D01*
X117499Y-198001D01*
Y-199001D01*
X116999Y-199500D01*
X115500D01*
X116500D02*
X117499Y-200500D01*
X118499D02*
X119499D01*
X118999D01*
Y-197501D01*
X118499Y-198001D01*
X103799Y-217157D02*
Y-215158D01*
X103299Y-214658D01*
X102300D01*
X101800Y-215158D01*
Y-217157D01*
X102300Y-217657D01*
X103299D01*
X102800Y-216657D02*
X103799Y-217657D01*
X103299D02*
X103799Y-217157D01*
X104799D02*
X105299Y-217657D01*
X106299D01*
X106798Y-217157D01*
Y-215158D01*
X106299Y-214658D01*
X105299D01*
X104799Y-215158D01*
Y-215657D01*
X105299Y-216157D01*
X106798D01*
X98199Y-246900D02*
Y-244901D01*
X97699Y-244401D01*
X96700D01*
X96200Y-244901D01*
Y-246900D01*
X96700Y-247400D01*
X97699D01*
X97200Y-246400D02*
X98199Y-247400D01*
X97699D02*
X98199Y-246900D01*
X99199Y-244901D02*
X99699Y-244401D01*
X100699D01*
X101198Y-244901D01*
Y-245401D01*
X100699Y-245901D01*
X101198Y-246400D01*
Y-246900D01*
X100699Y-247400D01*
X99699D01*
X99199Y-246900D01*
Y-246400D01*
X99699Y-245901D01*
X99199Y-245401D01*
Y-244901D01*
X99699Y-245901D02*
X100699D01*
X276599Y-228500D02*
Y-226501D01*
X276099Y-226001D01*
X275100D01*
X274600Y-226501D01*
Y-228500D01*
X275100Y-229000D01*
X276099D01*
X275600Y-228000D02*
X276599Y-229000D01*
X276099D02*
X276599Y-228500D01*
X277599Y-226001D02*
X279598D01*
Y-226501D01*
X277599Y-228500D01*
Y-229000D01*
X239499Y-226500D02*
Y-224501D01*
X239000Y-224001D01*
X238000D01*
X237500Y-224501D01*
Y-226500D01*
X238000Y-227000D01*
X239000D01*
X238500Y-226000D02*
X239499Y-227000D01*
X239000D02*
X239499Y-226500D01*
X242498Y-224001D02*
X241499Y-224501D01*
X240499Y-225500D01*
Y-226500D01*
X240999Y-227000D01*
X241999D01*
X242498Y-226500D01*
Y-226000D01*
X241999Y-225500D01*
X240499D01*
X314199Y-181300D02*
Y-179301D01*
X313700Y-178801D01*
X312700D01*
X312200Y-179301D01*
Y-181300D01*
X312700Y-181800D01*
X313700D01*
X313200Y-180800D02*
X314199Y-181800D01*
X313700D02*
X314199Y-181300D01*
X317198Y-178801D02*
X315199D01*
Y-180300D01*
X316199Y-179801D01*
X316699D01*
X317198Y-180300D01*
Y-181300D01*
X316699Y-181800D01*
X315699D01*
X315199Y-181300D01*
X68599Y-216500D02*
Y-214501D01*
X68099Y-214001D01*
X67100D01*
X66600Y-214501D01*
Y-216500D01*
X67100Y-217000D01*
X68099D01*
X67600Y-216000D02*
X68599Y-217000D01*
X68099D02*
X68599Y-216500D01*
X71099Y-217000D02*
Y-214001D01*
X69599Y-215500D01*
X71598D01*
X66199Y-250900D02*
Y-248901D01*
X65699Y-248401D01*
X64700D01*
X64200Y-248901D01*
Y-250900D01*
X64700Y-251400D01*
X65699D01*
X65200Y-250400D02*
X66199Y-251400D01*
X65699D02*
X66199Y-250900D01*
X67199Y-248901D02*
X67699Y-248401D01*
X68699D01*
X69198Y-248901D01*
Y-249401D01*
X68699Y-249901D01*
X68199D01*
X68699D01*
X69198Y-250400D01*
Y-250900D01*
X68699Y-251400D01*
X67699D01*
X67199Y-250900D01*
X115699Y-183800D02*
Y-181801D01*
X115199Y-181301D01*
X114200D01*
X113700Y-181801D01*
Y-183800D01*
X114200Y-184300D01*
X115199D01*
X114700Y-183300D02*
X115699Y-184300D01*
X115199D02*
X115699Y-183800D01*
X118698Y-184300D02*
X116699D01*
X118698Y-182301D01*
Y-181801D01*
X118199Y-181301D01*
X117199D01*
X116699Y-181801D01*
X132499Y-185500D02*
Y-183501D01*
X132000Y-183001D01*
X131000D01*
X130500Y-183501D01*
Y-185500D01*
X131000Y-186000D01*
X132000D01*
X131500Y-185000D02*
X132499Y-186000D01*
X132000D02*
X132499Y-185500D01*
X133499Y-186000D02*
X134499D01*
X133999D01*
Y-183001D01*
X133499Y-183501D01*
X10000Y-163000D02*
Y-160001D01*
X11500D01*
X11999Y-160501D01*
Y-161501D01*
X11500Y-162000D01*
X10000D01*
X12999Y-163000D02*
X13999D01*
X13499D01*
Y-160001D01*
X12999Y-160501D01*
X17498Y-160001D02*
X15498D01*
Y-161501D01*
X16498Y-161001D01*
X16998D01*
X17498Y-161501D01*
Y-162500D01*
X16998Y-163000D01*
X15998D01*
X15498Y-162500D01*
X10000Y-98000D02*
Y-95001D01*
X11500D01*
X11999Y-95501D01*
Y-96500D01*
X11500Y-97000D01*
X10000D01*
X12999Y-98000D02*
X13999D01*
X13499D01*
Y-95001D01*
X12999Y-95501D01*
X16998Y-98000D02*
Y-95001D01*
X15498Y-96500D01*
X17498D01*
X351200Y-101000D02*
Y-98001D01*
X352699D01*
X353199Y-98501D01*
Y-99501D01*
X352699Y-100000D01*
X351200D01*
X354199Y-101000D02*
X355199D01*
X354699D01*
Y-98001D01*
X354199Y-98501D01*
X356698D02*
X357198Y-98001D01*
X358198D01*
X358698Y-98501D01*
Y-99001D01*
X358198Y-99501D01*
X357698D01*
X358198D01*
X358698Y-100000D01*
Y-100500D01*
X358198Y-101000D01*
X357198D01*
X356698Y-100500D01*
X363200Y-101000D02*
Y-98001D01*
X364700D01*
X365199Y-98501D01*
Y-99501D01*
X364700Y-100000D01*
X363200D01*
X366199Y-101000D02*
X367199D01*
X366699D01*
Y-98001D01*
X366199Y-98501D01*
X370698Y-101000D02*
X368698D01*
X370698Y-99001D01*
Y-98501D01*
X370198Y-98001D01*
X369198D01*
X368698Y-98501D01*
X229000Y-304000D02*
Y-301001D01*
X230500D01*
X230999Y-301501D01*
Y-302501D01*
X230500Y-303000D01*
X229000D01*
X231999Y-304000D02*
X232999D01*
X232499D01*
Y-301001D01*
X231999Y-301501D01*
X234498Y-304000D02*
X235498D01*
X234998D01*
Y-301001D01*
X234498Y-301501D01*
X2000Y-229000D02*
Y-226001D01*
X3500D01*
X3999Y-226501D01*
Y-227501D01*
X3500Y-228000D01*
X2000D01*
X4999Y-229000D02*
X5999D01*
X5499D01*
Y-226001D01*
X4999Y-226501D01*
X7498D02*
X7998Y-226001D01*
X8998D01*
X9498Y-226501D01*
Y-228500D01*
X8998Y-229000D01*
X7998D01*
X7498Y-228500D01*
Y-226501D01*
X74600Y-288200D02*
Y-285201D01*
X76099D01*
X76599Y-285701D01*
Y-286701D01*
X76099Y-287200D01*
X74600D01*
X77599Y-287700D02*
X78099Y-288200D01*
X79099D01*
X79598Y-287700D01*
Y-285701D01*
X79099Y-285201D01*
X78099D01*
X77599Y-285701D01*
Y-286201D01*
X78099Y-286701D01*
X79598D01*
X379200Y-176000D02*
Y-173001D01*
X380699D01*
X381199Y-173501D01*
Y-174501D01*
X380699Y-175000D01*
X379200D01*
X382199Y-173501D02*
X382699Y-173001D01*
X383699D01*
X384198Y-173501D01*
Y-174001D01*
X383699Y-174501D01*
X384198Y-175000D01*
Y-175500D01*
X383699Y-176000D01*
X382699D01*
X382199Y-175500D01*
Y-175000D01*
X382699Y-174501D01*
X382199Y-174001D01*
Y-173501D01*
X382699Y-174501D02*
X383699D01*
X155000Y-278000D02*
Y-275001D01*
X156500D01*
X156999Y-275501D01*
Y-276501D01*
X156500Y-277000D01*
X155000D01*
X157999Y-275001D02*
X159998D01*
Y-275501D01*
X157999Y-277500D01*
Y-278000D01*
X236000D02*
Y-275001D01*
X237499D01*
X237999Y-275501D01*
Y-276501D01*
X237499Y-277000D01*
X236000D01*
X240998Y-275001D02*
X239999Y-275501D01*
X238999Y-276501D01*
Y-277500D01*
X239499Y-278000D01*
X240498D01*
X240998Y-277500D01*
Y-277000D01*
X240498Y-276501D01*
X238999D01*
X156000Y-304000D02*
Y-301001D01*
X157500D01*
X157999Y-301501D01*
Y-302501D01*
X157500Y-303000D01*
X156000D01*
X160998Y-301001D02*
X158999D01*
Y-302501D01*
X159999Y-302001D01*
X160499D01*
X160998Y-302501D01*
Y-303500D01*
X160499Y-304000D01*
X159499D01*
X158999Y-303500D01*
X17800Y-305000D02*
Y-302001D01*
X19299D01*
X19799Y-302501D01*
Y-303501D01*
X19299Y-304000D01*
X17800D01*
X22299Y-305000D02*
Y-302001D01*
X20799Y-303501D01*
X22798D01*
X197000Y-304000D02*
Y-301001D01*
X198500D01*
X198999Y-301501D01*
Y-302501D01*
X198500Y-303000D01*
X197000D01*
X199999Y-301501D02*
X200499Y-301001D01*
X201499D01*
X201998Y-301501D01*
Y-302001D01*
X201499Y-302501D01*
X200999D01*
X201499D01*
X201998Y-303000D01*
Y-303500D01*
X201499Y-304000D01*
X200499D01*
X199999Y-303500D01*
X113500Y-277900D02*
Y-274901D01*
X114999D01*
X115499Y-275401D01*
Y-276400D01*
X114999Y-276900D01*
X113500D01*
X118498Y-277900D02*
X116499D01*
X118498Y-275901D01*
Y-275401D01*
X117999Y-274901D01*
X116999D01*
X116499Y-275401D01*
X15000Y-15000D02*
Y-12001D01*
X16499D01*
X16999Y-12501D01*
Y-13500D01*
X16499Y-14000D01*
X15000D01*
X17999Y-15000D02*
X18999D01*
X18499D01*
Y-12001D01*
X17999Y-12501D01*
X334600Y-172401D02*
Y-175400D01*
X336599D01*
X339598Y-172901D02*
X339099Y-172401D01*
X338099D01*
X337599Y-172901D01*
Y-173401D01*
X338099Y-173900D01*
X339099D01*
X339598Y-174400D01*
Y-174900D01*
X339099Y-175400D01*
X338099D01*
X337599Y-174900D01*
X340598Y-175400D02*
X341598D01*
X341098D01*
Y-172401D01*
X340598Y-172901D01*
X135400Y-34801D02*
Y-37800D01*
X137399D01*
X138399D02*
X139399D01*
X138899D01*
Y-34801D01*
X138399Y-35301D01*
X255300Y-154801D02*
Y-157800D01*
X256800D01*
X257299Y-157300D01*
Y-155301D01*
X256800Y-154801D01*
X255300D01*
X258299Y-157800D02*
X259299D01*
X258799D01*
Y-154801D01*
X258299Y-155301D01*
X260798Y-154801D02*
X262798D01*
Y-155301D01*
X260798Y-157300D01*
Y-157800D01*
X265300Y-154801D02*
Y-157800D01*
X266799D01*
X267299Y-157300D01*
Y-155301D01*
X266799Y-154801D01*
X265300D01*
X268299Y-157800D02*
X269299D01*
X268799D01*
Y-154801D01*
X268299Y-155301D01*
X272798Y-154801D02*
X271798Y-155301D01*
X270798Y-156300D01*
Y-157300D01*
X271298Y-157800D01*
X272298D01*
X272798Y-157300D01*
Y-156800D01*
X272298Y-156300D01*
X270798D01*
X256200Y-115601D02*
Y-118600D01*
X257699D01*
X258199Y-118100D01*
Y-116101D01*
X257699Y-115601D01*
X256200D01*
X259199Y-118600D02*
X260199D01*
X259699D01*
Y-115601D01*
X259199Y-116101D01*
X263698Y-115601D02*
X261698D01*
Y-117101D01*
X262698Y-116601D01*
X263198D01*
X263698Y-117101D01*
Y-118100D01*
X263198Y-118600D01*
X262198D01*
X261698Y-118100D01*
X265000Y-115601D02*
Y-118600D01*
X266499D01*
X266999Y-118100D01*
Y-116101D01*
X266499Y-115601D01*
X265000D01*
X267999Y-118600D02*
X268999D01*
X268499D01*
Y-115601D01*
X267999Y-116101D01*
X271998Y-118600D02*
Y-115601D01*
X270498Y-117101D01*
X272498D01*
X138300Y-139801D02*
Y-142800D01*
X139799D01*
X140299Y-142300D01*
Y-140301D01*
X139799Y-139801D01*
X138300D01*
X141299Y-142800D02*
X142299D01*
X141799D01*
Y-139801D01*
X141299Y-140301D01*
X143798D02*
X144298Y-139801D01*
X145298D01*
X145798Y-140301D01*
Y-140801D01*
X145298Y-141300D01*
X144798D01*
X145298D01*
X145798Y-141800D01*
Y-142300D01*
X145298Y-142800D01*
X144298D01*
X143798Y-142300D01*
X148300Y-139801D02*
Y-142800D01*
X149800D01*
X150299Y-142300D01*
Y-140301D01*
X149800Y-139801D01*
X148300D01*
X151299Y-142800D02*
X152299D01*
X151799D01*
Y-139801D01*
X151299Y-140301D01*
X155798Y-142800D02*
X153798D01*
X155798Y-140801D01*
Y-140301D01*
X155298Y-139801D01*
X154298D01*
X153798Y-140301D01*
X198300Y-139801D02*
Y-142800D01*
X199800D01*
X200299Y-142300D01*
Y-140301D01*
X199800Y-139801D01*
X198300D01*
X201299Y-142800D02*
X202299D01*
X201799D01*
Y-139801D01*
X201299Y-140301D01*
X203798Y-142800D02*
X204798D01*
X204298D01*
Y-139801D01*
X203798Y-140301D01*
X139400Y-101201D02*
Y-104200D01*
X140900D01*
X141399Y-103700D01*
Y-101701D01*
X140900Y-101201D01*
X139400D01*
X142399Y-104200D02*
X143399D01*
X142899D01*
Y-101201D01*
X142399Y-101701D01*
X144898D02*
X145398Y-101201D01*
X146398D01*
X146898Y-101701D01*
Y-103700D01*
X146398Y-104200D01*
X145398D01*
X144898Y-103700D01*
Y-101701D01*
X208300Y-139801D02*
Y-142800D01*
X209800D01*
X210299Y-142300D01*
Y-140301D01*
X209800Y-139801D01*
X208300D01*
X211299Y-142300D02*
X211799Y-142800D01*
X212799D01*
X213298Y-142300D01*
Y-140301D01*
X212799Y-139801D01*
X211799D01*
X211299Y-140301D01*
Y-140801D01*
X211799Y-141300D01*
X213298D01*
X149800Y-101201D02*
Y-104200D01*
X151300D01*
X151799Y-103700D01*
Y-101701D01*
X151300Y-101201D01*
X149800D01*
X152799Y-101701D02*
X153299Y-101201D01*
X154299D01*
X154798Y-101701D01*
Y-102201D01*
X154299Y-102700D01*
X154798Y-103200D01*
Y-103700D01*
X154299Y-104200D01*
X153299D01*
X152799Y-103700D01*
Y-103200D01*
X153299Y-102700D01*
X152799Y-102201D01*
Y-101701D01*
X153299Y-102700D02*
X154299D01*
X200200Y-101001D02*
Y-104000D01*
X201699D01*
X202199Y-103500D01*
Y-101501D01*
X201699Y-101001D01*
X200200D01*
X203199D02*
X205198D01*
Y-101501D01*
X203199Y-103500D01*
Y-104000D01*
X209800Y-101001D02*
Y-104000D01*
X211299D01*
X211799Y-103500D01*
Y-101501D01*
X211299Y-101001D01*
X209800D01*
X214798D02*
X213799Y-101501D01*
X212799Y-102500D01*
Y-103500D01*
X213299Y-104000D01*
X214299D01*
X214798Y-103500D01*
Y-103000D01*
X214299Y-102500D01*
X212799D01*
X108200Y-237201D02*
Y-240200D01*
X109699D01*
X110199Y-239700D01*
Y-237701D01*
X109699Y-237201D01*
X108200D01*
X113198D02*
X111199D01*
Y-238701D01*
X112199Y-238201D01*
X112699D01*
X113198Y-238701D01*
Y-239700D01*
X112699Y-240200D01*
X111699D01*
X111199Y-239700D01*
X135400Y-11601D02*
Y-14600D01*
X136899D01*
X137399Y-14100D01*
Y-12101D01*
X136899Y-11601D01*
X135400D01*
X139899Y-14600D02*
Y-11601D01*
X138399Y-13101D01*
X140398D01*
X268300Y-260801D02*
Y-263800D01*
X269799D01*
X270299Y-263300D01*
Y-261301D01*
X269799Y-260801D01*
X268300D01*
X271299Y-261301D02*
X271799Y-260801D01*
X272798D01*
X273298Y-261301D01*
Y-261801D01*
X272798Y-262300D01*
X272299D01*
X272798D01*
X273298Y-262800D01*
Y-263300D01*
X272798Y-263800D01*
X271799D01*
X271299Y-263300D01*
X77800Y-10001D02*
Y-13000D01*
X79299D01*
X79799Y-12500D01*
Y-10501D01*
X79299Y-10001D01*
X77800D01*
X82798Y-13000D02*
X80799D01*
X82798Y-11001D01*
Y-10501D01*
X82299Y-10001D01*
X81299D01*
X80799Y-10501D01*
X125000Y-252401D02*
Y-255400D01*
X126499D01*
X126999Y-254900D01*
Y-252901D01*
X126499Y-252401D01*
X125000D01*
X127999Y-255400D02*
X128999D01*
X128499D01*
Y-252401D01*
X127999Y-252901D01*
X78999Y-68101D02*
X78500Y-67601D01*
X77500D01*
X77000Y-68101D01*
Y-70100D01*
X77500Y-70600D01*
X78500D01*
X78999Y-70100D01*
X79999Y-67601D02*
Y-70600D01*
X81499D01*
X81998Y-70100D01*
Y-69600D01*
X81499Y-69100D01*
X79999D01*
X81499D01*
X81998Y-68601D01*
Y-68101D01*
X81499Y-67601D01*
X79999D01*
X82998Y-70600D02*
X83998D01*
X83498D01*
Y-67601D01*
X82998Y-68101D01*
X249399Y-182501D02*
X248900Y-182001D01*
X247900D01*
X247400Y-182501D01*
Y-184500D01*
X247900Y-185000D01*
X248900D01*
X249399Y-184500D01*
X251899Y-185000D02*
Y-182001D01*
X250399Y-183501D01*
X252398D01*
X255397Y-185000D02*
X253398D01*
X255397Y-183001D01*
Y-182501D01*
X254898Y-182001D01*
X253898D01*
X253398Y-182501D01*
X232599D02*
X232100Y-182001D01*
X231100D01*
X230600Y-182501D01*
Y-184500D01*
X231100Y-185000D01*
X232100D01*
X232599Y-184500D01*
X235099Y-185000D02*
Y-182001D01*
X233599Y-183501D01*
X235598D01*
X236598Y-185000D02*
X237598D01*
X237098D01*
Y-182001D01*
X236598Y-182501D01*
X223799D02*
X223300Y-182001D01*
X222300D01*
X221800Y-182501D01*
Y-184500D01*
X222300Y-185000D01*
X223300D01*
X223799Y-184500D01*
X226298Y-185000D02*
Y-182001D01*
X224799Y-183501D01*
X226798D01*
X227798Y-182501D02*
X228298Y-182001D01*
X229298D01*
X229797Y-182501D01*
Y-184500D01*
X229298Y-185000D01*
X228298D01*
X227798Y-184500D01*
Y-182501D01*
X388699Y-147801D02*
X388199Y-147301D01*
X387200D01*
X386700Y-147801D01*
Y-149800D01*
X387200Y-150300D01*
X388199D01*
X388699Y-149800D01*
X389699Y-147801D02*
X390199Y-147301D01*
X391198D01*
X391698Y-147801D01*
Y-148301D01*
X391198Y-148801D01*
X390699D01*
X391198D01*
X391698Y-149300D01*
Y-149800D01*
X391198Y-150300D01*
X390199D01*
X389699Y-149800D01*
X392698D02*
X393198Y-150300D01*
X394198D01*
X394697Y-149800D01*
Y-147801D01*
X394198Y-147301D01*
X393198D01*
X392698Y-147801D01*
Y-148301D01*
X393198Y-148801D01*
X394697D01*
X249399Y-116101D02*
X248900Y-115601D01*
X247900D01*
X247400Y-116101D01*
Y-118100D01*
X247900Y-118600D01*
X248900D01*
X249399Y-118100D01*
X250399Y-116101D02*
X250899Y-115601D01*
X251899D01*
X252398Y-116101D01*
Y-116601D01*
X251899Y-117101D01*
X251399D01*
X251899D01*
X252398Y-117600D01*
Y-118100D01*
X251899Y-118600D01*
X250899D01*
X250399Y-118100D01*
X255397Y-115601D02*
X254398Y-116101D01*
X253398Y-117101D01*
Y-118100D01*
X253898Y-118600D01*
X254898D01*
X255397Y-118100D01*
Y-117600D01*
X254898Y-117101D01*
X253398D01*
X231999Y-116294D02*
X231500Y-115794D01*
X230500D01*
X230000Y-116294D01*
Y-118293D01*
X230500Y-118793D01*
X231500D01*
X231999Y-118293D01*
X232999Y-116294D02*
X233499Y-115794D01*
X234499D01*
X234998Y-116294D01*
Y-116794D01*
X234499Y-117293D01*
X233999D01*
X234499D01*
X234998Y-117793D01*
Y-118293D01*
X234499Y-118793D01*
X233499D01*
X232999Y-118293D01*
X237997Y-115794D02*
X235998D01*
Y-117293D01*
X236998Y-116794D01*
X237498D01*
X237997Y-117293D01*
Y-118293D01*
X237498Y-118793D01*
X236498D01*
X235998Y-118293D01*
X223653Y-116294D02*
X223153Y-115794D01*
X222153D01*
X221653Y-116294D01*
Y-118293D01*
X222153Y-118793D01*
X223153D01*
X223653Y-118293D01*
X224652Y-116294D02*
X225152Y-115794D01*
X226152D01*
X226652Y-116294D01*
Y-116794D01*
X226152Y-117293D01*
X225652D01*
X226152D01*
X226652Y-117793D01*
Y-118293D01*
X226152Y-118793D01*
X225152D01*
X224652Y-118293D01*
X229151Y-118793D02*
Y-115794D01*
X227651Y-117293D01*
X229651D01*
X240599Y-78501D02*
X240100Y-78001D01*
X239100D01*
X238600Y-78501D01*
Y-80500D01*
X239100Y-81000D01*
X240100D01*
X240599Y-80500D01*
X241599Y-78501D02*
X242099Y-78001D01*
X243098D01*
X243598Y-78501D01*
Y-79001D01*
X243098Y-79501D01*
X242599D01*
X243098D01*
X243598Y-80000D01*
Y-80500D01*
X243098Y-81000D01*
X242099D01*
X241599Y-80500D01*
X244598Y-78501D02*
X245098Y-78001D01*
X246098D01*
X246597Y-78501D01*
Y-79001D01*
X246098Y-79501D01*
X245598D01*
X246098D01*
X246597Y-80000D01*
Y-80500D01*
X246098Y-81000D01*
X245098D01*
X244598Y-80500D01*
X257099Y-47801D02*
X256599Y-47301D01*
X255600D01*
X255100Y-47801D01*
Y-49800D01*
X255600Y-50300D01*
X256599D01*
X257099Y-49800D01*
X258099Y-47801D02*
X258599Y-47301D01*
X259598D01*
X260098Y-47801D01*
Y-48301D01*
X259598Y-48801D01*
X259099D01*
X259598D01*
X260098Y-49300D01*
Y-49800D01*
X259598Y-50300D01*
X258599D01*
X258099Y-49800D01*
X263097Y-50300D02*
X261098D01*
X263097Y-48301D01*
Y-47801D01*
X262598Y-47301D01*
X261598D01*
X261098Y-47801D01*
X132599Y-168101D02*
X132099Y-167601D01*
X131100D01*
X130600Y-168101D01*
Y-170100D01*
X131100Y-170600D01*
X132099D01*
X132599Y-170100D01*
X133599Y-168101D02*
X134099Y-167601D01*
X135099D01*
X135598Y-168101D01*
Y-168601D01*
X135099Y-169100D01*
X134599D01*
X135099D01*
X135598Y-169600D01*
Y-170100D01*
X135099Y-170600D01*
X134099D01*
X133599Y-170100D01*
X136598Y-170600D02*
X137598D01*
X137098D01*
Y-167601D01*
X136598Y-168101D01*
X114999D02*
X114499Y-167601D01*
X113500D01*
X113000Y-168101D01*
Y-170100D01*
X113500Y-170600D01*
X114499D01*
X114999Y-170100D01*
X115999Y-168101D02*
X116499Y-167601D01*
X117499D01*
X117998Y-168101D01*
Y-168601D01*
X117499Y-169100D01*
X116999D01*
X117499D01*
X117998Y-169600D01*
Y-170100D01*
X117499Y-170600D01*
X116499D01*
X115999Y-170100D01*
X118998Y-168101D02*
X119498Y-167601D01*
X120498D01*
X120997Y-168101D01*
Y-170100D01*
X120498Y-170600D01*
X119498D01*
X118998Y-170100D01*
Y-168101D01*
X98999Y-162501D02*
X98500Y-162001D01*
X97500D01*
X97000Y-162501D01*
Y-164500D01*
X97500Y-165000D01*
X98500D01*
X98999Y-164500D01*
X101998Y-165000D02*
X99999D01*
X101998Y-163001D01*
Y-162501D01*
X101499Y-162001D01*
X100499D01*
X99999Y-162501D01*
X102998Y-164500D02*
X103498Y-165000D01*
X104498D01*
X104997Y-164500D01*
Y-162501D01*
X104498Y-162001D01*
X103498D01*
X102998Y-162501D01*
Y-163001D01*
X103498Y-163500D01*
X104997D01*
X192599Y-167301D02*
X192099Y-166801D01*
X191100D01*
X190600Y-167301D01*
Y-169300D01*
X191100Y-169800D01*
X192099D01*
X192599Y-169300D01*
X195598Y-169800D02*
X193599D01*
X195598Y-167801D01*
Y-167301D01*
X195099Y-166801D01*
X194099D01*
X193599Y-167301D01*
X198597Y-166801D02*
X197598Y-167301D01*
X196598Y-168300D01*
Y-169300D01*
X197098Y-169800D01*
X198098D01*
X198597Y-169300D01*
Y-168800D01*
X198098Y-168300D01*
X196598D01*
X173399Y-167301D02*
X172899Y-166801D01*
X171900D01*
X171400Y-167301D01*
Y-169300D01*
X171900Y-169800D01*
X172899D01*
X173399Y-169300D01*
X176398Y-169800D02*
X174399D01*
X176398Y-167801D01*
Y-167301D01*
X175899Y-166801D01*
X174899D01*
X174399Y-167301D01*
X179397Y-166801D02*
X177398D01*
Y-168300D01*
X178398Y-167801D01*
X178898D01*
X179397Y-168300D01*
Y-169300D01*
X178898Y-169800D01*
X177898D01*
X177398Y-169300D01*
X159799Y-155301D02*
X159300Y-154801D01*
X158300D01*
X157800Y-155301D01*
Y-157300D01*
X158300Y-157800D01*
X159300D01*
X159799Y-157300D01*
X162798Y-157800D02*
X160799D01*
X162798Y-155801D01*
Y-155301D01*
X162299Y-154801D01*
X161299D01*
X160799Y-155301D01*
X165298Y-157800D02*
Y-154801D01*
X163798Y-156300D01*
X165797D01*
X131799Y-101701D02*
X131299Y-101201D01*
X130300D01*
X129800Y-101701D01*
Y-103700D01*
X130300Y-104200D01*
X131299D01*
X131799Y-103700D01*
X134798Y-104200D02*
X132799D01*
X134798Y-102201D01*
Y-101701D01*
X134299Y-101201D01*
X133299D01*
X132799Y-101701D01*
X135798D02*
X136298Y-101201D01*
X137298D01*
X137797Y-101701D01*
Y-102201D01*
X137298Y-102700D01*
X136798D01*
X137298D01*
X137797Y-103200D01*
Y-103700D01*
X137298Y-104200D01*
X136298D01*
X135798Y-103700D01*
X114999Y-101701D02*
X114499Y-101201D01*
X113500D01*
X113000Y-101701D01*
Y-103700D01*
X113500Y-104200D01*
X114499D01*
X114999Y-103700D01*
X117998Y-104200D02*
X115999D01*
X117998Y-102201D01*
Y-101701D01*
X117499Y-101201D01*
X116499D01*
X115999Y-101701D01*
X120997Y-104200D02*
X118998D01*
X120997Y-102201D01*
Y-101701D01*
X120498Y-101201D01*
X119498D01*
X118998Y-101701D01*
X106999D02*
X106500Y-101201D01*
X105500D01*
X105000Y-101701D01*
Y-103700D01*
X105500Y-104200D01*
X106500D01*
X106999Y-103700D01*
X109998Y-104200D02*
X107999D01*
X109998Y-102201D01*
Y-101701D01*
X109499Y-101201D01*
X108499D01*
X107999Y-101701D01*
X110998Y-104200D02*
X111998D01*
X111498D01*
Y-101201D01*
X110998Y-101701D01*
X290199Y-8901D02*
X289700Y-8401D01*
X288700D01*
X288200Y-8901D01*
Y-10900D01*
X288700Y-11400D01*
X289700D01*
X290199Y-10900D01*
X293198Y-11400D02*
X291199D01*
X293198Y-9401D01*
Y-8901D01*
X292699Y-8401D01*
X291699D01*
X291199Y-8901D01*
X294198D02*
X294698Y-8401D01*
X295698D01*
X296197Y-8901D01*
Y-10900D01*
X295698Y-11400D01*
X294698D01*
X294198Y-10900D01*
Y-8901D01*
X193399Y-101501D02*
X192900Y-101001D01*
X191900D01*
X191400Y-101501D01*
Y-103500D01*
X191900Y-104000D01*
X192900D01*
X193399Y-103500D01*
X194399Y-104000D02*
X195399D01*
X194899D01*
Y-101001D01*
X194399Y-101501D01*
X196898Y-101001D02*
X198898D01*
Y-101501D01*
X196898Y-103500D01*
Y-104000D01*
X175799Y-101501D02*
X175300Y-101001D01*
X174300D01*
X173800Y-101501D01*
Y-103500D01*
X174300Y-104000D01*
X175300D01*
X175799Y-103500D01*
X176799Y-104000D02*
X177799D01*
X177299D01*
Y-101001D01*
X176799Y-101501D01*
X181298Y-101001D02*
X180298Y-101501D01*
X179298Y-102500D01*
Y-103500D01*
X179798Y-104000D01*
X180798D01*
X181298Y-103500D01*
Y-103000D01*
X180798Y-102500D01*
X179298D01*
X166999Y-101501D02*
X166499Y-101001D01*
X165500D01*
X165000Y-101501D01*
Y-103500D01*
X165500Y-104000D01*
X166499D01*
X166999Y-103500D01*
X167999Y-104000D02*
X168999D01*
X168499D01*
Y-101001D01*
X167999Y-101501D01*
X172498Y-101001D02*
X170498D01*
Y-102500D01*
X171498Y-102001D01*
X171998D01*
X172498Y-102500D01*
Y-103500D01*
X171998Y-104000D01*
X170998D01*
X170498Y-103500D01*
X308599Y-13701D02*
X308100Y-13201D01*
X307100D01*
X306600Y-13701D01*
Y-15700D01*
X307100Y-16200D01*
X308100D01*
X308599Y-15700D01*
X309599Y-16200D02*
X310599D01*
X310099D01*
Y-13201D01*
X309599Y-13701D01*
X313598Y-16200D02*
Y-13201D01*
X312098Y-14701D01*
X314098D01*
X323799Y-21701D02*
X323300Y-21201D01*
X322300D01*
X321800Y-21701D01*
Y-23700D01*
X322300Y-24200D01*
X323300D01*
X323799Y-23700D01*
X324799Y-24200D02*
X325799D01*
X325299D01*
Y-21201D01*
X324799Y-21701D01*
X327298D02*
X327798Y-21201D01*
X328798D01*
X329298Y-21701D01*
Y-22201D01*
X328798Y-22701D01*
X328298D01*
X328798D01*
X329298Y-23200D01*
Y-23700D01*
X328798Y-24200D01*
X327798D01*
X327298Y-23700D01*
X124692Y-235650D02*
X124192Y-235151D01*
X123193D01*
X122693Y-235650D01*
Y-237650D01*
X123193Y-238150D01*
X124192D01*
X124692Y-237650D01*
X125692Y-238150D02*
X126692D01*
X126192D01*
Y-235151D01*
X125692Y-235650D01*
X130191Y-238150D02*
X128191D01*
X130191Y-236150D01*
Y-235650D01*
X129691Y-235151D01*
X128691D01*
X128191Y-235650D01*
X257399Y-8101D02*
X256899Y-7601D01*
X255900D01*
X255400Y-8101D01*
Y-10100D01*
X255900Y-10600D01*
X256899D01*
X257399Y-10100D01*
X258399Y-10600D02*
X259399D01*
X258899D01*
Y-7601D01*
X258399Y-8101D01*
X260898Y-10600D02*
X261898D01*
X261398D01*
Y-7601D01*
X260898Y-8101D01*
X230999D02*
X230500Y-7601D01*
X229500D01*
X229000Y-8101D01*
Y-10100D01*
X229500Y-10600D01*
X230500D01*
X230999Y-10100D01*
X231999Y-10600D02*
X232999D01*
X232499D01*
Y-7601D01*
X231999Y-8101D01*
X234498D02*
X234998Y-7601D01*
X235998D01*
X236498Y-8101D01*
Y-10100D01*
X235998Y-10600D01*
X234998D01*
X234498Y-10100D01*
Y-8101D01*
X279699Y-260801D02*
X279200Y-260301D01*
X278200D01*
X277700Y-260801D01*
Y-262800D01*
X278200Y-263300D01*
X279200D01*
X279699Y-262800D01*
X280699D02*
X281199Y-263300D01*
X282199D01*
X282698Y-262800D01*
Y-260801D01*
X282199Y-260301D01*
X281199D01*
X280699Y-260801D01*
Y-261301D01*
X281199Y-261801D01*
X282698D01*
X205269Y-40101D02*
X204769Y-39601D01*
X203769D01*
X203269Y-40101D01*
Y-42100D01*
X203769Y-42600D01*
X204769D01*
X205269Y-42100D01*
X206268Y-40101D02*
X206768Y-39601D01*
X207768D01*
X208268Y-40101D01*
Y-40601D01*
X207768Y-41100D01*
X208268Y-41600D01*
Y-42100D01*
X207768Y-42600D01*
X206768D01*
X206268Y-42100D01*
Y-41600D01*
X206768Y-41100D01*
X206268Y-40601D01*
Y-40101D01*
X206768Y-41100D02*
X207768D01*
X87799Y-90501D02*
X87300Y-90001D01*
X86300D01*
X85800Y-90501D01*
Y-92500D01*
X86300Y-93000D01*
X87300D01*
X87799Y-92500D01*
X88799Y-90001D02*
X90798D01*
Y-90501D01*
X88799Y-92500D01*
Y-93000D01*
X290199Y-212101D02*
X289700Y-211601D01*
X288700D01*
X288200Y-212101D01*
Y-214100D01*
X288700Y-214600D01*
X289700D01*
X290199Y-214100D01*
X293198Y-211601D02*
X292199Y-212101D01*
X291199Y-213101D01*
Y-214100D01*
X291699Y-214600D01*
X292699D01*
X293198Y-214100D01*
Y-213600D01*
X292699Y-213101D01*
X291199D01*
X117399Y-256101D02*
X116900Y-255601D01*
X115900D01*
X115400Y-256101D01*
Y-258100D01*
X115900Y-258600D01*
X116900D01*
X117399Y-258100D01*
X120398Y-255601D02*
X118399D01*
Y-257101D01*
X119399Y-256601D01*
X119899D01*
X120398Y-257101D01*
Y-258100D01*
X119899Y-258600D01*
X118899D01*
X118399Y-258100D01*
X133399Y-240901D02*
X132899Y-240401D01*
X131900D01*
X131400Y-240901D01*
Y-242900D01*
X131900Y-243400D01*
X132899D01*
X133399Y-242900D01*
X135899Y-243400D02*
Y-240401D01*
X134399Y-241900D01*
X136398D01*
X327441Y-216501D02*
X326941Y-216001D01*
X325942D01*
X325442Y-216501D01*
Y-218500D01*
X325942Y-219000D01*
X326941D01*
X327441Y-218500D01*
X328441Y-216501D02*
X328941Y-216001D01*
X329940D01*
X330440Y-216501D01*
Y-217001D01*
X329940Y-217500D01*
X329440D01*
X329940D01*
X330440Y-218000D01*
Y-218500D01*
X329940Y-219000D01*
X328941D01*
X328441Y-218500D01*
X285399Y-226501D02*
X284899Y-226001D01*
X283900D01*
X283400Y-226501D01*
Y-228500D01*
X283900Y-229000D01*
X284899D01*
X285399Y-228500D01*
X288398Y-229000D02*
X286399D01*
X288398Y-227001D01*
Y-226501D01*
X287898Y-226001D01*
X286899D01*
X286399Y-226501D01*
X267799Y-184101D02*
X267300Y-183601D01*
X266300D01*
X265800Y-184101D01*
Y-186100D01*
X266300Y-186600D01*
X267300D01*
X267799Y-186100D01*
X268799Y-186600D02*
X269799D01*
X269299D01*
Y-183601D01*
X268799Y-184101D01*
X162900Y-183801D02*
Y-186300D01*
X163400Y-186800D01*
X164400D01*
X164899Y-186300D01*
Y-183801D01*
X165899Y-186800D02*
X166899D01*
X166399D01*
Y-183801D01*
X165899Y-184301D01*
X168398D02*
X168898Y-183801D01*
X169898D01*
X170398Y-184301D01*
Y-184801D01*
X169898Y-185301D01*
X169398D01*
X169898D01*
X170398Y-185800D01*
Y-186300D01*
X169898Y-186800D01*
X168898D01*
X168398Y-186300D01*
X214600Y-186001D02*
Y-188500D01*
X215100Y-189000D01*
X216100D01*
X216599Y-188500D01*
Y-186001D01*
X217599Y-189000D02*
X218599D01*
X218099D01*
Y-186001D01*
X217599Y-186501D01*
X221598Y-189000D02*
Y-186001D01*
X220098Y-187501D01*
X222098D01*
X185900Y-219801D02*
Y-222300D01*
X186400Y-222800D01*
X187399D01*
X187899Y-222300D01*
Y-219801D01*
X188899Y-222800D02*
X189899D01*
X189399D01*
Y-219801D01*
X188899Y-220301D01*
X193398Y-219801D02*
X191398D01*
Y-221301D01*
X192398Y-220801D01*
X192898D01*
X193398Y-221301D01*
Y-222300D01*
X192898Y-222800D01*
X191898D01*
X191398Y-222300D01*
X179400Y-270801D02*
Y-273300D01*
X179900Y-273800D01*
X180900D01*
X181399Y-273300D01*
Y-270801D01*
X182399Y-273800D02*
X183399D01*
X182899D01*
Y-270801D01*
X182399Y-271301D01*
X186898Y-270801D02*
X185898Y-271301D01*
X184898Y-272301D01*
Y-273300D01*
X185398Y-273800D01*
X186398D01*
X186898Y-273300D01*
Y-272800D01*
X186398Y-272301D01*
X184898D01*
X353000Y-255400D02*
Y-252401D01*
X354500D01*
X354999Y-252901D01*
Y-253901D01*
X354500Y-254400D01*
X353000D01*
X354000D02*
X354999Y-255400D01*
X357998Y-252401D02*
X356999Y-252901D01*
X355999Y-253901D01*
Y-254900D01*
X356499Y-255400D01*
X357499D01*
X357998Y-254900D01*
Y-254400D01*
X357499Y-253901D01*
X355999D01*
X360997Y-255400D02*
X358998D01*
X360997Y-253401D01*
Y-252901D01*
X360498Y-252401D01*
X359498D01*
X358998Y-252901D01*
X333000Y-9201D02*
Y-11700D01*
X333500Y-12200D01*
X334500D01*
X334999Y-11700D01*
Y-9201D01*
X337998D02*
X335999D01*
Y-10701D01*
X336999Y-10201D01*
X337498D01*
X337998Y-10701D01*
Y-11700D01*
X337498Y-12200D01*
X336499D01*
X335999Y-11700D01*
M02*
