%FSLAX25Y25*%
%MOIN*%
G70*
G01*
G75*
G04 Layer_Physical_Order=1*
G04 Layer_Color=255*
%ADD10R,0.09449X0.07087*%
%ADD11O,0.02756X0.09843*%
%ADD12R,0.03937X0.11417*%
%ADD13R,0.40945X0.31496*%
%ADD14R,0.05512X0.04724*%
%ADD15R,0.04724X0.05512*%
%ADD16R,0.21654X0.23228*%
%ADD17R,0.03543X0.07087*%
%ADD18R,0.04528X0.02362*%
%ADD19R,0.06693X0.06693*%
%ADD20R,0.09252X0.20276*%
%ADD21R,0.07992X0.08976*%
%ADD22R,0.09843X0.05512*%
%ADD23R,0.06693X0.06693*%
%ADD24R,0.19685X0.31496*%
%ADD25R,0.09449X0.03937*%
%ADD26R,0.09449X0.12992*%
%ADD27R,0.08465X0.11221*%
G04:AMPARAMS|DCode=28|XSize=11.81mil|YSize=59.06mil|CornerRadius=2.95mil|HoleSize=0mil|Usage=FLASHONLY|Rotation=90.000|XOffset=0mil|YOffset=0mil|HoleType=Round|Shape=RoundedRectangle|*
%AMROUNDEDRECTD28*
21,1,0.01181,0.05315,0,0,90.0*
21,1,0.00591,0.05906,0,0,90.0*
1,1,0.00591,0.02658,0.00295*
1,1,0.00591,0.02658,-0.00295*
1,1,0.00591,-0.02658,-0.00295*
1,1,0.00591,-0.02658,0.00295*
%
%ADD28ROUNDEDRECTD28*%
G04:AMPARAMS|DCode=29|XSize=11.81mil|YSize=59.06mil|CornerRadius=2.95mil|HoleSize=0mil|Usage=FLASHONLY|Rotation=180.000|XOffset=0mil|YOffset=0mil|HoleType=Round|Shape=RoundedRectangle|*
%AMROUNDEDRECTD29*
21,1,0.01181,0.05315,0,0,180.0*
21,1,0.00591,0.05906,0,0,180.0*
1,1,0.00591,-0.00295,0.02658*
1,1,0.00591,0.00295,0.02658*
1,1,0.00591,0.00295,-0.02658*
1,1,0.00591,-0.00295,-0.02658*
%
%ADD29ROUNDEDRECTD29*%
%ADD30R,0.07874X0.03150*%
%ADD31R,0.07874X0.02992*%
%ADD32O,0.06102X0.00984*%
%ADD33O,0.00984X0.06102*%
%ADD34O,0.08858X0.02362*%
%ADD35O,0.09843X0.02756*%
%ADD36R,0.07284X0.16339*%
%ADD37R,0.02362X0.04528*%
%ADD38R,0.20276X0.09252*%
G04:AMPARAMS|DCode=39|XSize=25.59mil|YSize=64.96mil|CornerRadius=1.92mil|HoleSize=0mil|Usage=FLASHONLY|Rotation=0.000|XOffset=0mil|YOffset=0mil|HoleType=Round|Shape=RoundedRectangle|*
%AMROUNDEDRECTD39*
21,1,0.02559,0.06112,0,0,0.0*
21,1,0.02175,0.06496,0,0,0.0*
1,1,0.00384,0.01088,-0.03056*
1,1,0.00384,-0.01088,-0.03056*
1,1,0.00384,-0.01088,0.03056*
1,1,0.00384,0.01088,0.03056*
%
%ADD39ROUNDEDRECTD39*%
%ADD40C,0.01000*%
%ADD41C,0.04000*%
%ADD42C,0.02000*%
%ADD43C,0.10000*%
%ADD44C,0.12000*%
%ADD45C,0.07874*%
%ADD46O,0.07874X0.03937*%
%ADD47O,0.07874X0.03937*%
%ADD48C,0.10000*%
%ADD49C,0.05906*%
%ADD50R,0.05906X0.05906*%
%ADD51C,0.06299*%
%ADD52C,0.11000*%
%ADD53C,0.15748*%
%ADD54R,0.07284X0.07284*%
%ADD55C,0.07284*%
%ADD56R,0.07874X0.07874*%
%ADD57C,0.11811*%
%ADD58C,0.01500*%
%ADD59C,0.01600*%
%ADD60C,0.03500*%
%ADD61C,0.06000*%
%ADD62C,0.03000*%
%ADD63C,0.07000*%
G36*
X218134Y-106407D02*
X217722Y-107400D01*
X218214Y-108586D01*
X219400Y-109078D01*
X220586Y-108586D01*
X220743Y-108207D01*
X230000D01*
Y-118793D01*
X221653D01*
X221000Y-118522D01*
X220031Y-118923D01*
X219400Y-118978D01*
X218769Y-118923D01*
X217800Y-118522D01*
X216614Y-119014D01*
X216343Y-119667D01*
X215306Y-120704D01*
X207854D01*
Y-123443D01*
X206147D01*
Y-120704D01*
X199844D01*
X196556Y-117416D01*
Y-114894D01*
X196730Y-114740D01*
X197653Y-115134D01*
Y-115496D01*
X201500D01*
Y-111150D01*
X202000D01*
Y-110650D01*
X206347D01*
Y-109119D01*
X207306Y-108695D01*
X207854Y-109133D01*
Y-114957D01*
X207758Y-115146D01*
X207323Y-115263D01*
X206347Y-114494D01*
Y-111650D01*
X202500D01*
Y-115496D01*
X205645D01*
X206022Y-116422D01*
X205659Y-117300D01*
X209141D01*
X208778Y-116422D01*
X208473Y-116296D01*
X208672Y-115296D01*
X216146D01*
Y-107003D01*
X209843D01*
X209171Y-106331D01*
X209554Y-105407D01*
X217714D01*
X218134Y-106407D01*
D02*
G37*
G36*
X134358Y-59803D02*
X133358Y-60471D01*
X131100Y-59536D01*
Y-64200D01*
Y-68864D01*
X133358Y-67929D01*
X134358Y-68597D01*
Y-75165D01*
X133434Y-75547D01*
X127943Y-70057D01*
X126354Y-69399D01*
Y-68149D01*
X127354Y-67726D01*
X130100Y-68864D01*
Y-64200D01*
Y-59536D01*
X127354Y-60674D01*
X126354Y-60251D01*
Y-57631D01*
X134358D01*
Y-59803D01*
D02*
G37*
G36*
X332384Y-62966D02*
X332384Y-62966D01*
X332675Y-63087D01*
X333379Y-63378D01*
X333863Y-64201D01*
Y-67545D01*
X343337D01*
Y-63378D01*
X381217D01*
X381993Y-64154D01*
Y-94704D01*
X379050D01*
Y-99296D01*
X379050Y-99296D01*
Y-99296D01*
Y-99655D01*
X379050Y-99704D01*
X379050Y-99943D01*
X379050Y-100296D01*
D01*
Y-100296D01*
X379050D01*
Y-104296D01*
X379050D01*
Y-104704D01*
X379050D01*
Y-109296D01*
X379050D01*
Y-109704D01*
X379050D01*
Y-114236D01*
X378927Y-114353D01*
X378068Y-114746D01*
X377607Y-114397D01*
Y-79339D01*
X377195Y-78344D01*
X368026Y-69174D01*
X367031Y-68762D01*
X334124D01*
X333130Y-69174D01*
X329569Y-72735D01*
X324734D01*
X324305Y-72092D01*
X323813Y-70905D01*
X322808Y-70489D01*
X322926Y-70205D01*
X322453Y-69063D01*
X322380Y-69032D01*
X322710Y-68236D01*
X322300Y-67247D01*
X322493Y-66245D01*
X322678Y-65800D01*
X322186Y-64614D01*
X321000Y-64122D01*
X319814Y-64614D01*
X319543Y-65267D01*
X317981Y-66829D01*
X314790D01*
X313795Y-67241D01*
X310243Y-70793D01*
X297329D01*
X296946Y-69869D01*
X298979Y-67836D01*
X299391Y-66841D01*
Y-65581D01*
X299953Y-65206D01*
X300937Y-64798D01*
X301921Y-65206D01*
X302906Y-64798D01*
X303890Y-65206D01*
X304874Y-64798D01*
X305858Y-65206D01*
X306842Y-64798D01*
X307827Y-65206D01*
X308811Y-64798D01*
X309175Y-64949D01*
X310086Y-65364D01*
X310578Y-66550D01*
X311764Y-67041D01*
X312950Y-66550D01*
X313441Y-65364D01*
X313171Y-64710D01*
Y-61248D01*
X314094Y-60862D01*
X314162Y-60836D01*
X314900Y-61141D01*
Y-59400D01*
Y-57659D01*
X314022Y-58022D01*
X313996Y-58087D01*
X312913D01*
X312753Y-57700D01*
X312075Y-57419D01*
X311758Y-56434D01*
X312252Y-55807D01*
X325225D01*
X332384Y-62966D01*
D02*
G37*
G36*
X176771Y-10831D02*
X175873Y-13000D01*
X177374Y-16626D01*
X181000Y-18127D01*
X184000Y-16885D01*
X185000Y-17553D01*
Y-43452D01*
X166567D01*
X166226Y-43100D01*
X166026Y-42452D01*
X172639Y-35839D01*
X174478Y-31400D01*
Y-23923D01*
X174487Y-23900D01*
X161913D01*
X161922Y-23923D01*
Y-28800D01*
X156930Y-33791D01*
X156408Y-34008D01*
X154713Y-38100D01*
X161000D01*
Y-38600D01*
X161500D01*
Y-44887D01*
X164854Y-43498D01*
X165854Y-44166D01*
Y-66356D01*
X156642Y-75568D01*
X155642Y-75153D01*
Y-43734D01*
X156561Y-43256D01*
X160500Y-44887D01*
Y-39100D01*
X154713D01*
X156196Y-42681D01*
X155433Y-43452D01*
X148031D01*
Y-39055D01*
X153993Y-33093D01*
X154881Y-30950D01*
Y-24146D01*
X155997D01*
Y-15854D01*
X147704D01*
Y-24146D01*
X148820D01*
Y-29694D01*
X142857Y-35657D01*
X141969Y-37800D01*
Y-43452D01*
X134358D01*
Y-51569D01*
X105800D01*
X103657Y-52457D01*
X101164Y-54950D01*
X100366Y-56876D01*
X99383Y-56916D01*
X99383Y-56916D01*
X99383Y-56916D01*
X97659D01*
X83556Y-42813D01*
Y-40619D01*
X83556Y-40381D01*
Y-40000D01*
Y-39619D01*
X83556Y-39381D01*
Y-33294D01*
X83031D01*
Y-26706D01*
X83556D01*
Y-20819D01*
Y-20736D01*
X83756Y-19819D01*
Y-19806D01*
X83756Y-19464D01*
Y-16957D01*
X76244D01*
Y-19464D01*
X76244Y-19806D01*
Y-19819D01*
X76444Y-20736D01*
Y-20819D01*
Y-26706D01*
X76969D01*
Y-33294D01*
X76444D01*
Y-39381D01*
X76444Y-39619D01*
Y-40000D01*
Y-40381D01*
X76444Y-40619D01*
Y-46705D01*
X78876D01*
X93584Y-61413D01*
Y-63425D01*
Y-71014D01*
X94471Y-73157D01*
X95059Y-73745D01*
X95204Y-74712D01*
X95204D01*
X95204Y-74712D01*
Y-76969D01*
X85022D01*
X84439Y-75561D01*
X80000Y-73722D01*
X75000D01*
Y-72360D01*
X80204Y-70205D01*
X85204Y-65205D01*
X87360Y-60000D01*
X85204Y-54795D01*
X80000Y-52640D01*
X75832Y-54366D01*
X75000Y-53811D01*
Y-10000D01*
X87755D01*
X88727Y-10066D01*
X88728Y-11000D01*
Y-43162D01*
X131272D01*
Y-11000D01*
X131272Y-10066D01*
X132245Y-10000D01*
X176215D01*
X176771Y-10831D01*
D02*
G37*
G36*
X174300Y-124351D02*
X175122Y-124901D01*
Y-125378D01*
X177500D01*
Y-126378D01*
X175122D01*
Y-128934D01*
X175206Y-129136D01*
X174538Y-130136D01*
X173147D01*
X172556Y-129381D01*
X172556Y-128619D01*
X172556Y-128523D01*
X172556Y-128381D01*
D01*
Y-128381D01*
X172556D01*
Y-124933D01*
X173300Y-124436D01*
Y-122600D01*
X174300D01*
Y-124351D01*
D02*
G37*
G36*
X264854Y-168296D02*
X270000D01*
Y-173704D01*
X266844D01*
X264345Y-171205D01*
X263832Y-170993D01*
X263825Y-170975D01*
X262600Y-170468D01*
X261375Y-170975D01*
X260868Y-172200D01*
X260994Y-172504D01*
X260326Y-173504D01*
X259500D01*
Y-177350D01*
X263347D01*
Y-175820D01*
X264306Y-175396D01*
X264854Y-175834D01*
Y-181193D01*
X263347D01*
Y-178350D01*
X259000D01*
Y-177850D01*
X258500D01*
Y-173504D01*
X254654D01*
Y-173866D01*
X253730Y-174260D01*
X253556Y-174106D01*
Y-171584D01*
X256843Y-168296D01*
X263146D01*
Y-165557D01*
X264854D01*
Y-168296D01*
D02*
G37*
G36*
X104930Y-232569D02*
X104819Y-233575D01*
X104405Y-233743D01*
X104405D01*
Y-242430D01*
X107578D01*
X107960Y-243354D01*
X97689Y-253625D01*
X86767D01*
X86553Y-253180D01*
X86461Y-252625D01*
X91167Y-247919D01*
X92054Y-245776D01*
Y-241522D01*
X93054Y-241158D01*
X94900Y-241922D01*
Y-237800D01*
X95400D01*
Y-237300D01*
X99523D01*
X98462Y-234738D01*
X98335Y-234686D01*
X98531Y-233705D01*
X99556D01*
Y-231950D01*
X104312D01*
X104930Y-232569D01*
D02*
G37*
G36*
X207778Y-51395D02*
X209574Y-52139D01*
Y-60190D01*
X220426D01*
Y-52283D01*
X224535D01*
X227148Y-53365D01*
X229169Y-52528D01*
X230000Y-53084D01*
Y-91593D01*
X220626D01*
Y-81248D01*
X209374D01*
Y-91593D01*
X92853D01*
X92200Y-91322D01*
X91014Y-91814D01*
X90522Y-93000D01*
X91014Y-94186D01*
X92200Y-94678D01*
X92357Y-94834D01*
X92122Y-95400D01*
X92614Y-96586D01*
X93800Y-97078D01*
X94750Y-97549D01*
X95014Y-98186D01*
X96200Y-98678D01*
X97386Y-98186D01*
X97461Y-98007D01*
X126017D01*
X126685Y-99007D01*
X126522Y-99400D01*
X127014Y-100586D01*
X128200Y-101078D01*
X129386Y-100586D01*
X129626Y-100007D01*
X157234D01*
X157789Y-100839D01*
X157722Y-101000D01*
X158214Y-102186D01*
X158253Y-102203D01*
X158636Y-103127D01*
X158522Y-103400D01*
X159014Y-104586D01*
X159150Y-104643D01*
X158951Y-105643D01*
X156100D01*
X155105Y-106055D01*
X155105Y-106055D01*
X154656Y-106504D01*
X153619Y-106127D01*
X153225Y-105175D01*
X152000Y-104668D01*
X150775Y-105175D01*
X150268Y-106400D01*
X149865Y-107003D01*
X147854D01*
Y-113014D01*
X147342Y-113411D01*
X146346Y-112962D01*
Y-111650D01*
X142500D01*
Y-115496D01*
X145198D01*
X145668Y-116200D01*
X146175Y-117425D01*
X147400Y-117932D01*
X148625Y-117425D01*
X149132Y-116200D01*
X149075Y-116064D01*
X149844Y-115296D01*
X156147D01*
Y-108993D01*
X156682Y-108457D01*
X165244D01*
Y-109957D01*
X169000D01*
Y-110957D01*
X165244D01*
Y-113453D01*
X165244Y-113819D01*
X165244Y-113819D01*
X165443Y-114379D01*
X165444Y-114381D01*
X165444D01*
X165444Y-114381D01*
Y-120705D01*
X167593D01*
Y-122294D01*
X165444D01*
Y-124966D01*
X162959Y-127451D01*
X162175Y-127775D01*
X161668Y-129000D01*
X162175Y-130225D01*
X163400Y-130732D01*
X164444Y-130299D01*
X165444Y-130712D01*
Y-135705D01*
X172556D01*
Y-132950D01*
X180857D01*
X181852Y-132538D01*
X183495Y-130895D01*
X183714Y-130367D01*
X184347Y-129693D01*
Y-129693D01*
X185271Y-129423D01*
X185541D01*
X185653Y-129693D01*
X186412Y-130008D01*
X188588D01*
X189347Y-129693D01*
X189459Y-129423D01*
X190541D01*
X190653Y-129693D01*
X191412Y-130008D01*
X193588D01*
X194347Y-129693D01*
X194661Y-128934D01*
Y-122822D01*
X194347Y-122063D01*
X193588Y-121748D01*
X191412D01*
X190653Y-122063D01*
X190541Y-122333D01*
X189459D01*
X189347Y-122063D01*
X188725Y-121805D01*
X188642Y-121565D01*
X189127Y-120705D01*
X189444Y-120705D01*
X189489Y-120705D01*
X189556Y-120705D01*
D01*
X189556D01*
Y-120705D01*
X195865D01*
X197854Y-122694D01*
Y-128997D01*
X206147D01*
Y-126258D01*
X207854D01*
Y-128997D01*
X216146D01*
Y-123844D01*
X218333Y-121657D01*
X218769Y-121476D01*
X219400Y-121422D01*
X220031Y-121476D01*
X221000Y-121878D01*
X221403Y-121711D01*
X222244Y-122323D01*
Y-124957D01*
X226000D01*
Y-125957D01*
X222244D01*
Y-128453D01*
X222244Y-128819D01*
X222244Y-128819D01*
X222443Y-129379D01*
X222444Y-129381D01*
X222444D01*
X222444Y-129381D01*
Y-135705D01*
X222444D01*
X222444Y-136294D01*
X222444D01*
Y-141023D01*
X220816Y-142651D01*
X220032Y-142975D01*
X219602Y-144015D01*
X218601D01*
X218186Y-143014D01*
X217000Y-142522D01*
X215814Y-143014D01*
X215543Y-143667D01*
X214207Y-145003D01*
X207854D01*
Y-147742D01*
X206147D01*
Y-145003D01*
X197854D01*
Y-150151D01*
X196853Y-150350D01*
X196625Y-149797D01*
X195841Y-149473D01*
X194661Y-148293D01*
Y-145066D01*
X194347Y-144307D01*
X193588Y-143992D01*
X191412D01*
X190653Y-144307D01*
X190541Y-144577D01*
X189459D01*
X189347Y-144307D01*
X188588Y-143992D01*
X186412D01*
X185653Y-144307D01*
X185541Y-144577D01*
X184459D01*
X184347Y-144307D01*
X183588Y-143992D01*
X181412D01*
X180653Y-144307D01*
X180541Y-144577D01*
X179459D01*
X179347Y-144307D01*
X178588Y-143992D01*
X176412D01*
X175668Y-144300D01*
X172830Y-141462D01*
X172556Y-141348D01*
Y-138294D01*
X165444D01*
Y-144381D01*
X165444Y-144619D01*
Y-145000D01*
Y-145381D01*
X165444Y-145619D01*
Y-151706D01*
X167593D01*
Y-153295D01*
X165444D01*
Y-157466D01*
X164259Y-158651D01*
X163475Y-158975D01*
X162968Y-160200D01*
X163475Y-161425D01*
X164700Y-161932D01*
X165244Y-162295D01*
Y-163043D01*
X169000D01*
Y-163543D01*
X169500D01*
Y-166905D01*
X172244D01*
X172756Y-166905D01*
X173000D01*
X173244D01*
X173756Y-166905D01*
X176500D01*
Y-163543D01*
X177500D01*
Y-166905D01*
X178040D01*
X178416Y-167393D01*
X177938Y-168393D01*
X159532D01*
X156147Y-165007D01*
Y-158704D01*
X147969D01*
X147400Y-158468D01*
X146717Y-158751D01*
X146346Y-158504D01*
Y-158504D01*
X142500D01*
Y-162850D01*
Y-167197D01*
X146346D01*
Y-162708D01*
X147245Y-162151D01*
X147854Y-162492D01*
Y-166997D01*
X154156D01*
X157955Y-170795D01*
X158950Y-171207D01*
X205050D01*
X206045Y-170795D01*
X209843Y-166997D01*
X216146D01*
Y-158704D01*
X216146Y-158704D01*
X216146D01*
X216533Y-157857D01*
X219183Y-155207D01*
X222444D01*
Y-160619D01*
X222444D01*
Y-161381D01*
X222444D01*
Y-167706D01*
X222444D01*
X222444Y-168295D01*
X222444D01*
Y-173023D01*
X220816Y-174651D01*
X220032Y-174975D01*
X219525Y-176200D01*
X220032Y-177425D01*
X221257Y-177932D01*
X221413Y-177867D01*
X222244Y-178423D01*
Y-181905D01*
X222244D01*
X221972Y-182793D01*
X201583D01*
X200395Y-181605D01*
X199400Y-181193D01*
X107400D01*
X106405Y-181605D01*
X106405Y-181605D01*
X99716Y-188294D01*
X96444D01*
Y-189955D01*
X96216Y-190050D01*
X89743D01*
X88748Y-190462D01*
X88559Y-190651D01*
X87775Y-190975D01*
X87268Y-192200D01*
X87775Y-193425D01*
X89000Y-193932D01*
X90225Y-193425D01*
X90457Y-192864D01*
X95483D01*
X96444Y-193769D01*
Y-194381D01*
X96444Y-194619D01*
Y-195000D01*
Y-195381D01*
X96444Y-195619D01*
Y-201706D01*
X103556D01*
Y-201706D01*
X104444D01*
Y-201706D01*
X110864D01*
X111268Y-202311D01*
X111775Y-203536D01*
X113000Y-204043D01*
X114225Y-203536D01*
X114549Y-202752D01*
X115918Y-201383D01*
X116184Y-201435D01*
X116796Y-202572D01*
X116725Y-202743D01*
X116257Y-203444D01*
X115295D01*
Y-205593D01*
X112457D01*
X111462Y-206005D01*
X101514Y-215952D01*
X100625Y-215775D01*
X99447Y-215287D01*
X99388Y-215254D01*
X98701Y-214475D01*
X98732Y-214400D01*
X98225Y-213175D01*
X97441Y-212851D01*
X96595Y-212005D01*
X95600Y-211593D01*
X78584D01*
X77800Y-211268D01*
X77016Y-211593D01*
X61800D01*
X61800Y-211593D01*
X60805Y-212005D01*
X57005Y-215805D01*
X56593Y-216800D01*
Y-220294D01*
X55000D01*
Y-182756D01*
X56000Y-182318D01*
X57000Y-182732D01*
X58225Y-182225D01*
X58480Y-181607D01*
X102600D01*
X103595Y-181195D01*
X103841Y-180949D01*
X104625Y-180625D01*
X105132Y-179400D01*
X104625Y-178175D01*
X103400Y-177668D01*
X102175Y-178175D01*
X101920Y-178793D01*
X57800D01*
X56805Y-179205D01*
X56559Y-179451D01*
X56000Y-179682D01*
X55000Y-179244D01*
Y-169434D01*
X55295Y-168556D01*
X61381D01*
X61619Y-168556D01*
X62000D01*
X62381D01*
X62619Y-168556D01*
X68705D01*
Y-166407D01*
X69000D01*
X69995Y-165995D01*
X70444Y-165546D01*
X71444Y-165960D01*
Y-166706D01*
X78556D01*
Y-160381D01*
X78556D01*
Y-159619D01*
X78556D01*
Y-153295D01*
X75284D01*
X74460Y-152470D01*
X74819Y-151414D01*
X76127Y-150873D01*
X76528Y-150983D01*
X77112Y-151188D01*
X77375Y-151825D01*
X78600Y-152332D01*
X79213Y-152078D01*
X80149Y-151783D01*
X80159Y-151782D01*
X81127Y-151706D01*
X81300Y-151706D01*
X81377Y-151706D01*
Y-151706D01*
X82593D01*
Y-153295D01*
X80444D01*
Y-159181D01*
Y-159264D01*
X80244Y-160181D01*
Y-160194D01*
X80244Y-160536D01*
Y-163043D01*
X87756D01*
Y-160536D01*
X87756Y-160194D01*
Y-160181D01*
X87556Y-159264D01*
Y-159181D01*
Y-153295D01*
X85407D01*
Y-151706D01*
X87556D01*
Y-149950D01*
X87857D01*
X88852Y-149538D01*
X92733Y-145657D01*
X93386Y-145386D01*
X93878Y-144200D01*
X93386Y-143014D01*
X92200Y-142522D01*
X91014Y-143014D01*
X90743Y-143667D01*
X88480Y-145930D01*
X87556Y-145548D01*
X87556Y-145381D01*
Y-145000D01*
Y-144619D01*
X87556Y-144381D01*
Y-138294D01*
X80444D01*
X80444Y-138294D01*
Y-138294D01*
X79497Y-138307D01*
X78795Y-137605D01*
X77800Y-137193D01*
X70600D01*
X69605Y-137605D01*
X69605Y-137605D01*
X68505Y-138705D01*
X68093Y-139700D01*
Y-140328D01*
X67833Y-140435D01*
X67541Y-141140D01*
X66459D01*
X66167Y-140435D01*
X64500Y-139745D01*
X62833Y-140435D01*
X62541Y-141140D01*
X61459D01*
X61167Y-140435D01*
X59500Y-139745D01*
X57833Y-140435D01*
X57143Y-142102D01*
Y-149189D01*
X57833Y-150856D01*
X57853Y-150957D01*
X57462Y-151348D01*
X57050Y-152343D01*
Y-152737D01*
X56343Y-153444D01*
X56000D01*
X55295Y-153444D01*
X55000Y-152566D01*
D01*
Y-119717D01*
X55094Y-118756D01*
X56000Y-118756D01*
X57957D01*
Y-115000D01*
X58957D01*
Y-118756D01*
X61464D01*
X61806Y-118756D01*
X61819D01*
X62589Y-118588D01*
X63235Y-119556D01*
X63093Y-119900D01*
Y-120771D01*
X62491Y-121408D01*
X61445Y-121292D01*
X61320Y-120991D01*
X60000Y-120444D01*
Y-126354D01*
Y-132264D01*
X61320Y-131718D01*
X61567Y-131121D01*
X62649D01*
X62833Y-131565D01*
X64500Y-132255D01*
X66167Y-131565D01*
X66459Y-130860D01*
X67541D01*
X67833Y-131565D01*
X69500Y-132255D01*
X71167Y-131565D01*
X71459Y-130860D01*
X72541D01*
X72833Y-131565D01*
X74500Y-132255D01*
X76167Y-131565D01*
X76278Y-131298D01*
X77258Y-131103D01*
X77694Y-131538D01*
X78689Y-131950D01*
X80444D01*
Y-133705D01*
X87556D01*
Y-127619D01*
X87556Y-127381D01*
Y-127000D01*
Y-126619D01*
X87556Y-126381D01*
Y-120294D01*
X85407D01*
Y-118705D01*
X87556D01*
Y-115634D01*
X90333Y-112857D01*
X90986Y-112586D01*
X91478Y-111400D01*
X90986Y-110214D01*
X89800Y-109722D01*
X88756Y-110155D01*
X87756Y-109765D01*
Y-108957D01*
X80244D01*
Y-111819D01*
X80244D01*
Y-111819D01*
X80244Y-111819D01*
X80444Y-112736D01*
D01*
Y-118705D01*
X82593D01*
Y-120294D01*
X80444D01*
Y-126381D01*
X80444Y-126619D01*
Y-127000D01*
Y-127381D01*
X80444Y-127619D01*
Y-129136D01*
X79272D01*
X76857Y-126722D01*
Y-122811D01*
X76407Y-121724D01*
Y-118705D01*
X78556D01*
Y-112619D01*
X78556Y-112381D01*
Y-112000D01*
Y-111619D01*
X78556Y-111381D01*
Y-105295D01*
X71444D01*
Y-105593D01*
X68705D01*
Y-103444D01*
X62619D01*
X62381Y-103444D01*
X62000D01*
X61619D01*
X61381Y-103444D01*
X55295D01*
X55000Y-102566D01*
Y-90000D01*
X75000D01*
Y-86278D01*
X80000D01*
X84439Y-84439D01*
X85022Y-83031D01*
X95204D01*
Y-85288D01*
X104796D01*
Y-74712D01*
X103031D01*
Y-74400D01*
X102143Y-72257D01*
X100820Y-70934D01*
X101234Y-69934D01*
X106076D01*
Y-69934D01*
X107032Y-70040D01*
Y-70134D01*
X109500D01*
Y-63425D01*
X110500D01*
Y-70134D01*
X112969D01*
X112969Y-70134D01*
X112969Y-70134D01*
X112969Y-70134D01*
X113887Y-69938D01*
X113924Y-69934D01*
X114312Y-70773D01*
X114550Y-71348D01*
X116714Y-73512D01*
X116300Y-74512D01*
X115004D01*
Y-79500D01*
X124996D01*
Y-76989D01*
X125920Y-76606D01*
X131657Y-82343D01*
X133800Y-83231D01*
X149672D01*
X150338Y-84231D01*
X150268Y-84400D01*
X150775Y-85625D01*
X152000Y-86132D01*
X153225Y-85625D01*
X153732Y-84400D01*
X153662Y-84231D01*
X154328Y-83231D01*
X156296D01*
X158439Y-82343D01*
X164930Y-75853D01*
X165854Y-76235D01*
Y-76548D01*
X187139D01*
Y-53644D01*
X195782Y-45000D01*
X201383D01*
X207778Y-51395D01*
D02*
G37*
G36*
X70759Y-224635D02*
X74721D01*
X74721Y-224635D01*
X75719Y-224641D01*
X76257Y-224864D01*
X76444D01*
Y-226619D01*
X76444D01*
Y-227381D01*
X76444D01*
Y-233705D01*
X83556D01*
Y-233705D01*
X84444D01*
Y-233705D01*
X86252D01*
Y-237461D01*
X86200Y-237587D01*
X89024D01*
Y-238587D01*
X85993D01*
Y-244521D01*
X82945Y-247569D01*
X67992D01*
X63318Y-242895D01*
X63902Y-241487D01*
X62063Y-237048D01*
X57624Y-235209D01*
X55000D01*
Y-233705D01*
X61556D01*
Y-231950D01*
X67019D01*
Y-233493D01*
X67593D01*
Y-238600D01*
X68005Y-239595D01*
X70892Y-242482D01*
X70892Y-242482D01*
X71887Y-242894D01*
X73005D01*
Y-245830D01*
X78148D01*
Y-237143D01*
X73005D01*
Y-239201D01*
X72005Y-239615D01*
X70407Y-238017D01*
Y-233493D01*
X70981D01*
Y-227365D01*
X67019D01*
Y-229136D01*
X61556D01*
Y-227381D01*
X61556D01*
Y-226619D01*
X61556D01*
Y-220456D01*
X61648Y-220107D01*
X61664Y-220076D01*
X62326Y-219887D01*
X63279Y-220588D01*
Y-224635D01*
X67241D01*
Y-221580D01*
X69414Y-219407D01*
X70759D01*
Y-224635D01*
D02*
G37*
G36*
X150405Y-193668D02*
X146080Y-197993D01*
X141334D01*
X141135Y-196993D01*
X143175Y-196148D01*
X144236Y-193587D01*
X140113D01*
Y-192587D01*
X144236D01*
X143271Y-190257D01*
X143713Y-189257D01*
X150405D01*
Y-193668D01*
D02*
G37*
G36*
X280450Y-70335D02*
X281225Y-70656D01*
X281615Y-71162D01*
X281856Y-71747D01*
X281668Y-72200D01*
X282175Y-73425D01*
X283400Y-73932D01*
X284184Y-73607D01*
X310826D01*
X311821Y-73195D01*
X312012Y-73233D01*
X312486Y-74378D01*
X313364Y-74741D01*
Y-73000D01*
X314364D01*
Y-74886D01*
X315027Y-75549D01*
X314794Y-76110D01*
X315202Y-77095D01*
X314794Y-78079D01*
X315202Y-79063D01*
X314794Y-80047D01*
X315202Y-81032D01*
X314794Y-82016D01*
X315202Y-83000D01*
X314794Y-83984D01*
X315202Y-84969D01*
X315057Y-85320D01*
X314794Y-85953D01*
X314005Y-86606D01*
X313692Y-86735D01*
X313201Y-87921D01*
X313692Y-89108D01*
X314005Y-89237D01*
X314794Y-89890D01*
X315057Y-90523D01*
X315202Y-90874D01*
X314794Y-91858D01*
X315202Y-92843D01*
X314794Y-93827D01*
X315202Y-94811D01*
X314794Y-95795D01*
X315202Y-96780D01*
X314794Y-97764D01*
X315204Y-98753D01*
X316193Y-99162D01*
X318731D01*
X318752Y-99171D01*
X324259D01*
X325000Y-99478D01*
X326186Y-98986D01*
X326361Y-98565D01*
X327540Y-98330D01*
X327543Y-98333D01*
X327814Y-98986D01*
X329000Y-99478D01*
X330186Y-98986D01*
X330203Y-98947D01*
X331126Y-98564D01*
X331400Y-98678D01*
X332369Y-98277D01*
X333000Y-98222D01*
X333631Y-98277D01*
X334600Y-98678D01*
X335786Y-98186D01*
X336614Y-98186D01*
X337800Y-98678D01*
X338986Y-98186D01*
X339014Y-98186D01*
X340200Y-98678D01*
X341169Y-98277D01*
X341889Y-98214D01*
X342320Y-98238D01*
X342626Y-98357D01*
X343400Y-98678D01*
X344380Y-98272D01*
X344435Y-98255D01*
X344958Y-98218D01*
X345631Y-98277D01*
X346600Y-98678D01*
X347786Y-98186D01*
X348278Y-97000D01*
X347786Y-95814D01*
X346619Y-95330D01*
X335506Y-84217D01*
X335889Y-83293D01*
X343337D01*
Y-79450D01*
X345460D01*
X347543Y-81533D01*
X347814Y-82186D01*
X349000Y-82678D01*
X350186Y-82186D01*
X350678Y-81000D01*
X350186Y-79814D01*
X349533Y-79543D01*
X348431Y-78441D01*
X348814Y-77517D01*
X368327D01*
X371593Y-80783D01*
Y-105236D01*
X370593Y-105796D01*
X368500Y-104929D01*
Y-109000D01*
Y-113071D01*
X370593Y-112204D01*
X371593Y-112764D01*
Y-115542D01*
X370593Y-116012D01*
X368000Y-114938D01*
X365128Y-116128D01*
X363938Y-119000D01*
X364763Y-120993D01*
X364095Y-121993D01*
X359905D01*
X359237Y-120993D01*
X360062Y-119000D01*
X358872Y-116128D01*
X356000Y-114938D01*
X353128Y-116128D01*
X351938Y-119000D01*
X352764Y-120993D01*
X352095Y-121993D01*
X344826D01*
X344586Y-121414D01*
X343400Y-120922D01*
X342214Y-121414D01*
X342192Y-121467D01*
X341496Y-121605D01*
X340501Y-121193D01*
X326453D01*
X325800Y-120922D01*
X324614Y-121414D01*
X324122Y-122600D01*
X324614Y-123786D01*
X325800Y-124278D01*
X326453Y-124007D01*
X339918D01*
X342706Y-126795D01*
X342706Y-126795D01*
X343701Y-127207D01*
X345514D01*
X346051Y-128207D01*
X345722Y-129000D01*
X346214Y-130186D01*
X347400Y-130678D01*
X348053Y-130407D01*
X352521D01*
X352929Y-131393D01*
X352342Y-132393D01*
X343183D01*
X341607Y-130817D01*
Y-128853D01*
X341878Y-128200D01*
X341386Y-127014D01*
X340200Y-126522D01*
X339014Y-127014D01*
X338522Y-128200D01*
X338793Y-128853D01*
Y-131400D01*
X339205Y-132395D01*
X341605Y-134795D01*
X342600Y-135207D01*
X351264D01*
X352247Y-135247D01*
X352247Y-136207D01*
Y-141804D01*
X330156D01*
Y-140581D01*
X330156D01*
Y-139819D01*
X330156D01*
Y-133494D01*
X323044D01*
Y-134793D01*
X316897D01*
X316347Y-133890D01*
X316585Y-133122D01*
X317175Y-131700D01*
X307225D01*
X307815Y-133122D01*
X308053Y-133890D01*
X307503Y-134793D01*
X304826D01*
X304586Y-134214D01*
X303400Y-133722D01*
X302214Y-134214D01*
X301722Y-135400D01*
X302113Y-136344D01*
X301265Y-136910D01*
X294378Y-130022D01*
X293000Y-129452D01*
X275107D01*
X275000Y-129408D01*
Y-121607D01*
X277000D01*
X277995Y-121195D01*
X278333Y-120857D01*
X278986Y-120586D01*
X279478Y-119400D01*
X278986Y-118214D01*
X277800Y-117722D01*
X276614Y-118214D01*
X276374Y-118793D01*
X275000D01*
Y-115000D01*
X254213D01*
X253505Y-114293D01*
Y-112700D01*
X250143D01*
Y-111700D01*
X253505D01*
Y-108444D01*
X254407Y-108207D01*
X268000D01*
X268995Y-107795D01*
X270631Y-106159D01*
X277342D01*
X277453Y-106718D01*
X278147D01*
X278258Y-106159D01*
X280838D01*
Y-107311D01*
X281247Y-108300D01*
X282236Y-108710D01*
X283032Y-108380D01*
X283063Y-108453D01*
X283705Y-108719D01*
Y-104752D01*
X284705D01*
Y-108719D01*
X284860Y-108655D01*
X285798Y-109107D01*
X285114Y-109993D01*
X280237D01*
X279908Y-109500D01*
X276059D01*
X276422Y-110378D01*
X277210Y-110704D01*
X276922Y-111400D01*
X277414Y-112586D01*
X278600Y-113078D01*
X279253Y-112807D01*
X288583D01*
X289578Y-112395D01*
X289823Y-112444D01*
X290214Y-113386D01*
X291400Y-113878D01*
X291966Y-113643D01*
X292122Y-113800D01*
X292614Y-114986D01*
X293800Y-115478D01*
X293869Y-115449D01*
X294338Y-115584D01*
X294829Y-116771D01*
X296016Y-117262D01*
X296219Y-117178D01*
X297165Y-117587D01*
X297414Y-118186D01*
X298600Y-118678D01*
X299786Y-118186D01*
X300278Y-117000D01*
X300043Y-116434D01*
X300200Y-116278D01*
X301386Y-115786D01*
X301403Y-115747D01*
X302326Y-115364D01*
X302600Y-115478D01*
X303786Y-114986D01*
X303796Y-114962D01*
X304545Y-114813D01*
X304927Y-114846D01*
X305800Y-115207D01*
X305800Y-115207D01*
X310295D01*
Y-116556D01*
X310798D01*
X311333Y-117356D01*
X311593Y-117985D01*
Y-124216D01*
X311268Y-125000D01*
X311775Y-126225D01*
X313000Y-126732D01*
X314225Y-126225D01*
X314732Y-125000D01*
X314407Y-124216D01*
Y-118295D01*
X314796Y-117356D01*
X315331Y-116556D01*
X316181D01*
X316264D01*
X317181Y-116756D01*
X317194D01*
X317536Y-116756D01*
X320043D01*
Y-113000D01*
Y-109244D01*
X317536D01*
X317194Y-109244D01*
X317181D01*
X316264Y-109444D01*
X316181D01*
X315245D01*
X314577Y-108444D01*
X314678Y-108200D01*
X314186Y-107014D01*
X313533Y-106743D01*
X313171Y-106381D01*
Y-104752D01*
X313162Y-104731D01*
Y-103537D01*
X314086Y-103154D01*
X315327Y-104395D01*
X316322Y-104807D01*
X353231D01*
X353426Y-105788D01*
X352975Y-105975D01*
X351929Y-108500D01*
X360071D01*
X359025Y-105975D01*
X358574Y-105788D01*
X358769Y-104807D01*
X360417D01*
X361143Y-105533D01*
X361414Y-106186D01*
X362600Y-106678D01*
X363786Y-106186D01*
X364278Y-105000D01*
X363786Y-103814D01*
X363133Y-103543D01*
X361995Y-102405D01*
X361000Y-101993D01*
X316905D01*
X313343Y-98431D01*
X313072Y-97777D01*
X311886Y-97286D01*
X310700Y-97777D01*
X309546Y-97948D01*
X309000Y-97722D01*
X307814Y-98214D01*
X307720Y-98440D01*
X307045Y-99072D01*
X305858Y-98581D01*
X304672Y-99072D01*
X304181Y-100258D01*
X303404Y-100996D01*
X302906Y-101202D01*
X301921Y-100794D01*
X300937Y-101202D01*
X299953Y-100794D01*
X298969Y-101202D01*
X297984Y-100794D01*
X297000Y-101202D01*
X296016Y-100794D01*
X295031Y-101202D01*
X294047Y-100794D01*
X293063Y-101202D01*
X292079Y-100794D01*
X291094Y-101202D01*
X290110Y-100794D01*
X289126Y-101202D01*
X288501Y-100943D01*
X287865Y-99871D01*
Y-99870D01*
X287905Y-99773D01*
X287398Y-98549D01*
X286173Y-98041D01*
X284949Y-98549D01*
X284441Y-99773D01*
X284441D01*
X284441D01*
X284051Y-100642D01*
X283063Y-101051D01*
X283032Y-101124D01*
X282236Y-100794D01*
X281247Y-101204D01*
X280838Y-102193D01*
Y-103345D01*
X270523D01*
X270109Y-102345D01*
X273283Y-99171D01*
X275248D01*
X275269Y-99162D01*
X277807D01*
X278796Y-98753D01*
X279206Y-97764D01*
X278798Y-96780D01*
X279206Y-95795D01*
X278798Y-94811D01*
X279206Y-93827D01*
X280055Y-93265D01*
X284558D01*
X285342Y-93590D01*
X286566Y-93083D01*
X287074Y-91858D01*
X286566Y-90634D01*
X285885Y-90351D01*
X285048Y-89758D01*
X284478Y-88381D01*
X283600Y-88017D01*
Y-89758D01*
X282600D01*
Y-88017D01*
X281722Y-88381D01*
X281714Y-88401D01*
X279526D01*
X279206Y-87921D01*
X278798Y-86937D01*
X279206Y-85953D01*
X278798Y-84969D01*
X279206Y-83984D01*
X278798Y-83000D01*
X279049Y-82394D01*
X280047Y-81725D01*
X281234Y-81234D01*
X281725Y-80047D01*
X281234Y-78861D01*
X280047Y-78369D01*
X279049Y-77701D01*
X278798Y-77095D01*
X279206Y-76110D01*
X278798Y-75126D01*
X279206Y-74142D01*
X278798Y-73158D01*
X279206Y-72173D01*
X278859Y-71337D01*
X279271Y-70356D01*
X280196Y-70081D01*
X280450Y-70335D01*
D02*
G37*
G36*
X335607Y-196323D02*
X334912Y-198000D01*
X335608Y-199679D01*
X334887Y-200552D01*
X320177D01*
X320151Y-200541D01*
Y-199459D01*
X320856Y-199167D01*
X321546Y-197500D01*
X320856Y-195833D01*
X320151Y-195541D01*
Y-194459D01*
X320856Y-194167D01*
X321041Y-193720D01*
X322124D01*
X322287Y-194113D01*
X323700Y-194699D01*
Y-192200D01*
X324200D01*
Y-191700D01*
X326699D01*
X326409Y-191000D01*
X327077Y-190000D01*
X329284D01*
X335607Y-196323D01*
D02*
G37*
G36*
X270000Y-190000D02*
X273294D01*
Y-195071D01*
X273000Y-195268D01*
X272216Y-195593D01*
X268721D01*
Y-192444D01*
X257279D01*
Y-194593D01*
X236583D01*
X232395Y-190405D01*
X231400Y-189993D01*
X216184D01*
X215400Y-189668D01*
X214175Y-190175D01*
X213851Y-190959D01*
X212366Y-192444D01*
X201279D01*
Y-199556D01*
X201279Y-199556D01*
X201279D01*
X201279Y-199556D01*
X200885Y-200393D01*
X174287D01*
X173551Y-199756D01*
X173551Y-199393D01*
Y-196500D01*
X161709D01*
Y-199393D01*
X161709Y-199756D01*
X160972Y-200393D01*
X160972Y-200393D01*
X148967D01*
X148584Y-199469D01*
X150623Y-197430D01*
X155548D01*
Y-189257D01*
X157296D01*
X157949Y-189528D01*
X159135Y-189036D01*
X159627Y-187850D01*
X159135Y-186664D01*
X158680Y-186475D01*
X157878Y-185800D01*
X157549Y-185007D01*
X158086Y-184007D01*
X198817D01*
X200005Y-185195D01*
X201000Y-185607D01*
X249016D01*
X249800Y-185932D01*
X251025Y-185425D01*
X251349Y-184641D01*
X251983Y-184007D01*
X270000D01*
Y-190000D01*
D02*
G37*
G36*
X389500Y-193071D02*
X392025Y-192025D01*
X392864Y-190000D01*
X415000D01*
Y-315000D01*
X349998D01*
X349803Y-314019D01*
X352077Y-313077D01*
X354203Y-307945D01*
X352320Y-303398D01*
X352319Y-303356D01*
X352309Y-302642D01*
X352829Y-302258D01*
X357592Y-300285D01*
X359574Y-295500D01*
X345040D01*
X346806Y-299763D01*
X346360Y-300930D01*
X341813Y-302813D01*
X339687Y-307945D01*
X341813Y-313077D01*
X344087Y-314019D01*
X343892Y-315000D01*
X324108D01*
X323913Y-314019D01*
X326187Y-313077D01*
X328313Y-307945D01*
X326187Y-302813D01*
X321424Y-300840D01*
X320978Y-299763D01*
X322951Y-295000D01*
X320978Y-290237D01*
X321424Y-289160D01*
X326187Y-287187D01*
X328313Y-282055D01*
X327586Y-280300D01*
X335055Y-272831D01*
X365587D01*
X368200Y-273913D01*
X371108Y-272708D01*
X372313Y-269800D01*
X371108Y-266892D01*
X368200Y-265687D01*
X365587Y-266769D01*
X333800D01*
X331657Y-267657D01*
X323503Y-275811D01*
X321055Y-274797D01*
X315923Y-276923D01*
X313797Y-282055D01*
X314667Y-284156D01*
X313550Y-285274D01*
X312662Y-287417D01*
Y-288997D01*
X310561Y-289868D01*
X308435Y-295000D01*
X310561Y-300132D01*
X315324Y-302105D01*
X315719Y-302572D01*
X315770Y-303182D01*
X313797Y-307945D01*
X315923Y-313077D01*
X318197Y-314019D01*
X318002Y-315000D01*
X293162D01*
X291826Y-311774D01*
X288200Y-310273D01*
X284574Y-311774D01*
X283238Y-315000D01*
X273427D01*
X273045Y-314076D01*
X277293Y-309828D01*
X278181Y-307685D01*
X278181Y-307685D01*
Y-303915D01*
X278181Y-303915D01*
X277293Y-301772D01*
X275031Y-299510D01*
Y-287997D01*
X276147D01*
Y-285683D01*
X282124Y-279706D01*
X284556D01*
Y-273619D01*
X284556Y-273381D01*
Y-273000D01*
Y-272619D01*
X284556Y-272381D01*
Y-266295D01*
X277444D01*
Y-266426D01*
X276147D01*
Y-266003D01*
X267853D01*
Y-267119D01*
X262627D01*
Y-249625D01*
X239373D01*
Y-274453D01*
X252812D01*
Y-283996D01*
X251568Y-287000D01*
X252820Y-290023D01*
X255842Y-291275D01*
X258865Y-290023D01*
X260118Y-287000D01*
X258873Y-283996D01*
Y-274453D01*
X262627D01*
Y-273180D01*
X267853D01*
Y-274296D01*
X276147D01*
Y-272487D01*
X277187D01*
X277187Y-272487D01*
X277444Y-273381D01*
X277444Y-273619D01*
Y-275813D01*
X273553Y-279704D01*
X267853D01*
Y-283711D01*
X258395Y-293169D01*
X252655D01*
X249165Y-289679D01*
X250275Y-287000D01*
X249023Y-283977D01*
X246000Y-282725D01*
X242977Y-283977D01*
X241725Y-287000D01*
X242969Y-290004D01*
Y-290800D01*
X243857Y-292943D01*
X249257Y-298343D01*
X251400Y-299231D01*
X259650D01*
X261793Y-298343D01*
X268045Y-292091D01*
X268969Y-292474D01*
Y-300800D01*
X269617Y-302364D01*
X269219Y-303612D01*
X268648Y-303848D01*
X268647Y-303852D01*
X232196D01*
X231641Y-303020D01*
X231732Y-302800D01*
X231407Y-302016D01*
Y-270556D01*
X235721D01*
Y-263444D01*
X224279D01*
Y-270556D01*
X228593D01*
Y-285013D01*
X227593Y-285212D01*
X227080Y-283975D01*
X224555Y-282929D01*
Y-287000D01*
Y-291071D01*
X227080Y-290025D01*
X227593Y-288788D01*
X228593Y-288987D01*
Y-302016D01*
X228268Y-302800D01*
X228359Y-303020D01*
X227804Y-303852D01*
X213000D01*
X211622Y-304422D01*
X207226Y-308819D01*
X207000Y-308725D01*
X203977Y-309977D01*
X202725Y-313000D01*
X203209Y-314169D01*
X202653Y-315000D01*
X189248D01*
X188692Y-314169D01*
X188969Y-313500D01*
X180401D01*
X180678Y-314169D01*
X180129Y-314989D01*
X179182D01*
X178633Y-314169D01*
X179118Y-313000D01*
X177865Y-309977D01*
X174843Y-308725D01*
X171820Y-309977D01*
X170568Y-313000D01*
X171052Y-314169D01*
X170496Y-315000D01*
X169347D01*
X168791Y-314169D01*
X169275Y-313000D01*
X168023Y-309977D01*
X165000Y-308725D01*
X161977Y-309977D01*
X160725Y-313000D01*
X161209Y-314169D01*
X160653Y-315000D01*
X155286D01*
X155000Y-314714D01*
Y-280000D01*
X153341D01*
X152958Y-279076D01*
X172608Y-259426D01*
X183909D01*
X184686Y-259426D01*
X184909Y-260334D01*
X184909Y-260334D01*
Y-260556D01*
X196351D01*
Y-253444D01*
X195031D01*
X194411Y-252444D01*
X194640Y-251984D01*
X195025Y-251825D01*
X195532Y-250600D01*
X195025Y-249375D01*
X193800Y-248868D01*
X192575Y-249375D01*
X192251Y-250159D01*
X189635Y-252775D01*
X189358Y-253444D01*
X185686D01*
X184909Y-253444D01*
X184686Y-252536D01*
Y-248574D01*
X162810D01*
Y-259426D01*
X162810Y-259426D01*
X162810D01*
X163169Y-260293D01*
X143462Y-280000D01*
X130031D01*
Y-278997D01*
X131147D01*
Y-277881D01*
X133550D01*
X135693Y-276993D01*
X144395Y-268291D01*
X145283Y-266148D01*
X145283Y-266148D01*
Y-259426D01*
X153190D01*
Y-248574D01*
X145283D01*
Y-233453D01*
X155627D01*
Y-208625D01*
X132373D01*
Y-212694D01*
X131373Y-213243D01*
X130600Y-212922D01*
X129414Y-213414D01*
X129143Y-214067D01*
X128417Y-214793D01*
X125056D01*
X124061Y-215205D01*
X121549Y-217717D01*
X121137Y-218712D01*
Y-219094D01*
X114244D01*
Y-220164D01*
X112721D01*
Y-218507D01*
X109728D01*
X109443Y-218036D01*
X109244Y-217507D01*
X109316Y-217334D01*
X109607Y-216631D01*
X109607Y-216631D01*
Y-215384D01*
X109932Y-214600D01*
X109425Y-213375D01*
X109299Y-213323D01*
X109104Y-212343D01*
X113040Y-208407D01*
X115295D01*
Y-210556D01*
X121619D01*
Y-210556D01*
X122381D01*
Y-210556D01*
X128706D01*
Y-203444D01*
X129607Y-203207D01*
X161909D01*
Y-209556D01*
X173351D01*
Y-207407D01*
X195017D01*
X200343Y-212733D01*
X200614Y-213386D01*
X201800Y-213878D01*
X202986Y-213386D01*
X203478Y-212200D01*
X204004Y-212197D01*
X204200Y-212278D01*
X205386Y-211786D01*
X205878Y-210600D01*
X205859Y-210556D01*
X206523Y-209556D01*
X212721D01*
Y-202444D01*
X207652D01*
X207270Y-201520D01*
X209234Y-199556D01*
X212721D01*
Y-196069D01*
X215841Y-192949D01*
X216184Y-192807D01*
X217709D01*
Y-195500D01*
X229551D01*
Y-192807D01*
X230817D01*
X235005Y-196995D01*
X236000Y-197407D01*
X257279D01*
Y-199556D01*
X268721D01*
Y-198407D01*
X272216D01*
X273000Y-198732D01*
X273294Y-198929D01*
Y-203944D01*
X273260Y-204051D01*
X273048Y-204718D01*
X272508Y-205072D01*
X271775Y-205375D01*
X271268Y-206600D01*
X271775Y-207825D01*
X272559Y-208149D01*
X273294Y-208885D01*
Y-213556D01*
X279381D01*
X279619Y-213556D01*
X280000D01*
X280381D01*
X280619Y-213556D01*
X286705D01*
Y-206444D01*
X284950D01*
Y-204556D01*
X286705D01*
Y-202620D01*
X287705Y-202496D01*
X288705Y-203495D01*
X288705Y-203495D01*
X288997Y-203616D01*
X289700Y-203907D01*
X289700Y-203907D01*
X290771D01*
X291408Y-204509D01*
X291292Y-205555D01*
X290991Y-205680D01*
X290444Y-207000D01*
X302264D01*
X301718Y-205680D01*
X301121Y-205433D01*
Y-204351D01*
X301565Y-204167D01*
X302255Y-202500D01*
X301565Y-200833D01*
X300860Y-200541D01*
Y-199459D01*
X301565Y-199167D01*
X302255Y-197500D01*
X301565Y-195833D01*
X300860Y-195541D01*
Y-194459D01*
X301565Y-194167D01*
X302255Y-192500D01*
X301634Y-191000D01*
X302038Y-190000D01*
X302038Y-190000D01*
X309962D01*
X309962Y-190000D01*
X310366Y-191000D01*
X309745Y-192500D01*
X310435Y-194167D01*
X311140Y-194459D01*
Y-195541D01*
X310435Y-195833D01*
X309745Y-197500D01*
X310435Y-199167D01*
X311140Y-199459D01*
Y-200541D01*
X310435Y-200833D01*
X310356Y-201026D01*
X310122Y-201122D01*
X307547Y-203698D01*
X306976Y-205076D01*
Y-208823D01*
X306240Y-210600D01*
X306900Y-212193D01*
X306383Y-213193D01*
X299983D01*
X297864Y-211074D01*
X298043Y-210460D01*
X298411Y-210074D01*
X299898D01*
X301718Y-209320D01*
X302264Y-208000D01*
X290444D01*
X290991Y-209320D01*
X292811Y-210074D01*
X293989D01*
X294657Y-211074D01*
X294522Y-211400D01*
X295014Y-212586D01*
X295667Y-212857D01*
X297330Y-214520D01*
X296948Y-215444D01*
X296619D01*
X296381Y-215444D01*
X296000D01*
X295619D01*
X295381Y-215444D01*
X289295D01*
Y-217052D01*
X286705D01*
Y-215444D01*
X280819D01*
X280736D01*
X279819Y-215244D01*
X279806D01*
X279464Y-215244D01*
X276957D01*
Y-219000D01*
Y-222756D01*
X279464D01*
X279806Y-222756D01*
X279819D01*
X280736Y-222556D01*
X280819D01*
X286705D01*
Y-220948D01*
X289295D01*
Y-222556D01*
X295381D01*
X295619Y-222556D01*
X296000D01*
X296381D01*
X296619Y-222556D01*
X302706D01*
Y-220948D01*
X312807D01*
X312808Y-220952D01*
X314760Y-221760D01*
X314763Y-221759D01*
X316558Y-223554D01*
Y-234209D01*
Y-251729D01*
X319052D01*
Y-264193D01*
X309803Y-273441D01*
X309800Y-273440D01*
X307848Y-274248D01*
X307040Y-276200D01*
X307848Y-278152D01*
X309800Y-278960D01*
X311752Y-278152D01*
X312560Y-276200D01*
X312559Y-276197D01*
X322378Y-266378D01*
X322948Y-265000D01*
Y-251729D01*
X325442D01*
Y-234209D01*
Y-216271D01*
X326332Y-216007D01*
X336347D01*
X337000Y-216278D01*
X338186Y-215786D01*
X338678Y-214600D01*
X338186Y-213414D01*
X337000Y-212922D01*
X336347Y-213193D01*
X317517D01*
X316962Y-212361D01*
X317360Y-211400D01*
X317066Y-210689D01*
X317621Y-209857D01*
X319189D01*
X320856Y-209167D01*
X321546Y-207500D01*
X320856Y-205833D01*
X320847Y-204747D01*
X321147Y-204448D01*
X334493D01*
X335622Y-205578D01*
X336026Y-205745D01*
X337000Y-206148D01*
X363761D01*
X365138Y-205578D01*
X367979Y-202737D01*
X374698D01*
Y-193263D01*
X365224D01*
Y-199982D01*
X362954Y-202252D01*
X344345D01*
X343820Y-201252D01*
X345167Y-198000D01*
X343665Y-194375D01*
X340039Y-192873D01*
X338362Y-193567D01*
X335719Y-190924D01*
X336101Y-190000D01*
X385136D01*
X385975Y-192025D01*
X388500Y-193071D01*
Y-189000D01*
X389500D01*
Y-193071D01*
D02*
G37*
G36*
X132252Y-192461D02*
X132200Y-192587D01*
X135024D01*
Y-193587D01*
X132200D01*
X132252Y-193712D01*
Y-197630D01*
X131402Y-197993D01*
X130412D01*
X128493Y-196074D01*
Y-193019D01*
X122365D01*
Y-196981D01*
X124022D01*
Y-203444D01*
X122381D01*
Y-203444D01*
X121619D01*
Y-203444D01*
X120657D01*
X120188Y-202743D01*
X119756Y-201699D01*
X120297Y-200883D01*
X120543Y-200942D01*
X121000Y-201132D01*
X122225Y-200625D01*
X122732Y-199400D01*
X122225Y-198175D01*
X121441Y-197851D01*
X121335Y-197745D01*
X120340Y-197333D01*
X119635D01*
Y-196759D01*
X113507D01*
X113507Y-196759D01*
D01*
X113427Y-196663D01*
X113386Y-196614D01*
X112689Y-196325D01*
X112687Y-196324D01*
X112200Y-196122D01*
X111556Y-195692D01*
Y-195619D01*
X111556Y-195381D01*
Y-195000D01*
Y-194619D01*
X111556Y-194381D01*
Y-192667D01*
X113507D01*
Y-193241D01*
X119635D01*
Y-189279D01*
X120626Y-189257D01*
X132252D01*
Y-192461D01*
D02*
G37*
G36*
X259500Y-130496D02*
X263347D01*
Y-130478D01*
X263949Y-130076D01*
X264854Y-130296D01*
X264854D01*
X265784Y-130296D01*
X270000D01*
Y-135704D01*
X264854D01*
Y-138443D01*
X263146D01*
Y-135704D01*
X256843D01*
X253556Y-132416D01*
Y-129894D01*
X253730Y-129740D01*
X254654Y-130134D01*
Y-130496D01*
X258500D01*
Y-126150D01*
X259500D01*
Y-130496D01*
D02*
G37*
G36*
X232993Y-136706D02*
X232500Y-136910D01*
X232122Y-137822D01*
Y-138600D01*
X231122Y-139268D01*
X231100Y-139259D01*
Y-141000D01*
Y-142799D01*
X231889Y-143272D01*
X232075Y-144333D01*
X231538Y-145136D01*
X229556D01*
Y-143598D01*
X230100Y-143063D01*
Y-141000D01*
Y-138948D01*
X229556Y-138584D01*
Y-136294D01*
X229556D01*
X229556Y-135705D01*
X230444D01*
Y-135705D01*
X232794D01*
X232993Y-136706D01*
D02*
G37*
G36*
X207854Y-153296D02*
X215700D01*
X216114Y-154296D01*
X211706Y-158704D01*
X207854D01*
Y-159508D01*
X207245Y-159850D01*
X206347Y-159292D01*
Y-158504D01*
X202500D01*
Y-162850D01*
Y-167197D01*
X203366D01*
X203901Y-168197D01*
X203770Y-168393D01*
X192062D01*
X191584Y-167393D01*
X191960Y-166905D01*
X192500D01*
Y-163543D01*
X193500D01*
Y-166905D01*
X196756D01*
X196756Y-166905D01*
Y-166905D01*
X196756Y-166905D01*
X197653Y-167153D01*
Y-167197D01*
X201500D01*
Y-162850D01*
Y-158504D01*
X197653D01*
Y-158866D01*
X196730Y-159260D01*
X196556Y-159106D01*
Y-156584D01*
X199844Y-153296D01*
X206147D01*
Y-150557D01*
X207854D01*
Y-153296D01*
D02*
G37*
G36*
X268648Y-307752D02*
X269336Y-308037D01*
X269531Y-309017D01*
X264084Y-314465D01*
X263667Y-314428D01*
X263104Y-313500D01*
X254401D01*
X254678Y-314169D01*
X254129Y-314989D01*
X253182D01*
X252634Y-314169D01*
X253117Y-313000D01*
X251865Y-309977D01*
X248843Y-308725D01*
X245820Y-309977D01*
X244567Y-313000D01*
X245052Y-314169D01*
X244496Y-315000D01*
X243347D01*
X242791Y-314169D01*
X243275Y-313000D01*
X242023Y-309977D01*
X239000Y-308725D01*
X235977Y-309977D01*
X234725Y-313000D01*
X235209Y-314169D01*
X234653Y-315000D01*
X221406D01*
X220850Y-314169D01*
X221127Y-313500D01*
X212558D01*
X212835Y-314169D01*
X212286Y-314989D01*
X211340D01*
X210791Y-314169D01*
X211275Y-313000D01*
X210478Y-311077D01*
X213807Y-307748D01*
X216065D01*
X216264Y-308748D01*
X213667Y-309824D01*
X212558Y-312500D01*
X221127D01*
X220019Y-309824D01*
X217422Y-308748D01*
X217620Y-307748D01*
X257907D01*
X258106Y-308748D01*
X255509Y-309824D01*
X254401Y-312500D01*
X262969D01*
X261861Y-309824D01*
X259264Y-308748D01*
X259463Y-307748D01*
X268647D01*
X268648Y-307752D01*
D02*
G37*
G36*
X254854Y-137694D02*
Y-143997D01*
X263146D01*
Y-141258D01*
X264854D01*
Y-143997D01*
X270000D01*
Y-160003D01*
X264854D01*
Y-162742D01*
X263146D01*
Y-160003D01*
X254854D01*
Y-164720D01*
X253854Y-165231D01*
X253419Y-165051D01*
X251661Y-163293D01*
Y-160066D01*
X251347Y-159307D01*
X250907Y-159125D01*
Y-155900D01*
X250495Y-154905D01*
X248390Y-152799D01*
X247394Y-152387D01*
X222706D01*
X222692Y-152393D01*
X218600D01*
X217605Y-152805D01*
X217146Y-153264D01*
X216146Y-152849D01*
Y-147044D01*
X217533Y-145657D01*
X218186Y-145386D01*
X218601Y-144385D01*
X219602D01*
X220032Y-145425D01*
X221257Y-145932D01*
X221613Y-145784D01*
X222444Y-146340D01*
Y-149706D01*
X229556D01*
Y-147950D01*
X237857D01*
X238852Y-147538D01*
X240495Y-145895D01*
X240714Y-145367D01*
X241347Y-144693D01*
Y-144693D01*
X242271Y-144423D01*
X242541D01*
X242653Y-144693D01*
X243412Y-145008D01*
X245588D01*
X246347Y-144693D01*
X246459Y-144423D01*
X247541D01*
X247653Y-144693D01*
X248412Y-145008D01*
X250588D01*
X251347Y-144693D01*
X251661Y-143934D01*
Y-137822D01*
X251347Y-137063D01*
X250588Y-136748D01*
X248412D01*
X247653Y-137063D01*
X247541Y-137333D01*
X246459D01*
X246347Y-137063D01*
X245725Y-136805D01*
X245641Y-136565D01*
X246127Y-135705D01*
X246444Y-135705D01*
X246489Y-135705D01*
X246556Y-135705D01*
D01*
X246556D01*
Y-135705D01*
X252865D01*
X254854Y-137694D01*
D02*
G37*
G36*
X273495Y-12116D02*
X268159Y-17451D01*
X267962Y-17927D01*
X266879D01*
X266760Y-17640D01*
X265000Y-16910D01*
X263240Y-17640D01*
X262510Y-19400D01*
X262964Y-20494D01*
X262533Y-21495D01*
X261444D01*
Y-22708D01*
X254411D01*
X253437Y-23112D01*
X253033Y-23279D01*
X251855Y-24457D01*
X244545D01*
X241653Y-21566D01*
X240276Y-20995D01*
X236463D01*
X236014Y-20546D01*
X235787Y-19995D01*
X235956Y-19219D01*
Y-19206D01*
X235956Y-18864D01*
Y-16357D01*
X228444D01*
Y-18203D01*
X227444Y-18666D01*
X226942Y-18284D01*
Y-12704D01*
X215893D01*
Y-27296D01*
X226942D01*
Y-25317D01*
X227726Y-24789D01*
X228644Y-25243D01*
Y-26105D01*
X235756D01*
Y-24892D01*
X239469D01*
X243168Y-28591D01*
Y-37278D01*
X246252D01*
Y-39693D01*
X245710Y-41000D01*
X246440Y-42760D01*
X248200Y-43490D01*
X249960Y-42760D01*
X250690Y-41000D01*
X250148Y-39693D01*
Y-37278D01*
X253232D01*
Y-28591D01*
X255218Y-26605D01*
X261444D01*
Y-27819D01*
X261444Y-27819D01*
Y-27819D01*
Y-28490D01*
X261444Y-28581D01*
X261444Y-28677D01*
X261444Y-28819D01*
D01*
Y-28819D01*
X261444D01*
Y-34905D01*
X263593D01*
Y-36347D01*
X263322Y-37000D01*
X263814Y-38186D01*
X265000Y-38678D01*
X266186Y-38186D01*
X266678Y-37000D01*
X266407Y-36347D01*
Y-34905D01*
X268556D01*
Y-31841D01*
X269556Y-31642D01*
X269758Y-32129D01*
X270749Y-32540D01*
X271999D01*
Y-35287D01*
X271665Y-36094D01*
X273406D01*
Y-37094D01*
X271665D01*
X272029Y-37971D01*
X272694Y-38247D01*
Y-40393D01*
X268053D01*
X267400Y-40122D01*
X266214Y-40614D01*
X265722Y-41800D01*
X266214Y-42986D01*
X267400Y-43478D01*
X268053Y-43207D01*
X272694D01*
Y-44893D01*
X244400D01*
X244300Y-44934D01*
X244150Y-44872D01*
X242964Y-45364D01*
X242472Y-46550D01*
X242964Y-47736D01*
X243182Y-47827D01*
X243972Y-48350D01*
Y-48350D01*
X243972D01*
X244464Y-49536D01*
X244749Y-49654D01*
X245266Y-50153D01*
X245751Y-50952D01*
D01*
X245751Y-50952D01*
X246014Y-51586D01*
X246323Y-51714D01*
X247200Y-52078D01*
X247322Y-52200D01*
X247814Y-53386D01*
X249000Y-53878D01*
X249653Y-53607D01*
X254644D01*
Y-55957D01*
X262156D01*
Y-53607D01*
X280417D01*
X282680Y-55870D01*
X282536Y-56997D01*
X281730Y-57070D01*
X280543Y-56579D01*
X279357Y-57070D01*
X278866Y-58257D01*
X279357Y-59443D01*
X280010Y-59714D01*
X280829Y-60532D01*
Y-61248D01*
X280838Y-61269D01*
Y-61646D01*
X279914Y-62029D01*
X278690Y-60805D01*
X277695Y-60393D01*
X267983D01*
X266457Y-58867D01*
X266186Y-58214D01*
X265000Y-57722D01*
X263814Y-58214D01*
X263322Y-59400D01*
X263814Y-60586D01*
X264467Y-60857D01*
X265765Y-62155D01*
X266214Y-63014D01*
X265951Y-63648D01*
X265722Y-64200D01*
X266214Y-65386D01*
X266867Y-65657D01*
X268005Y-66795D01*
X269000Y-67207D01*
X270634D01*
X271302Y-68207D01*
X271290Y-68236D01*
X271698Y-69221D01*
X271290Y-70205D01*
X271698Y-71189D01*
X271290Y-72173D01*
X271698Y-73158D01*
X271290Y-74142D01*
X270915Y-74703D01*
X264054D01*
X263924Y-74574D01*
Y-66696D01*
X261956D01*
Y-60381D01*
X261956Y-60381D01*
X261956D01*
X261957Y-60379D01*
X262156Y-59819D01*
X262156Y-59819D01*
X262156Y-59453D01*
Y-56957D01*
X254644D01*
Y-59453D01*
X254644Y-59819D01*
X254644Y-59819D01*
X254843Y-60379D01*
X254844Y-60381D01*
X254844D01*
X254844Y-60381D01*
Y-66696D01*
X252876D01*
Y-75383D01*
X260753D01*
X262476Y-77105D01*
X263471Y-77517D01*
X264386D01*
X264769Y-78441D01*
X261553Y-81657D01*
X252876D01*
Y-84393D01*
X250905D01*
Y-82244D01*
X245019D01*
X244936D01*
X244019Y-82044D01*
X244006D01*
X243664Y-82044D01*
X241157D01*
Y-85800D01*
Y-89556D01*
X243664D01*
X244006Y-89556D01*
X244019D01*
X244936Y-89356D01*
X245019D01*
X250905D01*
Y-87207D01*
X252876D01*
Y-90343D01*
X260245D01*
X260769Y-91343D01*
X260595Y-91593D01*
X235000D01*
Y-40000D01*
X220426D01*
Y-38314D01*
X209574D01*
Y-40000D01*
X204955D01*
X201613Y-36658D01*
Y-31824D01*
X204107D01*
Y-26287D01*
X199216D01*
X198583Y-26024D01*
X197950Y-26287D01*
X193058D01*
Y-31824D01*
X195552D01*
Y-36658D01*
X192210Y-40000D01*
X190000D01*
Y-10000D01*
X192858D01*
Y-10445D01*
X204307D01*
Y-10000D01*
X242968D01*
Y-13832D01*
X253432D01*
Y-10000D01*
X273495D01*
Y-12116D01*
D02*
G37*
G36*
X415000Y-185000D02*
X389150D01*
X389000Y-184938D01*
X388850Y-185000D01*
X332377D01*
Y-181981D01*
X333493D01*
Y-178019D01*
X327365D01*
Y-181981D01*
X328481D01*
Y-185000D01*
X324635D01*
Y-181759D01*
X318507D01*
Y-185000D01*
X279323D01*
X279124Y-184000D01*
X279178Y-183978D01*
X279541Y-183100D01*
X277800D01*
Y-182100D01*
X279541D01*
X279178Y-181222D01*
X279153Y-181212D01*
X278958Y-180231D01*
X282127Y-177063D01*
X283531Y-177644D01*
X290028D01*
X291544Y-177016D01*
X291589Y-176907D01*
X300900D01*
X301895Y-176495D01*
X302241Y-176149D01*
X302716Y-175952D01*
X303025Y-175825D01*
X303918Y-176238D01*
X304303Y-177169D01*
X305972Y-177861D01*
X308720D01*
Y-175500D01*
X309221D01*
Y-175000D01*
X314622D01*
X314138Y-173831D01*
X313439Y-173541D01*
Y-172459D01*
X314138Y-172169D01*
X314622Y-171000D01*
X303819D01*
X304303Y-172169D01*
X304591Y-172289D01*
X304691Y-173383D01*
X304141Y-173827D01*
X303155Y-173691D01*
X303025Y-173375D01*
X301800Y-172868D01*
X300575Y-173375D01*
X300278Y-174093D01*
X291589D01*
X291544Y-173984D01*
X290737Y-173649D01*
Y-172567D01*
X291697Y-172169D01*
X292181Y-171000D01*
X281378D01*
X281862Y-172169D01*
X282822Y-172567D01*
Y-173649D01*
X282015Y-173984D01*
X281700Y-174093D01*
X280996Y-174384D01*
X280705Y-174505D01*
X280705Y-174505D01*
X275924Y-179286D01*
X275000Y-178903D01*
Y-160140D01*
X281208Y-153931D01*
X282189Y-154127D01*
X282214Y-154186D01*
X283400Y-154678D01*
X284053Y-154407D01*
X376644D01*
X377444Y-155207D01*
Y-159381D01*
X377444Y-159619D01*
Y-160000D01*
Y-160381D01*
X377444Y-160619D01*
Y-162136D01*
X369740D01*
X369425Y-161375D01*
X368200Y-160868D01*
X366975Y-161375D01*
X366468Y-162600D01*
X366975Y-163825D01*
X367759Y-164149D01*
X368148Y-164538D01*
X369143Y-164950D01*
X369143Y-164950D01*
X377444D01*
Y-166706D01*
X384556D01*
Y-160619D01*
X384556Y-160381D01*
Y-160000D01*
Y-159619D01*
X384556Y-159381D01*
Y-157864D01*
X385737D01*
X386444Y-158571D01*
Y-159181D01*
Y-159264D01*
X386244Y-160181D01*
Y-160194D01*
X386244Y-160536D01*
Y-163043D01*
X393756D01*
Y-160536D01*
X393756Y-160194D01*
Y-160181D01*
X393556Y-159264D01*
Y-159181D01*
Y-157864D01*
X393953D01*
X394948Y-157452D01*
X400782Y-151618D01*
X403000Y-152537D01*
X406626Y-151035D01*
X408127Y-147409D01*
X406626Y-143784D01*
X403000Y-142282D01*
X399374Y-143784D01*
X397873Y-147409D01*
X398792Y-149628D01*
X394480Y-153940D01*
X393556Y-153557D01*
Y-153295D01*
X386444D01*
Y-155050D01*
X384556D01*
Y-153295D01*
X379828D01*
X378538Y-152005D01*
X377543Y-151593D01*
X370421D01*
X369865Y-150761D01*
X369932Y-150600D01*
X369425Y-149375D01*
X369407Y-149368D01*
Y-142753D01*
X371753D01*
Y-136207D01*
X371753Y-135247D01*
X372736Y-135207D01*
X372736D01*
X374600D01*
X375595Y-134795D01*
X376983Y-133407D01*
X379050D01*
Y-134296D01*
X388524D01*
Y-130296D01*
X388524Y-129704D01*
Y-129500D01*
Y-129296D01*
X388524Y-128704D01*
Y-124704D01*
X388524D01*
Y-124296D01*
X388524D01*
Y-119704D01*
X388524D01*
Y-119296D01*
X388524D01*
Y-114704D01*
X388524D01*
Y-114407D01*
X388792Y-113407D01*
X391600D01*
X392595Y-112995D01*
X393995Y-111595D01*
X394407Y-110600D01*
Y-75166D01*
X395239Y-74611D01*
X395400Y-74678D01*
X395855Y-74489D01*
X396855Y-74912D01*
Y-75419D01*
X406329D01*
Y-70669D01*
X396855D01*
Y-71088D01*
X395855Y-71511D01*
X395400Y-71322D01*
X395239Y-71389D01*
X394407Y-70834D01*
Y-57800D01*
X394407Y-57800D01*
X394116Y-57096D01*
X393995Y-56805D01*
X393995Y-56805D01*
X388492Y-51302D01*
X387497Y-50890D01*
X343337D01*
Y-47630D01*
X385523D01*
X386518Y-47218D01*
X394528Y-39207D01*
X396855D01*
Y-43923D01*
X406329D01*
Y-39173D01*
X406329D01*
X406723Y-38832D01*
X406805Y-38795D01*
X406805Y-38795D01*
X408395Y-37205D01*
X408807Y-36210D01*
Y-26600D01*
X408807Y-26600D01*
X408395Y-25605D01*
X407795Y-25005D01*
X406800Y-24593D01*
X406329D01*
Y-23425D01*
X396855D01*
Y-28175D01*
X405993D01*
Y-31299D01*
X396855D01*
Y-32467D01*
X395326D01*
X394331Y-32879D01*
X394331Y-32879D01*
X384194Y-43016D01*
X345588D01*
X345174Y-42016D01*
X345190Y-42000D01*
X345843Y-41730D01*
X346334Y-40543D01*
X345843Y-39357D01*
X344657Y-38866D01*
X344275Y-39024D01*
X343337Y-39173D01*
X343337Y-39173D01*
X343337Y-39173D01*
X333863D01*
Y-43016D01*
X320631D01*
X319977Y-42745D01*
X318791Y-43237D01*
X318300Y-44423D01*
X318299D01*
X318299D01*
X317841Y-45237D01*
X317414Y-45414D01*
X316922Y-46600D01*
X316989Y-46761D01*
X316434Y-47593D01*
X315238D01*
X315032Y-46678D01*
X315032Y-46678D01*
X315032Y-46678D01*
Y-41675D01*
X321276D01*
X322271Y-41263D01*
X323828Y-39706D01*
X328556D01*
Y-34977D01*
X335358Y-28175D01*
X343337D01*
Y-27748D01*
X344494D01*
X345800Y-28289D01*
X347560Y-27560D01*
X348289Y-25800D01*
X347560Y-24040D01*
X345800Y-23311D01*
X344494Y-23852D01*
X343337D01*
Y-23425D01*
X333863D01*
Y-25690D01*
X329680Y-29874D01*
X328756Y-29491D01*
Y-26094D01*
X325500D01*
Y-29457D01*
X325000D01*
Y-29957D01*
X321244D01*
Y-32819D01*
X321244D01*
Y-32819D01*
X321244Y-32819D01*
X321444Y-33736D01*
D01*
Y-38109D01*
X320693Y-38861D01*
X315032D01*
Y-33858D01*
X304968D01*
Y-38861D01*
X290087D01*
X289673Y-37861D01*
X292628Y-34905D01*
X297356D01*
Y-28581D01*
X297356Y-28581D01*
X297356D01*
X297357Y-28579D01*
X297556Y-28019D01*
X297556Y-28019D01*
X297556Y-27653D01*
Y-25157D01*
X293800D01*
Y-24657D01*
X293300D01*
Y-21294D01*
X290044D01*
X290044Y-21294D01*
X289044Y-21646D01*
X288662Y-21488D01*
X283347D01*
X283155Y-21359D01*
Y-17555D01*
X283081Y-17377D01*
Y-16972D01*
X282743Y-16156D01*
X283154Y-15156D01*
X283243D01*
Y-11400D01*
X283743D01*
Y-10900D01*
X287105D01*
Y-10000D01*
X316215D01*
X316771Y-10831D01*
X315873Y-13000D01*
X317374Y-16626D01*
X321000Y-18127D01*
X324626Y-16626D01*
X326127Y-13000D01*
X325229Y-10831D01*
X325785Y-10000D01*
X415000D01*
Y-185000D01*
D02*
G37*
%LPC*%
G36*
X173551Y-192244D02*
X168130D01*
Y-195500D01*
X173551D01*
Y-192244D01*
D02*
G37*
G36*
X312469Y-158139D02*
X309720D01*
Y-160000D01*
X314622D01*
X314138Y-158831D01*
X312469Y-158139D01*
D02*
G37*
G36*
X326699Y-192700D02*
X324700D01*
Y-194699D01*
X326113Y-194113D01*
X326699Y-192700D01*
D02*
G37*
G36*
X189899Y-196700D02*
X187900D01*
Y-198699D01*
X189313Y-198113D01*
X189899Y-196700D01*
D02*
G37*
G36*
X254100Y-150300D02*
X252101D01*
X252687Y-151713D01*
X254100Y-152299D01*
Y-150300D01*
D02*
G37*
G36*
X229551Y-196500D02*
X224130D01*
Y-199756D01*
X229551D01*
Y-196500D01*
D02*
G37*
G36*
X186900Y-196700D02*
X184901D01*
X185487Y-198113D01*
X186900Y-198699D01*
Y-196700D01*
D02*
G37*
G36*
X167130Y-192244D02*
X161709D01*
Y-195500D01*
X167130D01*
Y-192244D01*
D02*
G37*
G36*
X301000Y-156122D02*
X299814Y-156614D01*
X299543Y-157267D01*
X297717Y-159093D01*
X291589D01*
X291544Y-158984D01*
X290028Y-158356D01*
X283531D01*
X282015Y-158984D01*
X281387Y-160500D01*
X282015Y-162016D01*
X283084Y-162459D01*
Y-163541D01*
X282015Y-163984D01*
X281387Y-165500D01*
X282015Y-167016D01*
X282822Y-167351D01*
Y-168433D01*
X281862Y-168831D01*
X281378Y-170000D01*
X292181D01*
X291697Y-168831D01*
X290737Y-168433D01*
Y-167351D01*
X291544Y-167016D01*
X291589Y-166907D01*
X298084D01*
X299079Y-166495D01*
X299117Y-166457D01*
X299771Y-166186D01*
X300262Y-165000D01*
X299771Y-163814D01*
X298584Y-163322D01*
X297398Y-163814D01*
X297282Y-164093D01*
X291589D01*
X291544Y-163984D01*
X290476Y-163541D01*
Y-162459D01*
X291544Y-162016D01*
X291589Y-161907D01*
X298300D01*
X299295Y-161495D01*
X301533Y-159257D01*
X302186Y-158986D01*
X302678Y-157800D01*
X302186Y-156614D01*
X301000Y-156122D01*
D02*
G37*
G36*
X186900Y-193701D02*
X185487Y-194287D01*
X184901Y-195700D01*
X186900D01*
Y-193701D01*
D02*
G37*
G36*
X187900D02*
Y-195700D01*
X189899D01*
X189313Y-194287D01*
X187900Y-193701D01*
D02*
G37*
G36*
X403500Y-167863D02*
Y-172500D01*
X408137D01*
X406779Y-169221D01*
X403500Y-167863D01*
D02*
G37*
G36*
X356200Y-161473D02*
X352574Y-162975D01*
X351073Y-166600D01*
X352574Y-170226D01*
X356200Y-171727D01*
X359826Y-170226D01*
X361327Y-166600D01*
X359826Y-162975D01*
X356200Y-161473D01*
D02*
G37*
G36*
X87756Y-164043D02*
X84500D01*
Y-166905D01*
X87756D01*
Y-164043D01*
D02*
G37*
G36*
X402500Y-167863D02*
X399221Y-169221D01*
X397863Y-172500D01*
X402500D01*
Y-167863D01*
D02*
G37*
G36*
X83500Y-164043D02*
X80244D01*
Y-166905D01*
X83500D01*
Y-164043D01*
D02*
G37*
G36*
X168500D02*
X165244D01*
Y-166905D01*
X168500D01*
Y-164043D01*
D02*
G37*
G36*
X314622Y-166000D02*
X303819D01*
X304303Y-167169D01*
X305002Y-167459D01*
Y-168541D01*
X304303Y-168831D01*
X303819Y-170000D01*
X314622D01*
X314138Y-168831D01*
X313439Y-168541D01*
Y-167459D01*
X314138Y-167169D01*
X314622Y-166000D01*
D02*
G37*
G36*
X108500Y-164043D02*
X105244D01*
Y-166905D01*
X108500D01*
Y-164043D01*
D02*
G37*
G36*
X308720Y-158139D02*
X305972D01*
X304303Y-158831D01*
X303819Y-160000D01*
X308720D01*
Y-158139D01*
D02*
G37*
G36*
X408137Y-173500D02*
X403500D01*
Y-178137D01*
X406779Y-176779D01*
X408137Y-173500D01*
D02*
G37*
G36*
X319400Y-160122D02*
X318214Y-160614D01*
X317722Y-161800D01*
X317993Y-162453D01*
Y-165943D01*
X318295Y-166672D01*
Y-171556D01*
X322213D01*
X322400Y-171925D01*
X322519Y-172556D01*
X320797Y-174279D01*
X318507D01*
Y-178241D01*
X324635D01*
Y-175951D01*
X324838Y-175748D01*
X326600D01*
X327978Y-175178D01*
X329578Y-173578D01*
X330148Y-172200D01*
Y-171556D01*
X331705D01*
Y-164444D01*
X325619D01*
X325381Y-164444D01*
X325000D01*
X324619D01*
X324381Y-164444D01*
X320807D01*
Y-162453D01*
X321078Y-161800D01*
X320586Y-160614D01*
X319400Y-160122D01*
D02*
G37*
G36*
X402500Y-173500D02*
X397863D01*
X399221Y-176779D01*
X402500Y-178137D01*
Y-173500D01*
D02*
G37*
G36*
X393756Y-164043D02*
X390500D01*
Y-166905D01*
X393756D01*
Y-164043D01*
D02*
G37*
G36*
X389500D02*
X386244D01*
Y-166905D01*
X389500D01*
Y-164043D01*
D02*
G37*
G36*
X314622Y-161000D02*
X303819D01*
X304303Y-162169D01*
X305002Y-162459D01*
Y-163541D01*
X304303Y-163831D01*
X303819Y-165000D01*
X314622D01*
X314138Y-163831D01*
X313439Y-163541D01*
Y-162459D01*
X314138Y-162169D01*
X314622Y-161000D01*
D02*
G37*
G36*
Y-176000D02*
X309720D01*
Y-177861D01*
X312469D01*
X314138Y-177169D01*
X314622Y-176000D01*
D02*
G37*
G36*
X223130Y-196500D02*
X217709D01*
Y-199756D01*
X223130D01*
Y-196500D01*
D02*
G37*
G36*
X388500Y-279500D02*
X384929D01*
X385975Y-282025D01*
X388500Y-283071D01*
Y-279500D01*
D02*
G37*
G36*
X393071D02*
X389500D01*
Y-283071D01*
X392025Y-282025D01*
X393071Y-279500D01*
D02*
G37*
G36*
X174843Y-282725D02*
X171820Y-283977D01*
X170812Y-286410D01*
X169683Y-286858D01*
X169102Y-286581D01*
X168023Y-283977D01*
X165000Y-282725D01*
X161977Y-283977D01*
X160725Y-287000D01*
X161977Y-290023D01*
X164981Y-291267D01*
X173657Y-299943D01*
X175800Y-300831D01*
X176787D01*
X179400Y-301913D01*
X182308Y-300708D01*
X183513Y-297800D01*
X182308Y-294892D01*
X179400Y-293687D01*
X176977Y-294691D01*
X174485Y-292199D01*
X174936Y-291236D01*
X177865Y-290023D01*
X179118Y-287000D01*
X177865Y-283977D01*
X174843Y-282725D01*
D02*
G37*
G36*
X223555Y-282929D02*
X221030Y-283975D01*
X219984Y-286500D01*
X223555D01*
Y-282929D01*
D02*
G37*
G36*
X388500Y-274929D02*
X385975Y-275975D01*
X384929Y-278500D01*
X388500D01*
Y-274929D01*
D02*
G37*
G36*
X281493Y-238759D02*
X275365D01*
Y-242721D01*
X277593D01*
Y-247294D01*
X275444D01*
Y-253381D01*
X275444Y-253619D01*
Y-254000D01*
Y-254381D01*
X275444Y-254619D01*
Y-260705D01*
X282556D01*
Y-258950D01*
X284444D01*
Y-260705D01*
X291556D01*
Y-258950D01*
X303657D01*
X304652Y-258538D01*
X306333Y-256857D01*
X306986Y-256586D01*
X307478Y-255400D01*
X306986Y-254214D01*
X305800Y-253722D01*
X304614Y-254214D01*
X304343Y-254867D01*
X303074Y-256136D01*
X292263D01*
X291556Y-255429D01*
Y-254619D01*
X291556Y-254381D01*
Y-254000D01*
Y-253619D01*
X291556Y-253381D01*
Y-251864D01*
X297143D01*
X298138Y-251452D01*
X302241Y-247349D01*
X303025Y-247025D01*
X303532Y-245800D01*
X303025Y-244575D01*
X301800Y-244068D01*
X300575Y-244575D01*
X300251Y-245359D01*
X296561Y-249050D01*
X291556D01*
Y-247294D01*
X284444D01*
Y-253381D01*
X284444Y-253619D01*
Y-254000D01*
Y-254381D01*
X284444Y-254619D01*
Y-256136D01*
X283263D01*
X282556Y-255429D01*
Y-254619D01*
X282556Y-254381D01*
Y-254000D01*
Y-253619D01*
X282556Y-253381D01*
Y-247294D01*
X280407D01*
Y-242721D01*
X281493D01*
Y-238759D01*
D02*
G37*
G36*
X235721Y-253444D02*
X224279D01*
Y-255593D01*
X221000D01*
X220005Y-256005D01*
X217813Y-258197D01*
X217160Y-258467D01*
X216669Y-259653D01*
X217160Y-260840D01*
X218347Y-261331D01*
X219533Y-260840D01*
X219803Y-260187D01*
X221583Y-258407D01*
X224279D01*
Y-260556D01*
X235721D01*
Y-253444D01*
D02*
G37*
G36*
X389500Y-274929D02*
Y-278500D01*
X393071D01*
X392025Y-275975D01*
X389500Y-274929D01*
D02*
G37*
G36*
X196351Y-263444D02*
X184909D01*
Y-270556D01*
X196351D01*
Y-268407D01*
X199000D01*
X199995Y-267995D01*
X200733Y-267257D01*
X201386Y-266986D01*
X201878Y-265800D01*
X201386Y-264614D01*
X200200Y-264122D01*
X199014Y-264614D01*
X198743Y-265267D01*
X198417Y-265593D01*
X196351D01*
Y-263444D01*
D02*
G37*
G36*
X214213Y-282938D02*
X211340Y-284128D01*
X210151Y-287000D01*
X211340Y-289872D01*
X214213Y-291062D01*
X217085Y-289872D01*
X218274Y-287000D01*
X217085Y-284128D01*
X214213Y-282938D01*
D02*
G37*
G36*
X238000Y-285068D02*
X236775Y-285575D01*
X236268Y-286800D01*
X236593Y-287584D01*
Y-292416D01*
X236268Y-293200D01*
X236775Y-294425D01*
X238000Y-294932D01*
X239225Y-294425D01*
X239732Y-293200D01*
X239407Y-292416D01*
Y-287584D01*
X239732Y-286800D01*
X239225Y-285575D01*
X238000Y-285068D01*
D02*
G37*
G36*
X346945Y-274797D02*
X341813Y-276923D01*
X339687Y-282055D01*
X341813Y-287187D01*
X346360Y-289070D01*
X346806Y-290237D01*
X345040Y-294500D01*
X359574D01*
X357592Y-289715D01*
X352829Y-287742D01*
X352309Y-287358D01*
X352319Y-286644D01*
X352320Y-286602D01*
X354203Y-282055D01*
X352077Y-276923D01*
X346945Y-274797D01*
D02*
G37*
G36*
X184185Y-308716D02*
X181509Y-309824D01*
X180401Y-312500D01*
X184185D01*
Y-308716D01*
D02*
G37*
G36*
X185185D02*
Y-312500D01*
X188969D01*
X187861Y-309824D01*
X185185Y-308716D01*
D02*
G37*
G36*
X389000Y-284938D02*
X386128Y-286128D01*
X384938Y-289000D01*
X386128Y-291872D01*
X389000Y-293062D01*
X391872Y-291872D01*
X393062Y-289000D01*
X391872Y-286128D01*
X389000Y-284938D01*
D02*
G37*
G36*
X194528Y-282938D02*
X191655Y-284128D01*
X190466Y-287000D01*
X191655Y-289872D01*
X194528Y-291062D01*
X197400Y-289872D01*
X198590Y-287000D01*
X197400Y-284128D01*
X194528Y-282938D01*
D02*
G37*
G36*
X204370D02*
X201498Y-284128D01*
X200308Y-287000D01*
X201498Y-289872D01*
X204370Y-291062D01*
X207242Y-289872D01*
X208432Y-287000D01*
X207242Y-284128D01*
X204370Y-282938D01*
D02*
G37*
G36*
X184685Y-282725D02*
X181662Y-283977D01*
X180410Y-287000D01*
X181662Y-290023D01*
X184685Y-291275D01*
X187708Y-290023D01*
X188960Y-287000D01*
X187708Y-283977D01*
X184685Y-282725D01*
D02*
G37*
G36*
X223555Y-287500D02*
X219984D01*
X221030Y-290025D01*
X223555Y-291071D01*
Y-287500D01*
D02*
G37*
G36*
X217000Y-251322D02*
X215814Y-251814D01*
X215574Y-252393D01*
X201800D01*
X200805Y-252805D01*
X200467Y-253143D01*
X199814Y-253414D01*
X199322Y-254600D01*
X199814Y-255786D01*
X201000Y-256278D01*
X202186Y-255786D01*
X202426Y-255207D01*
X216200D01*
X217195Y-254795D01*
X217533Y-254457D01*
X218186Y-254186D01*
X218678Y-253000D01*
X218186Y-251814D01*
X217000Y-251322D01*
D02*
G37*
G36*
X389000Y-214938D02*
X386128Y-216128D01*
X384938Y-219000D01*
X385545Y-220465D01*
X383217Y-222793D01*
X378105D01*
Y-220644D01*
X372019D01*
X371781Y-220644D01*
X371400D01*
X371019D01*
X370781Y-220644D01*
X364694D01*
Y-222793D01*
X351183D01*
X348857Y-220467D01*
X348586Y-219814D01*
X347400Y-219322D01*
X346214Y-219814D01*
X345722Y-221000D01*
X346214Y-222186D01*
X346867Y-222457D01*
X349605Y-225195D01*
X350600Y-225607D01*
X350600Y-225607D01*
X363987D01*
X364694Y-226314D01*
Y-227644D01*
X364694Y-227756D01*
Y-228200D01*
Y-228644D01*
X364694Y-228756D01*
Y-230793D01*
X346453D01*
X345800Y-230522D01*
X344614Y-231014D01*
X344122Y-232200D01*
X344614Y-233386D01*
X345800Y-233878D01*
X346453Y-233607D01*
X363987D01*
X364694Y-234314D01*
Y-235644D01*
X364694Y-235756D01*
Y-236200D01*
Y-236644D01*
X364694Y-236756D01*
Y-238793D01*
X344053D01*
X343400Y-238522D01*
X342214Y-239014D01*
X341722Y-240200D01*
X341251Y-241150D01*
X340614Y-241414D01*
X340122Y-242600D01*
X340614Y-243786D01*
X341267Y-244057D01*
X342349Y-245139D01*
X343344Y-245551D01*
X343344Y-245551D01*
X350294D01*
Y-247593D01*
X330453D01*
X329800Y-247322D01*
X328614Y-247814D01*
X328122Y-249000D01*
X328614Y-250186D01*
X329800Y-250678D01*
X330453Y-250407D01*
X350294D01*
Y-251756D01*
X356619D01*
Y-251756D01*
X357381D01*
Y-251756D01*
X362109D01*
X380348Y-269995D01*
X381343Y-270407D01*
X381343Y-270407D01*
X385521D01*
X386128Y-271872D01*
X389000Y-273062D01*
X391872Y-271872D01*
X393062Y-269000D01*
X391872Y-266128D01*
X389000Y-264938D01*
X386128Y-266128D01*
X385521Y-267593D01*
X381926D01*
X367013Y-252680D01*
X367396Y-251756D01*
X370781D01*
X371019Y-251756D01*
X371400D01*
X371781D01*
X372019Y-251756D01*
X378105D01*
Y-251402D01*
X379029Y-251019D01*
X385545Y-257535D01*
X384938Y-259000D01*
X386128Y-261872D01*
X389000Y-263062D01*
X391872Y-261872D01*
X393062Y-259000D01*
X391872Y-256128D01*
X389000Y-254938D01*
X387535Y-255545D01*
X379195Y-247205D01*
X378200Y-246793D01*
X378105Y-246698D01*
Y-244756D01*
X378105Y-244644D01*
Y-244200D01*
Y-243756D01*
X378105Y-243644D01*
Y-241607D01*
X386018D01*
X386128Y-241872D01*
X389000Y-243062D01*
X391872Y-241872D01*
X393062Y-239000D01*
X391872Y-236128D01*
X389000Y-234938D01*
X386128Y-236128D01*
X385024Y-238793D01*
X378813D01*
X378105Y-238086D01*
Y-236756D01*
X378105Y-236644D01*
Y-236200D01*
Y-235756D01*
X378105Y-235644D01*
Y-233607D01*
X385800D01*
X386795Y-233195D01*
X387535Y-232455D01*
X389000Y-233062D01*
X391872Y-231872D01*
X393062Y-229000D01*
X391872Y-226128D01*
X389000Y-224938D01*
X386128Y-226128D01*
X384938Y-229000D01*
X385277Y-229818D01*
X384598Y-230793D01*
X378813D01*
X378105Y-230086D01*
Y-228756D01*
X378105Y-228644D01*
Y-228200D01*
Y-227756D01*
X378105Y-227644D01*
Y-225607D01*
X383800D01*
X384795Y-225195D01*
X387535Y-222455D01*
X389000Y-223062D01*
X391872Y-221872D01*
X393062Y-219000D01*
X391872Y-216128D01*
X389000Y-214938D01*
D02*
G37*
G36*
X275957Y-219500D02*
X273095D01*
Y-222756D01*
X275957D01*
Y-219500D01*
D02*
G37*
G36*
X177000Y-215873D02*
X173374Y-217374D01*
X171873Y-221000D01*
X173374Y-224626D01*
X177000Y-226127D01*
X180625Y-224626D01*
X182127Y-221000D01*
X180625Y-217374D01*
X177000Y-215873D01*
D02*
G37*
G36*
X231400Y-200868D02*
X230175Y-201375D01*
X230030Y-201726D01*
X229351Y-202444D01*
X228744Y-202444D01*
X217909D01*
Y-209556D01*
X220393D01*
Y-217147D01*
X220122Y-217800D01*
X220614Y-218986D01*
X221800Y-219478D01*
X222986Y-218986D01*
X223478Y-217800D01*
X223207Y-217147D01*
Y-210263D01*
X223914Y-209556D01*
X228993D01*
X229351Y-209556D01*
X229993Y-210290D01*
X229993Y-210290D01*
Y-220600D01*
X230405Y-221595D01*
X231544Y-222734D01*
X231268Y-223400D01*
X231597Y-224193D01*
X231037Y-225193D01*
X211983D01*
X211882Y-225092D01*
X211612Y-224439D01*
X210425Y-223948D01*
X209239Y-224439D01*
X208748Y-225625D01*
X209239Y-226812D01*
X209892Y-227082D01*
X210405Y-227595D01*
X210405Y-227595D01*
X210697Y-227716D01*
X211400Y-228007D01*
X211400Y-228007D01*
X219571D01*
X219993Y-229007D01*
X219813Y-229193D01*
X210600D01*
X210600Y-229193D01*
X209605Y-229605D01*
X208892Y-230318D01*
X208239Y-230589D01*
X207748Y-231775D01*
X208239Y-232961D01*
X209425Y-233453D01*
X210612Y-232961D01*
X210882Y-232308D01*
X211183Y-232007D01*
X220347D01*
X221000Y-232278D01*
X222186Y-231786D01*
X222678Y-230600D01*
X222186Y-229414D01*
X221697Y-229211D01*
X221262Y-229031D01*
X221212Y-228972D01*
X221222Y-228922D01*
X221223Y-228915D01*
X221333Y-228365D01*
X221394Y-228056D01*
X221529Y-228007D01*
X223460D01*
X224279Y-228444D01*
Y-235556D01*
X223294Y-235593D01*
X196984D01*
X196551Y-235414D01*
Y-232500D01*
X191130D01*
Y-235756D01*
X193901D01*
X194569Y-236756D01*
X194468Y-237000D01*
X194652Y-237444D01*
X193984Y-238444D01*
X184909D01*
Y-245556D01*
X196351D01*
Y-243407D01*
X208617D01*
X211118Y-245908D01*
X211388Y-246561D01*
X212575Y-247053D01*
X213761Y-246561D01*
X214252Y-245375D01*
X213761Y-244188D01*
X213108Y-243918D01*
X210195Y-241005D01*
X209200Y-240593D01*
X196351D01*
Y-239905D01*
X196351Y-238905D01*
Y-238905D01*
X196425Y-238639D01*
X197329Y-238407D01*
X211634D01*
X212189Y-239239D01*
X212122Y-239400D01*
X212614Y-240586D01*
X213267Y-240857D01*
X215405Y-242995D01*
X215405Y-242995D01*
X215697Y-243116D01*
X216400Y-243407D01*
X216400Y-243407D01*
X224279D01*
Y-245556D01*
X235721D01*
Y-238444D01*
X226960D01*
X226546Y-237444D01*
X228434Y-235556D01*
X235721D01*
Y-233407D01*
X236957D01*
X237952Y-232995D01*
X238328Y-232619D01*
X239252Y-233001D01*
Y-233587D01*
X244795D01*
Y-230650D01*
X257405D01*
Y-238430D01*
X262548D01*
Y-235494D01*
X266075D01*
X266507Y-235926D01*
Y-238981D01*
X268593D01*
Y-247294D01*
X266444D01*
Y-253381D01*
X266444Y-253619D01*
Y-254000D01*
Y-254381D01*
X266444Y-254619D01*
Y-260705D01*
X269193D01*
Y-261816D01*
X268868Y-262600D01*
X269375Y-263825D01*
X270600Y-264332D01*
X271825Y-263825D01*
X272332Y-262600D01*
X272007Y-261816D01*
Y-260705D01*
X273556D01*
Y-254619D01*
X273556Y-254381D01*
Y-254000D01*
Y-253619D01*
X273556Y-253381D01*
Y-247294D01*
X271407D01*
Y-238981D01*
X272635D01*
Y-235019D01*
X269580D01*
X267652Y-233092D01*
X266657Y-232680D01*
X262548D01*
Y-230650D01*
X271060D01*
X273051Y-232641D01*
X273375Y-233425D01*
X274159Y-233749D01*
X274665Y-234255D01*
X274665Y-234255D01*
X275365Y-234545D01*
Y-235241D01*
X281493D01*
Y-231279D01*
X275950D01*
X275825Y-230975D01*
X275041Y-230651D01*
X272638Y-228248D01*
X271643Y-227836D01*
X263168D01*
X262754Y-226836D01*
X263133Y-226457D01*
X263786Y-226186D01*
X264278Y-225000D01*
X263786Y-223814D01*
X262600Y-223322D01*
X261414Y-223814D01*
X261143Y-224467D01*
X260417Y-225193D01*
X235934D01*
X235735Y-224193D01*
X236625Y-223825D01*
X237132Y-222600D01*
X236807Y-221816D01*
Y-207400D01*
X236395Y-206405D01*
X235349Y-205359D01*
X235025Y-204575D01*
X233800Y-204068D01*
X233639Y-204135D01*
X232807Y-203579D01*
Y-203384D01*
X233132Y-202600D01*
X232625Y-201375D01*
X231400Y-200868D01*
D02*
G37*
G36*
X275957Y-215244D02*
X273095D01*
Y-218500D01*
X275957D01*
Y-215244D01*
D02*
G37*
G36*
X389000Y-194938D02*
X386128Y-196128D01*
X384938Y-199000D01*
X386128Y-201872D01*
X389000Y-203062D01*
X391872Y-201872D01*
X393062Y-199000D01*
X391872Y-196128D01*
X389000Y-194938D01*
D02*
G37*
G36*
X69000Y-191873D02*
X65374Y-193375D01*
X63873Y-197000D01*
X65374Y-200625D01*
X69000Y-202127D01*
X72625Y-200625D01*
X74127Y-197000D01*
X72625Y-193375D01*
X69000Y-191873D01*
D02*
G37*
G36*
X268721Y-202444D02*
X257279D01*
Y-209556D01*
X261193D01*
Y-210747D01*
X260922Y-211400D01*
X261414Y-212586D01*
X262600Y-213078D01*
X263786Y-212586D01*
X264278Y-211400D01*
X264007Y-210747D01*
Y-209556D01*
X268721D01*
Y-202444D01*
D02*
G37*
G36*
X389000Y-204938D02*
X386128Y-206128D01*
X384938Y-209000D01*
X386128Y-211872D01*
X389000Y-213062D01*
X391872Y-211872D01*
X393062Y-209000D01*
X391872Y-206128D01*
X389000Y-204938D01*
D02*
G37*
G36*
X291957Y-224244D02*
X289094D01*
Y-227500D01*
X291957D01*
Y-224244D01*
D02*
G37*
G36*
X241524Y-234587D02*
X239252D01*
Y-238630D01*
X241524D01*
Y-234587D01*
D02*
G37*
G36*
X244795D02*
X242524D01*
Y-238630D01*
X244795D01*
Y-234587D01*
D02*
G37*
G36*
X389000Y-244938D02*
X386128Y-246128D01*
X384938Y-249000D01*
X386128Y-251872D01*
X389000Y-253062D01*
X391872Y-251872D01*
X393062Y-249000D01*
X391872Y-246128D01*
X389000Y-244938D01*
D02*
G37*
G36*
X99523Y-238300D02*
X95900D01*
Y-241922D01*
X98462Y-240862D01*
X99523Y-238300D01*
D02*
G37*
G36*
X190130Y-232500D02*
X184709D01*
Y-235756D01*
X190130D01*
Y-232500D01*
D02*
G37*
G36*
X196551Y-228244D02*
X191130D01*
Y-231500D01*
X196551D01*
Y-228244D01*
D02*
G37*
G36*
X295819Y-224244D02*
X295806D01*
X295464Y-224244D01*
X292957D01*
Y-228000D01*
Y-231756D01*
X295464D01*
X295806Y-231756D01*
X295819D01*
X296736Y-231556D01*
X296819D01*
X302706D01*
Y-229948D01*
X308400D01*
X308444Y-229930D01*
X309000Y-230160D01*
X310952Y-229352D01*
X311760Y-227400D01*
X310952Y-225448D01*
X309000Y-224640D01*
X307048Y-225448D01*
X306798Y-226052D01*
X302706D01*
Y-224444D01*
X296819D01*
X296736D01*
X295819Y-224244D01*
D02*
G37*
G36*
X291957Y-228500D02*
X289094D01*
Y-231756D01*
X291957D01*
Y-228500D01*
D02*
G37*
G36*
X190130Y-228244D02*
X184709D01*
Y-231500D01*
X190130D01*
Y-228244D01*
D02*
G37*
G36*
X406329Y-54921D02*
X396855D01*
Y-59671D01*
X406329D01*
Y-54921D01*
D02*
G37*
G36*
X315900Y-57659D02*
Y-58900D01*
X317141D01*
X316778Y-58022D01*
X315900Y-57659D01*
D02*
G37*
G36*
X406329Y-62795D02*
X396855D01*
Y-67545D01*
X406329D01*
Y-62795D01*
D02*
G37*
G36*
X317141Y-59900D02*
X315900D01*
Y-61141D01*
X316778Y-60778D01*
X317141Y-59900D01*
D02*
G37*
G36*
X406329Y-47047D02*
X396855D01*
Y-51797D01*
X406329D01*
Y-47047D01*
D02*
G37*
G36*
X315232Y-24232D02*
X310500D01*
Y-30343D01*
X315232D01*
Y-24232D01*
D02*
G37*
G36*
X324500Y-26094D02*
X321244D01*
Y-28957D01*
X324500D01*
Y-26094D01*
D02*
G37*
G36*
X343337Y-31299D02*
X333863D01*
Y-36049D01*
X343337D01*
Y-31299D01*
D02*
G37*
G36*
X309500Y-24232D02*
X304768D01*
Y-30343D01*
X309500D01*
Y-24232D01*
D02*
G37*
G36*
X220626Y-69610D02*
X215500D01*
Y-80248D01*
X220626D01*
Y-69610D01*
D02*
G37*
G36*
X401092Y-81418D02*
X396655D01*
Y-83493D01*
X401092D01*
Y-81418D01*
D02*
G37*
G36*
X406529D02*
X402092D01*
Y-83493D01*
X406529D01*
Y-81418D01*
D02*
G37*
G36*
X109300Y-82300D02*
X107301D01*
X107887Y-83713D01*
X109300Y-84299D01*
Y-82300D01*
D02*
G37*
G36*
X112299D02*
X110300D01*
Y-84299D01*
X111713Y-83713D01*
X112299Y-82300D01*
D02*
G37*
G36*
X109300Y-79301D02*
X107887Y-79887D01*
X107301Y-81300D01*
X109300D01*
Y-79301D01*
D02*
G37*
G36*
X406529Y-78343D02*
X402092D01*
Y-80418D01*
X406529D01*
Y-78343D01*
D02*
G37*
G36*
X214500Y-69610D02*
X209374D01*
Y-80248D01*
X214500D01*
Y-69610D01*
D02*
G37*
G36*
X110300Y-79301D02*
Y-81300D01*
X112299D01*
X111713Y-79887D01*
X110300Y-79301D01*
D02*
G37*
G36*
X401092Y-78343D02*
X396655D01*
Y-80418D01*
X401092D01*
Y-78343D01*
D02*
G37*
G36*
X79500Y-13094D02*
X76244D01*
Y-15957D01*
X79500D01*
Y-13094D01*
D02*
G37*
G36*
X83756D02*
X80500D01*
Y-15957D01*
X83756D01*
Y-13094D01*
D02*
G37*
G36*
X137650Y-15654D02*
X133803D01*
Y-19500D01*
X137650D01*
Y-15654D01*
D02*
G37*
G36*
X142496D02*
X138650D01*
Y-19500D01*
X142496D01*
Y-15654D01*
D02*
G37*
G36*
X231700Y-12494D02*
X228444D01*
Y-15357D01*
X231700D01*
Y-12494D01*
D02*
G37*
G36*
X198083Y-11445D02*
X192858D01*
Y-13913D01*
X198083D01*
Y-11445D01*
D02*
G37*
G36*
X204307D02*
X199083D01*
Y-13913D01*
X204307D01*
Y-11445D01*
D02*
G37*
G36*
X235956Y-12494D02*
X232700D01*
Y-15357D01*
X235956D01*
Y-12494D01*
D02*
G37*
G36*
X287105Y-11900D02*
X284243D01*
Y-15156D01*
X287105D01*
Y-11900D01*
D02*
G37*
G36*
X253432Y-14832D02*
X248700D01*
Y-20943D01*
X253432D01*
Y-14832D01*
D02*
G37*
G36*
X297556Y-21294D02*
X294300D01*
Y-24157D01*
X297556D01*
Y-21294D01*
D02*
G37*
G36*
X309500Y-17122D02*
X304768D01*
Y-23232D01*
X309500D01*
Y-17122D01*
D02*
G37*
G36*
X137650Y-20500D02*
X133803D01*
Y-24346D01*
X137650D01*
Y-20500D01*
D02*
G37*
G36*
X142496D02*
X138650D01*
Y-24346D01*
X142496D01*
Y-20500D01*
D02*
G37*
G36*
X315232Y-17122D02*
X310500D01*
Y-23232D01*
X315232D01*
Y-17122D01*
D02*
G37*
G36*
X204107Y-17232D02*
X193058D01*
Y-22769D01*
X204107D01*
Y-17232D01*
D02*
G37*
G36*
X247700Y-14832D02*
X242968D01*
Y-20943D01*
X247700D01*
Y-14832D01*
D02*
G37*
G36*
X167700Y-17113D02*
X163608Y-18808D01*
X161913Y-22900D01*
X167700D01*
Y-17113D01*
D02*
G37*
G36*
X168700D02*
Y-22900D01*
X174487D01*
X172792Y-18808D01*
X168700Y-17113D01*
D02*
G37*
G36*
X240157Y-82044D02*
X237295D01*
Y-85300D01*
X240157D01*
Y-82044D01*
D02*
G37*
G36*
X59000Y-120444D02*
X57680Y-120991D01*
X56926Y-122811D01*
Y-125854D01*
X59000D01*
Y-120444D01*
D02*
G37*
G36*
X412937Y-117500D02*
X403063D01*
Y-118504D01*
X403063Y-119496D01*
Y-119500D01*
Y-119504D01*
X403063Y-120496D01*
Y-121500D01*
X412937D01*
Y-120496D01*
X412937Y-119504D01*
Y-119500D01*
Y-119496D01*
X412937Y-118504D01*
Y-117500D01*
D02*
G37*
G36*
X314169Y-127987D02*
X312700D01*
Y-130700D01*
X317175D01*
X316441Y-128928D01*
X314169Y-127987D01*
D02*
G37*
G36*
X412937Y-122500D02*
X403063D01*
Y-123504D01*
X403063Y-124496D01*
Y-124500D01*
Y-124504D01*
X403063Y-125496D01*
Y-126500D01*
X412937D01*
Y-125496D01*
X412937Y-124504D01*
Y-124500D01*
Y-124496D01*
X412937Y-123504D01*
Y-122500D01*
D02*
G37*
G36*
X206900Y-118300D02*
X205659D01*
X206022Y-119178D01*
X206900Y-119541D01*
Y-118300D01*
D02*
G37*
G36*
X412937Y-112500D02*
X403063D01*
Y-113504D01*
X403063Y-114496D01*
Y-114500D01*
Y-114504D01*
X403063Y-115496D01*
Y-116500D01*
X412937D01*
Y-115496D01*
X412937Y-114504D01*
Y-114500D01*
Y-114496D01*
X412937Y-113504D01*
Y-112500D01*
D02*
G37*
G36*
X355500Y-109500D02*
X351929D01*
X352975Y-112025D01*
X355500Y-113071D01*
Y-109500D01*
D02*
G37*
G36*
X209141Y-118300D02*
X207900D01*
Y-119541D01*
X208778Y-119178D01*
X209141Y-118300D01*
D02*
G37*
G36*
X323905Y-113500D02*
X321043D01*
Y-116756D01*
X323905D01*
Y-113500D01*
D02*
G37*
G36*
X255100Y-147301D02*
Y-149300D01*
X257099D01*
X256513Y-147887D01*
X255100Y-147301D01*
D02*
G37*
G36*
X147400Y-133512D02*
X146175Y-134019D01*
X145869Y-134759D01*
X135585Y-145043D01*
X134511Y-144703D01*
X134347Y-144307D01*
X133588Y-143992D01*
X131412D01*
X130653Y-144307D01*
X130541Y-144577D01*
X129459D01*
X129347Y-144307D01*
X128588Y-143992D01*
X126412D01*
X125653Y-144307D01*
X125541Y-144577D01*
X124459D01*
X124347Y-144307D01*
X123588Y-143992D01*
X121412D01*
X120653Y-144307D01*
X120541Y-144577D01*
X119459D01*
X119347Y-144307D01*
X118588Y-143992D01*
X116412D01*
X115668Y-144300D01*
X112830Y-141462D01*
X112556Y-141348D01*
Y-139295D01*
X105444D01*
Y-145381D01*
X105444Y-145619D01*
Y-146000D01*
Y-146381D01*
X105444Y-146619D01*
Y-152706D01*
X105444D01*
X105444Y-153295D01*
X105444D01*
Y-155050D01*
X92743D01*
X92743Y-155050D01*
X91748Y-155462D01*
X90959Y-156251D01*
X90175Y-156575D01*
X89668Y-157800D01*
X90175Y-159025D01*
X91400Y-159532D01*
X92625Y-159025D01*
X92949Y-158241D01*
X93326Y-157864D01*
X104737D01*
X105444Y-158571D01*
Y-159181D01*
Y-159264D01*
X105244Y-160181D01*
Y-160194D01*
X105244Y-160536D01*
Y-163043D01*
X109000D01*
Y-163543D01*
X109500D01*
Y-166905D01*
X112244D01*
X112756Y-166905D01*
X113000D01*
X113244D01*
X113756Y-166905D01*
X116500D01*
Y-163543D01*
X117500D01*
Y-166905D01*
X120527D01*
X120752Y-166905D01*
X120756D01*
X121673Y-166706D01*
X121756D01*
X128327D01*
X129244Y-166905D01*
X129244Y-166905D01*
X129244D01*
X129244Y-166905D01*
X132500D01*
Y-163543D01*
X133500D01*
Y-166905D01*
X136653D01*
X136756Y-166905D01*
X137654Y-167153D01*
Y-167197D01*
X141500D01*
Y-162850D01*
Y-158504D01*
X137654D01*
Y-158866D01*
X136730Y-159260D01*
X136556Y-159106D01*
Y-156584D01*
X139843Y-153296D01*
X146147D01*
Y-150557D01*
X147854D01*
Y-153296D01*
X156147D01*
Y-147044D01*
X156733Y-146457D01*
X157386Y-146186D01*
X157878Y-145000D01*
X157386Y-143814D01*
X156200Y-143322D01*
X155014Y-143814D01*
X154743Y-144467D01*
X154207Y-145003D01*
X147854D01*
Y-147742D01*
X146147D01*
Y-145003D01*
X140912D01*
X140529Y-144079D01*
X147796Y-136812D01*
X148625Y-136469D01*
X149132Y-135244D01*
X148625Y-134019D01*
X147400Y-133512D01*
D02*
G37*
G36*
X257099Y-150300D02*
X255100D01*
Y-152299D01*
X256513Y-151713D01*
X257099Y-150300D01*
D02*
G37*
G36*
X254100Y-147301D02*
X252687Y-147887D01*
X252101Y-149300D01*
X254100D01*
Y-147301D01*
D02*
G37*
G36*
X407500Y-132500D02*
X403063D01*
Y-134496D01*
X407500D01*
Y-132500D01*
D02*
G37*
G36*
X412937Y-127500D02*
X403063D01*
Y-128504D01*
X403063Y-129496D01*
Y-129500D01*
Y-129504D01*
X403063Y-130496D01*
Y-131500D01*
X412937D01*
Y-130496D01*
X412937Y-129504D01*
Y-129500D01*
Y-129496D01*
X412937Y-128504D01*
Y-127500D01*
D02*
G37*
G36*
X311700Y-127987D02*
X310231D01*
X307960Y-128928D01*
X307225Y-130700D01*
X311700D01*
Y-127987D01*
D02*
G37*
G36*
X412937Y-132500D02*
X408500D01*
Y-134496D01*
X412937D01*
Y-132500D01*
D02*
G37*
G36*
X59000Y-126854D02*
X56926D01*
Y-129898D01*
X57680Y-131718D01*
X59000Y-132264D01*
Y-126854D01*
D02*
G37*
G36*
X360071Y-109500D02*
X356500D01*
Y-113071D01*
X359025Y-112025D01*
X360071Y-109500D01*
D02*
G37*
G36*
X412937Y-102500D02*
X403063D01*
Y-103504D01*
X403063Y-104496D01*
Y-104500D01*
Y-104504D01*
X403063Y-105496D01*
Y-106500D01*
X412937D01*
Y-105496D01*
X412937Y-104504D01*
Y-104500D01*
Y-104496D01*
X412937Y-103504D01*
Y-102500D01*
D02*
G37*
G36*
Y-97500D02*
X403063D01*
Y-98504D01*
X403063Y-99496D01*
Y-99500D01*
Y-99504D01*
X403063Y-100496D01*
Y-101500D01*
X412937D01*
Y-100496D01*
X412937Y-99504D01*
Y-99500D01*
Y-99496D01*
X412937Y-98504D01*
Y-97500D01*
D02*
G37*
G36*
X87756Y-105095D02*
X84500D01*
Y-107957D01*
X87756D01*
Y-105095D01*
D02*
G37*
G36*
X125000Y-104922D02*
X123814Y-105414D01*
X123322Y-106600D01*
X122528Y-107294D01*
X121756D01*
X121673D01*
X120756Y-107095D01*
X120752D01*
X120527Y-107095D01*
X117500D01*
Y-110457D01*
X116500D01*
Y-107095D01*
X113756D01*
X113244Y-107095D01*
X113000D01*
X112756D01*
X112244Y-107095D01*
X109500D01*
Y-110457D01*
X109000D01*
Y-110957D01*
X105244D01*
Y-113464D01*
X105244Y-113806D01*
Y-113819D01*
X105444Y-114736D01*
Y-114819D01*
Y-120705D01*
X105444D01*
X105444Y-121294D01*
X105444D01*
Y-122257D01*
X104743Y-122725D01*
X103519Y-123232D01*
X103012Y-124457D01*
X103519Y-125681D01*
X104743Y-126189D01*
X105444Y-126657D01*
Y-127619D01*
X105444D01*
Y-128381D01*
X105444D01*
Y-134705D01*
X112556D01*
Y-132950D01*
X120857D01*
X121852Y-132538D01*
X123495Y-130895D01*
X123714Y-130367D01*
X124347Y-129693D01*
Y-129693D01*
X125271Y-129423D01*
X125541D01*
X125653Y-129693D01*
X126412Y-130008D01*
X128588D01*
X129347Y-129693D01*
X129459Y-129423D01*
X130541D01*
X130653Y-129693D01*
X131412Y-130008D01*
X133588D01*
X134347Y-129693D01*
X134661Y-128934D01*
Y-122822D01*
X134347Y-122063D01*
X133588Y-121748D01*
X131412D01*
X130653Y-122063D01*
X130541Y-122333D01*
X129459D01*
X129347Y-122063D01*
X128725Y-121805D01*
X128641Y-121565D01*
X129127Y-120705D01*
X129444Y-120705D01*
X129489Y-120705D01*
X129556Y-120705D01*
D01*
X129556D01*
Y-120705D01*
X135865D01*
X137854Y-122694D01*
Y-128997D01*
X146147D01*
Y-126258D01*
X147854D01*
Y-128997D01*
X156147D01*
Y-120704D01*
X147854D01*
Y-123443D01*
X146147D01*
Y-120704D01*
X139843D01*
X136556Y-117416D01*
Y-114894D01*
X136730Y-114740D01*
X137654Y-115134D01*
Y-115496D01*
X141500D01*
Y-111150D01*
Y-106803D01*
X137654D01*
Y-106847D01*
X136756Y-107095D01*
X136653Y-107095D01*
X133500D01*
Y-110457D01*
X132500D01*
Y-107095D01*
X129244D01*
Y-107095D01*
X129244D01*
X129244Y-107095D01*
X128327Y-107294D01*
D01*
X127472D01*
X126678Y-106600D01*
X126186Y-105414D01*
X125000Y-104922D01*
D02*
G37*
G36*
X407500Y-94504D02*
X403063D01*
Y-96500D01*
X407500D01*
Y-94504D01*
D02*
G37*
G36*
X119500Y-80500D02*
X115004D01*
Y-85488D01*
X119500D01*
Y-80500D01*
D02*
G37*
G36*
X124996D02*
X120500D01*
Y-85488D01*
X124996D01*
Y-80500D01*
D02*
G37*
G36*
X412937Y-94504D02*
X408500D01*
Y-96500D01*
X412937D01*
Y-94504D01*
D02*
G37*
G36*
X240157Y-86300D02*
X237295D01*
Y-89556D01*
X240157D01*
Y-86300D01*
D02*
G37*
G36*
X83500Y-105095D02*
X80244D01*
Y-107957D01*
X83500D01*
Y-105095D01*
D02*
G37*
G36*
X412937Y-107500D02*
X403063D01*
Y-108504D01*
X403063Y-109496D01*
Y-109500D01*
Y-109504D01*
X403063Y-110496D01*
Y-111500D01*
X412937D01*
Y-110496D01*
X412937Y-109504D01*
Y-109500D01*
Y-109496D01*
X412937Y-108504D01*
Y-107500D01*
D02*
G37*
G36*
X146346Y-106803D02*
X142500D01*
Y-110650D01*
X146346D01*
Y-106803D01*
D02*
G37*
G36*
X367500Y-109500D02*
X363929D01*
X364975Y-112025D01*
X367500Y-113071D01*
Y-109500D01*
D02*
G37*
G36*
X321043Y-109244D02*
Y-112500D01*
X323905D01*
Y-109244D01*
X321043D01*
D02*
G37*
G36*
X108500Y-107095D02*
X105244D01*
Y-109957D01*
X108500D01*
Y-107095D01*
D02*
G37*
G36*
X367500Y-104929D02*
X364975Y-105975D01*
X363929Y-108500D01*
X367500D01*
Y-104929D01*
D02*
G37*
G36*
X278300Y-107259D02*
Y-108500D01*
X279541D01*
X279178Y-107622D01*
X278300Y-107259D01*
D02*
G37*
G36*
X277300D02*
X276422Y-107622D01*
X276059Y-108500D01*
X277300D01*
Y-107259D01*
D02*
G37*
%LPD*%
G36*
X115993Y-121705D02*
X115500Y-121910D01*
X115122Y-122822D01*
Y-123545D01*
X114378Y-124042D01*
Y-125878D01*
Y-127779D01*
X115056Y-128197D01*
X115122Y-128690D01*
Y-128934D01*
X115171Y-129052D01*
X115186Y-129166D01*
X114538Y-130136D01*
X112556D01*
Y-128381D01*
X112556D01*
Y-128361D01*
X113378Y-127812D01*
Y-125878D01*
Y-124127D01*
X112556Y-123577D01*
Y-121294D01*
X112556D01*
X112556Y-120705D01*
X113444D01*
Y-120705D01*
X115794D01*
X115993Y-121705D01*
D02*
G37*
D10*
X258400Y-71039D02*
D03*
Y-86000D02*
D03*
D11*
X74500Y-126354D02*
D03*
X69500D02*
D03*
X64500D02*
D03*
X59500D02*
D03*
X74500Y-145646D02*
D03*
X69500D02*
D03*
X64500D02*
D03*
X59500D02*
D03*
D12*
X96614Y-63425D02*
D03*
X103307D02*
D03*
X110000D02*
D03*
X116693D02*
D03*
X123386D02*
D03*
D13*
X110000Y-26614D02*
D03*
D14*
X226000Y-157457D02*
D03*
Y-164543D02*
D03*
X381000Y-163543D02*
D03*
Y-156457D02*
D03*
X265000Y-31743D02*
D03*
Y-24657D02*
D03*
X326600Y-136657D02*
D03*
Y-143743D02*
D03*
X58000Y-223457D02*
D03*
Y-230543D02*
D03*
X80000Y-36457D02*
D03*
Y-43543D02*
D03*
X80000Y-23543D02*
D03*
Y-16457D02*
D03*
X390000Y-163543D02*
D03*
Y-156457D02*
D03*
X258400Y-63543D02*
D03*
Y-56457D02*
D03*
X281000Y-276543D02*
D03*
Y-269457D02*
D03*
X232200Y-22943D02*
D03*
Y-15857D02*
D03*
X293800Y-24657D02*
D03*
Y-31743D02*
D03*
X325000Y-36543D02*
D03*
Y-29457D02*
D03*
X75000Y-108457D02*
D03*
Y-115543D02*
D03*
X84000Y-108457D02*
D03*
Y-115543D02*
D03*
Y-123457D02*
D03*
Y-130543D02*
D03*
X84000Y-148543D02*
D03*
Y-141457D02*
D03*
Y-163543D02*
D03*
Y-156457D02*
D03*
X75000Y-163543D02*
D03*
Y-156457D02*
D03*
X100000Y-198543D02*
D03*
Y-191457D02*
D03*
X108000Y-198543D02*
D03*
Y-191457D02*
D03*
X80000Y-230543D02*
D03*
Y-223457D02*
D03*
X88000Y-230543D02*
D03*
Y-223457D02*
D03*
X96000Y-223457D02*
D03*
Y-230543D02*
D03*
X127000Y-249543D02*
D03*
Y-242457D02*
D03*
X118000Y-262457D02*
D03*
Y-269543D02*
D03*
X117800Y-229343D02*
D03*
Y-222257D02*
D03*
X126600Y-229343D02*
D03*
Y-222257D02*
D03*
X109000Y-110457D02*
D03*
Y-117543D02*
D03*
X117000Y-110457D02*
D03*
Y-117543D02*
D03*
X125000Y-110457D02*
D03*
Y-117543D02*
D03*
X133000Y-110457D02*
D03*
Y-117543D02*
D03*
X109000Y-131543D02*
D03*
Y-124457D02*
D03*
X109000Y-142457D02*
D03*
Y-149543D02*
D03*
X109000Y-163543D02*
D03*
Y-156457D02*
D03*
X117000Y-163543D02*
D03*
Y-156457D02*
D03*
X125000Y-163543D02*
D03*
Y-156457D02*
D03*
X133000Y-163543D02*
D03*
Y-156457D02*
D03*
X169000Y-110457D02*
D03*
Y-117543D02*
D03*
X177000Y-110457D02*
D03*
Y-117543D02*
D03*
X185000Y-110457D02*
D03*
Y-117543D02*
D03*
X193000Y-110457D02*
D03*
Y-117543D02*
D03*
X169000Y-132543D02*
D03*
Y-125457D02*
D03*
X169000Y-141457D02*
D03*
Y-148543D02*
D03*
X169000Y-163543D02*
D03*
Y-156457D02*
D03*
X177000Y-163543D02*
D03*
Y-156457D02*
D03*
X185000Y-163543D02*
D03*
Y-156457D02*
D03*
X193000Y-163543D02*
D03*
Y-156457D02*
D03*
X226000Y-125457D02*
D03*
Y-132543D02*
D03*
X234000Y-125457D02*
D03*
Y-132543D02*
D03*
X242000Y-125457D02*
D03*
Y-132543D02*
D03*
X250000Y-125457D02*
D03*
Y-132543D02*
D03*
X226000Y-146543D02*
D03*
Y-139457D02*
D03*
Y-178543D02*
D03*
Y-171457D02*
D03*
X234000Y-178543D02*
D03*
Y-171457D02*
D03*
X242000Y-178543D02*
D03*
Y-171457D02*
D03*
X250000Y-178543D02*
D03*
Y-171457D02*
D03*
X279000Y-257543D02*
D03*
Y-250457D02*
D03*
X270000Y-257543D02*
D03*
Y-250457D02*
D03*
X288000Y-257543D02*
D03*
Y-250457D02*
D03*
D15*
X320543Y-113000D02*
D03*
X313457D02*
D03*
X243057Y-112200D02*
D03*
X250143D02*
D03*
X118457Y-207000D02*
D03*
X125543D02*
D03*
X283743Y-11400D02*
D03*
X276657D02*
D03*
X275857Y-41800D02*
D03*
X282943D02*
D03*
X247743Y-85800D02*
D03*
X240657D02*
D03*
X374943Y-224200D02*
D03*
X367857D02*
D03*
X374943Y-232200D02*
D03*
X367857D02*
D03*
X374943Y-240200D02*
D03*
X367857D02*
D03*
X353457Y-248200D02*
D03*
X360543D02*
D03*
X374943D02*
D03*
X367857D02*
D03*
X328543Y-168000D02*
D03*
X321457D02*
D03*
X299543Y-228000D02*
D03*
X292457D02*
D03*
X292457Y-219000D02*
D03*
X299543D02*
D03*
X276457D02*
D03*
X283543D02*
D03*
X276457Y-210000D02*
D03*
X283543D02*
D03*
X283543Y-201000D02*
D03*
X276457D02*
D03*
X283543Y-192000D02*
D03*
X276457D02*
D03*
X58457Y-107000D02*
D03*
X65543D02*
D03*
X58457Y-115000D02*
D03*
X65543D02*
D03*
X65543Y-157000D02*
D03*
X58457D02*
D03*
X58457Y-165000D02*
D03*
X65543D02*
D03*
D16*
X251000Y-262039D02*
D03*
X144000Y-221039D02*
D03*
X66600Y-269439D02*
D03*
X98000Y-266039D02*
D03*
D17*
X242024Y-234087D02*
D03*
X259976D02*
D03*
X135024Y-193087D02*
D03*
X152976D02*
D03*
X57624Y-241487D02*
D03*
X75576D02*
D03*
X89024Y-238087D02*
D03*
X106976D02*
D03*
D18*
X116571Y-191260D02*
D03*
Y-198740D02*
D03*
X125429Y-195000D02*
D03*
X321571Y-176260D02*
D03*
Y-183740D02*
D03*
X330429Y-180000D02*
D03*
X278429Y-240740D02*
D03*
Y-233260D02*
D03*
X269571Y-237000D02*
D03*
D19*
X259000Y-164150D02*
D03*
Y-177850D02*
D03*
X269000D02*
D03*
Y-164150D02*
D03*
X142000Y-149150D02*
D03*
Y-162850D02*
D03*
X152000D02*
D03*
Y-149150D02*
D03*
X202000D02*
D03*
Y-162850D02*
D03*
X212000D02*
D03*
Y-149150D02*
D03*
X272000Y-283850D02*
D03*
Y-270150D02*
D03*
X118000Y-251850D02*
D03*
Y-238150D02*
D03*
X127000Y-261150D02*
D03*
Y-274850D02*
D03*
X142000Y-124850D02*
D03*
Y-111150D02*
D03*
X152000D02*
D03*
Y-124850D02*
D03*
X202000D02*
D03*
Y-111150D02*
D03*
X212000D02*
D03*
Y-124850D02*
D03*
X259000Y-139850D02*
D03*
Y-126150D02*
D03*
X269000D02*
D03*
Y-139850D02*
D03*
D20*
X215000Y-49252D02*
D03*
Y-80748D02*
D03*
D21*
X120000Y-80000D02*
D03*
X100000D02*
D03*
D22*
X207000Y-206000D02*
D03*
Y-196000D02*
D03*
X167630D02*
D03*
Y-206000D02*
D03*
X230000Y-242000D02*
D03*
Y-232000D02*
D03*
X190630D02*
D03*
Y-242000D02*
D03*
Y-267000D02*
D03*
Y-257000D02*
D03*
X230000D02*
D03*
Y-267000D02*
D03*
X223630Y-206000D02*
D03*
Y-196000D02*
D03*
X263000D02*
D03*
Y-206000D02*
D03*
D23*
X151850Y-20000D02*
D03*
X138150D02*
D03*
D24*
X176496Y-60000D02*
D03*
X145000D02*
D03*
D25*
X198583Y-10945D02*
D03*
Y-20000D02*
D03*
Y-29055D02*
D03*
D26*
X221417Y-20000D02*
D03*
D27*
X248200Y-14332D02*
D03*
Y-30868D02*
D03*
X310000Y-23732D02*
D03*
Y-40268D02*
D03*
D28*
X286005Y-30843D02*
D03*
Y-22968D02*
D03*
Y-24937D02*
D03*
Y-26906D02*
D03*
Y-28874D02*
D03*
X273406Y-22968D02*
D03*
Y-24937D02*
D03*
Y-26906D02*
D03*
Y-30843D02*
D03*
Y-28874D02*
D03*
D29*
X281674Y-20213D02*
D03*
X277737D02*
D03*
X279706D02*
D03*
X281674Y-33205D02*
D03*
X279706D02*
D03*
X277737D02*
D03*
D30*
X338600Y-25800D02*
D03*
Y-33674D02*
D03*
Y-41548D02*
D03*
Y-49422D02*
D03*
Y-57296D02*
D03*
Y-65170D02*
D03*
Y-73044D02*
D03*
Y-80918D02*
D03*
X401592D02*
D03*
Y-73044D02*
D03*
Y-65170D02*
D03*
Y-57296D02*
D03*
Y-49422D02*
D03*
Y-41548D02*
D03*
Y-33674D02*
D03*
Y-25800D02*
D03*
D31*
X408000Y-97000D02*
D03*
Y-102000D02*
D03*
Y-107000D02*
D03*
Y-112000D02*
D03*
Y-117000D02*
D03*
Y-122000D02*
D03*
Y-127000D02*
D03*
Y-132000D02*
D03*
X383787D02*
D03*
Y-127000D02*
D03*
Y-122000D02*
D03*
Y-117000D02*
D03*
Y-112000D02*
D03*
Y-107000D02*
D03*
Y-102000D02*
D03*
Y-97000D02*
D03*
D32*
X275248Y-68236D02*
D03*
Y-70205D02*
D03*
Y-72173D02*
D03*
Y-74142D02*
D03*
Y-76110D02*
D03*
Y-78079D02*
D03*
Y-80047D02*
D03*
Y-82016D02*
D03*
Y-83984D02*
D03*
Y-85953D02*
D03*
Y-87921D02*
D03*
Y-89890D02*
D03*
Y-91858D02*
D03*
Y-93827D02*
D03*
Y-95795D02*
D03*
Y-97764D02*
D03*
X318752D02*
D03*
Y-95795D02*
D03*
Y-93827D02*
D03*
Y-91858D02*
D03*
Y-89890D02*
D03*
Y-87921D02*
D03*
Y-85953D02*
D03*
Y-83984D02*
D03*
Y-82016D02*
D03*
Y-80047D02*
D03*
Y-78079D02*
D03*
Y-76110D02*
D03*
Y-74142D02*
D03*
Y-72173D02*
D03*
Y-70205D02*
D03*
Y-68236D02*
D03*
D33*
X282236Y-104752D02*
D03*
X284205D02*
D03*
X286173D02*
D03*
X288142D02*
D03*
X290110D02*
D03*
X292079D02*
D03*
X294047D02*
D03*
X296016D02*
D03*
X297984D02*
D03*
X299953D02*
D03*
X301921D02*
D03*
X303890D02*
D03*
X305858D02*
D03*
X307827D02*
D03*
X309795D02*
D03*
X311764D02*
D03*
Y-61248D02*
D03*
X309795D02*
D03*
X307827D02*
D03*
X305858D02*
D03*
X303890D02*
D03*
X301921D02*
D03*
X299953D02*
D03*
X297984D02*
D03*
X296016D02*
D03*
X294047D02*
D03*
X292079D02*
D03*
X290110D02*
D03*
X288142D02*
D03*
X286173D02*
D03*
X284205D02*
D03*
X282236D02*
D03*
D34*
X286779Y-160500D02*
D03*
Y-165500D02*
D03*
Y-170500D02*
D03*
Y-175500D02*
D03*
X309221Y-160500D02*
D03*
Y-165500D02*
D03*
Y-170500D02*
D03*
Y-175500D02*
D03*
D35*
X296354Y-192500D02*
D03*
Y-197500D02*
D03*
Y-202500D02*
D03*
Y-207500D02*
D03*
X315646Y-192500D02*
D03*
Y-197500D02*
D03*
Y-202500D02*
D03*
Y-207500D02*
D03*
D36*
X321000Y-242760D02*
D03*
Y-225240D02*
D03*
D37*
X72740Y-221571D02*
D03*
X65260D02*
D03*
X69000Y-230429D02*
D03*
X110740Y-221571D02*
D03*
X103260D02*
D03*
X107000Y-230429D02*
D03*
D38*
X173748Y-254000D02*
D03*
X142252D02*
D03*
D39*
X117500Y-148122D02*
D03*
X122500D02*
D03*
X127500D02*
D03*
X132500D02*
D03*
X117500Y-125878D02*
D03*
X122500D02*
D03*
X127500D02*
D03*
X132500D02*
D03*
X177500Y-148122D02*
D03*
X182500D02*
D03*
X187500D02*
D03*
X192500D02*
D03*
X177500Y-125878D02*
D03*
X182500D02*
D03*
X187500D02*
D03*
X192500D02*
D03*
X234500Y-163122D02*
D03*
X239500D02*
D03*
X244500D02*
D03*
X249500D02*
D03*
X234500Y-140878D02*
D03*
X239500D02*
D03*
X244500D02*
D03*
X249500D02*
D03*
D40*
X258400Y-71039D02*
Y-63543D01*
X275248Y-80047D02*
X280047D01*
X283400Y-153000D02*
X377543D01*
X381000Y-156457D01*
X263471Y-76110D02*
X275248D01*
X258400Y-71039D02*
X263471Y-76110D01*
X258400Y-86000D02*
X259200D01*
X267121Y-78079D01*
X275248D01*
X85657Y-115543D02*
X89800Y-111400D01*
X84000Y-115543D02*
X85657D01*
X93800Y-95400D02*
Y-94800D01*
X87857Y-148543D02*
X92200Y-144200D01*
X84000Y-148543D02*
X87857D01*
X96200Y-97000D02*
X96600Y-96600D01*
X88690Y-230543D02*
X92233Y-227000D01*
X88000Y-230543D02*
X88690D01*
X128200Y-99400D02*
X129000Y-98600D01*
X125000Y-106600D02*
X125000Y-106600D01*
Y-110457D02*
Y-106600D01*
X268600Y-91291D02*
Y-88600D01*
X271247Y-85953D01*
X275248D01*
X270400Y-92037D02*
Y-89346D01*
X271824Y-87921D01*
X275248D01*
X266800Y-87200D02*
X270016Y-83984D01*
X275248D01*
X268784Y-82016D02*
X275248D01*
X271286Y-93827D02*
X275248D01*
X159400Y-101000D02*
X160000Y-100400D01*
X152000Y-149150D02*
X152050D01*
X275248Y-91858D02*
X278950D01*
X318752Y-68048D02*
X321000Y-65800D01*
X318752Y-68236D02*
Y-68048D01*
X280543Y-58257D02*
X282236Y-59950D01*
Y-61248D02*
Y-59950D01*
X219400Y-107400D02*
X220000Y-106800D01*
X213150Y-124850D02*
X217800Y-120200D01*
X212000Y-124850D02*
X213150D01*
X202000D02*
X212000D01*
X284400Y-192000D02*
X288142Y-188258D01*
X283543Y-192000D02*
X284400D01*
X288142Y-108942D02*
Y-104752D01*
X129000Y-216200D02*
X130600Y-214600D01*
X125056Y-216200D02*
X129000D01*
X122544Y-218712D02*
X125056Y-216200D01*
X122544Y-229056D02*
Y-218712D01*
X122257Y-229343D02*
X122544Y-229056D01*
X117800Y-229343D02*
X122257D01*
X126600D01*
X272123Y-95795D02*
X275248D01*
X220000Y-106800D02*
X268000D01*
X270048Y-104752D01*
X282236D01*
X272700Y-97764D02*
X275248D01*
X266464Y-104000D02*
X272700Y-97764D01*
X162600Y-105000D02*
X163600Y-104000D01*
X113350Y-187850D02*
X157949D01*
X113000Y-188200D02*
X113350Y-187850D01*
X111457Y-198543D02*
X112200Y-197800D01*
X100000Y-198543D02*
X108000D01*
X111457D01*
X290110Y-104752D02*
X290192Y-104833D01*
Y-109791D02*
Y-104833D01*
X288583Y-111400D02*
X290192Y-109791D01*
X278600Y-111400D02*
X288583D01*
X277000Y-120200D02*
X277800Y-119400D01*
X221000Y-120200D02*
X277000D01*
X212050Y-149150D02*
X217000Y-144200D01*
X212000Y-149150D02*
X212050D01*
X269000Y-139850D02*
X288307D01*
X294047Y-104752D02*
X294129Y-104833D01*
X291992Y-104839D02*
X292079Y-104752D01*
X291400Y-112200D02*
X291992Y-111608D01*
Y-104839D01*
X288307Y-139850D02*
X291400Y-136758D01*
Y-136200D01*
X293800Y-113800D02*
X294129Y-113471D01*
Y-104833D01*
X296016Y-115584D02*
Y-104752D01*
X297984D02*
X298066Y-104833D01*
Y-116466D02*
Y-104833D01*
Y-116466D02*
X298600Y-117000D01*
X298084Y-165500D02*
X298584Y-165000D01*
X286779Y-165500D02*
X298084D01*
X299953Y-114353D02*
Y-104752D01*
Y-114353D02*
X300200Y-114600D01*
X298300Y-160500D02*
X301000Y-157800D01*
X286779Y-160500D02*
X298300D01*
X301921Y-113121D02*
Y-104752D01*
Y-113121D02*
X302600Y-113800D01*
X310600Y-136200D02*
X324543D01*
X305800Y-113800D02*
X312657D01*
X313457Y-113000D01*
X303890Y-111890D02*
X305800Y-113800D01*
X303890Y-111890D02*
Y-104752D01*
X303400Y-135400D02*
X304200Y-136200D01*
X310600D01*
X303657Y-257543D02*
X305800Y-255400D01*
X288000Y-257543D02*
X303657D01*
X305858Y-104752D02*
Y-100258D01*
X395326Y-33874D02*
X401992D01*
X393946Y-37800D02*
X405810D01*
X407400Y-36210D01*
Y-26600D01*
X406800Y-26000D02*
X407400Y-26600D01*
X401992Y-26000D02*
X406800D01*
X307827Y-104752D02*
X307908Y-104671D01*
Y-100492D01*
X309000Y-99400D01*
X318752Y-97764D02*
X324964D01*
X325000Y-97800D01*
X329800Y-249000D02*
X352657D01*
X353457Y-248200D01*
X318752Y-95795D02*
Y-95750D01*
X326950D02*
X329000Y-97800D01*
X318752Y-95750D02*
X326950D01*
X341800Y-242600D02*
X343344Y-244144D01*
X363801D01*
X367857Y-248200D01*
X318752Y-93827D02*
X318875Y-93950D01*
X328049D01*
X331099Y-97000D01*
X331400D01*
X343400Y-240200D02*
X343400Y-240200D01*
X367857D01*
X318752Y-91858D02*
X329458D01*
X334600Y-97000D01*
X345800Y-232200D02*
X367857D01*
X367857Y-232200D01*
X318752Y-89890D02*
X330690D01*
X337800Y-97000D01*
X347400Y-221000D02*
X350600Y-224200D01*
X367857D01*
X314879Y-87921D02*
X318752D01*
X319400Y-165943D02*
Y-161800D01*
Y-165943D02*
X321457Y-168000D01*
X384777Y-44423D02*
X395326Y-33874D01*
X319977Y-44423D02*
X384777D01*
X385523Y-46223D02*
X393946Y-37800D01*
X321377Y-46223D02*
X385523D01*
X321000Y-46600D02*
X321377Y-46223D01*
X318600Y-46600D02*
X321000D01*
X301921Y-61248D02*
Y-56321D01*
X309243Y-49000D02*
X330828D01*
X334124Y-52297D01*
X387497D01*
X393000Y-57800D01*
Y-110600D02*
Y-57800D01*
X391600Y-112000D02*
X393000Y-110600D01*
X383787Y-112000D02*
X391600D01*
X301921Y-56321D02*
X309243Y-49000D01*
X303890Y-61248D02*
Y-56898D01*
X309988Y-50800D01*
X330082D01*
X333379Y-54097D01*
X386751D01*
X391200Y-58546D01*
Y-104400D02*
Y-58546D01*
X388600Y-107000D02*
X391200Y-104400D01*
X383787Y-107000D02*
X388600D01*
X305858Y-61248D02*
Y-57475D01*
X310734Y-52600D01*
X326554D01*
X334124Y-60171D01*
X386171D01*
X389400Y-63400D01*
Y-100200D02*
Y-63400D01*
X387600Y-102000D02*
X389400Y-100200D01*
X383787Y-102000D02*
X387600D01*
X307827Y-61248D02*
Y-58052D01*
X311479Y-54400D01*
X325808D01*
X333379Y-61971D01*
X381800D01*
X383400Y-63571D01*
Y-96613D02*
Y-63571D01*
Y-96613D02*
X383787Y-97000D01*
X311764Y-65364D02*
Y-61248D01*
X311886Y-98964D02*
X316322Y-103400D01*
X361000D01*
X362600Y-105000D01*
X318752Y-85953D02*
X329652D01*
X340200Y-97000D02*
X340699D01*
X340200Y-131400D02*
Y-128200D01*
Y-131400D02*
X342600Y-133800D01*
X374600D01*
X376400Y-132000D01*
X383787D01*
X329652Y-85953D02*
X340699Y-97000D01*
X318752Y-83984D02*
X330384D01*
X343400Y-97000D01*
X377400Y-127000D02*
X383787D01*
X346299Y-97000D02*
X346600D01*
X347400Y-129000D02*
X356000D01*
X318752Y-80047D02*
X329346D01*
X346299Y-97000D01*
X318752Y-78079D02*
Y-78043D01*
X346043D02*
X349000Y-81000D01*
X318752Y-78043D02*
X346043D01*
X318752Y-76110D02*
X368910D01*
X373000Y-80200D01*
Y-119400D02*
Y-80200D01*
Y-119400D02*
X375600Y-122000D01*
X383787D01*
X318752Y-74142D02*
X330152D01*
X334124Y-70169D01*
X367031D01*
X376200Y-79339D01*
Y-115400D02*
Y-79339D01*
Y-115400D02*
X377800Y-117000D01*
X383787D01*
X318752Y-72173D02*
X322545D01*
X322627Y-72092D01*
X343400Y-122600D02*
X344200Y-123400D01*
X373800D01*
X377400Y-127000D01*
X325800Y-122600D02*
X340501D01*
X343701Y-125800D01*
X350600D01*
X286173Y-61248D02*
Y-57373D01*
X281000Y-52200D02*
X286173Y-57373D01*
X249000Y-52200D02*
X281000D01*
X247450Y-50150D02*
X281496D01*
X247200Y-50400D02*
X247450Y-50150D01*
X288142Y-61248D02*
Y-56796D01*
X281496Y-50150D02*
X288142Y-56796D01*
X290110Y-65490D02*
Y-61248D01*
X292079D02*
Y-57679D01*
X282750Y-48350D02*
X292079Y-57679D01*
X245650Y-48350D02*
X282750D01*
X244400Y-46300D02*
X283246D01*
X244150Y-46550D02*
X244400Y-46300D01*
X294047Y-61248D02*
Y-57102D01*
X283246Y-46300D02*
X294047Y-57102D01*
X277737Y-35463D02*
Y-33205D01*
X275857Y-37343D02*
X277737Y-35463D01*
X275857Y-41800D02*
Y-37343D01*
X267869Y-28874D02*
X273406D01*
X265000Y-31743D02*
X267869Y-28874D01*
X273406Y-24937D02*
Y-24859D01*
X269153Y-23924D02*
X270088Y-24859D01*
X273406D01*
X279706Y-36450D02*
Y-33205D01*
Y-36450D02*
X281000Y-37744D01*
X285844D01*
X285900Y-37800D01*
X287743D01*
X293800Y-31743D01*
X265000Y-37000D02*
Y-31743D01*
X296016Y-66264D02*
Y-61248D01*
X267400Y-41800D02*
X275857D01*
X267400Y-41800D02*
X267400Y-41800D01*
X297984Y-66841D02*
Y-61248D01*
X267400Y-61800D02*
X277695D01*
X269000Y-65800D02*
X277905D01*
X265000Y-59400D02*
X267400Y-61800D01*
Y-64200D02*
X269000Y-65800D01*
X142000Y-124850D02*
X152000D01*
X133000Y-117543D02*
X134693D01*
X142000Y-124850D01*
X125000Y-110457D02*
X132087Y-117543D01*
X133000D01*
X125000D02*
X125080Y-117623D01*
X127500Y-125878D02*
X132500D01*
X133078D01*
X122500D02*
Y-123043D01*
X117000Y-117543D02*
X122500Y-123043D01*
X125080Y-121080D02*
Y-117623D01*
Y-121080D02*
X127500Y-123500D01*
Y-125878D02*
Y-123500D01*
X122500Y-129900D02*
Y-125878D01*
X120857Y-131543D02*
X122500Y-129900D01*
X109000Y-131543D02*
X120857D01*
X109000Y-124457D02*
Y-117543D01*
Y-156457D02*
Y-149543D01*
Y-142457D02*
X111835D01*
X117500Y-155957D02*
Y-148122D01*
X111835Y-142457D02*
X117500Y-148122D01*
X122500D02*
X127500D01*
Y-153957D02*
Y-148122D01*
X125000Y-156457D02*
X127500Y-153957D01*
X142000Y-149150D02*
X152000D01*
X132087Y-156457D02*
X133000D01*
X125000Y-163543D02*
X132087Y-156457D01*
X133000D02*
X134693D01*
X142000Y-149150D01*
X152050D02*
X156200Y-145000D01*
X212000Y-149150D02*
X212050D01*
X202000Y-124850D02*
X212000D01*
X193000Y-117543D02*
X194693D01*
X202000Y-124850D01*
X185000Y-110457D02*
X192087Y-117543D01*
X193000D01*
X185000D02*
X185080Y-117623D01*
X187500Y-125878D02*
X192500D01*
X193078D01*
X182500D02*
Y-123043D01*
X177000Y-117543D02*
X182500Y-123043D01*
X185080Y-121080D02*
Y-117623D01*
Y-121080D02*
X187500Y-123500D01*
Y-125878D02*
Y-123500D01*
X182500Y-129900D02*
Y-125878D01*
X180857Y-131543D02*
X182500Y-129900D01*
X169000Y-131543D02*
X180857D01*
X169000Y-124457D02*
Y-117543D01*
Y-142457D02*
X171835D01*
X177500Y-155957D02*
Y-148122D01*
X171835Y-142457D02*
X177500Y-148122D01*
X182500D02*
X187500D01*
Y-153957D02*
Y-148122D01*
X185000Y-156457D02*
X187500Y-153957D01*
X202000Y-149150D02*
X212000D01*
X192087Y-156457D02*
X193000D01*
X185000Y-163543D02*
X192087Y-156457D01*
X193000D02*
X194693D01*
X202000Y-149150D01*
X169000Y-156457D02*
Y-148543D01*
X169000Y-156457D02*
X169000Y-156457D01*
X259000Y-139850D02*
X269000D01*
X250000Y-132543D02*
X251693D01*
X259000Y-139850D01*
X242000Y-125457D02*
X249087Y-132543D01*
X250000D01*
X242000D02*
X242079Y-132623D01*
X244500Y-140878D02*
X249500D01*
X250078D01*
X239500D02*
Y-138043D01*
X234000Y-132543D02*
X239500Y-138043D01*
X242079Y-136080D02*
Y-132623D01*
Y-136080D02*
X244500Y-138500D01*
Y-140878D02*
Y-138500D01*
X239500Y-144900D02*
Y-140878D01*
X237857Y-146543D02*
X239500Y-144900D01*
X226000Y-146543D02*
X237857D01*
X226000Y-139457D02*
Y-132543D01*
Y-171457D02*
Y-164543D01*
Y-157457D02*
X228835D01*
X234500Y-170957D02*
Y-163122D01*
X228835Y-157457D02*
X234500Y-163122D01*
X239500D02*
X244500D01*
Y-168957D02*
Y-163122D01*
X242000Y-171457D02*
X244500Y-168957D01*
X259000Y-164150D02*
X269000D01*
X249087Y-171457D02*
X250000D01*
X242000Y-178543D02*
X249087Y-171457D01*
X250000D02*
X251693D01*
X259000Y-164150D01*
X283543Y-210000D02*
Y-201000D01*
Y-210000D02*
X283543Y-210000D01*
X283543Y-201000D02*
X288200D01*
X289700Y-202500D01*
X296354D01*
X276457Y-201000D02*
Y-192000D01*
X204200Y-210600D02*
Y-208800D01*
X207000Y-206000D01*
X210425Y-225625D02*
X211400Y-226600D01*
X261000D01*
X262600Y-225000D01*
Y-211400D02*
Y-206400D01*
X263000Y-206000D01*
X213800Y-239400D02*
X216400Y-242000D01*
X230000D01*
X216200Y-253800D02*
X217000Y-253000D01*
X201800Y-253800D02*
X216200D01*
X201000Y-254600D02*
X201800Y-253800D01*
X199000Y-267000D02*
X200200Y-265800D01*
X190630Y-267000D02*
X199000D01*
X218347Y-259653D02*
X221000Y-257000D01*
X230000D01*
X209200Y-242000D02*
X212575Y-245375D01*
X190630Y-242000D02*
X209200D01*
X209425Y-231775D02*
X210600Y-230600D01*
X221000D01*
X221800Y-217800D02*
Y-207830D01*
X223630Y-206000D01*
X195600D02*
X201800Y-212200D01*
X167630Y-206000D02*
X195600D01*
X65543Y-118857D02*
Y-115000D01*
X64500Y-119900D02*
X65543Y-118857D01*
X64500Y-126354D02*
Y-119900D01*
X65543Y-107000D02*
X73543D01*
X75000Y-108457D01*
X65543Y-107000D02*
X69800Y-111257D01*
Y-126054D02*
Y-111257D01*
X69500Y-126354D02*
X69800Y-126054D01*
X75000Y-125854D02*
Y-115543D01*
X74500Y-126354D02*
X75000Y-125854D01*
X74500Y-126354D02*
X78689Y-130543D01*
X84000D01*
Y-123457D02*
Y-115543D01*
X80657Y-141457D02*
X84000D01*
X77800Y-138600D02*
X80657Y-141457D01*
X70600Y-138600D02*
X77800D01*
X69500Y-139700D02*
X70600Y-138600D01*
X69500Y-145646D02*
Y-139700D01*
X58457Y-157000D02*
Y-152343D01*
X59500Y-151300D01*
Y-145646D01*
X65543Y-165000D02*
X69000D01*
X70457Y-163543D01*
X75000D01*
X69500Y-149500D02*
Y-145646D01*
Y-149500D02*
X75000Y-155000D01*
Y-156457D02*
Y-155000D01*
X70457Y-163543D02*
Y-154957D01*
X64500Y-149000D02*
X70457Y-154957D01*
X64500Y-149000D02*
Y-145646D01*
X84000Y-156457D02*
Y-148543D01*
X374943Y-224200D02*
X383800D01*
X389000Y-219000D01*
X374943Y-232200D02*
X385800D01*
X389000Y-229000D01*
X374943Y-240200D02*
X387800D01*
X389000Y-239000D01*
X374943Y-248200D02*
X378200D01*
X389000Y-259000D01*
X360543Y-248200D02*
X381343Y-269000D01*
X389000D01*
X69000Y-238600D02*
Y-230429D01*
Y-238600D02*
X71887Y-241487D01*
X75576D01*
X58000Y-230543D02*
X68886D01*
X69000Y-230429D01*
X72740Y-221571D02*
X74371D01*
X76257Y-223457D01*
X80000D01*
Y-230543D02*
X88000D01*
X96000Y-230543D02*
X106886D01*
X107000Y-230429D01*
Y-238063D02*
Y-230429D01*
X106976Y-238087D02*
X107000Y-238063D01*
X110740Y-221571D02*
X117114D01*
X117800Y-222257D01*
X270000Y-250457D02*
Y-237429D01*
X269571Y-237000D02*
X270000Y-237429D01*
X279000Y-250457D02*
Y-241311D01*
Y-257543D02*
X288000D01*
X259976Y-234087D02*
X266657D01*
X269571Y-237000D01*
X104743Y-124457D02*
X109000D01*
X102600Y-180200D02*
X103400Y-179400D01*
X92743Y-156457D02*
X109000D01*
X91400Y-157800D02*
X92743Y-156457D01*
X57800Y-180200D02*
X102600D01*
X57000Y-181000D02*
X57800Y-180200D01*
X125429Y-206886D02*
Y-195000D01*
X129829Y-199400D01*
X146663D01*
X152976Y-193087D01*
X163400Y-129000D02*
X166943Y-125457D01*
X169000D01*
X132200Y-185800D02*
X156200D01*
X164700Y-160200D02*
X168443Y-156457D01*
X169000D01*
X221257Y-176200D02*
X226000Y-171457D01*
X221257Y-144200D02*
X226000Y-139457D01*
X235400Y-222600D02*
Y-207400D01*
X233800Y-205800D02*
X235400Y-207400D01*
X233000Y-223400D02*
Y-222200D01*
X231400Y-220600D02*
X233000Y-222200D01*
X231400Y-220600D02*
Y-202600D01*
X296200Y-211400D02*
X299400Y-214600D01*
X334600D01*
X337000D01*
X343652Y-41548D02*
X344657Y-40543D01*
X338600Y-41548D02*
X343652D01*
X395400Y-73000D02*
X401548D01*
X401592Y-73044D01*
X152000Y-111150D02*
X156100Y-107050D01*
X165350D01*
X132500Y-148122D02*
X134522D01*
X147400Y-160200D02*
X149350D01*
X152000Y-162850D01*
X192500Y-148122D02*
X195400Y-151022D01*
X207400Y-161800D02*
X210950D01*
X212000Y-162850D01*
X134522Y-148122D02*
Y-148096D01*
X147374Y-135244D01*
X147400D01*
Y-116200D02*
Y-115750D01*
X152000Y-111150D01*
Y-106400D01*
Y-84400D02*
Y-80800D01*
X151400Y-80200D02*
X152000Y-80800D01*
X74500Y-146500D02*
Y-145646D01*
Y-146500D02*
X78600Y-150600D01*
X58000Y-223457D02*
Y-216800D01*
X96000Y-223457D02*
X112457Y-207000D01*
X118457D01*
Y-202743D01*
X381000Y-156457D02*
X390000D01*
X393953D01*
X403000Y-147409D01*
X249500Y-163122D02*
X252978Y-166600D01*
X262600Y-172200D02*
X263350D01*
X269000Y-177850D01*
X264200Y-128200D02*
X266250Y-126150D01*
X269000D01*
X249500Y-163122D02*
Y-155900D01*
X247394Y-153795D02*
X249500Y-155900D01*
X222706Y-153795D02*
X247394D01*
X222700Y-153800D02*
X222706Y-153795D01*
X212000Y-162850D02*
Y-160400D01*
X218600Y-153800D01*
X222700D01*
X230000Y-302800D02*
Y-267000D01*
X269800Y-257743D02*
X270000Y-257543D01*
X269800Y-257743D02*
X270600Y-258543D01*
Y-262600D02*
Y-258543D01*
X292200Y-150600D02*
X293000Y-149800D01*
X282550Y-150600D02*
X292200D01*
X269000Y-164150D02*
X282550Y-150600D01*
X247743Y-85800D02*
X258200D01*
X311764Y-106964D02*
Y-104752D01*
Y-106964D02*
X313000Y-108200D01*
X278950Y-91858D02*
X285342D01*
X286173Y-104752D02*
Y-99773D01*
X283400Y-72200D02*
X310826D01*
X284476Y-40268D02*
X310000D01*
X321276D01*
X325000Y-36543D01*
X269153Y-23924D02*
Y-18447D01*
X275400Y-12200D01*
X276657D01*
X273406Y-18194D02*
X275640Y-15960D01*
X280662D01*
X281674Y-16972D01*
Y-20213D02*
Y-16972D01*
X273406Y-22968D02*
Y-20200D01*
Y-18194D01*
X325000Y-36543D02*
X335743Y-25800D01*
X333800Y-80918D02*
Y-80200D01*
Y-80918D02*
X338600D01*
X310826Y-72200D02*
X314790Y-68236D01*
X318752D01*
X313000Y-125000D02*
Y-117420D01*
X313064Y-117356D01*
X286779Y-175500D02*
X300900D01*
X301800Y-174600D01*
X303000Y-141000D02*
X303400D01*
X297143Y-250457D02*
X301800Y-245800D01*
X288000Y-250457D02*
X297143D01*
X89000Y-192200D02*
X89743Y-191457D01*
X89000Y-222457D02*
Y-220200D01*
X88000Y-223457D02*
X89000Y-222457D01*
X89743Y-191457D02*
X97000D01*
X125800Y-221457D02*
Y-218600D01*
Y-221457D02*
X126600Y-222257D01*
X45000Y-269800D02*
X48200Y-273000D01*
X41000Y-269800D02*
X45000D01*
X100000Y-191457D02*
Y-190000D01*
X107400Y-182600D01*
X274600D02*
X281700Y-175500D01*
X286779D01*
X238000Y-293200D02*
Y-286800D01*
X368000Y-150400D02*
Y-139000D01*
Y-150400D02*
X368200Y-150600D01*
Y-162600D02*
X369143Y-163543D01*
X381000D01*
X296354Y-197500D02*
Y-196944D01*
X280000Y-197162D02*
X280218Y-196944D01*
X264000Y-197000D02*
X273000D01*
X263000Y-196000D02*
X264000Y-197000D01*
X280218Y-196944D02*
X296354D01*
X273000Y-206600D02*
X276400Y-210000D01*
X276457D01*
X274600Y-232200D02*
X275660Y-233260D01*
X278429D01*
X236000Y-196000D02*
X263000D01*
X231400Y-191400D02*
X236000Y-196000D01*
X215400Y-191400D02*
X231400D01*
X128200Y-201800D02*
X205000D01*
X215400Y-191400D01*
X116571Y-198740D02*
X120340D01*
X121000Y-199400D01*
X113000Y-202311D02*
X116571Y-198740D01*
X108200Y-216631D02*
Y-214600D01*
X103260Y-221571D02*
X108200Y-216631D01*
X230000Y-232000D02*
X236957D01*
X239714Y-229243D01*
X271643D01*
X274600Y-232200D01*
X225000Y-237000D02*
X230000Y-232000D01*
X196200Y-237000D02*
X225000D01*
X190630Y-253770D02*
X193800Y-250600D01*
X190630Y-257000D02*
Y-253770D01*
X315627Y-70205D02*
X318752D01*
X314401Y-71431D02*
X315627Y-70205D01*
X314401Y-72463D02*
Y-71431D01*
X313864Y-73000D02*
X314401Y-72463D01*
X277905Y-65800D02*
X281445Y-69340D01*
X282689D01*
X283449Y-70100D01*
X284270D01*
X284570Y-70400D01*
X294425D01*
X284195Y-68300D02*
X285015D01*
X285315Y-68600D01*
X293679D01*
X277695Y-61800D02*
X284195Y-68300D01*
X293679Y-68600D02*
X296016Y-66264D01*
X294425Y-70400D02*
X297984Y-66841D01*
X284205Y-64944D02*
Y-61248D01*
Y-64944D02*
X285618Y-66357D01*
X286043D01*
X275329Y-89808D02*
X283050D01*
X283100Y-89758D01*
X275248Y-89890D02*
X275329Y-89808D01*
X277800Y-109000D02*
X278250D01*
X309795Y-108205D02*
Y-104752D01*
X308200Y-109800D02*
X309795Y-108205D01*
X307400Y-109800D02*
X308200D01*
X286005Y-24937D02*
X293520D01*
X285927Y-28796D02*
X286005Y-28874D01*
X282686Y-28796D02*
X285927D01*
X281752Y-27862D02*
X282686Y-28796D01*
X281752Y-27862D02*
Y-25451D01*
X282266Y-24937D01*
X286005D01*
X273406Y-36594D02*
Y-30843D01*
X96000Y-223457D02*
Y-220400D01*
X97000Y-219400D01*
X65260Y-221571D02*
X68831Y-218000D01*
X101229Y-221571D02*
X103260D01*
X93800Y-217000D02*
X99400D01*
X77800Y-213000D02*
X95600D01*
X97000Y-214400D01*
X90900Y-215900D02*
X91400Y-215400D01*
X63700Y-215900D02*
X90900D01*
X61800Y-217800D02*
X63700Y-215900D01*
X58000Y-216800D02*
X61800Y-213000D01*
X77800D01*
X68831Y-218000D02*
X92800D01*
X93800Y-217000D01*
X226000Y-178543D02*
X229000Y-175543D01*
X253800Y-180569D02*
Y-180200D01*
X193693Y-162850D02*
X202000D01*
X193000Y-163543D02*
X193693Y-162850D01*
X65543Y-157000D02*
Y-155143D01*
X62600Y-152200D02*
X65543Y-155143D01*
X113878Y-125878D02*
X117500D01*
X108197Y-191260D02*
X116571D01*
X169000Y-110457D02*
X177000D01*
X193693Y-111150D02*
X202000D01*
X163600Y-104000D02*
X266464D01*
X206650Y-105800D02*
X212000Y-111150D01*
X165350Y-107050D02*
X166600Y-105800D01*
X206650D01*
X226000Y-125457D02*
X234000D01*
X237000Y-112200D02*
X243057D01*
X235400Y-113800D02*
X237000Y-112200D01*
X258150Y-126150D02*
X259000D01*
X254600Y-122600D02*
X257457Y-125457D01*
X258150Y-126150D01*
X250000Y-125457D02*
X257457D01*
X230600Y-141000D02*
X234378D01*
X107400Y-182600D02*
X199400D01*
X250000Y-178543D02*
X252257Y-180800D01*
X253569D01*
X253800Y-180569D01*
X249800Y-184200D02*
X251400Y-182600D01*
X274600D01*
X199400D02*
X201000Y-184200D01*
X249800D01*
X266800Y-90546D02*
Y-87200D01*
X265000Y-85800D02*
X268784Y-82016D01*
X265000Y-89800D02*
Y-85800D01*
X92200Y-93000D02*
X261800D01*
X265000Y-89800D01*
X93800Y-94800D02*
X262546D01*
X266800Y-90546D01*
X96600Y-96600D02*
X263291D01*
X268600Y-91291D01*
X129000Y-98600D02*
X263837D01*
X270400Y-92037D01*
X160000Y-100400D02*
X264713D01*
X271286Y-93827D01*
X265718Y-102200D02*
X272123Y-95795D01*
X160200Y-103400D02*
X161400Y-102200D01*
X265718D01*
X189338Y-167206D02*
X193000Y-163543D01*
X180662Y-167206D02*
X189338D01*
X177000Y-163543D02*
X180662Y-167206D01*
X152000Y-162850D02*
X158950Y-169800D01*
X205050D01*
X212000Y-162850D01*
D41*
X98000Y-279200D02*
Y-266039D01*
X83410Y-293791D02*
X98000Y-279200D01*
X83410Y-305000D02*
Y-293791D01*
X118000Y-238150D02*
X122693D01*
X127000Y-242457D01*
X118000Y-251850D02*
X124693D01*
X127000Y-249543D01*
X118000Y-262457D02*
X125693D01*
X127000Y-261150D01*
X118000Y-269543D02*
X121693D01*
X127000Y-274850D01*
X142252Y-254000D02*
Y-222787D01*
X144000Y-221039D01*
X127000Y-303410D02*
Y-274850D01*
X98000Y-266039D02*
Y-257600D01*
X117450Y-238150D01*
X118000D01*
X142252Y-266148D02*
Y-254000D01*
X133550Y-274850D02*
X142252Y-266148D01*
X127000Y-274850D02*
X133550D01*
X255842Y-287000D02*
Y-266882D01*
X272693Y-269457D02*
X281000D01*
X272000Y-270150D02*
X272693Y-269457D01*
X259110Y-270150D02*
X272000D01*
X255842Y-266882D02*
X259110Y-270150D01*
X125409Y-305000D02*
X127000Y-303410D01*
X22000Y-288000D02*
X48600Y-314600D01*
X89400D01*
X99000Y-305000D01*
X109400Y-315400D01*
X130600D01*
X141000Y-305000D01*
Y-286748D01*
X173748Y-254000D01*
X118000Y-262457D02*
X118000Y-262457D01*
X118000Y-262457D02*
Y-251850D01*
X114170Y-262457D02*
X118000D01*
X99000Y-305000D02*
X112200Y-291800D01*
Y-264427D01*
X114170Y-262457D01*
X80000Y-80000D02*
X100000D01*
X96614Y-71014D02*
Y-63425D01*
Y-71014D02*
X100000Y-74400D01*
Y-80000D02*
Y-74400D01*
X103307Y-63425D02*
Y-57093D01*
X105800Y-54600D01*
X139600D01*
X145000Y-60000D01*
Y-37800D01*
X151850Y-30950D01*
Y-20000D01*
X96614Y-63425D02*
Y-60158D01*
X80000Y-43543D02*
X96614Y-60158D01*
X80000Y-36457D02*
Y-23543D01*
X80000Y-23543D02*
X80000Y-23543D01*
X116693Y-69205D02*
Y-63425D01*
Y-69205D02*
X119688Y-72200D01*
X125800D01*
X133800Y-80200D01*
X156296D02*
X176496Y-60000D01*
X198583Y-37913D01*
Y-29055D01*
Y-37913D02*
X209921Y-49252D01*
X215000D01*
X227148D01*
X333800Y-269800D02*
X368200D01*
X321545Y-282055D02*
X333800Y-269800D01*
X321055Y-282055D02*
X321545D01*
X315693Y-287417D02*
X321055Y-282055D01*
X315693Y-295000D02*
Y-287417D01*
X175800Y-297800D02*
X179400D01*
X165000Y-287000D02*
X175800Y-297800D01*
X133800Y-80200D02*
X151400D01*
X156296D01*
X273693Y-283850D02*
X281000Y-276543D01*
X272000Y-283850D02*
X273693D01*
X259650Y-296200D02*
X272000Y-283850D01*
X251400Y-296200D02*
X259650D01*
X246000Y-290800D02*
X251400Y-296200D01*
X246000Y-290800D02*
Y-287000D01*
X257035Y-325800D02*
X275150Y-307685D01*
X161800Y-325800D02*
X257035D01*
X141000Y-305000D02*
X161800Y-325800D01*
X57624Y-241487D02*
X66737Y-250600D01*
X84200D01*
X89024Y-245776D01*
Y-238087D01*
X135024Y-193087D02*
X140113D01*
X95113Y-238087D02*
X95400Y-237800D01*
X89024Y-238087D02*
X95113D01*
X124161Y-64200D02*
X130600D01*
X272000Y-300800D02*
Y-283850D01*
Y-300800D02*
X272450Y-301250D01*
X272485D01*
X275150Y-303915D01*
Y-307685D02*
Y-303915D01*
D42*
X299543Y-219000D02*
X314760D01*
X321000Y-225240D01*
X314600Y-211400D02*
Y-208546D01*
X321000Y-265000D02*
Y-242760D01*
X207000Y-311800D02*
X213000Y-305800D01*
X207000Y-313000D02*
Y-311800D01*
X321571Y-176260D02*
X324031Y-173800D01*
X326600D01*
X328200Y-172200D01*
Y-168343D01*
X328543Y-168000D01*
X330429Y-188390D02*
Y-180000D01*
Y-188390D02*
X340039Y-198000D01*
X315646Y-202500D02*
X335300D01*
X337000Y-204200D01*
X363761D01*
X369961Y-198000D01*
X311500Y-202500D02*
X315646D01*
X308924Y-205076D02*
X311500Y-202500D01*
X308924Y-208892D02*
Y-205076D01*
Y-208892D02*
X309000Y-208967D01*
Y-210600D02*
Y-208967D01*
X308400Y-228000D02*
X309000Y-227400D01*
X299543Y-228000D02*
X308400D01*
X45000Y-174000D02*
X54000Y-165000D01*
X58457D01*
X45000Y-108000D02*
X57457D01*
X58457Y-107000D01*
X309800Y-276200D02*
X321000Y-265000D01*
X213000Y-305800D02*
X270600D01*
X283543Y-219000D02*
X292457D01*
X221417Y-20000D02*
X225600D01*
X228543Y-22943D01*
X232200D01*
X240276D01*
X248200Y-30868D01*
X254411Y-24657D01*
X265000D01*
Y-19400D01*
X338600Y-25800D02*
X345800D01*
X248200Y-41000D02*
Y-30868D01*
X273800Y-131400D02*
X293000D01*
X312200Y-141200D02*
X318800D01*
X321343Y-143743D01*
X326600D01*
Y-143753D02*
Y-143743D01*
X363247Y-143753D02*
X368000Y-139000D01*
X326600Y-143753D02*
X363247D01*
X302800Y-141200D02*
X303000D01*
X303400D02*
X312200D01*
X293000Y-131400D02*
X302800Y-141200D01*
X321571Y-189571D02*
Y-183740D01*
Y-189571D02*
X324200Y-192200D01*
X250693Y-177850D02*
X259000D01*
X226000Y-178543D02*
X234000D01*
D43*
X52000Y-288000D02*
X66600Y-273400D01*
Y-269439D01*
X48400Y-80000D02*
X80000D01*
X16200Y-112200D02*
X48400Y-80000D01*
X16200Y-282200D02*
Y-112200D01*
Y-282200D02*
X22000Y-288000D01*
X29000Y-234819D02*
X29390D01*
X36058Y-241487D01*
X57624D01*
X161000Y-38600D02*
X168200Y-31400D01*
Y-23400D01*
D44*
X55000Y-65000D02*
X75000D01*
X80000Y-60000D01*
D45*
X69000Y-197000D02*
D03*
X181000Y-13000D02*
D03*
X288200Y-315400D02*
D03*
X356200Y-166600D02*
D03*
X177000Y-221000D02*
D03*
X321000Y-13000D02*
D03*
X403000Y-147409D02*
D03*
Y-173000D02*
D03*
X340039Y-198000D02*
D03*
D46*
X312200Y-141200D02*
D03*
Y-131200D02*
D03*
D47*
Y-136200D02*
D03*
D48*
X45000Y-204000D02*
D03*
Y-174000D02*
D03*
Y-138000D02*
D03*
Y-108000D02*
D03*
X22000Y-288000D02*
D03*
X52000D02*
D03*
X168200Y-23400D02*
D03*
X161000Y-38600D02*
D03*
D49*
X356000Y-109000D02*
D03*
Y-119000D02*
D03*
Y-129000D02*
D03*
X368000Y-109000D02*
D03*
Y-119000D02*
D03*
Y-129000D02*
D03*
X389000Y-289000D02*
D03*
Y-279000D02*
D03*
Y-269000D02*
D03*
Y-259000D02*
D03*
Y-239000D02*
D03*
Y-229000D02*
D03*
Y-249000D02*
D03*
Y-219000D02*
D03*
Y-209000D02*
D03*
Y-199000D02*
D03*
Y-189000D02*
D03*
X194528Y-287000D02*
D03*
X204370D02*
D03*
X214213D02*
D03*
X224055D02*
D03*
D50*
X356000Y-139000D02*
D03*
X368000D02*
D03*
D51*
X258685Y-313000D02*
D03*
X248843D02*
D03*
X239000D02*
D03*
X184685Y-287000D02*
D03*
X174843D02*
D03*
X165000D02*
D03*
X255842D02*
D03*
X246000D02*
D03*
X184685Y-313000D02*
D03*
X174843D02*
D03*
X165000D02*
D03*
X216843D02*
D03*
X207000D02*
D03*
D52*
X141000Y-305000D02*
D03*
X125409D02*
D03*
X99000D02*
D03*
X83410D02*
D03*
X29000Y-266000D02*
D03*
Y-250410D02*
D03*
Y-234819D02*
D03*
D53*
X55000Y-65000D02*
D03*
Y-27598D02*
D03*
D54*
X80000Y-60000D02*
D03*
D55*
Y-80000D02*
D03*
D56*
X369961Y-198000D02*
D03*
D57*
X352307Y-295000D02*
D03*
X346945Y-307945D02*
D03*
X315693Y-295000D02*
D03*
X321055Y-282055D02*
D03*
X346945D02*
D03*
X321055Y-307945D02*
D03*
D58*
X280047Y-80047D02*
D03*
X283400Y-153000D02*
D03*
X92200Y-93000D02*
D03*
X89800Y-111400D02*
D03*
X93800Y-95400D02*
D03*
X92200Y-144200D02*
D03*
X96200Y-97000D02*
D03*
X92233Y-227000D02*
D03*
X128200Y-99400D02*
D03*
X125000Y-106600D02*
D03*
X159400Y-101000D02*
D03*
X278950Y-91858D02*
D03*
X313000Y-108200D02*
D03*
X321000Y-65800D02*
D03*
X280543Y-58257D02*
D03*
X219400Y-107400D02*
D03*
X217800Y-120200D02*
D03*
X288142Y-188258D02*
D03*
Y-108942D02*
D03*
X160200Y-103400D02*
D03*
X132200Y-185800D02*
D03*
X130600Y-214600D02*
D03*
X162600Y-105000D02*
D03*
X113000Y-188200D02*
D03*
X112200Y-197800D02*
D03*
X278600Y-111400D02*
D03*
X277800Y-119400D02*
D03*
X221000Y-120200D02*
D03*
X217000Y-144200D02*
D03*
X291400Y-112200D02*
D03*
Y-136200D02*
D03*
X293800Y-113800D02*
D03*
X296016Y-115584D02*
D03*
X296200Y-211400D02*
D03*
X298600Y-117000D02*
D03*
X298584Y-165000D02*
D03*
X300200Y-114600D02*
D03*
X301000Y-157800D02*
D03*
X302600Y-113800D02*
D03*
X303971Y-111890D02*
D03*
X303400Y-135400D02*
D03*
X305800Y-255400D02*
D03*
X305858Y-100258D02*
D03*
X309000Y-99400D02*
D03*
X325000Y-97800D02*
D03*
X329800Y-249000D02*
D03*
X329000Y-97800D02*
D03*
X341800Y-242600D02*
D03*
X331400Y-97000D02*
D03*
X343400Y-240200D02*
D03*
X334600Y-97000D02*
D03*
X345800Y-232200D02*
D03*
X337800Y-97000D02*
D03*
X347400Y-221000D02*
D03*
X314879Y-87921D02*
D03*
X319400Y-161800D02*
D03*
X319977Y-44423D02*
D03*
X318600Y-46600D02*
D03*
X311764Y-65364D02*
D03*
X311886Y-98964D02*
D03*
X362600Y-105000D02*
D03*
X340200Y-97000D02*
D03*
Y-128200D02*
D03*
X343400Y-97000D02*
D03*
Y-122600D02*
D03*
X346600Y-97000D02*
D03*
X347400Y-129000D02*
D03*
X349000Y-81000D02*
D03*
X322627Y-72092D02*
D03*
X325800Y-122600D02*
D03*
X350600Y-125800D02*
D03*
X249000Y-52200D02*
D03*
X247200Y-50400D02*
D03*
X290110Y-65490D02*
D03*
X245650Y-48350D02*
D03*
X244150Y-46550D02*
D03*
X265000Y-37000D02*
D03*
X267400Y-41800D02*
D03*
Y-64200D02*
D03*
X265000Y-59400D02*
D03*
X156200Y-145000D02*
D03*
X204200Y-210600D02*
D03*
X210425Y-225625D02*
D03*
X262600Y-225000D02*
D03*
Y-211400D02*
D03*
X213800Y-239400D02*
D03*
X217000Y-253000D02*
D03*
X201000Y-254600D02*
D03*
X200200Y-265800D02*
D03*
X218347Y-259653D02*
D03*
X212575Y-245375D02*
D03*
X209425Y-231775D02*
D03*
X221000Y-230600D02*
D03*
X221800Y-217800D02*
D03*
X201800Y-212200D02*
D03*
X156200Y-185800D02*
D03*
X157949Y-187850D02*
D03*
X337000Y-214600D02*
D03*
X344657Y-40543D02*
D03*
X395400Y-73000D02*
D03*
D59*
X104743Y-124457D02*
D03*
X103400Y-179400D02*
D03*
X91400Y-157800D02*
D03*
X61800Y-217800D02*
D03*
X57000Y-181000D02*
D03*
X163400Y-129000D02*
D03*
X164700Y-160200D02*
D03*
X221257Y-176200D02*
D03*
X233000Y-223400D02*
D03*
X221257Y-144200D02*
D03*
X235400Y-222600D02*
D03*
X231400Y-202600D02*
D03*
X233800Y-205800D02*
D03*
X134522Y-148122D02*
D03*
X147400Y-160200D02*
D03*
X195400Y-151022D02*
D03*
X207400Y-161800D02*
D03*
X147400Y-135244D02*
D03*
Y-116200D02*
D03*
X152000Y-106400D02*
D03*
Y-84400D02*
D03*
X78600Y-150600D02*
D03*
X118457Y-202743D02*
D03*
X252978Y-166600D02*
D03*
X262600Y-172200D02*
D03*
X264200Y-128200D02*
D03*
X230000Y-302800D02*
D03*
X270600Y-262600D02*
D03*
X293000Y-149800D02*
D03*
X285342Y-91858D02*
D03*
X286173Y-99773D02*
D03*
X283400Y-72200D02*
D03*
X273406Y-20200D02*
D03*
X333800Y-80200D02*
D03*
X313000Y-125000D02*
D03*
X313064Y-117356D02*
D03*
X301800Y-174600D02*
D03*
X303400Y-141000D02*
D03*
X301800Y-245800D02*
D03*
X89000Y-192200D02*
D03*
Y-220200D02*
D03*
X97000Y-191457D02*
D03*
X125800Y-218600D02*
D03*
X48200Y-273000D02*
D03*
X41000Y-269800D02*
D03*
X238000Y-293200D02*
D03*
Y-286800D02*
D03*
X249800Y-184200D02*
D03*
X368200Y-150600D02*
D03*
Y-162600D02*
D03*
X280000Y-197162D02*
D03*
X273000Y-197000D02*
D03*
Y-206600D02*
D03*
X274600Y-232200D02*
D03*
X215400Y-191400D02*
D03*
X128200Y-201800D02*
D03*
X121000Y-199400D02*
D03*
X113000Y-202311D02*
D03*
X108200Y-214600D02*
D03*
X196200Y-237000D02*
D03*
X193800Y-250600D02*
D03*
X277800Y-182600D02*
D03*
X315400Y-59400D02*
D03*
X313864Y-73000D02*
D03*
X286043Y-66357D02*
D03*
X283100Y-89758D02*
D03*
X277800Y-109000D02*
D03*
X307400Y-109800D02*
D03*
X273406Y-36594D02*
D03*
X97000Y-219400D02*
D03*
X101229Y-221571D02*
D03*
X99400Y-217000D02*
D03*
X97000Y-214400D02*
D03*
X91400Y-215400D02*
D03*
X77800Y-213000D02*
D03*
X229000Y-175543D02*
D03*
X253800Y-180200D02*
D03*
X62600Y-152200D02*
D03*
X113878Y-125878D02*
D03*
X207400Y-117800D02*
D03*
X173800Y-122600D02*
D03*
X235400Y-113800D02*
D03*
Y-122600D02*
D03*
X230600Y-141000D02*
D03*
X254600Y-122600D02*
D03*
D60*
X314760Y-219000D02*
D03*
X314600Y-211400D02*
D03*
X309000Y-210600D02*
D03*
Y-227400D02*
D03*
X309800Y-276200D02*
D03*
X270600Y-305800D02*
D03*
D61*
X227148Y-49252D02*
D03*
X368200Y-269800D02*
D03*
X179400Y-297800D02*
D03*
X140113Y-193087D02*
D03*
X95400Y-237800D02*
D03*
D62*
X265000Y-19400D02*
D03*
X345800Y-25800D02*
D03*
X248200Y-41000D02*
D03*
X273800Y-131400D02*
D03*
X324200Y-192200D02*
D03*
X109800Y-81800D02*
D03*
X187400Y-196200D02*
D03*
X254600Y-149800D02*
D03*
D63*
X130600Y-64200D02*
D03*
M02*
