%FSLAX25Y25*%
%MOIN*%
G70*
G01*
G75*
G04 Layer_Color=32896*
%ADD10R,0.09449X0.07087*%
%ADD11O,0.02756X0.09843*%
%ADD12R,0.03937X0.11417*%
%ADD13R,0.40945X0.31496*%
%ADD14R,0.05512X0.04724*%
%ADD15R,0.04724X0.05512*%
%ADD16R,0.21654X0.23228*%
%ADD17R,0.03543X0.07087*%
%ADD18R,0.04528X0.02362*%
%ADD19R,0.06693X0.06693*%
%ADD20R,0.09252X0.20276*%
%ADD21R,0.07992X0.08976*%
%ADD22R,0.09843X0.05512*%
%ADD23R,0.06693X0.06693*%
%ADD24R,0.19685X0.31496*%
%ADD25R,0.09449X0.03937*%
%ADD26R,0.09449X0.12992*%
%ADD27R,0.08465X0.11221*%
G04:AMPARAMS|DCode=28|XSize=11.81mil|YSize=59.06mil|CornerRadius=2.95mil|HoleSize=0mil|Usage=FLASHONLY|Rotation=90.000|XOffset=0mil|YOffset=0mil|HoleType=Round|Shape=RoundedRectangle|*
%AMROUNDEDRECTD28*
21,1,0.01181,0.05315,0,0,90.0*
21,1,0.00591,0.05906,0,0,90.0*
1,1,0.00591,0.02658,0.00295*
1,1,0.00591,0.02658,-0.00295*
1,1,0.00591,-0.02658,-0.00295*
1,1,0.00591,-0.02658,0.00295*
%
%ADD28ROUNDEDRECTD28*%
G04:AMPARAMS|DCode=29|XSize=11.81mil|YSize=59.06mil|CornerRadius=2.95mil|HoleSize=0mil|Usage=FLASHONLY|Rotation=180.000|XOffset=0mil|YOffset=0mil|HoleType=Round|Shape=RoundedRectangle|*
%AMROUNDEDRECTD29*
21,1,0.01181,0.05315,0,0,180.0*
21,1,0.00591,0.05906,0,0,180.0*
1,1,0.00591,-0.00295,0.02658*
1,1,0.00591,0.00295,0.02658*
1,1,0.00591,0.00295,-0.02658*
1,1,0.00591,-0.00295,-0.02658*
%
%ADD29ROUNDEDRECTD29*%
%ADD30R,0.07874X0.03150*%
%ADD31R,0.07874X0.02992*%
%ADD32O,0.06102X0.00984*%
%ADD33O,0.00984X0.06102*%
%ADD34O,0.08858X0.02362*%
%ADD35O,0.09843X0.02756*%
%ADD36R,0.07284X0.16339*%
%ADD37R,0.02362X0.04528*%
%ADD38R,0.20276X0.09252*%
G04:AMPARAMS|DCode=39|XSize=25.59mil|YSize=64.96mil|CornerRadius=1.92mil|HoleSize=0mil|Usage=FLASHONLY|Rotation=0.000|XOffset=0mil|YOffset=0mil|HoleType=Round|Shape=RoundedRectangle|*
%AMROUNDEDRECTD39*
21,1,0.02559,0.06112,0,0,0.0*
21,1,0.02175,0.06496,0,0,0.0*
1,1,0.00384,0.01088,-0.03056*
1,1,0.00384,-0.01088,-0.03056*
1,1,0.00384,-0.01088,0.03056*
1,1,0.00384,0.01088,0.03056*
%
%ADD39ROUNDEDRECTD39*%
%ADD40C,0.01000*%
%ADD41C,0.04000*%
%ADD42C,0.02000*%
%ADD43C,0.10000*%
%ADD44C,0.12000*%
%ADD45C,0.07874*%
%ADD46O,0.07874X0.03937*%
%ADD47O,0.07874X0.03937*%
%ADD48C,0.10000*%
%ADD49C,0.05906*%
%ADD50R,0.05906X0.05906*%
%ADD51C,0.06299*%
%ADD52C,0.11000*%
%ADD53C,0.15748*%
%ADD54R,0.07284X0.07284*%
%ADD55C,0.07284*%
%ADD56R,0.07874X0.07874*%
%ADD57C,0.11811*%
%ADD58C,0.01500*%
%ADD59C,0.01600*%
%ADD60C,0.03500*%
%ADD61C,0.06000*%
%ADD62C,0.03000*%
%ADD63C,0.07000*%
%ADD64R,0.02165X0.03543*%
%ADD65C,0.00984*%
%ADD66C,0.00787*%
%ADD67C,0.01969*%
%ADD68C,0.02362*%
%ADD69C,0.00800*%
%ADD70C,0.00600*%
%ADD71R,0.10249X0.07887*%
%ADD72O,0.03556X0.10642*%
%ADD73R,0.04737X0.12217*%
%ADD74R,0.41745X0.32296*%
%ADD75R,0.06312X0.05524*%
%ADD76R,0.05524X0.06312*%
%ADD77R,0.22453X0.24028*%
%ADD78R,0.04343X0.07887*%
%ADD79R,0.05328X0.03162*%
%ADD80R,0.07493X0.07493*%
%ADD81R,0.10052X0.21076*%
%ADD82R,0.08792X0.09776*%
%ADD83R,0.10642X0.06312*%
%ADD84R,0.07493X0.07493*%
%ADD85R,0.20485X0.32296*%
%ADD86R,0.10249X0.04737*%
%ADD87R,0.10249X0.13792*%
%ADD88R,0.09265X0.12020*%
G04:AMPARAMS|DCode=89|XSize=19.81mil|YSize=67.06mil|CornerRadius=6.95mil|HoleSize=0mil|Usage=FLASHONLY|Rotation=90.000|XOffset=0mil|YOffset=0mil|HoleType=Round|Shape=RoundedRectangle|*
%AMROUNDEDRECTD89*
21,1,0.01981,0.05315,0,0,90.0*
21,1,0.00591,0.06706,0,0,90.0*
1,1,0.01391,0.02658,0.00295*
1,1,0.01391,0.02658,-0.00295*
1,1,0.01391,-0.02658,-0.00295*
1,1,0.01391,-0.02658,0.00295*
%
%ADD89ROUNDEDRECTD89*%
G04:AMPARAMS|DCode=90|XSize=19.81mil|YSize=67.06mil|CornerRadius=6.95mil|HoleSize=0mil|Usage=FLASHONLY|Rotation=180.000|XOffset=0mil|YOffset=0mil|HoleType=Round|Shape=RoundedRectangle|*
%AMROUNDEDRECTD90*
21,1,0.01981,0.05315,0,0,180.0*
21,1,0.00591,0.06706,0,0,180.0*
1,1,0.01391,-0.00295,0.02658*
1,1,0.01391,0.00295,0.02658*
1,1,0.01391,0.00295,-0.02658*
1,1,0.01391,-0.00295,-0.02658*
%
%ADD90ROUNDEDRECTD90*%
%ADD91R,0.08674X0.03950*%
%ADD92R,0.08674X0.03792*%
%ADD93O,0.06902X0.01784*%
%ADD94O,0.01784X0.06902*%
%ADD95O,0.09658X0.03162*%
%ADD96O,0.10642X0.03556*%
%ADD97R,0.08083X0.17139*%
%ADD98R,0.03162X0.05328*%
%ADD99R,0.21076X0.10052*%
G04:AMPARAMS|DCode=100|XSize=33.59mil|YSize=72.96mil|CornerRadius=5.92mil|HoleSize=0mil|Usage=FLASHONLY|Rotation=0.000|XOffset=0mil|YOffset=0mil|HoleType=Round|Shape=RoundedRectangle|*
%AMROUNDEDRECTD100*
21,1,0.03359,0.06112,0,0,0.0*
21,1,0.02175,0.07296,0,0,0.0*
1,1,0.01184,0.01088,-0.03056*
1,1,0.01184,-0.01088,-0.03056*
1,1,0.01184,-0.01088,0.03056*
1,1,0.01184,0.01088,0.03056*
%
%ADD100ROUNDEDRECTD100*%
%ADD101C,0.08674*%
%ADD102O,0.08674X0.04737*%
%ADD103O,0.08674X0.04737*%
%ADD104C,0.10800*%
%ADD105C,0.06706*%
%ADD106R,0.06706X0.06706*%
%ADD107C,0.07099*%
%ADD108C,0.11800*%
%ADD109C,0.16548*%
%ADD110R,0.08083X0.08083*%
%ADD111C,0.08083*%
%ADD112R,0.08674X0.08674*%
%ADD113C,0.12611*%
%ADD114R,0.02965X0.04343*%
%ADD115C,0.00394*%
G36*
X369892Y-304526D02*
X370093Y-304557D01*
X370278Y-304603D01*
X370448Y-304649D01*
X370571Y-304711D01*
X370679Y-304757D01*
X370741Y-304788D01*
X370756Y-304804D01*
X370926Y-304943D01*
X371111Y-305112D01*
X371281Y-305328D01*
X371451Y-305529D01*
X371589Y-305730D01*
X371697Y-305884D01*
X371728Y-305945D01*
X371759Y-305992D01*
X371790Y-306023D01*
Y-304711D01*
X374074D01*
Y-314000D01*
X371620D01*
Y-311145D01*
Y-310713D01*
X371605Y-310328D01*
Y-309973D01*
X371589Y-309649D01*
X371574Y-309371D01*
X371559Y-309109D01*
X371543Y-308893D01*
X371512Y-308692D01*
X371497Y-308522D01*
X371481Y-308383D01*
X371466Y-308276D01*
X371451Y-308183D01*
X371435Y-308106D01*
Y-308060D01*
X371420Y-308044D01*
Y-308029D01*
X371343Y-307766D01*
X371250Y-307550D01*
X371158Y-307381D01*
X371065Y-307242D01*
X370988Y-307134D01*
X370926Y-307072D01*
X370880Y-307026D01*
X370864Y-307010D01*
X370725Y-306918D01*
X370571Y-306840D01*
X370417Y-306794D01*
X370278Y-306748D01*
X370170Y-306733D01*
X370062Y-306717D01*
X369985D01*
X369784Y-306733D01*
X369568Y-306779D01*
X369383Y-306856D01*
X369198Y-306918D01*
X369044Y-306995D01*
X368936Y-307072D01*
X368858Y-307118D01*
X368828Y-307134D01*
X368056Y-304989D01*
X368349Y-304835D01*
X368642Y-304711D01*
X368920Y-304634D01*
X369167Y-304572D01*
X369368Y-304541D01*
X369537Y-304511D01*
X369676D01*
X369892Y-304526D01*
D02*
G37*
G36*
X378934Y-314000D02*
X376481D01*
Y-304711D01*
X378934D01*
Y-314000D01*
D02*
G37*
G36*
X389843D02*
X387251D01*
Y-308553D01*
X381897D01*
Y-306393D01*
X387251D01*
Y-303338D01*
X381048D01*
Y-301178D01*
X389843D01*
Y-314000D01*
D02*
G37*
G36*
X385075Y-317147D02*
X385430Y-317193D01*
X385770Y-317270D01*
X386094Y-317378D01*
X386402Y-317486D01*
X386680Y-317625D01*
X386942Y-317764D01*
X387174Y-317903D01*
X387374Y-318057D01*
X387560Y-318196D01*
X387714Y-318335D01*
X387853Y-318443D01*
X387945Y-318551D01*
X388022Y-318628D01*
X388069Y-318674D01*
X388084Y-318690D01*
X388316Y-318998D01*
X388516Y-319353D01*
X388686Y-319739D01*
X388840Y-320140D01*
X388964Y-320557D01*
X389056Y-320973D01*
X389149Y-321406D01*
X389211Y-321807D01*
X389272Y-322208D01*
X389319Y-322578D01*
X389334Y-322902D01*
X389365Y-323195D01*
Y-323427D01*
X389380Y-323535D01*
Y-323612D01*
Y-323674D01*
Y-323720D01*
Y-323751D01*
Y-323766D01*
X389365Y-324383D01*
X389319Y-324970D01*
X389257Y-325494D01*
X389180Y-325988D01*
X389087Y-326436D01*
X388979Y-326852D01*
X388871Y-327207D01*
X388748Y-327531D01*
X388640Y-327809D01*
X388532Y-328056D01*
X388424Y-328256D01*
X388331Y-328426D01*
X388239Y-328550D01*
X388177Y-328642D01*
X388146Y-328704D01*
X388130Y-328719D01*
X387884Y-328982D01*
X387637Y-329213D01*
X387374Y-329414D01*
X387112Y-329583D01*
X386834Y-329722D01*
X386572Y-329846D01*
X386325Y-329954D01*
X386078Y-330031D01*
X385847Y-330093D01*
X385631Y-330139D01*
X385430Y-330170D01*
X385276Y-330185D01*
X385137Y-330201D01*
X385029Y-330216D01*
X384952D01*
X384612Y-330201D01*
X384304Y-330170D01*
X383995Y-330108D01*
X383717Y-330031D01*
X383455Y-329938D01*
X383208Y-329846D01*
X382977Y-329738D01*
X382776Y-329630D01*
X382591Y-329522D01*
X382437Y-329414D01*
X382298Y-329321D01*
X382190Y-329228D01*
X382097Y-329151D01*
X382020Y-329090D01*
X381989Y-329059D01*
X381974Y-329043D01*
X381773Y-328812D01*
X381588Y-328565D01*
X381434Y-328303D01*
X381310Y-328040D01*
X381187Y-327778D01*
X381094Y-327516D01*
X381017Y-327269D01*
X380956Y-327022D01*
X380909Y-326775D01*
X380878Y-326574D01*
X380848Y-326374D01*
X380832Y-326204D01*
X380817Y-326065D01*
Y-325973D01*
Y-325896D01*
Y-325880D01*
X380832Y-325541D01*
X380863Y-325217D01*
X380925Y-324908D01*
X380986Y-324630D01*
X381079Y-324353D01*
X381171Y-324106D01*
X381264Y-323874D01*
X381372Y-323674D01*
X381480Y-323488D01*
X381573Y-323319D01*
X381665Y-323180D01*
X381758Y-323072D01*
X381820Y-322979D01*
X381881Y-322902D01*
X381912Y-322871D01*
X381928Y-322856D01*
X382144Y-322655D01*
X382360Y-322470D01*
X382576Y-322316D01*
X382807Y-322177D01*
X383023Y-322069D01*
X383239Y-321976D01*
X383455Y-321884D01*
X383656Y-321822D01*
X383841Y-321776D01*
X384026Y-321745D01*
X384180Y-321714D01*
X384304Y-321699D01*
X384412Y-321683D01*
X384566D01*
X384813Y-321699D01*
X385060Y-321729D01*
X385276Y-321791D01*
X385492Y-321853D01*
X385878Y-322023D01*
X386063Y-322131D01*
X386217Y-322223D01*
X386356Y-322331D01*
X386479Y-322439D01*
X386588Y-322532D01*
X386680Y-322609D01*
X386757Y-322671D01*
X386804Y-322732D01*
X386834Y-322763D01*
X386850Y-322779D01*
X386819Y-322378D01*
X386773Y-322023D01*
X386742Y-321699D01*
X386680Y-321390D01*
X386634Y-321128D01*
X386572Y-320896D01*
X386510Y-320680D01*
X386464Y-320495D01*
X386402Y-320341D01*
X386356Y-320217D01*
X386294Y-320109D01*
X386263Y-320017D01*
X386217Y-319955D01*
X386186Y-319909D01*
X386171Y-319893D01*
Y-319878D01*
X386063Y-319755D01*
X385955Y-319647D01*
X385739Y-319461D01*
X385507Y-319338D01*
X385307Y-319261D01*
X385122Y-319199D01*
X384967Y-319184D01*
X384875Y-319168D01*
X384844D01*
X384628Y-319184D01*
X384443Y-319230D01*
X384288Y-319276D01*
X384150Y-319338D01*
X384042Y-319415D01*
X383949Y-319461D01*
X383903Y-319508D01*
X383887Y-319523D01*
X383764Y-319662D01*
X383656Y-319832D01*
X383579Y-320001D01*
X383517Y-320186D01*
X383471Y-320341D01*
X383440Y-320464D01*
X383424Y-320557D01*
Y-320572D01*
Y-320588D01*
X381048Y-320341D01*
X381110Y-320063D01*
X381187Y-319785D01*
X381264Y-319538D01*
X381357Y-319307D01*
X381449Y-319091D01*
X381557Y-318906D01*
X381665Y-318721D01*
X381773Y-318566D01*
X381866Y-318427D01*
X381959Y-318304D01*
X382051Y-318196D01*
X382128Y-318119D01*
X382190Y-318057D01*
X382236Y-317996D01*
X382267Y-317980D01*
X382282Y-317965D01*
X382468Y-317810D01*
X382653Y-317687D01*
X382853Y-317579D01*
X383054Y-317486D01*
X383471Y-317332D01*
X383841Y-317239D01*
X384026Y-317193D01*
X384180Y-317178D01*
X384319Y-317162D01*
X384443Y-317147D01*
X384551Y-317131D01*
X384690D01*
X385075Y-317147D01*
D02*
G37*
G36*
X400490D02*
X400814Y-317193D01*
X401107Y-317255D01*
X401385Y-317332D01*
X401647Y-317440D01*
X401894Y-317548D01*
X402110Y-317671D01*
X402295Y-317779D01*
X402480Y-317903D01*
X402619Y-318026D01*
X402758Y-318134D01*
X402866Y-318242D01*
X402943Y-318320D01*
X403005Y-318381D01*
X403036Y-318427D01*
X403051Y-318443D01*
X403267Y-318767D01*
X403468Y-319122D01*
X403638Y-319523D01*
X403777Y-319940D01*
X403900Y-320356D01*
X403993Y-320804D01*
X404085Y-321236D01*
X404147Y-321652D01*
X404193Y-322054D01*
X404239Y-322424D01*
X404255Y-322779D01*
X404286Y-323072D01*
Y-323319D01*
X404301Y-323411D01*
Y-323504D01*
Y-323566D01*
Y-323612D01*
Y-323643D01*
Y-323658D01*
X404286Y-324322D01*
X404255Y-324939D01*
X404193Y-325494D01*
X404116Y-326019D01*
X404039Y-326482D01*
X403946Y-326899D01*
X403838Y-327269D01*
X403730Y-327608D01*
X403622Y-327886D01*
X403514Y-328133D01*
X403422Y-328334D01*
X403344Y-328503D01*
X403267Y-328627D01*
X403206Y-328719D01*
X403175Y-328766D01*
X403159Y-328781D01*
X402943Y-329028D01*
X402696Y-329259D01*
X402450Y-329445D01*
X402203Y-329614D01*
X401956Y-329753D01*
X401709Y-329861D01*
X401462Y-329954D01*
X401230Y-330031D01*
X400999Y-330093D01*
X400799Y-330139D01*
X400613Y-330170D01*
X400459Y-330201D01*
X400336D01*
X400228Y-330216D01*
X400150D01*
X399811Y-330201D01*
X399487Y-330154D01*
X399194Y-330093D01*
X398916Y-330015D01*
X398654Y-329907D01*
X398407Y-329799D01*
X398191Y-329691D01*
X398006Y-329568D01*
X397820Y-329445D01*
X397682Y-329337D01*
X397543Y-329213D01*
X397435Y-329120D01*
X397358Y-329043D01*
X397296Y-328982D01*
X397265Y-328935D01*
X397250Y-328920D01*
X397034Y-328596D01*
X396833Y-328241D01*
X396663Y-327840D01*
X396524Y-327423D01*
X396401Y-326991D01*
X396293Y-326559D01*
X396216Y-326127D01*
X396139Y-325695D01*
X396092Y-325294D01*
X396046Y-324923D01*
X396015Y-324584D01*
X396000Y-324275D01*
Y-324029D01*
X395984Y-323936D01*
Y-323843D01*
Y-323782D01*
Y-323735D01*
Y-323705D01*
Y-323689D01*
X396000Y-323026D01*
X396031Y-322424D01*
X396092Y-321853D01*
X396185Y-321344D01*
X396277Y-320865D01*
X396386Y-320433D01*
X396494Y-320048D01*
X396602Y-319708D01*
X396725Y-319415D01*
X396833Y-319168D01*
X396941Y-318952D01*
X397034Y-318782D01*
X397111Y-318643D01*
X397172Y-318551D01*
X397219Y-318489D01*
X397234Y-318474D01*
X397435Y-318242D01*
X397666Y-318026D01*
X397898Y-317857D01*
X398129Y-317702D01*
X398376Y-317563D01*
X398623Y-317455D01*
X398854Y-317363D01*
X399086Y-317301D01*
X399302Y-317239D01*
X399502Y-317209D01*
X399688Y-317178D01*
X399842Y-317147D01*
X399965D01*
X400073Y-317131D01*
X400150D01*
X400490Y-317147D01*
D02*
G37*
G36*
X393824Y-330000D02*
X391371D01*
Y-327547D01*
X393824D01*
Y-330000D01*
D02*
G37*
G36*
X412417D02*
X409624D01*
X405057Y-317178D01*
X407819D01*
X410951Y-326667D01*
X414207Y-317178D01*
X417000D01*
X412417Y-330000D01*
D02*
G37*
G36*
X395707Y-302859D02*
Y-304711D01*
X396833D01*
Y-306671D01*
X395707D01*
Y-310729D01*
Y-310960D01*
Y-311176D01*
Y-311377D01*
X395691Y-311547D01*
Y-311716D01*
X395676Y-311855D01*
Y-311979D01*
X395660Y-312087D01*
Y-312256D01*
X395645Y-312364D01*
X395629Y-312442D01*
Y-312457D01*
X395583Y-312673D01*
X395537Y-312874D01*
X395475Y-313028D01*
X395429Y-313167D01*
X395367Y-313290D01*
X395336Y-313367D01*
X395305Y-313414D01*
X395290Y-313429D01*
X395182Y-313552D01*
X395058Y-313661D01*
X394935Y-313769D01*
X394812Y-313846D01*
X394704Y-313907D01*
X394611Y-313954D01*
X394534Y-313985D01*
X394518Y-314000D01*
X394318Y-314077D01*
X394102Y-314123D01*
X393901Y-314170D01*
X393716Y-314185D01*
X393546Y-314201D01*
X393423Y-314216D01*
X393315D01*
X392914Y-314201D01*
X392559Y-314154D01*
X392219Y-314108D01*
X391942Y-314031D01*
X391695Y-313969D01*
X391602Y-313938D01*
X391525Y-313923D01*
X391463Y-313892D01*
X391417Y-313877D01*
X391386Y-313861D01*
X391371D01*
X391587Y-311948D01*
X391818Y-312025D01*
X392019Y-312087D01*
X392189Y-312118D01*
X392327Y-312148D01*
X392435Y-312164D01*
X392513Y-312179D01*
X392574D01*
X392744Y-312164D01*
X392867Y-312118D01*
X392960Y-312087D01*
X392975Y-312071D01*
X392991D01*
X393099Y-311963D01*
X393161Y-311871D01*
X393192Y-311793D01*
X393207Y-311763D01*
Y-311716D01*
X393222Y-311639D01*
Y-311562D01*
X393238Y-311470D01*
Y-311253D01*
X393253Y-311022D01*
Y-310791D01*
Y-310605D01*
Y-310528D01*
Y-310467D01*
Y-310436D01*
Y-310420D01*
Y-306671D01*
X391571D01*
Y-304711D01*
X393253D01*
Y-301425D01*
X395707Y-302859D01*
D02*
G37*
G36*
X378934Y-303446D02*
X376481D01*
Y-301178D01*
X378934D01*
Y-303446D01*
D02*
G37*
G36*
X363813Y-304526D02*
X364137Y-304572D01*
X364430Y-304634D01*
X364723Y-304711D01*
X364985Y-304819D01*
X365248Y-304927D01*
X365479Y-305051D01*
X365680Y-305159D01*
X365865Y-305282D01*
X366035Y-305405D01*
X366174Y-305514D01*
X366297Y-305622D01*
X366390Y-305699D01*
X366451Y-305760D01*
X366498Y-305807D01*
X366513Y-305822D01*
X366729Y-306084D01*
X366914Y-306347D01*
X367069Y-306640D01*
X367207Y-306948D01*
X367331Y-307242D01*
X367423Y-307550D01*
X367501Y-307843D01*
X367562Y-308121D01*
X367609Y-308399D01*
X367655Y-308646D01*
X367686Y-308877D01*
X367701Y-309062D01*
Y-309232D01*
X367717Y-309340D01*
Y-309417D01*
Y-309448D01*
X367701Y-309803D01*
X367670Y-310142D01*
X367639Y-310451D01*
X367578Y-310760D01*
X367501Y-311037D01*
X367423Y-311300D01*
X367346Y-311547D01*
X367254Y-311763D01*
X367177Y-311963D01*
X367099Y-312133D01*
X367022Y-312287D01*
X366945Y-312411D01*
X366883Y-312519D01*
X366852Y-312580D01*
X366822Y-312627D01*
X366806Y-312642D01*
X366575Y-312920D01*
X366312Y-313167D01*
X366050Y-313367D01*
X365757Y-313552D01*
X365464Y-313707D01*
X365155Y-313830D01*
X364862Y-313938D01*
X364569Y-314015D01*
X364307Y-314077D01*
X364044Y-314139D01*
X363813Y-314170D01*
X363612Y-314185D01*
X363442Y-314201D01*
X363319Y-314216D01*
X363211D01*
X362933Y-314201D01*
X362655Y-314185D01*
X362162Y-314108D01*
X361946Y-314062D01*
X361730Y-314000D01*
X361545Y-313938D01*
X361359Y-313861D01*
X361205Y-313799D01*
X361066Y-313738D01*
X360943Y-313676D01*
X360850Y-313630D01*
X360773Y-313583D01*
X360711Y-313552D01*
X360681Y-313522D01*
X360665D01*
X360480Y-313383D01*
X360310Y-313229D01*
X360002Y-312905D01*
X359739Y-312565D01*
X359539Y-312241D01*
X359369Y-311932D01*
X359307Y-311809D01*
X359261Y-311685D01*
X359215Y-311593D01*
X359184Y-311531D01*
X359168Y-311485D01*
Y-311470D01*
X361622Y-311053D01*
X361714Y-311300D01*
X361807Y-311516D01*
X361915Y-311685D01*
X362007Y-311824D01*
X362100Y-311932D01*
X362177Y-312010D01*
X362224Y-312056D01*
X362239Y-312071D01*
X362393Y-312179D01*
X362547Y-312256D01*
X362717Y-312303D01*
X362856Y-312334D01*
X362995Y-312364D01*
X363103Y-312380D01*
X363196D01*
X363504Y-312349D01*
X363782Y-312287D01*
X364013Y-312195D01*
X364229Y-312071D01*
X364384Y-311963D01*
X364507Y-311871D01*
X364584Y-311809D01*
X364615Y-311778D01*
X364800Y-311531D01*
X364955Y-311253D01*
X365047Y-310976D01*
X365124Y-310698D01*
X365171Y-310451D01*
X365186Y-310343D01*
Y-310250D01*
X365201Y-310173D01*
Y-310112D01*
Y-310081D01*
Y-310065D01*
X359045D01*
Y-309556D01*
X359076Y-309078D01*
X359138Y-308630D01*
X359199Y-308229D01*
X359292Y-307843D01*
X359384Y-307504D01*
X359492Y-307195D01*
X359600Y-306918D01*
X359708Y-306671D01*
X359816Y-306470D01*
X359924Y-306285D01*
X360017Y-306146D01*
X360094Y-306023D01*
X360156Y-305945D01*
X360187Y-305899D01*
X360202Y-305884D01*
X360434Y-305637D01*
X360681Y-305436D01*
X360943Y-305251D01*
X361221Y-305097D01*
X361483Y-304958D01*
X361761Y-304850D01*
X362023Y-304757D01*
X362285Y-304680D01*
X362532Y-304619D01*
X362748Y-304588D01*
X362949Y-304557D01*
X363134Y-304526D01*
X363273D01*
X363381Y-304511D01*
X363473D01*
X363813Y-304526D01*
D02*
G37*
G36*
X398715D02*
X398916Y-304557D01*
X399101Y-304603D01*
X399271Y-304649D01*
X399394Y-304711D01*
X399502Y-304757D01*
X399564Y-304788D01*
X399580Y-304804D01*
X399749Y-304943D01*
X399934Y-305112D01*
X400104Y-305328D01*
X400274Y-305529D01*
X400413Y-305730D01*
X400521Y-305884D01*
X400552Y-305945D01*
X400583Y-305992D01*
X400613Y-306023D01*
Y-304711D01*
X402897D01*
Y-314000D01*
X400444D01*
Y-311145D01*
Y-310713D01*
X400428Y-310328D01*
Y-309973D01*
X400413Y-309649D01*
X400397Y-309371D01*
X400382Y-309109D01*
X400366Y-308893D01*
X400336Y-308692D01*
X400320Y-308522D01*
X400305Y-308383D01*
X400289Y-308276D01*
X400274Y-308183D01*
X400258Y-308106D01*
Y-308060D01*
X400243Y-308044D01*
Y-308029D01*
X400166Y-307766D01*
X400073Y-307550D01*
X399981Y-307381D01*
X399888Y-307242D01*
X399811Y-307134D01*
X399749Y-307072D01*
X399703Y-307026D01*
X399688Y-307010D01*
X399549Y-306918D01*
X399394Y-306840D01*
X399240Y-306794D01*
X399101Y-306748D01*
X398993Y-306733D01*
X398885Y-306717D01*
X398808D01*
X398607Y-306733D01*
X398391Y-306779D01*
X398206Y-306856D01*
X398021Y-306918D01*
X397867Y-306995D01*
X397759Y-307072D01*
X397682Y-307118D01*
X397651Y-307134D01*
X396879Y-304989D01*
X397172Y-304835D01*
X397466Y-304711D01*
X397743Y-304634D01*
X397990Y-304572D01*
X398191Y-304541D01*
X398361Y-304511D01*
X398499D01*
X398715Y-304526D01*
D02*
G37*
G36*
X417000Y-314000D02*
X414269D01*
X413204Y-311084D01*
X408081D01*
X406971Y-314000D01*
X404147D01*
X409270Y-301178D01*
X412016D01*
X417000Y-314000D01*
D02*
G37*
%LPC*%
G36*
X363396Y-306393D02*
X363319D01*
X363041Y-306424D01*
X362794Y-306486D01*
X362578Y-306563D01*
X362393Y-306671D01*
X362239Y-306779D01*
X362131Y-306856D01*
X362069Y-306918D01*
X362038Y-306948D01*
X361869Y-307180D01*
X361730Y-307442D01*
X361637Y-307705D01*
X361560Y-307967D01*
X361514Y-308198D01*
X361498Y-308306D01*
Y-308399D01*
X361483Y-308461D01*
Y-308522D01*
Y-308553D01*
Y-308569D01*
X365171D01*
X365155Y-308214D01*
X365093Y-307890D01*
X365001Y-307627D01*
X364908Y-307396D01*
X364816Y-307211D01*
X364723Y-307087D01*
X364661Y-307010D01*
X364646Y-306979D01*
X364445Y-306779D01*
X364214Y-306640D01*
X363998Y-306532D01*
X363782Y-306470D01*
X363597Y-306424D01*
X363458Y-306408D01*
X363396Y-306393D01*
D02*
G37*
G36*
X384983Y-323488D02*
X384952D01*
X384690Y-323519D01*
X384443Y-323581D01*
X384242Y-323674D01*
X384057Y-323782D01*
X383918Y-323890D01*
X383810Y-323982D01*
X383733Y-324044D01*
X383717Y-324075D01*
X383625Y-324198D01*
X383548Y-324322D01*
X383424Y-324615D01*
X383347Y-324908D01*
X383285Y-325217D01*
X383255Y-325479D01*
X383239Y-325602D01*
X383224Y-325711D01*
Y-325788D01*
Y-325849D01*
Y-325896D01*
Y-325911D01*
Y-326127D01*
X383239Y-326328D01*
X383301Y-326698D01*
X383363Y-326991D01*
X383455Y-327238D01*
X383532Y-327423D01*
X383610Y-327547D01*
X383671Y-327624D01*
X383687Y-327655D01*
X383872Y-327824D01*
X384057Y-327963D01*
X384258Y-328056D01*
X384427Y-328117D01*
X384582Y-328148D01*
X384720Y-328164D01*
X384798Y-328179D01*
X384828D01*
X385091Y-328148D01*
X385322Y-328071D01*
X385538Y-327979D01*
X385723Y-327855D01*
X385878Y-327732D01*
X386001Y-327639D01*
X386063Y-327562D01*
X386094Y-327531D01*
X386279Y-327269D01*
X386402Y-326976D01*
X386495Y-326667D01*
X386572Y-326374D01*
X386603Y-326112D01*
X386618Y-325988D01*
Y-325896D01*
X386634Y-325803D01*
Y-325741D01*
Y-325711D01*
Y-325695D01*
X386618Y-325309D01*
X386557Y-324970D01*
X386479Y-324692D01*
X386387Y-324461D01*
X386310Y-324275D01*
X386233Y-324152D01*
X386171Y-324075D01*
X386155Y-324044D01*
X385955Y-323859D01*
X385754Y-323720D01*
X385554Y-323627D01*
X385368Y-323550D01*
X385199Y-323519D01*
X385075Y-323504D01*
X384983Y-323488D01*
D02*
G37*
G36*
X410674Y-304171D02*
X408899Y-308924D01*
X412402D01*
X410674Y-304171D01*
D02*
G37*
G36*
X400228Y-319168D02*
X400150D01*
X399981Y-319184D01*
X399842Y-319214D01*
X399703Y-319261D01*
X399595Y-319307D01*
X399487Y-319369D01*
X399425Y-319415D01*
X399379Y-319446D01*
X399363Y-319461D01*
X399240Y-319585D01*
X399132Y-319755D01*
X399040Y-319940D01*
X398947Y-320125D01*
X398885Y-320310D01*
X398839Y-320449D01*
X398808Y-320511D01*
Y-320557D01*
X398793Y-320572D01*
Y-320588D01*
X398746Y-320757D01*
X398715Y-320958D01*
X398685Y-321189D01*
X398654Y-321436D01*
X398623Y-321946D01*
X398592Y-322455D01*
X398577Y-322702D01*
Y-322933D01*
X398561Y-323134D01*
Y-323319D01*
Y-323473D01*
Y-323597D01*
Y-323658D01*
Y-323689D01*
Y-324090D01*
X398577Y-324476D01*
X398592Y-324816D01*
X398607Y-325140D01*
X398623Y-325433D01*
X398638Y-325695D01*
X398669Y-325926D01*
X398685Y-326127D01*
X398715Y-326312D01*
X398746Y-326466D01*
X398762Y-326590D01*
X398777Y-326698D01*
X398793Y-326775D01*
X398808Y-326837D01*
X398823Y-326868D01*
Y-326883D01*
X398901Y-327145D01*
X398978Y-327361D01*
X399070Y-327531D01*
X399163Y-327670D01*
X399240Y-327778D01*
X399302Y-327840D01*
X399348Y-327886D01*
X399363Y-327902D01*
X399487Y-327994D01*
X399626Y-328056D01*
X399765Y-328117D01*
X399888Y-328148D01*
X399996Y-328164D01*
X400073Y-328179D01*
X400150D01*
X400305Y-328164D01*
X400459Y-328133D01*
X400598Y-328087D01*
X400706Y-328040D01*
X400799Y-327994D01*
X400876Y-327948D01*
X400922Y-327917D01*
X400937Y-327902D01*
X401061Y-327778D01*
X401169Y-327608D01*
X401261Y-327423D01*
X401354Y-327238D01*
X401416Y-327068D01*
X401462Y-326929D01*
X401477Y-326868D01*
X401493Y-326821D01*
X401508Y-326806D01*
Y-326791D01*
X401539Y-326621D01*
X401585Y-326420D01*
X401601Y-326189D01*
X401632Y-325942D01*
X401678Y-325433D01*
X401693Y-324923D01*
X401709Y-324677D01*
Y-324445D01*
X401724Y-324245D01*
Y-324060D01*
Y-323905D01*
Y-323782D01*
Y-323720D01*
Y-323689D01*
Y-323288D01*
X401709Y-322902D01*
X401693Y-322563D01*
X401678Y-322239D01*
X401663Y-321946D01*
X401647Y-321683D01*
X401616Y-321452D01*
X401601Y-321236D01*
X401570Y-321051D01*
X401555Y-320896D01*
X401539Y-320773D01*
X401508Y-320665D01*
X401493Y-320588D01*
Y-320526D01*
X401477Y-320495D01*
Y-320480D01*
X401400Y-320217D01*
X401323Y-320001D01*
X401230Y-319832D01*
X401138Y-319693D01*
X401076Y-319585D01*
X401015Y-319523D01*
X400968Y-319477D01*
X400953Y-319461D01*
X400814Y-319369D01*
X400675Y-319292D01*
X400536Y-319245D01*
X400413Y-319199D01*
X400305Y-319184D01*
X400228Y-319168D01*
D02*
G37*
%LPD*%
D66*
X318638Y-56000D02*
X323362D01*
X277000Y-55362D02*
Y-50638D01*
X317000Y-115362D02*
Y-110638D01*
X270638Y-110000D02*
X275362D01*
X332238Y-293800D02*
X336962D01*
X293800Y-73762D02*
Y-69038D01*
X346638Y-37000D02*
X351362D01*
X388238Y-77000D02*
X392962D01*
X46000Y-268362D02*
Y-263638D01*
Y-261362D02*
Y-256638D01*
Y-253362D02*
Y-248638D01*
Y-245362D02*
Y-240638D01*
X235638Y-301000D02*
X240362D01*
X243638D02*
X248362D01*
X251638D02*
X256362D01*
X259638D02*
X264362D01*
D70*
X300300Y-64900D02*
Y-61901D01*
X298800D01*
X298301Y-62401D01*
Y-63401D01*
X298800Y-63900D01*
X300300D01*
X299300D02*
X298301Y-64900D01*
X295302Y-61901D02*
X297301D01*
Y-63401D01*
X296301Y-62901D01*
X295801D01*
X295302Y-63401D01*
Y-64400D01*
X295801Y-64900D01*
X296801D01*
X297301Y-64400D01*
X292802Y-64900D02*
Y-61901D01*
X294302Y-63401D01*
X292303D01*
X249800Y-293800D02*
Y-290801D01*
X248301D01*
X247801Y-291301D01*
Y-292301D01*
X248301Y-292800D01*
X249800D01*
X248800D02*
X247801Y-293800D01*
X246801Y-291301D02*
X246301Y-290801D01*
X245302D01*
X244802Y-291301D01*
Y-291801D01*
X245302Y-292301D01*
X245801D01*
X245302D01*
X244802Y-292800D01*
Y-293300D01*
X245302Y-293800D01*
X246301D01*
X246801Y-293300D01*
X243802D02*
X243302Y-293800D01*
X242302D01*
X241803Y-293300D01*
Y-291301D01*
X242302Y-290801D01*
X243302D01*
X243802Y-291301D01*
Y-291801D01*
X243302Y-292301D01*
X241803D01*
X267400Y-293800D02*
Y-290801D01*
X265900D01*
X265401Y-291301D01*
Y-292301D01*
X265900Y-292800D01*
X267400D01*
X266400D02*
X265401Y-293800D01*
X264401Y-291301D02*
X263901Y-290801D01*
X262901D01*
X262402Y-291301D01*
Y-291801D01*
X262901Y-292301D01*
X263401D01*
X262901D01*
X262402Y-292800D01*
Y-293300D01*
X262901Y-293800D01*
X263901D01*
X264401Y-293300D01*
X261402Y-291301D02*
X260902Y-290801D01*
X259902D01*
X259403Y-291301D01*
Y-291801D01*
X259902Y-292301D01*
X259403Y-292800D01*
Y-293300D01*
X259902Y-293800D01*
X260902D01*
X261402Y-293300D01*
Y-292800D01*
X260902Y-292301D01*
X261402Y-291801D01*
Y-291301D01*
X260902Y-292301D02*
X259902D01*
X62600Y-261000D02*
Y-258001D01*
X61101D01*
X60601Y-258501D01*
Y-259501D01*
X61101Y-260000D01*
X62600D01*
X61600D02*
X60601Y-261000D01*
X59601Y-258501D02*
X59101Y-258001D01*
X58101D01*
X57602Y-258501D01*
Y-259001D01*
X58101Y-259501D01*
X58601D01*
X58101D01*
X57602Y-260000D01*
Y-260500D01*
X58101Y-261000D01*
X59101D01*
X59601Y-260500D01*
X54603Y-258001D02*
X56602D01*
Y-259501D01*
X55602Y-259001D01*
X55102D01*
X54603Y-259501D01*
Y-260500D01*
X55102Y-261000D01*
X56102D01*
X56602Y-260500D01*
X61800Y-252200D02*
Y-249201D01*
X60300D01*
X59801Y-249701D01*
Y-250700D01*
X60300Y-251200D01*
X61800D01*
X60800D02*
X59801Y-252200D01*
X58801Y-249701D02*
X58301Y-249201D01*
X57301D01*
X56802Y-249701D01*
Y-250201D01*
X57301Y-250700D01*
X57801D01*
X57301D01*
X56802Y-251200D01*
Y-251700D01*
X57301Y-252200D01*
X58301D01*
X58801Y-251700D01*
X54302Y-252200D02*
Y-249201D01*
X55802Y-250700D01*
X53803D01*
X393900Y-67300D02*
Y-64301D01*
X392401D01*
X391901Y-64801D01*
Y-65800D01*
X392401Y-66300D01*
X393900D01*
X392900D02*
X391901Y-67300D01*
X388902D02*
X390901D01*
X388902Y-65301D01*
Y-64801D01*
X389402Y-64301D01*
X390401D01*
X390901Y-64801D01*
X387902D02*
X387402Y-64301D01*
X386402D01*
X385903Y-64801D01*
Y-65301D01*
X386402Y-65800D01*
X385903Y-66300D01*
Y-66800D01*
X386402Y-67300D01*
X387402D01*
X387902Y-66800D01*
Y-66300D01*
X387402Y-65800D01*
X387902Y-65301D01*
Y-64801D01*
X387402Y-65800D02*
X386402D01*
X352300Y-27300D02*
Y-24301D01*
X350800D01*
X350301Y-24801D01*
Y-25800D01*
X350800Y-26300D01*
X352300D01*
X351300D02*
X350301Y-27300D01*
X347302D02*
X349301D01*
X347302Y-25301D01*
Y-24801D01*
X347801Y-24301D01*
X348801D01*
X349301Y-24801D01*
X344802Y-27300D02*
Y-24301D01*
X346302Y-25800D01*
X344303D01*
X337900Y-284100D02*
Y-281101D01*
X336401D01*
X335901Y-281601D01*
Y-282600D01*
X336401Y-283100D01*
X337900D01*
X336900D02*
X335901Y-284100D01*
X332902Y-281101D02*
X334901D01*
Y-282600D01*
X333901Y-282101D01*
X333401D01*
X332902Y-282600D01*
Y-283600D01*
X333401Y-284100D01*
X334401D01*
X334901Y-283600D01*
X322301Y-43801D02*
X322800Y-43301D01*
X323800D01*
X324300Y-43801D01*
Y-45800D01*
X323800Y-46300D01*
X322800D01*
X322301Y-45800D01*
X319801Y-46300D02*
Y-43301D01*
X321301Y-44800D01*
X319302D01*
X316802Y-46300D02*
Y-43301D01*
X318302Y-44800D01*
X316303D01*
X281501Y-44001D02*
X282000Y-43501D01*
X283000D01*
X283500Y-44001D01*
Y-46000D01*
X283000Y-46500D01*
X282000D01*
X281501Y-46000D01*
X279001Y-46500D02*
Y-43501D01*
X280501Y-45000D01*
X278502D01*
X277502Y-44001D02*
X277002Y-43501D01*
X276002D01*
X275503Y-44001D01*
Y-44501D01*
X276002Y-45000D01*
X276502D01*
X276002D01*
X275503Y-45500D01*
Y-46000D01*
X276002Y-46500D01*
X277002D01*
X277502Y-46000D01*
X321501Y-104001D02*
X322001Y-103501D01*
X323000D01*
X323500Y-104001D01*
Y-106000D01*
X323000Y-106500D01*
X322001D01*
X321501Y-106000D01*
X320501Y-104001D02*
X320001Y-103501D01*
X319002D01*
X318502Y-104001D01*
Y-104501D01*
X319002Y-105000D01*
X319501D01*
X319002D01*
X318502Y-105500D01*
Y-106000D01*
X319002Y-106500D01*
X320001D01*
X320501Y-106000D01*
X317502Y-104001D02*
X317002Y-103501D01*
X316002D01*
X315503Y-104001D01*
Y-104501D01*
X316002Y-105000D01*
X315503Y-105500D01*
Y-106000D01*
X316002Y-106500D01*
X317002D01*
X317502Y-106000D01*
Y-105500D01*
X317002Y-105000D01*
X317502Y-104501D01*
Y-104001D01*
X317002Y-105000D02*
X316002D01*
X274301Y-97801D02*
X274800Y-97301D01*
X275800D01*
X276300Y-97801D01*
Y-99800D01*
X275800Y-100300D01*
X274800D01*
X274301Y-99800D01*
X273301Y-97801D02*
X272801Y-97301D01*
X271801D01*
X271302Y-97801D01*
Y-98301D01*
X271801Y-98800D01*
X272301D01*
X271801D01*
X271302Y-99300D01*
Y-99800D01*
X271801Y-100300D01*
X272801D01*
X273301Y-99800D01*
X270302Y-97301D02*
X268303D01*
Y-97801D01*
X270302Y-99800D01*
Y-100300D01*
X238784Y-288294D02*
X239283Y-287794D01*
X240283D01*
X240783Y-288294D01*
Y-290293D01*
X240283Y-290793D01*
X239283D01*
X238784Y-290293D01*
X235785Y-290793D02*
X237784D01*
X235785Y-288793D01*
Y-288294D01*
X236284Y-287794D01*
X237284D01*
X237784Y-288294D01*
X234785D02*
X234285Y-287794D01*
X233285D01*
X232785Y-288294D01*
Y-288793D01*
X233285Y-289293D01*
X232785Y-289793D01*
Y-290293D01*
X233285Y-290793D01*
X234285D01*
X234785Y-290293D01*
Y-289793D01*
X234285Y-289293D01*
X234785Y-288793D01*
Y-288294D01*
X234285Y-289293D02*
X233285D01*
X256601Y-291301D02*
X257101Y-290801D01*
X258100D01*
X258600Y-291301D01*
Y-293300D01*
X258100Y-293800D01*
X257101D01*
X256601Y-293300D01*
X253602Y-293800D02*
X255601D01*
X253602Y-291801D01*
Y-291301D01*
X254101Y-290801D01*
X255101D01*
X255601Y-291301D01*
X252602Y-290801D02*
X250603D01*
Y-291301D01*
X252602Y-293300D01*
Y-293800D01*
X36601Y-257701D02*
X37100Y-257201D01*
X38100D01*
X38600Y-257701D01*
Y-259700D01*
X38100Y-260200D01*
X37100D01*
X36601Y-259700D01*
X35601Y-260200D02*
X34601D01*
X35101D01*
Y-257201D01*
X35601Y-257701D01*
X33102Y-259700D02*
X32602Y-260200D01*
X31602D01*
X31102Y-259700D01*
Y-257701D01*
X31602Y-257201D01*
X32602D01*
X33102Y-257701D01*
Y-258201D01*
X32602Y-258700D01*
X31102D01*
X47801Y-236901D02*
X48300Y-236401D01*
X49300D01*
X49800Y-236901D01*
Y-238900D01*
X49300Y-239400D01*
X48300D01*
X47801Y-238900D01*
X46801Y-239400D02*
X45801D01*
X46301D01*
Y-236401D01*
X46801Y-236901D01*
X44302D02*
X43802Y-236401D01*
X42802D01*
X42302Y-236901D01*
Y-237401D01*
X42802Y-237900D01*
X42302Y-238400D01*
Y-238900D01*
X42802Y-239400D01*
X43802D01*
X44302Y-238900D01*
Y-238400D01*
X43802Y-237900D01*
X44302Y-237401D01*
Y-236901D01*
X43802Y-237900D02*
X42802D01*
X218100Y-254200D02*
Y-251201D01*
X216600D01*
X216101Y-251701D01*
Y-252700D01*
X216600Y-253200D01*
X218100D01*
X217100D02*
X216101Y-254200D01*
X213102Y-251201D02*
X214101Y-251701D01*
X215101Y-252700D01*
Y-253700D01*
X214601Y-254200D01*
X213601D01*
X213102Y-253700D01*
Y-253200D01*
X213601Y-252700D01*
X215101D01*
X212102Y-251701D02*
X211602Y-251201D01*
X210602D01*
X210103Y-251701D01*
Y-253700D01*
X210602Y-254200D01*
X211602D01*
X212102Y-253700D01*
Y-251701D01*
X205300Y-228200D02*
Y-231199D01*
X206800D01*
X207299Y-230699D01*
Y-229699D01*
X206800Y-229200D01*
X205300D01*
X206300D02*
X207299Y-228200D01*
X210298Y-231199D02*
X209299Y-230699D01*
X208299Y-229699D01*
Y-228700D01*
X208799Y-228200D01*
X209799D01*
X210298Y-228700D01*
Y-229200D01*
X209799Y-229699D01*
X208299D01*
X211298Y-228200D02*
X212298D01*
X211798D01*
Y-231199D01*
X211298Y-230699D01*
D115*
X205536Y-257736D02*
G03*
X205536Y-257736I-197J0D01*
G01*
X206536Y-213736D02*
G03*
X206536Y-213736I-197J0D01*
G01*
M02*
