M48
;Layer_Color=9474304
;FILE_FORMAT=2:5
INCH,TZ
;TYPE=PLATED
T1F00S00C0.00800
T2F00S00C0.01500
T3F00S00C0.03000
T4F00S00C0.03150
T5F00S00C0.03500
T6F00S00C0.03543
T7F00S00C0.03937
T8F00S00C0.04331
T9F00S00C0.04724
T10F00S00C0.05000
T11F00S00C0.05906
T12F00S00C0.07000
T13F00S00C0.07874
%
T01
X230000Y-302800
X238000Y-293200
Y-286800
X218347Y-259653
X221000Y-230600
X221800Y-217800
X233000Y-223400
X235400Y-222600
X233800Y-205800
X231400Y-202600
X262600Y-211400
Y-225000
X274600Y-232200
X273000Y-206600
Y-197000
X280000Y-197162
X296200Y-211400
X301800Y-245800
X305800Y-255400
X329800Y-249000
X341800Y-242600
X343400Y-240200
X345800Y-232200
X347400Y-221000
X337000Y-214600
X270600Y-262600
X217000Y-253000
X212575Y-245375
X213800Y-239400
X209425Y-231775
X210425Y-225625
X204200Y-210600
X201800Y-212200
X196200Y-237000
X193800Y-250600
X201000Y-254600
X200200Y-265800
X130600Y-214600
X125800Y-218600
X128200Y-201800
X121000Y-199400
X118457Y-202743
X113000Y-202311
X112200Y-197800
X108200Y-214600
X99400Y-217000
X97000Y-219400
Y-214400
X91400Y-215400
X89000Y-220200
X92233Y-227000
X101229Y-221571
X77800Y-213000
X61800Y-217800
X48200Y-273000
X41000Y-269800
X57000Y-181000
X62600Y-152200
X78600Y-150600
X92200Y-144200
X91400Y-157800
X103400Y-179400
X113000Y-188200
X97000Y-191457
X89000Y-192200
X132200Y-185800
X156200
X157949Y-187850
X164700Y-160200
X147400
X156200Y-145000
X147400Y-135244
Y-116200
X152000Y-106400
X160200Y-103400
X159400Y-101000
X162600Y-105000
X163400Y-129000
X173800Y-122600
X207400Y-117800
X217000Y-144200
X207400Y-161800
X195400Y-151022
X215400Y-191400
X134522Y-148122
X113878Y-125878
X104743Y-124457
X89800Y-111400
X93800Y-95400
X92200Y-93000
X96200Y-97000
X128200Y-99400
X125000Y-106600
X152000Y-84400
X219400Y-107400
X217800Y-120200
X221000
X235400Y-122600
Y-113800
X254600Y-122600
X264200Y-128200
X277800Y-119400
X278600Y-111400
X277800Y-109000
X288142Y-108942
X291400Y-112200
X293800Y-113800
X296016Y-115584
X298600Y-117000
X300200Y-114600
X302600Y-113800
X303971Y-111890
X307400Y-109800
X313000Y-108200
X313064Y-117356
X313000Y-125000
X325800Y-122600
X343400
X340200Y-128200
X347400Y-129000
X350600Y-125800
X362600Y-105000
X346600Y-97000
X343400
X340200
X337800
X334600
X331400
X329000Y-97800
X325000
X311886Y-98964
X309000Y-99400
X305858Y-100258
X286173Y-99773
X285342Y-91858
X283100Y-89758
X278950Y-91858
X280047Y-80047
X283400Y-72200
X286043Y-66357
X290110Y-65490
X280543Y-58257
X265000Y-59400
X267400Y-64200
Y-41800
X265000Y-37000
X273406Y-36594
X244150Y-46550
X245650Y-48350
X247200Y-50400
X249000Y-52200
X315400Y-59400
X311764Y-65364
X321000Y-65800
X322627Y-72092
X313864Y-73000
X314879Y-87921
X333800Y-80200
X349000Y-81000
X344657Y-40543
X319977Y-44423
X318600Y-46600
X303400Y-135400
Y-141000
X291400Y-136200
X293000Y-149800
X283400Y-153000
X301000Y-157800
X298584Y-165000
X301800Y-174600
X288142Y-188258
X277800Y-182600
X262600Y-172200
X252978Y-166600
X253800Y-180200
X249800Y-184200
X229000Y-175543
X221257Y-176200
Y-144200
X230600Y-141000
X319400Y-161800
X368200Y-162600
Y-150600
X395400Y-73000
X273406Y-20200
T02
X270600Y-305800
X309800Y-276200
X309000Y-227400
X314760Y-219000
X314600Y-211400
X309000Y-210600
X187400Y-196200
X109800Y-81800
X248200Y-41000
X254600Y-149800
X273800Y-131400
X324200Y-192200
X345800Y-25800
X265000Y-19400
T03
X340039Y-198000
X369961
T04
X389000Y-289000
Y-279000
Y-269000
Y-259000
Y-249000
Y-239000
Y-229000
Y-219000
Y-209000
Y-199000
X224055Y-287000
X214213
X204370
X194528
X389000Y-189000
T05
X368200Y-269800
X179400Y-297800
X140113Y-193087
X95400Y-237800
X130600Y-64200
X227148Y-49252
T06
X312200Y-141200
Y-136200
Y-131200
X356000Y-129000
Y-119000
Y-109000
X368000
Y-119000
Y-129000
Y-139000
X356000
T07
X239000Y-313000
X248843
X258685
X255842Y-287000
X246000
X216843Y-313000
X207000
X184685
X174843
X165000
Y-287000
X174843
X184685
T08
X80000Y-80000
Y-60000
T09
X403000Y-173000
Y-147409
T10
X161000Y-38600
X168200Y-23400
T11
X321055Y-307945
X315693Y-295000
X321055Y-282055
X346945
X352307Y-295000
X346945Y-307945
X52000Y-288000
X22000
X45000Y-204000
Y-174000
Y-138000
Y-108000
T12
X83410Y-305000
X99000
X125409
X141000
X29000Y-266000
Y-250410
Y-234819
T13
X288200Y-315400
X177000Y-221000
X69000Y-197000
X55000Y-65000
X356200Y-166600
X321000Y-13000
X181000
X55000Y-27598
M30
