%FSLAX25Y25*%
%MOIN*%
G70*
G01*
G75*
%ADD10R,0.02362X0.05512*%
%ADD11R,0.02362X0.07087*%
G04:AMPARAMS|DCode=12|XSize=74.8mil|YSize=125.98mil|CornerRadius=0mil|HoleSize=0mil|Usage=FLASHONLY|Rotation=180.000|XOffset=0mil|YOffset=0mil|HoleType=Round|Shape=Octagon|*
%AMOCTAGOND12*
4,1,8,0.01870,-0.06299,-0.01870,-0.06299,-0.03740,-0.04429,-0.03740,0.04429,-0.01870,0.06299,0.01870,0.06299,0.03740,0.04429,0.03740,-0.04429,0.01870,-0.06299,0.0*
%
%ADD12OCTAGOND12*%

%ADD13R,0.16339X0.07284*%
%ADD14R,0.08465X0.11221*%
%ADD15R,0.11221X0.08465*%
%ADD16R,0.04724X0.05512*%
%ADD17R,0.05512X0.04724*%
%ADD18R,0.06693X0.06693*%
%ADD19R,0.21654X0.09843*%
%ADD20O,0.05709X0.02362*%
%ADD21R,0.09921X0.13425*%
%ADD22R,0.02362X0.04134*%
%ADD23O,0.00984X0.06102*%
%ADD24O,0.06102X0.00984*%
%ADD25R,0.03150X0.07874*%
%ADD26R,0.07087X0.09449*%
%ADD27R,0.03543X0.03740*%
%ADD28R,0.02362X0.03347*%
%ADD29R,0.40945X0.31496*%
%ADD30R,0.03937X0.11417*%
%ADD31R,0.09449X0.07087*%
G04:AMPARAMS|DCode=32|XSize=25.59mil|YSize=64.96mil|CornerRadius=1.92mil|HoleSize=0mil|Usage=FLASHONLY|Rotation=0.000|XOffset=0mil|YOffset=0mil|HoleType=Round|Shape=RoundedRectangle|*
%AMROUNDEDRECTD32*
21,1,0.02559,0.06112,0,0,0.0*
21,1,0.02175,0.06496,0,0,0.0*
1,1,0.00384,0.01088,-0.03056*
1,1,0.00384,-0.01088,-0.03056*
1,1,0.00384,-0.01088,0.03056*
1,1,0.00384,0.01088,0.03056*
%
%ADD32ROUNDEDRECTD32*%
%ADD33O,0.02756X0.09843*%
G04:AMPARAMS|DCode=34|XSize=11.81mil|YSize=59.06mil|CornerRadius=2.95mil|HoleSize=0mil|Usage=FLASHONLY|Rotation=0.000|XOffset=0mil|YOffset=0mil|HoleType=Round|Shape=RoundedRectangle|*
%AMROUNDEDRECTD34*
21,1,0.01181,0.05315,0,0,0.0*
21,1,0.00591,0.05906,0,0,0.0*
1,1,0.00591,0.00295,-0.02658*
1,1,0.00591,-0.00295,-0.02658*
1,1,0.00591,-0.00295,0.02658*
1,1,0.00591,0.00295,0.02658*
%
%ADD34ROUNDEDRECTD34*%
G04:AMPARAMS|DCode=35|XSize=11.81mil|YSize=59.06mil|CornerRadius=2.95mil|HoleSize=0mil|Usage=FLASHONLY|Rotation=270.000|XOffset=0mil|YOffset=0mil|HoleType=Round|Shape=RoundedRectangle|*
%AMROUNDEDRECTD35*
21,1,0.01181,0.05315,0,0,270.0*
21,1,0.00591,0.05906,0,0,270.0*
1,1,0.00591,-0.02658,-0.00295*
1,1,0.00591,-0.02658,0.00295*
1,1,0.00591,0.02658,0.00295*
1,1,0.00591,0.02658,-0.00295*
%
%ADD35ROUNDEDRECTD35*%
%ADD36R,0.09449X0.12992*%
%ADD37R,0.09449X0.03937*%
%ADD38O,0.08661X0.02362*%
%ADD39R,0.07874X0.02992*%
%ADD40O,0.08858X0.02362*%
%ADD41R,0.02362X0.04528*%
%ADD42R,0.03543X0.07087*%
%ADD43R,0.21654X0.23228*%
%ADD44R,0.04528X0.02362*%
%ADD45R,0.19685X0.31496*%
%ADD46R,0.20276X0.09252*%
%ADD47R,0.09843X0.05512*%
%ADD48R,0.07874X0.03150*%
%ADD49R,0.05118X0.03937*%
%ADD50R,0.13780X0.13780*%
%ADD51O,0.07480X0.02362*%
%ADD52C,0.02000*%
%ADD53C,0.01000*%
%ADD54C,0.02500*%
%ADD55C,0.04000*%
%ADD56C,0.10000*%
%ADD57C,0.12000*%
%ADD58C,0.05000*%
%ADD59R,0.12000X0.04000*%
%ADD60C,0.09000*%
%ADD61C,0.07874*%
%ADD62C,0.06299*%
%ADD63C,0.05906*%
%ADD64R,0.05906X0.05906*%
%ADD65R,0.05906X0.05906*%
%ADD66C,0.11811*%
%ADD67C,0.19685*%
%ADD68R,0.07874X0.07874*%
%ADD69O,0.07874X0.03937*%
%ADD70O,0.07874X0.03937*%
%ADD71C,0.10000*%
%ADD72C,0.11000*%
%ADD73C,0.15748*%
%ADD74C,0.07284*%
%ADD75R,0.07284X0.07284*%
%ADD76C,0.01969*%
%ADD77C,0.01600*%
%ADD78C,0.03000*%
%ADD79C,0.05000*%
%ADD80C,0.02400*%
%ADD81C,0.04000*%
%ADD82C,0.01500*%
%ADD83C,0.03600*%
%ADD84C,0.06000*%
%ADD85C,0.07000*%
%ADD86R,0.02165X0.03543*%
%ADD87R,0.12598X0.20472*%
%ADD88R,0.26000X0.07090*%
%ADD89R,0.26000X0.05438*%
%ADD90R,0.13000X0.05000*%
%ADD91R,0.06500X0.13000*%
D10*
X559197Y-294443D02*
D03*
X571008D02*
D03*
X592508Y-294299D02*
D03*
X580697D02*
D03*
D11*
X565102Y-293655D02*
D03*
X586602Y-293512D02*
D03*
D12*
X565102Y-283813D02*
D03*
X586602Y-283669D02*
D03*
D13*
X562843Y-161400D02*
D03*
X545324D02*
D03*
X97240Y-87000D02*
D03*
X114760D02*
D03*
X203240Y-79000D02*
D03*
X220760D02*
D03*
D14*
X572483Y-197932D02*
D03*
Y-214468D02*
D03*
X87102Y-187875D02*
D03*
Y-204410D02*
D03*
X310000Y-40268D02*
D03*
Y-23732D02*
D03*
X248200Y-30868D02*
D03*
Y-14332D02*
D03*
X331000Y-223732D02*
D03*
Y-240268D02*
D03*
D15*
X458551Y-225000D02*
D03*
X442016D02*
D03*
X455016Y-164000D02*
D03*
X471551D02*
D03*
X594870Y-265362D02*
D03*
X578335D02*
D03*
X594870Y-307862D02*
D03*
X578335D02*
D03*
X529416Y-91100D02*
D03*
X545951D02*
D03*
X175268Y-176000D02*
D03*
X158732D02*
D03*
D16*
X530827Y-107000D02*
D03*
X523740D02*
D03*
X462740Y-321000D02*
D03*
X469827D02*
D03*
X598427Y-237400D02*
D03*
X591340D02*
D03*
X591340Y-229400D02*
D03*
X598427D02*
D03*
X467827Y-213000D02*
D03*
X460740D02*
D03*
X469827Y-179000D02*
D03*
X462740D02*
D03*
X462740Y-186000D02*
D03*
X469827D02*
D03*
X460740Y-120000D02*
D03*
X467827D02*
D03*
X462740Y-328000D02*
D03*
X469827D02*
D03*
X511827Y-31000D02*
D03*
X504740D02*
D03*
X67457Y-187000D02*
D03*
X74543D02*
D03*
X192543Y-176000D02*
D03*
X185457D02*
D03*
X339457Y-116000D02*
D03*
X346543D02*
D03*
X355457Y-92000D02*
D03*
X362543D02*
D03*
X58457Y-157000D02*
D03*
X65543D02*
D03*
X65543Y-165000D02*
D03*
X58457D02*
D03*
X355457Y-99000D02*
D03*
X362543D02*
D03*
X65543Y-115000D02*
D03*
X58457D02*
D03*
X65543Y-107000D02*
D03*
X58457D02*
D03*
X313457Y-113000D02*
D03*
X320543D02*
D03*
X282943Y-41800D02*
D03*
X275857D02*
D03*
X367857Y-224200D02*
D03*
X374943D02*
D03*
X367857Y-232200D02*
D03*
X374943D02*
D03*
X367857Y-240200D02*
D03*
X374943D02*
D03*
X367857Y-248200D02*
D03*
X374943D02*
D03*
X321457Y-168000D02*
D03*
X328543D02*
D03*
X250143Y-112200D02*
D03*
X243057D02*
D03*
X125543Y-207000D02*
D03*
X118457D02*
D03*
X240657Y-85800D02*
D03*
X247743D02*
D03*
X276657Y-11400D02*
D03*
X283743D02*
D03*
X360543Y-248200D02*
D03*
X353457D02*
D03*
X346543Y-108000D02*
D03*
X339457D02*
D03*
D17*
X518284Y-299543D02*
D03*
Y-292457D02*
D03*
X533284Y-299543D02*
D03*
Y-292457D02*
D03*
X534610Y-231232D02*
D03*
Y-224146D02*
D03*
X527110Y-231232D02*
D03*
Y-224146D02*
D03*
X546883Y-217743D02*
D03*
Y-210657D02*
D03*
X461283Y-252457D02*
D03*
Y-259543D02*
D03*
X550283Y-257543D02*
D03*
Y-250457D02*
D03*
X558284Y-250457D02*
D03*
Y-257543D02*
D03*
X454284Y-272543D02*
D03*
Y-265457D02*
D03*
X446283Y-265457D02*
D03*
Y-272543D02*
D03*
X226000Y-164543D02*
D03*
Y-157457D02*
D03*
X242000Y-171457D02*
D03*
Y-178543D02*
D03*
X381000Y-156457D02*
D03*
Y-163543D02*
D03*
X75000Y-156457D02*
D03*
Y-163543D02*
D03*
X226000Y-139457D02*
D03*
Y-146543D02*
D03*
X242000Y-132543D02*
D03*
Y-125457D02*
D03*
X75000Y-115543D02*
D03*
Y-108457D02*
D03*
X109000Y-149543D02*
D03*
Y-142457D02*
D03*
X125000Y-156457D02*
D03*
Y-163543D02*
D03*
X293800Y-31743D02*
D03*
Y-24657D02*
D03*
X169000Y-148543D02*
D03*
Y-141457D02*
D03*
X109000Y-124457D02*
D03*
Y-131543D02*
D03*
X185000Y-156457D02*
D03*
Y-163543D02*
D03*
X125000Y-117543D02*
D03*
Y-110457D02*
D03*
X265000Y-24657D02*
D03*
Y-31743D02*
D03*
X169000Y-125457D02*
D03*
Y-132543D02*
D03*
X185000Y-117543D02*
D03*
Y-110457D02*
D03*
X326600Y-143743D02*
D03*
Y-136657D02*
D03*
X117800Y-222257D02*
D03*
Y-229343D02*
D03*
X126600Y-222257D02*
D03*
Y-229343D02*
D03*
X96000Y-230543D02*
D03*
Y-223457D02*
D03*
X279000Y-250457D02*
D03*
Y-257543D02*
D03*
X288000Y-250457D02*
D03*
Y-257543D02*
D03*
X270000Y-250457D02*
D03*
Y-257543D02*
D03*
X80000Y-223457D02*
D03*
Y-230543D02*
D03*
X88000Y-223457D02*
D03*
Y-230543D02*
D03*
X58000Y-230543D02*
D03*
Y-223457D02*
D03*
X108000Y-191457D02*
D03*
Y-198543D02*
D03*
X100000Y-191457D02*
D03*
Y-198543D02*
D03*
X80000Y-43543D02*
D03*
Y-36457D02*
D03*
X80000Y-16457D02*
D03*
Y-23543D02*
D03*
X250000Y-171457D02*
D03*
Y-178543D02*
D03*
X234000Y-171457D02*
D03*
Y-178543D02*
D03*
X226000Y-171457D02*
D03*
Y-178543D02*
D03*
X390000Y-156457D02*
D03*
Y-163543D02*
D03*
X250000Y-132543D02*
D03*
Y-125457D02*
D03*
X234000Y-132543D02*
D03*
Y-125457D02*
D03*
X226000Y-132543D02*
D03*
Y-125457D02*
D03*
X258400Y-56457D02*
D03*
Y-63543D02*
D03*
X133000Y-156457D02*
D03*
Y-163543D02*
D03*
X117000Y-156457D02*
D03*
Y-163543D02*
D03*
X109000Y-156457D02*
D03*
Y-163543D02*
D03*
X193000Y-156457D02*
D03*
Y-163543D02*
D03*
X177000Y-156457D02*
D03*
Y-163543D02*
D03*
X169000Y-156457D02*
D03*
Y-163543D02*
D03*
X133000Y-117543D02*
D03*
Y-110457D02*
D03*
X117000Y-117543D02*
D03*
Y-110457D02*
D03*
X109000Y-117543D02*
D03*
Y-110457D02*
D03*
X193000Y-117543D02*
D03*
Y-110457D02*
D03*
X177000Y-117543D02*
D03*
Y-110457D02*
D03*
X169000Y-117543D02*
D03*
Y-110457D02*
D03*
X325000Y-29457D02*
D03*
Y-36543D02*
D03*
X127000Y-242457D02*
D03*
Y-249543D02*
D03*
X232200Y-15857D02*
D03*
Y-22943D02*
D03*
X281000Y-269457D02*
D03*
Y-276543D02*
D03*
X118000Y-269543D02*
D03*
Y-262457D02*
D03*
X316000Y-230543D02*
D03*
Y-223457D02*
D03*
X282000Y-199457D02*
D03*
Y-206543D02*
D03*
X282000Y-191543D02*
D03*
Y-184457D02*
D03*
D18*
X455283Y-192850D02*
D03*
Y-179150D02*
D03*
X259000Y-177850D02*
D03*
Y-164150D02*
D03*
X269000D02*
D03*
Y-177850D02*
D03*
X259000Y-126150D02*
D03*
Y-139850D02*
D03*
X269000D02*
D03*
Y-126150D02*
D03*
X142000Y-162850D02*
D03*
Y-149150D02*
D03*
X152000D02*
D03*
Y-162850D02*
D03*
X202000D02*
D03*
Y-149150D02*
D03*
X142000Y-111150D02*
D03*
Y-124850D02*
D03*
X212000Y-149150D02*
D03*
Y-162850D02*
D03*
X152000Y-124850D02*
D03*
Y-111150D02*
D03*
X202000D02*
D03*
Y-124850D02*
D03*
X212000D02*
D03*
Y-111150D02*
D03*
X118000Y-238150D02*
D03*
Y-251850D02*
D03*
X130000Y-85850D02*
D03*
Y-72150D02*
D03*
X272000Y-270150D02*
D03*
Y-283850D02*
D03*
X127000Y-274850D02*
D03*
Y-261150D02*
D03*
D19*
X483284Y-225000D02*
D03*
Y-210433D02*
D03*
D20*
X560031Y-200220D02*
D03*
Y-195220D02*
D03*
Y-190220D02*
D03*
Y-185220D02*
D03*
X538574Y-200220D02*
D03*
Y-195220D02*
D03*
Y-190220D02*
D03*
Y-185220D02*
D03*
D21*
X549302Y-192720D02*
D03*
D22*
X455024Y-201783D02*
D03*
X451284D02*
D03*
X447543D02*
D03*
Y-212217D02*
D03*
X451284D02*
D03*
X455024D02*
D03*
D23*
X515448Y-272906D02*
D03*
X517417D02*
D03*
X519385D02*
D03*
X521354D02*
D03*
X523322D02*
D03*
X525291D02*
D03*
X527259D02*
D03*
X529228D02*
D03*
X531196D02*
D03*
X533165D02*
D03*
X535133D02*
D03*
X537102D02*
D03*
Y-241213D02*
D03*
X535133D02*
D03*
X533165D02*
D03*
X531196D02*
D03*
X529228D02*
D03*
X527259D02*
D03*
X525291D02*
D03*
X523322D02*
D03*
X521354D02*
D03*
X519385D02*
D03*
X517417D02*
D03*
X515448D02*
D03*
X282236Y-61248D02*
D03*
X284205D02*
D03*
X286173D02*
D03*
X288142D02*
D03*
X290110D02*
D03*
X292079D02*
D03*
X294047D02*
D03*
X296016D02*
D03*
X297984D02*
D03*
X299953D02*
D03*
X301921D02*
D03*
X303890D02*
D03*
X305858D02*
D03*
X307827D02*
D03*
X309795D02*
D03*
X311764D02*
D03*
Y-104752D02*
D03*
X309795D02*
D03*
X307827D02*
D03*
X305858D02*
D03*
X303890D02*
D03*
X301921D02*
D03*
X299953D02*
D03*
X297984D02*
D03*
X296016D02*
D03*
X294047D02*
D03*
X292079D02*
D03*
X290110D02*
D03*
X288142D02*
D03*
X286173D02*
D03*
X284205D02*
D03*
X282236D02*
D03*
D24*
X542121Y-267887D02*
D03*
Y-265918D02*
D03*
Y-263950D02*
D03*
Y-261981D02*
D03*
Y-260013D02*
D03*
Y-258044D02*
D03*
Y-256076D02*
D03*
Y-254107D02*
D03*
Y-252139D02*
D03*
Y-250170D02*
D03*
Y-248202D02*
D03*
Y-246233D02*
D03*
X510428D02*
D03*
Y-248202D02*
D03*
Y-250170D02*
D03*
Y-252139D02*
D03*
Y-254107D02*
D03*
Y-256076D02*
D03*
Y-258044D02*
D03*
Y-260013D02*
D03*
Y-261981D02*
D03*
Y-263950D02*
D03*
Y-265918D02*
D03*
Y-267887D02*
D03*
X318752Y-68236D02*
D03*
Y-70205D02*
D03*
Y-72173D02*
D03*
Y-74142D02*
D03*
Y-76110D02*
D03*
Y-78079D02*
D03*
Y-80047D02*
D03*
Y-82016D02*
D03*
Y-83984D02*
D03*
Y-85953D02*
D03*
Y-87921D02*
D03*
Y-89890D02*
D03*
Y-91858D02*
D03*
Y-93827D02*
D03*
Y-95795D02*
D03*
Y-97764D02*
D03*
X275248D02*
D03*
Y-95795D02*
D03*
Y-93827D02*
D03*
Y-91858D02*
D03*
Y-89890D02*
D03*
Y-87921D02*
D03*
Y-85953D02*
D03*
Y-83984D02*
D03*
Y-82016D02*
D03*
Y-80047D02*
D03*
Y-78079D02*
D03*
Y-76110D02*
D03*
Y-74142D02*
D03*
Y-72173D02*
D03*
Y-70205D02*
D03*
Y-68236D02*
D03*
D25*
X457283Y-107000D02*
D03*
X465158D02*
D03*
X473032D02*
D03*
X480905D02*
D03*
X488780D02*
D03*
X496654D02*
D03*
X504528D02*
D03*
X512402D02*
D03*
Y-44008D02*
D03*
X504528D02*
D03*
X496654D02*
D03*
X488780D02*
D03*
X480905D02*
D03*
X473032D02*
D03*
X465158D02*
D03*
X457283D02*
D03*
D26*
X533284Y-283000D02*
D03*
X518323D02*
D03*
D27*
X454024Y-246921D02*
D03*
X450283Y-237079D02*
D03*
X446543Y-246921D02*
D03*
D28*
Y-260232D02*
D03*
X454024D02*
D03*
X450283Y-251768D02*
D03*
D29*
X110000Y-26614D02*
D03*
D30*
X123386Y-63425D02*
D03*
X116693D02*
D03*
X110000D02*
D03*
X103307D02*
D03*
X96614D02*
D03*
D31*
X258400Y-86000D02*
D03*
Y-71039D02*
D03*
D32*
X249500Y-140878D02*
D03*
X244500D02*
D03*
X239500D02*
D03*
X234500D02*
D03*
X249500Y-163122D02*
D03*
X244500D02*
D03*
X239500D02*
D03*
X234500D02*
D03*
X132500Y-125878D02*
D03*
X127500D02*
D03*
X122500D02*
D03*
X117500D02*
D03*
X132500Y-148122D02*
D03*
X127500D02*
D03*
X122500D02*
D03*
X117500D02*
D03*
X192500Y-125878D02*
D03*
X187500D02*
D03*
X182500D02*
D03*
X177500D02*
D03*
X192500Y-148122D02*
D03*
X187500D02*
D03*
X182500D02*
D03*
X177500D02*
D03*
D33*
X59500Y-145646D02*
D03*
X64500D02*
D03*
X69500D02*
D03*
X74500D02*
D03*
X59500Y-126354D02*
D03*
X64500D02*
D03*
X69500D02*
D03*
X74500D02*
D03*
D34*
X277737Y-33205D02*
D03*
X279706D02*
D03*
X281674D02*
D03*
X279706Y-20213D02*
D03*
X277737D02*
D03*
X281674D02*
D03*
D35*
X273406Y-28874D02*
D03*
Y-30843D02*
D03*
Y-26906D02*
D03*
Y-24937D02*
D03*
Y-22968D02*
D03*
X286005Y-28874D02*
D03*
Y-26906D02*
D03*
Y-24937D02*
D03*
Y-22968D02*
D03*
Y-30843D02*
D03*
D36*
X221417Y-20000D02*
D03*
D37*
X198583Y-29055D02*
D03*
Y-20000D02*
D03*
Y-10945D02*
D03*
D38*
X291551Y-189500D02*
D03*
Y-194500D02*
D03*
Y-199500D02*
D03*
Y-204500D02*
D03*
X310449Y-189500D02*
D03*
Y-194500D02*
D03*
Y-199500D02*
D03*
Y-204500D02*
D03*
D39*
X383787Y-97000D02*
D03*
Y-102000D02*
D03*
Y-107000D02*
D03*
Y-112000D02*
D03*
Y-117000D02*
D03*
Y-122000D02*
D03*
Y-127000D02*
D03*
Y-132000D02*
D03*
X408000D02*
D03*
Y-127000D02*
D03*
Y-122000D02*
D03*
Y-117000D02*
D03*
Y-112000D02*
D03*
Y-107000D02*
D03*
Y-102000D02*
D03*
Y-97000D02*
D03*
D40*
X309221Y-175500D02*
D03*
Y-170500D02*
D03*
Y-165500D02*
D03*
Y-160500D02*
D03*
X286779Y-175500D02*
D03*
Y-170500D02*
D03*
Y-165500D02*
D03*
Y-160500D02*
D03*
D41*
X107000Y-230429D02*
D03*
X103260Y-221571D02*
D03*
X110740D02*
D03*
X69000Y-230429D02*
D03*
X65260Y-221571D02*
D03*
X72740D02*
D03*
D42*
X106976Y-238087D02*
D03*
X89024D02*
D03*
X259976Y-234087D02*
D03*
X242024D02*
D03*
X75576Y-241487D02*
D03*
X57624D02*
D03*
X152976Y-193087D02*
D03*
X135024D02*
D03*
D43*
X98000Y-266039D02*
D03*
X251000Y-262039D02*
D03*
X66600Y-269439D02*
D03*
X144000Y-221039D02*
D03*
D44*
X269571Y-237000D02*
D03*
X278429Y-233260D02*
D03*
Y-240740D02*
D03*
X330429Y-180000D02*
D03*
X321571Y-183740D02*
D03*
Y-176260D02*
D03*
X125429Y-195000D02*
D03*
X116571Y-198740D02*
D03*
Y-191260D02*
D03*
D45*
X145000Y-37000D02*
D03*
X176496D02*
D03*
D46*
X142252Y-254000D02*
D03*
X173748D02*
D03*
D47*
X167630Y-206000D02*
D03*
Y-196000D02*
D03*
X207000D02*
D03*
Y-206000D02*
D03*
X263000D02*
D03*
Y-196000D02*
D03*
X223630D02*
D03*
Y-206000D02*
D03*
X190630Y-242000D02*
D03*
Y-232000D02*
D03*
X230000D02*
D03*
Y-242000D02*
D03*
Y-267000D02*
D03*
Y-257000D02*
D03*
X190630D02*
D03*
Y-267000D02*
D03*
D48*
X401592Y-25800D02*
D03*
Y-33674D02*
D03*
Y-41548D02*
D03*
Y-49422D02*
D03*
Y-57296D02*
D03*
Y-65170D02*
D03*
Y-73044D02*
D03*
Y-80918D02*
D03*
X338600D02*
D03*
Y-73044D02*
D03*
Y-65170D02*
D03*
Y-57296D02*
D03*
Y-49422D02*
D03*
Y-41548D02*
D03*
Y-33674D02*
D03*
Y-25800D02*
D03*
D49*
X322000Y-209150D02*
D03*
Y-202850D02*
D03*
D50*
X199091Y-51000D02*
D03*
X222909D02*
D03*
D51*
X307252Y-228500D02*
D03*
Y-223500D02*
D03*
Y-218500D02*
D03*
Y-213500D02*
D03*
X288748Y-228500D02*
D03*
Y-223500D02*
D03*
Y-218500D02*
D03*
Y-213500D02*
D03*
D60*
X598146Y-197362D02*
D03*
Y-212953D02*
D03*
D61*
X593724Y-177520D02*
D03*
X583724Y-167520D02*
D03*
X573724Y-177520D02*
D03*
X462629Y-339280D02*
D03*
X488220D02*
D03*
X147815Y-86000D02*
D03*
X322000Y-11000D02*
D03*
X177000Y-221000D02*
D03*
X356200Y-166600D02*
D03*
X288200Y-315400D02*
D03*
X69000Y-197000D02*
D03*
X234000Y-65500D02*
D03*
X82000Y-97500D02*
D03*
X403000Y-173000D02*
D03*
Y-147409D02*
D03*
X340039Y-198000D02*
D03*
D62*
X515598Y-336000D02*
D03*
X525441D02*
D03*
X535284D02*
D03*
X207000Y-313000D02*
D03*
X216843D02*
D03*
X239000D02*
D03*
X248843D02*
D03*
X258685D02*
D03*
X165000Y-287000D02*
D03*
X174843D02*
D03*
X184685D02*
D03*
X246000D02*
D03*
X255842D02*
D03*
X165000Y-313000D02*
D03*
X174843D02*
D03*
X184685D02*
D03*
D63*
X505756Y-336000D02*
D03*
X547284Y-300000D02*
D03*
Y-290000D02*
D03*
Y-280000D02*
D03*
X523283Y-214000D02*
D03*
X513283D02*
D03*
X503284D02*
D03*
X628243Y-57451D02*
D03*
Y-67451D02*
D03*
Y-77451D02*
D03*
X638243D02*
D03*
Y-67451D02*
D03*
Y-57451D02*
D03*
Y-47451D02*
D03*
X598243Y-137451D02*
D03*
X558243D02*
D03*
Y-127451D02*
D03*
X548243Y-137451D02*
D03*
Y-127451D02*
D03*
X538243Y-137451D02*
D03*
Y-127451D02*
D03*
X528243Y-137451D02*
D03*
Y-127451D02*
D03*
X518243Y-137451D02*
D03*
Y-127451D02*
D03*
X508243Y-137451D02*
D03*
Y-127451D02*
D03*
X588243D02*
D03*
X578243D02*
D03*
X568243D02*
D03*
Y-137451D02*
D03*
X588243D02*
D03*
X578243D02*
D03*
X224055Y-287000D02*
D03*
X214213D02*
D03*
X204370D02*
D03*
X194528D02*
D03*
X389000Y-189000D02*
D03*
Y-199000D02*
D03*
Y-209000D02*
D03*
Y-219000D02*
D03*
Y-249000D02*
D03*
Y-229000D02*
D03*
Y-239000D02*
D03*
Y-259000D02*
D03*
Y-269000D02*
D03*
Y-279000D02*
D03*
Y-289000D02*
D03*
X356000Y-129000D02*
D03*
Y-119000D02*
D03*
Y-109000D02*
D03*
X368000Y-129000D02*
D03*
Y-119000D02*
D03*
Y-109000D02*
D03*
D64*
X547284Y-310000D02*
D03*
X356000Y-139000D02*
D03*
X368000D02*
D03*
D65*
X533284Y-214000D02*
D03*
D66*
X608282Y-22884D02*
D03*
X433085D02*
D03*
Y-137057D02*
D03*
X321055Y-307945D02*
D03*
X346945Y-282055D02*
D03*
X321055D02*
D03*
X315693Y-295000D02*
D03*
X346945Y-307945D02*
D03*
X352307Y-295000D02*
D03*
D67*
X439866Y-335000D02*
D03*
X601284D02*
D03*
Y11457D02*
D03*
X439866D02*
D03*
D68*
X167500Y-86000D02*
D03*
X369961Y-198000D02*
D03*
D69*
X313500Y-131500D02*
D03*
Y-141500D02*
D03*
D70*
Y-136500D02*
D03*
D71*
X45000Y-174000D02*
D03*
Y-204000D02*
D03*
Y-108000D02*
D03*
Y-138000D02*
D03*
X52000Y-288000D02*
D03*
X22000D02*
D03*
D72*
X83410Y-305000D02*
D03*
X99000D02*
D03*
X125409D02*
D03*
X141000D02*
D03*
X29000Y-234819D02*
D03*
Y-250410D02*
D03*
Y-266000D02*
D03*
D73*
X55000Y-27598D02*
D03*
Y-65000D02*
D03*
D74*
X80000Y-80000D02*
D03*
D75*
Y-60000D02*
D03*
M02*
