M48
;Layer_Color=9474304
;FILE_FORMAT=2:5
INCH,TZ
;TYPE=PLATED
T1F00S00C0.00787
T2F00S00C0.00800
T3F00S00C0.01200
T4F00S00C0.01500
T5F00S00C0.01800
T6F00S00C0.02000
T7F00S00C0.02500
T8F00S00C0.03000
T9F00S00C0.03150
T10F00S00C0.03500
T11F00S00C0.03543
T12F00S00C0.03937
T13F00S00C0.04331
T14F00S00C0.04724
T15F00S00C0.05906
T16F00S00C0.07000
T17F00S00C0.07874
T18F00S00C0.11811
T19F00S00C0.12992
%
T01
X547137Y-197050
X551468
Y-192720
X547137
Y-188389
X551468
T02
X531196Y-276456
X530483Y-268100
X536784Y-262000
X534283Y-258500
X545676Y-254107
X547583Y-246200
X542121Y-244938
X554783Y-240200
X550883Y-210500
X539783Y-214100
X534084Y-197900
X561983Y-197300
X547284Y-269000
X544283Y-270000
X570984Y-278600
X571008Y-289376
X594684Y-316100
X527283Y-268500
X515484Y-264800
X506484Y-264200
X506183Y-260000
X510428Y-269645
X520284Y-249200
X517417Y-245433
X513870Y-241213
X516083Y-236300
X519083
X518184Y-230900
X518483Y-228200
X513983Y-226700
X522683Y-230000
X506484Y-220800
X516083Y-207800
X504384Y-242000
X475783Y-270000
X460583Y-266000
X455784Y-207000
X452783
X449784
X446783
X447543Y-198800
X469827Y-195557
X467827Y-206857
X474483Y-328000
X341800Y-242600
X343400Y-240200
X345800Y-232200
X347400Y-221000
X332500Y-249000
X304500Y-231252
X305252Y-225500
X303000Y-218500
X304000Y-214457
Y-200000
X289000Y-202500
X286500Y-199500
X285957Y-210500
X281092Y-210597
Y-216100
X262600Y-211400
Y-225000
X256000Y-221500
X246500Y-229000
X229500
X230900Y-224500
X233000Y-222200
X235400Y-222600
X233800Y-205800
X231400Y-202600
X221800Y-217800
X221000Y-230600
X218347Y-259653
X229500Y-271000
X238000Y-286800
Y-293200
X274500Y-253000
X272000Y-193000
X256000Y-204000
X204200Y-210600
X201800Y-212200
X210425Y-225625
X209425Y-231775
X213800Y-239400
X212575Y-245375
X217000Y-253000
X201000Y-254600
X193800Y-250600
X196200Y-237000
X200200Y-265800
X161000Y-304000
X130600Y-214600
X125800Y-218600
X128200Y-201800
X121000Y-199400
X118457Y-202743
X113000Y-202311
X112200Y-197800
X108200Y-214600
X99400Y-217000
X97000Y-219400
Y-214400
X91400Y-215400
X89000Y-220200
X92233Y-227000
X101229Y-221571
X77800Y-213000
X61800Y-217800
X89000Y-197000
X48200Y-273000
X41000Y-269800
X57000Y-181000
X62600Y-152200
X78600Y-150600
X91400Y-157800
X91600Y-135400
X104743Y-124457
X113878Y-125878
X125000Y-106600
X128200Y-99400
X159400Y-101000
X160200Y-103400
X162600Y-105000
X165543Y-110457
X164500Y-127000
X173800Y-122600
X147400Y-116200
Y-135244
X156200Y-145000
X154000Y-157500
X147400Y-160200
X134522Y-148122
X132200Y-185800
X113000Y-188200
X103400Y-179400
X97000Y-191457
X157949Y-187850
X156200Y-185800
X177000Y-169000
X195400Y-151022
X207400Y-161800
X215400Y-191400
X207400Y-117800
X212000Y-107000
Y-87000
X96200Y-97000
X93800Y-95400
X92200Y-93000
X89000Y-112200
X219400Y-107400
X217800Y-120200
X235400Y-122600
Y-113800
X250000Y-109000
X254600Y-122600
X264200Y-128200
X276000Y-110500
X278500Y-102000
X284000Y-98000
X286173Y-99773
X285342Y-91858
X278950
X280047Y-80047
X281000Y-77000
X286043Y-66357
X290110Y-65490
X280543Y-60457
X265000Y-59400
X267400Y-64200
Y-41800
X265000Y-37000
X273406Y-36594
X287000Y-46500
X318600Y-46600
X319977Y-44423
X325000Y-41000
X344657Y-40543
X345000Y-68000
X329248Y-61248
X321000Y-65800
X315400Y-59400
X313864Y-73000
X315016Y-82016
X323726Y-87790
X325000Y-97800
X329000
X331400Y-97000
X334600
X337800
X340200
X343400
X350000Y-94000
X352000Y-89000
X333800Y-80200
X309000Y-99400
X305858Y-100258
X307400Y-109800
X305000Y-113000
X302600Y-113800
X300200Y-114600
X298600Y-117000
X295884Y-115039
X293800Y-113800
X291400Y-112200
X289300Y-113890
X287000Y-110500
X313000Y-108200
X303400Y-135400
X303500Y-143000
X293000Y-149800
X283400Y-153000
X284000Y-144500
X291400Y-136200
X301000Y-157800
X298584Y-165000
X300000Y-174000
X304500Y-180000
X288000Y-183000
X274500Y-185000
Y-170500
X262600Y-172200
X252978Y-166600
X253800Y-180200
X249800Y-184200
X229000Y-175543
X221257Y-176200
Y-144200
X230600Y-141000
X250000Y-80500
X249000Y-52200
X247200Y-50400
X245650Y-48350
X244150Y-46550
X343400Y-122600
X340200Y-128200
X350000Y-119457
X362543Y-119457
X368200Y-150600
Y-162600
X319400Y-161800
X395400Y-73000
X498983Y-120800
X510984Y-113300
X516083Y-107000
X521060
X534564Y-190220
X273406Y-20200
T03
X452352Y-225000
T04
X576383Y-289100
X445583Y-232100
X447084Y-194300
X242000Y-244000
X229000Y-249000
X187000Y-248000
X187400Y-196200
X82000Y-196000
X61000Y-187000
X200000Y-175000
X257000Y-186000
X254600Y-149800
X324200Y-192200
X556284Y-172400
X572784Y-185300
X345800Y-25800
X265000Y-19400
T05
X271000Y-305500
X272100Y-300605
X280500Y-228500
X283000Y-219000
X277600Y-210938
X270500Y-210500
X293000Y-232000
X265500Y-189000
X235000Y-187000
X391500Y-135500
T06
X363000Y-76000
X371500Y-67500
X368500Y-39500
X458740Y-170343
X317768Y-23732
X225000Y-32500
T07
X580216Y-214468
X467227Y-252457
X501684Y-308000
X455016Y-154868
X564984Y-190220
T08
X340039Y-198000
X369961
T09
X389000Y-289000
Y-279000
Y-269000
Y-259000
Y-249000
Y-239000
Y-229000
Y-219000
Y-209000
Y-199000
X505756Y-336000
X224055Y-287000
X214213
X204370
X194528
X167500Y-86000
X147815
X389000Y-189000
T10
X368200Y-269800
X179400Y-297800
X95400Y-237800
X140113Y-193087
X130000Y-64000
X131000Y-47000
X110000Y-74000
X165500
X187000Y-73500
X236000Y-37909
T11
X547284Y-310000
Y-300000
Y-290000
Y-280000
X533284Y-214000
X598146Y-212953
Y-197362
X523283Y-214000
X513283
X503284
X368000Y-139000
Y-129000
Y-119000
Y-109000
X356000
Y-119000
Y-129000
Y-139000
X313500Y-136500
Y-131500
Y-141500
T12
X535284Y-336000
X525441
X515598
X258685Y-313000
X248843
X239000
X246000Y-287000
X255842
X216843Y-313000
X207000
X184685
X174843
X165000
Y-287000
X174843
X184685
X508243Y-137451
X518243
X528243
Y-127451
X518243
X508243
X538243
X548243
X558243
Y-137451
X548243
X538243
X568243
Y-127451
X578243
X588243
Y-137451
X598243
X578243
X628243Y-77451
Y-67451
Y-57451
X638243
Y-67451
Y-77451
Y-47451
T13
X80000Y-80000
Y-60000
T14
X462629Y-339280
X488220
X403000Y-173000
Y-147409
X583724Y-167520
X593724Y-177520
X573724
T15
X321055Y-307945
X315693Y-295000
X321055Y-282055
X346945
X352307Y-295000
X346945Y-307945
X52000Y-288000
X22000
X45000Y-204000
Y-174000
Y-138000
Y-108000
T16
X83410Y-305000
X99000
X125409
X141000
X29000Y-266000
Y-250410
Y-234819
T17
X288200Y-315400
X177000Y-221000
X69000Y-197000
X55000Y-65000
X82000Y-97500
X234000Y-65500
X356200Y-166600
X322000Y-11000
X55000Y-27598
T18
X433085Y-137057
X608282Y-22884
X433085
T19
X601284Y-335000
X439866
X601284Y11457
X439866
M30
