%FSLAX25Y25*%
%MOIN*%
G70*
G01*
G75*
G04 Layer_Physical_Order=2*
G04 Layer_Color=16711680*
%ADD10R,0.02362X0.05512*%
%ADD11R,0.02362X0.07087*%
G04:AMPARAMS|DCode=12|XSize=74.8mil|YSize=125.98mil|CornerRadius=0mil|HoleSize=0mil|Usage=FLASHONLY|Rotation=180.000|XOffset=0mil|YOffset=0mil|HoleType=Round|Shape=Octagon|*
%AMOCTAGOND12*
4,1,8,0.01870,-0.06299,-0.01870,-0.06299,-0.03740,-0.04429,-0.03740,0.04429,-0.01870,0.06299,0.01870,0.06299,0.03740,0.04429,0.03740,-0.04429,0.01870,-0.06299,0.0*
%
%ADD12OCTAGOND12*%

%ADD13R,0.16339X0.07284*%
%ADD14R,0.08465X0.11221*%
%ADD15R,0.11221X0.08465*%
%ADD16R,0.04724X0.05512*%
%ADD17R,0.05512X0.04724*%
%ADD18R,0.06693X0.06693*%
%ADD19R,0.21654X0.09843*%
%ADD20O,0.05709X0.02362*%
%ADD21R,0.09921X0.13425*%
%ADD22R,0.02362X0.04134*%
%ADD23O,0.00984X0.06102*%
%ADD24O,0.06102X0.00984*%
%ADD25R,0.03150X0.07874*%
%ADD26R,0.07087X0.09449*%
%ADD27R,0.03543X0.03740*%
%ADD28R,0.02362X0.03347*%
%ADD29R,0.40945X0.31496*%
%ADD30R,0.03937X0.11417*%
%ADD31R,0.09449X0.07087*%
G04:AMPARAMS|DCode=32|XSize=25.59mil|YSize=64.96mil|CornerRadius=1.92mil|HoleSize=0mil|Usage=FLASHONLY|Rotation=0.000|XOffset=0mil|YOffset=0mil|HoleType=Round|Shape=RoundedRectangle|*
%AMROUNDEDRECTD32*
21,1,0.02559,0.06112,0,0,0.0*
21,1,0.02175,0.06496,0,0,0.0*
1,1,0.00384,0.01088,-0.03056*
1,1,0.00384,-0.01088,-0.03056*
1,1,0.00384,-0.01088,0.03056*
1,1,0.00384,0.01088,0.03056*
%
%ADD32ROUNDEDRECTD32*%
%ADD33O,0.02756X0.09843*%
G04:AMPARAMS|DCode=34|XSize=11.81mil|YSize=59.06mil|CornerRadius=2.95mil|HoleSize=0mil|Usage=FLASHONLY|Rotation=0.000|XOffset=0mil|YOffset=0mil|HoleType=Round|Shape=RoundedRectangle|*
%AMROUNDEDRECTD34*
21,1,0.01181,0.05315,0,0,0.0*
21,1,0.00591,0.05906,0,0,0.0*
1,1,0.00591,0.00295,-0.02658*
1,1,0.00591,-0.00295,-0.02658*
1,1,0.00591,-0.00295,0.02658*
1,1,0.00591,0.00295,0.02658*
%
%ADD34ROUNDEDRECTD34*%
G04:AMPARAMS|DCode=35|XSize=11.81mil|YSize=59.06mil|CornerRadius=2.95mil|HoleSize=0mil|Usage=FLASHONLY|Rotation=270.000|XOffset=0mil|YOffset=0mil|HoleType=Round|Shape=RoundedRectangle|*
%AMROUNDEDRECTD35*
21,1,0.01181,0.05315,0,0,270.0*
21,1,0.00591,0.05906,0,0,270.0*
1,1,0.00591,-0.02658,-0.00295*
1,1,0.00591,-0.02658,0.00295*
1,1,0.00591,0.02658,0.00295*
1,1,0.00591,0.02658,-0.00295*
%
%ADD35ROUNDEDRECTD35*%
%ADD36R,0.09449X0.12992*%
%ADD37R,0.09449X0.03937*%
%ADD38O,0.08661X0.02362*%
%ADD39R,0.07874X0.02992*%
%ADD40O,0.08858X0.02362*%
%ADD41R,0.02362X0.04528*%
%ADD42R,0.03543X0.07087*%
%ADD43R,0.21654X0.23228*%
%ADD44R,0.04528X0.02362*%
%ADD45R,0.19685X0.31496*%
%ADD46R,0.20276X0.09252*%
%ADD47R,0.09843X0.05512*%
%ADD48R,0.07874X0.03150*%
%ADD49R,0.05118X0.03937*%
%ADD50R,0.13780X0.13780*%
%ADD51O,0.07480X0.02362*%
%ADD52C,0.02000*%
%ADD53C,0.01000*%
%ADD54C,0.02500*%
%ADD55C,0.04000*%
%ADD56C,0.10000*%
%ADD57C,0.12000*%
%ADD58C,0.05000*%
%ADD59R,0.12000X0.04000*%
%ADD60C,0.09000*%
%ADD61C,0.07874*%
%ADD62C,0.06299*%
%ADD63C,0.05906*%
%ADD64R,0.05906X0.05906*%
%ADD65R,0.05906X0.05906*%
%ADD66C,0.11811*%
%ADD67C,0.19685*%
%ADD68R,0.07874X0.07874*%
%ADD69O,0.07874X0.03937*%
%ADD70O,0.07874X0.03937*%
%ADD71C,0.10000*%
%ADD72C,0.11000*%
%ADD73C,0.15748*%
%ADD74C,0.07284*%
%ADD75R,0.07284X0.07284*%
%ADD76C,0.01969*%
%ADD77C,0.01600*%
%ADD78C,0.03000*%
%ADD79C,0.05000*%
%ADD80C,0.02400*%
%ADD81C,0.04000*%
%ADD82C,0.01500*%
%ADD83C,0.03600*%
%ADD84C,0.06000*%
%ADD85C,0.07000*%
%ADD86R,0.02165X0.03543*%
%ADD87R,0.12598X0.20472*%
%ADD88R,0.26000X0.07090*%
%ADD89R,0.26000X0.05438*%
%ADD90R,0.13000X0.05000*%
%ADD91R,0.06500X0.13000*%
G36*
X289094Y-217393D02*
Y-217500D01*
X292457D01*
Y-218500D01*
X289094D01*
Y-221756D01*
X289094D01*
Y-222244D01*
X289094D01*
Y-225500D01*
X292457D01*
Y-226500D01*
X289094D01*
Y-229756D01*
X290508D01*
Y-230698D01*
X290176Y-231500D01*
X295824D01*
X295515Y-230756D01*
X295691Y-230177D01*
X296381Y-229556D01*
X296381D01*
X296381Y-229556D01*
X296381Y-229556D01*
X302440D01*
X303129Y-230380D01*
X302951Y-230811D01*
X299505Y-234257D01*
X299093Y-235252D01*
Y-236444D01*
X297381D01*
Y-236444D01*
X296619D01*
Y-236444D01*
X291891D01*
X290541Y-235095D01*
X291108Y-234247D01*
X292500Y-234824D01*
Y-232500D01*
X290176D01*
X290753Y-233892D01*
X289905Y-234459D01*
X287907Y-232460D01*
Y-218116D01*
X287495Y-217121D01*
X288264Y-216562D01*
X289094Y-217393D01*
D02*
G37*
G36*
X389500Y-193071D02*
X392025Y-192025D01*
X392864Y-190000D01*
X415000D01*
Y-315000D01*
X349998D01*
X349803Y-314019D01*
X352077Y-313077D01*
X354203Y-307945D01*
X352320Y-303398D01*
X352319Y-303356D01*
X352309Y-302642D01*
X352829Y-302258D01*
X357592Y-300285D01*
X359574Y-295500D01*
X345040D01*
X346806Y-299763D01*
X346360Y-300930D01*
X341813Y-302813D01*
X339687Y-307945D01*
X341813Y-313077D01*
X344087Y-314019D01*
X343892Y-315000D01*
X324108D01*
X323913Y-314019D01*
X326187Y-313077D01*
X328313Y-307945D01*
X326187Y-302813D01*
X321424Y-300840D01*
X320978Y-299763D01*
X322951Y-295000D01*
X320978Y-290237D01*
X321424Y-289160D01*
X326187Y-287187D01*
X328313Y-282055D01*
X326187Y-276923D01*
X321055Y-274797D01*
X315923Y-276923D01*
X313797Y-282055D01*
X315770Y-286818D01*
X315719Y-287428D01*
X315324Y-287895D01*
X310561Y-289868D01*
X309690Y-291969D01*
X297500D01*
X295357Y-292857D01*
X273214Y-315000D01*
X263248D01*
X262692Y-314169D01*
X262969Y-313500D01*
X254401D01*
X254678Y-314169D01*
X254129Y-314989D01*
X253182D01*
X252634Y-314169D01*
X253117Y-313000D01*
X252448Y-311384D01*
X254995Y-308838D01*
X254995Y-308838D01*
X255116Y-308546D01*
X255407Y-307843D01*
X256331Y-307705D01*
X257436D01*
X257729Y-307822D01*
X257785Y-308009D01*
X257499Y-309000D01*
X255509Y-309824D01*
X254401Y-312500D01*
X262969D01*
X261861Y-309824D01*
X259161Y-308705D01*
X259360Y-307705D01*
X265556D01*
Y-305950D01*
X267057D01*
X267262Y-305865D01*
X268059Y-305550D01*
X268533Y-306339D01*
X269010Y-307490D01*
X271000Y-308314D01*
X271338Y-308174D01*
X272000Y-308448D01*
X273378Y-307878D01*
X284678Y-296578D01*
X284845Y-296174D01*
X285248Y-295200D01*
Y-235196D01*
X286248Y-234782D01*
X290295Y-238828D01*
Y-243556D01*
X296619D01*
Y-243556D01*
X297381D01*
Y-243556D01*
X303706D01*
Y-236444D01*
X302712D01*
X302298Y-235444D01*
X304941Y-232801D01*
X305093Y-232738D01*
X306093Y-233406D01*
Y-242610D01*
X306505Y-243605D01*
X341230Y-278330D01*
X339687Y-282055D01*
X340017Y-282850D01*
X335772Y-287094D01*
X331044D01*
Y-292981D01*
Y-293064D01*
X330844Y-293981D01*
Y-293994D01*
X330844Y-294336D01*
Y-296843D01*
X338356D01*
Y-294336D01*
X338356Y-293994D01*
Y-293981D01*
X338156Y-293064D01*
Y-292981D01*
Y-288691D01*
X340546Y-286301D01*
X341527Y-286496D01*
X341813Y-287187D01*
X346360Y-289070D01*
X346806Y-290237D01*
X345040Y-294500D01*
X359574D01*
X357592Y-289715D01*
X352829Y-287742D01*
X352309Y-287358D01*
X352319Y-286644D01*
X352320Y-286602D01*
X354203Y-282055D01*
X352077Y-276923D01*
X346945Y-274797D01*
X343220Y-276340D01*
X308907Y-242027D01*
Y-208000D01*
X308495Y-207005D01*
X308495Y-207005D01*
X304146Y-202656D01*
X304450Y-201546D01*
X305225Y-201225D01*
X305549Y-200441D01*
X309258Y-196732D01*
X309670Y-195737D01*
Y-190000D01*
X321323D01*
X321991Y-191000D01*
X321701Y-191700D01*
X324200D01*
Y-192200D01*
X324700D01*
Y-194699D01*
X326113Y-194113D01*
X326593Y-192956D01*
X327593Y-193155D01*
Y-245500D01*
X328005Y-246495D01*
X331043Y-249533D01*
X331314Y-250186D01*
X332500Y-250678D01*
X333686Y-250186D01*
X334178Y-249000D01*
X333686Y-247814D01*
X333033Y-247543D01*
X330407Y-244917D01*
Y-206005D01*
X331331Y-205622D01*
X339793Y-214084D01*
Y-242000D01*
X340205Y-242995D01*
X340343Y-243133D01*
X340614Y-243786D01*
X341800Y-244278D01*
X342986Y-243786D01*
X343478Y-242600D01*
X343949Y-241650D01*
X344586Y-241386D01*
X345078Y-240200D01*
X344586Y-239014D01*
X344407Y-238939D01*
Y-234383D01*
X345407Y-233715D01*
X345800Y-233878D01*
X346986Y-233386D01*
X347478Y-232200D01*
X346986Y-231014D01*
X346407Y-230774D01*
Y-223166D01*
X347239Y-222611D01*
X347400Y-222678D01*
X348586Y-222186D01*
X349078Y-221000D01*
X348586Y-219814D01*
X348207Y-219657D01*
Y-196400D01*
X347795Y-195405D01*
X343314Y-190924D01*
X343696Y-190000D01*
X373169D01*
Y-193263D01*
X365224D01*
Y-202737D01*
X373169D01*
Y-260545D01*
X367905Y-265809D01*
X365292Y-266892D01*
X364087Y-269800D01*
X365292Y-272708D01*
X368200Y-273913D01*
X371108Y-272708D01*
X372191Y-270095D01*
X378343Y-263943D01*
X379231Y-261800D01*
Y-201031D01*
X380745D01*
X380857Y-201143D01*
X383000Y-202031D01*
X386510D01*
X389000Y-203062D01*
X391872Y-201872D01*
X393062Y-199000D01*
X391872Y-196128D01*
X389000Y-194938D01*
X386510Y-195969D01*
X384255D01*
X384143Y-195857D01*
X382000Y-194969D01*
X379231D01*
Y-190000D01*
X385136D01*
X385975Y-192025D01*
X388500Y-193071D01*
Y-189000D01*
X389500D01*
Y-193071D01*
D02*
G37*
G36*
X363259Y-72045D02*
X362837Y-73037D01*
X360857Y-73857D01*
X359969Y-76000D01*
X360857Y-78143D01*
X363000Y-79031D01*
X365143Y-78143D01*
X365963Y-76163D01*
X366955Y-75741D01*
X373169Y-81955D01*
Y-108538D01*
X372613Y-108648D01*
Y-109352D01*
X373169Y-109462D01*
Y-144393D01*
X363383D01*
X359753Y-140763D01*
Y-135247D01*
X352247D01*
Y-142753D01*
X357763D01*
X361805Y-146795D01*
X362800Y-147207D01*
X373169D01*
Y-185000D01*
X339207D01*
Y-130366D01*
X340039Y-129811D01*
X340200Y-129878D01*
X341386Y-129386D01*
X341878Y-128200D01*
X341607Y-127547D01*
Y-124486D01*
X342607Y-123949D01*
X343400Y-124278D01*
X344586Y-123786D01*
X345078Y-122600D01*
X344807Y-121947D01*
Y-97653D01*
X345078Y-97000D01*
X344586Y-95814D01*
X343400Y-95322D01*
X342431Y-95723D01*
X341800Y-95778D01*
X341169Y-95723D01*
X340200Y-95322D01*
X339014Y-95814D01*
X338986Y-95814D01*
X337800Y-95322D01*
X336831Y-95723D01*
X336200Y-95778D01*
X335569Y-95723D01*
X334600Y-95322D01*
X333414Y-95814D01*
X332586Y-95814D01*
X331400Y-95322D01*
X330214Y-95814D01*
X330197Y-95853D01*
X329274Y-96236D01*
X329000Y-96122D01*
X327814Y-96614D01*
X327639Y-97035D01*
X326460Y-97270D01*
X326457Y-97267D01*
X326186Y-96614D01*
X326035Y-95855D01*
X326495Y-95396D01*
X326495Y-95396D01*
X326907Y-94401D01*
Y-89500D01*
X326495Y-88505D01*
X326495Y-88505D01*
X325230Y-87240D01*
X324950Y-86565D01*
X323726Y-86058D01*
X322501Y-86565D01*
X321994Y-87790D01*
X322501Y-89014D01*
X323394Y-89384D01*
X324093Y-90083D01*
Y-93818D01*
X321955Y-95956D01*
X321543Y-96951D01*
Y-99850D01*
X321955Y-100845D01*
X322798Y-101688D01*
Y-109244D01*
X321043D01*
Y-113000D01*
Y-116756D01*
X322798D01*
Y-156412D01*
X318867Y-160343D01*
X318214Y-160614D01*
X317722Y-161800D01*
X318214Y-162986D01*
X319400Y-163478D01*
X320586Y-162986D01*
X320857Y-162333D01*
X325201Y-157990D01*
X325613Y-156994D01*
Y-101817D01*
X326613Y-101403D01*
X327593Y-102383D01*
Y-185000D01*
X309670D01*
Y-144626D01*
X310502Y-144070D01*
X311531Y-144497D01*
X315469D01*
X317587Y-143619D01*
X318094Y-142396D01*
X320495Y-139995D01*
X320495Y-139995D01*
X320907Y-139000D01*
Y-127000D01*
X320907Y-127000D01*
X320616Y-126296D01*
X320495Y-126005D01*
X320495Y-126005D01*
X314864Y-120374D01*
Y-116556D01*
X316619D01*
X316619Y-116556D01*
Y-116556D01*
X316621Y-116557D01*
X317181Y-116756D01*
X317181Y-116756D01*
X317547Y-116756D01*
X320043D01*
Y-113000D01*
Y-109244D01*
X317547D01*
X317181Y-109244D01*
X317181Y-109244D01*
X316621Y-109443D01*
X316619Y-109444D01*
Y-109444D01*
X316619Y-109444D01*
X314864D01*
Y-108657D01*
X314676Y-108204D01*
X314678Y-108200D01*
X314186Y-107014D01*
X313977Y-106927D01*
X313495Y-105995D01*
X313578Y-105794D01*
X313907Y-105000D01*
Y-85114D01*
X315456Y-83565D01*
X316240Y-83240D01*
X316748Y-82016D01*
X316240Y-80791D01*
X315016Y-80284D01*
X313791Y-80791D01*
X313466Y-81575D01*
X311505Y-83536D01*
X311407Y-83773D01*
X310407Y-83574D01*
Y-56783D01*
X316320Y-50870D01*
X317244Y-51252D01*
Y-51957D01*
X320500D01*
Y-49095D01*
X319402D01*
X319019Y-48171D01*
X319133Y-48057D01*
X319786Y-47786D01*
X320278Y-46600D01*
X320278D01*
X320278D01*
X320736Y-45786D01*
X321164Y-45609D01*
X321655Y-44423D01*
X321164Y-43237D01*
X319977Y-42745D01*
X319324Y-43016D01*
X317577D01*
X316582Y-43428D01*
X316582Y-43428D01*
X304863Y-55147D01*
X304451Y-56142D01*
Y-99605D01*
X304181Y-100258D01*
X304672Y-101445D01*
X305858Y-101936D01*
X307045Y-101445D01*
X307138Y-101218D01*
X307814Y-100586D01*
X308309Y-100792D01*
X309000Y-101078D01*
X310093Y-100625D01*
X311093Y-100986D01*
Y-104417D01*
X308800Y-106711D01*
X308574Y-107255D01*
X307900Y-107633D01*
Y-109800D01*
X307400D01*
Y-110300D01*
X305659D01*
X305738Y-110492D01*
X305002Y-111266D01*
X304981Y-111276D01*
X303775Y-111775D01*
X303751Y-111834D01*
X302827Y-112216D01*
X302600Y-112122D01*
X301414Y-112614D01*
X301397Y-112653D01*
X300473Y-113036D01*
X300200Y-112922D01*
X299014Y-113414D01*
X298665Y-114254D01*
X298401Y-114384D01*
X297143Y-113897D01*
X297109Y-113814D01*
X295884Y-113307D01*
X295363Y-113523D01*
X294986Y-112614D01*
X293800Y-112122D01*
X293234Y-112357D01*
X293078Y-112200D01*
X292586Y-111014D01*
X291400Y-110522D01*
X290214Y-111014D01*
X290048Y-111415D01*
X289995Y-111495D01*
X289842Y-111640D01*
X289354Y-111757D01*
X289068Y-111614D01*
X288548Y-110942D01*
X288732Y-110500D01*
X288225Y-109275D01*
X287000Y-108768D01*
X286407Y-109014D01*
X285407Y-108346D01*
Y-102017D01*
X286173Y-101505D01*
X287398Y-100998D01*
X287905Y-99773D01*
X287868Y-99683D01*
X288007Y-99347D01*
Y-93116D01*
X287595Y-92122D01*
X287007Y-91534D01*
Y-78100D01*
X286595Y-77105D01*
X286595Y-77105D01*
X281950Y-72461D01*
Y-61241D01*
X282275Y-60457D01*
X281950Y-59673D01*
Y-56556D01*
X283705D01*
Y-51828D01*
X287515Y-48019D01*
X288225Y-47725D01*
X288732Y-46500D01*
X288225Y-45275D01*
X287000Y-44768D01*
X285775Y-45275D01*
X285420Y-46133D01*
X282109Y-49444D01*
X277819D01*
X277736D01*
X276819Y-49244D01*
X276806D01*
X276464Y-49244D01*
X273957D01*
Y-53000D01*
Y-56756D01*
X276464D01*
X276806Y-56756D01*
X276819D01*
X277736Y-56556D01*
X277819D01*
X279136D01*
Y-59673D01*
X278812Y-60457D01*
X279136Y-61241D01*
Y-73043D01*
X279548Y-74038D01*
X280054Y-74544D01*
X279859Y-75524D01*
X279622Y-75622D01*
X279259Y-76500D01*
X281000D01*
Y-77500D01*
X279259D01*
X279299Y-77597D01*
X278861Y-78861D01*
X278369Y-80047D01*
X278861Y-81234D01*
X279514Y-81504D01*
X279593Y-81583D01*
Y-89751D01*
X278950Y-90181D01*
X277764Y-90672D01*
X277272Y-91858D01*
X277651Y-92773D01*
Y-96359D01*
X272005Y-102005D01*
X271593Y-103000D01*
Y-103295D01*
X269444D01*
Y-108619D01*
X269444Y-109619D01*
X269441Y-109626D01*
X269441Y-109627D01*
X269244Y-110181D01*
X269244Y-110181D01*
X269244D01*
X269244Y-110536D01*
Y-113043D01*
X273000D01*
Y-114043D01*
X269244D01*
Y-115000D01*
X248807D01*
Y-111354D01*
X249500Y-110891D01*
Y-109000D01*
X250000D01*
Y-108500D01*
X251741D01*
X251407Y-107693D01*
Y-81807D01*
X251741Y-81000D01*
X250000D01*
Y-80500D01*
X249500D01*
Y-78609D01*
X248807Y-78146D01*
Y-54383D01*
X249533Y-53657D01*
X250186Y-53386D01*
X250678Y-52200D01*
X250186Y-51014D01*
X249000Y-50522D01*
X248878Y-50400D01*
X248386Y-49214D01*
X248101Y-49096D01*
X247584Y-48597D01*
X247099Y-47798D01*
D01*
X247099Y-47798D01*
X246836Y-47164D01*
X246618Y-47073D01*
X245828Y-46550D01*
Y-46550D01*
X245828D01*
X245336Y-45364D01*
X244150Y-44872D01*
X242964Y-45364D01*
X242693Y-46017D01*
X241005Y-47705D01*
X240593Y-48700D01*
Y-115000D01*
X237698D01*
X237049Y-114000D01*
X237132Y-113800D01*
X236625Y-112575D01*
X235400Y-112068D01*
X235000Y-111801D01*
Y-70213D01*
X237626Y-69125D01*
X239127Y-65500D01*
X237626Y-61875D01*
X235000Y-60787D01*
Y-42508D01*
X235831Y-41953D01*
X236000Y-42022D01*
X238908Y-40818D01*
X239991Y-38205D01*
X243765Y-34431D01*
X264539D01*
X264705Y-35265D01*
X264723Y-35354D01*
X264734Y-35412D01*
X264738Y-35431D01*
X264352Y-35591D01*
X264352Y-35591D01*
X263814Y-35814D01*
X263322Y-37000D01*
X263593Y-37653D01*
Y-58747D01*
X263322Y-59400D01*
X263814Y-60586D01*
X265000Y-61078D01*
X265161Y-61011D01*
X265993Y-61566D01*
Y-63547D01*
X265722Y-64200D01*
X266214Y-65386D01*
X267400Y-65878D01*
X268586Y-65386D01*
X269078Y-64200D01*
X268807Y-63547D01*
Y-42453D01*
X269078Y-41800D01*
X268586Y-40614D01*
X267400Y-40122D01*
X267239Y-40189D01*
X266407Y-39634D01*
Y-37653D01*
X266678Y-37000D01*
X266186Y-35814D01*
X265648Y-35591D01*
X265648Y-35591D01*
X265262Y-35431D01*
X265266Y-35412D01*
X265277Y-35354D01*
X265295Y-35265D01*
X265461Y-34431D01*
X271507D01*
Y-34431D01*
X271940Y-35431D01*
X271665Y-36094D01*
X275148D01*
X274873Y-35431D01*
X275305Y-34431D01*
Y-34431D01*
X325645D01*
X363259Y-72045D01*
D02*
G37*
G36*
X287593Y-197104D02*
X287000Y-197501D01*
Y-199500D01*
X286500D01*
Y-200000D01*
X284759D01*
X285093Y-200807D01*
Y-206404D01*
X282920Y-208577D01*
X282812Y-208639D01*
X281748Y-208712D01*
X279907Y-206872D01*
Y-190000D01*
X287593D01*
Y-197104D01*
D02*
G37*
G36*
X415000Y-185000D02*
X389150D01*
X389000Y-184938D01*
X388850Y-185000D01*
X379231D01*
Y-145800D01*
Y-80700D01*
X378343Y-78557D01*
X371241Y-71455D01*
X371663Y-70463D01*
X373643Y-69643D01*
X374531Y-67500D01*
X373643Y-65357D01*
X371500Y-64469D01*
X369357Y-65357D01*
X368537Y-67337D01*
X367545Y-67759D01*
X329043Y-29257D01*
X326900Y-28369D01*
X242510D01*
X240366Y-29257D01*
X235705Y-33919D01*
X233092Y-35001D01*
X231887Y-37909D01*
X232408Y-39169D01*
X231853Y-40000D01*
X190000D01*
Y-10000D01*
X316387D01*
X316943Y-10831D01*
X316873Y-11000D01*
X318137Y-14052D01*
X317494Y-15052D01*
X267400D01*
X266022Y-15622D01*
X264546Y-17098D01*
X263240Y-17640D01*
X262510Y-19400D01*
X263240Y-21160D01*
X265000Y-21890D01*
X266760Y-21160D01*
X267302Y-19854D01*
X268207Y-18948D01*
X271160D01*
X271779Y-19948D01*
X271674Y-20200D01*
X272182Y-21425D01*
X273406Y-21932D01*
X274631Y-21425D01*
X275138Y-20200D01*
X275034Y-19948D01*
X275652Y-18948D01*
X342693D01*
X346131Y-22387D01*
X345688Y-23357D01*
X344040Y-24040D01*
X343310Y-25800D01*
X344040Y-27560D01*
X345800Y-28289D01*
X346220Y-28115D01*
X347052Y-28671D01*
Y-30294D01*
X345444D01*
Y-36381D01*
X345444Y-36619D01*
Y-37000D01*
Y-37381D01*
X345444Y-37619D01*
Y-38109D01*
X344657Y-38866D01*
X343470Y-39357D01*
X342979Y-40543D01*
X343470Y-41730D01*
X344657Y-42221D01*
X345444Y-42977D01*
Y-43705D01*
X352556D01*
Y-37619D01*
X352556Y-37381D01*
Y-37000D01*
Y-36619D01*
X352556Y-36405D01*
X352613Y-35405D01*
X367108D01*
X367990Y-35689D01*
X367941Y-36484D01*
Y-36484D01*
X366204Y-37204D01*
X365460Y-39000D01*
X371540D01*
X370796Y-37204D01*
X369059Y-36484D01*
X369010Y-35689D01*
X369892Y-35405D01*
X377650D01*
X382552Y-40307D01*
Y-128500D01*
X383122Y-129878D01*
X388703Y-135458D01*
X388686Y-135500D01*
X389510Y-137490D01*
X391500Y-138314D01*
X393490Y-137490D01*
X394314Y-135500D01*
X393490Y-133510D01*
X391500Y-132686D01*
X391458Y-132703D01*
X386448Y-127693D01*
Y-84742D01*
X386844Y-83906D01*
X387448Y-83906D01*
X390100D01*
Y-80543D01*
X390600D01*
Y-80043D01*
X394356D01*
Y-77536D01*
X394356Y-77194D01*
Y-77181D01*
X394156Y-76264D01*
Y-76181D01*
Y-74864D01*
X394943D01*
X395396Y-74676D01*
X395400Y-74678D01*
X396586Y-74186D01*
X397078Y-73000D01*
X396586Y-71814D01*
X395400Y-71322D01*
X395156Y-71423D01*
X394156Y-70755D01*
Y-70294D01*
X387448D01*
X387044Y-70294D01*
X386448Y-69541D01*
X386448Y-69541D01*
Y-39500D01*
X385878Y-38122D01*
X379834Y-32079D01*
X378457Y-31508D01*
X352556D01*
Y-30294D01*
X350948D01*
Y-25800D01*
Y-22500D01*
X350378Y-21122D01*
X344878Y-15622D01*
X343500Y-15052D01*
X326506D01*
X325863Y-14052D01*
X327127Y-11000D01*
X327058Y-10831D01*
X327613Y-10000D01*
X415000D01*
Y-185000D01*
D02*
G37*
G36*
X312462Y-121952D02*
X317898Y-127388D01*
X317829Y-128390D01*
X317000Y-128921D01*
X315469Y-128287D01*
X314000D01*
Y-131500D01*
X313000D01*
Y-128287D01*
X311531D01*
X311202Y-128067D01*
Y-121523D01*
X312202Y-121324D01*
X312462Y-121952D01*
D02*
G37*
G36*
X185000Y-45000D02*
X230000D01*
Y-62778D01*
X228873Y-65500D01*
X230000Y-68222D01*
Y-120000D01*
X233993D01*
Y-121293D01*
X233659Y-122100D01*
X237141D01*
X236807Y-121293D01*
Y-120000D01*
X240593D01*
Y-203780D01*
X237580Y-206793D01*
X236020D01*
X235465Y-205961D01*
X235532Y-205800D01*
X235025Y-204575D01*
X233800Y-204068D01*
X233566Y-204165D01*
X232806Y-203405D01*
X232803Y-203393D01*
X233132Y-202600D01*
X232625Y-201375D01*
X231841Y-201051D01*
X222664Y-191874D01*
Y-176984D01*
X222989Y-176200D01*
X222481Y-174975D01*
X221257Y-174468D01*
X221007Y-174572D01*
X220007Y-173903D01*
Y-147440D01*
X221697Y-145749D01*
X222481Y-145425D01*
X222989Y-144200D01*
X222481Y-142975D01*
X221257Y-142468D01*
X220032Y-142975D01*
X219707Y-143759D01*
X217605Y-145862D01*
X217193Y-146857D01*
Y-189437D01*
X216193Y-189997D01*
X215400Y-189668D01*
X214175Y-190175D01*
X213668Y-191400D01*
X214175Y-192625D01*
X215400Y-193132D01*
X216193Y-192803D01*
X217193Y-193363D01*
Y-194970D01*
X217605Y-195965D01*
X227509Y-205869D01*
X227127Y-206793D01*
X212200D01*
X212200Y-206793D01*
X211205Y-207205D01*
X207262Y-211148D01*
X206049Y-210947D01*
X205878Y-210600D01*
X205386Y-209414D01*
X204200Y-208922D01*
X203014Y-209414D01*
X202522Y-210600D01*
X201996Y-210603D01*
X201800Y-210522D01*
X200614Y-211014D01*
X200122Y-212200D01*
X200614Y-213386D01*
X200993Y-213543D01*
Y-222164D01*
X201405Y-223159D01*
X204869Y-226622D01*
Y-257082D01*
X204393D01*
Y-262225D01*
X217607D01*
Y-262107D01*
X218347Y-261331D01*
X219533Y-260840D01*
X220024Y-259653D01*
X219533Y-258467D01*
X218347Y-257976D01*
X217607Y-257200D01*
Y-257082D01*
X213982D01*
Y-246028D01*
X214252Y-245375D01*
X213761Y-244188D01*
X212575Y-243697D01*
X211832Y-244005D01*
X210832Y-243438D01*
Y-232428D01*
X211103Y-231775D01*
X210612Y-230589D01*
X209425Y-230097D01*
X208683Y-230405D01*
X207683Y-229838D01*
Y-226541D01*
X208581Y-225831D01*
X208607Y-225826D01*
X208856Y-225887D01*
X209239Y-226812D01*
X210425Y-227303D01*
X211168Y-226995D01*
X212168Y-227562D01*
Y-239175D01*
X212192Y-239233D01*
X212122Y-239400D01*
X212614Y-240586D01*
X213800Y-241078D01*
X214317Y-240863D01*
X215317Y-241532D01*
Y-252724D01*
X215377Y-252868D01*
X215322Y-253000D01*
X215814Y-254186D01*
X217000Y-254678D01*
X218186Y-254186D01*
X218678Y-253000D01*
X218186Y-251814D01*
X218131Y-251791D01*
Y-224918D01*
X218607D01*
Y-219775D01*
X206901D01*
X206424Y-219169D01*
X206841Y-218225D01*
X218607D01*
Y-217061D01*
X219628D01*
X220122Y-217800D01*
X220393Y-218453D01*
Y-229174D01*
X219814Y-229414D01*
X219322Y-230600D01*
X219814Y-231786D01*
X221000Y-232278D01*
X222186Y-231786D01*
X222457Y-231133D01*
X222795Y-230795D01*
X223207Y-229800D01*
Y-218453D01*
X223478Y-217800D01*
X223972Y-217061D01*
X236188D01*
X236794Y-218061D01*
X236593Y-218546D01*
Y-220462D01*
X235761Y-221018D01*
X235400Y-220868D01*
X234359Y-221299D01*
X234225Y-220975D01*
X233000Y-220468D01*
X231775Y-220975D01*
X231268Y-222200D01*
X230491Y-222937D01*
X229675Y-223275D01*
X229351Y-224059D01*
X228505Y-224905D01*
X228093Y-225900D01*
Y-228216D01*
X227768Y-229000D01*
X228275Y-230225D01*
X229500Y-230732D01*
X230593Y-230279D01*
X231593Y-230663D01*
Y-246460D01*
X230593Y-246954D01*
X229500Y-246501D01*
Y-249000D01*
Y-251499D01*
X230593Y-251046D01*
X231593Y-251540D01*
Y-269337D01*
X230593Y-269721D01*
X229500Y-269268D01*
X228275Y-269775D01*
X227768Y-271000D01*
X228193Y-272025D01*
Y-284098D01*
X227212Y-284293D01*
X227080Y-283975D01*
X224555Y-282929D01*
Y-287000D01*
Y-291071D01*
X227080Y-290025D01*
X227212Y-289707D01*
X228193Y-289902D01*
Y-315000D01*
X221189D01*
X220634Y-314169D01*
X221117Y-313000D01*
X219865Y-309977D01*
X216843Y-308725D01*
X213820Y-309977D01*
X212567Y-313000D01*
X213052Y-314169D01*
X212496Y-315000D01*
X211347D01*
X210791Y-314169D01*
X211275Y-313000D01*
X210023Y-309977D01*
X207000Y-308725D01*
X203977Y-309977D01*
X202725Y-313000D01*
X203209Y-314169D01*
X202653Y-315000D01*
X200886D01*
X183391Y-297505D01*
X182308Y-294892D01*
X179400Y-293687D01*
X176492Y-294892D01*
X175287Y-297800D01*
X176492Y-300708D01*
X179105Y-301791D01*
X184899Y-307585D01*
X184489Y-308590D01*
X181509Y-309824D01*
X180401Y-312500D01*
X184685D01*
Y-313500D01*
X180401D01*
X180678Y-314169D01*
X180129Y-314989D01*
X179182D01*
X178633Y-314169D01*
X179118Y-313000D01*
X177865Y-309977D01*
X176250Y-309308D01*
Y-303135D01*
X175838Y-302140D01*
X175838Y-302140D01*
X165746Y-292049D01*
X165980Y-290869D01*
X168023Y-290023D01*
X169275Y-287000D01*
X168023Y-283977D01*
X165980Y-283131D01*
X165395Y-282302D01*
X165538Y-281957D01*
X165807Y-281307D01*
Y-185353D01*
X165395Y-184358D01*
X164407Y-183370D01*
Y-129083D01*
X164941Y-128549D01*
X165725Y-128225D01*
X166232Y-127000D01*
X165725Y-125775D01*
X164500Y-125268D01*
X163275Y-125775D01*
X163007Y-125868D01*
X162007Y-125154D01*
Y-107583D01*
X163133Y-106457D01*
X163786Y-106186D01*
X164278Y-105000D01*
X163786Y-103814D01*
X162600Y-103322D01*
X161650Y-102851D01*
X161386Y-102214D01*
X161347Y-102197D01*
X160964Y-101274D01*
X161078Y-101000D01*
X160586Y-99814D01*
X159400Y-99322D01*
X158214Y-99814D01*
X157943Y-100467D01*
X155205Y-103205D01*
X154793Y-104200D01*
Y-144347D01*
X154522Y-145000D01*
X155014Y-146186D01*
X156200Y-146678D01*
X156361Y-146611D01*
X157193Y-147166D01*
Y-183450D01*
X156451Y-184141D01*
X156180Y-184109D01*
X155557Y-183693D01*
Y-157922D01*
X155732Y-157500D01*
X155225Y-156275D01*
X154000Y-155768D01*
X152775Y-156275D01*
X152268Y-157500D01*
X152743Y-158646D01*
Y-186950D01*
X153155Y-187945D01*
X157093Y-191883D01*
Y-291500D01*
X157505Y-292495D01*
X163593Y-298583D01*
Y-303466D01*
X162593Y-303665D01*
X162225Y-302775D01*
X161000Y-302268D01*
X160056Y-301795D01*
Y-301795D01*
X155000D01*
Y-280000D01*
X55000D01*
Y-274407D01*
X77000D01*
X77995Y-273995D01*
X89995Y-261995D01*
X90407Y-261000D01*
Y-238812D01*
X91407Y-238613D01*
X92339Y-240862D01*
X94900Y-241922D01*
Y-237800D01*
Y-233678D01*
X92339Y-234738D01*
X91407Y-236987D01*
X90407Y-236788D01*
Y-228853D01*
X91407Y-228335D01*
X92233Y-228678D01*
X93419Y-228186D01*
X93690Y-227533D01*
X95595Y-225628D01*
X96007Y-224633D01*
Y-221620D01*
X96839Y-221065D01*
X97000Y-221132D01*
X98225Y-220625D01*
X99323Y-220435D01*
X99576Y-220614D01*
X99753Y-220954D01*
X99497Y-221571D01*
X100004Y-222796D01*
X101229Y-223303D01*
X102454Y-222796D01*
X102961Y-221571D01*
X102636Y-220787D01*
Y-219629D01*
X102224Y-218634D01*
X100973Y-217383D01*
X101132Y-217000D01*
X100625Y-215775D01*
X99447Y-215287D01*
X99388Y-215254D01*
X98701Y-214475D01*
X98732Y-214400D01*
X98225Y-213175D01*
X97000Y-212668D01*
X96839Y-212735D01*
X96007Y-212179D01*
Y-209704D01*
X96931Y-209321D01*
X105605Y-217995D01*
X106600Y-218407D01*
X123617D01*
X124251Y-219041D01*
X124575Y-219825D01*
X124673Y-219865D01*
X124868Y-220846D01*
X110945Y-234769D01*
X98474D01*
X98462Y-234738D01*
X95900Y-233678D01*
Y-237800D01*
Y-241922D01*
X98462Y-240862D01*
X98474Y-240831D01*
X112200D01*
X114343Y-239943D01*
X133837Y-220449D01*
X134213Y-220293D01*
X142256Y-212250D01*
X143144Y-210107D01*
Y-196161D01*
X143175Y-196148D01*
X144236Y-193587D01*
X135991D01*
X137052Y-196148D01*
X137083Y-196161D01*
Y-208852D01*
X132931Y-213003D01*
X132007Y-212621D01*
Y-187983D01*
X132733Y-187257D01*
X133386Y-186986D01*
X133878Y-185800D01*
X133386Y-184614D01*
X132200Y-184122D01*
X131014Y-184614D01*
X130743Y-185267D01*
X129605Y-186405D01*
X129193Y-187400D01*
Y-199389D01*
X128193Y-199803D01*
X126795Y-198405D01*
X125800Y-197993D01*
X121784D01*
X121000Y-197668D01*
X120695Y-197794D01*
X119864Y-197239D01*
Y-189726D01*
X147841Y-161749D01*
X148625Y-161425D01*
X149132Y-160200D01*
X148625Y-158975D01*
X147400Y-158468D01*
X147017Y-158627D01*
X136071Y-147681D01*
X135747Y-146897D01*
X134522Y-146390D01*
X133298Y-146897D01*
X132790Y-148122D01*
X133298Y-149347D01*
X134081Y-149671D01*
X144510Y-160100D01*
Y-161100D01*
X117462Y-188148D01*
X117050Y-189143D01*
Y-201959D01*
X116725Y-202743D01*
X117232Y-203968D01*
X118457Y-204475D01*
X119681Y-203968D01*
X120188Y-202743D01*
X119864Y-201959D01*
Y-201561D01*
X120695Y-201006D01*
X121000Y-201132D01*
X121784Y-200807D01*
X125217D01*
X126651Y-202241D01*
X126975Y-203025D01*
X128200Y-203532D01*
X128361Y-203465D01*
X129193Y-204021D01*
Y-213947D01*
X128922Y-214600D01*
X129182Y-215226D01*
X129414Y-215786D01*
X129017Y-216697D01*
X128046Y-217668D01*
X127065Y-217473D01*
X127025Y-217375D01*
X126241Y-217051D01*
X125195Y-216005D01*
X124200Y-215593D01*
X111104D01*
X110721Y-214669D01*
X113995Y-211395D01*
X113995Y-211395D01*
X114116Y-211104D01*
X114407Y-210400D01*
X114407Y-210400D01*
Y-203095D01*
X114732Y-202311D01*
X114225Y-201086D01*
X113000Y-200579D01*
X111775Y-201086D01*
X111268Y-202311D01*
X111593Y-203095D01*
Y-209817D01*
X108442Y-212968D01*
X108200Y-212868D01*
X106975Y-213375D01*
X106801Y-213797D01*
X105621Y-214031D01*
X98407Y-206817D01*
Y-192241D01*
X98732Y-191457D01*
X98225Y-190232D01*
X97000Y-189725D01*
X96839Y-189792D01*
X96007Y-189236D01*
Y-99183D01*
X96733Y-98457D01*
X97386Y-98186D01*
X97878Y-97000D01*
X97386Y-95814D01*
X96200Y-95322D01*
X95250Y-94851D01*
X94986Y-94214D01*
X93800Y-93722D01*
X93643Y-93566D01*
X93878Y-93000D01*
X93386Y-91814D01*
X92200Y-91322D01*
X91014Y-91814D01*
X90743Y-92467D01*
X88805Y-94405D01*
X88393Y-95400D01*
Y-110720D01*
X87775Y-110975D01*
X87268Y-112200D01*
X87775Y-113425D01*
X89000Y-113932D01*
X89361Y-113782D01*
X90193Y-114338D01*
Y-134616D01*
X89868Y-135400D01*
X90375Y-136625D01*
X91600Y-137132D01*
X92193Y-136886D01*
X93193Y-137554D01*
Y-155837D01*
X92193Y-156397D01*
X91400Y-156068D01*
X90175Y-156575D01*
X89668Y-157800D01*
X89993Y-158584D01*
Y-194780D01*
X89161Y-195335D01*
X89000Y-195268D01*
X87775Y-195775D01*
X87268Y-197000D01*
X87593Y-197784D01*
Y-219416D01*
X87268Y-220200D01*
X87593Y-220984D01*
Y-260417D01*
X76417Y-271593D01*
X55000D01*
Y-260407D01*
X55000D01*
X55995Y-259995D01*
X60395Y-255595D01*
X60395Y-255595D01*
X60516Y-255304D01*
X60807Y-254600D01*
X60807Y-254600D01*
Y-220783D01*
X62241Y-219349D01*
X63025Y-219025D01*
X63532Y-217800D01*
X63025Y-216575D01*
X61800Y-216068D01*
X60575Y-216575D01*
X60251Y-217359D01*
X59331Y-218279D01*
X58407Y-217896D01*
Y-189541D01*
X59407Y-189046D01*
X60500Y-189499D01*
Y-187000D01*
Y-184501D01*
X59407Y-184954D01*
X58407Y-184459D01*
Y-181784D01*
X58732Y-181000D01*
X58225Y-179775D01*
X57000Y-179268D01*
X56000Y-179682D01*
X55000Y-179244D01*
Y-90000D01*
X75000D01*
Y-82149D01*
X76000Y-81950D01*
X76600Y-83399D01*
X80000Y-84808D01*
X83399Y-83399D01*
X84808Y-80000D01*
X83399Y-76600D01*
X80000Y-75192D01*
X76600Y-76600D01*
X76000Y-78050D01*
X75000Y-77851D01*
Y-65210D01*
X75558Y-64442D01*
X84442D01*
Y-58627D01*
X85366Y-58244D01*
X105561Y-78439D01*
X110000Y-80278D01*
X114439Y-78439D01*
X116278Y-74000D01*
X114439Y-69561D01*
X75000Y-30122D01*
Y-10000D01*
X185000D01*
Y-45000D01*
D02*
G37*
G36*
X270000Y-190000D02*
X270593D01*
Y-192216D01*
X270268Y-193000D01*
X270775Y-194225D01*
X272000Y-194732D01*
X272261Y-194624D01*
X273093Y-195179D01*
Y-207500D01*
X272093Y-208129D01*
X271000Y-207676D01*
Y-210500D01*
Y-213324D01*
X272093Y-212871D01*
X273093Y-213500D01*
Y-252216D01*
X272768Y-253000D01*
X273275Y-254225D01*
X274500Y-254732D01*
X275725Y-254225D01*
X276232Y-253000D01*
X275907Y-252216D01*
Y-215077D01*
X276907Y-214662D01*
X277122Y-214878D01*
X277526Y-215045D01*
X278500Y-215448D01*
X278924D01*
X279360Y-216100D01*
X279867Y-217325D01*
X279981Y-218454D01*
X279622Y-218813D01*
X279052Y-220191D01*
Y-223909D01*
X279509Y-225014D01*
X279238Y-226209D01*
X278510Y-226510D01*
X277686Y-228500D01*
X278510Y-230490D01*
X278552Y-230507D01*
Y-291398D01*
X272142Y-297808D01*
X272100Y-297791D01*
X271239Y-298148D01*
X270407Y-297592D01*
Y-294600D01*
X269995Y-293605D01*
X267595Y-291205D01*
X266600Y-290793D01*
X259402D01*
X258961Y-289793D01*
X260118Y-287000D01*
X258865Y-283977D01*
X255842Y-282725D01*
X252820Y-283977D01*
X251568Y-287000D01*
X252724Y-289793D01*
X252283Y-290793D01*
X249559D01*
X249118Y-289793D01*
X250275Y-287000D01*
X249023Y-283977D01*
X246000Y-282725D01*
X242977Y-283977D01*
X241725Y-287000D01*
X242882Y-289793D01*
X242441Y-290793D01*
X240783D01*
X239005Y-289015D01*
X239200Y-288035D01*
X239225Y-288025D01*
X239732Y-286800D01*
X239407Y-286016D01*
Y-246540D01*
X240407Y-246046D01*
X241500Y-246499D01*
Y-244000D01*
Y-241501D01*
X240407Y-241954D01*
X239407Y-241459D01*
Y-230407D01*
X245716D01*
X246500Y-230732D01*
X247725Y-230225D01*
X248232Y-229000D01*
X247725Y-227775D01*
X246500Y-227268D01*
X245716Y-227593D01*
X239407D01*
Y-219128D01*
X250795Y-207741D01*
X251207Y-206746D01*
Y-184984D01*
X251532Y-184200D01*
X251025Y-182975D01*
X249800Y-182468D01*
X249639Y-182535D01*
X248807Y-181980D01*
Y-120000D01*
X253560D01*
X253759Y-121000D01*
X253222Y-121222D01*
X252859Y-122100D01*
X256341D01*
X255978Y-121222D01*
X255441Y-121000D01*
X255640Y-120000D01*
X270000D01*
Y-190000D01*
D02*
G37*
G36*
X592889Y19000D02*
X589764Y11457D01*
X593138Y3311D01*
X601284Y-63D01*
X609429Y3311D01*
X610303Y5421D01*
X611283Y5226D01*
Y-15970D01*
X610452Y-16525D01*
X608282Y-15626D01*
X603150Y-17752D01*
X601024Y-22884D01*
X603150Y-28016D01*
X608282Y-30142D01*
X610452Y-29243D01*
X611283Y-29799D01*
Y-328769D01*
X610303Y-328964D01*
X609429Y-326855D01*
X601284Y-323481D01*
X593138Y-326855D01*
X589764Y-335000D01*
X593138Y-343145D01*
X595248Y-344019D01*
X595052Y-345000D01*
X489925D01*
X489726Y-344000D01*
X491998Y-343059D01*
X493356Y-339780D01*
X483083D01*
X484441Y-343059D01*
X486713Y-344000D01*
X486514Y-345000D01*
X463812D01*
X463613Y-344000D01*
X466255Y-342906D01*
X467757Y-339280D01*
X466255Y-335655D01*
X462629Y-334153D01*
X459004Y-335655D01*
X457502Y-339280D01*
X459004Y-342906D01*
X461645Y-344000D01*
X461446Y-345000D01*
X446097D01*
X445902Y-344019D01*
X448012Y-343145D01*
X451385Y-335000D01*
X448012Y-326855D01*
X439866Y-323481D01*
X432283Y-326622D01*
X431284Y-325985D01*
Y-144469D01*
X432115Y-143914D01*
X433085Y-144316D01*
X438217Y-142190D01*
X440343Y-137057D01*
X438217Y-131925D01*
X433085Y-129799D01*
X432115Y-130201D01*
X431284Y-129646D01*
Y-30296D01*
X432115Y-29741D01*
X433085Y-30142D01*
X438217Y-28016D01*
X440343Y-22884D01*
X438217Y-17752D01*
X433085Y-15626D01*
X432115Y-16028D01*
X431284Y-15473D01*
Y2442D01*
X432283Y3078D01*
X439866Y-63D01*
X448012Y3311D01*
X451385Y11457D01*
X448261Y19000D01*
X448920Y20000D01*
X592229D01*
X592889Y19000D01*
D02*
G37*
%LPC*%
G36*
X286000Y-197759D02*
X285122Y-198122D01*
X284759Y-199000D01*
X286000D01*
Y-197759D01*
D02*
G37*
G36*
X603893Y-197862D02*
X598646D01*
Y-203108D01*
X602356Y-201572D01*
X603893Y-197862D01*
D02*
G37*
G36*
X186900Y-193701D02*
X185487Y-194287D01*
X184901Y-195700D01*
X186900D01*
Y-193701D01*
D02*
G37*
G36*
X534564Y-188488D02*
X533339Y-188995D01*
X533014Y-189779D01*
X532989Y-189805D01*
X532576Y-190800D01*
Y-197357D01*
X532352Y-197900D01*
X532859Y-199125D01*
X534084Y-199632D01*
X535308Y-199125D01*
X535815Y-197900D01*
X535391Y-196875D01*
Y-191609D01*
X535788Y-191444D01*
X536296Y-190220D01*
X535788Y-188995D01*
X534564Y-188488D01*
D02*
G37*
G36*
X69000Y-191873D02*
X65374Y-193375D01*
X63873Y-197000D01*
X65374Y-200625D01*
X69000Y-202127D01*
X72625Y-200625D01*
X74127Y-197000D01*
X72625Y-193375D01*
X69000Y-191873D01*
D02*
G37*
G36*
X113000Y-186522D02*
X111814Y-187014D01*
X111322Y-188200D01*
X111593Y-188853D01*
Y-196374D01*
X111014Y-196614D01*
X110522Y-197800D01*
X111014Y-198986D01*
X112200Y-199478D01*
X113386Y-198986D01*
X113657Y-198333D01*
X113995Y-197995D01*
X114407Y-197000D01*
Y-188853D01*
X114678Y-188200D01*
X114186Y-187014D01*
X113000Y-186522D01*
D02*
G37*
G36*
X84499Y-196500D02*
X82500D01*
Y-198499D01*
X83913Y-197913D01*
X84499Y-196500D01*
D02*
G37*
G36*
X78600Y-148868D02*
X77375Y-149375D01*
X76868Y-150600D01*
X77193Y-151384D01*
Y-211520D01*
X76575Y-211775D01*
X76068Y-213000D01*
X76575Y-214225D01*
X77800Y-214732D01*
X79025Y-214225D01*
X79349Y-213441D01*
X79595Y-213195D01*
X80007Y-212200D01*
Y-198963D01*
X81007Y-198295D01*
X81500Y-198499D01*
Y-196000D01*
Y-193501D01*
X81007Y-193705D01*
X80007Y-193037D01*
Y-151384D01*
X80332Y-150600D01*
X79825Y-149375D01*
X78600Y-148868D01*
D02*
G37*
G36*
X556284Y-169911D02*
X554523Y-170640D01*
X553794Y-172400D01*
X554168Y-173303D01*
X553612Y-174134D01*
X535284D01*
X534671Y-174388D01*
X534418Y-175000D01*
Y-182090D01*
X534671Y-182702D01*
X535284Y-182956D01*
X542138D01*
Y-201697D01*
X535284D01*
X534671Y-201950D01*
X534418Y-202563D01*
Y-208000D01*
X534671Y-208612D01*
X535284Y-208866D01*
X548762D01*
X549414Y-209866D01*
X549152Y-210500D01*
X549659Y-211725D01*
X550883Y-212232D01*
X551667Y-211907D01*
X561684D01*
X562678Y-211495D01*
X566578Y-207595D01*
X566578Y-207595D01*
X566991Y-206600D01*
Y-199700D01*
X566578Y-198705D01*
X564179Y-196305D01*
X563183Y-195893D01*
X562767D01*
X561983Y-195568D01*
X560759Y-196075D01*
X560252Y-197300D01*
X560759Y-198525D01*
X561983Y-199032D01*
X562649Y-198756D01*
X564176Y-200283D01*
Y-206017D01*
X563149Y-207044D01*
X562149Y-206630D01*
Y-202563D01*
X561896Y-201950D01*
X561283Y-201697D01*
X556468D01*
Y-182956D01*
X561283D01*
X561896Y-182702D01*
X562149Y-182090D01*
Y-178120D01*
X563073Y-177737D01*
X570394Y-185058D01*
X570294Y-185300D01*
X570949Y-186881D01*
X570537Y-187881D01*
X567803D01*
X567662Y-187541D01*
X565484Y-186638D01*
Y-190220D01*
Y-193801D01*
X567662Y-192898D01*
X567902Y-192319D01*
X581144D01*
X582713Y-191669D01*
X590582Y-183800D01*
X591505Y-184183D01*
Y-192940D01*
X592155Y-194509D01*
X593018Y-195372D01*
X592400Y-196862D01*
X597647D01*
Y-191616D01*
X596943Y-191908D01*
X595943Y-191239D01*
Y-181944D01*
X597503Y-181298D01*
X598861Y-178020D01*
X588588D01*
X589027Y-179079D01*
X580225Y-187881D01*
X575030D01*
X574618Y-186881D01*
X575273Y-185300D01*
X574544Y-183540D01*
X574363Y-183465D01*
X574271Y-183036D01*
X574561Y-182300D01*
X577350Y-181145D01*
X578852Y-177520D01*
X577350Y-173894D01*
X573724Y-172392D01*
X570099Y-173894D01*
X568944Y-176683D01*
X567764Y-176918D01*
X564983Y-174136D01*
X564461Y-172877D01*
X562607Y-171022D01*
X561229Y-170452D01*
X557590D01*
X556284Y-169911D01*
D02*
G37*
G36*
X189899Y-196700D02*
X187900D01*
Y-198699D01*
X189313Y-198113D01*
X189899Y-196700D01*
D02*
G37*
G36*
X469827Y-193825D02*
X468602Y-194332D01*
X468278Y-195116D01*
X466601Y-196793D01*
X449724D01*
X449171Y-195793D01*
X449582Y-194800D01*
X444585D01*
X445170Y-196213D01*
X446082Y-196591D01*
X446240Y-197246D01*
X446249Y-197743D01*
X445822Y-198775D01*
X445802Y-198814D01*
X445653Y-199050D01*
X445075Y-199634D01*
X438784D01*
X438171Y-199888D01*
X437918Y-200500D01*
Y-213500D01*
X438171Y-214112D01*
X438784Y-214366D01*
X445284D01*
X445896Y-214112D01*
X446149Y-213500D01*
Y-210366D01*
X458284D01*
X458896Y-210112D01*
X459149Y-209500D01*
Y-204500D01*
X458896Y-203888D01*
X458284Y-203634D01*
X446149D01*
Y-201037D01*
X447084Y-200342D01*
X447543Y-200532D01*
X448768Y-200025D01*
X448941Y-199607D01*
X467183D01*
X468179Y-199195D01*
X470267Y-197106D01*
X471051Y-196781D01*
X471559Y-195557D01*
X471051Y-194332D01*
X469827Y-193825D01*
D02*
G37*
G36*
X598646Y-191616D02*
Y-196862D01*
X603893D01*
X602356Y-193153D01*
X598646Y-191616D01*
D02*
G37*
G36*
X186900Y-196700D02*
X184901D01*
X185487Y-198113D01*
X186900Y-198699D01*
Y-196700D01*
D02*
G37*
G36*
X502783Y-209929D02*
X500258Y-210975D01*
X499212Y-213500D01*
X502783D01*
Y-209929D01*
D02*
G37*
G36*
X579716Y-210887D02*
X577537Y-211789D01*
X576635Y-213968D01*
X579716D01*
Y-210887D01*
D02*
G37*
G36*
X270000Y-211000D02*
X267676D01*
X268357Y-212643D01*
X270000Y-213324D01*
Y-211000D01*
D02*
G37*
G36*
X503784Y-209929D02*
Y-213500D01*
X507355D01*
X506309Y-210975D01*
X503784Y-209929D01*
D02*
G37*
G36*
X579716Y-214968D02*
X576635D01*
X577537Y-217146D01*
X579716Y-218049D01*
Y-214968D01*
D02*
G37*
G36*
X507355Y-214500D02*
X503784D01*
Y-218071D01*
X506309Y-217025D01*
X507355Y-214500D01*
D02*
G37*
G36*
X537036Y-210247D02*
X529531D01*
Y-217753D01*
X537036D01*
Y-215407D01*
X538758D01*
X539783Y-215832D01*
X541008Y-215325D01*
X541515Y-214100D01*
X541008Y-212876D01*
X539783Y-212368D01*
X539241Y-212593D01*
X537036D01*
Y-210247D01*
D02*
G37*
G36*
X583797Y-214968D02*
X580716D01*
Y-218049D01*
X582895Y-217146D01*
X583797Y-214968D01*
D02*
G37*
G36*
X467327Y-205116D02*
X466449Y-205479D01*
X466086Y-206357D01*
X467327D01*
Y-205116D01*
D02*
G37*
G36*
X469568Y-207357D02*
X468327D01*
Y-208598D01*
X469205Y-208234D01*
X469568Y-207357D01*
D02*
G37*
G36*
X597647Y-197862D02*
X592400D01*
X592776Y-198769D01*
X580716Y-210830D01*
Y-213968D01*
X583854D01*
X595572Y-202249D01*
X597647Y-203108D01*
Y-197862D01*
D02*
G37*
G36*
X468327Y-205116D02*
Y-206357D01*
X469568D01*
X469205Y-205479D01*
X468327Y-205116D01*
D02*
G37*
G36*
X516083Y-206068D02*
X514859Y-206575D01*
X514352Y-207800D01*
X514859Y-209025D01*
X515643Y-209349D01*
X516468Y-210175D01*
X515902Y-211023D01*
X513283Y-209938D01*
X510411Y-211128D01*
X509222Y-214000D01*
X509828Y-215465D01*
X506043Y-219251D01*
X505259Y-219576D01*
X504752Y-220800D01*
X505259Y-222025D01*
X506484Y-222532D01*
X507708Y-222025D01*
X508033Y-221241D01*
X511818Y-217455D01*
X513283Y-218062D01*
X516076Y-216905D01*
X517076Y-217258D01*
Y-225950D01*
X516104Y-226456D01*
X515469Y-226104D01*
X515208Y-225476D01*
X513983Y-224968D01*
X512759Y-225476D01*
X512252Y-226700D01*
X512759Y-227925D01*
X513543Y-228249D01*
X514084Y-228791D01*
X514086Y-229081D01*
X514086Y-229138D01*
X514086Y-229141D01*
X513143Y-230095D01*
X513067Y-230095D01*
X513042D01*
X513042D01*
X510783D01*
Y-232957D01*
X514039D01*
Y-231092D01*
Y-231092D01*
Y-231067D01*
X514039Y-230991D01*
X514993Y-230048D01*
X515036Y-230048D01*
X515343Y-230050D01*
X516634Y-231341D01*
X516959Y-232125D01*
X518131Y-232610D01*
X517754Y-233523D01*
Y-234214D01*
X516754Y-234846D01*
X516083Y-234568D01*
X515039Y-235001D01*
X514039Y-234588D01*
Y-233957D01*
X506528D01*
Y-236464D01*
X506528Y-236806D01*
Y-236819D01*
X506728Y-237736D01*
Y-237819D01*
Y-239136D01*
X505840D01*
X504845Y-239548D01*
X504845Y-239548D01*
X503943Y-240451D01*
X503159Y-240775D01*
X502652Y-242000D01*
X503159Y-243225D01*
X504384Y-243732D01*
X505608Y-243225D01*
X505728Y-242936D01*
X506728Y-243135D01*
Y-243706D01*
X513839D01*
Y-242966D01*
X513870Y-242945D01*
X515095Y-242438D01*
X515200Y-242183D01*
X516160Y-241992D01*
X516832Y-242664D01*
X516602Y-243822D01*
X516039Y-244056D01*
X515675Y-244933D01*
X517417D01*
Y-245433D01*
X517917D01*
Y-247218D01*
X518876Y-247859D01*
Y-248416D01*
X518552Y-249200D01*
X518637Y-249406D01*
X518082Y-250238D01*
X469880D01*
X469753Y-249931D01*
X467227Y-248885D01*
X464701Y-249931D01*
X463655Y-252457D01*
X464701Y-254982D01*
X467227Y-256029D01*
X469753Y-254982D01*
X469880Y-254676D01*
X523266D01*
X524835Y-254026D01*
X538654Y-240207D01*
X539578Y-240590D01*
Y-244556D01*
X540134D01*
X540389Y-244938D01*
X540897Y-246162D01*
X542121Y-246670D01*
X543346Y-246162D01*
X543853Y-244938D01*
X544108Y-244556D01*
X545234D01*
X545902Y-245556D01*
X545842Y-245700D01*
X547583D01*
Y-246200D01*
X548083D01*
Y-247941D01*
X548961Y-247578D01*
X549502Y-246271D01*
X550822Y-244952D01*
X550903Y-244756D01*
X553189D01*
Y-242354D01*
X554189Y-241686D01*
X554783Y-241932D01*
X556008Y-241425D01*
X556515Y-240200D01*
X556191Y-239416D01*
Y-238413D01*
X574905D01*
X576474Y-237763D01*
X596309Y-217928D01*
X598146Y-218689D01*
X602203Y-217009D01*
X603883Y-212953D01*
X602203Y-208896D01*
X598146Y-207216D01*
X594090Y-208896D01*
X592410Y-212953D01*
X593171Y-214790D01*
X573986Y-233975D01*
X539529D01*
X537960Y-234625D01*
X522895Y-249690D01*
X522015Y-249200D01*
X521691Y-248416D01*
Y-244100D01*
X521691Y-244100D01*
X521399Y-243396D01*
X521278Y-243105D01*
X521278Y-243105D01*
X517557Y-239383D01*
X517617Y-238370D01*
X518491Y-237786D01*
X519083Y-238032D01*
X520308Y-237525D01*
X520815Y-236300D01*
X520568Y-235702D01*
Y-234106D01*
X523124Y-231549D01*
X523908Y-231225D01*
X524415Y-230000D01*
X523908Y-228776D01*
X522683Y-228268D01*
X521459Y-228776D01*
X521134Y-229559D01*
X521098Y-229595D01*
X520134Y-229383D01*
X519919Y-228916D01*
X520215Y-228200D01*
X519891Y-227416D01*
Y-217658D01*
X520891Y-217071D01*
X523283Y-218062D01*
X526156Y-216872D01*
X527345Y-214000D01*
X526156Y-211128D01*
X523283Y-209938D01*
X520891Y-210929D01*
X519891Y-210342D01*
Y-210200D01*
X519479Y-209205D01*
X517633Y-207359D01*
X517308Y-206575D01*
X516083Y-206068D01*
D02*
G37*
G36*
X389000Y-204938D02*
X386128Y-206128D01*
X384938Y-209000D01*
X386128Y-211872D01*
X389000Y-213062D01*
X391872Y-211872D01*
X393062Y-209000D01*
X391872Y-206128D01*
X389000Y-204938D01*
D02*
G37*
G36*
X467327Y-207357D02*
X466086D01*
X466449Y-208234D01*
X467327Y-208598D01*
Y-207357D01*
D02*
G37*
G36*
X268534Y-189500D02*
X262676D01*
X263357Y-191143D01*
X265052Y-191845D01*
Y-207000D01*
X265622Y-208378D01*
X267245Y-210000D01*
X270000D01*
Y-207245D01*
X268948Y-206193D01*
Y-190500D01*
X268534Y-189500D01*
D02*
G37*
G36*
X255541Y-180700D02*
X254300D01*
Y-181941D01*
X255178Y-181578D01*
X255541Y-180700D01*
D02*
G37*
G36*
X253300D02*
X252059D01*
X252422Y-181578D01*
X253300Y-181941D01*
Y-180700D01*
D02*
G37*
G36*
Y-178459D02*
X252422Y-178822D01*
X252059Y-179700D01*
X253300D01*
Y-178459D01*
D02*
G37*
G36*
X104743Y-122725D02*
X103519Y-123232D01*
X103194Y-124016D01*
X102405Y-124805D01*
X101993Y-125800D01*
Y-178616D01*
X101668Y-179400D01*
X102175Y-180625D01*
X103400Y-181132D01*
X104625Y-180625D01*
X105132Y-179400D01*
X104807Y-178616D01*
Y-126383D01*
X105184Y-126006D01*
X105968Y-125681D01*
X106475Y-124457D01*
X105968Y-123232D01*
X104743Y-122725D01*
D02*
G37*
G36*
X235500Y-184176D02*
Y-186500D01*
X237824D01*
X237143Y-184857D01*
X235500Y-184176D01*
D02*
G37*
G36*
X234500D02*
X232857Y-184857D01*
X232176Y-186500D01*
X234500D01*
Y-184176D01*
D02*
G37*
G36*
X257500Y-183501D02*
Y-185500D01*
X259499D01*
X258913Y-184087D01*
X257500Y-183501D01*
D02*
G37*
G36*
X256500D02*
X255087Y-184087D01*
X254501Y-185500D01*
X256500D01*
Y-183501D01*
D02*
G37*
G36*
X228500Y-176043D02*
X227259D01*
X227622Y-176921D01*
X228500Y-177285D01*
Y-176043D01*
D02*
G37*
G36*
X202499Y-175500D02*
X200500D01*
Y-177499D01*
X201913Y-176913D01*
X202499Y-175500D01*
D02*
G37*
G36*
X588861Y-168020D02*
X584224D01*
Y-172656D01*
X585284Y-172218D01*
X589027Y-175960D01*
X588588Y-177020D01*
X593224D01*
Y-172383D01*
X592165Y-172822D01*
X588422Y-169079D01*
X588861Y-168020D01*
D02*
G37*
G36*
X230741Y-176043D02*
X229500D01*
Y-177285D01*
X230378Y-176921D01*
X230741Y-176043D01*
D02*
G37*
G36*
X402500Y-173500D02*
X397863D01*
X399221Y-176779D01*
X402500Y-178137D01*
Y-173500D01*
D02*
G37*
G36*
X254300Y-178459D02*
Y-179700D01*
X255541D01*
X255178Y-178822D01*
X254300Y-178459D01*
D02*
G37*
G36*
X199500Y-175500D02*
X197501D01*
X198087Y-176913D01*
X199500Y-177499D01*
Y-175500D01*
D02*
G37*
G36*
X408137Y-173500D02*
X403500D01*
Y-178137D01*
X406779Y-176779D01*
X408137Y-173500D01*
D02*
G37*
G36*
X61500Y-184501D02*
Y-186500D01*
X63499D01*
X62913Y-185087D01*
X61500Y-184501D01*
D02*
G37*
G36*
X447583Y-191801D02*
Y-193800D01*
X449582D01*
X448997Y-192387D01*
X447583Y-191801D01*
D02*
G37*
G36*
X446584D02*
X445170Y-192387D01*
X444585Y-193800D01*
X446584D01*
Y-191801D01*
D02*
G37*
G36*
X140613Y-188964D02*
Y-192587D01*
X144236D01*
X143175Y-190025D01*
X140613Y-188964D01*
D02*
G37*
G36*
X139613D02*
X137052Y-190025D01*
X135991Y-192587D01*
X139613D01*
Y-188964D01*
D02*
G37*
G36*
X82500Y-193501D02*
Y-195500D01*
X84499D01*
X83913Y-194087D01*
X82500Y-193501D01*
D02*
G37*
G36*
X187900Y-193701D02*
Y-195700D01*
X189899D01*
X189313Y-194287D01*
X187900Y-193701D01*
D02*
G37*
G36*
X564483Y-190720D02*
X561402D01*
X562305Y-192898D01*
X564483Y-193801D01*
Y-190720D01*
D02*
G37*
G36*
X323700Y-192700D02*
X321701D01*
X322287Y-194113D01*
X323700Y-194699D01*
Y-192700D01*
D02*
G37*
G36*
X266000Y-186176D02*
Y-188500D01*
X268324D01*
X267643Y-186857D01*
X266000Y-186176D01*
D02*
G37*
G36*
X265000D02*
X263357Y-186857D01*
X262676Y-188500D01*
X265000D01*
Y-186176D01*
D02*
G37*
G36*
X259499Y-186500D02*
X257500D01*
Y-188499D01*
X258913Y-187913D01*
X259499Y-186500D01*
D02*
G37*
G36*
X256500D02*
X254501D01*
X255087Y-187913D01*
X256500Y-188499D01*
Y-186500D01*
D02*
G37*
G36*
X237824Y-187500D02*
X235500D01*
Y-189824D01*
X237143Y-189143D01*
X237824Y-187500D01*
D02*
G37*
G36*
X234500D02*
X232176D01*
X232857Y-189143D01*
X234500Y-189824D01*
Y-187500D01*
D02*
G37*
G36*
X63499D02*
X61500D01*
Y-189499D01*
X62913Y-188913D01*
X63499Y-187500D01*
D02*
G37*
G36*
X564483Y-186638D02*
X562305Y-187541D01*
X561402Y-189720D01*
X564483D01*
Y-186638D01*
D02*
G37*
G36*
X502783Y-214500D02*
X499212D01*
X500258Y-217025D01*
X502783Y-218071D01*
Y-214500D01*
D02*
G37*
G36*
X576884Y-286601D02*
Y-288600D01*
X578882D01*
X578297Y-287187D01*
X576884Y-286601D01*
D02*
G37*
G36*
X575883D02*
X574470Y-287187D01*
X573885Y-288600D01*
X575883D01*
Y-286601D01*
D02*
G37*
G36*
X546783Y-280500D02*
X543212D01*
X544258Y-283025D01*
X546783Y-284071D01*
Y-280500D01*
D02*
G37*
G36*
X223555Y-282929D02*
X221030Y-283975D01*
X219984Y-286500D01*
X223555D01*
Y-282929D01*
D02*
G37*
G36*
X214213Y-282938D02*
X211340Y-284128D01*
X210151Y-287000D01*
X211340Y-289872D01*
X214213Y-291062D01*
X217085Y-289872D01*
X218274Y-287000D01*
X217085Y-284128D01*
X214213Y-282938D01*
D02*
G37*
G36*
X217607Y-263775D02*
X204393D01*
Y-268417D01*
X194817Y-277993D01*
X182442D01*
X181448Y-278405D01*
X181448Y-278405D01*
X176458Y-283394D01*
X174843Y-282725D01*
X171820Y-283977D01*
X170568Y-287000D01*
X171820Y-290023D01*
X174843Y-291275D01*
X177865Y-290023D01*
X179118Y-287000D01*
X178448Y-285384D01*
X183025Y-280807D01*
X185096D01*
X185479Y-281731D01*
X184344Y-282866D01*
X181662Y-283977D01*
X180410Y-287000D01*
X181662Y-290023D01*
X184685Y-291275D01*
X187708Y-290023D01*
X188960Y-287000D01*
X187708Y-283977D01*
X187626Y-283564D01*
X188583Y-282607D01*
X192713D01*
X192912Y-283607D01*
X191655Y-284128D01*
X190466Y-287000D01*
X191655Y-289872D01*
X194528Y-291062D01*
X197400Y-289872D01*
X198590Y-287000D01*
X197983Y-285535D01*
X201963Y-281555D01*
X202963Y-281969D01*
Y-283521D01*
X201498Y-284128D01*
X200308Y-287000D01*
X201498Y-289872D01*
X204370Y-291062D01*
X207242Y-289872D01*
X208432Y-287000D01*
X207242Y-284128D01*
X205777Y-283521D01*
Y-281413D01*
X216719Y-270471D01*
X217045Y-269685D01*
X217607Y-268918D01*
X217607Y-268918D01*
Y-268918D01*
X217607Y-267947D01*
Y-263775D01*
D02*
G37*
G36*
X533039Y-287043D02*
X529783D01*
Y-289906D01*
X533039D01*
Y-287043D01*
D02*
G37*
G36*
X528784D02*
X525528D01*
Y-289906D01*
X528784D01*
Y-287043D01*
D02*
G37*
G36*
X502240Y-274500D02*
X499378D01*
Y-277756D01*
X502240D01*
Y-274500D01*
D02*
G37*
G36*
X389500Y-274929D02*
Y-278500D01*
X393071D01*
X392025Y-275975D01*
X389500Y-274929D01*
D02*
G37*
G36*
X389000Y-264938D02*
X386128Y-266128D01*
X384938Y-269000D01*
X386128Y-271872D01*
X389000Y-273062D01*
X391872Y-271872D01*
X393062Y-269000D01*
X391872Y-266128D01*
X389000Y-264938D01*
D02*
G37*
G36*
X502240Y-270244D02*
X499378D01*
Y-273500D01*
X502240D01*
Y-270244D01*
D02*
G37*
G36*
X388500Y-279500D02*
X384929D01*
X385975Y-282025D01*
X388500Y-283071D01*
Y-279500D01*
D02*
G37*
G36*
X551355Y-280500D02*
X547784D01*
Y-284071D01*
X550309Y-283025D01*
X551355Y-280500D01*
D02*
G37*
G36*
X388500Y-274929D02*
X385975Y-275975D01*
X384929Y-278500D01*
X388500D01*
Y-274929D01*
D02*
G37*
G36*
X393071Y-279500D02*
X389500D01*
Y-283071D01*
X392025Y-282025D01*
X393071Y-279500D01*
D02*
G37*
G36*
X505256Y-331929D02*
X502731Y-332975D01*
X501685Y-335500D01*
X505256D01*
Y-331929D01*
D02*
G37*
G36*
X488720Y-334144D02*
Y-338780D01*
X493356D01*
X491998Y-335502D01*
X488720Y-334144D01*
D02*
G37*
G36*
X501684Y-304428D02*
X499158Y-305474D01*
X498112Y-308000D01*
X499158Y-310526D01*
X501684Y-311572D01*
X501990Y-311445D01*
X502114Y-311569D01*
X503684Y-312219D01*
X543531D01*
Y-313753D01*
X545065D01*
Y-323081D01*
X536088Y-332058D01*
X535284Y-331725D01*
X532261Y-332977D01*
X532163Y-333213D01*
X531182Y-333408D01*
X524779Y-327005D01*
X523783Y-326593D01*
X475267D01*
X474483Y-326268D01*
X473259Y-326776D01*
X472752Y-328000D01*
X473259Y-329225D01*
X474483Y-329732D01*
X475267Y-329407D01*
X523201D01*
X524730Y-330937D01*
X524496Y-332117D01*
X522418Y-332977D01*
X521166Y-336000D01*
X522418Y-339023D01*
X525441Y-340275D01*
X528464Y-339023D01*
X528649Y-338577D01*
X529731D01*
X529839Y-338838D01*
X532445Y-341445D01*
X533440Y-341857D01*
X570334D01*
X571329Y-341445D01*
X595124Y-317649D01*
X595908Y-317325D01*
X596415Y-316100D01*
X595908Y-314876D01*
X594684Y-314368D01*
X593459Y-314876D01*
X593134Y-315659D01*
X569751Y-339042D01*
X539381D01*
X538713Y-338042D01*
X539559Y-336000D01*
X539225Y-335196D01*
X548852Y-325569D01*
X549502Y-324000D01*
Y-313753D01*
X551036D01*
Y-306247D01*
X543531D01*
Y-307781D01*
X505165D01*
X504209Y-305474D01*
X501684Y-304428D01*
D02*
G37*
G36*
X506256Y-331929D02*
Y-335500D01*
X509827D01*
X508781Y-332975D01*
X506256Y-331929D01*
D02*
G37*
G36*
X505256Y-336500D02*
X501685D01*
X502731Y-339025D01*
X505256Y-340071D01*
Y-336500D01*
D02*
G37*
G36*
X515598Y-331725D02*
X512576Y-332977D01*
X511323Y-336000D01*
X512576Y-339023D01*
X515598Y-340275D01*
X518621Y-339023D01*
X519874Y-336000D01*
X518621Y-332977D01*
X515598Y-331725D01*
D02*
G37*
G36*
X487720Y-334144D02*
X484441Y-335502D01*
X483083Y-338780D01*
X487720D01*
Y-334144D01*
D02*
G37*
G36*
X509827Y-336500D02*
X506256D01*
Y-340071D01*
X508781Y-339025D01*
X509827Y-336500D01*
D02*
G37*
G36*
X575883Y-289600D02*
X573885D01*
X574470Y-291014D01*
X575883Y-291599D01*
Y-289600D01*
D02*
G37*
G36*
X389000Y-284938D02*
X386128Y-286128D01*
X384938Y-289000D01*
X386128Y-291872D01*
X389000Y-293062D01*
X391872Y-291872D01*
X393062Y-289000D01*
X391872Y-286128D01*
X389000Y-284938D01*
D02*
G37*
G36*
X223555Y-287500D02*
X219984D01*
X221030Y-290025D01*
X223555Y-291071D01*
Y-287500D01*
D02*
G37*
G36*
X578882Y-289600D02*
X576884D01*
Y-291599D01*
X578297Y-291014D01*
X578882Y-289600D01*
D02*
G37*
G36*
X334100Y-297843D02*
X330844D01*
Y-300706D01*
X334100D01*
Y-297843D01*
D02*
G37*
G36*
X547284Y-295938D02*
X544411Y-297128D01*
X543222Y-300000D01*
X544411Y-302872D01*
X547284Y-304062D01*
X550156Y-302872D01*
X551345Y-300000D01*
X550156Y-297128D01*
X547284Y-295938D01*
D02*
G37*
G36*
Y-285938D02*
X544411Y-287128D01*
X543222Y-290000D01*
X544411Y-292872D01*
X547284Y-294062D01*
X550156Y-292872D01*
X551345Y-290000D01*
X550156Y-287128D01*
X547284Y-285938D01*
D02*
G37*
G36*
X338356Y-297843D02*
X335100D01*
Y-300706D01*
X338356D01*
Y-297843D01*
D02*
G37*
G36*
X534283Y-256768D02*
X533059Y-257276D01*
X532552Y-258500D01*
X533059Y-259725D01*
X533843Y-260049D01*
X534689Y-260895D01*
X534736Y-260915D01*
X535119Y-261839D01*
X535052Y-262000D01*
X535559Y-263225D01*
X536343Y-263549D01*
X542623Y-269829D01*
X542552Y-270000D01*
X543059Y-271225D01*
X544283Y-271732D01*
X545508Y-271225D01*
X545580Y-271052D01*
X546866Y-270559D01*
X547284Y-270732D01*
X548508Y-270225D01*
X549015Y-269000D01*
X548691Y-268216D01*
Y-267500D01*
X548279Y-266505D01*
X548278Y-266505D01*
X540679Y-258905D01*
X539683Y-258493D01*
X536266D01*
X535833Y-258059D01*
X535508Y-257276D01*
X534283Y-256768D01*
D02*
G37*
G36*
X389000Y-234938D02*
X386128Y-236128D01*
X384938Y-239000D01*
X386128Y-241872D01*
X389000Y-243062D01*
X391872Y-241872D01*
X393062Y-239000D01*
X391872Y-236128D01*
X389000Y-234938D01*
D02*
G37*
G36*
X242500Y-241501D02*
Y-243500D01*
X244499D01*
X243913Y-242087D01*
X242500Y-241501D01*
D02*
G37*
G36*
X445084Y-232600D02*
X443085D01*
X443670Y-234014D01*
X445084Y-234599D01*
Y-232600D01*
D02*
G37*
G36*
X295824Y-232500D02*
X293500D01*
Y-234824D01*
X295143Y-234143D01*
X295824Y-232500D01*
D02*
G37*
G36*
X187500Y-245501D02*
Y-247500D01*
X189499D01*
X188913Y-246087D01*
X187500Y-245501D01*
D02*
G37*
G36*
X186500D02*
X185087Y-246087D01*
X184501Y-247500D01*
X186500D01*
Y-245501D01*
D02*
G37*
G36*
X244499Y-244500D02*
X242500D01*
Y-246499D01*
X243913Y-245913D01*
X244499Y-244500D01*
D02*
G37*
G36*
X516917Y-245933D02*
X515675D01*
X516039Y-246811D01*
X516917Y-247174D01*
Y-245933D01*
D02*
G37*
G36*
X447240Y-221244D02*
X444378D01*
Y-224500D01*
X447240D01*
Y-221244D01*
D02*
G37*
G36*
X177000Y-215873D02*
X173374Y-217374D01*
X171873Y-221000D01*
X173374Y-224626D01*
X177000Y-226127D01*
X180625Y-224626D01*
X182127Y-221000D01*
X180625Y-217374D01*
X177000Y-215873D01*
D02*
G37*
G36*
X389000Y-214938D02*
X386128Y-216128D01*
X384938Y-219000D01*
X386128Y-221872D01*
X389000Y-223062D01*
X391872Y-221872D01*
X393062Y-219000D01*
X391872Y-216128D01*
X389000Y-214938D01*
D02*
G37*
G36*
X256000Y-202268D02*
X254775Y-202775D01*
X254268Y-204000D01*
X254593Y-204784D01*
Y-220716D01*
X254268Y-221500D01*
X254775Y-222725D01*
X256000Y-223232D01*
X257225Y-222725D01*
X257732Y-221500D01*
X257407Y-220716D01*
Y-204784D01*
X257732Y-204000D01*
X257225Y-202775D01*
X256000Y-202268D01*
D02*
G37*
G36*
X509784Y-230095D02*
X506528D01*
Y-232957D01*
X509784D01*
Y-230095D01*
D02*
G37*
G36*
X389000Y-224938D02*
X386128Y-226128D01*
X384938Y-229000D01*
X386128Y-231872D01*
X389000Y-233062D01*
X391872Y-231872D01*
X393062Y-229000D01*
X391872Y-226128D01*
X389000Y-224938D01*
D02*
G37*
G36*
X262600Y-209722D02*
X261414Y-210214D01*
X260922Y-211400D01*
X261193Y-212053D01*
Y-224347D01*
X260922Y-225000D01*
X261414Y-226186D01*
X262600Y-226678D01*
X263786Y-226186D01*
X264278Y-225000D01*
X264007Y-224347D01*
Y-212053D01*
X264278Y-211400D01*
X263786Y-210214D01*
X262600Y-209722D01*
D02*
G37*
G36*
X451102Y-221244D02*
X451102Y-221244D01*
Y-221244D01*
Y-221244D01*
X448240D01*
Y-225000D01*
X447740D01*
Y-225500D01*
X444378D01*
Y-228756D01*
X444378D01*
X444521Y-229044D01*
X444169Y-229980D01*
X443670Y-230187D01*
X443085Y-231600D01*
X445583D01*
Y-232100D01*
X446083D01*
Y-234599D01*
X447497Y-234014D01*
X447984Y-232838D01*
X449309Y-231512D01*
X449959Y-229943D01*
Y-228756D01*
X451102D01*
Y-228756D01*
X451102D01*
X451102Y-228756D01*
X452020Y-228556D01*
D01*
X457989D01*
Y-221444D01*
X452020D01*
X451102Y-221244D01*
X451102Y-221244D01*
D02*
G37*
G36*
X495240Y-256244D02*
X492378D01*
Y-259500D01*
X495240D01*
Y-256244D01*
D02*
G37*
G36*
X389000Y-254938D02*
X386128Y-256128D01*
X384938Y-259000D01*
X386128Y-261872D01*
X389000Y-263062D01*
X391872Y-261872D01*
X393062Y-259000D01*
X391872Y-256128D01*
X389000Y-254938D01*
D02*
G37*
G36*
X559189Y-254500D02*
X556327D01*
Y-257756D01*
X559189D01*
Y-254500D01*
D02*
G37*
G36*
X552465Y-250244D02*
X551547Y-250444D01*
X551465D01*
X545578D01*
Y-252416D01*
X544452Y-252883D01*
X543945Y-254107D01*
X544452Y-255332D01*
X545578Y-255798D01*
Y-257556D01*
X551465D01*
X551547D01*
X552465Y-257756D01*
X552478D01*
X552819Y-257756D01*
X555327D01*
Y-254000D01*
Y-250244D01*
X552820D01*
X552478Y-250244D01*
X552465D01*
D02*
G37*
G36*
X532225Y-268600D02*
X530983D01*
Y-269841D01*
X531861Y-269478D01*
X532225Y-268600D01*
D02*
G37*
G36*
X499102Y-256244D02*
Y-256244D01*
X498747Y-256244D01*
X496240D01*
Y-260000D01*
X495740D01*
Y-260500D01*
X492378D01*
Y-262793D01*
X462384D01*
X461388Y-263205D01*
X461388Y-263205D01*
X460143Y-264451D01*
X459359Y-264775D01*
X458852Y-266000D01*
X459359Y-267225D01*
X460583Y-267732D01*
X461808Y-267225D01*
X462133Y-266441D01*
X462966Y-265607D01*
X476772D01*
X477186Y-266607D01*
X475343Y-268451D01*
X474559Y-268776D01*
X474052Y-270000D01*
X474559Y-271225D01*
X475783Y-271732D01*
X477008Y-271225D01*
X477333Y-270441D01*
X479366Y-268407D01*
X508127D01*
X508795Y-269407D01*
X508697Y-269645D01*
X508162Y-270444D01*
X507102D01*
X507020D01*
X506102Y-270244D01*
X506089D01*
X505747Y-270244D01*
X503240D01*
Y-274000D01*
Y-277756D01*
X505747D01*
X506089Y-277756D01*
X506102D01*
X507020Y-277556D01*
X507102D01*
X512989D01*
Y-275502D01*
X513913Y-275119D01*
X516244Y-277450D01*
X516244Y-277451D01*
X517239Y-277863D01*
X525021D01*
X525728Y-278570D01*
Y-282181D01*
Y-282264D01*
X525528Y-283181D01*
Y-283194D01*
X525528Y-283536D01*
Y-286043D01*
X533039D01*
Y-283536D01*
X533039Y-283194D01*
Y-283181D01*
X532839Y-282264D01*
Y-282181D01*
Y-277863D01*
X542990D01*
X543546Y-278694D01*
X543212Y-279500D01*
X551355D01*
X550728Y-277986D01*
X551283Y-277154D01*
X567548D01*
X569434Y-279041D01*
X569601Y-279443D01*
Y-288592D01*
X569276Y-289376D01*
X569783Y-290600D01*
X571008Y-291108D01*
X572232Y-290600D01*
X572740Y-289376D01*
X572415Y-288592D01*
Y-279325D01*
X572715Y-278600D01*
X572208Y-277376D01*
X571424Y-277051D01*
X569126Y-274752D01*
X568131Y-274340D01*
X545522D01*
X544527Y-274752D01*
X544527Y-274752D01*
X544231Y-275048D01*
X531980D01*
X531196Y-274724D01*
X530412Y-275048D01*
X517822D01*
X512181Y-269407D01*
X512353Y-268807D01*
X512730Y-268407D01*
X525201D01*
X525734Y-268941D01*
X526059Y-269725D01*
X527283Y-270232D01*
X528508Y-269725D01*
X529607Y-269685D01*
X529984Y-269841D01*
Y-268100D01*
Y-266359D01*
X529915Y-266387D01*
X529106Y-266722D01*
X529106Y-266722D01*
X529093Y-266744D01*
X528587Y-266964D01*
X529049Y-266818D01*
X528238Y-267119D01*
X528233Y-267118D01*
X528587Y-266964D01*
X528164Y-267098D01*
X527881Y-267016D01*
X527881Y-267016D01*
X527182Y-266408D01*
X526779Y-266005D01*
X525783Y-265593D01*
X517962D01*
X517432Y-264800D01*
X516861Y-263422D01*
X515983Y-263059D01*
Y-264800D01*
X514984D01*
Y-263059D01*
X514106Y-263422D01*
X513535Y-264800D01*
X513005Y-265593D01*
X508721D01*
X508053Y-264593D01*
X508215Y-264200D01*
X507708Y-262976D01*
X506751Y-262579D01*
X506636Y-261544D01*
X507408Y-261225D01*
X507915Y-260000D01*
X507408Y-258775D01*
X506183Y-258268D01*
X505989Y-258138D01*
Y-256444D01*
X499665D01*
X499665Y-256444D01*
Y-256444D01*
X499102Y-256244D01*
D02*
G37*
G36*
X201000Y-252922D02*
X199814Y-253414D01*
X199322Y-254600D01*
X199593Y-255253D01*
Y-264374D01*
X199014Y-264614D01*
X198522Y-265800D01*
X199014Y-266986D01*
X200200Y-267478D01*
X201386Y-266986D01*
X201657Y-266333D01*
X201995Y-265995D01*
X202407Y-265000D01*
Y-255253D01*
X202678Y-254600D01*
X202186Y-253414D01*
X201000Y-252922D01*
D02*
G37*
G36*
X530983Y-266359D02*
Y-267600D01*
X532225D01*
X531861Y-266722D01*
X530983Y-266359D01*
D02*
G37*
G36*
X189499Y-248500D02*
X187500D01*
Y-250499D01*
X188913Y-249913D01*
X189499Y-248500D01*
D02*
G37*
G36*
X186500D02*
X184501D01*
X185087Y-249913D01*
X186500Y-250499D01*
Y-248500D01*
D02*
G37*
G36*
X547084Y-246700D02*
X545842D01*
X546206Y-247578D01*
X547084Y-247941D01*
Y-246700D01*
D02*
G37*
G36*
X228500Y-246501D02*
X227087Y-247087D01*
X226501Y-248500D01*
X228500D01*
Y-246501D01*
D02*
G37*
G36*
X389000Y-244938D02*
X386128Y-246128D01*
X384938Y-249000D01*
X386128Y-251872D01*
X389000Y-253062D01*
X391872Y-251872D01*
X393062Y-249000D01*
X391872Y-246128D01*
X389000Y-244938D01*
D02*
G37*
G36*
X556327Y-250244D02*
Y-253500D01*
X559189D01*
Y-250244D01*
X556327D01*
D02*
G37*
G36*
X228500Y-249500D02*
X226501D01*
X227087Y-250913D01*
X228500Y-251499D01*
Y-249500D01*
D02*
G37*
G36*
X196200Y-235268D02*
X194975Y-235775D01*
X194651Y-236559D01*
X192805Y-238405D01*
X192393Y-239400D01*
Y-249816D01*
X192068Y-250600D01*
X192575Y-251825D01*
X193800Y-252332D01*
X195025Y-251825D01*
X195532Y-250600D01*
X195207Y-249816D01*
Y-239983D01*
X196641Y-238549D01*
X197425Y-238225D01*
X197932Y-237000D01*
X197425Y-235775D01*
X196200Y-235268D01*
D02*
G37*
G36*
X594224Y-172383D02*
Y-177020D01*
X598861D01*
X597503Y-173741D01*
X594224Y-172383D01*
D02*
G37*
G36*
X356500Y-104929D02*
Y-108500D01*
X360071D01*
X359025Y-105975D01*
X356500Y-104929D01*
D02*
G37*
G36*
X355500D02*
X352975Y-105975D01*
X351929Y-108500D01*
X355500D01*
Y-104929D01*
D02*
G37*
G36*
X368500D02*
Y-108500D01*
X372071D01*
X372010Y-108353D01*
Y-108353D01*
X371025Y-105975D01*
X368500Y-104929D01*
D02*
G37*
G36*
X367500D02*
X364975Y-105975D01*
X363929Y-108500D01*
X367500D01*
Y-104929D01*
D02*
G37*
G36*
X166043Y-108715D02*
Y-109957D01*
X167285D01*
X166921Y-109079D01*
X166043Y-108715D01*
D02*
G37*
G36*
X165043D02*
X164166Y-109079D01*
X163802Y-109957D01*
X165043D01*
Y-108715D01*
D02*
G37*
G36*
X212000Y-85268D02*
X210775Y-85775D01*
X210268Y-87000D01*
X210593Y-87784D01*
Y-106216D01*
X210268Y-107000D01*
X210775Y-108225D01*
X212000Y-108732D01*
X213225Y-108225D01*
X213732Y-107000D01*
X213407Y-106216D01*
Y-87784D01*
X213732Y-87000D01*
X213225Y-85775D01*
X212000Y-85268D01*
D02*
G37*
G36*
X306900Y-108059D02*
X306022Y-108422D01*
X305659Y-109300D01*
X306900D01*
Y-108059D01*
D02*
G37*
G36*
X172237Y-81263D02*
X162763D01*
Y-90737D01*
X172237D01*
Y-81263D01*
D02*
G37*
G36*
X152952Y-86500D02*
X148315D01*
Y-91137D01*
X151594Y-89779D01*
X152952Y-86500D01*
D02*
G37*
G36*
X147315Y-80863D02*
X144036Y-82221D01*
X142678Y-85500D01*
X147315D01*
Y-80863D01*
D02*
G37*
G36*
X325000Y-39268D02*
X323775Y-39775D01*
X323268Y-41000D01*
X323593Y-41784D01*
Y-49095D01*
X321500D01*
Y-52457D01*
X321000D01*
Y-52957D01*
X317244D01*
Y-54223D01*
X314405Y-57062D01*
X313993Y-58057D01*
Y-58093D01*
X313659Y-58900D01*
X315400D01*
Y-59400D01*
X315900D01*
Y-61141D01*
X316444Y-60916D01*
X317444Y-61418D01*
Y-62705D01*
X319593D01*
Y-65147D01*
X319322Y-65800D01*
X319814Y-66986D01*
X321000Y-67478D01*
X321653Y-67207D01*
X329217D01*
X332393Y-70383D01*
Y-79416D01*
X332068Y-80200D01*
X332575Y-81425D01*
X333800Y-81932D01*
X335025Y-81425D01*
X335532Y-80200D01*
X335207Y-79416D01*
Y-69800D01*
X335207Y-69800D01*
X334795Y-68805D01*
X333397Y-67407D01*
X333811Y-66407D01*
X342846D01*
X343514Y-67407D01*
X343268Y-68000D01*
X343775Y-69225D01*
X344559Y-69549D01*
X347593Y-72583D01*
Y-93000D01*
X348005Y-93995D01*
X348451Y-94441D01*
X348775Y-95225D01*
X350000Y-95732D01*
X351225Y-95225D01*
X351732Y-94000D01*
X351225Y-92775D01*
X350441Y-92451D01*
X350407Y-92417D01*
Y-91154D01*
X351407Y-90486D01*
X352000Y-90732D01*
X353225Y-90225D01*
X353732Y-89000D01*
X353225Y-87775D01*
X352441Y-87451D01*
X352407Y-87417D01*
Y-70000D01*
X352407Y-70000D01*
X351995Y-69005D01*
X346995Y-64005D01*
X346000Y-63593D01*
X333583D01*
X330797Y-60807D01*
X330473Y-60023D01*
X329248Y-59516D01*
X328023Y-60023D01*
X327516Y-61248D01*
X328023Y-62473D01*
X328726Y-62764D01*
X329260Y-63505D01*
X328863Y-64393D01*
X322407D01*
Y-62705D01*
X324556D01*
Y-57847D01*
X326051Y-56352D01*
X326051Y-56352D01*
X326463Y-55357D01*
Y-49500D01*
X326407Y-49365D01*
Y-41784D01*
X326732Y-41000D01*
X326225Y-39775D01*
X325000Y-39268D01*
D02*
G37*
G36*
X521060Y-105268D02*
X520276Y-105593D01*
X516867D01*
X516083Y-105268D01*
X514859Y-105775D01*
X514352Y-107000D01*
X514859Y-108225D01*
X516083Y-108732D01*
X516867Y-108407D01*
X520276D01*
X521060Y-108732D01*
X522285Y-108225D01*
X522792Y-107000D01*
X522285Y-105775D01*
X521060Y-105268D01*
D02*
G37*
G36*
X128200Y-97722D02*
X127014Y-98214D01*
X126743Y-98867D01*
X124005Y-101605D01*
X123593Y-102600D01*
Y-105947D01*
X123322Y-106600D01*
X123814Y-107786D01*
X125000Y-108278D01*
X126186Y-107786D01*
X126678Y-106600D01*
X126407Y-105947D01*
Y-103183D01*
X128733Y-100857D01*
X129386Y-100586D01*
X129878Y-99400D01*
X129386Y-98214D01*
X128200Y-97722D01*
D02*
G37*
G36*
X147315Y-86500D02*
X142678D01*
X144036Y-89779D01*
X147315Y-91137D01*
Y-86500D01*
D02*
G37*
G36*
X82000Y-92373D02*
X78374Y-93875D01*
X76873Y-97500D01*
X78374Y-101126D01*
X82000Y-102627D01*
X85625Y-101126D01*
X87127Y-97500D01*
X85625Y-93875D01*
X82000Y-92373D01*
D02*
G37*
G36*
X368000Y-114938D02*
X365128Y-116128D01*
X364256Y-118232D01*
X363768Y-118232D01*
X362543Y-117725D01*
X361319Y-118232D01*
X361133Y-118681D01*
D01*
X360986Y-119036D01*
X360959Y-119030D01*
X360877Y-119013D01*
X360783Y-118993D01*
X360652Y-118966D01*
X359850Y-118488D01*
D01*
X359850D01*
X358872Y-116128D01*
X356000Y-114938D01*
X353128Y-116128D01*
X352282Y-118171D01*
X351225Y-118232D01*
X351225D01*
X351181Y-118214D01*
X350000Y-117725D01*
X348775Y-118232D01*
X348268Y-119457D01*
X348593Y-120241D01*
Y-128000D01*
X349005Y-128995D01*
X350005Y-129995D01*
X350005Y-129995D01*
X351000Y-130407D01*
X352521D01*
X353128Y-131872D01*
X356000Y-133062D01*
X358872Y-131872D01*
X360062Y-129000D01*
X358872Y-126128D01*
X356000Y-124938D01*
X353128Y-126128D01*
X352521Y-127593D01*
X351583D01*
X351407Y-127417D01*
Y-120963D01*
X351594Y-120784D01*
X352780Y-121033D01*
X353128Y-121872D01*
X356000Y-123062D01*
X358872Y-121872D01*
X359741Y-119775D01*
X359741D01*
X359888Y-119421D01*
X359914Y-119427D01*
X359997Y-119444D01*
X360090Y-119464D01*
X360221Y-119491D01*
X361023Y-119969D01*
X361150Y-120275D01*
X361319Y-120681D01*
X361518Y-120764D01*
X361930Y-120935D01*
X365903Y-124907D01*
X365707Y-125888D01*
X365128Y-126128D01*
X363938Y-129000D01*
X365128Y-131872D01*
X368000Y-133062D01*
X370872Y-131872D01*
X372062Y-129000D01*
X370872Y-126128D01*
X369407Y-125521D01*
Y-125014D01*
X368995Y-124019D01*
X368663Y-123687D01*
X368858Y-122706D01*
X370872Y-121872D01*
X372062Y-119000D01*
X370872Y-116128D01*
X368000Y-114938D01*
D02*
G37*
G36*
X209141Y-118300D02*
X207900D01*
Y-119541D01*
X208778Y-119178D01*
X209141Y-118300D01*
D02*
G37*
G36*
X207900Y-116059D02*
Y-117300D01*
X209141D01*
X208778Y-116422D01*
X207900Y-116059D01*
D02*
G37*
G36*
X206900D02*
X206022Y-116422D01*
X205659Y-117300D01*
X206900D01*
Y-116059D01*
D02*
G37*
G36*
X174300Y-120859D02*
Y-122100D01*
X175541D01*
X175178Y-121222D01*
X174300Y-120859D01*
D02*
G37*
G36*
X173300D02*
X172422Y-121222D01*
X172059Y-122100D01*
X173300D01*
Y-120859D01*
D02*
G37*
G36*
X206900Y-118300D02*
X205659D01*
X206022Y-119178D01*
X206900Y-119541D01*
Y-118300D01*
D02*
G37*
G36*
X219400Y-105722D02*
X218214Y-106214D01*
X217943Y-106867D01*
X216805Y-108005D01*
X216393Y-109000D01*
Y-119547D01*
X216122Y-120200D01*
X216614Y-121386D01*
X217800Y-121878D01*
X218986Y-121386D01*
X219478Y-120200D01*
X219207Y-119547D01*
Y-109583D01*
X219933Y-108857D01*
X220586Y-108586D01*
X221078Y-107400D01*
X220586Y-106214D01*
X219400Y-105722D01*
D02*
G37*
G36*
X165043Y-110957D02*
X163802D01*
X164166Y-111834D01*
X165043Y-112198D01*
Y-110957D01*
D02*
G37*
G36*
X372071Y-109500D02*
X368500D01*
Y-113071D01*
X371025Y-112025D01*
X372010Y-109647D01*
Y-109647D01*
X372071Y-109500D01*
D02*
G37*
G36*
X251741D02*
X250500D01*
Y-110741D01*
X251378Y-110378D01*
X251741Y-109500D01*
D02*
G37*
G36*
X167285Y-110957D02*
X166043D01*
Y-112198D01*
X166921Y-111834D01*
X167285Y-110957D01*
D02*
G37*
G36*
X355500Y-109500D02*
X351929D01*
X352975Y-112025D01*
X355500Y-113071D01*
Y-109500D01*
D02*
G37*
G36*
X510984Y-111568D02*
X510199Y-111893D01*
X506484D01*
X505488Y-112305D01*
X498543Y-119251D01*
X497759Y-119576D01*
X497252Y-120800D01*
X497759Y-122025D01*
X498983Y-122532D01*
X500208Y-122025D01*
X500533Y-121241D01*
X507066Y-114707D01*
X510199D01*
X510984Y-115032D01*
X512208Y-114525D01*
X512715Y-113300D01*
X512208Y-112075D01*
X510984Y-111568D01*
D02*
G37*
G36*
X367500Y-109500D02*
X363929D01*
X364975Y-112025D01*
X367500Y-113071D01*
Y-109500D01*
D02*
G37*
G36*
X360071D02*
X356500D01*
Y-113071D01*
X359025Y-112025D01*
X360071Y-109500D01*
D02*
G37*
G36*
X148315Y-80863D02*
Y-85500D01*
X152952D01*
X151594Y-82221D01*
X148315Y-80863D01*
D02*
G37*
G36*
X371540Y-40000D02*
X369000D01*
Y-42540D01*
X370796Y-41796D01*
X371540Y-40000D01*
D02*
G37*
G36*
X368000D02*
X365460D01*
X366204Y-41796D01*
X368000Y-42540D01*
Y-40000D01*
D02*
G37*
G36*
X275148Y-37094D02*
X273906D01*
Y-38335D01*
X274784Y-37971D01*
X275148Y-37094D01*
D02*
G37*
G36*
X272906D02*
X271665D01*
X272029Y-37971D01*
X272906Y-38335D01*
Y-37094D01*
D02*
G37*
G36*
X314900Y-59900D02*
X313659D01*
X314022Y-60778D01*
X314900Y-61141D01*
Y-59900D01*
D02*
G37*
G36*
X290110Y-63812D02*
X288924Y-64303D01*
X288573Y-65150D01*
X287509Y-65193D01*
X287420Y-64980D01*
X286543Y-64616D01*
Y-66357D01*
Y-68401D01*
X287094Y-68770D01*
Y-74956D01*
X292981D01*
X293064D01*
X293981Y-75156D01*
X293994D01*
X294336Y-75156D01*
X296843D01*
Y-71400D01*
Y-67644D01*
X294336D01*
X293994Y-67644D01*
X293981D01*
X293064Y-67844D01*
X292981D01*
X291517D01*
Y-66143D01*
X291788Y-65490D01*
X291297Y-64303D01*
X290110Y-63812D01*
D02*
G37*
G36*
X272957Y-49244D02*
X270094D01*
Y-52500D01*
X272957D01*
Y-49244D01*
D02*
G37*
G36*
Y-53500D02*
X270094D01*
Y-56756D01*
X272957D01*
Y-53500D01*
D02*
G37*
G36*
X320808Y-24232D02*
X318268D01*
Y-26772D01*
X320064Y-26028D01*
X320808Y-24232D01*
D02*
G37*
G36*
X317268D02*
X314728D01*
X315472Y-26028D01*
X317268Y-26772D01*
Y-24232D01*
D02*
G37*
G36*
X318268Y-20692D02*
Y-23232D01*
X320808D01*
X320064Y-21436D01*
X318268Y-20692D01*
D02*
G37*
G36*
X317268D02*
X315472Y-21436D01*
X314728Y-23232D01*
X317268D01*
Y-20692D01*
D02*
G37*
G36*
X228040Y-33000D02*
X225500D01*
Y-35540D01*
X227296Y-34796D01*
X228040Y-33000D01*
D02*
G37*
G36*
X224500D02*
X221960D01*
X222704Y-34796D01*
X224500Y-35540D01*
Y-33000D01*
D02*
G37*
G36*
X225500Y-29460D02*
Y-32000D01*
X228040D01*
X227296Y-30204D01*
X225500Y-29460D01*
D02*
G37*
G36*
X224500D02*
X222704Y-30204D01*
X221960Y-32000D01*
X224500D01*
Y-29460D01*
D02*
G37*
G36*
X313364Y-73500D02*
X312123D01*
X312486Y-74378D01*
X313364Y-74741D01*
Y-73500D01*
D02*
G37*
G36*
X300706Y-71900D02*
X297843D01*
Y-75156D01*
X300706D01*
Y-71900D01*
D02*
G37*
G36*
X165000Y-69336D02*
X162056Y-70556D01*
X160836Y-73500D01*
X165000D01*
Y-69336D01*
D02*
G37*
G36*
X315605Y-73500D02*
X314364D01*
Y-74741D01*
X315241Y-74378D01*
X315605Y-73500D01*
D02*
G37*
G36*
X250500Y-78759D02*
Y-80000D01*
X251741D01*
X251378Y-79122D01*
X250500Y-78759D01*
D02*
G37*
G36*
X394356Y-81043D02*
X391100D01*
Y-83906D01*
X394356D01*
Y-81043D01*
D02*
G37*
G36*
X191664Y-74000D02*
X187500D01*
Y-78164D01*
X190444Y-76944D01*
X191664Y-74000D01*
D02*
G37*
G36*
X165000Y-74500D02*
X160836D01*
X162056Y-77444D01*
X165000Y-78664D01*
Y-74500D01*
D02*
G37*
G36*
X131000Y-42887D02*
X128092Y-44092D01*
X126887Y-47000D01*
X127135Y-47600D01*
X126969Y-48000D01*
Y-61387D01*
X125887Y-64000D01*
X127092Y-66908D01*
X130000Y-68113D01*
X132908Y-66908D01*
X134113Y-64000D01*
X133031Y-61387D01*
Y-50272D01*
X133908Y-49908D01*
X135113Y-47000D01*
X133908Y-44092D01*
X131000Y-42887D01*
D02*
G37*
G36*
X186500Y-68836D02*
X183556Y-70056D01*
X183385Y-70469D01*
X168735D01*
X166000Y-69336D01*
Y-74000D01*
Y-78664D01*
X168944Y-77444D01*
X169323Y-76531D01*
X183385D01*
X183556Y-76944D01*
X186500Y-78164D01*
Y-73500D01*
Y-68836D01*
D02*
G37*
G36*
X285543Y-64616D02*
X284665Y-64980D01*
X284301Y-65857D01*
X285543D01*
Y-64616D01*
D02*
G37*
G36*
Y-66857D02*
X284301D01*
X284665Y-67735D01*
X285543Y-68099D01*
Y-66857D01*
D02*
G37*
G36*
X313364Y-71259D02*
X312486Y-71622D01*
X312123Y-72500D01*
X313364D01*
Y-71259D01*
D02*
G37*
G36*
X187500Y-68836D02*
Y-73000D01*
X191664D01*
X190444Y-70056D01*
X187500Y-68836D01*
D02*
G37*
G36*
X297843Y-67644D02*
Y-70900D01*
X300706D01*
Y-67644D01*
X297843D01*
D02*
G37*
G36*
X314364Y-71259D02*
Y-72500D01*
X315605D01*
X315241Y-71622D01*
X314364Y-71259D01*
D02*
G37*
G36*
X256341Y-123100D02*
X255100D01*
Y-124341D01*
X255978Y-123978D01*
X256341Y-123100D01*
D02*
G37*
G36*
X64341Y-152700D02*
X63100D01*
Y-153941D01*
X63978Y-153578D01*
X64341Y-152700D01*
D02*
G37*
G36*
X62100D02*
X60859D01*
X61222Y-153578D01*
X62100Y-153941D01*
Y-152700D01*
D02*
G37*
G36*
X254100Y-150300D02*
X252101D01*
X252687Y-151713D01*
X254100Y-152299D01*
Y-150300D01*
D02*
G37*
G36*
X403000Y-142282D02*
X399374Y-143784D01*
X397873Y-147409D01*
X399374Y-151035D01*
X403000Y-152537D01*
X406626Y-151035D01*
X408127Y-147409D01*
X406626Y-143784D01*
X403000Y-142282D01*
D02*
G37*
G36*
X368200Y-148868D02*
X366975Y-149375D01*
X366468Y-150600D01*
X366793Y-151384D01*
Y-161816D01*
X366468Y-162600D01*
X366975Y-163825D01*
X368200Y-164332D01*
X369425Y-163825D01*
X369932Y-162600D01*
X369607Y-161816D01*
Y-151384D01*
X369932Y-150600D01*
X369425Y-149375D01*
X368200Y-148868D01*
D02*
G37*
G36*
X584224Y-162383D02*
Y-167020D01*
X588861D01*
X587503Y-163741D01*
X584224Y-162383D01*
D02*
G37*
G36*
X466327Y-160244D02*
Y-163500D01*
X469189D01*
Y-160244D01*
X466327D01*
D02*
G37*
G36*
X195400Y-149290D02*
X194175Y-149797D01*
X193668Y-151022D01*
X194175Y-152247D01*
X194959Y-152571D01*
X205183Y-162795D01*
X206178Y-163207D01*
X206178Y-163207D01*
X206616D01*
X207400Y-163532D01*
X208625Y-163025D01*
X209132Y-161800D01*
X208625Y-160575D01*
X207400Y-160068D01*
X206718Y-160351D01*
X196949Y-150581D01*
X196625Y-149797D01*
X195400Y-149290D01*
D02*
G37*
G36*
X371753Y-135247D02*
X364247D01*
Y-142753D01*
X371753D01*
Y-135247D01*
D02*
G37*
G36*
X255100Y-147301D02*
Y-149300D01*
X257099D01*
X256513Y-147887D01*
X255100Y-147301D01*
D02*
G37*
G36*
X232341Y-141500D02*
X231100D01*
Y-142741D01*
X231978Y-142378D01*
X232341Y-141500D01*
D02*
G37*
G36*
X230100D02*
X228859D01*
X229222Y-142378D01*
X230100Y-142741D01*
Y-141500D01*
D02*
G37*
G36*
X62100Y-150459D02*
X61222Y-150822D01*
X60859Y-151700D01*
X62100D01*
Y-150459D01*
D02*
G37*
G36*
X257099Y-150300D02*
X255100D01*
Y-152299D01*
X256513Y-151713D01*
X257099Y-150300D01*
D02*
G37*
G36*
X254100Y-147301D02*
X252687Y-147887D01*
X252101Y-149300D01*
X254100D01*
Y-147301D01*
D02*
G37*
G36*
X63100Y-150459D02*
Y-151700D01*
X64341D01*
X63978Y-150822D01*
X63100Y-150459D01*
D02*
G37*
G36*
X402500Y-167863D02*
X399221Y-169221D01*
X397863Y-172500D01*
X402500D01*
Y-167863D01*
D02*
G37*
G36*
X583224Y-168020D02*
X578588D01*
X579946Y-171298D01*
X583224Y-172656D01*
Y-168020D01*
D02*
G37*
G36*
X356200Y-161473D02*
X352574Y-162975D01*
X351073Y-166600D01*
X352574Y-170226D01*
X356200Y-171727D01*
X359826Y-170226D01*
X361327Y-166600D01*
X359826Y-162975D01*
X356200Y-161473D01*
D02*
G37*
G36*
X403500Y-167863D02*
Y-172500D01*
X408137D01*
X406779Y-169221D01*
X403500Y-167863D01*
D02*
G37*
G36*
X229500Y-173802D02*
Y-175043D01*
X230741D01*
X230378Y-174166D01*
X229500Y-173802D01*
D02*
G37*
G36*
X228500D02*
X227622Y-174166D01*
X227259Y-175043D01*
X228500D01*
Y-173802D01*
D02*
G37*
G36*
X200500Y-172501D02*
Y-174500D01*
X202499D01*
X201913Y-173087D01*
X200500Y-172501D01*
D02*
G37*
G36*
X199500D02*
X198087Y-173087D01*
X197501Y-174500D01*
X199500D01*
Y-172501D01*
D02*
G37*
G36*
X462465Y-160244D02*
X461548Y-160444D01*
X461465D01*
X455578D01*
Y-167556D01*
X456042D01*
X456450Y-168556D01*
X455710Y-170343D01*
X456597Y-172486D01*
X458740Y-173374D01*
X460883Y-172486D01*
X461771Y-170343D01*
X461030Y-168556D01*
X461438Y-167556D01*
X461465D01*
X461548D01*
X462465Y-167756D01*
X462477D01*
X462819Y-167756D01*
X465327D01*
Y-164000D01*
Y-160244D01*
X462820D01*
X462477Y-160244D01*
X462465D01*
D02*
G37*
G36*
X177500Y-167259D02*
Y-168500D01*
X178741D01*
X178378Y-167622D01*
X177500Y-167259D01*
D02*
G37*
G36*
X583224Y-162383D02*
X579946Y-163741D01*
X578588Y-167020D01*
X583224D01*
Y-162383D01*
D02*
G37*
G36*
X469189Y-164500D02*
X466327D01*
Y-167756D01*
X469189D01*
Y-164500D01*
D02*
G37*
G36*
X176500Y-169500D02*
X175259D01*
X175622Y-170378D01*
X176500Y-170741D01*
Y-169500D01*
D02*
G37*
G36*
X264200Y-126468D02*
X262975Y-126975D01*
X262651Y-127759D01*
X261605Y-128805D01*
X261193Y-129800D01*
Y-170793D01*
X259161D01*
X254527Y-166159D01*
X254203Y-165375D01*
X252978Y-164868D01*
X251753Y-165375D01*
X251246Y-166600D01*
X251753Y-167825D01*
X252537Y-168149D01*
X257583Y-173195D01*
X257583Y-173195D01*
X257874Y-173316D01*
X258578Y-173607D01*
X258578Y-173607D01*
X261816D01*
X262600Y-173932D01*
X263825Y-173425D01*
X264332Y-172200D01*
X264007Y-171416D01*
Y-130383D01*
X264641Y-129749D01*
X265425Y-129425D01*
X265932Y-128200D01*
X265425Y-126975D01*
X264200Y-126468D01*
D02*
G37*
G36*
X176500Y-167259D02*
X175622Y-167622D01*
X175259Y-168500D01*
X176500D01*
Y-167259D01*
D02*
G37*
G36*
X178741Y-169500D02*
X177500D01*
Y-170741D01*
X178378Y-170378D01*
X178741Y-169500D01*
D02*
G37*
G36*
X508243Y-133389D02*
X505370Y-134579D01*
X504181Y-137451D01*
X505370Y-140323D01*
X508243Y-141513D01*
X511115Y-140323D01*
X512304Y-137451D01*
X511115Y-134579D01*
X508243Y-133389D01*
D02*
G37*
G36*
X113378Y-126378D02*
X112137D01*
X112500Y-127256D01*
X113378Y-127619D01*
Y-126378D01*
D02*
G37*
G36*
X588243Y-123389D02*
X585370Y-124579D01*
X584181Y-127451D01*
X585370Y-130324D01*
X588243Y-131513D01*
X591115Y-130324D01*
X592305Y-127451D01*
X591115Y-124579D01*
X588243Y-123389D01*
D02*
G37*
G36*
X557743Y-123380D02*
X555217Y-124426D01*
X554171Y-126951D01*
X557743D01*
Y-123380D01*
D02*
G37*
G36*
X115619Y-126378D02*
X114378D01*
Y-127619D01*
X115256Y-127256D01*
X115619Y-126378D01*
D02*
G37*
G36*
X548243Y-123389D02*
X545370Y-124579D01*
X544181Y-127451D01*
X545370Y-130324D01*
X548243Y-131513D01*
X551115Y-130324D01*
X552305Y-127451D01*
X551115Y-124579D01*
X548243Y-123389D01*
D02*
G37*
G36*
X538243D02*
X535370Y-124579D01*
X534181Y-127451D01*
X535370Y-130324D01*
X538243Y-131513D01*
X541115Y-130324D01*
X542305Y-127451D01*
X541115Y-124579D01*
X538243Y-123389D01*
D02*
G37*
G36*
X578243D02*
X575370Y-124579D01*
X574181Y-127451D01*
X575370Y-130324D01*
X578243Y-131513D01*
X581115Y-130324D01*
X582304Y-127451D01*
X581115Y-124579D01*
X578243Y-123389D01*
D02*
G37*
G36*
X568243D02*
X565370Y-124579D01*
X564181Y-127451D01*
X565370Y-130324D01*
X568243Y-131513D01*
X571115Y-130324D01*
X572304Y-127451D01*
X571115Y-124579D01*
X568243Y-123389D01*
D02*
G37*
G36*
X234900Y-123100D02*
X233659D01*
X234022Y-123978D01*
X234900Y-124341D01*
Y-123100D01*
D02*
G37*
G36*
X175541D02*
X174300D01*
Y-124341D01*
X175178Y-123978D01*
X175541Y-123100D01*
D02*
G37*
G36*
X254100D02*
X252859D01*
X253222Y-123978D01*
X254100Y-124341D01*
Y-123100D01*
D02*
G37*
G36*
X237141D02*
X235900D01*
Y-124341D01*
X236778Y-123978D01*
X237141Y-123100D01*
D02*
G37*
G36*
X113378Y-124137D02*
X112500Y-124500D01*
X112137Y-125378D01*
X113378D01*
Y-124137D01*
D02*
G37*
G36*
X558743Y-123380D02*
Y-126951D01*
X562314D01*
X561268Y-124426D01*
X558743Y-123380D01*
D02*
G37*
G36*
X173300Y-123100D02*
X172059D01*
X172422Y-123978D01*
X173300Y-124341D01*
Y-123100D01*
D02*
G37*
G36*
X114378Y-124137D02*
Y-125378D01*
X115619D01*
X115256Y-124500D01*
X114378Y-124137D01*
D02*
G37*
G36*
X588243Y-133389D02*
X585370Y-134579D01*
X584181Y-137451D01*
X585370Y-140323D01*
X588243Y-141513D01*
X591115Y-140323D01*
X592305Y-137451D01*
X591115Y-134579D01*
X588243Y-133389D01*
D02*
G37*
G36*
X578243D02*
X575370Y-134579D01*
X574181Y-137451D01*
X575370Y-140323D01*
X578243Y-141513D01*
X581115Y-140323D01*
X582304Y-137451D01*
X581115Y-134579D01*
X578243Y-133389D01*
D02*
G37*
G36*
X230100Y-139259D02*
X229222Y-139622D01*
X228859Y-140500D01*
X230100D01*
Y-139259D01*
D02*
G37*
G36*
X598243Y-133389D02*
X595370Y-134579D01*
X594181Y-137451D01*
X595370Y-140323D01*
X598243Y-141513D01*
X601115Y-140323D01*
X602305Y-137451D01*
X601115Y-134579D01*
X598243Y-133389D01*
D02*
G37*
G36*
X528243D02*
X525370Y-134579D01*
X524181Y-137451D01*
X525370Y-140323D01*
X528243Y-141513D01*
X531115Y-140323D01*
X532304Y-137451D01*
X531115Y-134579D01*
X528243Y-133389D01*
D02*
G37*
G36*
X518243D02*
X515370Y-134579D01*
X514181Y-137451D01*
X515370Y-140323D01*
X518243Y-141513D01*
X521115Y-140323D01*
X522304Y-137451D01*
X521115Y-134579D01*
X518243Y-133389D01*
D02*
G37*
G36*
X568243D02*
X565370Y-134579D01*
X564181Y-137451D01*
X565370Y-140323D01*
X568243Y-141513D01*
X571115Y-140323D01*
X572304Y-137451D01*
X571115Y-134579D01*
X568243Y-133389D01*
D02*
G37*
G36*
X538243D02*
X535370Y-134579D01*
X534181Y-137451D01*
X535370Y-140323D01*
X538243Y-141513D01*
X541115Y-140323D01*
X542305Y-137451D01*
X541115Y-134579D01*
X538243Y-133389D01*
D02*
G37*
G36*
X508243Y-123389D02*
X505370Y-124579D01*
X504181Y-127451D01*
X505370Y-130324D01*
X508243Y-131513D01*
X511115Y-130324D01*
X512304Y-127451D01*
X511115Y-124579D01*
X508243Y-123389D01*
D02*
G37*
G36*
X562314Y-127951D02*
X558743D01*
Y-131523D01*
X561268Y-130476D01*
X562314Y-127951D01*
D02*
G37*
G36*
X528243Y-123389D02*
X525370Y-124579D01*
X524181Y-127451D01*
X525370Y-130324D01*
X528243Y-131513D01*
X531115Y-130324D01*
X532304Y-127451D01*
X531115Y-124579D01*
X528243Y-123389D01*
D02*
G37*
G36*
X518243D02*
X515370Y-124579D01*
X514181Y-127451D01*
X515370Y-130324D01*
X518243Y-131513D01*
X521115Y-130324D01*
X522304Y-127451D01*
X521115Y-124579D01*
X518243Y-123389D01*
D02*
G37*
G36*
X558243Y-133389D02*
X555370Y-134579D01*
X554181Y-137451D01*
X554451Y-138105D01*
X552172Y-140384D01*
X551325Y-139817D01*
X552305Y-137451D01*
X551115Y-134579D01*
X548243Y-133389D01*
X545370Y-134579D01*
X544181Y-137451D01*
X545370Y-140323D01*
X548243Y-141513D01*
X550608Y-140533D01*
X551175Y-141381D01*
X547575Y-144981D01*
X462683D01*
X461115Y-145631D01*
X455323Y-151423D01*
X455016Y-151296D01*
X452490Y-152342D01*
X451444Y-154868D01*
X452490Y-157394D01*
X455016Y-158440D01*
X457542Y-157394D01*
X458588Y-154868D01*
X458461Y-154561D01*
X463603Y-149419D01*
X548494D01*
X550063Y-148769D01*
X557589Y-141243D01*
X558243Y-141513D01*
X561115Y-140323D01*
X562304Y-137451D01*
X561115Y-134579D01*
X558243Y-133389D01*
D02*
G37*
G36*
X231100Y-139259D02*
Y-140500D01*
X232341D01*
X231978Y-139622D01*
X231100Y-139259D01*
D02*
G37*
G36*
X557743Y-127951D02*
X554171D01*
X555217Y-130476D01*
X557743Y-131523D01*
Y-127951D01*
D02*
G37*
G36*
X147400Y-114468D02*
X146175Y-114975D01*
X145668Y-116200D01*
X145993Y-116984D01*
Y-134460D01*
X145668Y-135244D01*
X146175Y-136469D01*
X147400Y-136976D01*
X148625Y-136469D01*
X149132Y-135244D01*
X148807Y-134460D01*
Y-116984D01*
X149132Y-116200D01*
X148625Y-114975D01*
X147400Y-114468D01*
D02*
G37*
%LPD*%
D16*
X447740Y-225000D02*
D03*
X454827D02*
D03*
X465827Y-164000D02*
D03*
X458740D02*
D03*
X502740Y-274000D02*
D03*
X509827D02*
D03*
X549827Y-241000D02*
D03*
X542740D02*
D03*
X555827Y-254000D02*
D03*
X548740D02*
D03*
X495740Y-260000D02*
D03*
X502827D02*
D03*
X290257Y-71400D02*
D03*
X297343D02*
D03*
X299543Y-210000D02*
D03*
X292457D02*
D03*
X42457Y-259000D02*
D03*
X49543D02*
D03*
X42457Y-251000D02*
D03*
X49543D02*
D03*
X299543Y-218000D02*
D03*
X292457D02*
D03*
X299543Y-226000D02*
D03*
X292457D02*
D03*
X300543Y-240000D02*
D03*
X293457D02*
D03*
X273457Y-53000D02*
D03*
X280543D02*
D03*
X320543Y-113000D02*
D03*
X313457D02*
D03*
X42457Y-266000D02*
D03*
X49543D02*
D03*
X42457Y-243000D02*
D03*
X49543D02*
D03*
D17*
X529284Y-286543D02*
D03*
Y-279457D02*
D03*
X510284Y-233457D02*
D03*
Y-240543D02*
D03*
X156500Y-304957D02*
D03*
Y-312043D02*
D03*
X246000Y-297457D02*
D03*
Y-304543D02*
D03*
X262000Y-297457D02*
D03*
Y-304543D02*
D03*
X390600Y-80543D02*
D03*
Y-73457D02*
D03*
X349000Y-33457D02*
D03*
Y-40543D02*
D03*
X334600Y-297343D02*
D03*
Y-290257D02*
D03*
X321000Y-52457D02*
D03*
Y-59543D02*
D03*
X273000Y-113543D02*
D03*
Y-106457D02*
D03*
X238000Y-297457D02*
D03*
Y-304543D02*
D03*
X254000Y-297457D02*
D03*
Y-304543D02*
D03*
D52*
X563084Y-174992D02*
Y-174255D01*
X561229Y-172400D02*
X563084Y-174255D01*
X556284Y-172400D02*
X561229D01*
X572784Y-185300D02*
Y-184692D01*
X563084Y-174992D02*
X572784Y-184692D01*
X284000Y-213500D02*
X287957D01*
X278500D02*
X284000D01*
X292457Y-231457D02*
X293000Y-232000D01*
X292457Y-231457D02*
Y-226000D01*
Y-218000D01*
X287957Y-213500D02*
X292457Y-218000D01*
X277500Y-212500D02*
X278500Y-213500D01*
X284100Y-229991D02*
Y-227009D01*
X283300Y-230791D02*
X284100Y-229991D01*
X349000Y-33457D02*
Y-25800D01*
X345800D02*
X349000D01*
X265000Y-19400D02*
X267400Y-17000D01*
X272100Y-300605D02*
X280500Y-292205D01*
X271000Y-305500D02*
X272000Y-306500D01*
X280500Y-292205D02*
Y-228500D01*
X282191Y-219000D02*
X283000D01*
X281000Y-220191D02*
X282191Y-219000D01*
X281000Y-223909D02*
Y-220191D01*
Y-223909D02*
X284100Y-227009D01*
X272000Y-306500D02*
X283300Y-295200D01*
Y-230791D01*
X267400Y-17000D02*
X343500D01*
X349000Y-22500D01*
Y-25800D02*
Y-22500D01*
X384500Y-128500D02*
X391500Y-135500D01*
X384500Y-128500D02*
Y-39500D01*
X378457Y-33457D02*
X384500Y-39500D01*
X349000Y-33457D02*
X378457D01*
X277500Y-212500D02*
Y-211038D01*
X277600Y-210938D01*
X267000Y-207000D02*
X270500Y-210500D01*
X267000Y-207000D02*
Y-190500D01*
X265500Y-189000D02*
X267000Y-190500D01*
D53*
X516083Y-207800D02*
X518483Y-210200D01*
Y-228200D02*
Y-210200D01*
X513983Y-226700D02*
X518184Y-230900D01*
X516083Y-239900D02*
Y-236300D01*
Y-239900D02*
X520284Y-244100D01*
Y-249200D02*
Y-244100D01*
X525783Y-267000D02*
X527283Y-268500D01*
X478784Y-267000D02*
X525783D01*
X475783Y-270000D02*
X478784Y-267000D01*
X545676Y-254107D02*
X545784Y-254000D01*
X548740D01*
X536784Y-262000D02*
X544283Y-269500D01*
Y-270000D02*
Y-269500D01*
X534283Y-258500D02*
X535683Y-259900D01*
X539683D01*
X547284Y-267500D01*
Y-269000D02*
Y-267500D01*
X519083Y-236300D02*
X519161Y-236223D01*
Y-233523D01*
X522683Y-230000D01*
X506484Y-220800D02*
X513283Y-214000D01*
X460583Y-266000D02*
X462384Y-264200D01*
X506484D01*
X529284Y-278368D02*
X531196Y-276456D01*
X529284Y-279457D02*
Y-278368D01*
X510954Y-241213D02*
X513870D01*
X510284Y-240543D02*
X510954Y-241213D01*
X542121Y-244938D02*
Y-241619D01*
X542740Y-241000D01*
X554783Y-240200D02*
Y-236194D01*
X561684Y-210500D02*
X565584Y-206600D01*
X550883Y-210500D02*
X561684D01*
X533984Y-190800D02*
X534564Y-190220D01*
X533984Y-197800D02*
Y-190800D01*
Y-197800D02*
X534084Y-197900D01*
X467183Y-198200D02*
X469827Y-195557D01*
X516083Y-107000D02*
X521060D01*
X502827Y-260000D02*
X506183D01*
X498983Y-120800D02*
X506484Y-113300D01*
X510984D01*
X571008Y-289376D02*
Y-278624D01*
X570984Y-278600D02*
X571008Y-278624D01*
X531196Y-276456D02*
X544814D01*
X545522Y-275747D01*
X568131D01*
X570984Y-278600D01*
X517239Y-276456D02*
X531196D01*
X510428Y-269645D02*
X517239Y-276456D01*
X505840Y-240543D02*
X510284D01*
X504384Y-242000D02*
X505840Y-240543D01*
X474483Y-328000D02*
X523783D01*
X530834Y-335050D01*
Y-337843D02*
Y-335050D01*
Y-337843D02*
X533440Y-340450D01*
X570334D01*
X594684Y-316100D01*
X533284Y-214000D02*
X539683D01*
X539783Y-214100D01*
X565584Y-206600D02*
Y-199700D01*
X563183Y-197300D02*
X565584Y-199700D01*
X561983Y-197300D02*
X563183D01*
X447543Y-198800D02*
X448143Y-198200D01*
X467183D01*
X549827Y-243957D02*
Y-241000D01*
X547583Y-246200D02*
X549827Y-243957D01*
X125000Y-102600D02*
X128200Y-99400D01*
X273000Y-113543D02*
X276000Y-110543D01*
Y-110500D01*
X276043D01*
X280543Y-73043D02*
X285600Y-78100D01*
Y-91600D02*
Y-78100D01*
X285342Y-91858D02*
X285600Y-91600D01*
X281000Y-150600D02*
Y-81000D01*
X250000Y-109000D02*
Y-80500D01*
X284000Y-213500D02*
Y-212650D01*
X283857Y-212507D02*
X284000Y-212650D01*
X283857Y-212507D02*
Y-209630D01*
X286500Y-206987D01*
Y-199500D01*
X300500Y-237000D02*
Y-235252D01*
X304500Y-231252D01*
X286500Y-233043D02*
X293457Y-240000D01*
X281092Y-210597D02*
Y-210046D01*
Y-216100D02*
X281292Y-215900D01*
X284284D01*
X286500Y-218116D01*
Y-233043D02*
Y-218116D01*
X278500Y-207454D02*
X281092Y-210046D01*
X278500Y-207454D02*
Y-102000D01*
X279058Y-96942D02*
Y-91858D01*
X273000Y-103000D02*
X279058Y-96942D01*
X273000Y-106457D02*
Y-103000D01*
X281000Y-150600D02*
X283400Y-153000D01*
X280047Y-80047D02*
X281000Y-81000D01*
X285342Y-91858D02*
X286600Y-93116D01*
X284000Y-144500D02*
Y-98000D01*
X286600Y-99347D02*
Y-93116D01*
X286173Y-99773D02*
X286600Y-99347D01*
X274500Y-253000D02*
Y-185000D01*
X287930Y-183070D02*
X288000Y-183000D01*
X289000Y-181030D02*
Y-114190D01*
Y-181030D02*
X290100Y-182130D01*
X289000Y-186070D02*
X290100Y-184970D01*
X289000Y-202500D02*
Y-186070D01*
X154000Y-157500D02*
X154150Y-157650D01*
Y-186950D02*
Y-157650D01*
Y-186950D02*
X158500Y-191300D01*
Y-291500D02*
Y-191300D01*
Y-291500D02*
X165000Y-298000D01*
Y-313000D02*
Y-298000D01*
X174843Y-313000D02*
Y-303135D01*
X160550Y-288843D02*
X174843Y-303135D01*
X160550Y-285157D02*
X164400Y-281307D01*
X160550Y-288843D02*
Y-285157D01*
X157457Y-313000D02*
X165000D01*
X156500Y-312043D02*
X157457Y-313000D01*
X156500Y-304957D02*
X157457Y-304000D01*
X161000D01*
X368000Y-129000D02*
Y-125014D01*
X362543Y-119558D02*
X368000Y-125014D01*
X362543Y-119558D02*
Y-119457D01*
X351000Y-88000D02*
X352000Y-89000D01*
X351000Y-88000D02*
Y-70000D01*
X346000Y-65000D02*
X351000Y-70000D01*
X333000Y-65000D02*
X346000D01*
X329248Y-61248D02*
X333000Y-65000D01*
X349000Y-93000D02*
X350000Y-94000D01*
X349000Y-93000D02*
Y-72000D01*
X345000Y-68000D02*
X349000Y-72000D01*
X351000Y-129000D02*
X356000D01*
X350000Y-128000D02*
X351000Y-129000D01*
X350000Y-128000D02*
Y-119457D01*
X89000Y-112200D02*
X89800Y-111400D01*
X91600Y-97600D02*
X93800Y-95400D01*
X91600Y-135400D02*
Y-97600D01*
X212000Y-107000D02*
Y-87000D01*
X235400Y-122600D02*
Y-113800D01*
X77800Y-213000D02*
X78600Y-212200D01*
X91400Y-215400D02*
Y-157800D01*
X97000Y-219400D02*
Y-214400D01*
X94600Y-98600D02*
X96200Y-97000D01*
X99400Y-217800D02*
Y-217000D01*
Y-217800D02*
X101229Y-219629D01*
Y-221571D02*
Y-219629D01*
X92233Y-227000D02*
X94600Y-224633D01*
X307605Y-109595D02*
X307995D01*
X307400Y-109800D02*
X307605Y-109595D01*
X315400Y-59400D02*
Y-58057D01*
X321000Y-52457D01*
X193800Y-250600D02*
Y-239400D01*
X196200Y-237000D01*
X108200Y-214600D02*
X108800D01*
X113000Y-210400D01*
Y-202311D01*
X121000Y-199400D02*
X125800D01*
X128200Y-201800D01*
X368200Y-162600D02*
Y-150600D01*
X249800Y-206746D02*
Y-184200D01*
X238000Y-218546D02*
X249800Y-206746D01*
X238000Y-297457D02*
Y-293200D01*
X41000Y-267457D02*
X42457Y-266000D01*
X41000Y-269800D02*
Y-267457D01*
X48200Y-273000D02*
X77000D01*
X89000Y-261000D01*
Y-220200D01*
X42457Y-251000D02*
Y-243000D01*
Y-259000D02*
Y-251000D01*
Y-266000D02*
Y-259000D01*
X124200Y-217000D02*
X125800Y-218600D01*
X106600Y-217000D02*
X124200D01*
X266600Y-292200D02*
X269000Y-294600D01*
Y-302600D02*
Y-294600D01*
X267057Y-304543D02*
X269000Y-302600D01*
X262000Y-304543D02*
X267057D01*
X240200Y-292200D02*
X266600D01*
X254000Y-297457D02*
X262000D01*
X246000D02*
X254000D01*
X238000D02*
X246000D01*
X333800Y-80200D02*
Y-69800D01*
X329800Y-65800D02*
X333800Y-69800D01*
X321000Y-65800D02*
X329800D01*
X273406Y-20200D02*
Y-17406D01*
X293000Y-149800D02*
X293450Y-149350D01*
X362800Y-145800D02*
X376200D01*
X356000Y-139000D02*
X362800Y-145800D01*
X235300Y-287300D02*
X240200Y-292200D01*
X235300Y-287300D02*
Y-222700D01*
X235400Y-222600D01*
X262600Y-129800D02*
X264200Y-128200D01*
X262600Y-172200D02*
Y-129800D01*
X258578Y-172200D02*
X262600D01*
X252978Y-166600D02*
X258578Y-172200D01*
X118457Y-189143D02*
X147400Y-160200D01*
X118457Y-202743D02*
Y-189143D01*
X78600Y-212200D02*
Y-150600D01*
X147400Y-135244D02*
Y-116200D01*
X206178Y-161800D02*
X207400D01*
X195400Y-151022D02*
X206178Y-161800D01*
X146600Y-160200D02*
X147400D01*
X134522Y-148122D02*
X146600Y-160200D01*
X394943Y-73457D02*
X395400Y-73000D01*
X390600Y-73457D02*
X394943D01*
X344657Y-40543D02*
X349000D01*
X341200Y-242000D02*
Y-213501D01*
X343000Y-239800D02*
Y-212755D01*
X345000Y-231400D02*
Y-212210D01*
X332600Y-202355D02*
X343000Y-212755D01*
X330800Y-203101D02*
X341200Y-213501D01*
X346800Y-220400D02*
Y-196400D01*
X334600Y-201810D02*
X345000Y-212210D01*
X337800Y-187400D02*
X346800Y-196400D01*
X221257Y-192457D02*
X231400Y-202600D01*
X221257Y-192457D02*
Y-176200D01*
X229430Y-205800D02*
X233800D01*
X218600Y-194970D02*
X229430Y-205800D01*
X218600Y-194970D02*
Y-146857D01*
X221257Y-144200D01*
X233000Y-299543D02*
X238000Y-304543D01*
X254000D02*
X262000D01*
X254000Y-307842D02*
Y-304543D01*
X248843Y-313000D02*
X254000Y-307842D01*
X238000Y-304543D02*
X246000D01*
X238000D02*
X239000Y-305543D01*
Y-313000D02*
Y-305543D01*
X159400Y-189298D02*
X162600Y-186098D01*
X160600Y-184646D02*
Y-107000D01*
X157949Y-187296D02*
X160600Y-184646D01*
X157949Y-187850D02*
Y-187296D01*
X156200Y-185800D02*
X156900D01*
X158600Y-184100D02*
Y-105000D01*
X156900Y-185800D02*
X158600Y-184100D01*
Y-105000D02*
X160200Y-103400D01*
X57000Y-241000D02*
Y-181000D01*
X59400Y-220200D02*
X61800Y-217800D01*
X59400Y-254600D02*
Y-220200D01*
X55000Y-243000D02*
X57000Y-241000D01*
X55000Y-259000D02*
X59400Y-254600D01*
X49543Y-259000D02*
X55000D01*
X49543Y-243000D02*
X55000D01*
X103400Y-179400D02*
Y-125800D01*
X104743Y-124457D01*
X29000Y-250410D02*
Y-247400D01*
X39400Y-237000D01*
X29000Y-266000D02*
X35200Y-272200D01*
X43343D01*
X49543Y-266000D01*
Y-259000D01*
Y-251000D02*
Y-243000D01*
Y-239943D01*
X46600Y-237000D02*
X49543Y-239943D01*
X39400Y-237000D02*
X46600D01*
X201800Y-212200D02*
X202400Y-212800D01*
Y-222164D02*
Y-212800D01*
Y-222164D02*
X206276Y-226039D01*
Y-259653D02*
Y-226039D01*
X221800Y-229800D02*
Y-217800D01*
X221000Y-230600D02*
X221800Y-229800D01*
X209425Y-259653D02*
Y-231775D01*
X212575Y-259653D02*
Y-245375D01*
X215724Y-259653D02*
X218347D01*
X215724Y-269476D02*
Y-266347D01*
X204370Y-280830D02*
X215724Y-269476D01*
X204370Y-287000D02*
Y-280830D01*
X206276Y-268524D02*
Y-266347D01*
X195400Y-279400D02*
X206276Y-268524D01*
X182442Y-279400D02*
X195400D01*
X212575Y-268953D02*
Y-266347D01*
X194528Y-287000D02*
X212575Y-268953D01*
X209425Y-268575D02*
Y-266347D01*
X196800Y-281200D02*
X209425Y-268575D01*
X188000Y-281200D02*
X196800D01*
X184685Y-287000D02*
Y-284515D01*
X188000Y-281200D01*
X174843Y-287000D02*
X182442Y-279400D01*
X200200Y-265800D02*
X201000Y-265000D01*
Y-254600D01*
X216724Y-252724D02*
X217000Y-253000D01*
X216724Y-252724D02*
Y-222346D01*
X213575Y-239175D02*
X213800Y-239400D01*
X213575Y-239175D02*
Y-222346D01*
X262600Y-225000D02*
Y-211400D01*
X210425Y-225625D02*
Y-222346D01*
X204200Y-219271D02*
Y-210600D01*
Y-219271D02*
X207276Y-222346D01*
X156200Y-104200D02*
X159400Y-101000D01*
X156200Y-145000D02*
Y-104200D01*
X265000Y-59400D02*
Y-37000D01*
X267400Y-64200D02*
Y-41800D01*
X242000Y-204363D02*
Y-48700D01*
X212200Y-208200D02*
X238163D01*
X243800Y-205109D02*
Y-50200D01*
X245600Y-205854D02*
Y-52000D01*
X238163Y-208200D02*
X242000Y-204363D01*
X238909Y-210000D02*
X243800Y-205109D01*
X213600Y-210000D02*
X238909D01*
X239254Y-212200D02*
X245600Y-205854D01*
X214600Y-212200D02*
X239254D01*
X247400Y-206600D02*
Y-53800D01*
X238347Y-215653D02*
X247400Y-206600D01*
X216724Y-215653D02*
X238347D01*
X207276D02*
Y-213124D01*
X212200Y-208200D01*
X242000Y-48700D02*
X244150Y-46550D01*
X210425Y-215653D02*
Y-213175D01*
X213600Y-210000D01*
X243800Y-50200D02*
X245650Y-48350D01*
X290110Y-71254D02*
X290257Y-71400D01*
X290110Y-71254D02*
Y-65490D01*
X213575Y-215653D02*
Y-213225D01*
X214600Y-212200D01*
X245600Y-52000D02*
X247200Y-50400D01*
X247400Y-53800D02*
X249000Y-52200D01*
X343400Y-122600D02*
Y-97000D01*
X340200Y-128200D02*
Y-97000D01*
X309000Y-56200D02*
X318600Y-46600D01*
X309000Y-99400D02*
Y-56200D01*
X317577Y-44423D02*
X319977D01*
X305858Y-56142D02*
X317577Y-44423D01*
X305858Y-100258D02*
Y-56142D01*
X346800Y-220400D02*
X347400Y-221000D01*
X337800Y-187400D02*
Y-97000D01*
X345000Y-231400D02*
X345800Y-232200D01*
X343000Y-239800D02*
X343400Y-240200D01*
X331400Y-97000D02*
X332600Y-98200D01*
X341200Y-242000D02*
X341800Y-242600D01*
X342802Y-282055D02*
X346945D01*
X334600Y-290257D02*
X342802Y-282055D01*
X329000Y-97800D02*
X330800Y-99600D01*
X325000Y-97800D02*
X329000Y-101800D01*
X303400Y-135400D02*
Y-114600D01*
X301000Y-157800D02*
Y-115400D01*
X298584Y-165000D02*
X298600Y-165016D01*
X293450Y-149350D02*
Y-114150D01*
X112200Y-197800D02*
X113000Y-197000D01*
Y-188200D01*
X160600Y-107000D02*
X162600Y-105000D01*
X130600Y-214600D02*
Y-187400D01*
X132200Y-185800D01*
X217800Y-120200D02*
Y-109000D01*
X219400Y-107400D01*
X321000Y-65800D02*
Y-59543D01*
X313000Y-108200D02*
X313457Y-108657D01*
Y-113000D02*
Y-108657D01*
X278950Y-91858D02*
X279058D01*
X125000Y-106600D02*
Y-102600D01*
X89800Y-111400D02*
Y-95400D01*
X92200Y-93000D01*
X94600Y-224633D02*
Y-98600D01*
X97000Y-207400D02*
X106600Y-217000D01*
X97000Y-207400D02*
Y-191457D01*
X89000Y-220200D02*
Y-197000D01*
X295923Y-196423D02*
X307500Y-208000D01*
Y-242610D02*
Y-208000D01*
Y-242610D02*
X346945Y-282055D01*
X295923Y-196423D02*
Y-115000D01*
X302600Y-113800D02*
X303400Y-114600D01*
X300200D02*
X301000Y-115400D01*
X298600Y-165016D02*
Y-117000D01*
X295884Y-115039D02*
X295923Y-115000D01*
X293450Y-114150D02*
X293800Y-113800D01*
X291400Y-136200D02*
Y-112200D01*
X287000Y-182141D02*
X287930Y-183070D01*
X287000Y-182141D02*
Y-110500D01*
X304500Y-180000D02*
X305000D01*
X334600Y-201810D02*
Y-97000D01*
X332600Y-202355D02*
Y-98200D01*
X330800Y-203101D02*
Y-99600D01*
X324205Y-156994D02*
Y-101105D01*
X323726Y-87790D02*
Y-87726D01*
X325500Y-94401D02*
Y-89500D01*
X322950Y-96951D02*
X325500Y-94401D01*
X322950Y-99850D02*
Y-96951D01*
Y-99850D02*
X324205Y-101105D01*
X323726Y-87726D02*
X325500Y-89500D01*
X305000Y-180000D02*
X306000Y-179000D01*
Y-114000D01*
X305000Y-113000D02*
X306000Y-114000D01*
X319400Y-161800D02*
X324205Y-156994D01*
X289000Y-114190D02*
X289300Y-113890D01*
X290100Y-184970D02*
Y-182130D01*
X312500Y-84531D02*
X315016Y-82016D01*
X312500Y-105000D02*
Y-84531D01*
X313457Y-120957D02*
Y-113000D01*
Y-120957D02*
X319500Y-127000D01*
Y-139000D02*
Y-127000D01*
X317000Y-141500D02*
X319500Y-139000D01*
X313500Y-141500D02*
X317000D01*
X309794Y-107705D02*
X312500Y-105000D01*
X309794Y-128615D02*
Y-107705D01*
X308263Y-130146D02*
X309794Y-128615D01*
X308263Y-195737D02*
Y-130146D01*
X304000Y-200000D02*
X308263Y-195737D01*
X285957Y-210500D02*
X291957D01*
X292457Y-210000D01*
X299543D02*
X304000Y-214457D01*
X300043Y-218500D02*
X303000D01*
X299543Y-218000D02*
X300043Y-218500D01*
X300043Y-225500D02*
X305252D01*
X299543Y-226000D02*
X300043Y-225500D01*
X163000Y-128500D02*
X164500Y-127000D01*
X163000Y-183953D02*
Y-128500D01*
Y-183953D02*
X164400Y-185353D01*
Y-281307D02*
Y-185353D01*
X229500Y-271000D02*
X229600Y-271100D01*
Y-319200D02*
Y-271100D01*
Y-319200D02*
X230600Y-320200D01*
X280543Y-53000D02*
X287000Y-46543D01*
Y-46500D01*
X280543Y-60457D02*
Y-53000D01*
X321000Y-59543D02*
Y-59413D01*
X325056Y-55357D01*
Y-49500D01*
X325000Y-49444D02*
X325056Y-49500D01*
X325000Y-49444D02*
Y-41000D01*
X280543Y-73043D02*
Y-60457D01*
X300000Y-174000D02*
X303050Y-170950D01*
Y-156901D01*
X303000Y-156851D02*
X303050Y-156901D01*
X303000Y-156851D02*
Y-143500D01*
X303500Y-143000D01*
X238000Y-229000D02*
X246500D01*
X238000Y-286800D02*
Y-229000D01*
Y-218546D01*
X329000Y-245500D02*
Y-101800D01*
Y-245500D02*
X332500Y-249000D01*
X233000Y-299543D02*
Y-222200D01*
X229500Y-225900D02*
X230900Y-224500D01*
X229500Y-229000D02*
Y-225900D01*
X256000Y-221500D02*
Y-204000D01*
X272000Y-193000D02*
Y-173000D01*
X274500Y-170500D01*
D54*
X548494Y-147200D02*
X558243Y-137451D01*
X467227Y-252457D02*
X523266D01*
X539529Y-236194D01*
X574905D02*
X598146Y-212953D01*
X554783Y-236194D02*
X574905D01*
X539529D02*
X554783D01*
X452352Y-225000D02*
X454827D01*
X458740Y-170343D02*
Y-164000D01*
X455016Y-154868D02*
X462683Y-147200D01*
X548494D01*
X535284Y-336000D02*
X547284Y-324000D01*
Y-310000D01*
X501684Y-308000D02*
X503684Y-310000D01*
X547284D01*
X583724Y-167520D02*
X593724Y-177520D01*
Y-192940D02*
Y-177520D01*
Y-192940D02*
X598146Y-197362D01*
X580216Y-214468D02*
X597321Y-197362D01*
X598146D01*
X581144Y-190100D02*
X593724Y-177520D01*
X564984Y-190220D02*
X565103Y-190100D01*
X581144D01*
X447740Y-229943D02*
Y-225000D01*
X445583Y-232100D02*
X447740Y-229943D01*
D55*
X376200Y-145800D02*
Y-80700D01*
X326900Y-31400D02*
X376200Y-80700D01*
X242510Y-31400D02*
X326900D01*
X130000Y-48000D02*
X131000Y-47000D01*
X130000Y-64000D02*
Y-48000D01*
X236000Y-37909D02*
X242510Y-31400D01*
X95400Y-237800D02*
X112200D01*
X131850Y-218150D01*
X132071D01*
X140113Y-210107D01*
Y-193087D01*
X376200Y-198000D02*
Y-145800D01*
X201800Y-320200D02*
X230600D01*
X179400Y-297800D02*
X201800Y-320200D01*
X376200Y-261800D02*
Y-198000D01*
X382000D01*
X383000Y-199000D02*
X389000D01*
X382000Y-198000D02*
X383000Y-199000D01*
X369961Y-198000D02*
X376200D01*
X368200Y-269800D02*
X376200Y-261800D01*
X230600Y-320200D02*
X272300D01*
X297500Y-295000D01*
X315693D01*
X166000Y-73500D02*
X187000D01*
X165500Y-74000D02*
X166000Y-73500D01*
D56*
X63598Y-27598D02*
X110000Y-74000D01*
X55000Y-27598D02*
X63598D01*
X29000Y-137000D02*
Y-53598D01*
Y-234819D02*
Y-137000D01*
X30000Y-138000D01*
X45000D01*
X29600Y-204000D02*
X45000D01*
X29000Y-53598D02*
X55000Y-27598D01*
D60*
X598146Y-197362D02*
D03*
Y-212953D02*
D03*
D61*
X593724Y-177520D02*
D03*
X583724Y-167520D02*
D03*
X573724Y-177520D02*
D03*
X462629Y-339280D02*
D03*
X488220D02*
D03*
X147815Y-86000D02*
D03*
X322000Y-11000D02*
D03*
X177000Y-221000D02*
D03*
X356200Y-166600D02*
D03*
X288200Y-315400D02*
D03*
X69000Y-197000D02*
D03*
X234000Y-65500D02*
D03*
X82000Y-97500D02*
D03*
X403000Y-173000D02*
D03*
Y-147409D02*
D03*
X340039Y-198000D02*
D03*
D62*
X515598Y-336000D02*
D03*
X525441D02*
D03*
X535284D02*
D03*
X207000Y-313000D02*
D03*
X216843D02*
D03*
X239000D02*
D03*
X248843D02*
D03*
X258685D02*
D03*
X165000Y-287000D02*
D03*
X174843D02*
D03*
X184685D02*
D03*
X246000D02*
D03*
X255842D02*
D03*
X165000Y-313000D02*
D03*
X174843D02*
D03*
X184685D02*
D03*
D63*
X505756Y-336000D02*
D03*
X547284Y-300000D02*
D03*
Y-290000D02*
D03*
Y-280000D02*
D03*
X523283Y-214000D02*
D03*
X513283D02*
D03*
X503284D02*
D03*
X628243Y-57451D02*
D03*
Y-67451D02*
D03*
Y-77451D02*
D03*
X638243D02*
D03*
Y-67451D02*
D03*
Y-57451D02*
D03*
Y-47451D02*
D03*
X598243Y-137451D02*
D03*
X558243D02*
D03*
Y-127451D02*
D03*
X548243Y-137451D02*
D03*
Y-127451D02*
D03*
X538243Y-137451D02*
D03*
Y-127451D02*
D03*
X528243Y-137451D02*
D03*
Y-127451D02*
D03*
X518243Y-137451D02*
D03*
Y-127451D02*
D03*
X508243Y-137451D02*
D03*
Y-127451D02*
D03*
X588243D02*
D03*
X578243D02*
D03*
X568243D02*
D03*
Y-137451D02*
D03*
X588243D02*
D03*
X578243D02*
D03*
X224055Y-287000D02*
D03*
X214213D02*
D03*
X204370D02*
D03*
X194528D02*
D03*
X389000Y-189000D02*
D03*
Y-199000D02*
D03*
Y-209000D02*
D03*
Y-219000D02*
D03*
Y-249000D02*
D03*
Y-229000D02*
D03*
Y-239000D02*
D03*
Y-259000D02*
D03*
Y-269000D02*
D03*
Y-279000D02*
D03*
Y-289000D02*
D03*
X356000Y-129000D02*
D03*
Y-119000D02*
D03*
Y-109000D02*
D03*
X368000Y-129000D02*
D03*
Y-119000D02*
D03*
Y-109000D02*
D03*
D64*
X547284Y-310000D02*
D03*
X356000Y-139000D02*
D03*
X368000D02*
D03*
D65*
X533284Y-214000D02*
D03*
D66*
X608282Y-22884D02*
D03*
X433085D02*
D03*
Y-137057D02*
D03*
X321055Y-307945D02*
D03*
X346945Y-282055D02*
D03*
X321055D02*
D03*
X315693Y-295000D02*
D03*
X346945Y-307945D02*
D03*
X352307Y-295000D02*
D03*
D67*
X439866Y-335000D02*
D03*
X601284D02*
D03*
Y11457D02*
D03*
X439866D02*
D03*
D68*
X167500Y-86000D02*
D03*
X369961Y-198000D02*
D03*
D69*
X313500Y-131500D02*
D03*
Y-141500D02*
D03*
D70*
Y-136500D02*
D03*
D71*
X45000Y-174000D02*
D03*
Y-204000D02*
D03*
Y-108000D02*
D03*
Y-138000D02*
D03*
X52000Y-288000D02*
D03*
X22000D02*
D03*
D72*
X83410Y-305000D02*
D03*
X99000D02*
D03*
X125409D02*
D03*
X141000D02*
D03*
X29000Y-234819D02*
D03*
Y-250410D02*
D03*
Y-266000D02*
D03*
D73*
X55000Y-27598D02*
D03*
Y-65000D02*
D03*
D74*
X80000Y-80000D02*
D03*
D75*
Y-60000D02*
D03*
D76*
X551468Y-197050D02*
D03*
X547137D02*
D03*
X551468Y-192720D02*
D03*
X547137D02*
D03*
X551468Y-188389D02*
D03*
X547137D02*
D03*
D77*
X516083Y-207800D02*
D03*
X518483Y-228200D02*
D03*
X513983Y-226700D02*
D03*
X518184Y-230900D02*
D03*
X516083Y-236300D02*
D03*
X520284Y-249200D02*
D03*
X446783Y-207000D02*
D03*
X449784D02*
D03*
X452783D02*
D03*
X455784D02*
D03*
X527283Y-268500D02*
D03*
X475783Y-270000D02*
D03*
X545676Y-254107D02*
D03*
X536784Y-262000D02*
D03*
X544283Y-270000D02*
D03*
X534283Y-258500D02*
D03*
X547284Y-269000D02*
D03*
X519083Y-236300D02*
D03*
X522683Y-230000D02*
D03*
X506484Y-220800D02*
D03*
Y-264200D02*
D03*
X460583Y-266000D02*
D03*
X531196Y-276456D02*
D03*
X510428Y-269645D02*
D03*
X513870Y-241213D02*
D03*
X542121Y-244938D02*
D03*
X554783Y-240200D02*
D03*
X550883Y-210500D02*
D03*
X561983Y-197300D02*
D03*
X534564Y-190220D02*
D03*
X534084Y-197900D02*
D03*
X469827Y-195557D02*
D03*
X521060Y-107000D02*
D03*
X516083D02*
D03*
X506183Y-260000D02*
D03*
X498983Y-120800D02*
D03*
X510984Y-113300D02*
D03*
X571008Y-289376D02*
D03*
X570984Y-278600D02*
D03*
X504384Y-242000D02*
D03*
X474483Y-328000D02*
D03*
X594684Y-316100D02*
D03*
X539783Y-214100D02*
D03*
X447543Y-198800D02*
D03*
X547583Y-246200D02*
D03*
X530483Y-268100D02*
D03*
X515484Y-264800D02*
D03*
X517417Y-245433D02*
D03*
X467827Y-206857D02*
D03*
X165543Y-110457D02*
D03*
X281000Y-77000D02*
D03*
X250000Y-80500D02*
D03*
Y-109000D02*
D03*
X177000Y-169000D02*
D03*
X276000Y-110500D02*
D03*
X281092Y-210597D02*
D03*
Y-216100D02*
D03*
X278500Y-102000D02*
D03*
X285342Y-91858D02*
D03*
X284000Y-98000D02*
D03*
X286173Y-99773D02*
D03*
X274500Y-185000D02*
D03*
X288000Y-183000D02*
D03*
X284000Y-144500D02*
D03*
X154000Y-157500D02*
D03*
X161000Y-304000D02*
D03*
X362543Y-119457D02*
D03*
X352000Y-89000D02*
D03*
X329248Y-61248D02*
D03*
X350000Y-94000D02*
D03*
X345000Y-68000D02*
D03*
X350000Y-119457D02*
D03*
X91600Y-135400D02*
D03*
X89000Y-112200D02*
D03*
X212000Y-87000D02*
D03*
Y-107000D02*
D03*
X254600Y-122600D02*
D03*
X230600Y-141000D02*
D03*
X235400Y-122600D02*
D03*
Y-113800D02*
D03*
X173800Y-122600D02*
D03*
X207400Y-117800D02*
D03*
X113878Y-125878D02*
D03*
X62600Y-152200D02*
D03*
X253800Y-180200D02*
D03*
X229000Y-175543D02*
D03*
X77800Y-213000D02*
D03*
X91400Y-215400D02*
D03*
X97000Y-214400D02*
D03*
X99400Y-217000D02*
D03*
X101229Y-221571D02*
D03*
X97000Y-219400D02*
D03*
X273406Y-36594D02*
D03*
X307400Y-109800D02*
D03*
X286043Y-66357D02*
D03*
X313864Y-73000D02*
D03*
X315400Y-59400D02*
D03*
X193800Y-250600D02*
D03*
X196200Y-237000D02*
D03*
X108200Y-214600D02*
D03*
X113000Y-202311D02*
D03*
X121000Y-199400D02*
D03*
X128200Y-201800D02*
D03*
X215400Y-191400D02*
D03*
X368200Y-162600D02*
D03*
Y-150600D02*
D03*
X249800Y-184200D02*
D03*
X238000Y-286800D02*
D03*
Y-293200D02*
D03*
X41000Y-269800D02*
D03*
X48200Y-273000D02*
D03*
X125800Y-218600D02*
D03*
X89000Y-220200D02*
D03*
X333800Y-80200D02*
D03*
X273406Y-20200D02*
D03*
X293000Y-149800D02*
D03*
X264200Y-128200D02*
D03*
X262600Y-172200D02*
D03*
X252978Y-166600D02*
D03*
X118457Y-202743D02*
D03*
X78600Y-150600D02*
D03*
X147400Y-116200D02*
D03*
Y-135244D02*
D03*
X207400Y-161800D02*
D03*
X195400Y-151022D02*
D03*
X147400Y-160200D02*
D03*
X134522Y-148122D02*
D03*
X233800Y-205800D02*
D03*
X231400Y-202600D02*
D03*
X235400Y-222600D02*
D03*
X221257Y-144200D02*
D03*
Y-176200D02*
D03*
X57000Y-181000D02*
D03*
X61800Y-217800D02*
D03*
X91400Y-157800D02*
D03*
X103400Y-179400D02*
D03*
X104743Y-124457D02*
D03*
X97000Y-191457D02*
D03*
X89000Y-197000D02*
D03*
X295884Y-115039D02*
D03*
X287000Y-110500D02*
D03*
X305000Y-113000D02*
D03*
X304500Y-180000D02*
D03*
X274500Y-253000D02*
D03*
X323726Y-87790D02*
D03*
X289300Y-113890D02*
D03*
X289000Y-202500D02*
D03*
X315016Y-82016D02*
D03*
X304000Y-200000D02*
D03*
X285957Y-210500D02*
D03*
X304000Y-214457D02*
D03*
X303000Y-218500D02*
D03*
X305252Y-225500D02*
D03*
X304500Y-231252D02*
D03*
X164500Y-127000D02*
D03*
X229500Y-271000D02*
D03*
X287000Y-46500D02*
D03*
X280543Y-60457D02*
D03*
X325000Y-41000D02*
D03*
X300000Y-174000D02*
D03*
X303500Y-143000D02*
D03*
X246500Y-229000D02*
D03*
X286500Y-199500D02*
D03*
X233000Y-222200D02*
D03*
X230900Y-224500D02*
D03*
X229500Y-229000D02*
D03*
X256000Y-221500D02*
D03*
Y-204000D02*
D03*
X272000Y-193000D02*
D03*
X274500Y-170500D02*
D03*
D78*
X556284Y-172400D02*
D03*
X576383Y-289100D02*
D03*
X572784Y-185300D02*
D03*
X445583Y-232100D02*
D03*
X447084Y-194300D02*
D03*
X254600Y-149800D02*
D03*
X187400Y-196200D02*
D03*
X324200Y-192200D02*
D03*
X345800Y-25800D02*
D03*
X265000Y-19400D02*
D03*
X229000Y-249000D02*
D03*
X242000Y-244000D02*
D03*
X257000Y-186000D02*
D03*
X187000Y-248000D02*
D03*
X200000Y-175000D02*
D03*
X61000Y-187000D02*
D03*
X82000Y-196000D02*
D03*
D79*
X467227Y-252457D02*
D03*
X455016Y-154868D02*
D03*
X501684Y-308000D02*
D03*
X580216Y-214468D02*
D03*
X564984Y-190220D02*
D03*
D80*
X452352Y-225000D02*
D03*
D81*
X458740Y-170343D02*
D03*
X368500Y-39500D02*
D03*
X225000Y-32500D02*
D03*
X317768Y-23732D02*
D03*
X371500Y-67500D02*
D03*
X363000Y-76000D02*
D03*
D82*
X128200Y-99400D02*
D03*
X395400Y-73000D02*
D03*
X344657Y-40543D02*
D03*
X157949Y-187850D02*
D03*
X156200Y-185800D02*
D03*
X201800Y-212200D02*
D03*
X221800Y-217800D02*
D03*
X221000Y-230600D02*
D03*
X209425Y-231775D02*
D03*
X212575Y-245375D02*
D03*
X218347Y-259653D02*
D03*
X200200Y-265800D02*
D03*
X201000Y-254600D02*
D03*
X217000Y-253000D02*
D03*
X213800Y-239400D02*
D03*
X262600Y-211400D02*
D03*
Y-225000D02*
D03*
X210425Y-225625D02*
D03*
X204200Y-210600D02*
D03*
X156200Y-145000D02*
D03*
X265000Y-59400D02*
D03*
X267400Y-64200D02*
D03*
Y-41800D02*
D03*
X265000Y-37000D02*
D03*
X244150Y-46550D02*
D03*
X245650Y-48350D02*
D03*
X290110Y-65490D02*
D03*
X247200Y-50400D02*
D03*
X249000Y-52200D02*
D03*
X343400Y-122600D02*
D03*
Y-97000D02*
D03*
X340200Y-128200D02*
D03*
Y-97000D02*
D03*
X318600Y-46600D02*
D03*
X319977Y-44423D02*
D03*
X319400Y-161800D02*
D03*
X347400Y-221000D02*
D03*
X337800Y-97000D02*
D03*
X345800Y-232200D02*
D03*
X334600Y-97000D02*
D03*
X343400Y-240200D02*
D03*
X331400Y-97000D02*
D03*
X341800Y-242600D02*
D03*
X329000Y-97800D02*
D03*
X325000D02*
D03*
X309000Y-99400D02*
D03*
X305858Y-100258D02*
D03*
X303400Y-135400D02*
D03*
X301000Y-157800D02*
D03*
X298584Y-165000D02*
D03*
X291400Y-136200D02*
D03*
X112200Y-197800D02*
D03*
X113000Y-188200D02*
D03*
X162600Y-105000D02*
D03*
X130600Y-214600D02*
D03*
X132200Y-185800D02*
D03*
X160200Y-103400D02*
D03*
X217800Y-120200D02*
D03*
X219400Y-107400D02*
D03*
X321000Y-65800D02*
D03*
X313000Y-108200D02*
D03*
X278950Y-91858D02*
D03*
X159400Y-101000D02*
D03*
X125000Y-106600D02*
D03*
X92233Y-227000D02*
D03*
X96200Y-97000D02*
D03*
X93800Y-95400D02*
D03*
X92200Y-93000D02*
D03*
X283400Y-153000D02*
D03*
X280047Y-80047D02*
D03*
X302600Y-113800D02*
D03*
X300200Y-114600D02*
D03*
X298600Y-117000D02*
D03*
X293800Y-113800D02*
D03*
X291400Y-112200D02*
D03*
X332500Y-249000D02*
D03*
D83*
X293000Y-232000D02*
D03*
X272100Y-300605D02*
D03*
X271000Y-305500D02*
D03*
X280500Y-228500D02*
D03*
X283000Y-219000D02*
D03*
X391500Y-135500D02*
D03*
X277600Y-210938D02*
D03*
X270500Y-210500D02*
D03*
X265500Y-189000D02*
D03*
X235000Y-187000D02*
D03*
D84*
X131000Y-47000D02*
D03*
X130000Y-64000D02*
D03*
X236000Y-37909D02*
D03*
X95400Y-237800D02*
D03*
X140113Y-193087D02*
D03*
X179400Y-297800D02*
D03*
X368200Y-269800D02*
D03*
D85*
X110000Y-74000D02*
D03*
X187000Y-73500D02*
D03*
X165500Y-74000D02*
D03*
D86*
X215724Y-266347D02*
D03*
X212575D02*
D03*
X209425D02*
D03*
X206276D02*
D03*
X215724Y-259653D02*
D03*
X212575D02*
D03*
X209425D02*
D03*
X206276D02*
D03*
X216724Y-222346D02*
D03*
X213575D02*
D03*
X210425D02*
D03*
X207276D02*
D03*
X216724Y-215653D02*
D03*
X213575D02*
D03*
X210425D02*
D03*
X207276D02*
D03*
D87*
X549303Y-192326D02*
D03*
D88*
X548283Y-178545D02*
D03*
D89*
Y-205281D02*
D03*
D90*
X451784Y-207000D02*
D03*
D91*
X442033D02*
D03*
M02*
