%FSLAX25Y25*%
%MOIN*%
G70*
G01*
G75*
G04 Layer_Color=16711935*
%ADD10R,0.07874X0.03150*%
%ADD11R,0.08465X0.11221*%
%ADD12R,0.06693X0.06693*%
%ADD13R,0.04134X0.02362*%
%ADD14R,0.05512X0.04724*%
%ADD15R,0.09921X0.13425*%
%ADD16O,0.05709X0.02362*%
%ADD17R,0.07284X0.16339*%
%ADD18O,0.00984X0.06102*%
%ADD19O,0.06102X0.00984*%
%ADD20R,0.09449X0.07087*%
%ADD21R,0.04724X0.05512*%
%ADD22R,0.05512X0.02362*%
%ADD23R,0.07087X0.02362*%
G04:AMPARAMS|DCode=24|XSize=74.8mil|YSize=125.98mil|CornerRadius=0mil|HoleSize=0mil|Usage=FLASHONLY|Rotation=90.000|XOffset=0mil|YOffset=0mil|HoleType=Round|Shape=Octagon|*
%AMOCTAGOND24*
4,1,8,-0.06299,-0.01870,-0.06299,0.01870,-0.04429,0.03740,0.04429,0.03740,0.06299,0.01870,0.06299,-0.01870,0.04429,-0.03740,-0.04429,-0.03740,-0.06299,-0.01870,0.0*
%
%ADD24OCTAGOND24*%

%ADD25R,0.21654X0.09843*%
%ADD26C,0.01000*%
%ADD27C,0.02000*%
%ADD28C,0.05906*%
%ADD29R,0.05906X0.05906*%
%ADD30O,0.06299X0.03937*%
%ADD31C,0.07874*%
%ADD32C,0.06299*%
%ADD33C,0.09000*%
%ADD34C,0.01969*%
%ADD35C,0.01600*%
%ADD36C,0.03000*%
%ADD37R,0.12598X0.20472*%
%ADD38C,0.00984*%
%ADD39C,0.02362*%
%ADD40C,0.00800*%
%ADD41C,0.00787*%
%ADD42C,0.00600*%
%ADD43R,0.08674X0.03950*%
%ADD44R,0.09265X0.12020*%
%ADD45R,0.07493X0.07493*%
%ADD46R,0.04934X0.03162*%
%ADD47R,0.06312X0.05524*%
%ADD48R,0.10721X0.14225*%
%ADD49O,0.06509X0.03162*%
%ADD50R,0.08083X0.17139*%
%ADD51O,0.01784X0.06902*%
%ADD52O,0.06902X0.01784*%
%ADD53R,0.10249X0.07887*%
%ADD54R,0.05524X0.06312*%
%ADD55R,0.06312X0.03162*%
%ADD56R,0.07887X0.03162*%
G04:AMPARAMS|DCode=57|XSize=82.8mil|YSize=133.98mil|CornerRadius=0mil|HoleSize=0mil|Usage=FLASHONLY|Rotation=90.000|XOffset=0mil|YOffset=0mil|HoleType=Round|Shape=Octagon|*
%AMOCTAGOND57*
4,1,8,-0.06699,-0.02070,-0.06699,0.02070,-0.04629,0.04140,0.04629,0.04140,0.06699,0.02070,0.06699,-0.02070,0.04629,-0.04140,-0.04629,-0.04140,-0.06699,-0.02070,0.0*
%
%ADD57OCTAGOND57*%

%ADD58R,0.22453X0.10642*%
%ADD59C,0.06706*%
%ADD60R,0.06706X0.06706*%
%ADD61O,0.07099X0.04737*%
%ADD62C,0.08674*%
%ADD63C,0.07099*%
%ADD64C,0.09800*%
%ADD65C,0.00100*%
D26*
X96747Y216000D02*
X172500D01*
X0D02*
X72553D01*
X166500Y218000D02*
X172500Y216000D01*
X166500Y214000D02*
X172500Y216000D01*
X0D02*
X6000Y214000D01*
X0Y216000D02*
X6000Y218000D01*
X-38400Y0D02*
Y80003D01*
Y102197D02*
Y185400D01*
Y0D02*
X-36400Y6000D01*
X-40400D02*
X-38400Y0D01*
X-40400Y179400D02*
X-38400Y185400D01*
X-36400Y179400D01*
D42*
X0Y0D02*
X172500D01*
Y185000D01*
X0D02*
X172500D01*
X0Y0D02*
Y185000D01*
X77152Y212401D02*
Y218399D01*
X74153Y215400D01*
X78152D01*
X80151Y212401D02*
Y213401D01*
X81151D01*
Y212401D01*
X80151D01*
X85150Y217399D02*
X86150Y218399D01*
X88149D01*
X89148Y217399D01*
Y216400D01*
X88149Y215400D01*
X87149D01*
X88149D01*
X89148Y214400D01*
Y213401D01*
X88149Y212401D01*
X86150D01*
X85150Y213401D01*
X91148Y217399D02*
X92148Y218399D01*
X94147D01*
X95147Y217399D01*
Y216400D01*
X94147Y215400D01*
X95147Y214400D01*
Y213401D01*
X94147Y212401D01*
X92148D01*
X91148Y213401D01*
Y214400D01*
X92148Y215400D01*
X91148Y216400D01*
Y217399D01*
X92148Y215400D02*
X94147D01*
X-34801Y84602D02*
X-40799D01*
X-37800Y81603D01*
Y85602D01*
X-34801Y87601D02*
X-35801D01*
Y88601D01*
X-34801D01*
Y87601D01*
X-40799Y92599D02*
Y96598D01*
X-39799D01*
X-35801Y92599D01*
X-34801D01*
Y98598D02*
Y100597D01*
Y99597D01*
X-40799D01*
X-39799Y98598D01*
D65*
X172500Y185100D02*
Y217000D01*
X0Y185400D02*
Y217000D01*
X-39400Y0D02*
X-400D01*
X-39400Y185400D02*
X0D01*
M02*
