M48
;Layer_Color=9474304
;FILE_FORMAT=2:5
INCH,LZ
;TYPE=PLATED
T1F00S00C0.00787
T2F00S00C0.00800
T3F00S00C0.01500
T4F00S00C0.03150
T5F00S00C0.03543
T6F00S00C0.03937
T7F00S00C0.04724
T8F00S00C0.06299
%
T01
X0055335Y0013169
Y00175
Y0021831
X0059665
Y00175
Y0013169
T02
X00424Y0036
X00688Y00368
X00664Y00312
X0072Y0032
X00744Y00296
X00888Y00304
X00968Y00208
X01Y00376
X0109143Y00464
X00928Y0052
X01336Y0056
X01328Y00632
Y00744
X01304Y0076
X01392Y00896
X0139257Y0113543
X01232Y00992
X01208Y009977
X0108Y01032
X0096Y01008
X00888Y01032
X0075242Y0106227
X0065827Y01096
X00608Y01075
X00648Y00952
X00624Y00928
Y00888
X0068747Y0081653
X00712Y0084
X0067291Y00776
X00672Y00752
X0064Y00704
X00704Y00688
X0076Y00664
X00744Y00768
X00592Y0076
X0095053Y00648
X01075Y00605
X01525Y0059581
X01592Y014
X0127326Y0152126
X01272Y016
X0088944Y0158256
X00925Y01453
X004155Y014885
Y015765
X003092Y015548
Y013868
X00384Y01296
X0042693Y01136
X0052047Y0120047
X0044Y00928
X0033821Y0092579
X0035115Y0094679
X0034743Y0070057
X00488Y00712
X004811Y007634
X00456Y00768
X00504Y00776
X0050857Y00608
T03
X00416Y0012
X0041257Y0017257
X00424Y00312
X0032Y00536
X00536
X00808Y0052221
X00924Y0035486
X0092Y00224
X00896Y00112
X00724Y00152
X0072Y002
X00715Y00075
X0104Y0024
X01136Y00512
X0126132Y0051732
X0136072Y00712
X00936Y00744
X00256Y01424
T04
X01425Y0042028
X0145Y006
Y0064921
Y0069842
Y0074764
Y0079685
Y0084606
Y0089528
T05
X01125Y0009409
Y0025
X01096Y00912
X00996
X00896
X00796
X00372Y00744
X00272
X00172
X00072
T06
X01425Y00125
Y0022343
Y0032185
T07
X0035Y00475
X0165
Y007309
X0045Y00575
X0025
T08
X0005Y00125
X01675
Y0175
X0005
M30
