%FSLAX25Y25*%
%MOIN*%
G70*
G01*
G75*
G04 Layer_Color=8388736*
%ADD10R,0.07874X0.03937*%
%ADD11R,0.04724X0.05512*%
G04:AMPARAMS|DCode=12|XSize=9.84mil|YSize=61.02mil|CornerRadius=0mil|HoleSize=0mil|Usage=FLASHONLY|Rotation=225.000|XOffset=0mil|YOffset=0mil|HoleType=Round|Shape=Round|*
%AMOVALD12*
21,1,0.05118,0.00984,0.00000,0.00000,315.0*
1,1,0.00984,-0.01810,0.01810*
1,1,0.00984,0.01810,-0.01810*
%
%ADD12OVALD12*%

G04:AMPARAMS|DCode=13|XSize=9.84mil|YSize=61.02mil|CornerRadius=0mil|HoleSize=0mil|Usage=FLASHONLY|Rotation=135.000|XOffset=0mil|YOffset=0mil|HoleType=Round|Shape=Round|*
%AMOVALD13*
21,1,0.05118,0.00984,0.00000,0.00000,225.0*
1,1,0.00984,0.01810,0.01810*
1,1,0.00984,-0.01810,-0.01810*
%
%ADD13OVALD13*%

%ADD14R,0.09449X0.03937*%
%ADD15R,0.09449X0.12992*%
%ADD16R,0.07087X0.03543*%
%ADD17R,0.23228X0.21654*%
%ADD18R,0.06693X0.06693*%
%ADD19R,0.20276X0.09252*%
%ADD20R,0.07992X0.08976*%
G04:AMPARAMS|DCode=21|XSize=11.81mil|YSize=59.06mil|CornerRadius=2.95mil|HoleSize=0mil|Usage=FLASHONLY|Rotation=0.000|XOffset=0mil|YOffset=0mil|HoleType=Round|Shape=RoundedRectangle|*
%AMROUNDEDRECTD21*
21,1,0.01181,0.05315,0,0,0.0*
21,1,0.00591,0.05906,0,0,0.0*
1,1,0.00591,0.00295,-0.02658*
1,1,0.00591,-0.00295,-0.02658*
1,1,0.00591,-0.00295,0.02658*
1,1,0.00591,0.00295,0.02658*
%
%ADD21ROUNDEDRECTD21*%
G04:AMPARAMS|DCode=22|XSize=11.81mil|YSize=59.06mil|CornerRadius=2.95mil|HoleSize=0mil|Usage=FLASHONLY|Rotation=90.000|XOffset=0mil|YOffset=0mil|HoleType=Round|Shape=RoundedRectangle|*
%AMROUNDEDRECTD22*
21,1,0.01181,0.05315,0,0,90.0*
21,1,0.00591,0.05906,0,0,90.0*
1,1,0.00591,0.02658,0.00295*
1,1,0.00591,0.02658,-0.00295*
1,1,0.00591,-0.02658,-0.00295*
1,1,0.00591,-0.02658,0.00295*
%
%ADD22ROUNDEDRECTD22*%
%ADD23R,0.03937X0.11417*%
%ADD24R,0.40945X0.31496*%
%ADD25R,0.05512X0.04724*%
%ADD26O,0.09843X0.02756*%
%ADD27O,0.08858X0.02362*%
%ADD28R,0.02362X0.04528*%
%ADD29R,0.08465X0.11221*%
%ADD30R,0.04528X0.02362*%
%ADD31R,0.06693X0.06693*%
%ADD32R,0.09252X0.20276*%
%ADD33R,0.11221X0.08465*%
%ADD34R,0.19685X0.31496*%
%ADD35C,0.02000*%
%ADD36C,0.02500*%
%ADD37C,0.01000*%
%ADD38C,0.01500*%
%ADD39C,0.10000*%
%ADD40C,0.05000*%
%ADD41C,0.06299*%
%ADD42C,0.05906*%
%ADD43C,0.06000*%
%ADD44C,0.10000*%
%ADD45C,0.06693*%
%ADD46C,0.09000*%
%ADD47C,0.11000*%
%ADD48C,0.15748*%
%ADD49C,0.11811*%
%ADD50R,0.05906X0.05906*%
%ADD51C,0.07874*%
%ADD52R,0.05906X0.05906*%
%ADD53O,0.07874X0.03937*%
%ADD54O,0.07874X0.03937*%
%ADD55R,0.07874X0.07874*%
%ADD56R,0.07284X0.07284*%
%ADD57C,0.07284*%
%ADD58C,0.00100*%
%ADD59C,0.05000*%
%ADD60C,0.01800*%
%ADD61C,0.02000*%
%ADD62C,0.08000*%
%ADD63C,0.03800*%
%ADD64C,0.03500*%
%ADD65C,0.04000*%
%ADD66C,0.12000*%
%ADD67C,0.00500*%
%ADD68C,0.00984*%
%ADD69C,0.02362*%
%ADD70C,0.00787*%
%ADD71C,0.00800*%
%ADD72R,0.08674X0.04737*%
%ADD73R,0.05524X0.06312*%
G04:AMPARAMS|DCode=74|XSize=17.84mil|YSize=69.02mil|CornerRadius=0mil|HoleSize=0mil|Usage=FLASHONLY|Rotation=225.000|XOffset=0mil|YOffset=0mil|HoleType=Round|Shape=Round|*
%AMOVALD74*
21,1,0.05118,0.01784,0.00000,0.00000,315.0*
1,1,0.01784,-0.01810,0.01810*
1,1,0.01784,0.01810,-0.01810*
%
%ADD74OVALD74*%

G04:AMPARAMS|DCode=75|XSize=17.84mil|YSize=69.02mil|CornerRadius=0mil|HoleSize=0mil|Usage=FLASHONLY|Rotation=135.000|XOffset=0mil|YOffset=0mil|HoleType=Round|Shape=Round|*
%AMOVALD75*
21,1,0.05118,0.01784,0.00000,0.00000,225.0*
1,1,0.01784,0.01810,0.01810*
1,1,0.01784,-0.01810,-0.01810*
%
%ADD75OVALD75*%

%ADD76R,0.10249X0.04737*%
%ADD77R,0.10249X0.13792*%
%ADD78R,0.07887X0.04343*%
%ADD79R,0.24028X0.22453*%
%ADD80R,0.07493X0.07493*%
%ADD81R,0.21076X0.10052*%
%ADD82R,0.08792X0.09776*%
G04:AMPARAMS|DCode=83|XSize=19.81mil|YSize=67.06mil|CornerRadius=6.95mil|HoleSize=0mil|Usage=FLASHONLY|Rotation=0.000|XOffset=0mil|YOffset=0mil|HoleType=Round|Shape=RoundedRectangle|*
%AMROUNDEDRECTD83*
21,1,0.01981,0.05315,0,0,0.0*
21,1,0.00591,0.06706,0,0,0.0*
1,1,0.01391,0.00295,-0.02658*
1,1,0.01391,-0.00295,-0.02658*
1,1,0.01391,-0.00295,0.02658*
1,1,0.01391,0.00295,0.02658*
%
%ADD83ROUNDEDRECTD83*%
G04:AMPARAMS|DCode=84|XSize=19.81mil|YSize=67.06mil|CornerRadius=6.95mil|HoleSize=0mil|Usage=FLASHONLY|Rotation=90.000|XOffset=0mil|YOffset=0mil|HoleType=Round|Shape=RoundedRectangle|*
%AMROUNDEDRECTD84*
21,1,0.01981,0.05315,0,0,90.0*
21,1,0.00591,0.06706,0,0,90.0*
1,1,0.01391,0.02658,0.00295*
1,1,0.01391,0.02658,-0.00295*
1,1,0.01391,-0.02658,-0.00295*
1,1,0.01391,-0.02658,0.00295*
%
%ADD84ROUNDEDRECTD84*%
%ADD85R,0.04737X0.12217*%
%ADD86R,0.41745X0.32296*%
%ADD87R,0.06312X0.05524*%
%ADD88O,0.10642X0.03556*%
%ADD89O,0.09658X0.03162*%
%ADD90R,0.03162X0.05328*%
%ADD91R,0.09265X0.12020*%
%ADD92R,0.05328X0.03162*%
%ADD93R,0.07493X0.07493*%
%ADD94R,0.10052X0.21076*%
%ADD95R,0.12020X0.09265*%
%ADD96R,0.20485X0.32296*%
%ADD97C,0.07099*%
%ADD98C,0.06706*%
%ADD99C,0.06800*%
%ADD100C,0.10800*%
%ADD101C,0.07493*%
%ADD102C,0.09800*%
%ADD103C,0.11800*%
%ADD104C,0.16548*%
%ADD105C,0.12611*%
%ADD106R,0.06706X0.06706*%
%ADD107C,0.08674*%
%ADD108R,0.06706X0.06706*%
%ADD109O,0.08674X0.04737*%
%ADD110O,0.08674X0.04737*%
%ADD111R,0.08674X0.08674*%
%ADD112R,0.08083X0.08083*%
%ADD113C,0.08083*%
%ADD114C,0.00900*%
%ADD115C,0.00800*%
%ADD116C,0.05800*%
%ADD117C,0.02600*%
%ADD118C,0.02800*%
%ADD119C,0.08800*%
%ADD120C,0.04600*%
%ADD121C,0.04300*%
%ADD122C,0.04800*%
%ADD123C,0.12800*%
D72*
X305000Y320000D02*
D03*
Y312126D02*
D03*
Y304252D02*
D03*
Y296378D02*
D03*
Y288504D02*
D03*
Y280630D02*
D03*
Y272756D02*
D03*
Y264882D02*
D03*
X367992D02*
D03*
Y272756D02*
D03*
Y280630D02*
D03*
Y288504D02*
D03*
Y296378D02*
D03*
Y304252D02*
D03*
Y312126D02*
D03*
Y320000D02*
D03*
D73*
X338543Y170000D02*
D03*
X331457D02*
D03*
X338543Y160000D02*
D03*
X331457D02*
D03*
X337943Y130400D02*
D03*
X330857D02*
D03*
X338543Y150000D02*
D03*
X331457D02*
D03*
X141457Y85000D02*
D03*
X148543D02*
D03*
X148543Y95000D02*
D03*
X141457D02*
D03*
X148543Y105000D02*
D03*
X141457D02*
D03*
X141457Y115000D02*
D03*
X148543D02*
D03*
X148543Y125000D02*
D03*
X141457D02*
D03*
D74*
X234941Y144179D02*
D03*
X236333Y145571D02*
D03*
X237725Y146963D02*
D03*
X239117Y148355D02*
D03*
X240509Y149747D02*
D03*
X241901Y151139D02*
D03*
X243293Y152531D02*
D03*
X244685Y153923D02*
D03*
X246077Y155315D02*
D03*
X247469Y156707D02*
D03*
X248861Y158099D02*
D03*
X250253Y159491D02*
D03*
X251645Y160883D02*
D03*
X253037Y162275D02*
D03*
X254429Y163667D02*
D03*
X255820Y165059D02*
D03*
X225059Y195820D02*
D03*
X223667Y194429D02*
D03*
X222275Y193037D02*
D03*
X220883Y191645D02*
D03*
X219491Y190253D02*
D03*
X218099Y188861D02*
D03*
X216707Y187469D02*
D03*
X215315Y186077D02*
D03*
X213923Y184685D02*
D03*
X212531Y183293D02*
D03*
X211139Y181901D02*
D03*
X209747Y180509D02*
D03*
X208355Y179117D02*
D03*
X206963Y177725D02*
D03*
X205571Y176333D02*
D03*
X204180Y174941D02*
D03*
D75*
X255820D02*
D03*
X254429Y176333D02*
D03*
X253037Y177725D02*
D03*
X251645Y179117D02*
D03*
X250253Y180509D02*
D03*
X248861Y181901D02*
D03*
X247469Y183293D02*
D03*
X246077Y184685D02*
D03*
X244685Y186077D02*
D03*
X243293Y187469D02*
D03*
X241901Y188861D02*
D03*
X240509Y190253D02*
D03*
X239117Y191645D02*
D03*
X237725Y193037D02*
D03*
X236333Y194429D02*
D03*
X234941Y195820D02*
D03*
X204180Y165059D02*
D03*
X205571Y163667D02*
D03*
X206963Y162275D02*
D03*
X208355Y160883D02*
D03*
X209747Y159491D02*
D03*
X211139Y158099D02*
D03*
X212531Y156707D02*
D03*
X213923Y155315D02*
D03*
X215315Y153923D02*
D03*
X216707Y152531D02*
D03*
X218099Y151139D02*
D03*
X219491Y149747D02*
D03*
X220883Y148355D02*
D03*
X222275Y146963D02*
D03*
X223667Y145571D02*
D03*
X225059Y144179D02*
D03*
D76*
X161417Y320945D02*
D03*
Y330000D02*
D03*
Y339055D02*
D03*
D77*
X138583Y330000D02*
D03*
D78*
X97913Y86024D02*
D03*
Y103976D02*
D03*
Y116024D02*
D03*
Y133976D02*
D03*
Y221024D02*
D03*
Y238976D02*
D03*
Y191024D02*
D03*
Y208976D02*
D03*
D79*
X69961Y95000D02*
D03*
Y125000D02*
D03*
Y230000D02*
D03*
Y200000D02*
D03*
D80*
X45000Y241850D02*
D03*
Y228150D02*
D03*
X130000Y131850D02*
D03*
Y118150D02*
D03*
X115000Y153150D02*
D03*
Y166850D02*
D03*
D81*
X64252Y165000D02*
D03*
X95748D02*
D03*
D82*
X114094Y329921D02*
D03*
X94095D02*
D03*
D83*
X265158Y202795D02*
D03*
X273031D02*
D03*
X271063D02*
D03*
X269094D02*
D03*
X267126D02*
D03*
X273031Y215394D02*
D03*
X271063D02*
D03*
X269094D02*
D03*
X265158D02*
D03*
X267126D02*
D03*
D84*
X275787Y207126D02*
D03*
Y211063D02*
D03*
Y209095D02*
D03*
X262795Y207126D02*
D03*
Y209095D02*
D03*
Y211063D02*
D03*
D85*
X118386Y308425D02*
D03*
X111693D02*
D03*
X105000D02*
D03*
X98307D02*
D03*
X91614D02*
D03*
D86*
X105000Y271614D02*
D03*
D87*
X263200Y105943D02*
D03*
Y98857D02*
D03*
X253600Y105943D02*
D03*
Y98857D02*
D03*
X350000Y226457D02*
D03*
Y233543D02*
D03*
X195000Y68543D02*
D03*
Y61457D02*
D03*
X338976Y241732D02*
D03*
Y234646D02*
D03*
X175000Y191457D02*
D03*
Y198543D02*
D03*
X287008Y208268D02*
D03*
Y215354D02*
D03*
X185000Y318543D02*
D03*
Y311457D02*
D03*
X260000Y236457D02*
D03*
Y243543D02*
D03*
X270000Y236457D02*
D03*
Y243543D02*
D03*
X290000Y328543D02*
D03*
Y321457D02*
D03*
X75000Y318543D02*
D03*
Y311457D02*
D03*
X175000Y311457D02*
D03*
Y318543D02*
D03*
X75000Y331457D02*
D03*
Y338543D02*
D03*
X125591Y161417D02*
D03*
Y168504D02*
D03*
D88*
X175354Y112500D02*
D03*
Y107500D02*
D03*
Y102500D02*
D03*
Y97500D02*
D03*
X194646Y112500D02*
D03*
Y107500D02*
D03*
Y102500D02*
D03*
Y97500D02*
D03*
D89*
X183780Y232500D02*
D03*
Y227500D02*
D03*
Y222500D02*
D03*
Y217500D02*
D03*
X206221Y232500D02*
D03*
Y227500D02*
D03*
Y222500D02*
D03*
Y217500D02*
D03*
D90*
X111260Y120571D02*
D03*
X118740D02*
D03*
X115000Y129429D02*
D03*
X106260Y225571D02*
D03*
X113740D02*
D03*
X110000Y234429D02*
D03*
X111260Y90571D02*
D03*
X118740D02*
D03*
X115000Y99429D02*
D03*
X106260Y195571D02*
D03*
X113740D02*
D03*
X110000Y204429D02*
D03*
D91*
X200000Y311732D02*
D03*
Y328268D02*
D03*
D92*
X274429Y321260D02*
D03*
Y328740D02*
D03*
X265571Y325000D02*
D03*
D93*
X143150Y310000D02*
D03*
X156850D02*
D03*
D94*
X150000Y259252D02*
D03*
Y290748D02*
D03*
D95*
X306732Y240000D02*
D03*
X323268D02*
D03*
D96*
X190000Y275000D02*
D03*
X221496D02*
D03*
D97*
X460567Y34370D02*
D03*
Y44370D02*
D03*
X460567Y73740D02*
D03*
Y83740D02*
D03*
Y113110D02*
D03*
Y123110D02*
D03*
X393638Y157480D02*
D03*
Y147638D02*
D03*
Y137795D02*
D03*
X20000Y230157D02*
D03*
Y240000D02*
D03*
X129842Y15000D02*
D03*
X120000D02*
D03*
X179685D02*
D03*
X169843D02*
D03*
X160000D02*
D03*
X139685Y50000D02*
D03*
X129842D02*
D03*
X120000D02*
D03*
X224685Y15000D02*
D03*
X214843D02*
D03*
X205000D02*
D03*
D98*
X393638Y167323D02*
D03*
Y177165D02*
D03*
Y187008D02*
D03*
Y196850D02*
D03*
X280000Y125000D02*
D03*
X290000D02*
D03*
X300000D02*
D03*
X280000Y110000D02*
D03*
X290000D02*
D03*
X300000D02*
D03*
X215000Y50000D02*
D03*
X225000D02*
D03*
X235000D02*
D03*
X205000Y80000D02*
D03*
X215000D02*
D03*
X225000D02*
D03*
X235000D02*
D03*
X355000Y100000D02*
D03*
Y110000D02*
D03*
Y120000D02*
D03*
Y130000D02*
D03*
Y150000D02*
D03*
Y160000D02*
D03*
Y140000D02*
D03*
Y170000D02*
D03*
Y180000D02*
D03*
Y190000D02*
D03*
Y200000D02*
D03*
X149528Y50000D02*
D03*
X159370D02*
D03*
X169213D02*
D03*
X179055D02*
D03*
X255000Y320000D02*
D03*
Y330000D02*
D03*
X225000Y320000D02*
D03*
D99*
X472378Y198661D02*
D03*
X422378Y178661D02*
D03*
Y198661D02*
D03*
X472378Y178661D02*
D03*
Y273465D02*
D03*
X422378Y253465D02*
D03*
Y273465D02*
D03*
X472378Y253465D02*
D03*
D100*
X397575Y295276D02*
D03*
Y19685D02*
D03*
X444819Y149606D02*
D03*
X476315Y19685D02*
D03*
Y295276D02*
D03*
X40000Y45000D02*
D03*
Y75000D02*
D03*
D101*
X253729Y130529D02*
D03*
X267871Y144671D02*
D03*
D102*
X35000Y120000D02*
D03*
Y104409D02*
D03*
D103*
X30000Y160591D02*
D03*
Y145000D02*
D03*
X95000Y38543D02*
D03*
X79409D02*
D03*
X63819D02*
D03*
X30000Y205591D02*
D03*
Y190000D02*
D03*
D104*
X50000Y317402D02*
D03*
Y280000D02*
D03*
D105*
X277055Y32055D02*
D03*
X302945Y57945D02*
D03*
X277055D02*
D03*
X271693Y45000D02*
D03*
X302945Y32055D02*
D03*
X308307Y45000D02*
D03*
D106*
X310000Y125000D02*
D03*
Y110000D02*
D03*
X225000Y330000D02*
D03*
D107*
X365000Y245590D02*
D03*
Y220000D02*
D03*
X255039Y280000D02*
D03*
D108*
X205000Y50000D02*
D03*
D109*
X160000Y200000D02*
D03*
Y190000D02*
D03*
D110*
Y195000D02*
D03*
D111*
X284961Y280000D02*
D03*
D112*
X75000Y285000D02*
D03*
D113*
Y265000D02*
D03*
D114*
X157480Y236221D02*
D03*
X314961Y196850D02*
D03*
X330709Y82677D02*
D03*
D115*
X23622Y11811D02*
D03*
D116*
X123063Y62800D02*
D03*
X125591Y305512D02*
D03*
X98819Y299213D02*
D03*
X132087Y241339D02*
D03*
X230709Y107480D02*
D03*
X122778Y100315D02*
D03*
X207480Y41732D02*
D03*
X123228Y78740D02*
D03*
D117*
X82400Y66400D02*
D03*
X132800Y71200D02*
D03*
X107229Y234429D02*
D03*
X107571Y204429D02*
D03*
X114400Y89600D02*
D03*
X111771Y99429D02*
D03*
X111371Y129429D02*
D03*
X284657Y321457D02*
D03*
X225600Y165600D02*
D03*
X273600Y114400D02*
D03*
X248800D02*
D03*
X237600Y117600D02*
D03*
X232000Y168000D02*
D03*
X295200Y231200D02*
D03*
X292800Y162400D02*
D03*
Y150400D02*
D03*
X287200D02*
D03*
X281600Y152800D02*
D03*
X244800Y116800D02*
D03*
Y101600D02*
D03*
X225600Y100800D02*
D03*
X242400Y119200D02*
D03*
Y97600D02*
D03*
X216800Y96800D02*
D03*
X209600Y62400D02*
D03*
X236800Y93600D02*
D03*
X240000Y121600D02*
D03*
X317600Y180000D02*
D03*
X298400Y153600D02*
D03*
X284000Y155200D02*
D03*
X298400Y156800D02*
D03*
X281600Y157600D02*
D03*
X298000Y159600D02*
D03*
X283600D02*
D03*
X257600Y167200D02*
D03*
X268800Y161600D02*
D03*
X137600Y119200D02*
D03*
Y135200D02*
D03*
X215200Y142400D02*
D03*
X260000Y307200D02*
D03*
X264800D02*
D03*
X260000Y180000D02*
D03*
X320000Y130400D02*
D03*
X242519Y212681D02*
D03*
X262400Y232000D02*
D03*
X196800Y158400D02*
D03*
X222892Y184493D02*
D03*
X198400Y160800D02*
D03*
X217600Y178400D02*
D03*
X238400Y239200D02*
D03*
X212800D02*
D03*
X208000Y189600D02*
D03*
X240800Y244000D02*
D03*
X210400Y241600D02*
D03*
X205840Y187200D02*
D03*
X132800Y180800D02*
D03*
X137600D02*
D03*
X300800Y168000D02*
D03*
X212000Y141600D02*
D03*
X205600Y153600D02*
D03*
X200800D02*
D03*
X203200Y155200D02*
D03*
X137600Y151200D02*
D03*
X152000Y147200D02*
D03*
X140000Y148800D02*
D03*
X311102Y304252D02*
D03*
X126378Y155512D02*
D03*
X117587Y200787D02*
D03*
X120895Y129600D02*
D03*
X124016Y152756D02*
D03*
Y138189D02*
D03*
X123228Y57874D02*
D03*
X101181D02*
D03*
X107677Y125000D02*
D03*
X107480Y114567D02*
D03*
X168504Y324803D02*
D03*
X115748Y118652D02*
D03*
X90400Y56844D02*
D03*
X90551Y43307D02*
D03*
X225000Y227756D02*
D03*
X245669Y173228D02*
D03*
Y166929D02*
D03*
X236614Y156693D02*
D03*
X214567Y174016D02*
D03*
X208268Y171653D02*
D03*
X182165Y198543D02*
D03*
X229921Y127559D02*
D03*
X235000Y110669D02*
D03*
X247638Y107874D02*
D03*
X268898D02*
D03*
X269291Y177953D02*
D03*
X108829Y225571D02*
D03*
X272000Y221600D02*
D03*
X280000D02*
D03*
X257600Y208800D02*
D03*
X254398Y157200D02*
D03*
X248800Y173600D02*
D03*
X262400Y215200D02*
D03*
X256000Y218400D02*
D03*
X362400Y272441D02*
D03*
X163200Y132000D02*
D03*
X118740Y78060D02*
D03*
X119200Y72800D02*
D03*
X164000Y82400D02*
D03*
X163200Y225600D02*
D03*
X145000Y110000D02*
D03*
X110000Y195000D02*
D03*
X234414Y185414D02*
D03*
X237000Y183000D02*
D03*
X81000Y55000D02*
D03*
X235000Y168000D02*
D03*
D118*
X197105Y155200D02*
D03*
X173600Y144000D02*
D03*
X162400Y145600D02*
D03*
X117717Y215883D02*
D03*
X164000Y38400D02*
D03*
X164500Y30500D02*
D03*
D119*
X95787Y152756D02*
D03*
X46063Y215748D02*
D03*
X96000Y141000D02*
D03*
Y202000D02*
D03*
X97913Y246087D02*
D03*
X85425Y308425D02*
D03*
X104000Y326000D02*
D03*
D120*
X319764Y320000D02*
D03*
D121*
X316929Y258268D02*
D03*
X309600Y252000D02*
D03*
X323200Y272800D02*
D03*
X362200Y265000D02*
D03*
X286400Y232800D02*
D03*
X205600Y268000D02*
D03*
X243000Y26000D02*
D03*
X153000Y104000D02*
D03*
X155000Y96000D02*
D03*
X245000Y62000D02*
D03*
D122*
X196000Y225000D02*
D03*
X185000Y161000D02*
D03*
X219000Y138000D02*
D03*
Y120000D02*
D03*
X276800Y192800D02*
D03*
X253600Y191200D02*
D03*
X238400Y201600D02*
D03*
X226400Y210400D02*
D03*
X335000Y109000D02*
D03*
D123*
X98000Y96000D02*
D03*
M02*
