M48
;Layer_Color=9474304
;FILE_FORMAT=2:5
INCH,TZ
;TYPE=PLATED
T1F00S00C0.01000
T2F00S00C0.02000
T3F00S00C0.02500
T4F00S00C0.03000
T5F00S00C0.03150
T6F00S00C0.03543
T7F00S00C0.03937
T8F00S00C0.04331
T9F00S00C0.04724
T10F00S00C0.05000
T11F00S00C0.05906
T12F00S00C0.07000
T13F00S00C0.07874
T14F00S00C0.08000
T15F00S00C0.08661
T16F00S00C0.12598
%
T01
X209600Y62400
X216800Y96800
X225600Y100800
X236800Y93600
X242400Y97600
X244800Y101600
X247638Y107874
X248800Y114400
X244800Y116800
X242400Y119200
X240000Y121600
X237600Y117600
X235000Y110669
X229921Y127559
X215200Y142400
X212000Y141600
X205600Y153600
X203200Y155200
X200800Y153600
X197105Y155200
X196800Y158400
X198400Y160800
X173600Y144000
X236614Y156693
X254398Y157200
X268800Y161600
X281600Y157600
X283600Y159600
X284000Y155200
X281600Y152800
X287200Y150400
X292800
X298400Y153600
Y156800
X298000Y159600
X292800Y162400
X320000Y130400
X273600Y114400
X268898Y107874
X145000Y110000
X137600Y119200
Y135200
Y151200
X140000Y148800
X152000Y147200
X162400Y145600
X163200Y132000
X120895Y129600
X111371Y129429
X107677Y125000
X107480Y114567
X115748Y118652
X111771Y99429
X114400Y89600
X118740Y78060
X119200Y72800
X132800Y71200
X123228Y57874
X101181
X90400Y56844
X81000Y55000
X82400Y66400
X90551Y43307
X164000Y38400
X164500Y30500
X164000Y82400
X124016Y138189
Y152756
X126378Y155512
X132800Y180800
X137600
X117587Y200787
X110000Y195000
X107571Y204429
X117717Y215883
X108829Y225571
X107229Y234429
X163200Y225600
X182165Y198543
X208000Y189600
X205840Y187200
X208268Y171653
X214567Y174016
X217600Y178400
X222892Y184493
X234414Y185414
X237000Y183000
X235000Y168000
X232000
X225600Y165600
X245669Y166929
Y173228
X248800Y173600
X257600Y167200
X260000Y180000
X269291Y177953
X300800Y168000
X317600Y180000
X295200Y231200
X280000Y221600
X272000
X262400Y215200
X256000Y218400
X257600Y208800
X242519Y212681
X238400Y239200
X240800Y244000
X225000Y227756
X212800Y239200
X210400Y241600
X262400Y232000
X260000Y307200
X264800
X311102Y304252
X362400Y272441
X284657Y321457
X168504Y324803
T02
X335000Y109000
X219000Y120000
Y138000
X185000Y161000
X245000Y62000
X243000Y26000
X155000Y96000
X153000Y104000
X196000Y225000
X226400Y210400
X238400Y201600
X253600Y191200
X276800Y192800
X286400Y232800
X309600Y252000
X316929Y258268
X323200Y272800
X205600Y268000
X362200Y265000
X319764Y320000
T03
X207480Y41732
X230709Y107480
X122778Y100315
X123228Y78740
X123063Y62800
X132087Y241339
X125591Y305512
X98819Y299213
T04
X255039Y280000
X284961
T05
X355000Y100000
Y110000
Y120000
Y130000
Y140000
Y150000
Y160000
X460567Y123110
Y113110
Y83740
Y73740
X460567Y44370
Y34370
X179055Y50000
X169213
X159370
X149528
X355000Y170000
Y180000
Y190000
Y200000
X393638Y196850
Y187008
Y177165
Y167323
T06
X205000Y50000
X215000
X225000
X235000
Y80000
X225000
X215000
X205000
X280000Y110000
X290000
X300000
X310000
Y125000
X300000
X290000
X280000
X35000Y120000
Y104409
X160000Y190000
Y195000
Y200000
X225000Y320000
Y330000
X255000
Y320000
T07
X393638Y137795
Y147638
Y157480
X267871Y144671
X253729Y130529
X224685Y15000
X214843
X205000
X179685
X169843
X160000
X129842
X120000
Y50000
X129842
X139685
X20000Y230157
Y240000
X422378Y253465
Y273465
X472378
Y253465
Y198661
Y178661
X422378
Y198661
T08
X75000Y265000
Y285000
T09
X365000Y220000
Y245590
T10
X96000Y141000
X95787Y152756
X96000Y202000
X97913Y246087
X85425Y308425
X46063Y215748
X104000Y326000
T11
X277055Y32055
X271693Y45000
X277055Y57945
X302945
X308307Y45000
X302945Y32055
X40000Y45000
Y75000
T12
X63819Y38543
X79409
X95000
X30000Y145000
Y160591
Y190000
Y205591
T13
X50000Y280000
Y317402
T14
X98000Y96000
T15
X330709Y82677
X23622Y11811
X157480Y236221
X314961Y196850
T16
X397575Y19685
X476315
X444819Y149606
X476315Y295276
X397575
M30
