%FSTAX25Y25*%
%MOIN*%
G70*
G01*
G75*
G04 Layer_Color=32768*
%ADD10R,0.04724X0.05512*%
%ADD11R,0.35039X0.41929*%
%ADD12R,0.09449X0.04134*%
%ADD13R,0.05512X0.04724*%
%ADD14R,0.08465X0.11221*%
%ADD15O,0.01181X0.05709*%
%ADD16O,0.05709X0.01181*%
%ADD17C,0.01000*%
%ADD18C,0.01500*%
%ADD19C,0.03000*%
%ADD20C,0.02000*%
%ADD21C,0.11811*%
%ADD22C,0.11000*%
%ADD23C,0.06693*%
%ADD24O,0.03937X0.07874*%
%ADD25O,0.03937X0.07874*%
%ADD26C,0.07874*%
%ADD27R,0.04724X0.04724*%
%ADD28C,0.04724*%
%ADD29C,0.15748*%
%ADD30C,0.05906*%
%ADD31R,0.05906X0.05906*%
%ADD32R,0.07874X0.07874*%
%ADD33R,0.05906X0.05906*%
%ADD34O,0.30000X0.15000*%
%ADD35C,0.06299*%
%ADD36C,0.05000*%
%ADD37C,0.04000*%
%ADD38C,0.02756*%
%ADD39R,0.02362X0.03347*%
%ADD40R,0.03347X0.02362*%
%ADD41R,0.06693X0.06693*%
%ADD42R,0.06693X0.06693*%
%ADD43C,0.05000*%
%ADD44C,0.10000*%
%ADD45C,0.00984*%
%ADD46C,0.00787*%
%ADD47C,0.02362*%
%ADD48R,0.05524X0.06312*%
%ADD49R,0.35839X0.42729*%
%ADD50R,0.10249X0.04934*%
%ADD51R,0.06312X0.05524*%
%ADD52R,0.09265X0.12020*%
%ADD53O,0.01981X0.06509*%
%ADD54O,0.06509X0.01981*%
%ADD55C,0.12611*%
%ADD56C,0.11800*%
%ADD57C,0.07493*%
%ADD58O,0.04737X0.08674*%
%ADD59O,0.04737X0.08674*%
%ADD60C,0.08674*%
%ADD61R,0.05524X0.05524*%
%ADD62C,0.05524*%
%ADD63C,0.16548*%
%ADD64C,0.06706*%
%ADD65R,0.06706X0.06706*%
%ADD66R,0.08674X0.08674*%
%ADD67R,0.06706X0.06706*%
%ADD68O,0.30800X0.15800*%
%ADD69C,0.07099*%
%ADD70C,0.05800*%
%ADD71C,0.04800*%
%ADD72C,0.03556*%
%ADD73R,0.03162X0.04147*%
%ADD74R,0.04147X0.03162*%
%ADD75R,0.07493X0.07493*%
%ADD76R,0.07493X0.07493*%
%ADD77C,0.00100*%
%ADD78C,0.00394*%
%ADD79C,0.00197*%
D78*
X0403346Y007626D02*
Y008374D01*
X0389567Y007626D02*
Y008374D01*
X0403346D01*
X0389567Y007626D02*
X0403346D01*
X0394488Y008D02*
X0398425D01*
X0396457Y0078031D02*
Y0081968D01*
X012661Y002326D02*
Y003074D01*
X014039Y002326D02*
Y003074D01*
X012661D02*
X014039D01*
X012661Y002326D02*
X014039D01*
X0131531Y0027D02*
X0135468D01*
X01335Y0025032D02*
Y0028969D01*
X010211Y002326D02*
Y003074D01*
X011589Y002326D02*
Y003074D01*
X010211D02*
X011589D01*
X010211Y002326D02*
X011589D01*
X0107031Y0027D02*
X0110968D01*
X0109Y0025032D02*
Y0028969D01*
X007711Y002326D02*
Y003074D01*
X009089Y002326D02*
Y003074D01*
X007711D02*
X009089D01*
X007711Y002326D02*
X009089D01*
X0082031Y0027D02*
X0085969D01*
X0084Y0025032D02*
Y0028969D01*
X033311Y005576D02*
Y006324D01*
X034689Y005576D02*
Y006324D01*
X033311Y005576D02*
X034689D01*
X033311Y006324D02*
X034689D01*
X0338031Y00595D02*
X0341968D01*
X034Y0057532D02*
Y0061469D01*
X027811Y005576D02*
Y006324D01*
X029189Y005576D02*
Y006324D01*
X027811Y005576D02*
X029189D01*
X027811Y006324D02*
X029189D01*
X0283031Y00595D02*
X0286968D01*
X0285Y0057532D02*
Y0061469D01*
X038561Y012776D02*
Y013524D01*
X039939Y012776D02*
Y013524D01*
X038561D02*
X039939D01*
X038561Y012776D02*
X039939D01*
X0390531Y01315D02*
X0394468D01*
X03925Y0129532D02*
Y0133468D01*
X016776Y003261D02*
X017524D01*
X016776Y004639D02*
X017524D01*
Y003261D02*
Y004639D01*
X016776Y003261D02*
Y004639D01*
X01715Y0037532D02*
Y0041469D01*
X0169532Y00395D02*
X0173468D01*
X015876Y003261D02*
X016624D01*
X015876Y004639D02*
X016624D01*
Y003261D02*
Y004639D01*
X015876Y003261D02*
Y004639D01*
X01625Y0037532D02*
Y0041469D01*
X0160531Y00395D02*
X0164468D01*
X01365Y0047532D02*
Y0051468D01*
X0134531Y00495D02*
X0138469D01*
X0476Y0311031D02*
Y0314968D01*
X0474031Y0313D02*
X0477969D01*
X044352Y029115D02*
X050848D01*
X044352Y033485D02*
X050848D01*
Y029115D02*
Y033485D01*
X044352Y029115D02*
Y033485D01*
X012861Y012976D02*
Y013724D01*
X014239Y012976D02*
Y013724D01*
X012861Y012976D02*
X014239D01*
X012861Y013724D02*
X014239D01*
X0133531Y01335D02*
X0137469D01*
X01355Y0131531D02*
Y0135468D01*
X018776Y003261D02*
X019524D01*
X018776Y004639D02*
X019524D01*
Y003261D02*
Y004639D01*
X018776Y003261D02*
Y004639D01*
X01915Y0037532D02*
Y0041469D01*
X0189532Y00395D02*
X0193468D01*
X020776Y003261D02*
X021524D01*
X020776Y004639D02*
X021524D01*
Y003261D02*
Y004639D01*
X020776Y003261D02*
Y004639D01*
X02115Y0037532D02*
Y0041469D01*
X0209531Y00395D02*
X0213468D01*
X011689Y004626D02*
Y005374D01*
X010311Y004626D02*
Y005374D01*
Y004626D02*
X011689D01*
X010311Y005374D02*
X011689D01*
X0108031Y005D02*
X0111969D01*
X011Y0048031D02*
Y0051968D01*
X033639Y013176D02*
Y013924D01*
X032261Y013176D02*
Y013924D01*
Y013176D02*
X033639D01*
X032261Y013924D02*
X033639D01*
X0327531Y01355D02*
X0331468D01*
X03295Y0133531D02*
Y0137468D01*
X0128626Y0141701D02*
X0141224D01*
X0128626Y0154299D02*
X0141224D01*
Y0141701D02*
Y0154299D01*
X0128626Y0141701D02*
Y0154299D01*
X0134925Y0146031D02*
Y0149969D01*
X0132957Y0148D02*
X0136894D01*
X0401256Y0058701D02*
Y0071299D01*
X0388657Y0058701D02*
Y0071299D01*
X0401256D01*
X0388657Y0058701D02*
X0401256D01*
X0392988Y0065D02*
X0396925D01*
X0394957Y0063032D02*
Y0066969D01*
X0278701Y0068201D02*
Y0080799D01*
X0291299Y0068201D02*
Y0080799D01*
X0278701Y0068201D02*
X0291299D01*
X0278701Y0080799D02*
X0291299D01*
X0283031Y00745D02*
X0286968D01*
X0285Y0072531D02*
Y0076469D01*
X0333701Y0068201D02*
Y0080799D01*
X0346299Y0068201D02*
Y0080799D01*
X0333701Y0068201D02*
X0346299D01*
X0333701Y0080799D02*
X0346299D01*
X0338031Y00745D02*
X0341968D01*
X034Y0072531D02*
Y0076469D01*
X014526Y006561D02*
X015274D01*
X014526Y007939D02*
X015274D01*
X014526Y006561D02*
Y007939D01*
X015274Y006561D02*
Y007939D01*
X0149Y0070532D02*
Y0074469D01*
X0147031Y00725D02*
X0150968D01*
X014526Y010439D02*
X015274D01*
X014526Y009061D02*
X015274D01*
Y010439D01*
X014526Y009061D02*
Y010439D01*
X0149Y0095531D02*
Y0099469D01*
X0147031Y00975D02*
X0150969D01*
X018926Y012011D02*
X019674D01*
X018926Y013389D02*
X019674D01*
X018926Y012011D02*
Y013389D01*
X019674Y012011D02*
Y013389D01*
X0193Y0125031D02*
Y0128969D01*
X0191032Y0127D02*
X0194968D01*
X017876Y003261D02*
X018624D01*
X017876Y004639D02*
X018624D01*
Y003261D02*
Y004639D01*
X017876Y003261D02*
Y004639D01*
X01825Y0037532D02*
Y0041469D01*
X0180531Y00395D02*
X0184468D01*
X019876Y003261D02*
X020624D01*
X019876Y004639D02*
X020624D01*
Y003261D02*
Y004639D01*
X019876Y003261D02*
Y004639D01*
X02025Y0037532D02*
Y0041469D01*
X0200531Y00395D02*
X0204468D01*
X046389Y021426D02*
Y022174D01*
X045011Y021426D02*
Y022174D01*
Y021426D02*
X046389D01*
X045011Y022174D02*
X046389D01*
X0455031Y0218D02*
X0458968D01*
X0457Y0216031D02*
Y0219968D01*
X0482531Y01885D02*
X0486469D01*
X04845Y0186531D02*
Y0190469D01*
X047811Y021426D02*
Y022174D01*
X049189Y021426D02*
Y022174D01*
X047811D02*
X049189D01*
X047811Y021426D02*
X049189D01*
X0483032Y0218D02*
X0486969D01*
X0485Y0216032D02*
Y0219969D01*
X0456531Y01885D02*
X0460468D01*
X04585Y0186531D02*
Y0190469D01*
X021Y0098032D02*
Y0101969D01*
X0208032Y01D02*
X0211968D01*
X003376Y002211D02*
X004124D01*
X003376Y003589D02*
X004124D01*
Y002211D02*
Y003589D01*
X003376Y002211D02*
Y003589D01*
X00375Y0027031D02*
Y0030968D01*
X0035531Y0029D02*
X0039468D01*
X004276Y003589D02*
X005024D01*
X004276Y002211D02*
X005024D01*
X004276D02*
Y003589D01*
X005024Y002211D02*
Y003589D01*
X00465Y0027031D02*
Y0030968D01*
X0044532Y0029D02*
X0048469D01*
D79*
X0496311Y0170587D02*
Y0206413D01*
X0472689Y0170587D02*
Y0206413D01*
X0496311D01*
X0472689Y0170587D02*
X0496311D01*
X0470311D02*
Y0206413D01*
X0446689Y0170587D02*
Y0206413D01*
X0470311D01*
X0446689Y0170587D02*
X0470311D01*
X0189528Y0079528D02*
X0230472D01*
X0189528Y0120472D02*
X0230472D01*
Y0079528D02*
Y0120472D01*
X0189528Y0079528D02*
Y0120472D01*
M02*
