%FSTAX25Y25*%
%MOIN*%
G70*
G01*
G75*
G04 Layer_Color=255*
%ADD10R,0.04724X0.05512*%
%ADD11R,0.35039X0.41929*%
%ADD12R,0.09449X0.04134*%
%ADD13R,0.05512X0.04724*%
%ADD14R,0.08465X0.11221*%
%ADD15O,0.01181X0.05709*%
%ADD16O,0.05709X0.01181*%
%ADD17C,0.01000*%
%ADD18C,0.01500*%
%ADD19C,0.03000*%
%ADD20C,0.02000*%
%ADD21C,0.11811*%
%ADD22C,0.11000*%
%ADD23C,0.06693*%
%ADD24O,0.03937X0.07874*%
%ADD25O,0.03937X0.07874*%
%ADD26C,0.07874*%
%ADD27R,0.04724X0.04724*%
%ADD28C,0.04724*%
%ADD29C,0.15748*%
%ADD30C,0.05906*%
%ADD31R,0.05906X0.05906*%
%ADD32R,0.07874X0.07874*%
%ADD33R,0.05906X0.05906*%
%ADD34O,0.30000X0.15000*%
%ADD35C,0.06299*%
%ADD36C,0.05000*%
%ADD37C,0.04000*%
%ADD38C,0.02756*%
%ADD39R,0.02362X0.03347*%
%ADD40R,0.03347X0.02362*%
%ADD41R,0.06693X0.06693*%
%ADD42R,0.06693X0.06693*%
%ADD43C,0.05000*%
%ADD44C,0.10000*%
D10*
X04Y008D02*
D03*
X0392913D02*
D03*
X0336457Y00595D02*
D03*
X0343543D02*
D03*
X0281457D02*
D03*
X0288543D02*
D03*
X0131957Y01335D02*
D03*
X0139043D02*
D03*
D13*
X01715Y0035957D02*
D03*
Y0043043D02*
D03*
X01625Y0035957D02*
D03*
Y0043043D02*
D03*
X01915Y0035957D02*
D03*
Y0043043D02*
D03*
X02115Y0035957D02*
D03*
Y0043043D02*
D03*
X01825Y0035957D02*
D03*
Y0043043D02*
D03*
X02025Y0035957D02*
D03*
Y0043043D02*
D03*
X00375Y0025457D02*
D03*
Y0032543D02*
D03*
X00465Y0032543D02*
D03*
Y0025457D02*
D03*
D21*
X0284Y016D02*
D03*
X047Y0148307D02*
D03*
X0482945Y0142945D02*
D03*
X047Y0111693D02*
D03*
X0457055Y0117055D02*
D03*
Y0142945D02*
D03*
X0482945Y0117055D02*
D03*
X0015Y001D02*
D03*
X05Y001D02*
D03*
X0048Y0362D02*
D03*
D22*
X0485Y0265591D02*
D03*
Y025D02*
D03*
X004Y0234409D02*
D03*
Y025D02*
D03*
X0163228Y002D02*
D03*
X0178819D02*
D03*
X0194409D02*
D03*
X021D02*
D03*
X0243228D02*
D03*
X0258819D02*
D03*
X027441D02*
D03*
X029D02*
D03*
X032441D02*
D03*
X034D02*
D03*
X037441D02*
D03*
X039D02*
D03*
D23*
X0164Y0095D02*
D03*
Y0075D02*
D03*
D24*
X01315Y00495D02*
D03*
X01415D02*
D03*
D25*
X01365D02*
D03*
D26*
X0034409Y001D02*
D03*
X006D02*
D03*
X0410917Y0078D02*
D03*
X0163488Y0143D02*
D03*
X0155614Y0119378D02*
D03*
Y0166622D02*
D03*
X0107583Y0119378D02*
D03*
Y0166622D02*
D03*
D27*
X03875Y01475D02*
D03*
D28*
X03975D02*
D03*
X04075D02*
D03*
D29*
X0055Y0155D02*
D03*
Y0192402D02*
D03*
Y0327401D02*
D03*
Y029D02*
D03*
D30*
X005Y01D02*
D03*
Y007D02*
D03*
Y008D02*
D03*
Y009D02*
D03*
X022Y015D02*
D03*
X023D02*
D03*
X024D02*
D03*
X0325Y015D02*
D03*
X03025Y00645D02*
D03*
Y00745D02*
D03*
Y01145D02*
D03*
X02725D02*
D03*
Y00745D02*
D03*
Y00645D02*
D03*
X03575D02*
D03*
Y00745D02*
D03*
Y01145D02*
D03*
X03275D02*
D03*
Y00745D02*
D03*
Y00645D02*
D03*
X0127Y0015D02*
D03*
X0102D02*
D03*
X0079D02*
D03*
X0198Y0161D02*
D03*
D31*
X025Y015D02*
D03*
X0335Y015D02*
D03*
X0137Y0015D02*
D03*
X0112D02*
D03*
X0089D02*
D03*
D32*
X0380996Y0078D02*
D03*
D33*
X0198Y0151D02*
D03*
D34*
X048Y0362D02*
D03*
D35*
X0435843Y002D02*
D03*
X0426D02*
D03*
X0416157D02*
D03*
X0479843D02*
D03*
X047D02*
D03*
X0460157D02*
D03*
D39*
X0138665Y0143768D02*
D03*
X0131185D02*
D03*
X0134925Y0152232D02*
D03*
D40*
X0399189Y006874D02*
D03*
Y006126D02*
D03*
X0390724Y0065D02*
D03*
X0280768Y007076D02*
D03*
Y007824D02*
D03*
X0289232Y00745D02*
D03*
X0335768Y007076D02*
D03*
Y007824D02*
D03*
X0344232Y00745D02*
D03*
D41*
X0154Y014735D02*
D03*
Y013365D02*
D03*
D42*
X028935Y00945D02*
D03*
X027565D02*
D03*
X034435Y00945D02*
D03*
X033065D02*
D03*
M02*
