%FSTAX25Y25*%
%MOIN*%
G70*
G01*
G75*
G04 Layer_Physical_Order=2*
G04 Layer_Color=16711680*
%ADD10R,0.04724X0.05512*%
%ADD11R,0.35039X0.41929*%
%ADD12R,0.09449X0.04134*%
%ADD13R,0.05512X0.04724*%
%ADD14R,0.08465X0.11221*%
%ADD15O,0.01181X0.05709*%
%ADD16O,0.05709X0.01181*%
%ADD17C,0.01000*%
%ADD18C,0.01500*%
%ADD19C,0.03000*%
%ADD20C,0.02000*%
%ADD21C,0.11811*%
%ADD22C,0.11000*%
%ADD23C,0.06693*%
%ADD24O,0.03937X0.07874*%
%ADD25O,0.03937X0.07874*%
%ADD26C,0.07874*%
%ADD27R,0.04724X0.04724*%
%ADD28C,0.04724*%
%ADD29C,0.15748*%
%ADD30C,0.05906*%
%ADD31R,0.05906X0.05906*%
%ADD32R,0.07874X0.07874*%
%ADD33R,0.05906X0.05906*%
%ADD34O,0.30000X0.15000*%
%ADD35C,0.06299*%
%ADD36C,0.05000*%
%ADD37C,0.04000*%
%ADD38C,0.02756*%
%ADD39R,0.02362X0.03347*%
%ADD40R,0.03347X0.02362*%
%ADD41R,0.06693X0.06693*%
%ADD42R,0.06693X0.06693*%
%ADD43C,0.05000*%
%ADD44C,0.10000*%
G36*
X051Y005D02*
X048315Y002315D01*
X0483018Y0023176D01*
X0480342Y0024284D01*
Y002D01*
X0479843D01*
Y00195D01*
X0475558D01*
X0476667Y0016824D01*
X0476693Y0016693D01*
X0465Y0005D01*
X006288D01*
X0062724Y0005785D01*
X0063779Y0006221D01*
X0065137Y00095D01*
X0054863D01*
X0056221Y0006221D01*
X0057276Y0005785D01*
X005712Y0005D01*
X0045D01*
X003884Y001116D01*
X0037882Y0013473D01*
X003557Y001443D01*
X0033191Y0016809D01*
Y0021524D01*
X0033744Y0022094D01*
X0033991Y0022095D01*
X0037D01*
Y0025457D01*
X00375D01*
Y0025957D01*
X0041256D01*
Y0028819D01*
X0040947D01*
Y0028819D01*
X0040856Y0029581D01*
X0040856Y0029619D01*
Y0031353D01*
X0043144D01*
Y0029581D01*
X0049856D01*
Y0031353D01*
X0069543D01*
X0070385Y0031701D01*
X0121677Y0082993D01*
X0122Y0082859D01*
X0123514Y0083486D01*
X0124141Y0085D01*
X0123514Y0086514D01*
X0122Y0087141D01*
X0120486Y0086514D01*
X0119859Y0085D01*
X0119993Y0084677D01*
X006905Y0033734D01*
X0049856D01*
Y0035506D01*
X0043144D01*
Y0033734D01*
X0040856D01*
Y0035506D01*
X0034144D01*
Y0033734D01*
X0033543D01*
X0032701Y0033385D01*
X0031158Y0031842D01*
X0030809Y0031D01*
Y0020236D01*
X003007Y001993D01*
X001Y004D01*
Y022D01*
X0085D01*
Y017D01*
X0101343D01*
X0101649Y0169261D01*
X009345Y0161061D01*
X0061661D01*
X0061486Y0161486D01*
X0055Y0164172D01*
X0048514Y0161486D01*
X0045828Y0155D01*
X0048514Y0148514D01*
X0055Y0145828D01*
X0061486Y0148514D01*
X0061661Y0148939D01*
X0095961D01*
X0100247Y0150714D01*
X0111869Y0162336D01*
X0113644Y0166622D01*
X011252Y0169335D01*
X0112965Y017D01*
X0151383D01*
X0151827Y0169335D01*
X0150703Y0166622D01*
X0152142Y0163149D01*
X0154153Y0162316D01*
Y0151297D01*
X0150054D01*
Y0148812D01*
X0148255D01*
X0143801Y0153266D01*
X0142768Y0153693D01*
X0142768Y0153693D01*
X0136706D01*
Y0154506D01*
X0133144D01*
Y0149959D01*
X0136706D01*
Y0150771D01*
X0142163D01*
X0146616Y0146317D01*
X014765Y0145889D01*
X014765Y0145889D01*
X0150054D01*
Y0143404D01*
X0157214D01*
X0157225Y0143404D01*
X0157225Y0143404D01*
X0157652Y0143404D01*
X0157847Y0143404D01*
X0157879D01*
X0157879D01*
X0157897Y0143393D01*
X0157938Y0143369D01*
X0157961Y0143356D01*
X0157966Y0143353D01*
X0158185Y0143227D01*
X0158722Y014265D01*
D01*
X0158722D01*
X0160016Y0139527D01*
X0163488Y0138089D01*
X0166961Y0139527D01*
X0167457Y0140727D01*
X0203059D01*
X0230893Y0112893D01*
X0230893Y0112893D01*
X0231363Y0112698D01*
X02325Y0112227D01*
X02325Y0112227D01*
X0258193D01*
X0259055Y011187D01*
X0259263Y0110947D01*
X0258158Y0109842D01*
X0257809Y0109D01*
Y0095493D01*
X0249323Y0087007D01*
X0249Y0087141D01*
X0247486Y0086514D01*
X0246859Y0085D01*
X0247486Y0083486D01*
X0249Y0082859D01*
X0250514Y0083486D01*
X0251141Y0085D01*
X0251007Y0085323D01*
X0259842Y0094158D01*
X0260191Y0095D01*
Y0108507D01*
X0268923Y0117239D01*
X0269601Y0116786D01*
X0268654Y01145D01*
X0269781Y0111781D01*
X02725Y0110655D01*
X0275219Y0111781D01*
X0276345Y01145D01*
X0275219Y0117219D01*
X02725Y0118345D01*
X0270214Y0117399D01*
X026976Y0118077D01*
X0281493Y0129809D01*
X0380352D01*
X0380486Y0129486D01*
X0382Y0128859D01*
X0383514Y0129486D01*
X0384141Y0131D01*
X0383514Y0132514D01*
X0382Y0133141D01*
X0380486Y0132514D01*
X0380352Y0132191D01*
X0281D01*
X0280158Y0131842D01*
X0263053Y0114737D01*
X026213Y0114945D01*
X026149Y011649D01*
X02595Y0117314D01*
X0258193Y0116773D01*
X0233441D01*
X0205607Y0144607D01*
X0204Y0145273D01*
X0167457D01*
X0166961Y0146472D01*
X0163488Y0147911D01*
X0160016Y0146472D01*
X0158746Y0143408D01*
X0158694Y0143419D01*
X0158574Y0143442D01*
X0158573Y0143443D01*
X0158573Y0143443D01*
D01*
X0158528Y0143452D01*
X0158207Y0143516D01*
X0158153Y0143526D01*
X0158152Y0143526D01*
X0158024Y0143552D01*
X0157961Y0143564D01*
X0157946Y0144101D01*
Y014414D01*
X0157946Y0144141D01*
X0157946Y0144176D01*
Y0151297D01*
X0157075D01*
Y0162316D01*
X0159087Y0163149D01*
X0160525Y0166622D01*
X0159401Y0169335D01*
X0159846Y017D01*
X0255D01*
X0285Y014D01*
X0315Y017D01*
X0445D01*
Y0365D01*
X0473481D01*
X0473926Y0364335D01*
X0472959Y0362D01*
X0475021Y0357021D01*
X048Y0354959D01*
X0484979Y0357021D01*
X0487042Y0362D01*
X0486074Y0364335D01*
X0486519Y0365D01*
X051D01*
Y005D01*
D02*
G37*
%LPC*%
G36*
X03575Y0068345D02*
X0354781Y0067219D01*
X0353655Y00645D01*
X0354781Y0061781D01*
X03575Y0060655D01*
X0360219Y0061781D01*
X0361345Y00645D01*
X0360219Y0067219D01*
X03575Y0068345D01*
D02*
G37*
G36*
X03025D02*
X0299781Y0067219D01*
X0298655Y00645D01*
X0299781Y0061781D01*
X03025Y0060655D01*
X0305219Y0061781D01*
X0306345Y00645D01*
X0305219Y0067219D01*
X03025Y0068345D01*
D02*
G37*
G36*
X0343Y0071141D02*
X0341486Y0070514D01*
X0340859Y0069D01*
X0341486Y0067486D01*
X0341809Y0067352D01*
Y0062856D01*
X0340581D01*
Y0056144D01*
X0346505D01*
Y0062856D01*
X0344191D01*
Y0067352D01*
X0344514Y0067486D01*
X0345141Y0069D01*
X0344514Y0070514D01*
X0343Y0071141D01*
D02*
G37*
G36*
X0410917Y0082911D02*
X0407445Y0081472D01*
X0406006Y0078D01*
X0407445Y0074528D01*
X0409456Y0073694D01*
Y0069523D01*
X0402655Y0062721D01*
X0401462D01*
Y0063041D01*
X0396916D01*
Y0059479D01*
X0401462D01*
Y0059799D01*
X040326D01*
X040326Y0059799D01*
X0404293Y0060227D01*
X0411951Y0067884D01*
X0411951Y0067884D01*
X0412076Y0068187D01*
X0412379Y0068917D01*
X0412379Y0068917D01*
Y0073694D01*
X041439Y0074528D01*
X0415828Y0078D01*
X041439Y0081472D01*
X0410917Y0082911D01*
D02*
G37*
G36*
X0390224Y0067181D02*
X0388051D01*
Y00655D01*
X0390224D01*
Y0067181D01*
D02*
G37*
G36*
X0393398Y00645D02*
X0391224D01*
Y0062819D01*
X0393398D01*
Y00645D01*
D02*
G37*
G36*
X0390224D02*
X0388051D01*
Y0062819D01*
X0390224D01*
Y00645D01*
D02*
G37*
G36*
X0338041Y0072541D02*
X0333494D01*
Y0068979D01*
X0334306D01*
Y0062856D01*
X0333494D01*
Y0056144D01*
X0339419D01*
Y0062856D01*
X0337229D01*
Y0068979D01*
X0338041D01*
Y0072541D01*
D02*
G37*
G36*
X0479343Y0024284D02*
X0476667Y0023176D01*
X0475558Y00205D01*
X0479343D01*
Y0024284D01*
D02*
G37*
G36*
X0374909Y0026828D02*
Y00205D01*
X0381238D01*
X0379384Y0024975D01*
X0374909Y0026828D01*
D02*
G37*
G36*
X0373909D02*
X0369435Y0024975D01*
X0367581Y00205D01*
X0373909D01*
Y0026828D01*
D02*
G37*
G36*
X0041256Y0024957D02*
X0038D01*
Y0022095D01*
X0041256D01*
Y0024957D01*
D02*
G37*
G36*
X0283041Y0072541D02*
X0278494D01*
Y0068979D01*
X0279306D01*
Y0062856D01*
X0278495D01*
Y0056144D01*
X0283071D01*
X0283416Y0055344D01*
X0282859Y0054D01*
X0283486Y0052486D01*
X0285Y0051859D01*
X0286514Y0052486D01*
X0287141Y0054D01*
X0287007Y0054323D01*
X0288828Y0056144D01*
X0291506D01*
Y0062856D01*
X0285581D01*
Y0056766D01*
X0285546Y0056729D01*
X0285203Y0056729D01*
X0284419Y0057514D01*
Y0062856D01*
X0282229D01*
Y0068979D01*
X0283041D01*
Y0072541D01*
D02*
G37*
G36*
X0142Y0054474D02*
Y005D01*
X0144713D01*
Y0051468D01*
X0143772Y005374D01*
X0142Y0054474D01*
D02*
G37*
G36*
X0217Y0040141D02*
X0215486Y0039514D01*
X0215448Y0039421D01*
X0214856Y0038919D01*
X0208144D01*
Y0037147D01*
X0205856D01*
Y0038919D01*
X0199626D01*
X0199144Y0038919D01*
X0198552Y0039421D01*
X0198552Y0039421D01*
X0198514Y0039514D01*
X0197Y0040141D01*
X0195486Y0039514D01*
X0195448Y0039421D01*
X0194856Y0038919D01*
X0188144D01*
Y0037147D01*
X0185856D01*
Y0038919D01*
X0179626D01*
X0179144Y0038919D01*
X0178552Y0039421D01*
X0178514Y0039514D01*
X0177Y0040141D01*
X0175486Y0039514D01*
X0175448Y0039421D01*
X0174856Y0038919D01*
X0168144D01*
Y0037147D01*
X0165856D01*
Y0038919D01*
X0159144D01*
Y0032994D01*
X0165856D01*
Y0034766D01*
X0168144D01*
Y0032994D01*
X0170039D01*
Y0027319D01*
X0170039Y0027319D01*
X0170467Y0026286D01*
X0173545Y0023208D01*
X0172216Y002D01*
X017415Y0015331D01*
X0178819Y0013397D01*
X0183488Y0015331D01*
X0185422Y002D01*
X0183488Y0024669D01*
X0178819Y0026603D01*
X0175611Y0025274D01*
X0172961Y0027924D01*
Y0032994D01*
X0174856D01*
Y0034766D01*
X0174957D01*
X0175799Y0035115D01*
X0176677Y0035993D01*
X0177Y0035859D01*
X0178344Y0036416D01*
X0179144Y0036071D01*
Y0032994D01*
X0185856D01*
Y0034766D01*
X0188144D01*
Y0032994D01*
X0190039D01*
Y00305D01*
X0190039Y00305D01*
X0190467Y0029467D01*
X0192948Y0026985D01*
Y0025997D01*
X0189741Y0024669D01*
X0187807Y002D01*
X0189741Y0015331D01*
X0194409Y0013397D01*
X0199078Y0015331D01*
X0201012Y002D01*
X0199078Y0024669D01*
X0195871Y0025997D01*
Y0027591D01*
X0195443Y0028624D01*
X0195443Y0028624D01*
X0192961Y0031105D01*
Y0032994D01*
X0194856D01*
Y0034766D01*
X0194957D01*
X0195799Y0035115D01*
X0196677Y0035993D01*
X0197Y0035859D01*
X0198344Y0036416D01*
X0199144Y0036071D01*
Y0032994D01*
X0205856D01*
Y0034766D01*
X0208144D01*
Y0032994D01*
X0210039D01*
Y0030105D01*
X0208967Y0029033D01*
X0208539Y0028D01*
X0208539Y0028D01*
Y0025997D01*
X0205331Y0024669D01*
X0203397Y002D01*
X0205331Y0015331D01*
X021Y0013397D01*
X0214669Y0015331D01*
X0216603Y002D01*
X0214669Y0024669D01*
X0211461Y0025997D01*
Y0027395D01*
X0212533Y0028467D01*
X0212533Y0028467D01*
X0212659Y0028769D01*
X0212961Y00295D01*
X0212961Y00295D01*
Y0032994D01*
X0214856D01*
Y0034766D01*
X0214957D01*
X0215798Y0035115D01*
X0216677Y0035993D01*
X0217Y0035859D01*
X0218514Y0036486D01*
X0219141Y0038D01*
X0218514Y0039514D01*
X0217Y0040141D01*
D02*
G37*
G36*
X0333008Y0082732D02*
X0324D01*
X0322775Y0082225D01*
X0317775Y0077225D01*
X0317268Y0076D01*
Y0049988D01*
X0316859Y0049D01*
X0317486Y0047486D01*
X0319Y0046859D01*
X0320514Y0047486D01*
X0321141Y0049D01*
X0320732Y0049988D01*
Y0075283D01*
X0324717Y0079268D01*
X0326592D01*
X0326751Y0078468D01*
X0324475Y0077525D01*
X0323429Y0075D01*
X0331571D01*
X0330525Y0077525D01*
X0328249Y0078468D01*
X0328408Y0079268D01*
X0332291D01*
X0333494Y0078064D01*
Y0076459D01*
X0338041D01*
Y0080021D01*
X0336436D01*
X0334232Y0082225D01*
X0333008Y0082732D01*
D02*
G37*
G36*
X005Y0083846D02*
X0047281Y0082719D01*
X0046154Y008D01*
X0047281Y0077281D01*
X005Y0076155D01*
X0052719Y0077281D01*
X0053846Y008D01*
X0052719Y0082719D01*
X005Y0083846D01*
D02*
G37*
G36*
X0164Y0079272D02*
X0160979Y0078021D01*
X0159728Y0075D01*
X0160979Y007198D01*
X0164Y0070728D01*
X016702Y007198D01*
X0168272Y0075D01*
X016702Y0078021D01*
X0164Y0079272D01*
D02*
G37*
G36*
X0391Y0089141D02*
X0389486Y0088514D01*
X0388859Y0087D01*
X0389486Y0085486D01*
X0391Y0084859D01*
X039104Y0084876D01*
X0391723Y0084347D01*
Y0083356D01*
X0389951D01*
Y0076644D01*
X0395876D01*
Y0083356D01*
X0394104D01*
Y0085087D01*
X0393755Y0085928D01*
X0393007Y0086677D01*
X0393141Y0087D01*
X0392514Y0088514D01*
X0391Y0089141D01*
D02*
G37*
G36*
X027515Y0094D02*
X0271303D01*
Y0090154D01*
X027515D01*
Y0094D01*
D02*
G37*
G36*
X0142006Y0136856D02*
X0136081D01*
Y0130144D01*
X0137853D01*
Y0121957D01*
X0138201Y0121115D01*
X0149158Y0110158D01*
X015Y0109809D01*
X0167507D01*
X0174809Y0102507D01*
Y0097D01*
X0175158Y0096158D01*
X0180158Y0091158D01*
X0181Y0090809D01*
X0184352D01*
X0184486Y0090486D01*
X0186Y0089859D01*
X0187514Y0090486D01*
X0188141Y0092D01*
X0187514Y0093514D01*
X0186Y0094141D01*
X0184486Y0093514D01*
X0184352Y0093191D01*
X0181493D01*
X0177191Y0097493D01*
Y0103D01*
X0176842Y0103842D01*
X0168842Y0111842D01*
X0168Y0112191D01*
X0150493D01*
X0140234Y012245D01*
Y0130144D01*
X0142006D01*
Y0136856D01*
D02*
G37*
G36*
X005Y0093845D02*
X0047281Y0092719D01*
X0046154Y009D01*
X0047281Y0087281D01*
X005Y0086155D01*
X0052719Y0087281D01*
X0053846Y009D01*
X0052719Y0092719D01*
X005Y0093845D01*
D02*
G37*
G36*
X0348297Y0098447D02*
X0340404D01*
Y0090554D01*
X0342771D01*
Y0076281D01*
X0341959D01*
Y0072719D01*
X0346505D01*
Y0073039D01*
X035426D01*
X0354781Y0071781D01*
X03575Y0070655D01*
X0360219Y0071781D01*
X0361345Y00745D01*
X0360219Y0077219D01*
X03575Y0078346D01*
X0354781Y0077219D01*
X035426Y0075961D01*
X0346505D01*
Y0076281D01*
X0345693D01*
Y0090554D01*
X0348297D01*
Y0098447D01*
D02*
G37*
G36*
X0402962Y0083356D02*
X0397038D01*
Y0076644D01*
X0398539D01*
Y0070521D01*
X0396916D01*
Y0066959D01*
X0401462D01*
Y0070521D01*
X0401461D01*
Y0076644D01*
X0402962D01*
Y0083356D01*
D02*
G37*
G36*
X005Y0073845D02*
X0047281Y0072719D01*
X0046154Y007D01*
X0047281Y0067281D01*
X005Y0066154D01*
X0052719Y0067281D01*
X0053846Y007D01*
X0052719Y0072719D01*
X005Y0073845D01*
D02*
G37*
G36*
X0393398Y0067181D02*
X0391224D01*
Y00655D01*
X0393398D01*
Y0067181D01*
D02*
G37*
G36*
X0276571Y0074D02*
X0273D01*
Y0070429D01*
X0275525Y0071475D01*
X0276571Y0074D01*
D02*
G37*
G36*
X0293297Y0098447D02*
X0285404D01*
Y0090554D01*
X0287771D01*
Y0076281D01*
X0286959D01*
Y0072719D01*
X0291506D01*
Y0073039D01*
X029926D01*
X0299781Y0071781D01*
X03025Y0070655D01*
X0305219Y0071781D01*
X0306345Y00745D01*
X0305219Y0077219D01*
X03025Y0078346D01*
X0299781Y0077219D01*
X029926Y0075961D01*
X0291506D01*
Y0076281D01*
X0290693D01*
Y0090554D01*
X0293297D01*
Y0098447D01*
D02*
G37*
G36*
X0331571Y0074D02*
X0328D01*
Y0070429D01*
X0330525Y0071475D01*
X0331571Y0074D01*
D02*
G37*
G36*
X0327D02*
X0323429D01*
X0324475Y0071475D01*
X0327Y0070429D01*
Y0074D01*
D02*
G37*
G36*
X0242728Y00195D02*
X02364D01*
X0238253Y0015025D01*
X0242728Y0013172D01*
Y00195D01*
D02*
G37*
G36*
X0170057D02*
X0163728D01*
Y0013172D01*
X0168203Y0015025D01*
X0170057Y00195D01*
D02*
G37*
G36*
X0162728D02*
X01564D01*
X0158254Y0015025D01*
X0162728Y0013172D01*
Y00195D01*
D02*
G37*
G36*
X0250057D02*
X0243728D01*
Y0013172D01*
X0248203Y0015025D01*
X0250057Y00195D01*
D02*
G37*
G36*
X0373909D02*
X0367581D01*
X0369435Y0015025D01*
X0373909Y0013172D01*
Y00195D01*
D02*
G37*
G36*
X0331238D02*
X0324909D01*
Y0013172D01*
X0329384Y0015025D01*
X0331238Y00195D01*
D02*
G37*
G36*
X0323909D02*
X0317581D01*
X0319435Y0015025D01*
X0323909Y0013172D01*
Y00195D01*
D02*
G37*
G36*
X0140553Y0018553D02*
X0133447D01*
Y0011447D01*
X0140553D01*
Y0018553D01*
D02*
G37*
G36*
X0079Y0018845D02*
X0076281Y0017719D01*
X0075155Y0015D01*
X0076281Y0012281D01*
X0079Y0011154D01*
X0081719Y0012281D01*
X0082845Y0015D01*
X0081719Y0017719D01*
X0079Y0018845D01*
D02*
G37*
G36*
X00605Y0015137D02*
Y00105D01*
X0065137D01*
X0063779Y0013779D01*
X00605Y0015137D01*
D02*
G37*
G36*
X00595D02*
X0056221Y0013779D01*
X0054863Y00105D01*
X00595D01*
Y0015137D01*
D02*
G37*
G36*
X0102Y0018845D02*
X0099281Y0017719D01*
X0098154Y0015D01*
X0099281Y0012281D01*
X0102Y0011154D01*
X0104719Y0012281D01*
X0105845Y0015D01*
X0104719Y0017719D01*
X0102Y0018845D01*
D02*
G37*
G36*
X0115553Y0018553D02*
X0108447D01*
Y0011447D01*
X0115553D01*
Y0018553D01*
D02*
G37*
G36*
X0092553D02*
X0085447D01*
Y0011447D01*
X0092553D01*
Y0018553D01*
D02*
G37*
G36*
X0127Y0018845D02*
X0124281Y0017719D01*
X0123154Y0015D01*
X0124281Y0012281D01*
X0127Y0011154D01*
X0129719Y0012281D01*
X0130845Y0015D01*
X0129719Y0017719D01*
X0127Y0018845D01*
D02*
G37*
G36*
X0163728Y0026828D02*
Y00205D01*
X0170057D01*
X0168203Y0024975D01*
X0163728Y0026828D01*
D02*
G37*
G36*
X0162728D02*
X0158254Y0024975D01*
X01564Y00205D01*
X0162728D01*
Y0026828D01*
D02*
G37*
G36*
X03575Y0118345D02*
X0354781Y0117219D01*
X0353655Y01145D01*
X0354781Y0111781D01*
X03575Y0110655D01*
X0357946Y0110839D01*
X0364727Y0104059D01*
Y0069157D01*
X0365393Y006755D01*
X0412346Y0020597D01*
X0412099Y002D01*
X0413288Y001713D01*
X0416157Y0015942D01*
X0419027Y001713D01*
X0420216Y002D01*
X0419969Y0020597D01*
X042228Y0022908D01*
X0422958Y0022455D01*
X0421942Y002D01*
X042313Y001713D01*
X0426Y0015942D01*
X042887Y001713D01*
X0430058Y002D01*
X042887Y002287D01*
X0426427Y0023882D01*
X0426408Y0024381D01*
X0427064Y0024727D01*
X043432D01*
X043448Y0023927D01*
X0432667Y0023176D01*
X0431558Y00205D01*
X0440127D01*
X0439018Y0023176D01*
X0437205Y0023927D01*
X0437364Y0024727D01*
X0452216D01*
X0456346Y0020597D01*
X0456099Y002D01*
X0457288Y001713D01*
X0460157Y0015942D01*
X0463027Y001713D01*
X0464216Y002D01*
X0463969Y0020597D01*
X046628Y0022908D01*
X0466958Y0022455D01*
X0465941Y002D01*
X046713Y001713D01*
X047Y0015942D01*
X047287Y001713D01*
X0474058Y002D01*
X047287Y002287D01*
X047Y0024058D01*
X0467545Y0023042D01*
X0467092Y002372D01*
X0478841Y0035469D01*
X0480147Y003601D01*
X0480972Y0038D01*
X0480147Y003999D01*
X0478158Y0040814D01*
X0476167Y003999D01*
X0475626Y0038683D01*
X0460754Y0023811D01*
X0460157Y0024058D01*
X0459561Y0023811D01*
X0454765Y0028607D01*
X0453158Y0029273D01*
X0423158D01*
X042155Y0028607D01*
X042155Y0028607D01*
X0416754Y0023811D01*
X0416157Y0024058D01*
X0415561Y0023811D01*
X0369273Y0070099D01*
Y0105D01*
X0368607Y0106607D01*
X0361161Y0114054D01*
X0361345Y01145D01*
X0360219Y0117219D01*
X03575Y0118345D01*
D02*
G37*
G36*
X0242728Y0026828D02*
X0238253Y0024975D01*
X02364Y00205D01*
X0242728D01*
Y0026828D01*
D02*
G37*
G36*
X0324909D02*
Y00205D01*
X0331238D01*
X0329384Y0024975D01*
X0324909Y0026828D01*
D02*
G37*
G36*
X0323909D02*
X0319435Y0024975D01*
X0317581Y00205D01*
X0323909D01*
Y0026828D01*
D02*
G37*
G36*
X0243728D02*
Y00205D01*
X0250057D01*
X0248203Y0024975D01*
X0243728Y0026828D01*
D02*
G37*
G36*
X0440127Y00195D02*
X0436342D01*
Y0015716D01*
X0439018Y0016824D01*
X0440127Y00195D01*
D02*
G37*
G36*
X027441Y0026603D02*
X0269741Y0024669D01*
X0267807Y002D01*
X0269741Y0015331D01*
X027441Y0013397D01*
X0279078Y0015331D01*
X0281012Y002D01*
X0279078Y0024669D01*
X027441Y0026603D01*
D02*
G37*
G36*
X0258819D02*
X025415Y0024669D01*
X0252216Y002D01*
X025415Y0015331D01*
X0258819Y0013397D01*
X0263488Y0015331D01*
X0265422Y002D01*
X0263488Y0024669D01*
X0258819Y0026603D01*
D02*
G37*
G36*
X0381238Y00195D02*
X0374909D01*
Y0013172D01*
X0379384Y0015025D01*
X0381238Y00195D01*
D02*
G37*
G36*
X029Y0026603D02*
X0285331Y0024669D01*
X0283397Y002D01*
X0285331Y0015331D01*
X029Y0013397D01*
X0294669Y0015331D01*
X0296603Y002D01*
X0294669Y0024669D01*
X029Y0026603D01*
D02*
G37*
G36*
X0435343Y00195D02*
X0431558D01*
X0432667Y0016824D01*
X0435343Y0015716D01*
Y00195D01*
D02*
G37*
G36*
X03275Y0068345D02*
X0324781Y0067219D01*
X0323655Y00645D01*
X0324145Y0063317D01*
Y00495D01*
X0325127Y0047127D01*
X0329627Y0042627D01*
X0332Y0041645D01*
X037361D01*
X0386645Y002861D01*
Y0025213D01*
X0385331Y0024669D01*
X0383397Y002D01*
X0385331Y0015331D01*
X039Y0013397D01*
X0394669Y0015331D01*
X0396603Y002D01*
X0394669Y0024669D01*
X0393355Y0025213D01*
Y003D01*
X0392373Y0032373D01*
X0377373Y0047373D01*
X0375Y0048355D01*
X033339D01*
X0330855Y005089D01*
Y0063317D01*
X0331345Y00645D01*
X0330219Y0067219D01*
X03275Y0068345D01*
D02*
G37*
G36*
X02725D02*
X0269781Y0067219D01*
X0268654Y00645D01*
X0269145Y0063317D01*
Y00485D01*
X0270127Y0046127D01*
X0281627Y0034627D01*
X0284Y0033645D01*
X033061D01*
X0336645Y002761D01*
Y0025213D01*
X0335331Y0024669D01*
X0333397Y002D01*
X0335331Y0015331D01*
X034Y0013397D01*
X0344669Y0015331D01*
X0346603Y002D01*
X0344669Y0024669D01*
X0343355Y0025213D01*
Y0029D01*
X0342373Y0031373D01*
X0334373Y0039373D01*
X0332Y0040355D01*
X028539D01*
X0275855Y004989D01*
Y0063317D01*
X0276345Y00645D01*
X0275219Y0067219D01*
X02725Y0068345D01*
D02*
G37*
G36*
X0397Y0150932D02*
X0394927Y0150073D01*
X0394068Y0148D01*
X0397D01*
Y0150932D01*
D02*
G37*
G36*
X0201553Y0154553D02*
X0194447D01*
Y0147447D01*
X0201553D01*
Y0154553D01*
D02*
G37*
G36*
X0253553Y0153553D02*
X0246447D01*
Y0146447D01*
X0253553D01*
Y0153553D01*
D02*
G37*
G36*
X0398Y0150932D02*
Y0148D01*
X0400932D01*
X0400073Y0150073D01*
X0398Y0150932D01*
D02*
G37*
G36*
X03255Y0154071D02*
Y01505D01*
X0329071D01*
X0328025Y0153025D01*
X03255Y0154071D01*
D02*
G37*
G36*
X03245D02*
X0321975Y0153025D01*
X0320929Y01505D01*
X03245D01*
Y0154071D01*
D02*
G37*
G36*
X04695Y0155575D02*
X0464715Y0153592D01*
X0462576Y0148428D01*
X0461786Y0148027D01*
X0457055Y0149987D01*
X0452076Y0147924D01*
X0450013Y0142945D01*
X0452076Y0137966D01*
X0457055Y0135904D01*
X0462034Y0137966D01*
X0463994Y0142698D01*
X0464583Y0142963D01*
X0464836Y0142972D01*
X04695Y014104D01*
Y0148307D01*
Y0155575D01*
D02*
G37*
G36*
X0338553Y0153553D02*
X0331447D01*
Y0146447D01*
X0338553D01*
Y0153553D01*
D02*
G37*
G36*
X0329071Y01495D02*
X03255D01*
Y0145929D01*
X0328025Y0146975D01*
X0329071Y01495D01*
D02*
G37*
G36*
X03245D02*
X0320929D01*
X0321975Y0146975D01*
X03245Y0145929D01*
Y01495D01*
D02*
G37*
G36*
X0390462Y0150462D02*
X0384538D01*
Y0144538D01*
X0390462D01*
Y0150462D01*
D02*
G37*
G36*
X02195Y01495D02*
X0215929D01*
X0216975Y0146975D01*
X02195Y0145929D01*
Y01495D01*
D02*
G37*
G36*
X024Y0153846D02*
X0237281Y0152719D01*
X0236155Y015D01*
X0237281Y0147281D01*
X024Y0146154D01*
X0242719Y0147281D01*
X0243846Y015D01*
X0242719Y0152719D01*
X024Y0153846D01*
D02*
G37*
G36*
X023D02*
X0227281Y0152719D01*
X0226154Y015D01*
X0227281Y0147281D01*
X023Y0146154D01*
X0232719Y0147281D01*
X0233845Y015D01*
X0232719Y0152719D01*
X023Y0153846D01*
D02*
G37*
G36*
X0224071Y01495D02*
X02205D01*
Y0145929D01*
X0223025Y0146975D01*
X0224071Y01495D01*
D02*
G37*
G36*
X0485Y0256603D02*
X0480331Y0254669D01*
X0478397Y025D01*
X0480331Y0245331D01*
X0485Y0243397D01*
X0489669Y0245331D01*
X0491603Y025D01*
X0489669Y0254669D01*
X0485Y0256603D01*
D02*
G37*
G36*
X00555Y02018D02*
Y0192902D01*
X0064398D01*
X0061792Y0199193D01*
X00555Y02018D01*
D02*
G37*
G36*
X00545D02*
X0048208Y0199193D01*
X0045602Y0192902D01*
X00545D01*
Y02018D01*
D02*
G37*
G36*
X04845Y026509D02*
X0478171D01*
X0480025Y0260616D01*
X04845Y0258762D01*
Y026509D01*
D02*
G37*
G36*
X04855Y0272419D02*
Y026609D01*
X0491828D01*
X0489975Y0270565D01*
X04855Y0272419D01*
D02*
G37*
G36*
X04845D02*
X0480025Y0270565D01*
X0478171Y026609D01*
X04845D01*
Y0272419D01*
D02*
G37*
G36*
X0491828Y026509D02*
X04855D01*
Y0258762D01*
X0489975Y0260616D01*
X0491828Y026509D01*
D02*
G37*
G36*
X0064398Y0191902D02*
X00555D01*
Y0183003D01*
X0061792Y018561D01*
X0064398Y0191902D01*
D02*
G37*
G36*
X01975Y01605D02*
X0193929D01*
X0194975Y0157975D01*
X01975Y0156929D01*
Y01605D01*
D02*
G37*
G36*
X02205Y0154071D02*
Y01505D01*
X0224071D01*
X0223025Y0153025D01*
X02205Y0154071D01*
D02*
G37*
G36*
X02195D02*
X0216975Y0153025D01*
X0215929Y01505D01*
X02195D01*
Y0154071D01*
D02*
G37*
G36*
X0202071Y01605D02*
X01985D01*
Y0156929D01*
X0201025Y0157975D01*
X0202071Y01605D01*
D02*
G37*
G36*
X00545Y0191902D02*
X0045602D01*
X0048208Y018561D01*
X00545Y0183003D01*
Y0191902D01*
D02*
G37*
G36*
X01985Y0165071D02*
Y01615D01*
X0202071D01*
X0201025Y0164025D01*
X01985Y0165071D01*
D02*
G37*
G36*
X01975D02*
X0194975Y0164025D01*
X0193929Y01615D01*
X01975D01*
Y0165071D01*
D02*
G37*
G36*
X04075Y0150706D02*
X0405233Y0149767D01*
X0404294Y01475D01*
X0405233Y0145233D01*
X04075Y0144294D01*
X0409767Y0145233D01*
X0410706Y01475D01*
X0409767Y0149767D01*
X04075Y0150706D01*
D02*
G37*
G36*
X00495Y0104071D02*
X0046975Y0103025D01*
X0045929Y01005D01*
X00495D01*
Y0104071D01*
D02*
G37*
G36*
X0054071Y00995D02*
X00505D01*
Y0095929D01*
X0053025Y0096975D01*
X0054071Y00995D01*
D02*
G37*
G36*
X00495D02*
X0045929D01*
X0046975Y0096975D01*
X00495Y0095929D01*
Y00995D01*
D02*
G37*
G36*
X00505Y0104071D02*
Y01005D01*
X0054071D01*
X0053025Y0103025D01*
X00505Y0104071D01*
D02*
G37*
G36*
X03025Y0118345D02*
X0299781Y0117219D01*
X0298655Y01145D01*
X0299781Y0111781D01*
X03025Y0110655D01*
X0305219Y0111781D01*
X0306345Y01145D01*
X0305219Y0117219D01*
X03025Y0118345D01*
D02*
G37*
G36*
X0482945Y0124096D02*
X0477966Y0122034D01*
X0475904Y0117055D01*
X0477966Y0112076D01*
X0482945Y0110013D01*
X0487924Y0112076D01*
X0489987Y0117055D01*
X0487924Y0122034D01*
X0482945Y0124096D01*
D02*
G37*
G36*
X0447Y0162141D02*
X0445486Y0161514D01*
X0444859Y016D01*
X0445268Y0159012D01*
Y012711D01*
X0445775Y0125885D01*
X0451359Y0120302D01*
X0450013Y0117055D01*
X0451359Y0113808D01*
X0433283Y0095732D01*
X039D01*
X0388775Y0095225D01*
X0379771Y0086221D01*
X0379264Y0084996D01*
Y0082537D01*
X0376459D01*
Y0073463D01*
X0385533D01*
Y0082537D01*
X0382728D01*
Y0084279D01*
X0390717Y0092268D01*
X0434D01*
X0435225Y0092775D01*
X0453808Y0111358D01*
X0457055Y0110013D01*
X0460302Y0111358D01*
X0461192Y0110468D01*
X0462417Y0109961D01*
X0463676D01*
X0465021Y0106714D01*
X047Y0104651D01*
X0474979Y0106714D01*
X0477041Y0111693D01*
X0474979Y0116672D01*
X047Y0118734D01*
X0465021Y0116672D01*
X0464014Y0114242D01*
X0463441Y0114166D01*
X046309Y0114625D01*
X0464096Y0117055D01*
X0462034Y0122034D01*
X0457055Y0124096D01*
X0453808Y0122751D01*
X0448732Y0127827D01*
Y0159012D01*
X0449141Y016D01*
X0448514Y0161514D01*
X0447Y0162141D01*
D02*
G37*
G36*
X0334996Y0098847D02*
X033115D01*
Y0095D01*
X0334996D01*
Y0098847D01*
D02*
G37*
G36*
Y0094D02*
X033115D01*
Y0090154D01*
X0334996D01*
Y0094D01*
D02*
G37*
G36*
X033015D02*
X0326303D01*
Y0090154D01*
X033015D01*
Y0094D01*
D02*
G37*
G36*
X0279996Y0094D02*
X027615D01*
Y0090154D01*
X0279996D01*
Y0094D01*
D02*
G37*
G36*
X0164Y0099272D02*
X0160979Y009802D01*
X0159728Y0095D01*
X0160979Y009198D01*
X0164Y0090728D01*
X016702Y009198D01*
X0168272Y0095D01*
X016702Y009802D01*
X0164Y0099272D01*
D02*
G37*
G36*
X033015Y0098847D02*
X0326303D01*
Y0095D01*
X033015D01*
Y0098847D01*
D02*
G37*
G36*
X0279996Y0098847D02*
X027615D01*
Y0095D01*
X0279996D01*
Y0098847D01*
D02*
G37*
G36*
X027515D02*
X0271303D01*
Y0095D01*
X027515D01*
Y0098847D01*
D02*
G37*
G36*
X0158346Y0137996D02*
X01545D01*
Y013415D01*
X0158346D01*
Y0137996D01*
D02*
G37*
G36*
X01535D02*
X0149653D01*
Y013415D01*
X01535D01*
Y0137996D01*
D02*
G37*
G36*
X0158346Y013315D02*
X01545D01*
Y0129303D01*
X0158346D01*
Y013315D01*
D02*
G37*
G36*
X04705Y0155575D02*
Y0148307D01*
Y014104D01*
X0475165Y0142972D01*
X0475417Y0142963D01*
X0476006Y0142698D01*
X0477966Y0137966D01*
X0482945Y0135904D01*
X0487924Y0137966D01*
X0489987Y0142945D01*
X0487924Y0147924D01*
X0482945Y0149987D01*
X0478214Y0148027D01*
X0477424Y0148428D01*
X0475285Y0153592D01*
X04705Y0155575D01*
D02*
G37*
G36*
X0400932Y0147D02*
X0398D01*
Y0144068D01*
X0400073Y0144927D01*
X0400932Y0147D01*
D02*
G37*
G36*
X0397D02*
X0394068D01*
X0394927Y0144927D01*
X0397Y0144068D01*
Y0147D01*
D02*
G37*
G36*
X0140446Y0146041D02*
X0136884D01*
Y0144053D01*
X0130923Y0138092D01*
X0130495Y0137059D01*
X0129756Y0136856D01*
X0129532D01*
X0129436D01*
X0129105Y0137656D01*
X013241Y014096D01*
X0132631Y0141494D01*
X0132966D01*
Y0146041D01*
X0129404D01*
Y0142853D01*
X0125775Y0139225D01*
X0125268Y0138D01*
Y0067D01*
X0125775Y0065775D01*
X0129768Y0061783D01*
Y0053531D01*
X0129534Y0053434D01*
X012872Y0051468D01*
Y0047531D01*
X0129534Y0045566D01*
X0129352Y0044775D01*
X0109906D01*
X01096Y0045514D01*
X0108087Y0046141D01*
X0106573Y0045514D01*
X0106249Y0044732D01*
X0089D01*
X0087775Y0044225D01*
X0080474Y0036923D01*
X0079486Y0036514D01*
X0079077Y0035526D01*
X0070739Y0027189D01*
X0049856D01*
Y0028419D01*
X0043144D01*
Y0022494D01*
X0049856D01*
Y0023725D01*
X0071457D01*
X0072681Y0024232D01*
X0081526Y0033077D01*
X0082514Y0033486D01*
X0082923Y0034474D01*
X0089717Y0041268D01*
X0106355D01*
Y0036804D01*
X0105474Y0035923D01*
X0104486Y0035514D01*
X0103859Y0034D01*
X0104486Y0032486D01*
X0106Y0031859D01*
X0107514Y0032486D01*
X0107923Y0033474D01*
X0109311Y0034862D01*
X0109818Y0036086D01*
Y0041311D01*
X0129768D01*
Y0034217D01*
X0129474Y0033923D01*
X0128486Y0033514D01*
X0127859Y0032D01*
X0128486Y0030486D01*
X013Y0029859D01*
X0131514Y0030486D01*
X0131923Y0031474D01*
X0132724Y0032275D01*
X0133232Y00335D01*
Y0041311D01*
X0159144D01*
Y0040081D01*
X0165856D01*
Y0041311D01*
X0168144D01*
Y0040081D01*
X0174856D01*
Y0041311D01*
X0179144D01*
Y0040081D01*
X0185856D01*
Y0041311D01*
X0188144D01*
Y0040081D01*
X0194856D01*
Y0041311D01*
X0199144D01*
Y0040081D01*
X0205856D01*
Y0041311D01*
X0208144D01*
Y0040081D01*
X0214856D01*
Y0041311D01*
X0229043D01*
X0230268Y0041819D01*
X0235717Y0047268D01*
X0265012D01*
X0266Y0046859D01*
X0267514Y0047486D01*
X0268141Y0049D01*
X0267732Y0049988D01*
Y0073592D01*
X0268532Y0073751D01*
X0269475Y0071475D01*
X0272Y0070429D01*
Y00745D01*
X02725D01*
Y0075D01*
X0276571D01*
X0275525Y0077525D01*
X0275673Y0078268D01*
X0278291D01*
X0278494Y0078064D01*
Y0076459D01*
X0283041D01*
Y0080021D01*
X0281436D01*
X0280233Y0081225D01*
X0279008Y0081732D01*
X027D01*
X0268775Y0081225D01*
X0264775Y0077225D01*
X0264268Y0076D01*
Y0050732D01*
X0235D01*
X0233775Y0050225D01*
X0228326Y0044775D01*
X0214856D01*
Y0046005D01*
X0208144D01*
Y0044775D01*
X0205856D01*
Y0046005D01*
X0203691D01*
Y00465D01*
X0203342Y0047342D01*
X0200537Y0050147D01*
Y0076352D01*
X020086Y0076486D01*
X0201487Y0078D01*
X020086Y0079514D01*
X0199346Y0080141D01*
X0197833Y0079514D01*
X0197205Y0078D01*
X0197833Y0076486D01*
X0198156Y0076352D01*
Y0049654D01*
X0198505Y0048812D01*
X0200511Y0046806D01*
X0200179Y0046005D01*
X0199144D01*
Y0044775D01*
X0194856D01*
Y0046005D01*
X0188144D01*
Y0044775D01*
X0185856D01*
Y0046005D01*
X0179144D01*
Y0044775D01*
X0174856D01*
Y0046005D01*
X0168144D01*
Y0044775D01*
X0165856D01*
Y0046005D01*
X0159144D01*
Y0044775D01*
X0144333D01*
X0143903Y0045575D01*
X0144713Y0047531D01*
Y0049D01*
X01415D01*
Y00495D01*
X0141D01*
Y0054474D01*
X0139228Y005374D01*
X0139205Y0053685D01*
X0138269Y0053516D01*
X01365Y0054249D01*
X0134534Y0053434D01*
X0134529Y0053422D01*
X0133661Y0053314D01*
X0133232Y0053758D01*
Y00625D01*
X0132724Y0063725D01*
X0128732Y0067717D01*
Y0129453D01*
X0128995Y0130144D01*
X0129532Y0130144D01*
X0134919D01*
Y0136856D01*
X0134865D01*
X0134559Y0137595D01*
X0138459Y0141494D01*
X0140446D01*
Y0146041D01*
D02*
G37*
G36*
X0160751Y0118878D02*
X0156114D01*
Y0114241D01*
X0159393Y0115599D01*
X0160751Y0118878D01*
D02*
G37*
G36*
X0155114D02*
X0150477D01*
X0151836Y0115599D01*
X0155114Y0114241D01*
Y0118878D01*
D02*
G37*
G36*
X03275Y0118345D02*
X0324781Y0117219D01*
X0323655Y01145D01*
X0324781Y0111781D01*
X03275Y0110655D01*
X0330219Y0111781D01*
X0331345Y01145D01*
X0330219Y0117219D01*
X03275Y0118345D01*
D02*
G37*
G36*
X0107583Y0124289D02*
X010411Y012285D01*
X0102672Y0119378D01*
X010411Y0115905D01*
X0107583Y0114467D01*
X0111055Y0115905D01*
X0112494Y0119378D01*
X0111055Y012285D01*
X0107583Y0124289D01*
D02*
G37*
G36*
X0156114Y0124515D02*
Y0119878D01*
X0160751D01*
X0159393Y0123156D01*
X0156114Y0124515D01*
D02*
G37*
G36*
X01535Y013315D02*
X0149653D01*
Y0129303D01*
X01535D01*
Y013315D01*
D02*
G37*
G36*
X0155114Y0124515D02*
X0151836Y0123156D01*
X0150477Y0119878D01*
X0155114D01*
Y0124515D01*
D02*
G37*
%LPD*%
G36*
X0425592Y0024381D02*
X0425573Y0023882D01*
Y0023882D01*
X0423545Y0023042D01*
X0423092Y002372D01*
X0424099Y0024727D01*
X0424936D01*
X0425592Y0024381D01*
D02*
G37*
D10*
X04Y008D02*
D03*
X0392913D02*
D03*
X0336457Y00595D02*
D03*
X0343543D02*
D03*
X0281457D02*
D03*
X0288543D02*
D03*
X0131957Y01335D02*
D03*
X0139043D02*
D03*
D13*
X01715Y0035957D02*
D03*
Y0043043D02*
D03*
X01625Y0035957D02*
D03*
Y0043043D02*
D03*
X01915Y0035957D02*
D03*
Y0043043D02*
D03*
X02115Y0035957D02*
D03*
Y0043043D02*
D03*
X01825Y0035957D02*
D03*
Y0043043D02*
D03*
X02025Y0035957D02*
D03*
Y0043043D02*
D03*
X00375Y0025457D02*
D03*
Y0032543D02*
D03*
X00465Y0032543D02*
D03*
Y0025457D02*
D03*
D17*
X0249Y0085D02*
X0259Y0095D01*
Y0109D02*
X0281Y0131D01*
X0259Y0095D02*
Y0109D01*
X0281Y0131D02*
X0382D01*
X02025Y0043043D02*
Y00465D01*
X0199346Y0049654D02*
X02025Y00465D01*
X0199346Y0049654D02*
Y0078D01*
X0181Y0092D02*
X0186D01*
X0176Y0097D02*
X0181Y0092D01*
X0176Y0097D02*
Y0103D01*
X0168Y0111D02*
X0176Y0103D01*
X015Y0111D02*
X0168D01*
X0139043Y0121957D02*
X015Y0111D01*
X0139043Y0121957D02*
Y01335D01*
X0174957Y0035957D02*
X0177Y0038D01*
X01625Y0035957D02*
X01715D01*
X0174957D01*
X0194957D02*
X0197Y0038D01*
X01825Y0035957D02*
X01915D01*
X0194957D01*
X0214957D02*
X0217Y0038D01*
X02025Y0035957D02*
X02115D01*
X0214957D01*
X0285Y0054D02*
X0288543Y0057543D01*
Y00595D01*
X0391Y0087D02*
X0392913Y0085087D01*
Y008D02*
Y0085087D01*
X0343Y0060043D02*
Y0069D01*
Y0060043D02*
X0343543Y00595D01*
X0069543Y0032543D02*
X0122Y0085D01*
X0033543Y0032543D02*
X00375D01*
X0032Y0031D02*
X0033543Y0032543D01*
X0032Y0012409D02*
Y0031D01*
Y0012409D02*
X0034409Y001D01*
X00375Y0032543D02*
X0069543D01*
D18*
X0155614Y0148965D02*
Y0166622D01*
X0154Y014735D02*
X0155614Y0148965D01*
X014765Y014735D02*
X0154D01*
X0142768Y0152232D02*
X014765Y014735D01*
X0134925Y0152232D02*
X0142768D01*
X0131957Y01335D02*
Y0137059D01*
X0138665Y0143768D01*
X0289232Y00745D02*
Y0094382D01*
Y00745D02*
X03025D01*
X0280768Y0060189D02*
Y007076D01*
X0344232Y00745D02*
Y0094382D01*
X0335768Y0060189D02*
Y007076D01*
X0344232Y00745D02*
X03575D01*
X0399189Y006126D02*
X040326D01*
X0410917Y0068917D01*
Y0078D01*
X04Y0069551D02*
Y008D01*
X0399189Y006874D02*
X04Y0069551D01*
X01715Y0027319D02*
X0178819Y002D01*
X01715Y0027319D02*
Y0035957D01*
X0194409Y002D02*
Y0027591D01*
X01915Y00305D02*
X0194409Y0027591D01*
X01915Y00305D02*
Y0035957D01*
X021Y002D02*
Y0028D01*
X02115Y00295D01*
Y0035957D01*
D19*
X0163488Y0143D02*
X0204D01*
X02325Y01145D01*
X02595D01*
X03575D02*
X0367Y0105D01*
Y0069157D02*
Y0105D01*
Y0069157D02*
X0416157Y002D01*
X0423158Y0027D01*
X0453158D01*
X0460157Y002D01*
X0478158Y0038D01*
D20*
X01315Y00495D02*
Y00625D01*
X0127Y0067D02*
X01315Y00625D01*
X0127Y0067D02*
Y0138D01*
X0131185Y0142185D01*
Y0143768D01*
X00465Y0025457D02*
X0071457D01*
X0081Y0035D01*
X0109043Y0043043D02*
X01315D01*
Y0043587D01*
Y00335D02*
Y0043043D01*
X013Y0032D02*
X01315Y00335D01*
X0106Y0034D02*
X0108087Y0036086D01*
Y0044D01*
X0107087Y0043D02*
X0108087Y0044D01*
X0089Y0043D02*
X0107087D01*
X0081Y0035D02*
X0089Y0043D01*
X0108087Y0044D02*
X0109043Y0043043D01*
X01315Y0043587D02*
Y00495D01*
Y0043587D02*
X0132043Y0043043D01*
X01625D01*
X0333008Y0081D02*
X0335768Y007824D01*
X0324Y0081D02*
X0333008D01*
X0319Y0076D02*
X0324Y0081D01*
X0319Y0049D02*
Y0076D01*
X0279008Y008D02*
X0280768Y007824D01*
X027Y008D02*
X0279008D01*
X0266Y0076D02*
X027Y008D01*
X0266Y0049D02*
Y0076D01*
X0235Y0049D02*
X0266D01*
X02115Y0043043D02*
X0229043D01*
X02025D02*
X02115D01*
X01915D02*
X02025D01*
X01825D02*
X01915D01*
X01715D02*
X01825D01*
X01625D02*
X01715D01*
X0229043D02*
X0235Y0049D01*
X0380996Y0078D02*
Y0084996D01*
X039Y0094D01*
X0434D01*
X0457055Y0117055D01*
X0462417Y0111693D01*
X0447Y012711D02*
X0457055Y0117055D01*
X0462417Y0111693D02*
X047D01*
X0447Y012711D02*
Y016D01*
D21*
X0284D02*
D03*
X047Y0148307D02*
D03*
X0482945Y0142945D02*
D03*
X047Y0111693D02*
D03*
X0457055Y0117055D02*
D03*
Y0142945D02*
D03*
X0482945Y0117055D02*
D03*
X0015Y001D02*
D03*
X05Y001D02*
D03*
X0048Y0362D02*
D03*
D22*
X0485Y0265591D02*
D03*
Y025D02*
D03*
X004Y0234409D02*
D03*
Y025D02*
D03*
X0163228Y002D02*
D03*
X0178819D02*
D03*
X0194409D02*
D03*
X021D02*
D03*
X0243228D02*
D03*
X0258819D02*
D03*
X027441D02*
D03*
X029D02*
D03*
X032441D02*
D03*
X034D02*
D03*
X037441D02*
D03*
X039D02*
D03*
D23*
X0164Y0095D02*
D03*
Y0075D02*
D03*
D24*
X01315Y00495D02*
D03*
X01415D02*
D03*
D25*
X01365D02*
D03*
D26*
X0034409Y001D02*
D03*
X006D02*
D03*
X0410917Y0078D02*
D03*
X0163488Y0143D02*
D03*
X0155614Y0119378D02*
D03*
Y0166622D02*
D03*
X0107583Y0119378D02*
D03*
Y0166622D02*
D03*
D27*
X03875Y01475D02*
D03*
D28*
X03975D02*
D03*
X04075D02*
D03*
D29*
X0055Y0155D02*
D03*
Y0192402D02*
D03*
Y0327401D02*
D03*
Y029D02*
D03*
D30*
X005Y01D02*
D03*
Y007D02*
D03*
Y008D02*
D03*
Y009D02*
D03*
X022Y015D02*
D03*
X023D02*
D03*
X024D02*
D03*
X0325Y015D02*
D03*
X03025Y00645D02*
D03*
Y00745D02*
D03*
Y01145D02*
D03*
X02725D02*
D03*
Y00745D02*
D03*
Y00645D02*
D03*
X03575D02*
D03*
Y00745D02*
D03*
Y01145D02*
D03*
X03275D02*
D03*
Y00745D02*
D03*
Y00645D02*
D03*
X0127Y0015D02*
D03*
X0102D02*
D03*
X0079D02*
D03*
X0198Y0161D02*
D03*
D31*
X025Y015D02*
D03*
X0335Y015D02*
D03*
X0137Y0015D02*
D03*
X0112D02*
D03*
X0089D02*
D03*
D32*
X0380996Y0078D02*
D03*
D33*
X0198Y0151D02*
D03*
D34*
X048Y0362D02*
D03*
D35*
X0435843Y002D02*
D03*
X0426D02*
D03*
X0416157D02*
D03*
X0479843D02*
D03*
X047D02*
D03*
X0460157D02*
D03*
D36*
X05Y03D02*
D03*
X049D02*
D03*
X048D02*
D03*
X05Y031D02*
D03*
X049D02*
D03*
X048D02*
D03*
X05Y032D02*
D03*
X049D02*
D03*
X048D02*
D03*
X05Y033D02*
D03*
X049D02*
D03*
X048D02*
D03*
X0193Y0136D02*
D03*
D37*
X02595Y01145D02*
D03*
X0478158Y0038D02*
D03*
D38*
X0249Y0085D02*
D03*
X013Y0032D02*
D03*
X0106Y0034D02*
D03*
X0081Y0035D02*
D03*
X0108087Y0044D02*
D03*
X0319Y0049D02*
D03*
X0266D02*
D03*
X0447Y016D02*
D03*
X0199346Y0078D02*
D03*
X0186Y0092D02*
D03*
X0177Y0038D02*
D03*
X0197D02*
D03*
X0217D02*
D03*
X0285Y0054D02*
D03*
X0391Y0087D02*
D03*
X0343Y0069D02*
D03*
X0382Y0131D02*
D03*
X0122Y0085D02*
D03*
D39*
X0138665Y0143768D02*
D03*
X0131185D02*
D03*
X0134925Y0152232D02*
D03*
D40*
X0399189Y006874D02*
D03*
Y006126D02*
D03*
X0390724Y0065D02*
D03*
X0280768Y007076D02*
D03*
Y007824D02*
D03*
X0289232Y00745D02*
D03*
X0335768Y007076D02*
D03*
Y007824D02*
D03*
X0344232Y00745D02*
D03*
D41*
X0154Y014735D02*
D03*
Y013365D02*
D03*
D42*
X028935Y00945D02*
D03*
X027565D02*
D03*
X034435Y00945D02*
D03*
X033065D02*
D03*
D43*
X039Y002D02*
Y003D01*
X0375Y0045D02*
X039Y003D01*
X0332Y0045D02*
X0375D01*
X03275Y00495D02*
X0332Y0045D01*
X03275Y00495D02*
Y00645D01*
X034Y002D02*
Y0029D01*
X0332Y0037D02*
X034Y0029D01*
X0284Y0037D02*
X0332D01*
X02725Y00485D02*
X0284Y0037D01*
X02725Y00485D02*
Y00645D01*
D44*
X003Y0302402D02*
X0055Y0327401D01*
X003Y026D02*
Y0302402D01*
Y026D02*
X004Y025D01*
X0055Y029D02*
X0064Y0281D01*
Y0246D02*
Y0281D01*
X0052409Y0234409D02*
X0064Y0246D01*
X004Y0234409D02*
X0052409D01*
X0095961Y0155D02*
X0107583Y0166622D01*
X0055Y0155D02*
X0095961D01*
M02*
