%FSTAX25Y25*%
%MOIN*%
G70*
G01*
G75*
G04 Layer_Color=32896*
%ADD10R,0.04724X0.05512*%
%ADD11R,0.35039X0.41929*%
%ADD12R,0.09449X0.04134*%
%ADD13R,0.05512X0.04724*%
%ADD14R,0.08465X0.11221*%
%ADD15O,0.01181X0.05709*%
%ADD16O,0.05709X0.01181*%
%ADD17C,0.01000*%
%ADD18C,0.01500*%
%ADD19C,0.03000*%
%ADD20C,0.02000*%
%ADD21C,0.11811*%
%ADD22C,0.11000*%
%ADD23C,0.06693*%
%ADD24O,0.03937X0.07874*%
%ADD25O,0.03937X0.07874*%
%ADD26C,0.07874*%
%ADD27R,0.04724X0.04724*%
%ADD28C,0.04724*%
%ADD29C,0.15748*%
%ADD30C,0.05906*%
%ADD31R,0.05906X0.05906*%
%ADD32R,0.07874X0.07874*%
%ADD33R,0.05906X0.05906*%
%ADD34O,0.30000X0.15000*%
%ADD35C,0.06299*%
%ADD36C,0.05000*%
%ADD37C,0.04000*%
%ADD38C,0.02756*%
%ADD39R,0.02362X0.03347*%
%ADD40R,0.03347X0.02362*%
%ADD41R,0.06693X0.06693*%
%ADD42R,0.06693X0.06693*%
%ADD43C,0.05000*%
%ADD44C,0.10000*%
%ADD45C,0.00984*%
%ADD46C,0.00787*%
%ADD47C,0.02362*%
%ADD48R,0.05524X0.06312*%
%ADD49R,0.35839X0.42729*%
%ADD50R,0.10249X0.04934*%
%ADD51R,0.06312X0.05524*%
%ADD52R,0.09265X0.12020*%
%ADD53O,0.01981X0.06509*%
%ADD54O,0.06509X0.01981*%
%ADD55C,0.12611*%
%ADD56C,0.11800*%
%ADD57C,0.07493*%
%ADD58O,0.04737X0.08674*%
%ADD59O,0.04737X0.08674*%
%ADD60C,0.08674*%
%ADD61R,0.05524X0.05524*%
%ADD62C,0.05524*%
%ADD63C,0.16548*%
%ADD64C,0.06706*%
%ADD65R,0.06706X0.06706*%
%ADD66R,0.08674X0.08674*%
%ADD67R,0.06706X0.06706*%
%ADD68O,0.30800X0.15800*%
%ADD69C,0.07099*%
%ADD70C,0.05800*%
%ADD71C,0.04800*%
%ADD72C,0.03556*%
%ADD73R,0.03162X0.04147*%
%ADD74R,0.04147X0.03162*%
%ADD75R,0.07493X0.07493*%
%ADD76R,0.07493X0.07493*%
%ADD77C,0.00100*%
D17*
X0405Y0088D02*
Y0091999D01*
X0403001D01*
X0402334Y0091332D01*
Y0089999D01*
X0403001Y0089333D01*
X0405D01*
X0403667D02*
X0402334Y0088D01*
X0401001D02*
X0399668D01*
X0400335D01*
Y0091999D01*
X0401001Y0091332D01*
X0397669D02*
X0397003Y0091999D01*
X039567D01*
X0395003Y0091332D01*
Y0090666D01*
X039567Y0089999D01*
X0396336D01*
X039567D01*
X0395003Y0089333D01*
Y0088666D01*
X039567Y0088D01*
X0397003D01*
X0397669Y0088666D01*
X0352Y0064D02*
Y0067999D01*
X0350001D01*
X0349334Y0067332D01*
Y0065999D01*
X0350001Y0065333D01*
X0352D01*
X0350667D02*
X0349334Y0064D01*
X0346002D02*
Y0067999D01*
X0348001Y0065999D01*
X0345336D01*
X03Y0054D02*
Y0057999D01*
X0298001D01*
X0297334Y0057332D01*
Y0055999D01*
X0298001Y0055333D01*
X03D01*
X0298667D02*
X0297334Y0054D01*
X0296001Y0057999D02*
X0293336D01*
Y0057332D01*
X0296001Y0054666D01*
Y0054D01*
X0172Y005D02*
Y0053999D01*
X0170001D01*
X0169334Y0053332D01*
Y0051999D01*
X0170001Y0051333D01*
X0172D01*
X0170667D02*
X0169334Y005D01*
X0168001D02*
X0166668D01*
X0167335D01*
Y0053999D01*
X0168001Y0053332D01*
X0162003Y005D02*
X0164669D01*
X0162003Y0052666D01*
Y0053332D01*
X016267Y0053999D01*
X0164003D01*
X0164669Y0053332D01*
X0156334Y0053332D02*
X0157001Y0053999D01*
X0158334D01*
X0159Y0053332D01*
Y0050666D01*
X0158334Y005D01*
X0157001D01*
X0156334Y0050666D01*
X0155001Y0053999D02*
X0152336D01*
Y0053332D01*
X0155001Y0050666D01*
Y005D01*
X0060644Y0023632D02*
X006131Y0024299D01*
X0062643D01*
X006331Y0023632D01*
Y0022966D01*
X0062643Y0022299D01*
X006131D01*
X0060644Y0021633D01*
Y0020967D01*
X006131Y00203D01*
X0062643D01*
X006331Y0020967D01*
X0059311Y00203D02*
X0057978D01*
X0058644D01*
Y0024299D01*
X0059311Y0023632D01*
X01455Y0136D02*
Y0132001D01*
X0147499D01*
X0148166Y0132668D01*
Y0134001D01*
X0147499Y0134667D01*
X01455D01*
X0146833D02*
X0148166Y0136D01*
X0149499D02*
X0150832D01*
X0150165D01*
Y0132001D01*
X0149499Y0132668D01*
X0155497Y0132001D02*
X0152831D01*
Y0134001D01*
X0154164Y0133334D01*
X015483D01*
X0155497Y0134001D01*
Y0135334D01*
X015483Y0136D01*
X0153497D01*
X0152831Y0135334D01*
X006Y004D02*
Y0043999D01*
X0058001D01*
X0057334Y0043332D01*
Y0041999D01*
X0058001Y0041333D01*
X006D01*
X0058667D02*
X0057334Y004D01*
X0056001D02*
X0054668D01*
X0055335D01*
Y0043999D01*
X0056001Y0043332D01*
X0052669Y0043999D02*
X0050003D01*
Y0043332D01*
X0052669Y0040666D01*
Y004D01*
X0194Y005D02*
Y0053999D01*
X0192001D01*
X0191334Y0053332D01*
Y0051999D01*
X0192001Y0051333D01*
X0194D01*
X0192667D02*
X0191334Y005D01*
X0190001D02*
X0188668D01*
X0189335D01*
Y0053999D01*
X0190001Y0053332D01*
X0186669Y005D02*
X0185336D01*
X0186003D01*
Y0053999D01*
X0186669Y0053332D01*
X0217Y005D02*
Y0053999D01*
X0215001D01*
X0214334Y0053332D01*
Y0051999D01*
X0215001Y0051333D01*
X0217D01*
X0215667D02*
X0214334Y005D01*
X0213001D02*
X0211668D01*
X0212335D01*
Y0053999D01*
X0213001Y0053332D01*
X0209669D02*
X0209002Y0053999D01*
X020767D01*
X0207003Y0053332D01*
Y0050666D01*
X020767Y005D01*
X0209002D01*
X0209669Y0050666D01*
Y0053332D01*
X0139334Y0158166D02*
Y0160832D01*
X0140001Y0161499D01*
X0141333D01*
X0142Y0160832D01*
Y0158166D01*
X0141333Y01575D01*
X0140001D01*
X0140667Y0158833D02*
X0139334Y01575D01*
X0140001D02*
X0139334Y0158166D01*
X0135335Y0161499D02*
X0136668Y0160832D01*
X0138001Y0159499D01*
Y0158166D01*
X0137335Y01575D01*
X0136002D01*
X0135335Y0158166D01*
Y0158833D01*
X0136002Y0159499D01*
X0138001D01*
X0397791Y0076766D02*
Y0079432D01*
X0398457Y0080099D01*
X039979D01*
X0400457Y0079432D01*
Y0076766D01*
X039979Y00761D01*
X0398457D01*
X0399124Y0077433D02*
X0397791Y00761D01*
X0398457D02*
X0397791Y0076766D01*
X0393792Y0080099D02*
X0396458D01*
Y0078099D01*
X0395125Y0078766D01*
X0394459D01*
X0393792Y0078099D01*
Y0076766D01*
X0394459Y00761D01*
X0395792D01*
X0396458Y0076766D01*
X0287834Y0084666D02*
Y0087332D01*
X0288501Y0087999D01*
X0289834D01*
X02905Y0087332D01*
Y0084666D01*
X0289834Y0084D01*
X0288501D01*
X0289167Y0085333D02*
X0287834Y0084D01*
X0288501D02*
X0287834Y0084666D01*
X0286501Y0087332D02*
X0285835Y0087999D01*
X0284502D01*
X0283836Y0087332D01*
Y0086666D01*
X0284502Y0085999D01*
X0285168D01*
X0284502D01*
X0283836Y0085333D01*
Y0084666D01*
X0284502Y0084D01*
X0285835D01*
X0286501Y0084666D01*
X0342834D02*
Y0087332D01*
X0343501Y0087999D01*
X0344834D01*
X03455Y0087332D01*
Y0084666D01*
X0344834Y0084D01*
X0343501D01*
X0344167Y0085333D02*
X0342834Y0084D01*
X0343501D02*
X0342834Y0084666D01*
X0338836Y0084D02*
X0341501D01*
X0338836Y0086666D01*
Y0087332D01*
X0339502Y0087999D01*
X0340835D01*
X0341501Y0087332D01*
X01573Y0158099D02*
Y01541D01*
X0155301D01*
X0154634Y0154766D01*
Y0157432D01*
X0155301Y0158099D01*
X01573D01*
X0153301Y0157432D02*
X0152635Y0158099D01*
X0151302D01*
X0150635Y0157432D01*
Y0156766D01*
X0151302Y0156099D01*
X0150635Y0155433D01*
Y0154766D01*
X0151302Y01541D01*
X0152635D01*
X0153301Y0154766D01*
Y0155433D01*
X0152635Y0156099D01*
X0153301Y0156766D01*
Y0157432D01*
X0152635Y0156099D02*
X0151302D01*
X02921Y0105799D02*
Y01018D01*
X0290101D01*
X0289434Y0102466D01*
Y0105132D01*
X0290101Y0105799D01*
X02921D01*
X0285436D02*
X0286768Y0105132D01*
X0288101Y0103799D01*
Y0102466D01*
X0287435Y01018D01*
X0286102D01*
X0285436Y0102466D01*
Y0103133D01*
X0286102Y0103799D01*
X0288101D01*
X03471Y0105799D02*
Y01018D01*
X0345101D01*
X0344434Y0102466D01*
Y0105132D01*
X0345101Y0105799D01*
X03471D01*
X0341102Y01018D02*
Y0105799D01*
X0343101Y0103799D01*
X0340436D01*
X0040334Y0042832D02*
X0041001Y0043499D01*
X0042333D01*
X0043Y0042832D01*
Y0040166D01*
X0042333Y00395D01*
X0041001D01*
X0040334Y0040166D01*
X0039001Y00395D02*
X0037668D01*
X0038335D01*
Y0043499D01*
X0039001Y0042832D01*
X0035669Y00395D02*
X0034336D01*
X0035002D01*
Y0043499D01*
X0035669Y0042832D01*
X0180334Y0053332D02*
X0181001Y0053999D01*
X0182334D01*
X0183Y0053332D01*
Y0050666D01*
X0182334Y005D01*
X0181001D01*
X0180334Y0050666D01*
X0176335Y0053999D02*
X0177668Y0053332D01*
X0179001Y0051999D01*
Y0050666D01*
X0178335Y005D01*
X0177002D01*
X0176335Y0050666D01*
Y0051333D01*
X0177002Y0051999D01*
X0179001D01*
X0202334Y0053332D02*
X0203001Y0053999D01*
X0204333D01*
X0205Y0053332D01*
Y0050666D01*
X0204333Y005D01*
X0203001D01*
X0202334Y0050666D01*
X0198335Y0053999D02*
X0201001D01*
Y0051999D01*
X0199668Y0052666D01*
X0199002D01*
X0198335Y0051999D01*
Y0050666D01*
X0199002Y005D01*
X0200335D01*
X0201001Y0050666D01*
D45*
X0142504Y0143768D02*
G03*
X0142504Y0143768I-0000492J0D01*
G01*
X0399681Y0072087D02*
G03*
X0399681Y0072087I-0000492J0D01*
G01*
X028126Y0067413D02*
G03*
X028126Y0067413I-0000492J0D01*
G01*
X033626D02*
G03*
X033626Y0067413I-0000492J0D01*
G01*
D46*
X0396457Y0077638D02*
Y0082362D01*
X034Y0057138D02*
Y0061862D01*
X0285Y0057138D02*
Y0061862D01*
X0169138Y00395D02*
X0173862D01*
X0160138D02*
X0164862D01*
X0035394Y000311D02*
X0059016D01*
X0035394Y001689D02*
X0059016D01*
X0035394Y000311D02*
Y001689D01*
X0059016Y000311D02*
Y001689D01*
X01355Y0131138D02*
Y0135862D01*
X0189138Y00395D02*
X0193862D01*
X0209138D02*
X0213862D01*
X0140831Y0146819D02*
Y0150756D01*
X0137681D02*
X0140831D01*
X012902Y0146819D02*
Y0150756D01*
X0132169D01*
X0392201Y0070906D02*
X0396138D01*
X0392201Y0067756D02*
Y0070906D01*
Y0059095D02*
X0396138D01*
X0392201D02*
Y0062244D01*
X0283819Y0068594D02*
X0287756D01*
Y0071744D01*
X0283819Y0080406D02*
X0287756D01*
Y0077256D02*
Y0080406D01*
X0338819Y0068594D02*
X0342756D01*
Y0071744D01*
X0338819Y0080406D02*
X0342756D01*
Y0077256D02*
Y0080406D01*
X0154Y0142468D02*
Y0143256D01*
X0157937Y013735D02*
Y014365D01*
X0150063D02*
X0157937D01*
X0150063Y013735D02*
Y014365D01*
Y013735D02*
X0157937D01*
X0154Y0142469D02*
X0154Y0142468D01*
Y0137744D02*
Y0142468D01*
Y0142469D02*
X0154D01*
X0157937Y0138531D01*
X0150063D02*
X0157937D01*
X0150063D02*
X0154Y0142469D01*
X0284468Y00945D02*
X0285256D01*
X027935Y0090563D02*
X028565D01*
Y0098437D01*
X027935D02*
X028565D01*
X027935Y0090563D02*
Y0098437D01*
X0284468Y00945D02*
X0284468Y00945D01*
X0279744Y00945D02*
X0284468D01*
X0284468Y00945D02*
Y00945D01*
X0280531Y0090563D02*
X0284468Y00945D01*
X0280531Y0090563D02*
Y0098437D01*
X0284468Y00945D01*
X0339468Y00945D02*
X0340256D01*
X033435Y0090563D02*
X034065D01*
Y0098437D01*
X033435D02*
X034065D01*
X033435Y0090563D02*
Y0098437D01*
X0339468Y00945D02*
X0339468Y00945D01*
X0334744Y00945D02*
X0339468D01*
X0339468Y00945D02*
Y00945D01*
X0335531Y0090563D02*
X0339468Y00945D01*
X0335531Y0090563D02*
Y0098437D01*
X0339468Y00945D01*
X0180138Y00395D02*
X0184862D01*
X0200138D02*
X0204862D01*
X0035138Y0029D02*
X0039862D01*
X0044138D02*
X0048862D01*
D77*
X04598Y00483D02*
X04602D01*
X04595Y00484D02*
X04608D01*
X0456D02*
X04568D01*
X04593Y00485D02*
X04612D01*
X04554D02*
X04569D01*
X04593Y00486D02*
X04616D01*
X0455D02*
X0457D01*
X04592Y00487D02*
X04619D01*
X04546D02*
X0457D01*
X04592Y00488D02*
X04622D01*
X04542D02*
X0457D01*
X04592Y00489D02*
X04625D01*
X04539D02*
X0457D01*
X04592Y0049D02*
X04627D01*
X04536D02*
X0457D01*
X04592Y00491D02*
X0463D01*
X04534D02*
X0457D01*
X04592Y00492D02*
X04632D01*
X04532D02*
X0457D01*
X04592Y00493D02*
X04634D01*
X04529D02*
X0457D01*
X04591Y00494D02*
X04635D01*
X04527D02*
X0457D01*
X04591Y00495D02*
X04637D01*
X04525D02*
X0457D01*
X04591Y00496D02*
X04639D01*
X04523D02*
X0457D01*
X04591Y00497D02*
X04641D01*
X04522D02*
X0457D01*
X04591Y00498D02*
X04642D01*
X0452D02*
X0457D01*
X04591Y00499D02*
X04644D01*
X04518D02*
X0457D01*
X04591Y005D02*
X04645D01*
X04517D02*
X0457D01*
X04591Y00501D02*
X04647D01*
X04515D02*
X04571D01*
X04591Y00502D02*
X04648D01*
X04514D02*
X0457D01*
X04591Y00503D02*
X0465D01*
X04512D02*
X0457D01*
X04592Y00504D02*
X04651D01*
X04511D02*
X04569D01*
X04592Y00505D02*
X04652D01*
X0451D02*
X04568D01*
X04595Y00506D02*
X04653D01*
X04509D02*
X04566D01*
X04602Y00507D02*
X04655D01*
X04508D02*
X04561D01*
X04606Y00508D02*
X04656D01*
X04508D02*
X04557D01*
X0461Y00509D02*
X04656D01*
X04508D02*
X04554D01*
X04613Y0051D02*
X04656D01*
X04507D02*
X0455D01*
X04616Y00511D02*
X04656D01*
X04507D02*
X04547D01*
X04619Y00512D02*
X04655D01*
X04507D02*
X04545D01*
X04621Y00513D02*
X04654D01*
X04508D02*
X04543D01*
X04623Y00514D02*
X04653D01*
X04508D02*
X0454D01*
X04625Y00515D02*
X04652D01*
X04509D02*
X04538D01*
X04627Y00516D02*
X04651D01*
X0451D02*
X04536D01*
X04629Y00517D02*
X04651D01*
X04511D02*
X04534D01*
X04631Y00518D02*
X0465D01*
X04511D02*
X04533D01*
X04632Y00519D02*
X04649D01*
X04512D02*
X04531D01*
X04634Y0052D02*
X04648D01*
X04513D02*
X0453D01*
X04636Y00521D02*
X04647D01*
X04514D02*
X04528D01*
X04637Y00522D02*
X04646D01*
X04515D02*
X04527D01*
X04639Y00523D02*
X04645D01*
X04516D02*
X04525D01*
X04517Y00524D02*
X04524D01*
X04518Y00525D02*
X04523D01*
X0467Y00527D02*
X04674D01*
X04669Y00528D02*
X04676D01*
X04488D02*
X04492D01*
X04668Y00529D02*
X04677D01*
X04487D02*
X04493D01*
X04666Y0053D02*
X04678D01*
X04486D02*
X04494D01*
X04665Y00531D02*
X04679D01*
X04485D02*
X04496D01*
X04664Y00532D02*
X0468D01*
X04484D02*
X04497D01*
X04663Y00533D02*
X04681D01*
X04484D02*
X04498D01*
X04662Y00534D02*
X04682D01*
X04483D02*
X04499D01*
X0466Y00535D02*
X04682D01*
X04482D02*
X045D01*
X04659Y00536D02*
X04683D01*
X04482D02*
X04501D01*
X04658Y00537D02*
X04684D01*
X04481D02*
X04502D01*
X04658Y00538D02*
X04684D01*
X0448D02*
X04503D01*
X04657Y00539D02*
X04685D01*
X04479D02*
X04504D01*
X04657Y0054D02*
X04685D01*
X04479D02*
X04504D01*
X04657Y00541D02*
X04686D01*
X04578D02*
X04586D01*
X04478D02*
X04504D01*
X04658Y00542D02*
X04687D01*
X0457D02*
X04594D01*
X04478D02*
X04504D01*
X04659Y00543D02*
X04687D01*
X04566D02*
X04598D01*
X04477D02*
X04504D01*
X04659Y00544D02*
X04688D01*
X04563D02*
X04601D01*
X04476D02*
X04504D01*
X0466Y00545D02*
X04688D01*
X0456D02*
X04604D01*
X04476D02*
X04503D01*
X04661Y00546D02*
X04689D01*
X04558D02*
X04607D01*
X04475D02*
X04502D01*
X04661Y00547D02*
X04689D01*
X04556D02*
X04609D01*
X04475D02*
X04502D01*
X04662Y00548D02*
X0469D01*
X04554D02*
X04611D01*
X04474D02*
X04501D01*
X04663Y00549D02*
X0469D01*
X04552D02*
X04613D01*
X04474D02*
X045D01*
X04664Y0055D02*
X04691D01*
X0455D02*
X04614D01*
X04473D02*
X045D01*
X04664Y00551D02*
X04691D01*
X04548D02*
X04616D01*
X04473D02*
X04499D01*
X04665Y00552D02*
X04691D01*
X04547D02*
X04617D01*
X04472D02*
X04499D01*
X04665Y00553D02*
X04692D01*
X04546D02*
X04619D01*
X04472D02*
X04498D01*
X04666Y00554D02*
X04692D01*
X04544D02*
X0462D01*
X04471D02*
X04497D01*
X04666Y00555D02*
X04693D01*
X04543D02*
X04621D01*
X04471D02*
X04497D01*
X04667Y00556D02*
X04693D01*
X04542D02*
X04622D01*
X0447D02*
X04496D01*
X04668Y00557D02*
X04693D01*
X04541D02*
X04623D01*
X0447D02*
X04496D01*
X04668Y00558D02*
X04694D01*
X0454D02*
X04624D01*
X04469D02*
X04495D01*
X04669Y00559D02*
X04694D01*
X04539D02*
X04625D01*
X04469D02*
X04495D01*
X04669Y0056D02*
X04694D01*
X04589D02*
X04626D01*
X04538D02*
X04575D01*
X04469D02*
X04494D01*
X0467Y00561D02*
X04695D01*
X04594D02*
X04627D01*
X04537D02*
X0457D01*
X04468D02*
X04494D01*
X0467Y00562D02*
X04695D01*
X04597D02*
X04628D01*
X04536D02*
X04567D01*
X04468D02*
X04493D01*
X0467Y00563D02*
X04695D01*
X04599D02*
X04629D01*
X04535D02*
X04565D01*
X04468D02*
X04493D01*
X04671Y00564D02*
X04696D01*
X04601D02*
X0463D01*
X04534D02*
X04563D01*
X04467D02*
X04493D01*
X04671Y00565D02*
X04696D01*
X04603D02*
X04631D01*
X04534D02*
X04561D01*
X04467D02*
X04492D01*
X04672Y00566D02*
X04696D01*
X04605D02*
X04631D01*
X04533D02*
X04559D01*
X04467D02*
X04492D01*
X04672Y00567D02*
X04697D01*
X04606D02*
X04632D01*
X04532D02*
X04558D01*
X04466D02*
X04491D01*
X04672Y00568D02*
X04697D01*
X04608D02*
X04633D01*
X04531D02*
X04556D01*
X04466D02*
X04491D01*
X04673Y00569D02*
X04697D01*
X04609D02*
X04633D01*
X04531D02*
X04555D01*
X04466D02*
X04491D01*
X04673Y0057D02*
X04697D01*
X0461D02*
X04634D01*
X0453D02*
X04554D01*
X04466D02*
X0449D01*
X04673Y00571D02*
X04698D01*
X04611D02*
X04635D01*
X0453D02*
X04553D01*
X04465D02*
X0449D01*
X04674Y00572D02*
X04698D01*
X04612D02*
X04635D01*
X04529D02*
X04552D01*
X04465D02*
X0449D01*
X04674Y00573D02*
X04698D01*
X04613D02*
X04636D01*
X04528D02*
X04551D01*
X04465D02*
X04489D01*
X04674Y00574D02*
X04698D01*
X04614D02*
X04636D01*
X04528D02*
X0455D01*
X04465D02*
X04489D01*
X04675Y00575D02*
X04698D01*
X04615D02*
X04637D01*
X04527D02*
X04549D01*
X04464D02*
X04489D01*
X04675Y00576D02*
X04698D01*
X04615D02*
X04637D01*
X04527D02*
X04549D01*
X04464D02*
X04489D01*
X04675Y00577D02*
X04699D01*
X04616D02*
X04638D01*
X04527D02*
X04548D01*
X04464D02*
X04488D01*
X04675Y00578D02*
X04699D01*
X04617D02*
X04638D01*
X04526D02*
X04547D01*
X04464D02*
X04488D01*
X04676Y00579D02*
X04699D01*
X04618D02*
X04639D01*
X04526D02*
X04546D01*
X04464D02*
X04488D01*
X04676Y0058D02*
X04699D01*
X04618D02*
X04639D01*
X04525D02*
X04546D01*
X04463D02*
X04488D01*
X04676Y00581D02*
X04699D01*
X04619D02*
X04639D01*
X04525D02*
X04545D01*
X04463D02*
X04487D01*
X04676Y00582D02*
X04699D01*
X04619D02*
X0464D01*
X04525D02*
X04545D01*
X04463D02*
X04487D01*
X04677Y00583D02*
X047D01*
X0462D02*
X0464D01*
X04524D02*
X04544D01*
X04463D02*
X04487D01*
X04677Y00584D02*
X047D01*
X0462D02*
X0464D01*
X04524D02*
X04544D01*
X04463D02*
X04487D01*
X04677Y00585D02*
X047D01*
X04621D02*
X04641D01*
X04524D02*
X04543D01*
X04463D02*
X04487D01*
X04677Y00586D02*
X047D01*
X04621D02*
X04641D01*
X04523D02*
X04543D01*
X04464D02*
X04487D01*
X04678Y00587D02*
X047D01*
X04622D02*
X04641D01*
X04523D02*
X04542D01*
X04464D02*
X04487D01*
X04678Y00588D02*
X04699D01*
X04622D02*
X04641D01*
X04523D02*
X04542D01*
X04464D02*
X04486D01*
X04679Y00589D02*
X04698D01*
X04622D02*
X04642D01*
X04523D02*
X04542D01*
X04465D02*
X04486D01*
X04682Y0059D02*
X04686D01*
X04623D02*
X04642D01*
X04522D02*
X04541D01*
X04466D02*
X04486D01*
X04623Y00591D02*
X04642D01*
X04522D02*
X04541D01*
X04469D02*
X04485D01*
X04623Y00592D02*
X04642D01*
X04522D02*
X04541D01*
X04481D02*
X04482D01*
X04623Y00593D02*
X04642D01*
X04522D02*
X04541D01*
X04623Y00594D02*
X04642D01*
X04522D02*
X04541D01*
X04624Y00595D02*
X04643D01*
X04522D02*
X0454D01*
X04624Y00596D02*
X04643D01*
X04522D02*
X0454D01*
X04624Y00597D02*
X04643D01*
X04521D02*
X0454D01*
X04624Y00598D02*
X04643D01*
X04521D02*
X0454D01*
X04624Y00599D02*
X04643D01*
X04521D02*
X0454D01*
X04624Y006D02*
X04643D01*
X04521D02*
X0454D01*
X04624Y00601D02*
X04643D01*
X04521D02*
X0454D01*
X04624Y00602D02*
X04643D01*
X04521D02*
X0454D01*
X04624Y00603D02*
X04643D01*
X04521D02*
X0454D01*
X04624Y00604D02*
X04643D01*
X04521D02*
X0454D01*
X04624Y00605D02*
X04643D01*
X04521D02*
X0454D01*
X04624Y00606D02*
X04643D01*
X04521D02*
X0454D01*
X04624Y00607D02*
X04643D01*
X04522D02*
X0454D01*
X04624Y00608D02*
X04643D01*
X04522D02*
X0454D01*
X04623Y00609D02*
X04642D01*
X04522D02*
X04541D01*
X04679Y0061D02*
X04694D01*
X04623D02*
X04642D01*
X04522D02*
X04541D01*
X04678Y00611D02*
X04698D01*
X04623D02*
X04642D01*
X04522D02*
X04541D01*
X04479D02*
X04482D01*
X04678Y00612D02*
X04699D01*
X04623D02*
X04642D01*
X04522D02*
X04541D01*
X04467D02*
X04485D01*
X04678Y00613D02*
X047D01*
X04623D02*
X04642D01*
X04522D02*
X04541D01*
X04465D02*
X04486D01*
X04678Y00614D02*
X047D01*
X04622D02*
X04642D01*
X04523D02*
X04542D01*
X04465D02*
X04487D01*
X04678Y00615D02*
X04701D01*
X04622D02*
X04641D01*
X04523D02*
X04542D01*
X04464D02*
X04487D01*
X04677Y00616D02*
X04701D01*
X04622D02*
X04641D01*
X04523D02*
X04542D01*
X04464D02*
X04487D01*
X04677Y00617D02*
X04701D01*
X04621D02*
X04641D01*
X04523D02*
X04543D01*
X04465D02*
X04487D01*
X04677Y00618D02*
X04701D01*
X04621D02*
X04641D01*
X04524D02*
X04543D01*
X04465D02*
X04488D01*
X04677Y00619D02*
X04701D01*
X0462D02*
X0464D01*
X04524D02*
X04544D01*
X04465D02*
X04488D01*
X04677Y0062D02*
X04701D01*
X0462D02*
X0464D01*
X04524D02*
X04544D01*
X04465D02*
X04488D01*
X04677Y00621D02*
X04701D01*
X04619D02*
X0464D01*
X04524D02*
X04545D01*
X04465D02*
X04488D01*
X04676Y00622D02*
X04701D01*
X04619D02*
X04639D01*
X04525D02*
X04545D01*
X04465D02*
X04489D01*
X04676Y00623D02*
X047D01*
X04618D02*
X04639D01*
X04525D02*
X04546D01*
X04465D02*
X04489D01*
X04676Y00624D02*
X047D01*
X04618D02*
X04639D01*
X04526D02*
X04546D01*
X04466D02*
X04489D01*
X04676Y00625D02*
X047D01*
X04617D02*
X04638D01*
X04526D02*
X04547D01*
X04466D02*
X04489D01*
X04675Y00626D02*
X047D01*
X04616D02*
X04638D01*
X04526D02*
X04548D01*
X04466D02*
X0449D01*
X04675Y00627D02*
X047D01*
X04615D02*
X04637D01*
X04527D02*
X04549D01*
X04466D02*
X0449D01*
X04675Y00628D02*
X04699D01*
X04615D02*
X04637D01*
X04527D02*
X04549D01*
X04466D02*
X0449D01*
X04675Y00629D02*
X04699D01*
X04614D02*
X04636D01*
X04528D02*
X0455D01*
X04466D02*
X0449D01*
X04674Y0063D02*
X04699D01*
X04613D02*
X04636D01*
X04528D02*
X04551D01*
X04467D02*
X04491D01*
X04674Y00631D02*
X04699D01*
X04612D02*
X04635D01*
X04529D02*
X04552D01*
X04467D02*
X04491D01*
X04674Y00632D02*
X04698D01*
X04611D02*
X04635D01*
X04529D02*
X04553D01*
X04467D02*
X04491D01*
X04673Y00633D02*
X04698D01*
X0461D02*
X04634D01*
X0453D02*
X04554D01*
X04467D02*
X04492D01*
X04673Y00634D02*
X04698D01*
X04609D02*
X04634D01*
X04531D02*
X04555D01*
X04468D02*
X04492D01*
X04672Y00635D02*
X04698D01*
X04608D02*
X04633D01*
X04531D02*
X04556D01*
X04468D02*
X04493D01*
X04672Y00636D02*
X04697D01*
X04606D02*
X04632D01*
X04532D02*
X04558D01*
X04468D02*
X04493D01*
X04672Y00637D02*
X04697D01*
X04605D02*
X04632D01*
X04533D02*
X04559D01*
X04468D02*
X04493D01*
X04671Y00638D02*
X04697D01*
X04603D02*
X04631D01*
X04533D02*
X04561D01*
X04469D02*
X04494D01*
X04671Y00639D02*
X04696D01*
X04601D02*
X0463D01*
X04534D02*
X04563D01*
X04469D02*
X04494D01*
X0467Y0064D02*
X04696D01*
X04599D02*
X04629D01*
X04535D02*
X04565D01*
X04469D02*
X04495D01*
X0467Y00641D02*
X04695D01*
X04597D02*
X04628D01*
X04536D02*
X04567D01*
X0447D02*
X04495D01*
X04669Y00642D02*
X04695D01*
X04594D02*
X04628D01*
X04537D02*
X0457D01*
X0447D02*
X04496D01*
X04669Y00643D02*
X04695D01*
X0459D02*
X04627D01*
X04538D02*
X04574D01*
X0447D02*
X04496D01*
X04668Y00644D02*
X04694D01*
X04539D02*
X04626D01*
X04471D02*
X04497D01*
X04668Y00645D02*
X04694D01*
X0454D02*
X04625D01*
X04471D02*
X04497D01*
X04667Y00646D02*
X04693D01*
X04541D02*
X04624D01*
X04472D02*
X04498D01*
X04667Y00647D02*
X04693D01*
X04542D02*
X04623D01*
X04472D02*
X04498D01*
X04666Y00648D02*
X04693D01*
X04543D02*
X04621D01*
X04472D02*
X04499D01*
X04666Y00649D02*
X04692D01*
X04544D02*
X0462D01*
X04473D02*
X04499D01*
X04665Y0065D02*
X04692D01*
X04545D02*
X04619D01*
X04473D02*
X045D01*
X04665Y00651D02*
X04691D01*
X04547D02*
X04618D01*
X04474D02*
X04501D01*
X04664Y00652D02*
X04691D01*
X04548D02*
X04616D01*
X04474D02*
X04501D01*
X04663Y00653D02*
X0469D01*
X0455D02*
X04615D01*
X04475D02*
X04502D01*
X04663Y00654D02*
X0469D01*
X04551D02*
X04613D01*
X04475D02*
X04503D01*
X04662Y00655D02*
X04689D01*
X04553D02*
X04611D01*
X04475D02*
X04503D01*
X04661Y00656D02*
X04688D01*
X04555D02*
X04609D01*
X04476D02*
X04504D01*
X04661Y00657D02*
X04688D01*
X04557D02*
X04607D01*
X04477D02*
X04505D01*
X0466Y00658D02*
X04687D01*
X04559D02*
X04605D01*
X04477D02*
X04506D01*
X0466Y00659D02*
X04687D01*
X04562D02*
X04602D01*
X04478D02*
X04506D01*
X0466Y0066D02*
X04686D01*
X04565D02*
X04599D01*
X04478D02*
X04507D01*
X0466Y00661D02*
X04685D01*
X04569D02*
X04595D01*
X04479D02*
X04507D01*
X0466Y00662D02*
X04685D01*
X04575D02*
X0459D01*
X04479D02*
X04507D01*
X04661Y00663D02*
X04684D01*
X0448D02*
X04507D01*
X04662Y00664D02*
X04683D01*
X04481D02*
X04506D01*
X04663Y00665D02*
X04683D01*
X04481D02*
X04505D01*
X04664Y00666D02*
X04682D01*
X04482D02*
X04504D01*
X04665Y00667D02*
X04681D01*
X04483D02*
X04503D01*
X04666Y00668D02*
X0468D01*
X04483D02*
X04502D01*
X04667Y00669D02*
X0468D01*
X04484D02*
X045D01*
X04669Y0067D02*
X04679D01*
X04485D02*
X04499D01*
X0467Y00671D02*
X04678D01*
X04486D02*
X04498D01*
X04671Y00672D02*
X04677D01*
X04487D02*
X04497D01*
X04672Y00673D02*
X04676D01*
X04488D02*
X04495D01*
X0449Y00674D02*
X04494D01*
X04641Y00676D02*
X04646D01*
X0464Y00677D02*
X04648D01*
X04639Y00678D02*
X04649D01*
X04519D02*
X04526D01*
X04638Y00679D02*
X04649D01*
X04518D02*
X04527D01*
X04636Y0068D02*
X0465D01*
X04517D02*
X04529D01*
X04635Y00681D02*
X04651D01*
X04516D02*
X0453D01*
X04633Y00682D02*
X04652D01*
X04515D02*
X04532D01*
X04632Y00683D02*
X04653D01*
X04515D02*
X04533D01*
X0463Y00684D02*
X04654D01*
X04514D02*
X04535D01*
X04628Y00685D02*
X04654D01*
X04513D02*
X04537D01*
X04626Y00686D02*
X04655D01*
X04512D02*
X04539D01*
X04624Y00687D02*
X04656D01*
X04511D02*
X04541D01*
X04622Y00688D02*
X04657D01*
X0451D02*
X04543D01*
X04619Y00689D02*
X04657D01*
X04509D02*
X04546D01*
X04617Y0069D02*
X04657D01*
X04509D02*
X04548D01*
X04614Y00691D02*
X04657D01*
X04508D02*
X04551D01*
X04611Y00692D02*
X04657D01*
X04508D02*
X04554D01*
X04607Y00693D02*
X04656D01*
X04509D02*
X04558D01*
X04603Y00694D02*
X04656D01*
X0451D02*
X04562D01*
X04599Y00695D02*
X04655D01*
X04511D02*
X04569D01*
X04596Y00696D02*
X04654D01*
X04512D02*
X04572D01*
X04595Y00697D02*
X04653D01*
X04513D02*
X04573D01*
X04594Y00698D02*
X04652D01*
X04515D02*
X04573D01*
X04594Y00699D02*
X04651D01*
X04516D02*
X04573D01*
X04594Y007D02*
X04649D01*
X04517D02*
X04573D01*
X04594Y00701D02*
X04648D01*
X04519D02*
X04573D01*
X04594Y00702D02*
X04646D01*
X0452D02*
X04573D01*
X04594Y00703D02*
X04644D01*
X04522D02*
X04573D01*
X04594Y00704D02*
X04643D01*
X04523D02*
X04573D01*
X04594Y00705D02*
X04641D01*
X04525D02*
X04573D01*
X04594Y00706D02*
X04639D01*
X04527D02*
X04573D01*
X04594Y00707D02*
X04637D01*
X04529D02*
X04573D01*
X04594Y00708D02*
X04635D01*
X0453D02*
X04573D01*
X04594Y00709D02*
X04633D01*
X04533D02*
X04573D01*
X04594Y0071D02*
X0463D01*
X04535D02*
X04572D01*
X04594Y00711D02*
X04628D01*
X04537D02*
X04572D01*
X04594Y00712D02*
X04625D01*
X04539D02*
X04572D01*
X04594Y00713D02*
X04622D01*
X04542D02*
X04572D01*
X04595Y00714D02*
X04619D01*
X04545D02*
X04572D01*
X04595Y00715D02*
X04615D01*
X04548D02*
X04572D01*
X04595Y00716D02*
X0461D01*
X04552D02*
X04571D01*
X04596Y00717D02*
X04604D01*
X04556D02*
X0457D01*
X04561Y00718D02*
X04567D01*
M02*
