%FSTAX25Y25*%
%MOIN*%
G70*
G01*
G75*
G04 Layer_Color=8388736*
%ADD10R,0.04724X0.05512*%
%ADD11R,0.35039X0.41929*%
%ADD12R,0.09449X0.04134*%
%ADD13R,0.05512X0.04724*%
%ADD14R,0.08465X0.11221*%
%ADD15O,0.01181X0.05709*%
%ADD16O,0.05709X0.01181*%
%ADD17C,0.01000*%
%ADD18C,0.01500*%
%ADD19C,0.03000*%
%ADD20C,0.02000*%
%ADD21C,0.11811*%
%ADD22C,0.11000*%
%ADD23C,0.06693*%
%ADD24O,0.03937X0.07874*%
%ADD25O,0.03937X0.07874*%
%ADD26C,0.07874*%
%ADD27R,0.04724X0.04724*%
%ADD28C,0.04724*%
%ADD29C,0.15748*%
%ADD30C,0.05906*%
%ADD31R,0.05906X0.05906*%
%ADD32R,0.07874X0.07874*%
%ADD33R,0.05906X0.05906*%
%ADD34O,0.30000X0.15000*%
%ADD35C,0.06299*%
%ADD36C,0.05000*%
%ADD37C,0.04000*%
%ADD38C,0.02756*%
%ADD39R,0.02362X0.03347*%
%ADD40R,0.03347X0.02362*%
%ADD41R,0.06693X0.06693*%
%ADD42R,0.06693X0.06693*%
%ADD43C,0.05000*%
%ADD44C,0.10000*%
%ADD45C,0.00984*%
%ADD46C,0.00787*%
%ADD47C,0.02362*%
%ADD48R,0.05524X0.06312*%
%ADD49R,0.35839X0.42729*%
%ADD50R,0.10249X0.04934*%
%ADD51R,0.06312X0.05524*%
%ADD52R,0.09265X0.12020*%
%ADD53O,0.01981X0.06509*%
%ADD54O,0.06509X0.01981*%
%ADD55C,0.12611*%
%ADD56C,0.11800*%
%ADD57C,0.07493*%
%ADD58O,0.04737X0.08674*%
%ADD59O,0.04737X0.08674*%
%ADD60C,0.08674*%
%ADD61R,0.05524X0.05524*%
%ADD62C,0.05524*%
%ADD63C,0.16548*%
%ADD64C,0.06706*%
%ADD65R,0.06706X0.06706*%
%ADD66R,0.08674X0.08674*%
%ADD67R,0.06706X0.06706*%
%ADD68O,0.30800X0.15800*%
%ADD69C,0.07099*%
%ADD70C,0.05800*%
%ADD71C,0.04800*%
%ADD72C,0.03556*%
D48*
X0129957Y0027D02*
D03*
X0137043D02*
D03*
X0105457D02*
D03*
X0112543D02*
D03*
X0080457D02*
D03*
X0087543D02*
D03*
X0388957Y01315D02*
D03*
X0396043D02*
D03*
X0113543Y005D02*
D03*
X0106457D02*
D03*
X0333043Y01355D02*
D03*
X0325957D02*
D03*
X0460543Y0218D02*
D03*
X0453457D02*
D03*
X0481457Y0218D02*
D03*
X0488543D02*
D03*
D49*
X0489976Y0313D02*
D03*
D50*
X0449228Y0303D02*
D03*
Y0323D02*
D03*
D51*
X0149Y0068957D02*
D03*
Y0076043D02*
D03*
X0149Y0101043D02*
D03*
Y0093957D02*
D03*
X0193Y0123457D02*
D03*
Y0130543D02*
D03*
D52*
X04845Y0196768D02*
D03*
Y0180232D02*
D03*
X04585Y0196768D02*
D03*
Y0180232D02*
D03*
D53*
X0199173Y0116634D02*
D03*
X0201142D02*
D03*
X020311D02*
D03*
X0205079D02*
D03*
X0207047D02*
D03*
X0209016D02*
D03*
X0210984D02*
D03*
X0212953D02*
D03*
X0214921D02*
D03*
X021689D02*
D03*
X0218858D02*
D03*
X0220827D02*
D03*
Y0083366D02*
D03*
X0218858D02*
D03*
X021689D02*
D03*
X0214921D02*
D03*
X0212953D02*
D03*
X0210984D02*
D03*
X0209016D02*
D03*
X0207047D02*
D03*
X0205079D02*
D03*
X020311D02*
D03*
X0201142D02*
D03*
X0199173D02*
D03*
D54*
X0226634Y0110827D02*
D03*
Y0108858D02*
D03*
Y010689D02*
D03*
Y0104921D02*
D03*
Y0102953D02*
D03*
Y0100984D02*
D03*
Y0099016D02*
D03*
Y0097047D02*
D03*
Y0095079D02*
D03*
Y009311D02*
D03*
Y0091142D02*
D03*
Y0089173D02*
D03*
X0193366D02*
D03*
Y0091142D02*
D03*
Y009311D02*
D03*
Y0095079D02*
D03*
Y0097047D02*
D03*
Y0099016D02*
D03*
Y0100984D02*
D03*
Y0102953D02*
D03*
Y0104921D02*
D03*
Y010689D02*
D03*
Y0108858D02*
D03*
Y0110827D02*
D03*
D55*
X0284Y016D02*
D03*
X047Y0148307D02*
D03*
X0482945Y0142945D02*
D03*
X047Y0111693D02*
D03*
X0457055Y0117055D02*
D03*
Y0142945D02*
D03*
X0482945Y0117055D02*
D03*
X0015Y001D02*
D03*
X05Y001D02*
D03*
X0048Y0362D02*
D03*
D56*
X0485Y0265591D02*
D03*
Y025D02*
D03*
X004Y0234409D02*
D03*
Y025D02*
D03*
X0163228Y002D02*
D03*
X0178819D02*
D03*
X0194409D02*
D03*
X021D02*
D03*
X0243228D02*
D03*
X0258819D02*
D03*
X027441D02*
D03*
X029D02*
D03*
X032441D02*
D03*
X034D02*
D03*
X037441D02*
D03*
X039D02*
D03*
D57*
X0164Y0095D02*
D03*
Y0075D02*
D03*
D58*
X01315Y00495D02*
D03*
X01415D02*
D03*
D59*
X01365D02*
D03*
D60*
X0034409Y001D02*
D03*
X006D02*
D03*
X0410917Y0078D02*
D03*
X0163488Y0143D02*
D03*
X0155614Y0119378D02*
D03*
Y0166622D02*
D03*
X0107583Y0119378D02*
D03*
Y0166622D02*
D03*
D61*
X03875Y01475D02*
D03*
D62*
X03975D02*
D03*
X04075D02*
D03*
D63*
X0055Y0155D02*
D03*
Y0192402D02*
D03*
Y0327401D02*
D03*
Y029D02*
D03*
D64*
X005Y01D02*
D03*
Y007D02*
D03*
Y008D02*
D03*
Y009D02*
D03*
X022Y015D02*
D03*
X023D02*
D03*
X024D02*
D03*
X0325Y015D02*
D03*
X03025Y00645D02*
D03*
Y00745D02*
D03*
Y01145D02*
D03*
X02725D02*
D03*
Y00745D02*
D03*
Y00645D02*
D03*
X03575D02*
D03*
Y00745D02*
D03*
Y01145D02*
D03*
X03275D02*
D03*
Y00745D02*
D03*
Y00645D02*
D03*
X0127Y0015D02*
D03*
X0102D02*
D03*
X0079D02*
D03*
X0198Y0161D02*
D03*
D65*
X025Y015D02*
D03*
X0335Y015D02*
D03*
X0137Y0015D02*
D03*
X0112D02*
D03*
X0089D02*
D03*
D66*
X0380996Y0078D02*
D03*
D67*
X0198Y0151D02*
D03*
D68*
X048Y0362D02*
D03*
D69*
X0435843Y002D02*
D03*
X0426D02*
D03*
X0416157D02*
D03*
X0479843D02*
D03*
X047D02*
D03*
X0460157D02*
D03*
D70*
X05Y03D02*
D03*
X049D02*
D03*
X048D02*
D03*
X05Y031D02*
D03*
X049D02*
D03*
X048D02*
D03*
X05Y032D02*
D03*
X049D02*
D03*
X048D02*
D03*
X05Y033D02*
D03*
X049D02*
D03*
X048D02*
D03*
X0193Y0136D02*
D03*
D71*
X02595Y01145D02*
D03*
X0478158Y0038D02*
D03*
D72*
X0249Y0085D02*
D03*
X013Y0032D02*
D03*
X0106Y0034D02*
D03*
X0081Y0035D02*
D03*
X0108087Y0044D02*
D03*
X0319Y0049D02*
D03*
X0266D02*
D03*
X0447Y016D02*
D03*
X0199346Y0078D02*
D03*
X0186Y0092D02*
D03*
X0177Y0038D02*
D03*
X0197D02*
D03*
X0217D02*
D03*
X0285Y0054D02*
D03*
X0391Y0087D02*
D03*
X0343Y0069D02*
D03*
X0382Y0131D02*
D03*
X0122Y0085D02*
D03*
M02*
