%FSTAX25Y25*%
%MOIN*%
G70*
G01*
G75*
G04 Layer_Color=128*
%ADD10R,0.04724X0.05512*%
%ADD11R,0.35039X0.41929*%
%ADD12R,0.09449X0.04134*%
%ADD13R,0.05512X0.04724*%
%ADD14R,0.08465X0.11221*%
%ADD15O,0.01181X0.05709*%
%ADD16O,0.05709X0.01181*%
%ADD17C,0.01000*%
%ADD18C,0.01500*%
%ADD19C,0.03000*%
%ADD20C,0.02000*%
%ADD21C,0.11811*%
%ADD22C,0.11000*%
%ADD23C,0.06693*%
%ADD24O,0.03937X0.07874*%
%ADD25O,0.03937X0.07874*%
%ADD26C,0.07874*%
%ADD27R,0.04724X0.04724*%
%ADD28C,0.04724*%
%ADD29C,0.15748*%
%ADD30C,0.05906*%
%ADD31R,0.05906X0.05906*%
%ADD32R,0.07874X0.07874*%
%ADD33R,0.05906X0.05906*%
%ADD34O,0.30000X0.15000*%
%ADD35C,0.06299*%
%ADD36C,0.05000*%
%ADD37C,0.04000*%
%ADD38C,0.02756*%
%ADD39R,0.02362X0.03347*%
%ADD40R,0.03347X0.02362*%
%ADD41R,0.06693X0.06693*%
%ADD42R,0.06693X0.06693*%
%ADD43C,0.05000*%
%ADD44C,0.10000*%
%ADD45C,0.00984*%
%ADD46C,0.00787*%
%ADD47C,0.02362*%
%ADD48R,0.05524X0.06312*%
%ADD49R,0.35839X0.42729*%
%ADD50R,0.10249X0.04934*%
%ADD51R,0.06312X0.05524*%
%ADD52R,0.09265X0.12020*%
%ADD53O,0.01981X0.06509*%
%ADD54O,0.06509X0.01981*%
%ADD55C,0.12611*%
%ADD56C,0.11800*%
%ADD57C,0.07493*%
%ADD58O,0.04737X0.08674*%
%ADD59O,0.04737X0.08674*%
%ADD60C,0.08674*%
%ADD61R,0.05524X0.05524*%
%ADD62C,0.05524*%
%ADD63C,0.16548*%
%ADD64C,0.06706*%
%ADD65R,0.06706X0.06706*%
%ADD66R,0.08674X0.08674*%
%ADD67R,0.06706X0.06706*%
%ADD68O,0.30800X0.15800*%
%ADD69C,0.07099*%
%ADD70C,0.05800*%
%ADD71C,0.04800*%
%ADD72C,0.03556*%
%ADD73R,0.03162X0.04147*%
%ADD74R,0.04147X0.03162*%
%ADD75R,0.07493X0.07493*%
%ADD76R,0.07493X0.07493*%
D10*
X04Y008D02*
D03*
X0392913D02*
D03*
X0336457Y00595D02*
D03*
X0343543D02*
D03*
X0281457D02*
D03*
X0288543D02*
D03*
X0131957Y01335D02*
D03*
X0139043D02*
D03*
D13*
X01715Y0035957D02*
D03*
Y0043043D02*
D03*
X01625Y0035957D02*
D03*
Y0043043D02*
D03*
X01915Y0035957D02*
D03*
Y0043043D02*
D03*
X02115Y0035957D02*
D03*
Y0043043D02*
D03*
X01825Y0035957D02*
D03*
Y0043043D02*
D03*
X02025Y0035957D02*
D03*
Y0043043D02*
D03*
X00375Y0025457D02*
D03*
Y0032543D02*
D03*
X00465Y0032543D02*
D03*
Y0025457D02*
D03*
D39*
X0138665Y0143768D02*
D03*
X0131185D02*
D03*
X0134925Y0152232D02*
D03*
D40*
X0399189Y006874D02*
D03*
Y006126D02*
D03*
X0390724Y0065D02*
D03*
X0280768Y007076D02*
D03*
Y007824D02*
D03*
X0289232Y00745D02*
D03*
X0335768Y007076D02*
D03*
Y007824D02*
D03*
X0344232Y00745D02*
D03*
D41*
X0154Y014735D02*
D03*
Y013365D02*
D03*
D42*
X028935Y00945D02*
D03*
X027565D02*
D03*
X034435Y00945D02*
D03*
X033065D02*
D03*
M02*
