%FSTAX25Y25*%
%MOIN*%
G70*
G01*
G75*
%ADD10C,0.01000*%
%ADD11C,0.00394*%
%ADD12C,0.00500*%
%ADD13C,0.00667*%
%ADD14C,0.00400*%
D10*
X0005Y-0D02*
Y037D01*
X009D01*
Y0175D02*
Y037D01*
Y0175D02*
X044D01*
Y037D01*
X0515D01*
Y-0D02*
Y037D01*
X0005Y-0D02*
X0515D01*
D11*
X0128705Y0055405D02*
G03*
X0144295Y0055405I0007795J-0005906D01*
G01*
X0201732Y0110236D02*
G03*
X0201732Y0110236I-0001969J0D01*
G01*
X0400689Y0077244D02*
Y0082756D01*
X0392224Y0077244D02*
Y0082756D01*
X0400689D01*
X0392224Y0077244D02*
X0400689D01*
X0129268Y0024244D02*
Y0029756D01*
X0137732Y0024244D02*
Y0029756D01*
X0129268D02*
X0137732D01*
X0129268Y0024244D02*
X0137732D01*
X0104768D02*
Y0029756D01*
X0113232Y0024244D02*
Y0029756D01*
X0104768D02*
X0113232D01*
X0104768Y0024244D02*
X0113232D01*
X0079768D02*
Y0029756D01*
X0088232Y0024244D02*
Y0029756D01*
X0079768D02*
X0088232D01*
X0079768Y0024244D02*
X0088232D01*
X0335768Y0056744D02*
Y0062256D01*
X0344232Y0056744D02*
Y0062256D01*
X0335768Y0056744D02*
X0344232D01*
X0335768Y0062256D02*
X0344232D01*
X0280768Y0056744D02*
Y0062256D01*
X0289232Y0056744D02*
Y0062256D01*
X0280768Y0056744D02*
X0289232D01*
X0280768Y0062256D02*
X0289232D01*
X0388268Y0128744D02*
Y0134256D01*
X0396732Y0128744D02*
Y0134256D01*
X0388268D02*
X0396732D01*
X0388268Y0128744D02*
X0396732D01*
X0168744Y0035268D02*
X0174256D01*
X0168744Y0043732D02*
X0174256D01*
Y0035268D02*
Y0043732D01*
X0168744Y0035268D02*
Y0043732D01*
X0159744Y0035268D02*
X0165256D01*
X0159744Y0043732D02*
X0165256D01*
Y0035268D02*
Y0043732D01*
X0159744Y0035268D02*
Y0043732D01*
X0128705Y0055405D02*
X0144295D01*
X046537Y0292232D02*
X0500803D01*
X046537Y0333768D02*
X0500803D01*
Y0292232D02*
Y0333768D01*
X046537Y0292232D02*
Y0333768D01*
X0131268Y0130744D02*
Y0136256D01*
X0139732Y0130744D02*
Y0136256D01*
X0131268Y0130744D02*
X0139732D01*
X0131268Y0136256D02*
X0139732D01*
X0188744Y0035268D02*
X0194256D01*
X0188744Y0043732D02*
X0194256D01*
Y0035268D02*
Y0043732D01*
X0188744Y0035268D02*
Y0043732D01*
X0208744Y0035268D02*
X0214256D01*
X0208744Y0043732D02*
X0214256D01*
Y0035268D02*
Y0043732D01*
X0208744Y0035268D02*
Y0043732D01*
X0114232Y0047244D02*
Y0052756D01*
X0105768Y0047244D02*
Y0052756D01*
Y0047244D02*
X0114232D01*
X0105768Y0052756D02*
X0114232D01*
X0333732Y0132744D02*
Y0138256D01*
X0325268Y0132744D02*
Y0138256D01*
Y0132744D02*
X0333732D01*
X0325268Y0138256D02*
X0333732D01*
X012902Y0145244D02*
X0140831D01*
X012902Y0150756D02*
X0140831D01*
Y0145244D02*
Y0150756D01*
X012902Y0145244D02*
Y0150756D01*
X0397713Y0059095D02*
Y0070906D01*
X0392201Y0059095D02*
Y0070906D01*
X0397713D01*
X0392201Y0059095D02*
X0397713D01*
X0282244Y0068594D02*
Y0080406D01*
X0287756Y0068594D02*
Y0080406D01*
X0282244Y0068594D02*
X0287756D01*
X0282244Y0080406D02*
X0287756D01*
X0337244Y0068594D02*
Y0080406D01*
X0342756Y0068594D02*
Y0080406D01*
X0337244Y0068594D02*
X0342756D01*
X0337244Y0080406D02*
X0342756D01*
X0146244Y0068268D02*
X0151756D01*
X0146244Y0076732D02*
X0151756D01*
X0146244Y0068268D02*
Y0076732D01*
X0151756Y0068268D02*
Y0076732D01*
X0146244Y0101732D02*
X0151756D01*
X0146244Y0093268D02*
X0151756D01*
Y0101732D01*
X0146244Y0093268D02*
Y0101732D01*
X0190244Y0122768D02*
X0195756D01*
X0190244Y0131232D02*
X0195756D01*
X0190244Y0122768D02*
Y0131232D01*
X0195756Y0122768D02*
Y0131232D01*
X0179744Y0035268D02*
X0185256D01*
X0179744Y0043732D02*
X0185256D01*
Y0035268D02*
Y0043732D01*
X0179744Y0035268D02*
Y0043732D01*
X0199744Y0035268D02*
X0205256D01*
X0199744Y0043732D02*
X0205256D01*
Y0035268D02*
Y0043732D01*
X0199744Y0035268D02*
Y0043732D01*
X0461232Y0215244D02*
Y0220756D01*
X0452768Y0215244D02*
Y0220756D01*
Y0215244D02*
X0461232D01*
X0452768Y0220756D02*
X0461232D01*
X0478447Y0178657D02*
X0490553D01*
X0492374Y0180478D01*
Y0198343D01*
X0476626D02*
X0492374D01*
X0476626Y0180478D02*
Y0198343D01*
Y0180478D02*
X0478447Y0178657D01*
X0480768Y0215244D02*
Y0220756D01*
X0489232Y0215244D02*
Y0220756D01*
X0480768D02*
X0489232D01*
X0480768Y0215244D02*
X0489232D01*
X0452447Y0178657D02*
X0464553D01*
X0466374Y0180478D01*
Y0198343D01*
X0450626D02*
X0466374D01*
X0450626Y0180478D02*
Y0198343D01*
Y0180478D02*
X0452447Y0178657D01*
X0196221Y0086221D02*
X022378D01*
X0196221Y0113779D02*
X022378D01*
Y0086221D02*
Y0113779D01*
X0196221Y0086221D02*
Y0113779D01*
X0034744Y0024768D02*
X0040256D01*
X0034744Y0033232D02*
X0040256D01*
Y0024768D02*
Y0033232D01*
X0034744Y0024768D02*
Y0033232D01*
X0043744Y0033232D02*
X0049256D01*
X0043744Y0024768D02*
X0049256D01*
X0043744D02*
Y0033232D01*
X0049256Y0024768D02*
Y0033232D01*
D12*
X0278095Y016D02*
X0289906D01*
X0284Y0154095D02*
Y0165905D01*
X04815Y0265591D02*
X04885D01*
X0485Y026209D02*
Y0269091D01*
X04815Y025D02*
X04885D01*
X0485Y02465D02*
Y02535D01*
X00365Y0234409D02*
X00435D01*
X004Y0230909D02*
Y0237909D01*
X00365Y025D02*
X00435D01*
X004Y02465D02*
Y02535D01*
X0159728Y002D02*
X0166728D01*
X0163228Y00165D02*
Y00235D01*
X0175319Y002D02*
X0182319D01*
X0178819Y00165D02*
Y00235D01*
X0190909Y002D02*
X0197909D01*
X0194409Y00165D02*
Y00235D01*
X02065Y002D02*
X02135D01*
X021Y00165D02*
Y00235D01*
X0162031Y0095D02*
X0165969D01*
X0164Y0093032D02*
Y0096969D01*
X0162031Y0075D02*
X0165969D01*
X0164Y0073032D02*
Y0076969D01*
X0467047Y0148307D02*
X0472953D01*
X047Y0145354D02*
Y015126D01*
X0479992Y0142945D02*
X0485898D01*
X0482945Y0139992D02*
Y0145898D01*
X0467047Y0111693D02*
X0472953D01*
X047Y010874D02*
Y0114646D01*
X0454102Y0117055D02*
X0460008D01*
X0457055Y0114102D02*
Y0120008D01*
X0454102Y0142945D02*
X0460008D01*
X0457055Y0139992D02*
Y0145898D01*
X0479992Y0117055D02*
X0485898D01*
X0482945Y0114102D02*
Y0120008D01*
X0129728Y00495D02*
X0133272D01*
X01315Y0047728D02*
Y0051272D01*
X0134728Y00495D02*
X0138272D01*
X01365Y0047728D02*
Y0051272D01*
X0139728Y00495D02*
X0143272D01*
X01415Y0047728D02*
Y0051272D01*
X0032047Y001D02*
X0036772D01*
X0034409Y0007638D02*
Y0012362D01*
X0057638Y001D02*
X0062362D01*
X006Y0007638D02*
Y0012362D01*
X0386122Y01475D02*
X0388878D01*
X03875Y0146122D02*
Y0148878D01*
X0396122Y01475D02*
X0398878D01*
X03975Y0146122D02*
Y0148878D01*
X0406122Y01475D02*
X0408878D01*
X04075Y0146122D02*
Y0148878D01*
X0239728Y002D02*
X0246728D01*
X0243228Y00165D02*
Y00235D01*
X0255319Y002D02*
X0262319D01*
X0258819Y00165D02*
Y00235D01*
X027091Y002D02*
X0277909D01*
X027441Y00165D02*
Y00235D01*
X02865Y002D02*
X02935D01*
X029Y00165D02*
Y00235D01*
X0051063Y0155D02*
X0058937D01*
X0055Y0151063D02*
Y0158937D01*
X0051063Y0192402D02*
X0058937D01*
X0055Y0188464D02*
Y0196338D01*
X032091Y002D02*
X0327909D01*
X032441Y00165D02*
Y00235D01*
X03365Y002D02*
X03435D01*
X034Y00165D02*
Y00235D01*
X0048425Y01D02*
X0051575D01*
X005Y0098425D02*
Y0101575D01*
X0048425Y007D02*
X0051575D01*
X005Y0068425D02*
Y0071575D01*
X0048425Y008D02*
X0051575D01*
X005Y0078425D02*
Y0081575D01*
X0048425Y009D02*
X0051575D01*
X005Y0088425D02*
Y0091575D01*
X0218228Y015D02*
X0221772D01*
X022Y0148228D02*
Y0151772D01*
X0228228Y015D02*
X0231772D01*
X023Y0148228D02*
Y0151772D01*
X0238228Y015D02*
X0241772D01*
X024Y0148228D02*
Y0151772D01*
X0248228Y015D02*
X0251772D01*
X025Y0148228D02*
Y0151772D01*
X037091Y002D02*
X0377909D01*
X037441Y00165D02*
Y00235D01*
X03865Y002D02*
X03935D01*
X039Y00165D02*
Y00235D01*
X0333228Y015D02*
X0336772D01*
X0335Y0148228D02*
Y0151772D01*
X0323228Y015D02*
X0326772D01*
X0325Y0148228D02*
Y0151772D01*
X0051063Y0327401D02*
X0058937D01*
X0055Y0323464D02*
Y0331339D01*
X0051063Y029D02*
X0058937D01*
X0055Y0286063D02*
Y0293937D01*
X0379496Y0078D02*
X0382496D01*
X0380996Y00765D02*
Y00795D01*
X0409417Y0078D02*
X0412417D01*
X0410917Y00765D02*
Y00795D01*
X016152Y0143D02*
X0165457D01*
X0163488Y0141031D02*
Y0144968D01*
X0153646Y0119378D02*
X0157583D01*
X0155614Y0117409D02*
Y0121346D01*
X0153646Y0166622D02*
X0157583D01*
X0155614Y0164654D02*
Y016859D01*
X0105614Y0119378D02*
X0109551D01*
X0107583Y0117409D02*
Y0121346D01*
X0105614Y0166622D02*
X0109551D01*
X0107583Y0164654D02*
Y016859D01*
X0300925Y00645D02*
X0304075D01*
X03025Y0062925D02*
Y0066075D01*
X0300925Y00745D02*
X0304075D01*
X03025Y0072925D02*
Y0076075D01*
X0300925Y01145D02*
X0304075D01*
X03025Y0112925D02*
Y0116075D01*
X0270925Y01145D02*
X0274075D01*
X02725Y0112925D02*
Y0116075D01*
X0270925Y00745D02*
X0274075D01*
X02725Y0072925D02*
Y0076075D01*
X0270925Y00645D02*
X0274075D01*
X02725Y0062925D02*
Y0066075D01*
X0355925Y00645D02*
X0359075D01*
X03575Y0062925D02*
Y0066075D01*
X0355925Y00745D02*
X0359075D01*
X03575Y0072925D02*
Y0076075D01*
X0355925Y01145D02*
X0359075D01*
X03575Y0112925D02*
Y0116075D01*
X0325925Y01145D02*
X0329075D01*
X03275Y0112925D02*
Y0116075D01*
X0325925Y00745D02*
X0329075D01*
X03275Y0072925D02*
Y0076075D01*
X0325925Y00645D02*
X0329075D01*
X03275Y0062925D02*
Y0066075D01*
X0135228Y0015D02*
X0138772D01*
X0137Y0013228D02*
Y0016772D01*
X0125228Y0015D02*
X0128772D01*
X0127Y0013228D02*
Y0016772D01*
X0100228Y0015D02*
X0103772D01*
X0102Y0013228D02*
Y0016772D01*
X0110228Y0015D02*
X0113772D01*
X0112Y0013228D02*
Y0016772D01*
X0077228Y0015D02*
X0080772D01*
X0079Y0013228D02*
Y0016772D01*
X0087228Y0015D02*
X0090772D01*
X0089Y0013228D02*
Y0016772D01*
X0196228Y0161D02*
X0199772D01*
X0198Y0159228D02*
Y0162772D01*
X0196228Y0151D02*
X0199772D01*
X0198Y0149228D02*
Y0152772D01*
X0009094Y001D02*
X0020906D01*
X0015Y0004095D02*
Y0015905D01*
X0494094Y001D02*
X0505905D01*
X05Y0004094D02*
Y0015905D01*
X0474094Y0362D02*
X0485906D01*
X048Y0356095D02*
Y0367905D01*
X0042094Y0362D02*
X0053905D01*
X0048Y0356094D02*
Y0367905D01*
X0433874Y002D02*
X0437811D01*
X0435843Y0018032D02*
Y0021969D01*
X0424031Y002D02*
X0427969D01*
X0426Y0018032D02*
Y0021969D01*
X0414189Y002D02*
X0418126D01*
X0416157Y0018032D02*
Y0021969D01*
X0477874Y002D02*
X0481811D01*
X0479843Y0018032D02*
Y0021969D01*
X0468032Y002D02*
X0471969D01*
X047Y0018032D02*
Y0021969D01*
X0458189Y002D02*
X0462126D01*
X0460157Y0018032D02*
Y0021969D01*
X04985Y03D02*
X05015D01*
X05Y02985D02*
Y03015D01*
X04885Y03D02*
X04915D01*
X049Y02985D02*
Y03015D01*
X04785Y03D02*
X04815D01*
X048Y02985D02*
Y03015D01*
X04985Y031D02*
X05015D01*
X05Y03085D02*
Y03115D01*
X04885Y031D02*
X04915D01*
X049Y03085D02*
Y03115D01*
X04785Y031D02*
X04815D01*
X048Y03085D02*
Y03115D01*
X04985Y032D02*
X05015D01*
X05Y03185D02*
Y03215D01*
X04885Y032D02*
X04915D01*
X049Y03185D02*
Y03215D01*
X04785Y032D02*
X04815D01*
X048Y03185D02*
Y03215D01*
X04985Y033D02*
X05015D01*
X05Y03285D02*
Y03315D01*
X04885Y033D02*
X04915D01*
X049Y03285D02*
Y03315D01*
X04785Y033D02*
X04815D01*
X048Y03285D02*
Y03315D01*
X01915Y0136D02*
X01945D01*
X0193Y01345D02*
Y01375D01*
X0258Y01145D02*
X0261D01*
X02595Y0113D02*
Y0116D01*
X024841Y0085D02*
X024959D01*
X0249Y0084409D02*
Y008559D01*
X0476657Y0038D02*
X0479658D01*
X0478158Y00365D02*
Y00395D01*
X0129Y0032D02*
X0131D01*
X013Y0031D02*
Y0033D01*
X0105Y0034D02*
X0107D01*
X0106Y0033D02*
Y0035D01*
X008D02*
X0082D01*
X0081Y0034D02*
Y0036D01*
X0107087Y0044D02*
X0109087D01*
X0108087Y0043D02*
Y0045D01*
X0318Y0049D02*
X032D01*
X0319Y0048D02*
Y005D01*
X0265Y0049D02*
X0267D01*
X0266Y0048D02*
Y005D01*
X0446Y016D02*
X0448D01*
X0447Y0159D02*
Y0161D01*
X0198756Y0078D02*
X0199937D01*
X0199346Y0077409D02*
Y0078591D01*
X0185409Y0092D02*
X0186591D01*
X0186Y0091409D02*
Y009259D01*
X0176409Y0038D02*
X0177591D01*
X0177Y0037409D02*
Y0038591D01*
X0196409Y0038D02*
X0197591D01*
X0197Y0037409D02*
Y0038591D01*
X0216409Y0038D02*
X021759D01*
X0217Y0037409D02*
Y0038591D01*
X0284409Y0054D02*
X0285591D01*
X0285Y0053409D02*
Y005459D01*
X0390409Y0087D02*
X039159D01*
X0391Y0086409D02*
Y008759D01*
X0342409Y0069D02*
X034359D01*
X0343Y006841D02*
Y0069591D01*
X038141Y0131D02*
X0382591D01*
X0382Y0130409D02*
Y0131591D01*
X0121409Y0085D02*
X0122591D01*
X0122Y0084409D02*
Y008559D01*
M02*
