M48
;Layer_Color=9474304
;FILE_FORMAT=2:5
INCH,LZ
;TYPE=PLATED
T1F00S00C0.01181
T2F00S00C0.02000
T3F00S00C0.02756
T4F00S00C0.03000
T5F00S00C0.03150
T6F00S00C0.03543
T7F00S00C0.03937
T8F00S00C0.04724
T9F00S00C0.05906
T10F00S00C0.07000
T11F00S00C0.07874
T12F00S00C0.11811
%
T01
X0177Y0038
X0197
X0217
X0285Y0054
X0391Y0087
X0382Y0131
X0343Y0069
X0249Y0085
X0199346Y0078
X0186Y0092
X0122Y0085
T02
X0081Y0035
X0106Y0034
X0108087Y0044
X013Y0032
X0266Y0049
X0319
X0447Y016
T03
X03975Y01475
X04075
X03875
T04
X0478158Y0038
X0410917Y0078
X0380996
X02595Y01145
X0193Y0136
X048Y03
X049
X05
Y031
X049
X048
Y032
X049
X05
Y033
X049
X048
T05
X02725Y00645
Y00745
X03025
Y00645
X03275
Y00745
X03575
Y00645
Y01145
X03275
X03025
X02725
X005Y01
Y009
Y008
Y007
T06
X0079Y0015
X0089
X0102
X0112
X0127
X0137
X01365Y00495
X01315
X01415
X024Y015
X025
X0325Y015
X0335
X023Y015
X022
X0198Y0151
Y0161
T07
X0416157Y002
X0426
X0435843
X0460157
X047
X0479843
X0164Y0075
Y0095
X0155614Y0119378
X0163488Y0143
X0155614Y0166622
X0107583
Y0119378
T08
X0034409Y001
X006
T09
X0457055Y0117055
X047Y0111693
X0482945Y0117055
Y0142945
X047Y0148307
X0457055Y0142945
T10
X0163228Y002
X0178819
X0194409
X021
X0243228
X0258819
X027441
X029
X032441
X034
X037441
X039
X004Y0234409
Y025
X0485
Y0265591
T11
X0055Y0155
Y0192402
Y029
Y0327401
T12
X0015Y001
X05Y001
X0284Y016
X0048Y0362
X048Y0362
M30
