%FSTAX25Y25*%
%MOIN*%
G70*
G01*
G75*
G04 Layer_Color=16711935*
%ADD10R,0.04724X0.05512*%
%ADD11R,0.35039X0.41929*%
%ADD12R,0.09449X0.04134*%
%ADD13R,0.05512X0.04724*%
%ADD14R,0.08465X0.11221*%
%ADD15O,0.01181X0.05709*%
%ADD16O,0.05709X0.01181*%
%ADD17C,0.01000*%
%ADD18C,0.01500*%
%ADD19C,0.03000*%
%ADD20C,0.02000*%
%ADD21C,0.11811*%
%ADD22C,0.11000*%
%ADD23C,0.06693*%
%ADD24O,0.03937X0.07874*%
%ADD25O,0.03937X0.07874*%
%ADD26C,0.07874*%
%ADD27R,0.04724X0.04724*%
%ADD28C,0.04724*%
%ADD29C,0.15748*%
%ADD30C,0.05906*%
%ADD31R,0.05906X0.05906*%
%ADD32R,0.07874X0.07874*%
%ADD33R,0.05906X0.05906*%
%ADD34O,0.30000X0.15000*%
%ADD35C,0.06299*%
%ADD36C,0.05000*%
%ADD37C,0.04000*%
%ADD38C,0.02756*%
%ADD39R,0.02362X0.03347*%
%ADD40R,0.03347X0.02362*%
%ADD41R,0.06693X0.06693*%
%ADD42R,0.06693X0.06693*%
%ADD43C,0.05000*%
%ADD44C,0.10000*%
%ADD45C,0.00984*%
%ADD46C,0.00787*%
%ADD47C,0.02362*%
%ADD48R,0.05524X0.06312*%
%ADD49R,0.35839X0.42729*%
%ADD50R,0.10249X0.04934*%
%ADD51R,0.06312X0.05524*%
%ADD52R,0.09265X0.12020*%
%ADD53O,0.01981X0.06509*%
%ADD54O,0.06509X0.01981*%
%ADD55C,0.12611*%
%ADD56C,0.11800*%
%ADD57C,0.07493*%
%ADD58O,0.04737X0.08674*%
%ADD59O,0.04737X0.08674*%
%ADD60C,0.08674*%
%ADD61R,0.05524X0.05524*%
%ADD62C,0.05524*%
%ADD63C,0.16548*%
%ADD64C,0.06706*%
%ADD65R,0.06706X0.06706*%
%ADD66R,0.08674X0.08674*%
%ADD67R,0.06706X0.06706*%
%ADD68O,0.30800X0.15800*%
%ADD69C,0.07099*%
%ADD70C,0.05800*%
%ADD71C,0.04800*%
%ADD72C,0.03556*%
%ADD73R,0.03162X0.04147*%
%ADD74R,0.04147X0.03162*%
%ADD75R,0.07493X0.07493*%
%ADD76R,0.07493X0.07493*%
%ADD77C,0.00100*%
%ADD78C,0.00394*%
D78*
X0128705Y0055405D02*
G03*
X0144295Y0055405I0007795J-0005906D01*
G01*
X0201732Y0110236D02*
G03*
X0201732Y0110236I-0001969J0D01*
G01*
X0400689Y0077244D02*
Y0082756D01*
X0392224Y0077244D02*
Y0082756D01*
X0400689D01*
X0392224Y0077244D02*
X0400689D01*
X0129268Y0024244D02*
Y0029756D01*
X0137732Y0024244D02*
Y0029756D01*
X0129268D02*
X0137732D01*
X0129268Y0024244D02*
X0137732D01*
X0104768D02*
Y0029756D01*
X0113232Y0024244D02*
Y0029756D01*
X0104768D02*
X0113232D01*
X0104768Y0024244D02*
X0113232D01*
X0079768D02*
Y0029756D01*
X0088232Y0024244D02*
Y0029756D01*
X0079768D02*
X0088232D01*
X0079768Y0024244D02*
X0088232D01*
X0335768Y0056744D02*
Y0062256D01*
X0344232Y0056744D02*
Y0062256D01*
X0335768Y0056744D02*
X0344232D01*
X0335768Y0062256D02*
X0344232D01*
X0280768Y0056744D02*
Y0062256D01*
X0289232Y0056744D02*
Y0062256D01*
X0280768Y0056744D02*
X0289232D01*
X0280768Y0062256D02*
X0289232D01*
X0388268Y0128744D02*
Y0134256D01*
X0396732Y0128744D02*
Y0134256D01*
X0388268D02*
X0396732D01*
X0388268Y0128744D02*
X0396732D01*
X0168744Y0035268D02*
X0174256D01*
X0168744Y0043732D02*
X0174256D01*
Y0035268D02*
Y0043732D01*
X0168744Y0035268D02*
Y0043732D01*
X0159744Y0035268D02*
X0165256D01*
X0159744Y0043732D02*
X0165256D01*
Y0035268D02*
Y0043732D01*
X0159744Y0035268D02*
Y0043732D01*
X0128705Y0055405D02*
X0144295D01*
X046537Y0292232D02*
X0500803D01*
X046537Y0333768D02*
X0500803D01*
Y0292232D02*
Y0333768D01*
X046537Y0292232D02*
Y0333768D01*
X0131268Y0130744D02*
Y0136256D01*
X0139732Y0130744D02*
Y0136256D01*
X0131268Y0130744D02*
X0139732D01*
X0131268Y0136256D02*
X0139732D01*
X0188744Y0035268D02*
X0194256D01*
X0188744Y0043732D02*
X0194256D01*
Y0035268D02*
Y0043732D01*
X0188744Y0035268D02*
Y0043732D01*
X0208744Y0035268D02*
X0214256D01*
X0208744Y0043732D02*
X0214256D01*
Y0035268D02*
Y0043732D01*
X0208744Y0035268D02*
Y0043732D01*
X0114232Y0047244D02*
Y0052756D01*
X0105768Y0047244D02*
Y0052756D01*
Y0047244D02*
X0114232D01*
X0105768Y0052756D02*
X0114232D01*
X0333732Y0132744D02*
Y0138256D01*
X0325268Y0132744D02*
Y0138256D01*
Y0132744D02*
X0333732D01*
X0325268Y0138256D02*
X0333732D01*
X012902Y0145244D02*
X0140831D01*
X012902Y0150756D02*
X0140831D01*
Y0145244D02*
Y0150756D01*
X012902Y0145244D02*
Y0150756D01*
X0397713Y0059095D02*
Y0070906D01*
X0392201Y0059095D02*
Y0070906D01*
X0397713D01*
X0392201Y0059095D02*
X0397713D01*
X0282244Y0068594D02*
Y0080406D01*
X0287756Y0068594D02*
Y0080406D01*
X0282244Y0068594D02*
X0287756D01*
X0282244Y0080406D02*
X0287756D01*
X0337244Y0068594D02*
Y0080406D01*
X0342756Y0068594D02*
Y0080406D01*
X0337244Y0068594D02*
X0342756D01*
X0337244Y0080406D02*
X0342756D01*
X0146244Y0068268D02*
X0151756D01*
X0146244Y0076732D02*
X0151756D01*
X0146244Y0068268D02*
Y0076732D01*
X0151756Y0068268D02*
Y0076732D01*
X0146244Y0101732D02*
X0151756D01*
X0146244Y0093268D02*
X0151756D01*
Y0101732D01*
X0146244Y0093268D02*
Y0101732D01*
X0190244Y0122768D02*
X0195756D01*
X0190244Y0131232D02*
X0195756D01*
X0190244Y0122768D02*
Y0131232D01*
X0195756Y0122768D02*
Y0131232D01*
X0179744Y0035268D02*
X0185256D01*
X0179744Y0043732D02*
X0185256D01*
Y0035268D02*
Y0043732D01*
X0179744Y0035268D02*
Y0043732D01*
X0199744Y0035268D02*
X0205256D01*
X0199744Y0043732D02*
X0205256D01*
Y0035268D02*
Y0043732D01*
X0199744Y0035268D02*
Y0043732D01*
X0461232Y0215244D02*
Y0220756D01*
X0452768Y0215244D02*
Y0220756D01*
Y0215244D02*
X0461232D01*
X0452768Y0220756D02*
X0461232D01*
X0478447Y0178657D02*
X0490553D01*
X0492374Y0180478D01*
Y0198343D01*
X0476626D02*
X0492374D01*
X0476626Y0180478D02*
Y0198343D01*
Y0180478D02*
X0478447Y0178657D01*
X0480768Y0215244D02*
Y0220756D01*
X0489232Y0215244D02*
Y0220756D01*
X0480768D02*
X0489232D01*
X0480768Y0215244D02*
X0489232D01*
X0452447Y0178657D02*
X0464553D01*
X0466374Y0180478D01*
Y0198343D01*
X0450626D02*
X0466374D01*
X0450626Y0180478D02*
Y0198343D01*
Y0180478D02*
X0452447Y0178657D01*
X0196221Y0086221D02*
X022378D01*
X0196221Y0113779D02*
X022378D01*
Y0086221D02*
Y0113779D01*
X0196221Y0086221D02*
Y0113779D01*
X0034744Y0024768D02*
X0040256D01*
X0034744Y0033232D02*
X0040256D01*
Y0024768D02*
Y0033232D01*
X0034744Y0024768D02*
Y0033232D01*
X0043744Y0033232D02*
X0049256D01*
X0043744Y0024768D02*
X0049256D01*
X0043744D02*
Y0033232D01*
X0049256Y0024768D02*
Y0033232D01*
M02*
