%FSLAX25Y25*%
%MOIN*%
G70*
G01*
G75*
G04 Layer_Physical_Order=1*
G04 Layer_Color=255*
%ADD10R,0.07874X0.03150*%
%ADD11R,0.08465X0.11221*%
%ADD12R,0.06693X0.06693*%
%ADD13R,0.04134X0.02362*%
%ADD14R,0.05512X0.04724*%
%ADD15R,0.09921X0.13425*%
%ADD16O,0.05709X0.02362*%
%ADD17R,0.07284X0.16339*%
%ADD18O,0.00984X0.06102*%
%ADD19O,0.06102X0.00984*%
%ADD20R,0.09449X0.07087*%
%ADD21R,0.04724X0.05512*%
%ADD22R,0.05512X0.02362*%
%ADD23R,0.07087X0.02362*%
G04:AMPARAMS|DCode=24|XSize=74.8mil|YSize=125.98mil|CornerRadius=0mil|HoleSize=0mil|Usage=FLASHONLY|Rotation=90.000|XOffset=0mil|YOffset=0mil|HoleType=Round|Shape=Octagon|*
%AMOCTAGOND24*
4,1,8,-0.06299,-0.01870,-0.06299,0.01870,-0.04429,0.03740,0.04429,0.03740,0.06299,0.01870,0.06299,-0.01870,0.04429,-0.03740,-0.04429,-0.03740,-0.06299,-0.01870,0.0*
%
%ADD24OCTAGOND24*%

%ADD25R,0.21654X0.09843*%
%ADD26C,0.01000*%
%ADD27C,0.02000*%
%ADD28C,0.05906*%
%ADD29R,0.05906X0.05906*%
%ADD30O,0.06299X0.03937*%
%ADD31C,0.07874*%
%ADD32C,0.06299*%
%ADD33C,0.09000*%
%ADD34C,0.01969*%
%ADD35C,0.01600*%
%ADD36C,0.03000*%
G36*
X15422Y63422D02*
X16800Y62852D01*
X22406D01*
X22605Y61852D01*
X21221Y61279D01*
X19863Y58000D01*
X30137D01*
X28779Y61279D01*
X27395Y61852D01*
X27594Y62852D01*
X42929D01*
X43128Y61852D01*
X41374Y61125D01*
X39873Y57500D01*
X41374Y53874D01*
X45000Y52373D01*
X48625Y53874D01*
X50127Y57500D01*
X49842Y58190D01*
X50357Y58705D01*
Y60800D01*
X50857D01*
Y61300D01*
X52598D01*
X52369Y61852D01*
X52381Y61880D01*
X53211Y62434D01*
X54968Y60677D01*
Y57723D01*
X53146Y55901D01*
X51840Y55360D01*
X51111Y53600D01*
X51736Y52091D01*
X51282Y51091D01*
X42278D01*
X38754Y54615D01*
X37376Y55185D01*
X33833D01*
X33760Y55360D01*
X32000Y56090D01*
X30602Y55510D01*
X29828Y56256D01*
X30137Y57000D01*
X25500D01*
Y52363D01*
X28587Y53642D01*
X28968Y53625D01*
X29477Y53364D01*
X29643Y53280D01*
X30240Y51840D01*
X31221Y51433D01*
X31221Y51279D01*
X29863Y48000D01*
X35000D01*
Y47500D01*
X35500D01*
Y42363D01*
X38779Y43721D01*
X40018Y46714D01*
X41268Y47278D01*
X41471Y47194D01*
X54768D01*
Y42232D01*
X65232D01*
Y44826D01*
X66156Y45209D01*
X67743Y43622D01*
X69120Y43052D01*
X70873D01*
Y39279D01*
X84978D01*
X85026Y39207D01*
X84492Y38207D01*
X69584D01*
X68800Y38532D01*
X67575Y38025D01*
X67068Y36800D01*
X67135Y36639D01*
X66580Y35807D01*
X65232D01*
Y41232D01*
X54768D01*
Y35807D01*
X44583D01*
X43949Y36441D01*
X43625Y37225D01*
X42400Y37732D01*
X41175Y37225D01*
X40668Y36000D01*
X41175Y34775D01*
X41792Y34520D01*
X41870Y34160D01*
X41627Y33369D01*
X41094Y33148D01*
X31942D01*
Y37729D01*
X23058D01*
Y20409D01*
X22858D01*
Y11740D01*
X32142D01*
Y20409D01*
X31942D01*
Y29252D01*
X41094D01*
X42400Y28710D01*
X43707Y29252D01*
X61221D01*
X64722Y25751D01*
X64411Y25000D01*
X65039Y23484D01*
X66107Y23041D01*
Y21959D01*
X65039Y21516D01*
X64411Y20000D01*
X65039Y18484D01*
X66107Y18041D01*
Y16959D01*
X65039Y16516D01*
X64411Y15000D01*
X65039Y13484D01*
X66107Y13041D01*
Y11959D01*
X65039Y11516D01*
X64411Y10000D01*
X65039Y8484D01*
X66555Y7856D01*
X68389D01*
X69199Y7046D01*
X69740Y5740D01*
X71500Y5011D01*
X73260Y5740D01*
X73989Y7500D01*
X74358Y8052D01*
X75768D01*
Y2500D01*
X32142D01*
Y10740D01*
X22858D01*
Y2500D01*
X2500D01*
Y7508D01*
X3331Y8064D01*
X5000Y7373D01*
X8625Y8874D01*
X10127Y12500D01*
X8625Y16126D01*
X5000Y17627D01*
X3331Y16936D01*
X2500Y17492D01*
Y70520D01*
X3447Y70647D01*
Y70647D01*
X8197D01*
X15422Y63422D01*
D02*
G37*
G36*
X128668Y76000D02*
X129175Y74775D01*
X130400Y74268D01*
X131400Y73600D01*
X131575Y73175D01*
X132800Y72668D01*
X133173Y72822D01*
X133938Y72057D01*
X133583Y71200D01*
X134312Y69440D01*
X136072Y68711D01*
X137833Y69440D01*
X138374Y70746D01*
X140322Y72694D01*
X141115Y72601D01*
X141584Y71682D01*
X140822Y69842D01*
X141700Y67724D01*
X141700Y67040D01*
X140822Y64921D01*
X141700Y62802D01*
X141559Y61778D01*
X141405Y61407D01*
X136583D01*
X134349Y63641D01*
X134025Y64425D01*
X132800Y64932D01*
X131575Y64425D01*
X131068Y63200D01*
X131575Y61975D01*
X132359Y61651D01*
X135005Y59005D01*
X135005Y59005D01*
X136000Y58593D01*
X140422D01*
X140526Y58407D01*
X139940Y57407D01*
X134384D01*
X133600Y57732D01*
X132375Y57225D01*
X131868Y56000D01*
X132375Y54775D01*
X133600Y54268D01*
X134384Y54593D01*
X160800D01*
X161795Y55005D01*
X165995Y59205D01*
X165995Y59205D01*
X166116Y59496D01*
X166407Y60200D01*
X166407Y60200D01*
Y68546D01*
X168625Y69465D01*
X169019Y70415D01*
X170000Y70220D01*
Y50893D01*
X169019Y50698D01*
X168779Y51279D01*
X165500Y52637D01*
Y47500D01*
Y42363D01*
X168779Y43721D01*
X169019Y44302D01*
X170000Y44107D01*
Y17492D01*
X169168Y16936D01*
X167500Y17627D01*
X163874Y16126D01*
X162373Y12500D01*
X163874Y8874D01*
X167500Y7373D01*
X169168Y8064D01*
X170000Y7508D01*
Y2500D01*
X85832D01*
Y10256D01*
X86341Y10656D01*
X87463Y10350D01*
X87840Y9440D01*
X89600Y8710D01*
X90413Y9047D01*
X91244Y8491D01*
Y5595D01*
X94500D01*
Y8957D01*
X95000D01*
Y9457D01*
X98756D01*
Y12319D01*
X98756D01*
Y12319D01*
X98756Y12319D01*
X98556Y13236D01*
D01*
Y16343D01*
X99556Y17011D01*
X99600Y16993D01*
X138558D01*
X139552Y17405D01*
X140884Y18737D01*
X142500Y18067D01*
X145523Y19320D01*
X146775Y22343D01*
X145523Y25365D01*
X142500Y26618D01*
X139477Y25365D01*
X138225Y22343D01*
X138894Y20727D01*
X137975Y19807D01*
X116376D01*
X116181Y20788D01*
X116556Y20944D01*
X118237Y25000D01*
X116556Y29057D01*
X114815Y29778D01*
X115014Y30778D01*
X138808D01*
X139477Y29162D01*
X142500Y27910D01*
X145523Y29162D01*
X146775Y32185D01*
X145523Y35208D01*
X142500Y36460D01*
X139477Y35208D01*
X138808Y33592D01*
X106585D01*
X106585Y33592D01*
X105882Y33301D01*
X105590Y33180D01*
X105590Y33180D01*
X102117Y29707D01*
X90995D01*
X90532Y30400D01*
X90487Y30508D01*
X91240Y31279D01*
X93560D01*
X94555Y31691D01*
X98257Y35393D01*
X99200D01*
X100195Y35805D01*
X100441Y36051D01*
X101225Y36375D01*
X101732Y37600D01*
X101225Y38825D01*
X100000Y39332D01*
X98775Y38825D01*
X98520Y38207D01*
X97674D01*
X96679Y37795D01*
X95374Y36490D01*
X94393Y36685D01*
X94160Y37246D01*
X92854Y37787D01*
X92286Y38355D01*
X92669Y39279D01*
X94127D01*
Y41852D01*
X111800D01*
X113178Y42422D01*
X116077Y45322D01*
X125032D01*
Y48798D01*
X125864Y49354D01*
X126132Y49243D01*
X127893Y49972D01*
X128622Y51732D01*
X127893Y53493D01*
X126132Y54222D01*
X125864Y54111D01*
X125032Y54666D01*
Y58143D01*
X114968D01*
Y54205D01*
X113968Y53537D01*
X113600Y53689D01*
X113512Y53653D01*
X112800Y53948D01*
X112083D01*
Y53981D01*
Y57721D01*
X111165D01*
Y58784D01*
X110594Y60161D01*
X108878Y61878D01*
X107500Y62448D01*
X106122Y61878D01*
X105552Y60500D01*
X106122Y59122D01*
X106523Y58721D01*
X106350Y57721D01*
X106350D01*
Y53759D01*
Y50019D01*
Y46279D01*
X105569Y45748D01*
X102431D01*
X101650Y46279D01*
Y49819D01*
X101850D01*
Y51500D01*
X98783D01*
Y52500D01*
X101850D01*
Y54181D01*
X101650D01*
Y57721D01*
X100134D01*
X99931Y58003D01*
X100443Y59003D01*
X104147D01*
Y67296D01*
X105106Y67393D01*
X105600D01*
X106595Y67805D01*
X113838Y75048D01*
X113875Y75029D01*
X113996Y74966D01*
X113996D01*
X114431Y74739D01*
X114625Y74638D01*
X114704Y74597D01*
X114768Y74563D01*
Y74513D01*
Y74415D01*
X114768Y74008D01*
Y73936D01*
Y73936D01*
Y68768D01*
X119500D01*
Y74878D01*
X115865D01*
X115587Y75194D01*
X115321Y75878D01*
X115524Y76193D01*
X128539D01*
X128668Y76000D01*
D02*
G37*
G36*
X74400Y27868D02*
X74736Y28008D01*
X75568Y27452D01*
Y25568D01*
X86032D01*
Y26901D01*
X87032Y27265D01*
X87930Y26893D01*
X101838D01*
X102087Y25913D01*
X101501Y24500D01*
X104000D01*
Y24000D01*
X104500D01*
Y21501D01*
X105913Y22087D01*
X106401Y23263D01*
X107483D01*
X108444Y20944D01*
X108819Y20788D01*
X108624Y19807D01*
X100183D01*
X98195Y21795D01*
X98104Y21833D01*
X98025Y22025D01*
X96800Y22532D01*
X95575Y22025D01*
X95068Y20800D01*
X95314Y20206D01*
X94646Y19206D01*
X92911D01*
X92712Y20206D01*
X93760Y20640D01*
X94490Y22400D01*
X93760Y24160D01*
X92000Y24890D01*
X90240Y24160D01*
X89698Y22854D01*
X88222Y21378D01*
X87652Y20000D01*
Y18139D01*
X84455Y14942D01*
X75813D01*
X75378Y15064D01*
X74882Y15218D01*
X74160Y16960D01*
X73623Y17183D01*
Y18183D01*
X73760Y18240D01*
X74489Y20000D01*
X73760Y21760D01*
X72000Y22490D01*
X71350Y22220D01*
X71208Y22314D01*
X71319Y23443D01*
X71418Y23484D01*
X72046Y25000D01*
X71418Y26516D01*
X69902Y27144D01*
X69853D01*
X69821Y27193D01*
X70355Y28193D01*
X73616D01*
X74400Y27868D01*
D02*
G37*
G36*
X170000Y179992D02*
X169168Y179436D01*
X167500Y180127D01*
X163874Y178626D01*
X162373Y175000D01*
X163874Y171374D01*
X167500Y169873D01*
X169168Y170564D01*
X170000Y170008D01*
Y144678D01*
X159968D01*
Y142245D01*
X159200Y141732D01*
X157975Y141225D01*
X157468Y140000D01*
X157975Y138775D01*
X159200Y138268D01*
X159968Y137755D01*
Y131858D01*
X170000D01*
Y128342D01*
X165500D01*
Y121732D01*
Y115122D01*
X170000D01*
Y75961D01*
X169019Y75766D01*
X168625Y76716D01*
X165000Y78218D01*
X161374Y76716D01*
X159873Y73090D01*
X161374Y69465D01*
X163593Y68546D01*
Y60783D01*
X160217Y57407D01*
X154388D01*
Y57407D01*
X153962Y58407D01*
X154241Y59081D01*
X150759D01*
X151038Y58407D01*
X150612Y57407D01*
Y57407D01*
X149133D01*
X148518Y58407D01*
X149178Y60000D01*
X148300Y62119D01*
X148300Y62802D01*
X149178Y64921D01*
X148300Y67040D01*
X148300Y67724D01*
X149178Y69842D01*
X148300Y71961D01*
X148300Y72645D01*
X149178Y74764D01*
X148300Y76883D01*
X148626Y77830D01*
X149187Y79185D01*
X140813D01*
X141209Y78229D01*
X140733Y77281D01*
X140633Y77196D01*
X140039Y77117D01*
X134078Y83078D01*
X132700Y83648D01*
X112702D01*
X111728Y83245D01*
X111324Y83078D01*
X107045Y78799D01*
X104147D01*
Y80997D01*
X95854D01*
Y78717D01*
X95076Y78395D01*
X94673Y78228D01*
X93146Y76701D01*
X91840Y76160D01*
X91110Y74400D01*
X91439Y73607D01*
X90771Y72607D01*
X73504D01*
X73121Y73531D01*
X74841Y75251D01*
X75625Y75575D01*
X76132Y76800D01*
X75625Y78025D01*
X74400Y78532D01*
X73175Y78025D01*
X72851Y77241D01*
X70340Y74729D01*
X69187Y74818D01*
X68932Y75200D01*
X68532Y76166D01*
X68669Y76222D01*
X69032Y77100D01*
X67291D01*
Y78100D01*
X69032D01*
X68669Y78978D01*
X68620Y78998D01*
X68875Y79975D01*
X69971Y80429D01*
X70419Y81509D01*
X71149Y82289D01*
X71200Y82268D01*
X71984Y82593D01*
X82400D01*
X83395Y83005D01*
X88135Y87745D01*
X89600Y87138D01*
X92472Y88328D01*
X93662Y91200D01*
X92472Y94072D01*
X92338Y94128D01*
X92533Y95109D01*
X96667D01*
X96862Y94128D01*
X96728Y94072D01*
X95538Y91200D01*
X96728Y88328D01*
X99600Y87138D01*
X102472Y88328D01*
X103662Y91200D01*
X102472Y94072D01*
X102338Y94128D01*
X102533Y95109D01*
X104912D01*
X105847Y94953D01*
Y87447D01*
X113353D01*
Y89793D01*
X137017D01*
X137651Y89159D01*
X137975Y88375D01*
X139200Y87868D01*
X140247Y88302D01*
X141349Y88257D01*
X141700Y87409D01*
X141700Y86725D01*
X140822Y84606D01*
X141700Y82487D01*
X141374Y81540D01*
X140813Y80185D01*
X149187D01*
X148626Y81540D01*
X148300Y82487D01*
X149178Y84606D01*
X148300Y86725D01*
X148300Y87409D01*
X149178Y89528D01*
X148300Y91646D01*
X146181Y92524D01*
X143819D01*
X141700Y91646D01*
X141359Y90825D01*
X140993D01*
X140299Y90877D01*
X139641Y91149D01*
X138595Y92195D01*
X137600Y92607D01*
X114060D01*
X113353Y93314D01*
Y94953D01*
X114288Y95109D01*
X120516D01*
X121511Y95521D01*
X123641Y97651D01*
X124425Y97975D01*
X124932Y99200D01*
X124425Y100425D01*
X123200Y100932D01*
X122944Y100826D01*
X122025Y100994D01*
X122025Y100994D01*
X120800Y101502D01*
X119575Y100994D01*
X119251Y100210D01*
X118932Y99891D01*
X98255D01*
X97700Y100723D01*
X97732Y100800D01*
X97665Y100961D01*
X98220Y101793D01*
X107216D01*
X108000Y101468D01*
X109225Y101975D01*
X109732Y103200D01*
X109225Y104425D01*
X108000Y104932D01*
X107216Y104607D01*
X89584D01*
X88800Y104932D01*
X88237Y104699D01*
X87237Y105367D01*
Y107257D01*
X82115D01*
X80050Y109322D01*
X79907Y109381D01*
X80106Y110381D01*
X87237D01*
Y115131D01*
X77763D01*
Y110734D01*
X77763Y110381D01*
X77031Y109734D01*
X67523D01*
X67234Y110658D01*
Y113347D01*
X67225Y113367D01*
Y115905D01*
X66816Y116894D01*
X65827Y117304D01*
X64842Y116896D01*
X63858Y117304D01*
X62874Y116896D01*
X61890Y117304D01*
X60905Y116896D01*
X59921Y117304D01*
X58937Y116896D01*
X57953Y117304D01*
X56968Y116896D01*
X55984Y117304D01*
X55000Y116896D01*
X54016Y117304D01*
X53454Y117679D01*
Y119263D01*
X53779Y120047D01*
X53272Y121272D01*
X52047Y121779D01*
X50823Y121272D01*
X50315Y120047D01*
X50640Y119263D01*
Y117679D01*
X50079Y117304D01*
X49095Y116896D01*
X48110Y117304D01*
X47314Y116974D01*
X47284Y117048D01*
X46642Y117314D01*
Y113347D01*
X45642D01*
Y117314D01*
X45000Y117048D01*
X44969Y116974D01*
X44173Y117304D01*
X43184Y116894D01*
X42920Y116256D01*
X42775Y115905D01*
Y115665D01*
X42693Y115332D01*
X42693Y115332D01*
X41468Y114825D01*
X40961Y113600D01*
X41468Y112375D01*
X42693Y111868D01*
X42766Y111819D01*
Y110371D01*
X41766Y109703D01*
X41713Y109725D01*
X36595D01*
X35605Y109316D01*
X35196Y108327D01*
X35604Y107343D01*
X35196Y106358D01*
X35604Y105374D01*
X35196Y104390D01*
X35604Y103405D01*
X35196Y102421D01*
X34821Y101860D01*
X32591D01*
X30524Y103926D01*
Y111804D01*
X19476D01*
Y108868D01*
X16705D01*
Y111056D01*
X10819D01*
X10736D01*
X9819Y111256D01*
X9806D01*
X9464Y111256D01*
X6957D01*
Y107500D01*
Y103744D01*
X9464D01*
X9806Y103744D01*
X9819D01*
X10736Y103944D01*
X10819D01*
X16705D01*
Y106053D01*
X19476D01*
Y103117D01*
X27353D01*
X29993Y100478D01*
X29783Y99273D01*
X27353Y96843D01*
X19476D01*
Y93907D01*
X16705D01*
Y96056D01*
X10819D01*
X10736D01*
X9819Y96256D01*
X9806D01*
X9464Y96256D01*
X6957D01*
Y92500D01*
Y88744D01*
X9464D01*
X9806Y88744D01*
X9819D01*
X10736Y88944D01*
X10819D01*
X16705D01*
Y91093D01*
X19476D01*
Y88157D01*
X27553D01*
X27967Y87157D01*
X18665Y77855D01*
X17200Y78462D01*
X14328Y77272D01*
X13138Y74400D01*
X14328Y71528D01*
X17200Y70338D01*
X20072Y71528D01*
X21262Y74400D01*
X20655Y75865D01*
X30056Y85266D01*
X39154D01*
X39174Y85275D01*
X41713D01*
X42219Y85484D01*
X42984Y84719D01*
X42775Y84213D01*
Y83061D01*
X34454D01*
X34454Y83061D01*
X33459Y82648D01*
X28665Y77855D01*
X27200Y78462D01*
X24328Y77272D01*
X23138Y74400D01*
X24328Y71528D01*
X27200Y70338D01*
X30072Y71528D01*
X31262Y74400D01*
X30655Y75865D01*
X35036Y80246D01*
X42775D01*
Y79094D01*
X43184Y78105D01*
X43306Y78055D01*
X43868Y76800D01*
X44375Y75575D01*
X45600Y75068D01*
X45964Y75219D01*
X46886Y75116D01*
X46886Y75116D01*
X48110Y74609D01*
X49335Y75116D01*
X49483Y75086D01*
X49869Y74258D01*
X48359Y72749D01*
X47575Y72425D01*
X47251Y71641D01*
X47074Y71464D01*
X41162D01*
X40607Y72295D01*
X41271Y73900D01*
X33129D01*
X34112Y71527D01*
X33519Y71281D01*
X33011Y70057D01*
X33519Y68832D01*
X34743Y68325D01*
X35527Y68650D01*
X47657D01*
X48652Y69062D01*
X49241Y69651D01*
X50025Y69975D01*
X50349Y70759D01*
X54469Y74879D01*
X55630Y74626D01*
X55805Y74205D01*
X58205Y71805D01*
X59200Y71393D01*
X61779D01*
X62335Y70561D01*
X62268Y70400D01*
X62775Y69175D01*
X64000Y68668D01*
X64784Y68993D01*
X65600D01*
X66595Y69405D01*
X66983Y69793D01*
X68180D01*
X68735Y68961D01*
X68668Y68800D01*
X69175Y67575D01*
X70400Y67068D01*
X71184Y67393D01*
X73779D01*
X74335Y66561D01*
X74268Y66400D01*
X74384Y66120D01*
X73829Y65288D01*
X70873D01*
Y54170D01*
X66986D01*
X65032Y56123D01*
Y64678D01*
X56477D01*
X54978Y66178D01*
X53600Y66748D01*
X17607D01*
X10953Y73403D01*
Y78153D01*
X3447D01*
Y78153D01*
X2500Y78280D01*
Y87990D01*
X3094Y88744D01*
X3500Y88744D01*
X5957D01*
Y92500D01*
Y96256D01*
X3500D01*
X3094Y96256D01*
X2500Y97010D01*
X2500Y97010D01*
Y102990D01*
X3094Y103744D01*
X3500Y103744D01*
X5957D01*
Y107500D01*
Y111256D01*
X3500D01*
X3094Y111256D01*
X2500Y112010D01*
X2500Y112010D01*
Y170008D01*
X3331Y170564D01*
X5000Y169873D01*
X8625Y171374D01*
X10127Y175000D01*
X8625Y178626D01*
X5000Y180127D01*
X3331Y179436D01*
X2500Y179992D01*
Y182500D01*
X170000D01*
Y179992D01*
D02*
G37*
G36*
X86862Y94128D02*
X86728Y94072D01*
X85538Y91200D01*
X86145Y89735D01*
X81817Y85407D01*
X75362D01*
X74694Y86407D01*
X74804Y86673D01*
X74396Y87657D01*
X74804Y88642D01*
X74547Y89263D01*
X74836Y89760D01*
X75949Y89685D01*
X76575Y88175D01*
X79100Y87129D01*
Y91200D01*
X79600D01*
Y91700D01*
X83671D01*
X82674Y94109D01*
X83049Y95109D01*
X86667D01*
X86862Y94128D01*
D02*
G37*
%LPC*%
G36*
X24500Y57000D02*
X19863D01*
X21221Y53721D01*
X24500Y52363D01*
Y57000D01*
D02*
G37*
G36*
X164500Y52637D02*
X161221Y51279D01*
X159863Y48000D01*
X164500D01*
Y52637D01*
D02*
G37*
G36*
Y47000D02*
X159863D01*
X161221Y43721D01*
X164500Y42363D01*
Y47000D01*
D02*
G37*
G36*
X142000Y46099D02*
X139475Y45053D01*
X138429Y42528D01*
X142000D01*
Y46099D01*
D02*
G37*
G36*
X143000D02*
Y42528D01*
X146571D01*
X145525Y45053D01*
X143000Y46099D01*
D02*
G37*
G36*
X52598Y60300D02*
X51357D01*
Y59059D01*
X52234Y59422D01*
X52598Y60300D01*
D02*
G37*
G36*
X120500Y74878D02*
Y68768D01*
X125232D01*
Y74878D01*
X120500D01*
D02*
G37*
G36*
X36700Y78471D02*
X34175Y77425D01*
X33129Y74900D01*
X36700D01*
Y78471D01*
D02*
G37*
G36*
X37700D02*
Y74900D01*
X41271D01*
X40225Y77425D01*
X37700Y78471D01*
D02*
G37*
G36*
X125232Y67768D02*
X120500D01*
Y61658D01*
X125232D01*
Y67768D01*
D02*
G37*
G36*
X152000Y61322D02*
X151122Y60959D01*
X150759Y60081D01*
X152000D01*
Y61322D01*
D02*
G37*
G36*
X153000D02*
Y60081D01*
X154241D01*
X153878Y60959D01*
X153000Y61322D01*
D02*
G37*
G36*
X119500Y67768D02*
X114768D01*
Y61658D01*
X119500D01*
Y67768D01*
D02*
G37*
G36*
X112000Y15156D02*
X108291Y13619D01*
X106754Y9909D01*
X112000D01*
Y15156D01*
D02*
G37*
G36*
X142500Y16775D02*
X139477Y15523D01*
X138225Y12500D01*
X139477Y9477D01*
X142500Y8225D01*
X145523Y9477D01*
X146775Y12500D01*
X145523Y15523D01*
X142500Y16775D01*
D02*
G37*
G36*
X63261Y25013D02*
X51739D01*
Y9987D01*
X63261D01*
Y25013D01*
D02*
G37*
G36*
X113000Y15156D02*
Y9909D01*
X118246D01*
X116709Y13619D01*
X113000Y15156D01*
D02*
G37*
G36*
X118246Y8909D02*
X113000D01*
Y3663D01*
X116709Y5200D01*
X118246Y8909D01*
D02*
G37*
G36*
X112000D02*
X106754D01*
X108291Y5200D01*
X112000Y3663D01*
Y8909D01*
D02*
G37*
G36*
X50599Y24500D02*
X42945D01*
X43429Y23331D01*
X44352Y22948D01*
X44153Y21948D01*
X44000D01*
X42622Y21378D01*
X40803Y19558D01*
X39496Y19017D01*
X38767Y17257D01*
X39496Y15496D01*
X40457Y15098D01*
Y14016D01*
X39840Y13760D01*
X39110Y12000D01*
X39840Y10240D01*
X41146Y9698D01*
X42222Y8622D01*
X43600Y8052D01*
X44625D01*
X45098Y7856D01*
X48445D01*
X49961Y8484D01*
X50589Y10000D01*
X49961Y11516D01*
X49154Y11851D01*
Y12933D01*
X50114Y13331D01*
X50599Y14500D01*
X46772D01*
Y15500D01*
X50599D01*
X50114Y16669D01*
X49154Y17067D01*
Y18149D01*
X49961Y18484D01*
X50589Y20000D01*
X49961Y21516D01*
X49154Y21851D01*
Y22933D01*
X50114Y23331D01*
X50599Y24500D01*
D02*
G37*
G36*
X98756Y8457D02*
X95500D01*
Y5595D01*
X98756D01*
Y8457D01*
D02*
G37*
G36*
X142000Y41528D02*
X138429D01*
X139475Y39002D01*
X142000Y37956D01*
Y41528D01*
D02*
G37*
G36*
X48445Y27361D02*
X47272D01*
Y25500D01*
X50599D01*
X50114Y26669D01*
X48445Y27361D01*
D02*
G37*
G36*
X34500Y47000D02*
X29863D01*
X31221Y43721D01*
X34500Y42363D01*
Y47000D01*
D02*
G37*
G36*
X146571Y41528D02*
X143000D01*
Y37956D01*
X145525Y39002D01*
X146571Y41528D01*
D02*
G37*
G36*
X86032Y24568D02*
X81300D01*
Y18458D01*
X86032D01*
Y24568D01*
D02*
G37*
G36*
X80300D02*
X75568D01*
Y18458D01*
X80300D01*
Y24568D01*
D02*
G37*
G36*
X46272Y27361D02*
X45098D01*
X43429Y26669D01*
X42945Y25500D01*
X46272D01*
Y27361D01*
D02*
G37*
G36*
X103500Y23500D02*
X101501D01*
X102087Y22087D01*
X103500Y21501D01*
Y23500D01*
D02*
G37*
G36*
X83671Y90700D02*
X80100D01*
Y87129D01*
X82625Y88175D01*
X83671Y90700D01*
D02*
G37*
G36*
X34819Y150587D02*
X31563D01*
Y148906D01*
X34819D01*
Y150587D01*
D02*
G37*
G36*
X30563D02*
X27307D01*
Y148906D01*
X30563D01*
Y150587D01*
D02*
G37*
G36*
X17000Y157378D02*
X12268D01*
Y151268D01*
X17000D01*
Y157378D01*
D02*
G37*
G36*
X87237Y154501D02*
X77763D01*
Y149751D01*
X87237D01*
Y154501D01*
D02*
G37*
G36*
X92500Y147032D02*
X91275Y146525D01*
X90951Y145741D01*
X90869Y145659D01*
X87237D01*
Y146627D01*
X77763D01*
Y141877D01*
X87237D01*
Y142845D01*
X91452D01*
X92447Y143257D01*
X92941Y143751D01*
X93725Y144075D01*
X94232Y145300D01*
X93725Y146525D01*
X92500Y147032D01*
D02*
G37*
G36*
X65232Y150268D02*
X60500D01*
Y144158D01*
X65232D01*
Y150268D01*
D02*
G37*
G36*
X30563Y147906D02*
X27307D01*
Y146224D01*
X30563D01*
Y147906D01*
D02*
G37*
G36*
X41550Y150582D02*
X40325Y150075D01*
X39818Y148850D01*
X40153Y148040D01*
X39660Y147040D01*
X36864D01*
X35657Y145833D01*
X35142Y146187D01*
X35040Y146257D01*
X34977Y146300D01*
X34885Y146364D01*
X34881Y146367D01*
X34819Y146409D01*
Y146586D01*
X34819Y147148D01*
Y147206D01*
Y147206D01*
Y147906D01*
X31563D01*
Y146224D01*
X33838D01*
X33838D01*
X33895Y146224D01*
X34458Y146224D01*
X34634D01*
X34676Y146162D01*
X34679Y146159D01*
X34743Y146066D01*
X34786Y146003D01*
X34856Y145901D01*
X35210Y145386D01*
X34594Y144770D01*
Y144481D01*
X27507D01*
X27507Y144481D01*
Y144481D01*
X26519Y144509D01*
X25600Y144889D01*
X23840Y144160D01*
X23110Y142400D01*
X23840Y140640D01*
X25600Y139910D01*
X26537Y140299D01*
X27507Y140519D01*
Y140519D01*
X27507Y140519D01*
X29002D01*
X29535Y139519D01*
X29188Y138680D01*
X29118Y138576D01*
X28486D01*
X27507Y138576D01*
X27507D01*
X27507Y138576D01*
X27128Y138230D01*
X26781Y137913D01*
X26291Y137710D01*
X26000Y137590D01*
X26000Y137589D01*
X24049Y135639D01*
X22532D01*
Y140642D01*
X12468D01*
Y127822D01*
X22532D01*
Y132825D01*
X24632D01*
X25627Y133237D01*
X26638Y134248D01*
X27507Y134613D01*
Y134613D01*
X27507Y134613D01*
X34619D01*
X34619Y134613D01*
Y134613D01*
X35554Y134456D01*
X36993Y133017D01*
Y130384D01*
X36668Y129600D01*
X37175Y128375D01*
X38400Y127868D01*
X39625Y128375D01*
X40132Y129600D01*
X39807Y130384D01*
Y133600D01*
X39395Y134595D01*
X39395Y134595D01*
X37030Y136960D01*
X37444Y137960D01*
X44243D01*
X48966Y133237D01*
X49961Y132825D01*
X49961Y132825D01*
X54968D01*
Y127822D01*
X65032D01*
Y140642D01*
X54968D01*
Y135639D01*
X50543D01*
X47372Y138810D01*
X48792Y140230D01*
Y144770D01*
X46522Y147040D01*
X43100D01*
Y148412D01*
X43281Y148850D01*
X42774Y150075D01*
X41550Y150582D01*
D02*
G37*
G36*
X30420Y169405D02*
X27164D01*
Y167724D01*
X30420D01*
Y169405D01*
D02*
G37*
G36*
X150229Y162375D02*
X140755D01*
Y161407D01*
X127984D01*
X127200Y161732D01*
X125975Y161225D01*
X125468Y160000D01*
X125975Y158775D01*
X127200Y158268D01*
X127984Y158593D01*
X140755D01*
Y157625D01*
X150229D01*
Y162375D01*
D02*
G37*
G36*
X34676Y172087D02*
X31420D01*
Y170405D01*
X34676D01*
Y172087D01*
D02*
G37*
G36*
X30420D02*
X27164D01*
Y170405D01*
X30420D01*
Y172087D01*
D02*
G37*
G36*
X65232Y157378D02*
X60500D01*
Y151268D01*
X65232D01*
Y157378D01*
D02*
G37*
G36*
X22732D02*
X18000D01*
Y151268D01*
X22732D01*
Y157378D01*
D02*
G37*
G36*
X34676Y169405D02*
X31420D01*
Y167724D01*
X33694D01*
X33694D01*
X33752Y167724D01*
X34314Y167724D01*
X34490D01*
X34533Y167662D01*
X34536Y167659D01*
X34600Y167566D01*
X34642Y167503D01*
X34713Y167401D01*
X35067Y166886D01*
X34450Y166270D01*
Y165981D01*
X27364D01*
Y162019D01*
X34450D01*
Y161730D01*
X36720Y159460D01*
X40143D01*
Y158434D01*
X39818Y157650D01*
X39308Y156887D01*
X34476D01*
Y160076D01*
X27364D01*
Y156113D01*
X28765D01*
X29188Y155480D01*
X29695Y154256D01*
X30920Y153749D01*
X31704Y154073D01*
X51480D01*
X52475Y154485D01*
X53844Y155854D01*
X54768Y155471D01*
Y151268D01*
X59500D01*
Y157378D01*
X57644D01*
X57110Y158378D01*
X57254Y158593D01*
X77763D01*
Y157625D01*
X87007D01*
X87720Y157031D01*
X87720Y157031D01*
Y157031D01*
X87720Y157031D01*
X88573Y156678D01*
X88944Y156524D01*
X90169Y157031D01*
X90676Y158256D01*
X90169Y159481D01*
X89385Y159805D01*
X88195Y160995D01*
X87237Y161392D01*
Y162375D01*
X77763D01*
Y161407D01*
X56000D01*
X56000Y161407D01*
X55296Y161116D01*
X55005Y160995D01*
X55005Y160995D01*
X50898Y156887D01*
X43791D01*
X43281Y157650D01*
X42957Y158434D01*
Y159460D01*
X46379D01*
X48649Y161730D01*
Y166270D01*
X46379Y168540D01*
X36720D01*
X35514Y167333D01*
X34999Y167687D01*
X34897Y167757D01*
X34834Y167800D01*
X34741Y167864D01*
X34738Y167867D01*
X34676Y167910D01*
Y168086D01*
X34676Y168648D01*
Y168706D01*
Y168706D01*
Y169405D01*
D02*
G37*
G36*
X150229Y154501D02*
X140755D01*
Y153533D01*
X128110D01*
X127326Y153858D01*
X126101Y153351D01*
X125594Y152126D01*
X126101Y150901D01*
X127326Y150394D01*
X128110Y150719D01*
X140755D01*
Y149751D01*
X150229D01*
Y154501D01*
D02*
G37*
G36*
X59500Y150268D02*
X54768D01*
Y144158D01*
X59500D01*
Y150268D01*
D02*
G37*
G36*
X164500Y121232D02*
X159768D01*
Y115122D01*
X164500D01*
Y121232D01*
D02*
G37*
G36*
X139257Y115275D02*
X138032Y114768D01*
X137525Y113543D01*
X138032Y112319D01*
X138816Y111994D01*
X139049Y111761D01*
X140044Y111349D01*
X140755Y110753D01*
Y110381D01*
X150229D01*
Y115131D01*
X141755D01*
X140755Y115131D01*
X140755Y115131D01*
X139780Y115070D01*
X139780Y115070D01*
X139755Y115069D01*
X139257Y115275D01*
D02*
G37*
G36*
X150229Y123005D02*
X140755D01*
Y118255D01*
X150229D01*
Y123005D01*
D02*
G37*
G36*
X87237D02*
X77763D01*
Y118255D01*
X87237D01*
Y123005D01*
D02*
G37*
G36*
X150429Y104382D02*
X145992D01*
Y102307D01*
X150429D01*
Y104382D01*
D02*
G37*
G36*
X144992D02*
X140555D01*
Y102307D01*
X144992D01*
Y104382D01*
D02*
G37*
G36*
X150429Y107457D02*
X145992D01*
Y105382D01*
X150429D01*
Y107457D01*
D02*
G37*
G36*
X144992D02*
X140555D01*
Y105382D01*
X144992D01*
Y107457D01*
D02*
G37*
G36*
X150229Y146627D02*
X140755D01*
Y141877D01*
X150229D01*
Y146627D01*
D02*
G37*
G36*
Y138753D02*
X140755D01*
Y134003D01*
X150229D01*
Y138753D01*
D02*
G37*
G36*
X22732Y150268D02*
X18000D01*
Y144158D01*
X22732D01*
Y150268D01*
D02*
G37*
G36*
X17000D02*
X12268D01*
Y144158D01*
X17000D01*
Y150268D01*
D02*
G37*
G36*
X87237Y130879D02*
X77763D01*
Y126129D01*
X87237D01*
Y130879D01*
D02*
G37*
G36*
X164500Y128342D02*
X159768D01*
Y122232D01*
X164500D01*
Y128342D01*
D02*
G37*
G36*
X87237Y138753D02*
X77763D01*
Y134003D01*
X87237D01*
Y138753D01*
D02*
G37*
G36*
X150229Y130879D02*
X140755D01*
Y126129D01*
X150229D01*
Y130879D01*
D02*
G37*
%LPD*%
D10*
X145492Y160000D02*
D03*
Y152126D02*
D03*
Y144252D02*
D03*
Y136378D02*
D03*
Y128504D02*
D03*
Y120630D02*
D03*
Y112756D02*
D03*
Y104882D02*
D03*
X82500D02*
D03*
Y112756D02*
D03*
Y120630D02*
D03*
Y128504D02*
D03*
Y136378D02*
D03*
Y144252D02*
D03*
Y152126D02*
D03*
Y160000D02*
D03*
D11*
X165000Y121732D02*
D03*
Y138268D02*
D03*
X120000Y68268D02*
D03*
Y51732D02*
D03*
X80800Y25068D02*
D03*
Y8532D02*
D03*
X60000Y41732D02*
D03*
Y58268D02*
D03*
X17500Y150768D02*
D03*
Y134232D02*
D03*
X60000Y150768D02*
D03*
Y134232D02*
D03*
D12*
X100000Y76850D02*
D03*
Y63150D02*
D03*
D13*
X109216Y55740D02*
D03*
Y52000D02*
D03*
Y48260D02*
D03*
X98783D02*
D03*
Y52000D02*
D03*
Y55740D02*
D03*
D14*
X95000Y16043D02*
D03*
Y8957D02*
D03*
D15*
X57500Y17500D02*
D03*
D16*
X68228Y10000D02*
D03*
Y15000D02*
D03*
Y20000D02*
D03*
Y25000D02*
D03*
X46772Y10000D02*
D03*
Y15000D02*
D03*
Y20000D02*
D03*
Y25000D02*
D03*
D17*
X27500Y11240D02*
D03*
Y28760D02*
D03*
D18*
X44173Y113347D02*
D03*
X46142D02*
D03*
X48110D02*
D03*
X50079D02*
D03*
X52047D02*
D03*
X54016D02*
D03*
X55984D02*
D03*
X57953D02*
D03*
X59921D02*
D03*
X61890D02*
D03*
X63858D02*
D03*
X65827D02*
D03*
Y81653D02*
D03*
X63858D02*
D03*
X61890D02*
D03*
X59921D02*
D03*
X57953D02*
D03*
X55984D02*
D03*
X54016D02*
D03*
X52047D02*
D03*
X50079D02*
D03*
X48110D02*
D03*
X46142D02*
D03*
X44173D02*
D03*
D19*
X70846Y108327D02*
D03*
Y106358D02*
D03*
Y104390D02*
D03*
Y102421D02*
D03*
Y100453D02*
D03*
Y98484D02*
D03*
Y96516D02*
D03*
Y94547D02*
D03*
Y92579D02*
D03*
Y90610D02*
D03*
Y88642D02*
D03*
Y86673D02*
D03*
X39154D02*
D03*
Y88642D02*
D03*
Y90610D02*
D03*
Y92579D02*
D03*
Y94547D02*
D03*
Y96516D02*
D03*
Y98484D02*
D03*
Y100453D02*
D03*
Y102421D02*
D03*
Y104390D02*
D03*
Y106358D02*
D03*
Y108327D02*
D03*
D20*
X25000Y107461D02*
D03*
Y92500D02*
D03*
D21*
X13543Y92500D02*
D03*
X6457D02*
D03*
X13543Y107500D02*
D03*
X6457D02*
D03*
D22*
X31063Y148406D02*
D03*
Y136594D02*
D03*
X30920Y158095D02*
D03*
Y169905D02*
D03*
D23*
X31850Y142500D02*
D03*
X31707Y164000D02*
D03*
D24*
X41693Y142500D02*
D03*
X41550Y164000D02*
D03*
D25*
X82500Y59567D02*
D03*
Y45000D02*
D03*
D26*
X87200Y160000D02*
X88944Y158256D01*
X32008Y100453D02*
X39154D01*
X25000Y107461D02*
X32008Y100453D01*
X30984Y98484D02*
X39154D01*
X25000Y92500D02*
X30984Y98484D01*
X13543Y92500D02*
X25000D01*
X13543Y92500D02*
X13543Y92500D01*
X13583Y107461D02*
X25000D01*
X13543Y107500D02*
X13583Y107461D01*
X29473Y86673D02*
X39154D01*
X17200Y74400D02*
X29473Y86673D01*
X34454Y81653D02*
X44173D01*
X27200Y74400D02*
X34454Y81653D01*
X39154Y96516D02*
X63484D01*
X64800Y95200D01*
X133600Y56000D02*
X160800D01*
X165000Y60200D01*
Y73090D01*
X39154Y90610D02*
X60590D01*
X62400Y88800D01*
X114400Y77600D02*
X129600D01*
X45600Y76800D02*
X46142Y77342D01*
Y81653D01*
X50079Y77921D02*
Y81653D01*
Y77921D02*
X50400Y77600D01*
X48110Y76340D02*
Y81653D01*
X66400Y31200D02*
X68000Y29600D01*
X74400D01*
X54016Y76416D02*
Y81653D01*
X48800Y71200D02*
X54016Y76416D01*
X56800Y75200D02*
X59200Y72800D01*
X56800Y75200D02*
Y77376D01*
X59921Y76721D02*
Y81653D01*
X59200Y76000D02*
X59921Y76721D01*
X42400Y36000D02*
X44000Y34400D01*
X106585Y32185D02*
X142500D01*
X56800Y77376D02*
X57953Y78529D01*
Y81653D01*
X61890Y76510D02*
Y81653D01*
Y76510D02*
X63200Y75200D01*
X67200D01*
X70600Y73000D02*
X74400Y76800D01*
X105454Y71200D02*
X113654Y79400D01*
X105600Y68800D02*
X114400Y77600D01*
X70400Y68800D02*
X105600D01*
X65654Y73000D02*
X70600D01*
X66400Y71200D02*
X105454D01*
X59200Y72800D02*
X65454D01*
X65654Y73000D01*
X65600Y70400D02*
X66400Y71200D01*
X64000Y70400D02*
X65600D01*
X96800Y20800D02*
X97200D01*
X99600Y18400D01*
X138558D01*
X142500Y22343D01*
X70846Y96516D02*
X120516D01*
X123200Y99200D01*
X127326Y152126D02*
X145492D01*
X70846Y98484D02*
X119514D01*
X120800Y99770D01*
X127200Y160000D02*
X145492D01*
X70846Y104390D02*
X73971D01*
X77561Y100800D01*
X96000D01*
X71200Y84000D02*
X82400D01*
X89600Y91200D01*
X52047Y113347D02*
Y120047D01*
X34743Y70057D02*
X47657D01*
X48800Y71200D01*
X91452Y144252D02*
X92500Y145300D01*
X82500Y144252D02*
X91452D01*
X139257Y113543D02*
X140044Y112756D01*
X145492D01*
X17500Y134232D02*
X24632D01*
X26994Y136594D01*
X31063D01*
X42946Y113347D02*
X44173D01*
X42693Y113600D02*
X42946Y113347D01*
X31063Y136594D02*
X35405D01*
X38400Y133600D01*
Y129600D02*
Y133600D01*
X43779Y92579D02*
X44000Y92800D01*
X39154Y92579D02*
X43779D01*
X33821D02*
X39154D01*
X44173Y109427D02*
Y113347D01*
Y109427D02*
X45600Y108000D01*
X65827Y109600D02*
Y113347D01*
X61300Y107500D02*
X66697D01*
X67523Y108327D01*
X70846D01*
X79055D01*
X82500Y104882D01*
X84782Y102600D01*
X88200D01*
X88800Y103200D01*
X65827Y81653D02*
X68747D01*
X65827D02*
Y89373D01*
X62400Y92800D02*
X65827Y89373D01*
X45600Y108000D02*
X60800D01*
X41550Y157650D02*
Y164000D01*
Y148850D02*
X41693Y148707D01*
Y142500D02*
Y148707D01*
X30920Y155480D02*
Y158095D01*
Y138680D02*
X31063Y138537D01*
Y136594D02*
Y138537D01*
X30920Y155480D02*
X51480D01*
X56000Y160000D01*
X82500D01*
X87200D01*
X49961Y134232D02*
X60000D01*
X41693Y142500D02*
X49961Y134232D01*
X88800Y103200D02*
X108000D01*
X109600Y91200D02*
X137600D01*
X139200Y89600D01*
X159200Y140000D02*
X163268D01*
X165000Y138268D01*
X102700Y28300D02*
X106585Y32185D01*
X72000Y32000D02*
X85549D01*
X44000Y34400D02*
X86400D01*
X88800Y32000D01*
X87126Y36800D02*
X91240Y32686D01*
X68800Y36800D02*
X87126D01*
X86700Y29530D02*
X87930Y28300D01*
X86700Y29530D02*
Y30849D01*
X85549Y32000D02*
X86700Y30849D01*
X88800Y30400D02*
Y32000D01*
X87930Y28300D02*
X102700D01*
X91240Y32686D02*
X93560D01*
X97674Y36800D01*
X99200D01*
X100000Y37600D01*
X93697Y52000D02*
X97437Y48260D01*
X98783D01*
X136000Y60000D02*
X145000D01*
X129600Y77600D02*
X130400Y76800D01*
Y76000D02*
Y76800D01*
X130346Y79400D02*
X132800Y76946D01*
X113654Y79400D02*
X130346D01*
X132800Y74400D02*
Y76946D01*
Y63200D02*
X136000Y60000D01*
X109143Y48187D02*
X109216Y48260D01*
X109143Y46400D02*
Y48187D01*
X35247Y94547D02*
X39154D01*
X35115Y94679D02*
X35247Y94547D01*
X70846Y106358D02*
X75110D01*
X75242Y106227D01*
X92800Y52000D02*
X93697D01*
X76000Y66400D02*
X93600D01*
X95053Y64947D01*
Y64800D02*
Y64947D01*
X63858Y77691D02*
Y81653D01*
X66993Y77302D02*
X67291Y77600D01*
X63858Y77691D02*
X64247Y77302D01*
X66993D01*
D27*
X68228Y15000D02*
X72200D01*
X72400Y15200D01*
X29940Y31200D02*
X42400D01*
X27500Y28760D02*
X29940Y31200D01*
X41600Y12000D02*
X43600Y10000D01*
X46772D01*
X41257Y17257D02*
X44000Y20000D01*
X46772D01*
X62028Y31200D02*
X68228Y25000D01*
X42400Y31200D02*
X62028D01*
X68228Y20000D02*
X72000D01*
X79332Y10000D02*
X80800Y8532D01*
X94423Y16043D02*
X95000D01*
X89600Y11220D02*
X94423Y16043D01*
X89600Y11200D02*
Y11220D01*
X69000Y10000D02*
X71500Y7500D01*
X68228Y10000D02*
X69000D01*
X79332D01*
X82500Y45000D02*
X82886D01*
X120000Y51732D02*
X126132D01*
X93600Y74400D02*
X96050Y76850D01*
X100000D01*
X82886Y45000D02*
X92400Y35486D01*
X112800Y52000D02*
X113600Y51200D01*
X109216Y52000D02*
X112800D01*
X113600Y51200D02*
X119200D01*
X119732Y51732D02*
X120000D01*
X119200Y51200D02*
X119732Y51732D01*
X94957Y59567D02*
X98783Y55740D01*
X82500Y59567D02*
X94957D01*
X98539Y63150D01*
X100000D01*
X66179Y52221D02*
X80800D01*
X69120Y45000D02*
X82500D01*
X64978Y49143D02*
X69120Y45000D01*
X41471Y49143D02*
X64978D01*
X37376Y53237D02*
X41471Y49143D01*
X32363Y53237D02*
X37376D01*
X32000Y53600D02*
X32363Y53237D01*
X7200Y74400D02*
X16800Y64800D01*
X53600D01*
X59200Y59200D01*
X53600Y53600D02*
X59200Y59200D01*
X66179Y52221D01*
X100000Y76850D02*
X107852D01*
X112702Y81700D01*
X139636Y74764D02*
X145000D01*
X112702Y81700D02*
X132700D01*
X139636Y74764D01*
X136072Y71200D02*
X139636Y74764D01*
X25600Y142400D02*
X25700Y142500D01*
X31850D01*
X41693D01*
X31707Y164000D02*
X41550D01*
X107500Y60500D02*
X109216Y58784D01*
Y55740D02*
Y58784D01*
X84086Y43800D02*
X111800D01*
X82886Y45000D02*
X84086Y43800D01*
X111800D02*
X119200Y51200D01*
X80800Y8532D02*
X89600Y17332D01*
Y20000D01*
X92000Y22400D01*
D28*
X79600Y91200D02*
D03*
X89600D02*
D03*
X99600D02*
D03*
X142500Y42028D02*
D03*
X37200Y74400D02*
D03*
X27200D02*
D03*
X17200D02*
D03*
D29*
X109600Y91200D02*
D03*
X7200Y74400D02*
D03*
D30*
X145000Y89528D02*
D03*
Y84606D02*
D03*
Y79685D02*
D03*
Y74764D02*
D03*
Y69842D02*
D03*
Y64921D02*
D03*
Y60000D02*
D03*
D31*
X165000Y47500D02*
D03*
Y73090D02*
D03*
X45000Y57500D02*
D03*
X35000Y47500D02*
D03*
X25000Y57500D02*
D03*
X167500Y12500D02*
D03*
Y175000D02*
D03*
X5000D02*
D03*
Y12500D02*
D03*
D32*
X142500D02*
D03*
Y22343D02*
D03*
Y32185D02*
D03*
D33*
X112500Y25000D02*
D03*
Y9409D02*
D03*
D34*
X59665Y13169D02*
D03*
X55335D02*
D03*
X59665Y17500D02*
D03*
X55335D02*
D03*
X59665Y21831D02*
D03*
X55335D02*
D03*
D35*
X88944Y158256D02*
D03*
X64800Y95200D02*
D03*
X133600Y56000D02*
D03*
X62400Y88800D02*
D03*
X42400Y36000D02*
D03*
X45600Y76800D02*
D03*
X50400Y77600D02*
D03*
X48110Y76340D02*
D03*
X66400Y31200D02*
D03*
X74400Y29600D02*
D03*
X68800Y36800D02*
D03*
X48800Y71200D02*
D03*
X74400Y76800D02*
D03*
X59200Y76000D02*
D03*
X72000Y32000D02*
D03*
X67200Y75200D02*
D03*
X70400Y68800D02*
D03*
X64000Y70400D02*
D03*
X76000Y66400D02*
D03*
X96800Y20800D02*
D03*
X123200Y99200D02*
D03*
X127326Y152126D02*
D03*
X120800Y99770D02*
D03*
X127200Y160000D02*
D03*
X96000Y100800D02*
D03*
X71200Y84000D02*
D03*
X52047Y120047D02*
D03*
X34743Y70057D02*
D03*
X92500Y145300D02*
D03*
X139257Y113543D02*
D03*
X42693Y113600D02*
D03*
X38400Y129600D02*
D03*
X44000Y92800D02*
D03*
X33821Y92579D02*
D03*
X65827Y109600D02*
D03*
X88800Y103200D02*
D03*
X68747Y81653D02*
D03*
X62400Y92800D02*
D03*
X60800Y107500D02*
D03*
X41550Y157650D02*
D03*
Y148850D02*
D03*
X30920Y155480D02*
D03*
Y138680D02*
D03*
X108000Y103200D02*
D03*
X139200Y89600D02*
D03*
X159200Y140000D02*
D03*
X88800Y30400D02*
D03*
X100000Y37600D02*
D03*
X130400Y76000D02*
D03*
X132800Y74400D02*
D03*
Y63200D02*
D03*
X107500Y60500D02*
D03*
X152500Y59581D02*
D03*
X109143Y46400D02*
D03*
X35115Y94679D02*
D03*
X75242Y106227D02*
D03*
X92800Y52000D02*
D03*
X95053Y64800D02*
D03*
X67291Y77600D02*
D03*
X50857Y60800D02*
D03*
D36*
X72400Y15200D02*
D03*
X42400Y31200D02*
D03*
X41600Y12000D02*
D03*
X41257Y17257D02*
D03*
X72000Y20000D02*
D03*
X89600Y11200D02*
D03*
X71500Y7500D02*
D03*
X80800Y52221D02*
D03*
X126132Y51732D02*
D03*
X93600Y74400D02*
D03*
X92000Y22400D02*
D03*
X92400Y35486D02*
D03*
X113600Y51200D02*
D03*
X53600Y53600D02*
D03*
X32000D02*
D03*
X136072Y71200D02*
D03*
X25600Y142400D02*
D03*
X104000Y24000D02*
D03*
M02*
